<?xml version="1.0" encoding="UTF-8" standalone="no"?>
<!DOCTYPE svg PUBLIC "-//W3C//DTD SVG 1.1//EN" "http://www.w3.org/Graphics/SVG/1.1/DTD/svg11.dtd">
<!-- Generated by Microsoft Visio, SVG Export Azure Synapse Analytics.svg Page-1 -->
<svg xmlns="http://www.w3.org/2000/svg" xmlns:xlink="http://www.w3.org/1999/xlink" xmlns:ev="http://www.w3.org/2001/xml-events"
		xmlns:v="http://schemas.microsoft.com/visio/2003/SVGExtensions/" width="1.53267in" height="1.61884in"
		viewBox="0 0 110.352 116.557" xml:space="preserve" color-interpolation-filters="sRGB" class="st6">
	<v:documentProperties v:langID="1043" v:metric="true" v:viewMarkup="false"/>

	<style type="text/css">
	<![CDATA[
		.st1 {fill:#0078d4;stroke:none;stroke-linecap:butt;stroke-width:34}
		.st2 {fill:url(#grad0-7);stroke:none;stroke-linecap:butt;stroke-width:34}
		.st3 {fill:#50e6ff;stroke:none;stroke-linecap:butt;stroke-width:34}
		.st4 {fill:url(#grad0-15);stroke:none;stroke-linecap:butt;stroke-width:34}
		.st5 {fill:none;stroke:none;stroke-linecap:butt;stroke-width:34}
		.st6 {fill:none;fill-rule:evenodd;font-size:12px;overflow:visible;stroke-linecap:square;stroke-miterlimit:3}
	]]>
	</style>

	<defs id="Patterns_And_Gradients">
		<linearGradient id="grad0-7" x1="0" y1="0" x2="1" y2="0" gradientTransform="rotate(-90 0.5 0.5)">
			<stop offset="0.2" stop-color="#005ba1" stop-opacity="1"/>
			<stop offset="1" stop-color="#0078d4" stop-opacity="1"/>
		</linearGradient>
		<linearGradient id="grad0-15" x1="0" y1="0" x2="1" y2="0" gradientTransform="rotate(-90 0.5 0.5)">
			<stop offset="0" stop-color="#198ab3" stop-opacity="1"/>
			<stop offset="0.35" stop-color="#32bedd" stop-opacity="1"/>
			<stop offset="0.8" stop-color="#50e6ff" stop-opacity="1"/>
		</linearGradient>
	</defs>
	<g v:mID="0" v:index="1" v:groupContext="foregroundPage">
		<title>Page-1</title>
		<v:pageProperties v:drawingScale="0.0393701" v:pageScale="0.0393701" v:drawingUnits="24" v:shadowOffsetX="9"
				v:shadowOffsetY="-9"/>
		<g id="group1-1" transform="translate(34,-34)" v:mID="1" v:groupContext="group">
			<title>Sheet.1</title>
			<g id="shape2-2" v:mID="2" v:groupContext="shape">
				<title>Sheet.2</title>
				<path d="M21.18 68 L0 80.11 L0 104.39 L21.18 116.56 L42.35 104.44 L42.35 80.17 L21.18 68 ZM38.44 101.91 L21.18 111.89
							 L3.91 102.02 L3.91 82.51 L21.18 72.53 L38.44 82.54 L38.44 101.91 Z" class="st1"/>
			</g>
			<g id="shape3-4" v:mID="3" v:groupContext="shape" transform="translate(1.9984E-14,-34.0437)">
				<title>Sheet.3</title>
				<path d="M21.18 102.04 L0 114.16 L3.91 116.56 L21.18 106.58 L38.44 116.56 L42.35 114.16 L21.18 102.04 Z"
						class="st2"/>
			</g>
			<g id="shape4-8" v:mID="4" v:groupContext="shape" transform="translate(12.4629,-17.2916)">
				<title>Sheet.4</title>
				<path d="M14.97 116.56 A11.6536 11.6536 -180 0 0 0.94 107.95 L0 104.01 A15.7 15.7 0 0 1 18.88 115.64 L14.97 116.56
							 Z" class="st3"/>
			</g>
			<g id="shape5-10" v:mID="5" v:groupContext="shape" transform="translate(6.63609,-6.0696)">
				<title>Sheet.5</title>
				<path d="M24.63 102.31 A1.99622 1.99622 -180 0 0 21.93 101.59 L0 114.21 L4.05 116.56 L23.9 105.09 A2.05018 2.05018
							 -180 0 0 24.63 102.31 ZM25.09 80.11 L5.18 91.6 A2.05018 2.05018 -180 0 0 4.45 94.3 A2.0232 2.0232 -180
							 0 0 6.2 95.3 A1.86134 1.86134 -180 0 0 7.2 95.03 L29.16 82.35 L25.09 80.11 Z" class="st3"/>
			</g>
			<g id="shape6-12" v:mID="6" v:groupContext="shape" transform="translate(24.5212,-14.2973)">
				<title>Sheet.6</title>
				<ellipse cx="4.99056" cy="111.566" rx="4.99056" ry="4.99056" class="st4"/>
			</g>
			<g id="shape7-16" v:mID="7" v:groupContext="shape" transform="translate(7.85001,-24.2784)">
				<title>Sheet.7</title>
				<ellipse cx="4.99056" cy="111.566" rx="4.99056" ry="4.99056" class="st5"/>
			</g>
		</g>
		<g id="shape8-18" v:mID="8" v:groupContext="shape" transform="translate(40.2643,-57.5276)">
			<title>Sheet.8</title>
			<ellipse cx="4.99056" cy="111.566" rx="4.99056" ry="4.99056" class="st4"/>
		</g>
	</g>
</svg>
