<svg viewBox="0 0 50 50" class="" role="presentation" focusable="false" xmlns:svg="http://www.w3.org/2000/svg" xmlns:xlink="http://www.w3.org/1999/xlink" id="FxSymbol0-0b4" data-type="1"><g><title></title><path d="M2.293 32L23 17.293 43.707 32 23 47.707 2.293 32z" class="msportalfx-svg-c16" fill="#3999c6"></path><path d="M7.362 32.079L23 20.973l15.638 11.106L23 43.941z" class="msportalfx-svg-c01" fill="#ffffff"></path><path opacity=".4" d="M7.362 32.079L23 20.973l15.638 11.106L23 43.941z" class="msportalfx-svg-c15" fill="#59b4d9"></path><circle cx="40" cy="32" r="6.9" class="msportalfx-svg-c01" fill="#ffffff"></circle><path d="M40 28.1c2.15 0 3.9 1.75 3.9 3.9s-1.75 3.9-3.9 3.9-3.9-1.75-3.9-3.9 1.75-3.9 3.9-3.9m0-3a6.9 6.9 0 1 0 0 13.8 6.9 6.9 0 1 0 0-13.8z" class="msportalfx-svg-c16" fill="#3999c6"></path><path d="M48.773 9.551C48.773 4.388 44.845.1 40 .1s-8.773 4.113-8.773 9.451S40 29.5 40 33c0-3.5 8.773-18.286 8.773-23.449z" class="msportalfx-svg-c17" fill="#804998"></path><circle cx="40" cy="9" r="3.9" class="msportalfx-svg-c01" fill="#ffffff"></circle><circle cx="23" cy="20" r="4.9" class="msportalfx-svg-c17" fill="#804998"></circle><circle cx="6" cy="32" r="4.9" class="msportalfx-svg-c17" fill="#804998"></circle><circle cx="23" cy="45" r="4.9" class="msportalfx-svg-c17" fill="#804998"></circle></g><defs>
</defs>
</svg>