<svg viewBox="0 0 14.167 17" class="" role="presentation" focusable="false" xmlns="http://www.w3.org/2000/svg" xmlns:xlink="http://www.w3.org/1999/xlink" id="FxSymbol0-03d" data-type="1"><g><title>Icon-nameAsset 2</title><path d="M14.167 7.938c0 4.571-5.627 8.25-6.851 9a.449.449 0 0 1-.466 0c-1.223-.75-6.85-4.429-6.85-9v-5.5A.44.44 0 0 1 .435 2C4.811 1.886 3.8 0 7.083 0s2.273 1.886 6.649 2a.441.441 0 0 1 .435.435z" fill="#0078d4"></path><path d="M13.579 7.985c0 4.191-5.16 7.566-6.282 8.25a.41.41 0 0 1-.427 0C5.747 15.551.588 12.176.588 7.985V2.941a.4.4 0 0 1 .4-.4C5 2.435 4.076.705 7.083.705s2.084 1.73 6.1 1.837a.4.4 0 0 1 .4.4z" fill="url(#b12b3dc5-60d9-438c-80d2-7843f512c10e)"></path><path d="M9.936 7.16h-.407V5.743a2.657 2.657 0 0 0-.7-1.809 2.358 2.358 0 0 0-3.483 0 2.61 2.61 0 0 0-.7 1.808V7.16H4.23a.329.329 0 0 0-.326.32v3.682a.33.33 0 0 0 .326.32h5.706a.329.329 0 0 0 .326-.32V7.48a.327.327 0 0 0-.326-.32zm-1.549 0H5.779V5.719a1.434 1.434 0 0 1 .41-.99 1.2 1.2 0 0 1 1.788 0 1.394 1.394 0 0 1 .153.2 1.437 1.437 0 0 1 .258.791z" fill="#ffbd02"></path><path d="M4.231 7.158h5.706a.328.328 0 0 1 .209.08L4.022 11.4a.314.314 0 0 1-.117-.241v-3.68a.329.329 0 0 1 .326-.321z" fill="#ffe452"></path><path d="M9.936 7.158H4.23a.328.328 0 0 0-.209.08l6.125 4.162a.316.316 0 0 0 .116-.241v-3.68a.328.328 0 0 0-.326-.321z" fill="#ffd400" opacity=".5"></path></g><defs>
<linearGradient id="b12b3dc5-60d9-438c-80d2-7843f512c10e" x1="7.083" y1="16.295" x2="7.083" y2=".705" gradientUnits="userSpaceOnUse"><stop offset="0" stop-color="#0078d4"></stop><stop offset=".064" stop-color="#0a7cd7"></stop><stop offset=".338" stop-color="#2e8ce1"></stop><stop offset=".594" stop-color="#4897e9"></stop><stop offset=".822" stop-color="#589eed"></stop><stop offset="1" stop-color="#5ea0ef"></stop></linearGradient>
</defs>
</svg>