<svg viewBox="0 0 10.39 18" class="" role="presentation" focusable="false" xmlns="http://www.w3.org/2000/svg" xmlns:xlink="http://www.w3.org/1999/xlink" id="FxSymbol0-03f" data-type="1"><g><title></title><title>Icon-nameAsset 3</title><path d="M10.232 14.581l-3.17 3.3a.408.408 0 0 1-.569 0 .4.4 0 0 1-.111-.208L4.511 8.539a.392.392 0 0 1 .233-.428l2.033-.831a.406.406 0 0 1 .525.192l3.009 6.663a.387.387 0 0 1-.079.446z" fill="#37c2b1"></path><path d="M.118 14.581l3.17 3.3a.407.407 0 0 0 .568 0 .383.383 0 0 0 .111-.208l1.872-9.134a.392.392 0 0 0-.234-.428L3.573 7.28a.406.406 0 0 0-.525.192l-3.01 6.663a.388.388 0 0 0 .08.446z" fill="#42e8ca"></path><path d="M5.677.478l.4-.333a.628.628 0 0 1 .991.266L7.245.9a.629.629 0 0 0 .7.4l.511-.089a.628.628 0 0 1 .725.511.621.621 0 0 1 0 .215l-.089.511a.627.627 0 0 0 .4.7l.487.179a.627.627 0 0 1 .372.805.6.6 0 0 1-.107.185l-.332.4a.628.628 0 0 0 0 .8l.332.4a.628.628 0 0 1-.265.991l-.487.178a.628.628 0 0 0-.4.7l.089.511a.628.628 0 0 1-.512.725.641.641 0 0 1-.214 0l-.511-.088a.628.628 0 0 0-.7.4l-.178.487a.627.627 0 0 1-.805.373.639.639 0 0 1-.186-.107l-.4-.332a.628.628 0 0 0-.8 0l-.4.332A.628.628 0 0 1 3.592 10a.639.639 0 0 1-.107-.186l-.179-.486a.627.627 0 0 0-.7-.4l-.506.089a.627.627 0 0 1-.726-.511.641.641 0 0 1 0-.214l.089-.511a.63.63 0 0 0-.4-.7l-.49-.175a.627.627 0 0 1-.266-.991l.332-.4a.626.626 0 0 0 0-.8l-.332-.4a.628.628 0 0 1 .266-.99l.487-.179a.629.629 0 0 0 .4-.7l-.089-.511a.628.628 0 0 1 .511-.726.647.647 0 0 1 .215 0l.513.091a.628.628 0 0 0 .7-.4l.175-.488a.63.63 0 0 1 .991-.266l.4.333a.628.628 0 0 0 .801-.001z" fill="#005ba1"></path><circle cx="5.276" cy="5.114" r="3.653" fill="#ffca00"></circle></g><defs>
</defs>
</svg>