<svg viewBox="0 0 15.583 17" class="" role="presentation" focusable="false" xmlns="http://www.w3.org/2000/svg" xmlns:xlink="http://www.w3.org/1999/xlink" id="FxSymbol0-040" data-type="1"><g><title>Icon-nameAsset 5</title><path fill="#b796f9" d="M13.518 1.122l-3.988 7.1-4.217-4.299L.957 9.557l1.029.802 3.443-4.454 4.386 4.472 4.837-8.612-1.134-.643z"></path><ellipse cx="5.364" cy="4.909" rx="1.639" ry="1.646" fill="url(#a318e2f4-758e-459a-aee5-658c313b9b3b)"></ellipse><ellipse cx="9.814" cy="9.005" rx="1.639" ry="1.646" fill="url(#e8ad1bcd-dde8-45e5-93a9-1739875314a7)"></ellipse><ellipse cx="13.945" cy="1.646" rx="1.639" ry="1.646" fill="url(#a7c4384a-a502-467a-a528-f2b8e1a73c5b)"></ellipse><ellipse cx="1.639" cy="9.715" rx="1.639" ry="1.646" fill="url(#a40d6463-2678-4142-afe4-8f28e6fd7b13)"></ellipse><rect x="4.461" y="9.418" width="2.576" height="7.582" rx=".283" fill="#0078d4"></rect><rect x="8.572" y="12.042" width="2.576" height="4.958" rx=".283" fill="#005ba1"></rect><rect x="12.683" y="6.881" width="2.576" height="10.119" rx=".283" fill="#005ba1"></rect><rect x=".35" y="12.042" width="2.576" height="4.958" rx=".283" fill="#5ea0ef"></rect></g><defs>
<linearGradient id="a318e2f4-758e-459a-aee5-658c313b9b3b" x1="5.364" y1="6.555" x2="5.364" y2="3.263" gradientUnits="userSpaceOnUse"><stop offset=".003" stop-color="#773adc"></stop><stop offset=".246" stop-color="#9255e6"></stop><stop offset=".502" stop-color="#a669ee"></stop><stop offset=".755" stop-color="#b376f2"></stop><stop offset="1" stop-color="#b77af4"></stop></linearGradient>
<linearGradient id="e8ad1bcd-dde8-45e5-93a9-1739875314a7" x1="9.814" y1="10.651" x2="9.814" y2="7.359"></linearGradient>
<linearGradient id="a7c4384a-a502-467a-a528-f2b8e1a73c5b" x1="13.945" y1="3.292" x2="13.945"></linearGradient>
<linearGradient id="a40d6463-2678-4142-afe4-8f28e6fd7b13" x1="1.639" y1="11.361" x2="1.639" y2="8.069"></linearGradient>
</defs>
</svg>