<svg viewBox="0 0 15.23 18" class="" role="presentation" focusable="false" xmlns="http://www.w3.org/2000/svg" xmlns:xlink="http://www.w3.org/1999/xlink" id="FxSymbol0-03e" data-type="1"><g><title>Icon-nameAsset 6</title><path d="M7.937 15.09c0-.163-.649-.163-.649 0a1.754 1.754 0 0 1-1.733 1.9h4.111a1.752 1.752 0 0 1-1.729-1.9z" fill="#198ab3"></path><path d="M12.205.635a.6.6 0 0 1 .855 0l.027.029A8.809 8.809 0 0 1 .661 13.085a.6.6 0 0 1-.052-.853l.026-.027a.6.6 0 0 1 .828-.024A7.6 7.6 0 0 0 12.181 1.463a.6.6 0 0 1 .024-.828zM10.734 18H4.487a.5.5 0 0 1-.5-.5.5.5 0 0 1 .5-.5h6.247a.5.5 0 0 1 .5.5.5.5 0 0 1-.5.5z" fill="#32bedd"></path><circle cx="6.42" cy="6.42" r="6.42" fill="url(#bbfc4466-e134-4443-8b30-4586cce48626)"></circle><circle cx="6.42" cy="6.42" r="6.42" fill="none"></circle><path d="M5.176 6.433a.889.889 0 1 0-1.257 0 .889.889 0 0 0 1.257 0zm4.192-1.35a2.432 2.432 0 0 0 0 3.44l.491.492a.47.47 0 0 1-.009.658.471.471 0 0 1-.667 0l.006.007a.641.641 0 0 0-.9.909l1.373 1.373a6.414 6.414 0 0 0 3.015-7 2.431 2.431 0 0 0-3.309.121zm-5.81-2.117A1.489 1.489 0 0 0 5.664.86L4.97.166A6.408 6.408 0 0 0 2.187 1.6zm-2.769.369A6.361 6.361 0 0 0 .121 5.18l.746.747A.889.889 0 0 0 2.124 4.67zm3.358 9.089a6.412 6.412 0 0 0 4.629-.033l-.376-.373a2.772 2.772 0 0 0-3.921 0 2.843 2.843 0 0 0-.332.406z" fill="#37c2b1"></path></g><defs>
<radialGradient id="bbfc4466-e134-4443-8b30-4586cce48626" cx="1889.22" cy="-3805.861" r="6.42" gradientTransform="scale(1 -1) rotate(-45 5534.986 366.655)" gradientUnits="userSpaceOnUse"><stop offset="0" stop-color="#5ea0ef"></stop><stop offset="1" stop-color="#0078d4"></stop></radialGradient>
</defs>
</svg>