<svg viewBox="0 0 18 18" class="" role="presentation" focusable="false" xmlns="http://www.w3.org/2000/svg" xmlns:xlink="http://www.w3.org/1999/xlink" id="FxSymbol0-124" data-type="1"><g><title>Icon-compute-31</title><path d="M15.78 8.89L17.65 7c.15-.16.1-.29-.13-.29h-.93a.23.23 0 0 1-.23-.24c0-1.18-.3-4.47-4.8-4.58a.23.23 0 0 0-.24.23v1.14a.23.23 0 0 0 .25.23 2.75 2.75 0 0 1 3.33 3 .23.23 0 0 1-.23.24h-.87c-.23 0-.28.13-.13.3l1.74 1.9a.24.24 0 0 0 .37-.04z" fill="#949494"></path><rect x=".82" y=".34" width="12.46" height="8.64" rx=".57" fill="url(#bb7358ff-85d0-4bea-a1da-b619fa2b0e5a)"></rect><path d="M1.38.34h11.49a.41.41 0 0 1 .41.41V2.4H.82V.91a.57.57 0 0 1 .56-.57z" fill="#83b9f9"></path><path fill="url(#a518fdc9-13d3-4777-830e-8fa6d61499c0)" d="M.82 2.4h12.46v1.38H.82z"></path><rect x="9.9" y="10.95" width="7.92" height="5.49" rx=".36" fill="#005ba1"></rect><path d="M2.61 3.19h8.87a.19.19 0 0 1 .19.18v.93a.19.19 0 0 1-.19.17H2.61a.18.18 0 0 1-.19-.17v-.93a.18.18 0 0 1 .19-.18zm0 1.81h8.88a.17.17 0 0 1 .18.17v.93a.18.18 0 0 1-.18.18H2.61a.18.18 0 0 1-.18-.18v-.89A.17.17 0 0 1 2.61 5zm0 1.89h8.88a.18.18 0 0 1 .18.18V8a.18.18 0 0 1-.18.17H2.61A.18.18 0 0 1 2.43 8v-.93a.18.18 0 0 1 .18-.18z" class="msportalfx-svg-c01" fill="#ffffff"></path><rect x="8.59" y="9.77" width="7.92" height="5.49" rx=".36" fill="#0078d4"></rect><path d="M9 9.77h7.3a.26.26 0 0 1 .26.26v1H8.59v-.95A.36.36 0 0 1 9 9.77z" fill="#83b9f9"></path><path d="M9.73 11.59h5.64a.12.12 0 0 1 .12.11v.59a.12.12 0 0 1-.12.11H9.73a.11.11 0 0 1-.12-.11v-.59a.11.11 0 0 1 .12-.11zm0 1.17h5.64a.11.11 0 0 1 .12.11v.59a.11.11 0 0 1-.12.11H9.73a.12.12 0 0 1-.12-.11v-.59a.12.12 0 0 1 .12-.11zm0 1.18h5.64a.11.11 0 0 1 .12.11v.59a.11.11 0 0 1-.12.11H9.73a.12.12 0 0 1-.12-.11v-.59a.12.12 0 0 1 .12-.11z" class="msportalfx-svg-c01" fill="#ffffff"></path></g><defs>
<linearGradient id="bb7358ff-85d0-4bea-a1da-b619fa2b0e5a" x1="7.05" y1="8.98" x2="7.05" y2=".34" gradientUnits="userSpaceOnUse"><stop offset="0" stop-color="#0078d4"></stop><stop offset="1" stop-color="#5ea0ef"></stop></linearGradient>
<linearGradient id="a518fdc9-13d3-4777-830e-8fa6d61499c0" x1="7.05" y1="3.78" x2="7.05" y2="2.4" gradientUnits="userSpaceOnUse"><stop offset="0" stop-color="#194f9b" stop-opacity="0"></stop><stop offset=".26" stop-color="#194f9c" stop-opacity=".01"></stop><stop offset=".41" stop-color="#18519e" stop-opacity=".05"></stop><stop offset=".52" stop-color="#1654a2" stop-opacity=".11"></stop><stop offset=".62" stop-color="#1457a7" stop-opacity=".21"></stop><stop offset=".71" stop-color="#115cae" stop-opacity=".33"></stop><stop offset=".8" stop-color="#0d62b6" stop-opacity=".47"></stop><stop offset=".88" stop-color="#096ac0" stop-opacity=".65"></stop><stop offset=".95" stop-color="#0472cb" stop-opacity=".85"></stop><stop offset="1" stop-color="#0078d4"></stop></linearGradient>
</defs>
</svg>