<svg viewBox="0 0 50 50" class="" role="presentation" focusable="false" xmlns="http://www.w3.org/2000/svg" xmlns:xlink="http://www.w3.org/1999/xlink" id="FxSymbol0-059" data-type="254"><g><title></title><path d="M45 6.8L40.2 2l-2-2H3v50h44V8.8z" class="msportalfx-svg-c15" fill="#59b4d9"></path><path opacity=".8" d="M38 2H5v46h40V9h-7z" class="msportalfx-svg-c01" fill="#ffffff"></path><path d="M28.8 39.2c0 .6-.5 1.1-1.1 1.1H12.6c-.6 0-1.1-.5-1.1-1.1 0-.6.5-1.1 1.1-1.1h15.1c.6 0 1.1.5 1.1 1.1m10.1-15c0 .6-.5 1.1-1.1 1.1H12.6c-.6 0-1.1-.5-1.1-1.1 0-.6.5-1.1 1.1-1.1h25.1c.7 0 1.2.5 1.2 1.1m0 7.5c0 .6-.5 1.1-1.1 1.1H12.6c-.6 0-1.1-.5-1.1-1.1 0-.6.5-1.1 1.1-1.1h25.1c.7 0 1.2.5 1.2 1.1m0-15c0 .6-.5 1.1-1.1 1.1H12.6c-.6 0-1.1-.5-1.1-1.1 0-.6.5-1.1 1.1-1.1h25.1c.7 0 1.2.5 1.2 1.1" class="msportalfx-svg-c15" fill="#59b4d9"></path></g><defs>
</defs>
</svg>