<svg viewBox="0 0 18 18" class="" role="presentation" focusable="false" xmlns="http://www.w3.org/2000/svg" xmlns:xlink="http://www.w3.org/1999/xlink" id="FxSymbol0-04f" data-type="1"><g><title></title><title>Placeholder_Subscription</title><path d="M12.89 7.52a1.61 1.61 0 0 0 0-2.27l-2.76-2.78a1.6 1.6 0 0 0-2.26 0L5.1 5.24a1.63 1.63 0 0 0 0 2.28l2.33 2.33a.46.46 0 0 1 .13.32v4.28a.51.51 0 0 0 .16.39l1 1.05a.36.36 0 0 0 .5 0l1-1 .6-.6a.19.19 0 0 0 0-.28l-.43-.44a.22.22 0 0 1 0-.32l.43-.44a.19.19 0 0 0 0-.28l-.38-.53a.22.22 0 0 1 0-.31l.47-.46a.2.2 0 0 0 0-.28l-.6-.61v-.22zM9 3.14a.92.92 0 1 1-.92.92.91.91 0 0 1 .92-.92z" fill="#a3a3a3"></path><path d="M8.28 14.52a.2.2 0 0 0 .27-.06.19.19 0 0 0 0-.1V10.9a.21.21 0 0 0-.09-.17.2.2 0 0 0-.27 0 .27.27 0 0 0 0 .12v3.46a.22.22 0 0 0 .09.21z" fill="#e6e6e6"></path><rect x="6.78" y="6.17" width="4.55" height=".54" rx=".25" fill="#e6e6e6"></rect><rect x="6.78" y="7.04" width="4.55" height=".54" rx=".25" fill="#e6e6e6"></rect><path d="M0 0v5h2V2h3V0H0zm16 0h-3v2h3v3h2V0h-2zM2 13H0v5h5v-2H2v-3zm14 3h-3v2h5v-5h-2v3z" fill="#ffbd02"></path></g><defs>
</defs>
</svg>