<svg viewBox="0 0 14 16" class="" role="presentation" focusable="false" xmlns="http://www.w3.org/2000/svg" xmlns:xlink="http://www.w3.org/1999/xlink" id="FxSymbol0-053" data-type="44"><g><title></title><path d="M9.4 9.4a6.9 6.9 0 0 1 1.9 1 7.5 7.5 0 0 1 1.5 1.6 5.6 5.6 0 0 1 .9 1.9A7.1 7.1 0 0 1 14 16h-1a6.4 6.4 0 0 0-.5-2.4 7.6 7.6 0 0 0-1.2-1.9 7.6 7.6 0 0 0-1.9-1.2A6.4 6.4 0 0 0 7 10l-1.6.2-1.5.6-1.2.9-.9 1.2-.6 1.5A7.8 7.8 0 0 0 1 16H0a8.3 8.3 0 0 1 .3-2.2 6.4 6.4 0 0 1 1-1.8 7 7 0 0 1 1.4-1.6l1.9-1-1.1-.8-.8-1a5 5 0 0 1-.5-1.3A5.1 5.1 0 0 1 2 5a4.1 4.1 0 0 1 .4-1.9 3.8 3.8 0 0 1 1.1-1.6A3.8 3.8 0 0 1 5.1.4 4.1 4.1 0 0 1 7 0a4.1 4.1 0 0 1 1.9.4 3.8 3.8 0 0 1 1.6 1.1 3.8 3.8 0 0 1 1.1 1.6A4.1 4.1 0 0 1 12 5a5.1 5.1 0 0 1-.2 1.3 5 5 0 0 1-.5 1.3l-.8 1zM3 5a4.1 4.1 0 0 0 .3 1.6 3.4 3.4 0 0 0 .9 1.2 3.4 3.4 0 0 0 1.2.9A4.1 4.1 0 0 0 7 9a4.1 4.1 0 0 0 1.6-.3 3.4 3.4 0 0 0 1.2-.9 3.4 3.4 0 0 0 .9-1.2A4.1 4.1 0 0 0 11 5a4.1 4.1 0 0 0-.3-1.6 3.4 3.4 0 0 0-.9-1.2 3.4 3.4 0 0 0-1.2-.9A4.1 4.1 0 0 0 7 1a4.1 4.1 0 0 0-1.6.3 3.4 3.4 0 0 0-1.2.9 3.4 3.4 0 0 0-.9 1.2A4.1 4.1 0 0 0 3 5z"></path></g><defs>
</defs>
</svg>