<svg viewBox="0 0 18 18" class="" role="presentation" focusable="false" xmlns="http://www.w3.org/2000/svg" xmlns:xlink="http://www.w3.org/1999/xlink" id="FxSymbol0-059" data-type="244"><g><ellipse cx="8.96" cy="11.82" rx="7.5" ry="3.08" fill="#76bc2d"></ellipse><ellipse cx="9.15" cy="11.79" rx="2.49" ry=".68" fill="#5e9624"></ellipse><ellipse cx="8.96" cy="4.99" rx="7.5" ry="3.08" fill="url(#1b6e0a97-8883-43cf-a60c-601baf04b466)"></ellipse><ellipse cx="9.15" cy="4.95" rx="2.49" ry=".68" fill="#005ba1"></ellipse><path d="M9 14.84c4.15 0 7.5-1.38 7.5-3.08v1.82c-.14 1.65-3.44 3-7.5 3S1.5 15.2 1.5 13.5v-1.74c-.04 1.7 3.32 3.08 7.5 3.08z" fill="#5e9624"></path><path d="M9 8c4.15 0 7.5-1.38 7.5-3.08v1.82c-.14 1.65-3.44 3-7.5 3S1.5 8.36 1.5 6.66V4.92C1.46 6.62 4.82 8 9 8z" fill="#0078d4"></path></g><defs>
<linearGradient id="1b6e0a97-8883-43cf-a60c-601baf04b466" x1="5.51" y1="802.5" x2="12.94" y2="810.58" gradientTransform="matrix(1 0 0 1.59 0 -1278.76)" gradientUnits="userSpaceOnUse"><stop offset="0" stop-color="#0078d4"></stop><stop offset=".02" stop-color="#0d7ed8"></stop><stop offset=".08" stop-color="#2b8ae0"></stop><stop offset=".15" stop-color="#4194e7"></stop><stop offset=".22" stop-color="#519beb"></stop><stop offset=".29" stop-color="#5b9fee"></stop><stop offset=".4" stop-color="#5ea0ef"></stop><stop offset=".55" stop-color="#5b9fee"></stop><stop offset=".68" stop-color="#509aeb"></stop><stop offset=".8" stop-color="#3f92e6"></stop><stop offset=".91" stop-color="#2688df"></stop><stop offset=".99" stop-color="#127fd9"></stop></linearGradient>
</defs>
</svg>