<svg viewBox="0 0 50 50" class="" role="presentation" focusable="false" xmlns="http://www.w3.org/2000/svg" xmlns:xlink="http://www.w3.org/1999/xlink" id="FxSymbol0-05f" data-type="1"><g><title></title><path d="M44 7.8L39.2 3l-2-2H4v48h42V9.8z" class="msportalfx-svg-c03" fill="#a0a1a2"></path><path d="M37 3H6v44h38V10h-7z" class="msportalfx-svg-c01" fill="#ffffff"></path><path opacity=".3" d="M37 3H6v44h38V10h-7z" class="msportalfx-svg-c12" fill="#fee087"></path><path d="M25 17.271l8 4.619v9.238l-8 4.619-8-4.619V21.89l8-4.619M25 15a.254.254 0 0 0-.125.033l-9.75 5.629a.252.252 0 0 0-.125.217v11.258a.25.25 0 0 0 .125.216l9.75 5.629a.254.254 0 0 0 .25 0l9.75-5.629a.248.248 0 0 0 .125-.216V20.879a.252.252 0 0 0-.125-.217l-9.75-5.629A.254.254 0 0 0 25 15z" opacity=".8" class="msportalfx-svg-c04" fill="#7a7a7a"></path></g><defs>
</defs>
</svg>