<svg viewBox="0 0 50 50" class="" role="presentation" focusable="false" xmlns="http://www.w3.org/2000/svg" xmlns:xlink="http://www.w3.org/1999/xlink" id="FxSymbol0-05e" data-type="1"><g><title></title><path d="M44 7.8L39.2 3l-2-2H4v48h42V9.8z" class="msportalfx-svg-c15" fill="#59b4d9"></path><path opacity=".8" d="M37 3H6v44h38V10h-7z" class="msportalfx-svg-c01" fill="#ffffff"></path><path d="M15 21.371v11.258c0 .089.048.172.125.217l9.75 5.629a.248.248 0 0 0 .25 0l9.75-5.629a.252.252 0 0 0 .125-.217V21.371a.252.252 0 0 0-.125-.217l-9.75-5.629a.248.248 0 0 0-.25 0l-9.75 5.629a.252.252 0 0 0-.125.217z" class="msportalfx-svg-c16" fill="#3999c6"></path></g><defs>
</defs>
</svg>