<svg viewBox="0 0 50 50" class="" role="presentation" focusable="false" xmlns="http://www.w3.org/2000/svg" xmlns:xlink="http://www.w3.org/1999/xlink" id="FxSymbol0-117" data-type="1"><g><title></title><path d="M36 35.1c-3.8 0-6.9 3.1-6.9 6.9s3.1 6.9 6.9 6.9 6.9-3.1 6.9-6.9-3.1-6.9-6.9-6.9zm6-20c-3.8 0-6.9 3.1-6.9 6.9s3.1 6.9 6.9 6.9 6.9-3.1 6.9-6.9-3.1-6.9-6.9-6.9zm-34 0c-3.8 0-6.9 3.1-6.9 6.9s3.1 6.9 6.9 6.9 6.9-3.1 6.9-6.9-3.1-6.9-6.9-6.9zm6 20c-3.8 0-6.9 3.1-6.9 6.9s3.1 6.9 6.9 6.9 6.9-3.1 6.9-6.9c-.1-3.8-3.2-6.9-6.9-6.9zm11-33c-3.8 0-6.9 3.1-6.9 6.9s3.1 6.9 6.9 6.9 6.9-3.1 6.9-6.9-3.1-6.9-6.9-6.9z" class="msportalfx-svg-c09" fill="#dd5900"></path><path d="M25 10l16 13-5 18H14L9 23l16-13m0-5.5l-20.5 17L11.1 45H39l6.5-23.5L25 4.5z" class="msportalfx-svg-c09" fill="#dd5900"></path></g><defs>
</defs>
</svg>