<svg viewBox="0 0 18 18" class="" role="presentation" focusable="false" xmlns="http://www.w3.org/2000/svg" xmlns:xlink="http://www.w3.org/1999/xlink" id="FxSymbol0-07e" data-type="1"><g><title>Icon-identity-234</title><circle cx="9" cy="9" r="8.37" fill="url(#a5343145-d273-4c33-b7fa-c9c00479c96c)"></circle><path fill="#c3f1ff" d="M3.28 9.34l5.69 3.69 5.79-3.7.73.84-6.52 4.2-6.42-4.19.73-.84z"></path><path d="M3.71 8.87L8.97 2.6l5.37 6.28-5.37 3.39-5.26-3.4z" class="msportalfx-svg-c01" fill="#ffffff"></path><path fill="#c3f1ff" d="M8.97 2.6v9.67l-5.26-3.4L8.97 2.6z"></path><path fill="#50e6ff" d="M8.97 2.6v9.67l5.37-3.39L8.97 2.6z"></path><path fill="#32bedd" d="M8.97 7.59l5.37 1.29-5.37 3.39V7.59z"></path><path fill="#9cebff" d="M8.97 12.27l-5.26-3.4 5.26-1.28v4.68z"></path><path fill="#32bedd" d="M8.97 14.37l6.52-4.2-.73-.84-5.79 3.7v1.34z"></path></g><defs>
<linearGradient id="a5343145-d273-4c33-b7fa-c9c00479c96c" x1="9" y1="17.37" x2="9" y2=".63" gradientUnits="userSpaceOnUse"><stop offset="0" stop-color="#773adc"></stop><stop offset=".82" stop-color="#a67af4"></stop></linearGradient>
</defs>
</svg>