<svg viewBox="0 0 420.2 401.8" class="" role="presentation" focusable="false" xmlns:svg="http://www.w3.org/2000/svg" xmlns:xlink="http://www.w3.org/1999/xlink" id="FxSymbol0-08a" data-type="1"><g><title></title><path fill="#45ADD2" d="M205.3 239.6v-37.5c0-3.8-3.2-6.9-7.1-6.9h-30.1c-1.5 0-2.7-.5-3.6-1.4-.9-.9-1.4-2.1-1.4-3.6 0-1.3.5-2.5 1.6-3.8l50-49.9c.9-.9 2-1.3 3.4-1.4-11-44.6-49.8-78.6-97.5-80.8-61.9-2.8-113 48.4-110.2 110.2C13 221 60.4 265.1 117 265.1h88.4v-25.5z"></path><path fill="#2272B9" d="M265.2 287.2v-22.1h40.7c57.3 0 104-44.8 104-99.8 0-52.8-43.5-96-97.9-98.1-20.4-36-59.6-58.3-103.1-58.3-28.8 0-55.3 9.9-75.6 26.8 26 4.1 50.1 16.2 69.1 35.3 22.3 22.3 35.2 51.5 36.7 82.6l33 32.9c.9.9 1.4 2.1 1.4 3.6 0 1.4-.5 2.5-1.5 3.5s-2.2 1.5-3.5 1.5h-29.2v129.4c0 3.9-3.2 7.1-7.2 7.1h.2-30.1c-1.4 0-2.5.5-3.5 1.5s-1.5 2.2-1.5 3.5c0 1.5.5 2.7 1.4 3.6l50.2 50c.9.9 2.1 1.4 3.6 1.4s2.7-.5 3.6-1.4l50-49.9c1-1.3 1.6-2.5 1.6-3.8 0-1.5-.5-2.7-1.4-3.6-.9-.9-2.1-1.4-3.6-1.4h-30.1c-3.9 0-7.1-3.1-7.1-6.9v-37.4z"></path></g><defs>
</defs>
</svg>