<svg viewBox="0 0 50 50" class="" role="presentation" focusable="false" xmlns:svg="http://www.w3.org/2000/svg" xmlns:xlink="http://www.w3.org/1999/xlink" id="FxSymbol0-072" data-type="1"><g><title></title><path d="M41.608 13.587a11.08 11.08 0 0 0 .281-1.623c.051-.417.084-.838.084-1.268C41.973 4.844 37.15.1 31.2.1a10.805 10.805 0 0 0-8.559 4.179c-.093.117-.183.236-.271.357a10.35 10.35 0 0 0-.262.394 10.494 10.494 0 0 0-.932 1.692 7.67 7.67 0 0 0-5.825-2.666c-4.211 0-7.641 3.388-7.641 7.571 0 .732.106 1.414.293 2.069-3.44 1.258-5.903 4.538-5.903 8.379C2.1 26.997 6.129 31 11.105 31H21v-9h-6l8-10 8 10h-6v9h13.892c4.99 0 9.008-3.997 9.008-8.925.012-3.985-2.634-7.354-6.292-8.488z" class="msportalfx-svg-c16" fill="#3999c6"></path><path d="M29 30v10h6l-8 10-8-10h6V30h4z" class="msportalfx-svg-c16" fill="#3999c6"></path></g><defs>
</defs>
</svg>