<svg viewBox="0 0 1332.402 1029.975" class="" role="presentation" focusable="false" xmlns:svg="http://www.w3.org/2000/svg" xmlns:xlink="http://www.w3.org/1999/xlink" id="FxSymbol0-0a0" data-type="1"><g><title></title><title>Artboard 1</title><path d="M784.1 243.171v122.952l-235.8-75.279V0H0v420.366h271.42l29.328 189.229H94.758v420.38h548.3v-292.06L784.1 662.4v1.147h548.3V243.171zm342.929 254.687a69.685 69.685 0 0 1-120.206 25.571L820.652 623.1 784.1 642.679 643.061 718.19l-36.554 19.574L435.8 829.176a69.69 69.69 0 1 1-90.564-46.1l-12.717-82.1-14.165-91.384-29.327-189.226-5.669-36.554-12.007-77.451a69.654 69.654 0 1 1 72.427-66.766q-.084 2.056-.289 4.105l168.261 53.728 36.55 11.665 235.8 75.293 36.554 11.665 175.007 55.869a69.687 69.687 0 0 1 131.366 45.938z" class="msportalfx-svg-c15" fill="#59b4d9"></path><path d="M990.43 480.674l-169.777-54.2-36.553-11.681-235.8-75.279-36.55-11.679L334.637 271.3a69.488 69.488 0 0 1-27.77 27.033 75.166 75.166 0 0 1-6.939 3.183l12.758 82.3 5.669 36.554 29.328 189.23 14.152 91.384 12.1 78.052a71.439 71.439 0 0 1 14.343 2.554 69.4 69.4 0 0 1 33.89 22.006l184.34-98.7 36.554-19.574L784.1 609.814l36.554-19.574 172.537-92.381a69.045 69.045 0 0 1-2.761-17.185zM784.1 590.089L643.061 665.6v-56.005H365.276l-29.327-189.229H548.3v-62.6l235.8 75.279z" class="msportalfx-svg-c15" fill="#59b4d9"></path></g><defs>
</defs>
</svg>