<svg viewBox="0 0 18 18" class="" role="presentation" focusable="false" xmlns:svg="http://www.w3.org/2000/svg" xmlns:xlink="http://www.w3.org/1999/xlink" id="FxSymbol0-080" data-type="1"><g><title>arcadia_icon_1</title><path d="M9 0L1.15 4.49v9L9 18l7.85-4.49v-9zm6.4 12.57L9 16.27l-6.4-3.66V5.38L9 1.68l6.4 3.71z" fill="#0078d4"></path><path fill="url(#a8cd3805-4e73-426a-be19-20610e2ec6df)" d="M9 0L1.15 4.49l1.45.89L9 1.68l6.4 3.7 1.45-.89L9 0z"></path><path d="M11.32 11.59a4.32 4.32 0 0 0-5.2-3.19l-.35-1.46a5.82 5.82 0 0 1 7 4.31z" fill="#50e6ff"></path><path d="M12.74 10.47a.74.74 0 0 0-1-.27l-8.13 4.68 1.5.87 7.36-4.25a.76.76 0 0 0 .27-1.03zm.17-8.23L5.53 6.5a.76.76 0 0 0-.27 1 .75.75 0 0 0 .65.37.69.69 0 0 0 .37-.1l8.14-4.7z" fill="#50e6ff"></path><circle cx="12.09" cy="10.85" r="1.85" fill="url(#0f74f62c-414c-4894-a357-f473e68a6c3b)"></circle><circle cx="5.91" cy="7.15" r="1.85" fill="url(#a111a63e-07fb-488f-a9ae-b9b740b253a6)"></circle></g><defs>
<linearGradient id="a8cd3805-4e73-426a-be19-20610e2ec6df" x1="9" y1="5.38" x2="9" gradientUnits="userSpaceOnUse"><stop offset=".2" stop-color="#005ba1"></stop><stop offset="1" stop-color="#0078d4"></stop></linearGradient>
<linearGradient id="0f74f62c-414c-4894-a357-f473e68a6c3b" x1="12.09" y1="493.3" x2="12.09" y2="496.99" gradientTransform="matrix(1 0 0 -1 0 506)" gradientUnits="userSpaceOnUse"><stop offset="0" stop-color="#198ab3"></stop><stop offset=".35" stop-color="#32bedd"></stop><stop offset=".8" stop-color="#50e6ff"></stop></linearGradient>
<linearGradient id="a111a63e-07fb-488f-a9ae-b9b740b253a6" x1="5.91" y1="497" x2="5.91" y2="500.69"></linearGradient>
</defs>
</svg>