<svg viewBox="-549 251 100 100" class="" role="presentation" focusable="false" xmlns:svg="http://www.w3.org/2000/svg" xmlns:xlink="http://www.w3.org/1999/xlink" id="FxSymbol0-09f" data-type="1"><g><title></title><path d="M-466.3 342.8h-65.5c-5 0-9.1-4.1-9.1-9.1v-65.5c0-5 4.1-9.1 9.1-9.1h65.5c5 0 9.1 4.1 9.1 9.1v65.5c0 5-4.1 9.1-9.1 9.1zm-65.5-77.7c-1.7 0-3 1.4-3 3v65.5c0 1.7 1.4 3 3 3h65.5c1.7 0 3-1.4 3-3v-65.5c0-1.7-1.4-3-3-3h-65.5z" class="msportalfx-svg-c03" fill="#a0a1a2"></path><path d="M-507.9 251.9c-2.2-1-4.8-1.2-7.1-.3-2.3.8-4.2 2.5-5.2 4.8l-1.4 2.9h29.5l-15.8-7.4zm58.3 33.1c-.8-2.3-2.5-4.2-4.8-5.2l-2.9-1.4V308l7.4-15.8c1.1-2.3 1.2-4.8.3-7.2zm-98.5 31.7c-1 2.2-1.2 4.8-.3 7.1.8 2.3 2.5 4.2 4.8 5.2l2.9 1.4v-29.5l-7.4 15.8zm64.8 33.4c1.2.6 2.6.9 3.9.9 1.1 0 2.1-.2 3.2-.6 2.3-.8 4.2-2.5 5.2-4.8l1.4-2.9h-29.5l15.8 7.4z" class="msportalfx-svg-c04" fill="#7a7a7a"></path><path d="M-531.8 265.1c-1.7 0-3 1.4-3 3v65.5c0 1.7 1.4 3 3 3h65.5c1.7 0 3-1.4 3-3v-65.5c0-1.7-1.4-3-3-3h-65.5z" class="msportalfx-svg-c01" fill="#ffffff"></path><path d="M-484.6 294.7h-12.7l5.3-17.7c.1-.5-.1-1-.5-1.2-.1-.1-.3-.1-.4-.1-.3 0-.6.2-.8.4l-20.5 29.9c-.2.3-.2.7-.1 1 .2.3.5.5.9.5h12.3l-5.5 18c-.1.5.1 1 .5 1.2.1.1.3.1.4.1.3 0 .6-.2.8-.4l21.1-30.2c.1-.2.2-.4.2-.6 0-.5-.5-.9-1-.9z" class="msportalfx-svg-c15" fill="#59b4d9"></path></g><defs>
</defs>
</svg>