<svg viewBox="0 0 50 50" class="fxs-portal-svg" role="presentation" focusable="false" xmlns:svg="http://www.w3.org/2000/svg" xmlns:xlink="http://www.w3.org/1999/xlink" id="FxSymbol0-0f3" data-type="353"><g><title></title><path fill-rule="evenodd" clip-rule="evenodd" d="M1 26h10v10H1zm0-13h10v10H1zm0 26h10v10H1zm13 0h10v10H14zm13 0h10v10H27z" class="msportalfx-svg-c03" fill="#a0a1a2"></path><path fill-rule="evenodd" clip-rule="evenodd" d="M31.5 1C21.705 1 14 8.705 14 18.5V36h17.5C41.295 36 49 28.295 49 18.5S41.295 1 31.5 1z" class="msportalfx-svg-c19" fill="#0072c6"></path><path fill-rule="evenodd" clip-rule="evenodd" d="M21 16h3v11h-3V16zm7 3h3v8h-3v-8zm7-7h3v15h-3V12z" class="msportalfx-svg-c01" fill="#ffffff"></path></g><defs>
</defs>
</svg>