<svg viewBox="0 0 50 50" class="fxs-portal-svg" role="presentation" focusable="false" xmlns:svg="http://www.w3.org/2000/svg" xmlns:xlink="http://www.w3.org/1999/xlink" id="FxSymbol0-052" data-type="1"><g><title></title><path d="M23 15h3v28h-3z" class="msportalfx-svg-c19" fill="#0072c6"></path><path d="M43.333 1H5.667C4.746 1 4 1.746 4 2.667v10.667C4 14.254 4.746 15 5.667 15h37.667c.92 0 1.666-.746 1.666-1.667V2.667C45 1.75 44.25 1 43.333 1z" class="msportalfx-svg-c04" fill="#7a7a7a"></path><path d="M38 3h3v3h-3zm0 6h3v3h-3z" class="msportalfx-svg-c13" fill="#b8d432"></path><path d="M43.333 20H5.667C4.746 20 4 20.746 4 21.667v10.667C4 33.254 4.746 34 5.667 34h37.667c.92 0 1.666-.746 1.666-1.667V21.667C45 20.75 44.25 20 43.333 20z" class="msportalfx-svg-c04" fill="#7a7a7a"></path><path d="M38 22h3v3h-3zm0 6h3v3h-3z" class="msportalfx-svg-c13" fill="#b8d432"></path><circle cx="24.5" cy="45.514" r="4.4" class="msportalfx-svg-c14" fill="#57a300"></circle><circle cx="24.5" cy="45.5" r="4.4" class="msportalfx-svg-c19" fill="#0072c6"></circle></g><defs>
</defs>
</svg>