<svg viewBox="0 0 18 18" data-islogo="true" class="" role="presentation" focusable="false" xmlns:svg="http://www.w3.org/2000/svg" xmlns:xlink="http://www.w3.org/1999/xlink" id="FxSymbol0-040" data-type="1"><g><title>Icon-compute-26</title><ellipse cx="9.01" cy="11.12" rx="6.07" ry="2.49" fill="#76bc2d"></ellipse><ellipse cx="9.16" cy="11.1" rx="2.02" ry=".55" fill="#5e9624"></ellipse><ellipse cx="9.01" cy="5.59" rx="6.07" ry="2.49" fill="url(#bdc9aa5d-e4d2-4d75-91df-453ede2d7944)"></ellipse><ellipse cx="9.16" cy="5.56" rx="2.02" ry=".55" fill="#005ba1"></ellipse><path d="M3.89.12h-3a.58.58 0 0 0-.6.59v3A.29.29 0 0 0 .58 4h.33a.29.29 0 0 0 .3-.29V1h2.68a.29.29 0 0 0 .3-.29V.42a.29.29 0 0 0-.3-.3zM17 .12h-3a.3.3 0 0 0-.3.3v.32A.3.3 0 0 0 14 1h2.69v2.7A.29.29 0 0 0 17 4h.33a.29.29 0 0 0 .3-.29v-3A.59.59 0 0 0 17 .12zM3.89 17.21H1.21v-2.7a.29.29 0 0 0-.3-.29H.58a.29.29 0 0 0-.29.29v3a.58.58 0 0 0 .58.59h3a.29.29 0 0 0 .3-.29v-.32a.3.3 0 0 0-.28-.28zm13.4-2.99H17a.29.29 0 0 0-.29.29v2.7H14a.31.31 0 0 0-.3.3v.32a.3.3 0 0 0 .3.29h3a.59.59 0 0 0 .59-.59v-3a.29.29 0 0 0-.3-.31z" fill="#949494"></path><path d="M9 13.56c3.35 0 6.07-1.11 6.07-2.49v1.47C15 13.88 12.29 15 9 15s-6.07-1.12-6.07-2.49v-1.44c.01 1.38 2.73 2.49 6.07 2.49z" fill="#5e9624"></path><path d="M9 8c3.35 0 6.07-1.12 6.07-2.49V7C15 8.35 12.29 9.42 9 9.42S2.94 8.3 2.94 6.92V5.54C2.94 6.91 5.66 8 9 8z" fill="#0078d4"></path></g><defs>
<linearGradient id="bdc9aa5d-e4d2-4d75-91df-453ede2d7944" x1="9.01" y1="11.69" x2="9.01" y2="2.48" gradientUnits="userSpaceOnUse"><stop offset="0" stop-color="#0078d4"></stop><stop offset=".54" stop-color="#358ee3"></stop><stop offset="1" stop-color="#5ea0ef"></stop></linearGradient>
</defs>
</svg>