<svg viewBox="0 0 50 50" class="fxs-portal-svg" role="presentation" focusable="false" xmlns:svg="http://www.w3.org/2000/svg" xmlns:xlink="http://www.w3.org/1999/xlink" id="FxSymbol0-043"><g><title></title><path d="M.833 0C.333 0 0 .333 0 .833v10c0 .5.333.833.833.833h5c.5 0 .833-.333.833-.833V6.667h36.667v4.167c0 .5.333.833 1 .833h4.833c.5 0 .833-.333.833-.833v-10C50 .333 49.667 0 49.167 0H.833zm48.334 50c.5 0 .833-.333.833-.833v-9.833c0-.5-.333-.833-.833-.833h-4.833c-.5 0-.833.333-.833.833v4H6.667v-4.167c0-.5-.333-.833-1-.833H.833c-.5 0-.833.333-.833 1v9.833c0 .5.333.833.833.833h48.334z" class="msportalfx-svg-c15" fill="#59b4d9"></path><path d="M32.238 20.701l-8.318 3.24V10.546l8.318 2.917zm-15.772-7.886v8.75l6.157 2.377V10.654l-6.157 2.161zm.648 8.102l-.324-.108v-7.238l.324-.108.324-.108.324-.108v7.886l-.324-.108-.324-.108zm1.621.432l-.432-.108v-8.102l.432-.108.432-.108.432-.108v8.858l-.432-.108-.432-.216zm1.944.648l-.54-.216v-9.182l.54-.108.54-.216.648-.216v10.262l-.648-.216-.54-.108zM42.5 33.988l-8.21 3.132V23.833l8.21 2.917zm-15.772-7.994v8.75l6.157 2.377V23.833l-6.157 2.161zm.649 8.102l-.324-.108V26.75l.324-.108.324-.108.324-.108v7.886l-.324-.108-.324-.108zm1.62.54l-.432-.108v-8.102l.432-.108.432-.108.432-.108v8.858l-.432-.108-.432-.216zm1.944.648l-.54-.216v-9.182l.54-.108.54-.216.648-.216v10.262l-.648-.216-.54-.108zm-7.669-1.296l-8.21 3.132V23.833l8.21 2.917zM7.5 25.994v8.75l6.157 2.377V23.833L7.5 25.994zm.648 8.102l-.324-.108V26.75l.324-.108.324-.108.324-.108v7.886l-.324-.108-.324-.108zm1.621.54l-.432-.108v-8.102l.432-.108.432-.108.432-.108v8.858l-.432-.108-.432-.216zm1.944.648l-.54-.216v-9.182l.54-.108.54-.216.648-.216v10.262l-.648-.216-.54-.108z" class="msportalfx-svg-c17" fill="#804998"></path><path opacity=".2" d="M32.238 20.701l-8.318 3.24V10.546l8.318 2.917zM42.5 33.988l-8.21 3.132V23.833l8.21 2.917zm-19.228 0l-8.21 3.132V23.833l8.21 2.917z" class="msportalfx-svg-c01" fill="#ffffff"></path></g></svg>