<svg viewBox="0 0 18 18" class="" role="presentation" focusable="false" xmlns:svg="http://www.w3.org/2000/svg" xmlns:xlink="http://www.w3.org/1999/xlink" id="FxSymbol0-0cc" data-type="1"><g><title></title><title>Icon-Icon-208</title><path fill="#773adc" d="M13.77 4.58v6.15l-5.28 3.1V7.66l5.28-3.08z"></path><path fill="#b796f9" d="M13.77 4.58L8.49 7.67 3.2 4.58l5.29-3.09 5.28 3.09z"></path><path fill="#a67af4" d="M8.49 7.67v6.16l-5.29-3.1V4.58l5.29 3.09z"></path><path d="M11.15 7.69c.7-.4 1.26-.08 1.26.72a2.77 2.77 0 0 1-1.25 2.17c-.7.4-1.26.08-1.26-.72a2.77 2.77 0 0 1 1.25-2.17z" fill="#552f99"></path><path d="M14.66 9.83h-3.15a.63.63 0 0 1 0-1.26h3.15a2.06 2.06 0 0 0 2-2.13 2.06 2.06 0 0 0-2-2.14.63.63 0 0 1 0-1.26 3.31 3.31 0 0 1 3.22 3.4 3.31 3.31 0 0 1-3.22 3.39z" fill="#50e6ff"></path><path d="M11.94 13.87l-2.43-2.43a.13.13 0 0 0-.2 0v1.87h-6a2.06 2.06 0 0 1-2-2.14A2.07 2.07 0 0 1 3.2 9.06V7.8a3.33 3.33 0 0 0-3.08 3.39 3.32 3.32 0 0 0 3.22 3.4h6v1.86a.13.13 0 0 0 .2 0l2.4-2.45a.11.11 0 0 0 0-.13z" fill="#32bedd"></path></g><defs>
</defs>
</svg>