<svg viewBox="0 0 50 50" class="" role="presentation" focusable="false" xmlns:svg="http://www.w3.org/2000/svg" xmlns:xlink="http://www.w3.org/1999/xlink" id="FxSymbol0-035" data-type="1"><g><title></title><path d="M0 27.2c0 .7.5 1.2 1.2 1.2h27.6c.7 0 1.2-.5 1.2-1.2v-20H0v20z" class="msportalfx-svg-c19" fill="#0072c6"></path><path d="M28.8 2H1.2C.5 2 0 2.5 0 3.2v4.4h30V3.2c0-.7-.5-1.2-1.2-1.2z" class="msportalfx-svg-c03" fill="#a0a1a2"></path><path opacity=".1" d="M1.2 2C.5 2 0 2.5 0 3.2v24c0 .7.5 1.2 1.2 1.2h11.5L26.2 2h-25z" class="msportalfx-svg-c01" fill="#ffffff"></path><path d="M5.1 14.6l-.3-.3c-.1-.1-.1-.2 0-.3l.8-.7.1-.1c.1 0 .1 0 .1.1L8 15.7l3.9-4.9s.1-.1.2-.1h.1l.9.7.1.1v.1l-5 6.3-3.1-3.3zm0 7.8l-.3-.3c-.1-.1-.1-.2 0-.3l.8-.7.1-.1c.1 0 .1 0 .1.1L8 23.5l3.9-4.9s.1-.1.2-.1h.1l.9.7.1.1v.1l-5 6.3-3.1-3.3z" class="msportalfx-svg-c01" fill="#ffffff"></path><path d="M10 37.2c0 .7.5 1.2 1.2 1.2h27.6c.7 0 1.2-.5 1.2-1.2v-20H10v20z" class="msportalfx-svg-c16" fill="#3999c6"></path><path d="M38.8 12H11.2c-.7 0-1.2.5-1.2 1.2v4.4h30v-4.4c0-.7-.5-1.2-1.2-1.2z" class="msportalfx-svg-c03" fill="#a0a1a2"></path><path opacity=".1" d="M11.2 12c-.7 0-1.2.5-1.2 1.2v24c0 .7.5 1.2 1.2 1.2h11.5L36.2 12h-25z" class="msportalfx-svg-c01" fill="#ffffff"></path><path d="M15.1 24.6l-.3-.3c-.1-.1-.1-.2 0-.3l.8-.7.1-.1c.1 0 .1 0 .1.1l2.2 2.4 3.9-4.9s.1-.1.2-.1h.1l.9.7.1.1v.1l-5 6.3-3.1-3.3zm0 7.8l-.3-.3c-.1-.1-.1-.2 0-.3l.8-.7.1-.1c.1 0 .1 0 .1.1l2.2 2.4 3.9-4.9s.1-.1.2-.1h.1l.9.7.1.1v.1l-5 6.3-3.1-3.3z" class="msportalfx-svg-c01" fill="#ffffff"></path><path d="M20 47.2c0 .7.5 1.2 1.2 1.2h27.6c.7 0 1.2-.5 1.2-1.2v-20H20v20z" class="msportalfx-svg-c15" fill="#59b4d9"></path><path d="M48.8 22H21.2c-.7 0-1.2.5-1.2 1.2v4.4h30v-4.4c0-.7-.5-1.2-1.2-1.2z" class="msportalfx-svg-c03" fill="#a0a1a2"></path><path opacity=".15" d="M20 27.6h30v2H20z" class="msportalfx-svg-c01" fill="#ffffff"></path><path opacity=".1" d="M21.2 22c-.7 0-1.2.5-1.2 1.2v24c0 .7.5 1.2 1.2 1.2h11.5L46.2 22h-25z" class="msportalfx-svg-c01" fill="#ffffff"></path><path d="M25.1 34.6l-.3-.3c-.1-.1-.1-.2 0-.3l.8-.7.1-.1c.1 0 .1 0 .1.1l2.2 2.4 3.9-4.9s.1-.1.2-.1h.1l.9.7.1.1v.1l-5 6.3-3.1-3.3z" class="msportalfx-svg-c01" fill="#ffffff"></path><path opacity=".6" d="M33.2 34.5h12v2h-12z" class="msportalfx-svg-c01" fill="#ffffff"></path><path d="M25.1 42.4l-.3-.3c-.1-.1-.1-.2 0-.3l.8-.7.1-.1c.1 0 .1 0 .1.1l2.2 2.4 3.9-4.9s.1-.1.2-.1h.1l.9.7.1.1v.1l-5 6.3-3.1-3.3z" class="msportalfx-svg-c01" fill="#ffffff"></path><path opacity=".6" d="M33.2 42.4h12v2h-12z" class="msportalfx-svg-c01" fill="#ffffff"></path></g><defs>
</defs>
</svg>