<?xml version="1.0" encoding="UTF-8" standalone="no"?>
<!DOCTYPE svg PUBLIC "-//W3C//DTD SVG 1.1//EN" "http://www.w3.org/Graphics/SVG/1.1/DTD/svg11.dtd">
<!-- Generated by Microsoft Visio, SVG Export Device compliance.svg Page-1 -->
<svg xmlns="http://www.w3.org/2000/svg" xmlns:xlink="http://www.w3.org/1999/xlink" xmlns:ev="http://www.w3.org/2001/xml-events"
		xmlns:v="http://schemas.microsoft.com/visio/2003/SVGExtensions/" width="3.76851in" height="4.6126in"
		viewBox="0 0 271.333 332.107" xml:space="preserve" color-interpolation-filters="sRGB" class="st7">
	<v:documentProperties v:langID="1043" v:metric="true" v:viewMarkup="false"/>

	<style type="text/css">
	<![CDATA[
		.st1 {fill:#3e3e3e;stroke:none;stroke-linecap:butt;stroke-width:0.75}
		.st2 {fill:#59b4d9;stroke:none;stroke-linecap:butt;stroke-width:0.75}
		.st3 {fill:#ffffff;stroke:none;stroke-linecap:butt;stroke-width:0.75}
		.st4 {fill:#ffffff;fill-opacity:0.15;stroke:none;stroke-linecap:butt;stroke-width:0.75}
		.st5 {fill:#ffffff;stroke:#3999c6;stroke-linecap:round;stroke-linejoin:round;stroke-width:1.5}
		.st6 {fill:#3999c6;stroke:none;stroke-linecap:butt;stroke-width:0.75}
		.st7 {fill:none;fill-rule:evenodd;font-size:12px;overflow:visible;stroke-linecap:square;stroke-miterlimit:3}
	]]>
	</style>

	<g v:mID="0" v:index="1" v:groupContext="foregroundPage">
		<title>Page-1</title>
		<v:pageProperties v:drawingScale="0.0393701" v:pageScale="0.0393701" v:drawingUnits="24" v:shadowOffsetX="8.50394"
				v:shadowOffsetY="-8.50394"/>
		<g id="group2924-1" transform="translate(0.75,-0.75)" v:mID="2924" v:groupContext="group">
			<title>Device compliance</title>
			<g id="shape2925-2" v:mID="2925" v:groupContext="shape" transform="translate(0,-33.4868)">
				<title>Sheet.2925</title>
				<path d="M189.08 311.85 C189.08 323.04 180.14 332.11 169.12 332.11 L19.96 332.11 C8.93 332.11 0 323.04 0 311.85 L0
							 55.25 C0 44.06 8.93 34.99 19.96 34.99 L169.12 34.99 C180.14 34.99 189.08 44.06 189.08 55.25 L189.08
							 311.85 Z" class="st1"/>
			</g>
			<g id="shape2926-4" v:mID="2926" v:groupContext="shape" transform="translate(13.5055,-74.0033)">
				<title>Sheet.2926</title>
				<rect x="0" y="109.267" width="162.066" height="222.84" class="st2"/>
			</g>
			<g id="shape2927-6" v:mID="2927" v:groupContext="shape" transform="translate(60.7747,-306.601)">
				<title>Sheet.2927</title>
				<path d="M67.53 327.12 C67.53 329.88 63.95 332.11 59.52 332.11 L8.03 332.11 C3.59 332.11 0 329.88 0 327.12 C0 324.37
							 3.59 322.13 8.03 322.13 L59.52 322.13 C63.95 322.13 67.53 324.37 67.53 327.12 Z" class="st3"/>
			</g>
			<g id="shape2928-8" v:mID="2928" v:groupContext="shape" transform="translate(1.3749E-12,-33.4868)">
				<title>Sheet.2928</title>
				<path d="M148.7 34.99 L20.26 34.99 C9.07 34.99 0 44.06 0 55.25 L0 311.85 C0 323.05 9.07 332.11 20.26 332.11 L37.82
							 332.11 L148.7 34.99 Z" class="st4"/>
			</g>
			<g id="shape2929-10" v:mID="2929" v:groupContext="shape" transform="translate(115.08,1.7053E-12)">
				<title>Sheet.2929</title>
				<rect x="0" y="177.355" width="154.753" height="154.753" class="st5"/>
			</g>
			<g id="shape2930-12" v:mID="2930" v:groupContext="shape" transform="translate(135.683,-28.4088)">
				<title>Sheet.2930</title>
				<path d="M1.13 283.9 C0.39 283.1 0 282.04 0.05 280.98 C0.11 279.9 0.58 278.93 1.37 278.21 L11.96 268.42 C12.74 267.71
							 13.67 267.34 14.67 267.34 C15.81 267.34 16.81 267.79 17.59 268.65 L45.67 298.75 L94.88 235.72 C95.61
							 234.75 96.76 234.18 98.02 234.18 C98.93 234.18 99.76 234.48 100.47 235.04 L111.93 243.89 C112.78 244.5
							 113.34 245.42 113.47 246.53 C113.55 247.41 113.45 248.6 112.53 249.56 L49.23 330.62 C48.14 332.01 46.06
							 332.11 44.85 330.8 L1.13 283.9 Z" class="st6"/>
			</g>
		</g>
	</g>
</svg>
