<?xml version="1.0" encoding="utf-8"?>
<!-- Generator: Adobe Illustrator 20.0.0, SVG Export Plug-In . SVG Version: 6.00 Build 0)  -->
<svg version="1.1" id="Layer_1" xmlns="http://www.w3.org/2000/svg" xmlns:xlink="http://www.w3.org/1999/xlink" x="0px" y="0px"
	 width="50px" height="50px" viewBox="0 0 50 50" enable-background="new 0 0 50 50" xml:space="preserve">
<polygon fill-rule="evenodd" clip-rule="evenodd" fill="#A0A1A2" points="20,44 32,44 29,37 32,30 32,19 20,19 "/>
<polygon opacity="0.5" fill-rule="evenodd" clip-rule="evenodd" fill="#E5E5E5" points="20,44 32,44 29,37 32,30 32,19 20,19 "/>
<path fill="#3E3E3E" d="M25.328,41.757l-0.49-1.194l-2.733-0.896L21,39.252v-4.361l3.884-1.387l0.488-1.191l-1.511-2.978
	l-0.322-0.645l3.09-3.09l3.617,1.726l1.191-0.488L32,25.123V3c0-1.657-1.323-3-2.956-3H6.956C5.323,0,4,1.343,4,3v38
	c0,1.657,1.323,3,2.956,3h17.318L25.328,41.757z"/>
<polygon fill="#59B4D9" points="21,34.891 24.884,33.504 25.372,32.313 23.861,29.335 23.539,28.69 26.629,25.601 30,27.209 30,5 
	6,5 6,38 21,38 "/>
<path fill="#FFFFFF" d="M23,2.817c0,0.408-0.53,0.738-1.186,0.738h-7.625C13.532,3.555,13,3.225,13,2.817s0.532-0.739,1.189-0.739
	h7.625C22.47,2.078,23,2.409,23,2.817"/>
<path opacity="0.15" fill="#FFFFFF" enable-background="new    " d="M26.021,0H7C5.343,0,4,1.343,4,3v38c0,1.658,1.343,3,3,3h2.6
	L26.021,0z"/>
<g>
	<path fill="#7A7A7A" d="M48,38.404V35.44l-0.416-0.156l-3.172-1.04l-0.832-2.028l1.612-3.432l-2.08-2.08l-0.416,0.208l-2.964,1.508
		l-2.028-0.832L36.404,24H33.44l-0.156,0.416l-1.04,3.172l-2.028,0.832l-3.38-1.612l-2.08,2.08l0.208,0.416l1.508,2.964
		l-0.832,2.028l-3.64,1.3v2.964l0.416,0.156l3.172,1.04l0.832,2.028l-1.612,3.432l2.08,2.08l0.416-0.208l2.964-1.508l2.028,0.832
		l1.3,3.588h2.964l0.156-0.416l1.04-3.172l2.028-0.832l3.432,1.612l2.08-2.08l-0.208-0.416l-1.508-2.964l0.832-2.028L48,38.404z
		 M35,41.42c-2.444,0-4.42-1.976-4.42-4.42s1.976-4.42,4.42-4.42s4.42,1.976,4.42,4.42S37.444,41.42,35,41.42z"/>
</g>
</svg>
