<?xml version="1.0" encoding="utf-8"?>
<!-- Generator: Adobe Illustrator 20.0.0, SVG Export Plug-In . SVG Version: 6.00 Build 0)  -->
<svg version="1.1" id="Layer_1" xmlns="http://www.w3.org/2000/svg" xmlns:xlink="http://www.w3.org/1999/xlink" x="0px" y="0px"
	 width="50px" height="50px" viewBox="0 0 50 50" enable-background="new 0 0 50 50" xml:space="preserve">
<path fill="#3E3E3E" d="M46,33c0,1.657-1.359,3-3.036,3H3.036C1.359,36,0,34.657,0,33V3c0-1.657,1.359-3,3.036-3h39.928
	C44.641,0,46,1.343,46,3V33z"/>
<rect x="2.962" y="5" fill="#3999C6" width="40.038" height="26"/>
<path fill="#FFFFFF" d="M26,2.689c0,0.38-0.308,0.688-0.688,0.688H20.89c-0.381,0-0.69-0.308-0.69-0.688S20.509,2,20.89,2h4.422
	C25.692,2,26,2.309,26,2.689"/>
<path opacity="0.15" fill="#FFFFFF" enable-background="new    " d="M31,0H3C1.343,0,0,1.343,0,3v30c0,1.658,1.343,3,3,3h12L31,0z"
	/>
<path fill="#3E3E3E" d="M50,47.545C50,48.901,48.913,50,47.572,50H29.428C28.087,50,27,48.901,27,47.545v-31.09
	C27,15.099,28.087,14,29.428,14h18.143C48.913,14,50,15.099,50,16.455V47.545z"/>
<rect x="29" y="18" fill="#59B4D9" width="19" height="27"/>
<path fill="#FFFFFF" d="M42.607,16.171c0,0.335-0.436,0.606-0.974,0.606H35.37c-0.54,0-0.977-0.271-0.977-0.606
	c0-0.335,0.437-0.607,0.977-0.607h6.263C42.171,15.564,42.607,15.836,42.607,16.171"/>
<path opacity="0.15" fill="#FFFFFF" enable-background="new    " d="M45.089,14H29.464C28.103,14,27,15.099,27,16.455v31.091
	C27,48.902,28.103,50,29.464,50H31.6L45.089,14z"/>
</svg>
