<svg viewBox="0 0 50 50" class="" role="presentation" focusable="false" xmlns:svg="http://www.w3.org/2000/svg" xmlns:xlink="http://www.w3.org/1999/xlink" id="FxSymbol0-01d"><g><title></title><path d="M38.961 1.702c-.002-.009-.001-.021-.004-.03-.012-.043-.034-.074-.051-.112-.241-.548-.901-.56-.901-.56h-26.01s-.652.012-.897.552c-.018.04-.042.074-.055.12l-.004.03A1.163 1.163 0 0 0 11 2v46c0 .957 1 1 1 1h26s1-.043 1-1V2c0-.113-.016-.209-.039-.298z" class="msportalfx-svg-c19" fill="#0072c6"></path><path opacity=".85" d="M15 5h4v7h-4zm8 0h4v7h-4zm8 0h4v7h-4zM15 16h4v7h-4zm8 0h4v7h-4zm8 0h4v7h-4zM15 27h4v7h-4zm8 0h4v7h-4zm-1 13h6v9.05h-6zm9-13h4v7h-4z" class="msportalfx-svg-c01" fill="#ffffff"></path><path opacity=".2" d="M36 1H11.993c-.01 0-.652.016-.896.551-.018.04-.042.074-.055.12l-.004.03c-.022.09-.038.186-.038.299v34.295L36 1z" class="msportalfx-svg-c01" fill="#ffffff"></path></g></svg>