<svg viewBox="0 0 50 50" class="" role="presentation" focusable="false" xmlns:svg="http://www.w3.org/2000/svg" xmlns:xlink="http://www.w3.org/1999/xlink" id="FxSymbol0-019"><g><title></title><path d="M48.4 18H24.619c-.617-1.686-2.222-2.9-4.119-2.9a4.405 4.405 0 0 0-4.4 4.4c0 2.426 1.974 4.4 4.4 4.4 1.897 0 3.503-1.214 4.119-2.9H47v20H37v-7h-3v9.41c0 .883.716 1.59 1.6 1.59h12.8c.884 0 1.6-.715 1.6-1.598V19.598c0-.883-.716-1.598-1.6-1.598zM44 43h-4v-1h4v1z" class="msportalfx-svg-c16" fill="#3999c6"></path><path d="M24.024 32H39v3.5l7-5.045-7-5.955V28H5V10h31v6h4V8c0-.951-1.042-2-2-2H3c-.958 0-2 1.049-2 2v22c0 .951 1.042 2 2 2h13.976c-.134 3.786-1.091 6-7.976 6v2h23v-2c-6.884 0-7.842-2.214-7.976-6z" class="msportalfx-svg-c16" fill="#3999c6"></path></g></svg>