<svg viewBox="0 0 50 50" class="fxs-portal-svg" role="presentation" focusable="false" xmlns:svg="http://www.w3.org/2000/svg" xmlns:xlink="http://www.w3.org/1999/xlink" id="FxSymbol0-062" data-type="1"><g><title></title><path d="M19.5 10.1c.9-5.7 5.8-10 11.8-10 6.6 0 11.9 5.4 11.9 12 0 .8-.1 1.5-.2 2.2 3.9.4 6.9 4 6.9 8.3 0 4.6-3.5 8.4-7.7 8.4h-22C14.6 31 10 26.2 10 20.4c.1-5.4 4.3-9.8 9.5-10.3z" class="msportalfx-svg-c15" fill="#59b4d9"></path><path d="M41 22c0-1.1-.9-2-2-2H28c-.365 0-.704.106-1 .279A1.975 1.975 0 0 0 26 20H15c-.365 0-.704.106-1 .279A1.975 1.975 0 0 0 13 20H2c-1.1 0-2 .9-2 2v5c0 .365.106.704.279 1A1.975 1.975 0 0 0 0 29v5c0 .365.106.704.279 1A1.975 1.975 0 0 0 0 36v5c0 .365.106.704.279 1A1.975 1.975 0 0 0 0 43v5c0 1.1.9 2 2 2h11c.365 0 .704-.106 1-.279.296.173.635.279 1 .279h11c.365 0 .704-.106 1-.279.296.173.635.279 1 .279h11c1.1 0 2-.9 2-2v-5c0-.365-.106-.704-.279-1 .173-.296.279-.635.279-1v-5c0-.365-.106-.704-.279-1 .173-.296.279-.635.279-1v-5c0-.365-.106-.704-.279-1 .173-.296.279-.635.279-1v-5z" class="msportalfx-svg-c03" fill="#a0a1a2"></path><path d="M15 22h11v5H15z" class="msportalfx-svg-c09" fill="#dd5900"></path><path d="M28 22h11v5H28zM2 22h11v5H2zm13 7h11v5H15z" class="msportalfx-svg-c08" fill="#ba141a"></path><path d="M2 36h11v5H2z" class="msportalfx-svg-c09" fill="#dd5900"></path><path d="M2 29h11v5H2zm13 14h11v5H15zm13-7h11v5H28zm0-7h11v5H28zm-13 7h11v5H15z" class="msportalfx-svg-c08" fill="#ba141a"></path><path d="M28 43h11v5H28z" class="msportalfx-svg-c09" fill="#dd5900"></path><path d="M2 43h11v5H2z" class="msportalfx-svg-c08" fill="#ba141a"></path></g><defs>
</defs>
</svg>