<svg viewBox="0 0 18 18" data-islogo="true" class="" role="presentation" focusable="false" xmlns:svg="http://www.w3.org/2000/svg" xmlns:xlink="http://www.w3.org/1999/xlink" id="FxSymbol0-02d" data-type="143"><g><path d="M.179 8.566L8.568.177a.61.61 0 0 1 .864 0l8.389 8.389a.61.61 0 0 1 0 .864l-8.4 8.4a.6.6 0 0 1-.848 0l-8.4-8.4a.61.61 0 0 1 .006-.864z" fill="url(#1774fd20-38b4-4463-a91d-830bf9967976)"></path><path d="M11.2 4.009L9.076 1.887a.107.107 0 0 0-.152 0L6.8 4.009a.108.108 0 0 0 .076.184h1.249a.108.108 0 0 1 .108.108v2.008a.108.108 0 0 0 .108.108h1.318a.108.108 0 0 0 .108-.108V4.3a.108.108 0 0 1 .108-.108h1.247a.108.108 0 0 0 .078-.183zM4.025 6.614L1.9 8.735a.109.109 0 0 0 0 .153l2.122 2.121a.107.107 0 0 0 .184-.076V9.687a.108.108 0 0 1 .108-.108h2.011a.108.108 0 0 0 .108-.108V8.152a.108.108 0 0 0-.108-.108H4.317a.108.108 0 0 1-.108-.108V6.69a.108.108 0 0 0-.184-.076zm10.059 4.395L16.2 8.888a.109.109 0 0 0 0-.153l-2.116-2.121a.108.108 0 0 0-.185.076v1.246a.108.108 0 0 1-.108.108h-2.008a.108.108 0 0 0-.108.108v1.319a.108.108 0 0 0 .108.108h2.008a.108.108 0 0 1 .108.108v1.246a.108.108 0 0 0 .185.076z" fill="#b4ec36"></path><path d="M11.794 8.991a2.787 2.787 0 1 0-3.541 2.671v.948a1.721 1.721 0 1 0 1.568.013v-.98a2.778 2.778 0 0 0 1.973-2.652z" class="msportalfx-svg-c01" fill="#ffffff"></path><circle cx="9.007" cy="8.991" r="1.619" fill="#5ea0ef"></circle></g><defs>
<linearGradient id="1774fd20-38b4-4463-a91d-830bf9967976" x1="9" y1="19.85" x2="9" y2="-1.016" gradientUnits="userSpaceOnUse"><stop offset="0" stop-color="#5e9624"></stop><stop offset=".021" stop-color="#5f9724"></stop><stop offset=".999" stop-color="#76bc2d"></stop></linearGradient>
</defs>
</svg>