<svg viewBox="0 0 50 50" class="fxs-portal-svg" role="presentation" focusable="false" xmlns:svg="http://www.w3.org/2000/svg" xmlns:xlink="http://www.w3.org/1999/xlink" id="FxSymbol0-053" data-type="1"><g><title></title><path d="M49.7 25.7c.5-.5.4-1.3 0-1.8l-2.4-2.4L36.5 11c-.5-.5-1.2-.5-1.7 0s-.6 1.3 0 1.8l11.3 11.1c.5.5.5 1.3 0 1.8L34.6 37.2c-.5.5-.5 1.3 0 1.8s1.3.4 1.7 0L47 28.4l.1-.1 2.6-2.6zm-49.4 0c-.5-.5-.4-1.3 0-1.8l2.4-2.4L13.5 11c.5-.5 1.2-.5 1.7 0s.6 1.3 0 1.8L4.1 23.9c-.5.5-.5 1.3 0 1.8l11.3 11.5c.5.5.5 1.3 0 1.8s-1.3.4-1.7 0L2.8 28.5l-.1-.1-2.4-2.7z" class="msportalfx-svg-c16" fill="#3999c6"></path><path d="M18.2 24.8c0 1.9-1.6 3.3-3.3 3.3s-3.5-1.6-3.5-3.3 1.4-3.3 3.5-3.3c2 0 3.3 1.6 3.3 3.3zm10.1 0c0 1.9-1.6 3.3-3.3 3.3s-3.5-1.6-3.5-3.3 1.6-3.3 3.5-3.3 3.3 1.6 3.3 3.3z" class="msportalfx-svg-c19" fill="#0072c6"></path><circle cx="35.2" cy="24.8" r="3.3" class="msportalfx-svg-c19" fill="#0072c6"></circle></g><defs>
</defs>
</svg>