<svg viewBox="0 0 18 18" class="" role="presentation" focusable="false" xmlns:svg="http://www.w3.org/2000/svg" xmlns:xlink="http://www.w3.org/1999/xlink" id="FxSymbol0-08f" data-type="1"><g><title>Icon-web-48</title><path d="M14.18 6.49H9.65A4 4 0 0 0 5.9 10h1.42a2.49 2.49 0 0 1 2.33-2h4.53a2.59 2.59 0 0 1 2.44 2.71 2.6 2.6 0 0 1-2.44 2.72H9.65a2.49 2.49 0 0 1-2.33-2H5.9A4 4 0 0 0 9.65 15h4.53A4.06 4.06 0 0 0 18 10.74a4.06 4.06 0 0 0-3.82-4.25z" fill="url(#7159028712976578)"></path><path d="M8.35 10H3.82a2.59 2.59 0 0 1-2.44-2.74 2.6 2.6 0 0 1 2.44-2.72h4.53a2.49 2.49 0 0 1 2.33 2h1.42A4 4 0 0 0 8.35 3H3.82A4.06 4.06 0 0 0 0 7.26a4.06 4.06 0 0 0 3.82 4.25h4.53A4 4 0 0 0 12.1 8h-1.42a2.49 2.49 0 0 1-2.33 2z" fill="url(#3902335612665411)"></path><path d="M8.35 10h-3v1.54h3A4 4 0 0 0 12.1 8h-1.42a2.49 2.49 0 0 1-2.33 2z" fill="url(#298687362586179)"></path><path fill="none" d="M0 0h18v18H0z"></path></g><defs>
<linearGradient id="7159028712976578" x1="11.95" y1="15" x2="11.95" y2="6.49" gradientUnits="userSpaceOnUse"><stop offset="0" stop-color="#5e9624"></stop><stop offset=".01" stop-color="#5e9724"></stop><stop offset=".35" stop-color="#6cab29"></stop><stop offset=".68" stop-color="#73b82c"></stop><stop offset="1" stop-color="#76bc2d"></stop></linearGradient>
<linearGradient id="3902335612665411" x1="6.05" y1="11.51" x2="6.05" y2="3" gradientUnits="userSpaceOnUse"><stop offset="0" stop-color="#0078d4"></stop><stop offset=".82" stop-color="#5ea0ef"></stop></linearGradient>
<linearGradient id="298687362586179" x1="10.51" y1="6.82" x2="7.93" y2="10.5" gradientUnits="userSpaceOnUse"><stop offset="0" stop-color="#005ba1"></stop><stop offset=".14" stop-color="#035da3" stop-opacity=".97"></stop><stop offset=".3" stop-color="#0b63aa" stop-opacity=".88"></stop><stop offset=".47" stop-color="#196eb6" stop-opacity=".73"></stop><stop offset=".65" stop-color="#2d7cc6" stop-opacity=".52"></stop><stop offset=".84" stop-color="#468edb" stop-opacity=".26"></stop><stop offset="1" stop-color="#5ea0ef" stop-opacity="0"></stop></linearGradient>
</defs>
</svg>