<svg viewBox="0 0 18 18" class="" role="presentation" focusable="false" xmlns:svg="http://www.w3.org/2000/svg" xmlns:xlink="http://www.w3.org/1999/xlink" id="FxSymbol0-075" data-type="1"><g><title>Icon-web-47</title><path d="M8.57 8.69H1V2.18a1.1 1.1 0 0 1 1.09-1.1h6.48zm-6.63-.94h5.69V2H2.09a.15.15 0 0 0-.15.15zM17 8.69H9.43V1.08h6.48A1.1 1.1 0 0 1 17 2.18zm-6.63-.94h5.69V2.18a.15.15 0 0 0-.15-.18h-5.54zm-1.8 9.33H2.09A1.09 1.09 0 0 1 1 16V9.48h7.57zm-6.63-6.66V16a.15.15 0 0 0 .15.15h5.54v-5.73zm13.97 6.66H9.43v-7.6H17V16a1.09 1.09 0 0 1-1.09 1.08zm-5.54-.94h5.54a.15.15 0 0 0 .15-.15v-5.57h-5.69z" fill="#949494"></path><path d="M14.67 10.62a2.59 2.59 0 0 0-2.21-2.5A3.24 3.24 0 0 0 9.15 5 3.32 3.32 0 0 0 6 7.17a3.08 3.08 0 0 0-2.66 3 3.11 3.11 0 0 0 3.19 3h5.61a2.61 2.61 0 0 0 2.53-2.55z" fill="url(#b25a6eef-63a1-4028-981f-ae9a6e561a3b)"></path><path fill="none" d="M0 0h18v18H0z"></path></g><defs>
<linearGradient id="b25a6eef-63a1-4028-981f-ae9a6e561a3b" x1="9" y1="3.72" x2="9" y2="15.02" gradientUnits="userSpaceOnUse"><stop offset=".18" stop-color="#5ea0ef"></stop><stop offset="1" stop-color="#0078d4"></stop></linearGradient>
</defs>
</svg>