<svg viewBox="0 0 18 18" data-islogo="true" class="" role="presentation" focusable="false" xmlns:svg="http://www.w3.org/2000/svg" xmlns:xlink="http://www.w3.org/1999/xlink" id="FxSymbol0-05e" data-type="194"><g><rect y=".757" width="18" height="12.75" rx=".6" fill="url(#1f307a79-19c5-43a0-b40b-b05ebe176694)"></rect><rect x="1.05" y="1.882" width="15.9" height="10.5" rx=".3" class="msportalfx-svg-c01" fill="#ffffff"></rect><path d="M14.945 9.336a.29.29 0 0 1-.29.29H8.164a.29.29 0 1 1 0-.579h6.491a.289.289 0 0 1 .29.289m0-1.793a.289.289 0 0 1-.29.289H8.164a.29.29 0 1 1 0-.579h6.491a.29.29 0 0 1 .29.29m0-2.617a.29.29 0 0 1-.29.29H3.769a.29.29 0 1 1 0-.579h10.886a.289.289 0 0 1 .29.289" fill="#d15900"></path><path d="M5.133 12.691a2.525 2.525 0 0 1-3.376 0l-.21 4.191a.333.333 0 0 0 .57.25l1.3-1.318 1.309 1.329A.333.333 0 0 0 5.3 16.9z" fill="#b31b1b"></path><ellipse cx="3.479" cy="10.544" rx="3.013" ry="3.023" fill="#e62323"></ellipse><ellipse cx="3.479" cy="10.544" rx="2.286" ry="2.293" fill="#ffb34d"></ellipse></g><defs>
<linearGradient id="1f307a79-19c5-43a0-b40b-b05ebe176694" x1="9" y1="13.507" x2="9" y2=".757" gradientUnits="userSpaceOnUse"><stop offset="0" stop-color="#e27908"></stop><stop offset=".323" stop-color="#e47d0a"></stop><stop offset=".622" stop-color="#eb8810"></stop><stop offset=".91" stop-color="#f69a19"></stop><stop offset="1" stop-color="#faa21d"></stop></linearGradient>
</defs>
</svg>