<?xml version="1.0" encoding="UTF-8" standalone="no"?>
<!DOCTYPE svg PUBLIC "-//W3C//DTD SVG 1.1//EN" "http://www.w3.org/Graphics/SVG/1.1/DTD/svg11.dtd">
<!-- Generated by Microsoft Visio, SVG Export LowUsageVM.svg Page-1 -->
<svg xmlns="http://www.w3.org/2000/svg" xmlns:xlink="http://www.w3.org/1999/xlink" xmlns:ev="http://www.w3.org/2001/xml-events"
		width="0.856873in" height="0.856873in" viewBox="0 0 61.6949 61.6949" xml:space="preserve"
		color-interpolation-filters="sRGB" class="st17">
	<style type="text/css">
	<![CDATA[
		.st1 {fill:#ffffff;stroke:none;stroke-linecap:round;stroke-linejoin:round;stroke-width:0.75}
		.st2 {visibility:visible}
		.st3 {fill:#5b9bd5;fill-opacity:0.22;filter:url(#filter_2);stroke:none}
		.st4 {fill:#0f0f0f;stroke:none;stroke-width:12.24}
		.st5 {fill:#7fba00;stroke:none;stroke-width:12.24}
		.st6 {fill:#ffffff;fill-opacity:0.098;stroke:none;stroke-width:12.24}
		.st7 {fill:#fcd116;stroke:none;stroke-width:12.24}
		.st8 {fill:#b8d432;fill-opacity:0.9;stroke:none;stroke-width:12.24}
		.st9 {fill:#7a7a7a;stroke:none;stroke-width:12.24}
		.st10 {fill:#a0a1a2;stroke:none;stroke-width:12.24}
		.st11 {fill:#ffffff;fill-opacity:0.2;stroke:none;stroke-width:12.24}
		.st12 {fill:#59b4d9;stroke:none;stroke-width:12.24}
		.st13 {fill:#b8d432;stroke:none;stroke-width:12.24}
		.st14 {fill:#ffffff;stroke:none;stroke-width:12.24}
		.st15 {fill:#ffffff;fill-opacity:0.7;stroke:none;stroke-width:12.24}
		.st16 {fill:#ffffff;fill-opacity:0.4;stroke:none;stroke-width:12.24}
		.st17 {fill:none;fill-rule:evenodd;font-size:12px;overflow:visible;stroke-linecap:square;stroke-miterlimit:3}
	]]>
	</style>

	<defs id="Filters">
		<filter id="filter_2">
			<feGaussianBlur stdDeviation="2"/>
		</filter>
	</defs>
	<g>
		<title>Page-1</title>
		<g id="group140-1" transform="translate(0.375,-0.375)">
			<title>Sheet.140</title>
			<g id="shape119-2">
				<title>Sheet.119</title>
				<rect x="0" y="0.750001" width="60.9449" height="60.9449" class="st1"/>
			</g>
			<g id="group139-4" transform="translate(12.7559,-19.1693)">
				<title>Sheet.139</title>
				<g id="group122-5" transform="translate(18.276,-5.44879)">
					<title>Azure Billing</title>
					<g id="shape123-6" transform="translate(7.34322,-6.17174)">
						<title>Sheet.123</title>
						<g id="shadow123-7" transform="matrix(1,0,0,1,0.3456,1.9728)" class="st2">
							<path d="M2.41 60.17 C2.41 60.45 2.33 60.67 2.15 60.84 C1.97 61.01 1.72 61.11 1.39 61.15 L1.39 61.69
										 L1.02 61.69 L1.02 61.16 C0.67 61.16 0.36 61.08 0.07 60.93 L0.07 60.24 C0.16 60.31 0.3 60.38
										 0.5 60.45 C0.7 60.52 0.87 60.56 1.02 60.57 L1.02 59.66 C0.65 59.52 0.39 59.37 0.23 59.21
										 C0.08 59.04 0 58.83 0 58.56 C0 58.29 0.1 58.07 0.28 57.89 C0.47 57.7 0.72 57.6 1.02 57.57
										 L1.02 57.1 L1.39 57.1 L1.39 57.56 C1.74 57.57 2 57.63 2.18 57.73 L2.18 58.41 C1.94 58.26
										 1.68 58.18 1.39 58.14 L1.39 59.1 C1.76 59.23 2.02 59.38 2.18 59.55 C2.33 59.72 2.41 59.92
										 2.41 60.17 ZM1.02 58.95 L1.02 58.15 C0.79 58.2 0.67 58.32 0.67 58.52 C0.67 58.69 0.79 58.84
										 1.02 58.95 ZM1.74 60.2 C1.74 60.04 1.62 59.91 1.39 59.8 L1.39 60.56 C1.62 60.52 1.74 60.4
										 1.74 60.2 Z" class="st3"/>
						</g>
						<path d="M2.41 60.17 C2.41 60.45 2.33 60.67 2.15 60.84 C1.97 61.01 1.72 61.11 1.39 61.15 L1.39 61.69 L1.02
									 61.69 L1.02 61.16 C0.67 61.16 0.36 61.08 0.07 60.93 L0.07 60.24 C0.16 60.31 0.3 60.38 0.5 60.45
									 C0.7 60.52 0.87 60.56 1.02 60.57 L1.02 59.66 C0.65 59.52 0.39 59.37 0.23 59.21 C0.08 59.04 0
									 58.83 0 58.56 C0 58.29 0.1 58.07 0.28 57.89 C0.47 57.7 0.72 57.6 1.02 57.57 L1.02 57.1 L1.39
									 57.1 L1.39 57.56 C1.74 57.57 2 57.63 2.18 57.73 L2.18 58.41 C1.94 58.26 1.68 58.18 1.39 58.14
									 L1.39 59.1 C1.76 59.23 2.02 59.38 2.18 59.55 C2.33 59.72 2.41 59.92 2.41 60.17 ZM1.02 58.95
									 L1.02 58.15 C0.79 58.2 0.67 58.32 0.67 58.52 C0.67 58.69 0.79 58.84 1.02 58.95 ZM1.74 60.2 C1.74
									 60.04 1.62 59.91 1.39 59.8 L1.39 60.56 C1.62 60.52 1.74 60.4 1.74 60.2 Z" class="st4"/>
					</g>
					<g id="shape124-11">
						<title>Sheet.124</title>
						<g id="shadow124-12" transform="matrix(1,0,0,1,0.3456,1.9728)" class="st2">
							<path d="M8.58 57.85 C5.96 57.85 3.84 55.73 3.84 53.12 C3.84 50.5 5.96 48.38 8.58 48.38 C11.2 48.38 13.32
										 50.5 13.32 53.12 L17.16 53.12 C17.16 48.38 13.32 44.54 8.58 44.54 L8.58 44.54 C3.84 44.54
										 0 48.38 0 53.12 C0 57.85 3.84 61.69 8.58 61.69 C10.77 61.69 12.77 60.87 14.29 59.52 L11.73
										 56.65 C10.89 57.4 9.79 57.85 8.58 57.85 Z" class="st3"/>
						</g>
						<path d="M8.58 57.85 C5.96 57.85 3.84 55.73 3.84 53.12 C3.84 50.5 5.96 48.38 8.58 48.38 C11.2 48.38 13.32
									 50.5 13.32 53.12 L17.16 53.12 C17.16 48.38 13.32 44.54 8.58 44.54 L8.58 44.54 C3.84 44.54 0
									 48.38 0 53.12 C0 57.85 3.84 61.69 8.58 61.69 C10.77 61.69 12.77 60.87 14.29 59.52 L11.73 56.65
									 C10.89 57.4 9.79 57.85 8.58 57.85 Z" class="st5"/>
					</g>
					<g id="shape125-16">
						<title>Sheet.125</title>
						<g id="shadow125-17" transform="matrix(1,0,0,1,0.3456,1.9728)" class="st2">
							<path d="M8.58 57.85 C5.96 57.85 3.84 55.73 3.84 53.12 C3.84 50.5 5.96 48.38 8.58 48.38 C11.2 48.38 13.32
										 50.5 13.32 53.12 L17.16 53.12 C17.16 48.38 13.32 44.54 8.58 44.54 L8.58 44.54 C3.84 44.54
										 0 48.38 0 53.12 C0 57.85 3.84 61.69 8.58 61.69 C10.77 61.69 12.77 60.87 14.29 59.52 L11.73
										 56.65 C10.89 57.4 9.79 57.85 8.58 57.85 Z" class="st3"/>
						</g>
						<path d="M8.58 57.85 C5.96 57.85 3.84 55.73 3.84 53.12 C3.84 50.5 5.96 48.38 8.58 48.38 C11.2 48.38 13.32
									 50.5 13.32 53.12 L17.16 53.12 C17.16 48.38 13.32 44.54 8.58 44.54 L8.58 44.54 C3.84 44.54 0
									 48.38 0 53.12 C0 57.85 3.84 61.69 8.58 61.69 C10.77 61.69 12.77 60.87 14.29 59.52 L11.73 56.65
									 C10.89 57.4 9.79 57.85 8.58 57.85 Z" class="st6"/>
					</g>
					<g id="shape126-21" transform="translate(11.7299,-2.17895)">
						<title>Sheet.126</title>
						<g id="shadow126-22" transform="matrix(1,0,0,1,0.3456,1.9728)" class="st2">
							<path d="M5.43 55.29 L1.59 55.29 C1.59 56.7 0.97 57.96 0 58.83 L2.56 61.69 C4.32 60.12 5.43 57.84 5.43
										 55.29 Z" class="st3"/>
						</g>
						<path d="M5.43 55.29 L1.59 55.29 C1.59 56.7 0.97 57.96 0 58.83 L2.56 61.69 C4.32 60.12 5.43 57.84 5.43 55.29
									 Z" class="st7"/>
					</g>
					<g id="shape127-26" transform="translate(8.57819,-8.57888)">
						<title>Sheet.127</title>
						<g id="shadow127-27" transform="matrix(1,0,0,1,0.3456,1.9728)" class="st2">
							<path d="M4.74 61.69 L8.58 61.69 C8.58 56.96 4.74 53.12 0 53.12 L0 56.96 C2.62 56.96 4.74 59.08 4.74
										 61.69 Z" class="st3"/>
						</g>
						<path d="M4.74 61.69 L8.58 61.69 C8.58 56.96 4.74 53.12 0 53.12 L0 56.96 C2.62 56.96 4.74 59.08 4.74 61.69
									 Z" class="st8"/>
					</g>
				</g>
				<g id="group128-31">
					<title>Azure Portal - Virtual Machines</title>
					<g id="shape129-32" transform="translate(3.68001,0)">
						<title>Sheet.129</title>
						<g id="shadow129-33" transform="matrix(1,0,0,1,0.3456,1.9728)" class="st2">
							<path d="M10.11 57.61 L9.6 57.61 L4.59 57.61 L4.33 57.61 C5.02 60.06 4.09 60.41 0 60.41 L0 61.69 L5.2
										 61.69 L8.99 61.69 L13.9 61.69 L13.9 60.41 C9.81 60.41 9.41 60.06 10.11 57.61 Z"
									class="st3"/>
						</g>
						<path d="M10.11 57.61 L9.6 57.61 L4.59 57.61 L4.33 57.61 C5.02 60.06 4.09 60.41 0 60.41 L0 61.69 L5.2 61.69
									 L8.99 61.69 L13.9 61.69 L13.9 60.41 C9.81 60.41 9.41 60.06 10.11 57.61 Z" class="st9"/>
					</g>
					<g id="shape130-37" transform="translate(0.000425188,-4.08734)">
						<title>Sheet.130</title>
						<g id="shadow130-38" transform="matrix(1,0,0,1,0.3456,1.9728)" class="st2">
							<path d="M19.97 46.16 L1.16 46.16 C0.52 46.16 0 46.73 0 47.37 L0 60.49 C0 61.13 0.52 61.69 1.16 61.69
										 L19.97 61.69 C20.61 61.69 21.26 61.13 21.26 60.49 L21.26 47.37 C21.26 46.73 20.61 46.16
										 19.97 46.16 Z" class="st3"/>
						</g>
						<path d="M19.97 46.16 L1.16 46.16 C0.52 46.16 0 46.73 0 47.37 L0 60.49 C0 61.13 0.52 61.69 1.16 61.69 L19.97
									 61.69 C20.61 61.69 21.26 61.13 21.26 60.49 L21.26 47.37 C21.26 46.73 20.61 46.16 19.97 46.16
									 Z" class="st10"/>
					</g>
					<g id="shape131-42" transform="translate(0,-4.08691)">
						<title>Sheet.131</title>
						<g id="shadow131-43" transform="matrix(1,0,0,1,0.3456,1.9728)" class="st2">
							<path d="M19.99 46.16 C19.98 46.16 19.98 46.16 19.98 46.16 L1.16 46.16 C0.52 46.16 0 46.73 0 47.37 L0
										 60.49 C0 61.13 0.52 61.69 1.16 61.69 L1.6 61.69 L19.99 46.16 Z" class="st3"/>
						</g>
						<path d="M19.99 46.16 C19.98 46.16 19.98 46.16 19.98 46.16 L1.16 46.16 C0.52 46.16 0 46.73 0 47.37 L0 60.49
									 C0 61.13 0.52 61.69 1.16 61.69 L1.6 61.69 L19.99 46.16 Z" class="st11"/>
					</g>
					<g id="shape132-47" transform="translate(1.61146,-5.72304)">
						<title>Sheet.132</title>
						<g id="shadow132-48" transform="matrix(1,0,0,1,0.3456,1.9728)" class="st2">
							<rect x="0" y="49.432" width="17.9889" height="12.2629" class="st3"/>
						</g>
						<rect x="0" y="49.432" width="17.9889" height="12.2629" class="st12"/>
					</g>
					<g id="shape133-52" transform="translate(1.61146,-5.72304)">
						<title>Sheet.133</title>
						<g id="shadow133-53" transform="matrix(1,0,0,1,0.3456,1.9728)" class="st2">
							<path d="M0 61.69 L0.02 61.69 L0.02 49.43 L16.47 49.41 L16.47 49.41 L0 49.43 L0 61.69 Z" class="st3"/>
						</g>
						<path d="M0 61.69 L0.02 61.69 L0.02 49.43 L16.47 49.41 L16.47 49.41 L0 49.43 L0 61.69 Z" class="st12"/>
					</g>
					<g id="shape134-57" transform="translate(3.68001,-7.10543E-15)">
						<title>Sheet.134</title>
						<g id="shadow134-58" transform="matrix(1,0,0,1,0.3456,1.9728)" class="st2">
							<rect x="0" y="60.4104" width="13.9003" height="1.28449" class="st3"/>
						</g>
						<rect x="0" y="60.4104" width="13.9003" height="1.28449" class="st10"/>
					</g>
					<g id="shape135-62" transform="translate(10.2466,-18.4294)">
						<title>Sheet.135</title>
						<g id="shadow135-63" transform="matrix(1,0,0,1,0.3456,1.9728)" class="st2">
							<path d="M0.6 61.39 C0.6 61.56 0.47 61.69 0.3 61.69 C0.13 61.69 0 61.56 0 61.39 C0 61.23 0.13 61.09 0.3
										 61.09 C0.47 61.09 0.6 61.23 0.6 61.39 Z" class="st3"/>
						</g>
						<path d="M0.6 61.39 C0.6 61.56 0.47 61.69 0.3 61.69 C0.13 61.69 0 61.56 0 61.39 C0 61.23 0.13 61.09 0.3 61.09
									 C0.47 61.09 0.6 61.23 0.6 61.39 Z" class="st13"/>
					</g>
					<g id="shape136-67" transform="translate(7.0054,-12.2263)">
						<title>Sheet.136</title>
						<g id="shadow136-68" transform="matrix(1,0,0,1,0.3456,1.9728)" class="st2">
							<path d="M3.86 61.69 C3.84 61.69 3.82 61.69 3.8 61.68 L0.06 59.52 C0.02 59.5 0 59.46 0 59.42 C0 59.38
										 0.02 59.34 0.06 59.32 L3.78 57.18 C3.81 57.16 3.85 57.16 3.89 57.18 L7.63 59.34 C7.67 59.36
										 7.69 59.39 7.69 59.43 C7.69 59.48 7.67 59.51 7.63 59.53 L3.91 61.68 C3.9 61.69 3.88 61.69
										 3.86 61.69 Z" class="st3"/>
						</g>
						<path d="M3.86 61.69 C3.84 61.69 3.82 61.69 3.8 61.68 L0.06 59.52 C0.02 59.5 0 59.46 0 59.42 C0 59.38 0.02
									 59.34 0.06 59.32 L3.78 57.18 C3.81 57.16 3.85 57.16 3.89 57.18 L7.63 59.34 C7.67 59.36 7.69
									 59.39 7.69 59.43 C7.69 59.48 7.67 59.51 7.63 59.53 L3.91 61.68 C3.9 61.69 3.88 61.69 3.86 61.69
									 Z" class="st14"/>
					</g>
					<g id="shape137-72" transform="translate(6.47689,-6.97436)">
						<title>Sheet.137</title>
						<g id="shadow137-73" transform="matrix(1,0,0,1,0.3456,1.9728)" class="st2">
							<path d="M3.85 61.69 C3.83 61.69 3.81 61.69 3.79 61.68 L0.06 59.53 C0.02 59.51 0 59.47 0 59.43 L0 55.1
										 C0 55.06 0.02 55.03 0.06 55.01 C0.09 54.99 0.13 54.99 0.17 55.01 L3.9 57.16 C3.94 57.18
										 3.96 57.22 3.96 57.26 L3.96 61.58 C3.96 61.62 3.94 61.66 3.9 61.68 C3.88 61.69 3.87 61.69
										 3.85 61.69 Z" class="st3"/>
						</g>
						<path d="M3.85 61.69 C3.83 61.69 3.81 61.69 3.79 61.68 L0.06 59.53 C0.02 59.51 0 59.47 0 59.43 L0 55.1 C0
									 55.06 0.02 55.03 0.06 55.01 C0.09 54.99 0.13 54.99 0.17 55.01 L3.9 57.16 C3.94 57.18 3.96 57.22
									 3.96 57.26 L3.96 61.58 C3.96 61.62 3.94 61.66 3.9 61.68 C3.88 61.69 3.87 61.69 3.85 61.69 Z"
								class="st15"/>
					</g>
					<g id="shape138-77" transform="translate(11.2671,-6.97436)">
						<title>Sheet.138</title>
						<g id="shadow138-78" transform="matrix(1,0,0,1,0.3456,1.9728)" class="st2">
							<path d="M0.11 61.69 C0.09 61.69 0.07 61.69 0.05 61.68 C0.02 61.66 0 61.62 0 61.58 L0 57.29 C0 57.25
										 0.02 57.21 0.05 57.19 L3.79 55.03 C3.82 55.01 3.86 55.01 3.9 55.03 C3.93 55.05 3.96 55.09
										 3.96 55.13 L3.96 59.43 C3.96 59.47 3.93 59.51 3.9 59.53 L0.17 61.68 C0.15 61.69 0.13 61.69
										 0.11 61.69 Z" class="st3"/>
						</g>
						<path d="M0.11 61.69 C0.09 61.69 0.07 61.69 0.05 61.68 C0.02 61.66 0 61.62 0 61.58 L0 57.29 C0 57.25 0.02
									 57.21 0.05 57.19 L3.79 55.03 C3.82 55.01 3.86 55.01 3.9 55.03 C3.93 55.05 3.96 55.09 3.96 55.13
									 L3.96 59.43 C3.96 59.47 3.93 59.51 3.9 59.53 L0.17 61.68 C0.15 61.69 0.13 61.69 0.11 61.69 Z"
								class="st16"/>
					</g>
				</g>
			</g>
		</g>
	</g>
</svg>
