<?xml version="1.0" encoding="UTF-8" standalone="no"?>
<!DOCTYPE svg PUBLIC "-//W3C//DTD SVG 1.1//EN" "http://www.w3.org/Graphics/SVG/1.1/DTD/svg11.dtd">
<!-- Generated by Microsoft Visio, SVG Export UbuntuLogo.svg Page-1 -->
<svg xmlns="http://www.w3.org/2000/svg" xmlns:xlink="http://www.w3.org/1999/xlink" xmlns:ev="http://www.w3.org/2001/xml-events"
		xmlns:v="http://schemas.microsoft.com/visio/2003/SVGExtensions/" width="0.575226in" height="0.145833in"
		viewBox="0 0 41.4163 10.5" xml:space="preserve" color-interpolation-filters="sRGB" class="st4">
	<v:documentProperties v:langID="1033" v:viewMarkup="false"/>

	<style type="text/css">
	<![CDATA[
		.st1 {fill:#231f20;stroke:none;stroke-linecap:butt;stroke-width:0.75}
		.st2 {fill:#f47421;stroke:none;stroke-linecap:butt;stroke-width:0.55}
		.st3 {fill:#ffffff;stroke:none;stroke-linecap:butt;stroke-width:0.55}
		.st4 {fill:none;fill-rule:evenodd;font-size:12px;overflow:visible;stroke-linecap:square;stroke-miterlimit:3}
	]]>
	</style>

	<g v:mID="0" v:index="1" v:groupContext="foregroundPage">
		<title>Page-1</title>
		<v:pageProperties v:drawingScale="1" v:pageScale="1" v:drawingUnits="19" v:shadowOffsetX="9" v:shadowOffsetY="-9"/>
		<g id="group339-1" transform="translate(0.75,-0.75)" v:mID="339" v:groupContext="group">
			<title>Sheet.339</title>
			<g id="shape340-2" v:mID="340" v:groupContext="shape">
				<title>text</title>
				<path d="M30.54 4.44 L30.54 8.15 C30.54 9.1 31 9.62 31.91 9.62 C32.16 9.62 32.4 9.61 32.64 9.59 C32.88 9.57 33.08
							 9.54 33.24 9.49 L33.24 4.44 L34.33 4.44 L34.33 10.16 C34 10.28 33.63 10.36 33.2 10.41 C32.78 10.47 32.35
							 10.5 31.91 10.5 C31.11 10.5 30.49 10.24 30.08 9.84 C29.66 9.43 29.45 8.82 29.45 8 L29.45 4.44 L30.54
							 4.44 ZM13.79 4.44 L13.79 8.15 C13.79 9.1 14.25 9.62 15.17 9.62 C15.41 9.62 15.65 9.61 15.89 9.59 C16.13
							 9.57 16.33 9.54 16.5 9.49 L16.5 4.44 L17.58 4.44 L17.58 10.16 C17.25 10.28 16.88 10.36 16.45 10.41 C16.03
							 10.47 15.6 10.5 15.17 10.5 C14.36 10.5 13.75 10.24 13.33 9.84 C12.91 9.43 12.7 8.82 12.7 8 L12.7 4.44
							 L13.79 4.44 ZM26.11 2.53 L25.13 2.7 L25.13 8.6 C25.13 9.74 25.74 10.48 27.09 10.48 C27.42 10.48 28.07
							 10.39 28.45 10.32 L28.32 9.56 C28.31 9.59 27.46 9.68 27 9.65 C26.55 9.63 26.14 9.25 26.1 8.87 L26.1
							 5.31 L28.35 5.31 L28.35 4.44 L26.1 4.44 L26.11 2.53 L26.11 2.53 ZM7.4 1.5 L6.3 1.68 L6.3 10.16 C6.95
							 10.39 7.63 10.5 8.35 10.5 C8.47 10.5 8.59 10.5 8.71 10.49 L8.71 10.48 C10.84 10.49 11.94 8.81 11.65
							 6.84 C11.43 5.46 10.28 4.29 8.94 4.29 C8.41 4.29 7.98 4.44 7.66 4.55 C7.57 4.59 7.48 4.63 7.4 4.67 L7.4
							 1.5 L7.4 1.5 L7.4 1.5 L7.4 1.5 ZM8.93 5.17 C10.13 5.23 10.61 6.28 10.64 7.32 C10.7 8.74 9.71 9.74 8.37
							 9.62 C8.06 9.6 7.74 9.58 7.4 9.5 L7.4 5.6 C7.54 5.48 7.7 5.38 7.88 5.31 C8.13 5.22 8.48 5.15 8.93 5.17
							 ZM20.14 10.35 L19.05 10.35 L19.05 4.68 C19.38 4.56 19.75 4.48 20.15 4.43 C20.56 4.37 20.98 4.34 21.41
							 4.34 C23.03 4.34 23.84 5.15 23.84 6.76 L23.84 10.35 L22.76 10.35 L22.76 6.6 C22.76 5.68 22.31 5.22 21.41
							 5.22 C21.18 5.22 20.95 5.23 20.72 5.25 C20.5 5.27 20.3 5.3 20.14 5.34 L20.14 10.35 ZM1.09 4.44 L1.09
							 8.15 C1.09 9.1 1.55 9.62 2.46 9.62 C2.71 9.62 2.95 9.61 3.19 9.59 C3.43 9.57 3.63 9.54 3.79 9.49 L3.79
							 4.44 L4.88 4.44 L4.88 10.16 C4.55 10.28 4.18 10.36 3.75 10.41 C3.33 10.47 2.9 10.5 2.46 10.5 C1.66 10.5
							 1.05 10.24 0.63 9.84 C0.21 9.43 0 8.82 0 8 L0 4.44 L1.09 4.44 Z" class="st1"/>
			</g>
			<g id="group341-4" transform="translate(35.5116,-3.83718)" v:mID="341" v:groupContext="group">
				<title>logo</title>
				<g id="shape342-5" v:mID="342" v:groupContext="shape">
					<title>roundel</title>
					<path d="M4.6 8.2 C4.6 9.47 3.57 10.5 2.3 10.5 C1.03 10.5 0 9.47 0 8.2 C0 6.93 1.03 5.9 2.3 5.9 C3.57 5.9 4.6
								 6.93 4.6 8.2 Z" class="st2"/>
				</g>
				<g id="shape343-7" v:mID="343" v:groupContext="shape" transform="translate(0.429393,-0.595497)">
					<title>circle-of-friends</title>
					<path d="M2.5 7.7 C2.65 7.79 2.84 7.74 2.92 7.59 C3.01 7.44 2.96 7.26 2.81 7.17 C2.66 7.09 2.47 7.14 2.39 7.28
								 C2.3 7.43 2.36 7.62 2.5 7.7 ZM1.87 9.69 C1.74 9.69 1.61 9.66 1.49 9.61 L1.28 9.99 C1.46 10.08 1.66
								 10.13 1.87 10.13 C2 10.13 2.12 10.11 2.23 10.08 C2.25 9.96 2.32 9.84 2.44 9.78 C2.56 9.71 2.69 9.7
								 2.81 9.75 C3.04 9.52 3.18 9.22 3.21 8.88 L2.77 8.87 C2.73 9.33 2.34 9.69 1.87 9.69 ZM1.87 7.9 C2.34
								 7.9 2.73 8.25 2.77 8.71 L3.21 8.71 C3.18 8.37 3.04 8.06 2.81 7.84 C2.69 7.89 2.56 7.88 2.44 7.81
								 C2.32 7.74 2.25 7.63 2.23 7.51 C2.12 7.47 2 7.46 1.87 7.46 C1.66 7.46 1.46 7.51 1.28 7.6 L1.49 7.98
								 C1.61 7.93 1.74 7.9 1.87 7.9 L1.87 7.9 ZM0.98 8.79 C0.98 8.49 1.13 8.22 1.36 8.06 L1.13 7.68 C0.86
								 7.86 0.66 8.14 0.58 8.46 C0.68 8.54 0.74 8.66 0.74 8.79 C0.74 8.93 0.68 9.05 0.58 9.13 C0.66 9.45
								 0.86 9.72 1.13 9.9 L1.36 9.53 C1.13 9.37 0.98 9.1 0.98 8.79 ZM2.5 9.88 C2.36 9.97 2.3 10.16 2.39
								 10.3 C2.47 10.45 2.66 10.5 2.81 10.42 C2.96 10.33 3.01 10.14 2.92 10 C2.84 9.85 2.65 9.8 2.5 9.88
								 ZM0.31 8.49 C0.14 8.49 0 8.62 0 8.79 C0 8.96 0.14 9.1 0.31 9.1 C0.48 9.1 0.61 8.96 0.61 8.79 C0.61
								 8.62 0.48 8.49 0.31 8.49 Z" class="st3"/>
				</g>
			</g>
		</g>
	</g>
</svg>
