<?xml version="1.0" encoding="UTF-8" standalone="no"?>
<!DOCTYPE svg PUBLIC "-//W3C//DTD SVG 1.1//EN" "http://www.w3.org/Graphics/SVG/1.1/DTD/svg11.dtd">
<!-- Generated by Microsoft Visio, SVG Export ContainersLogo.svg Page-1 -->
<svg xmlns="http://www.w3.org/2000/svg" xmlns:xlink="http://www.w3.org/1999/xlink" xmlns:ev="http://www.w3.org/2001/xml-events"
		xmlns:v="http://schemas.microsoft.com/visio/2003/SVGExtensions/" width="0.670016in" height="0.584212in"
		viewBox="0 0 48.2412 42.0633" xml:space="preserve" color-interpolation-filters="sRGB" class="st5">
	<v:documentProperties v:langID="1033" v:viewMarkup="false"/>

	<style type="text/css">
	<![CDATA[
		.st1 {visibility:visible}
		.st2 {fill:#5b9bd5;fill-opacity:0.22;filter:url(#filter_2);stroke:none}
		.st3 {fill:#804998;stroke:none;stroke-width:12.24}
		.st4 {fill:#ffffff;fill-opacity:0.2;stroke:none;stroke-width:12.24}
		.st5 {fill:none;fill-rule:evenodd;font-size:12px;overflow:visible;stroke-linecap:square;stroke-miterlimit:3}
	]]>
	</style>

	<defs id="Filters">
		<filter id="filter_2">
			<feGaussianBlur stdDeviation="2"/>
		</filter>
	</defs>
	<g v:mID="0" v:index="1" v:groupContext="foregroundPage">
		<title>Page-1</title>
		<v:pageProperties v:drawingScale="1" v:pageScale="1" v:drawingUnits="19" v:shadowOffsetX="9" v:shadowOffsetY="-9"/>
		<g id="group389-1" transform="translate(12.24,-12.24)" v:mID="389" v:groupContext="group">
			<title>Azure Container</title>
			<g id="shape390-2" v:mID="390" v:groupContext="shape" transform="translate(7.2234,-11.6905)">
				<title>Sheet.390</title>
				<g id="shadow390-3" v:groupContext="shadow" v:shadowOffsetX="0.3456" v:shadowOffsetY="-1.9728" v:shadowType="1"
						transform="matrix(1,0,0,1,0.3456,1.9728)" class="st1">
					<path d="M3.66 40.64 L0 42.06 L0 36.17 L3.66 37.45 L3.66 40.64 Z" class="st2"/>
				</g>
				<path d="M3.66 40.64 L0 42.06 L0 36.17 L3.66 37.45 L3.66 40.64 Z" class="st3"/>
			</g>
			<g id="shape391-7" v:mID="391" v:groupContext="shape" transform="translate(3.94436,-11.6905)">
				<title>Sheet.391</title>
				<g id="shadow391-8" v:groupContext="shadow" v:shadowOffsetX="0.3456" v:shadowOffsetY="-1.9728" v:shadowType="1"
						transform="matrix(1,0,0,1,0.3456,1.9728)" class="st1">
					<path d="M0 37.17 L0 41.02 L2.71 42.06 L2.71 36.22 L0 37.17 ZM0.29 40.73 L0.14 40.69 L0.14 37.5 L0.29 37.45 L0.43
								 37.41 L0.57 37.36 L0.57 40.83 L0.43 40.78 L0.29 40.73 ZM1 40.92 L0.81 40.88 L0.81 37.31 L1 37.26
								 L1.19 37.22 L1.38 37.17 L1.38 41.07 L1.19 41.02 L1 40.92 ZM1.85 41.21 L1.62 41.11 L1.62 37.07 L1.85
								 37.03 L2.09 36.93 L2.38 36.84 L2.38 41.35 L2.09 41.26 L1.85 41.21 Z" class="st2"/>
				</g>
				<path d="M0 37.17 L0 41.02 L2.71 42.06 L2.71 36.22 L0 37.17 ZM0.29 40.73 L0.14 40.69 L0.14 37.5 L0.29 37.45 L0.43
							 37.41 L0.57 37.36 L0.57 40.83 L0.43 40.78 L0.29 40.73 ZM1 40.92 L0.81 40.88 L0.81 37.31 L1 37.26 L1.19
							 37.22 L1.38 37.17 L1.38 41.07 L1.19 41.02 L1 40.92 ZM1.85 41.21 L1.62 41.11 L1.62 37.07 L1.85 37.03
							 L2.09 36.93 L2.38 36.84 L2.38 41.35 L2.09 41.26 L1.85 41.21 Z" class="st3"/>
			</g>
			<g id="shape392-12" v:mID="392" v:groupContext="shape" transform="translate(15.7299,-11.6905)">
				<title>Sheet.392</title>
				<g id="shadow392-13" v:groupContext="shadow" v:shadowOffsetX="0.3456" v:shadowOffsetY="-1.9728" v:shadowType="1"
						transform="matrix(1,0,0,1,0.3456,1.9728)" class="st1">
					<path d="M3.66 40.64 L0 42.06 L0 36.17 L3.66 37.45 L3.66 40.64 Z" class="st2"/>
				</g>
				<path d="M3.66 40.64 L0 42.06 L0 36.17 L3.66 37.45 L3.66 40.64 Z" class="st3"/>
			</g>
			<g id="shape393-17" v:mID="393" v:groupContext="shape" transform="translate(12.4509,-11.6905)">
				<title>Sheet.393</title>
				<g id="shadow393-18" v:groupContext="shadow" v:shadowOffsetX="0.3456" v:shadowOffsetY="-1.9728" v:shadowType="1"
						transform="matrix(1,0,0,1,0.3456,1.9728)" class="st1">
					<path d="M0 37.17 L0 41.02 L2.71 42.06 L2.71 36.22 L0 37.17 ZM0.29 40.73 L0.14 40.69 L0.14 37.5 L0.29 37.45 L0.43
								 37.41 L0.57 37.36 L0.57 40.83 L0.43 40.78 L0.29 40.73 ZM1 40.92 L0.81 40.88 L0.81 37.31 L1 37.26
								 L1.19 37.22 L1.38 37.17 L1.38 41.07 L1.19 41.02 L1 40.92 ZM1.85 41.21 L1.62 41.11 L1.62 37.07 L1.85
								 37.03 L2.09 36.93 L2.38 36.84 L2.38 41.35 L2.09 41.26 L1.85 41.21 Z" class="st2"/>
				</g>
				<path d="M0 37.17 L0 41.02 L2.71 42.06 L2.71 36.22 L0 37.17 ZM0.29 40.73 L0.14 40.69 L0.14 37.5 L0.29 37.45 L0.43
							 37.41 L0.57 37.36 L0.57 40.83 L0.43 40.78 L0.29 40.73 ZM1 40.92 L0.81 40.88 L0.81 37.31 L1 37.26 L1.19
							 37.22 L1.38 37.17 L1.38 41.07 L1.19 41.02 L1 40.92 ZM1.85 41.21 L1.62 41.11 L1.62 37.07 L1.85 37.03
							 L2.09 36.93 L2.38 36.84 L2.38 41.35 L2.09 41.26 L1.85 41.21 Z" class="st3"/>
			</g>
			<g id="shape394-22" v:mID="394" v:groupContext="shape" transform="translate(7.2234,-8.52651E-14)">
				<title>Sheet.394</title>
				<g id="shadow394-23" v:groupContext="shadow" v:shadowOffsetX="0.3456" v:shadowOffsetY="-1.9728" v:shadowType="1"
						transform="matrix(1,0,0,1,0.3456,1.9728)" class="st1">
					<path d="M3.66 40.64 L0 42.06 L0 36.17 L3.66 37.45 L3.66 40.64 Z" class="st2"/>
				</g>
				<path d="M3.66 40.64 L0 42.06 L0 36.17 L3.66 37.45 L3.66 40.64 Z" class="st3"/>
			</g>
			<g id="shape395-27" v:mID="395" v:groupContext="shape" transform="translate(3.94436,-8.52651E-14)">
				<title>Sheet.395</title>
				<g id="shadow395-28" v:groupContext="shadow" v:shadowOffsetX="0.3456" v:shadowOffsetY="-1.9728" v:shadowType="1"
						transform="matrix(1,0,0,1,0.3456,1.9728)" class="st1">
					<path d="M0 37.17 L0 41.02 L2.71 42.06 L2.71 36.22 L0 37.17 ZM0.29 40.73 L0.14 40.69 L0.14 37.5 L0.29 37.45 L0.43
								 37.41 L0.57 37.36 L0.57 40.83 L0.43 40.78 L0.29 40.73 ZM1 40.92 L0.81 40.88 L0.81 37.31 L1 37.26
								 L1.19 37.22 L1.38 37.17 L1.38 41.07 L1.19 41.02 L1 40.92 ZM1.85 41.21 L1.62 41.11 L1.62 37.07 L1.85
								 37.03 L2.09 36.93 L2.38 36.84 L2.38 41.35 L2.09 41.26 L1.85 41.21 Z" class="st2"/>
				</g>
				<path d="M0 37.17 L0 41.02 L2.71 42.06 L2.71 36.22 L0 37.17 ZM0.29 40.73 L0.14 40.69 L0.14 37.5 L0.29 37.45 L0.43
							 37.41 L0.57 37.36 L0.57 40.83 L0.43 40.78 L0.29 40.73 ZM1 40.92 L0.81 40.88 L0.81 37.31 L1 37.26 L1.19
							 37.22 L1.38 37.17 L1.38 41.07 L1.19 41.02 L1 40.92 ZM1.85 41.21 L1.62 41.11 L1.62 37.07 L1.85 37.03
							 L2.09 36.93 L2.38 36.84 L2.38 41.35 L2.09 41.26 L1.85 41.21 Z" class="st3"/>
			</g>
			<g id="shape396-32" v:mID="396" v:groupContext="shape" transform="translate(15.7299,-8.52651E-14)">
				<title>Sheet.396</title>
				<g id="shadow396-33" v:groupContext="shadow" v:shadowOffsetX="0.3456" v:shadowOffsetY="-1.9728" v:shadowType="1"
						transform="matrix(1,0,0,1,0.3456,1.9728)" class="st1">
					<path d="M3.66 40.64 L0 42.06 L0 36.17 L3.66 37.45 L3.66 40.64 Z" class="st2"/>
				</g>
				<path d="M3.66 40.64 L0 42.06 L0 36.17 L3.66 37.45 L3.66 40.64 Z" class="st3"/>
			</g>
			<g id="shape397-37" v:mID="397" v:groupContext="shape" transform="translate(12.4509,-8.52651E-14)">
				<title>Sheet.397</title>
				<g id="shadow397-38" v:groupContext="shadow" v:shadowOffsetX="0.3456" v:shadowOffsetY="-1.9728" v:shadowType="1"
						transform="matrix(1,0,0,1,0.3456,1.9728)" class="st1">
					<path d="M0 37.17 L0 41.02 L2.71 42.06 L2.71 36.22 L0 37.17 ZM0.29 40.73 L0.14 40.69 L0.14 37.5 L0.29 37.45 L0.43
								 37.41 L0.57 37.36 L0.57 40.83 L0.43 40.78 L0.29 40.73 ZM1 40.92 L0.81 40.88 L0.81 37.31 L1 37.26
								 L1.19 37.22 L1.38 37.17 L1.38 41.07 L1.19 41.02 L1 40.92 ZM1.85 41.21 L1.62 41.11 L1.62 37.07 L1.85
								 37.03 L2.09 36.93 L2.38 36.84 L2.38 41.35 L2.09 41.26 L1.85 41.21 Z" class="st2"/>
				</g>
				<path d="M0 37.17 L0 41.02 L2.71 42.06 L2.71 36.22 L0 37.17 ZM0.29 40.73 L0.14 40.69 L0.14 37.5 L0.29 37.45 L0.43
							 37.41 L0.57 37.36 L0.57 40.83 L0.43 40.78 L0.29 40.73 ZM1 40.92 L0.81 40.88 L0.81 37.31 L1 37.26 L1.19
							 37.22 L1.38 37.17 L1.38 41.07 L1.19 41.02 L1 40.92 ZM1.85 41.21 L1.62 41.11 L1.62 37.07 L1.85 37.03
							 L2.09 36.93 L2.38 36.84 L2.38 41.35 L2.09 41.26 L1.85 41.21 Z" class="st3"/>
			</g>
			<g id="shape398-42" v:mID="398" v:groupContext="shape" transform="translate(11.7855,-5.89277)">
				<title>Sheet.398</title>
				<g id="shadow398-43" v:groupContext="shadow" v:shadowOffsetX="0.3456" v:shadowOffsetY="-1.9728" v:shadowType="1"
						transform="matrix(1,0,0,1,0.3456,1.9728)" class="st1">
					<path d="M3.61 40.69 L0 42.06 L0 36.22 L3.61 37.5 L3.61 40.69 Z" class="st2"/>
				</g>
				<path d="M3.61 40.69 L0 42.06 L0 36.22 L3.61 37.5 L3.61 40.69 Z" class="st3"/>
			</g>
			<g id="shape399-47" v:mID="399" v:groupContext="shape" transform="translate(8.45898,-5.89277)">
				<title>Sheet.399</title>
				<g id="shadow399-48" v:groupContext="shadow" v:shadowOffsetX="0.3456" v:shadowOffsetY="-1.9728" v:shadowType="1"
						transform="matrix(1,0,0,1,0.3456,1.9728)" class="st1">
					<path d="M0 37.17 L0 41.02 L2.71 42.06 L2.71 36.22 L0 37.17 ZM0.29 40.73 L0.14 40.69 L0.14 37.5 L0.29 37.45 L0.43
								 37.41 L0.57 37.36 L0.57 40.83 L0.43 40.78 L0.29 40.73 ZM1 40.97 L0.81 40.92 L0.81 37.36 L1 37.31
								 L1.19 37.26 L1.38 37.22 L1.38 41.11 L1.19 41.07 L1 40.97 ZM1.85 41.26 L1.62 41.16 L1.62 37.12 L1.85
								 37.07 L2.09 36.98 L2.38 36.88 L2.38 41.4 L2.09 41.3 L1.85 41.26 Z" class="st2"/>
				</g>
				<path d="M0 37.17 L0 41.02 L2.71 42.06 L2.71 36.22 L0 37.17 ZM0.29 40.73 L0.14 40.69 L0.14 37.5 L0.29 37.45 L0.43
							 37.41 L0.57 37.36 L0.57 40.83 L0.43 40.78 L0.29 40.73 ZM1 40.97 L0.81 40.92 L0.81 37.36 L1 37.31 L1.19
							 37.26 L1.38 37.22 L1.38 41.11 L1.19 41.07 L1 40.97 ZM1.85 41.26 L1.62 41.16 L1.62 37.12 L1.85 37.07
							 L2.09 36.98 L2.38 36.88 L2.38 41.4 L2.09 41.3 L1.85 41.26 Z" class="st3"/>
			</g>
			<g id="shape400-52" v:mID="400" v:groupContext="shape" transform="translate(3.32657,-5.89277)">
				<title>Sheet.400</title>
				<g id="shadow400-53" v:groupContext="shadow" v:shadowOffsetX="0.3456" v:shadowOffsetY="-1.9728" v:shadowType="1"
						transform="matrix(1,0,0,1,0.3456,1.9728)" class="st1">
					<path d="M3.61 40.69 L0 42.06 L0 36.22 L3.61 37.5 L3.61 40.69 Z" class="st2"/>
				</g>
				<path d="M3.61 40.69 L0 42.06 L0 36.22 L3.61 37.5 L3.61 40.69 Z" class="st3"/>
			</g>
			<g id="shape401-57" v:mID="401" v:groupContext="shape" transform="translate(0,-5.89277)">
				<title>Sheet.401</title>
				<g id="shadow401-58" v:groupContext="shadow" v:shadowOffsetX="0.3456" v:shadowOffsetY="-1.9728" v:shadowType="1"
						transform="matrix(1,0,0,1,0.3456,1.9728)" class="st1">
					<path d="M0 37.17 L0 41.02 L2.71 42.06 L2.71 36.22 L0 37.17 ZM0.29 40.73 L0.14 40.69 L0.14 37.5 L0.29 37.45 L0.43
								 37.41 L0.57 37.36 L0.57 40.83 L0.43 40.78 L0.29 40.73 ZM1 40.97 L0.81 40.92 L0.81 37.36 L1 37.31
								 L1.19 37.26 L1.38 37.22 L1.38 41.11 L1.19 41.07 L1 40.97 ZM1.85 41.26 L1.62 41.16 L1.62 37.12 L1.85
								 37.07 L2.09 36.98 L2.38 36.88 L2.38 41.4 L2.09 41.3 L1.85 41.26 Z" class="st2"/>
				</g>
				<path d="M0 37.17 L0 41.02 L2.71 42.06 L2.71 36.22 L0 37.17 ZM0.29 40.73 L0.14 40.69 L0.14 37.5 L0.29 37.45 L0.43
							 37.41 L0.57 37.36 L0.57 40.83 L0.43 40.78 L0.29 40.73 ZM1 40.97 L0.81 40.92 L0.81 37.36 L1 37.31 L1.19
							 37.26 L1.38 37.22 L1.38 41.11 L1.19 41.07 L1 40.97 ZM1.85 41.26 L1.62 41.16 L1.62 37.12 L1.85 37.07
							 L2.09 36.98 L2.38 36.88 L2.38 41.4 L2.09 41.3 L1.85 41.26 Z" class="st3"/>
			</g>
			<g id="shape402-62" v:mID="402" v:groupContext="shape" transform="translate(20.1495,-5.89277)">
				<title>Sheet.402</title>
				<g id="shadow402-63" v:groupContext="shadow" v:shadowOffsetX="0.3456" v:shadowOffsetY="-1.9728" v:shadowType="1"
						transform="matrix(1,0,0,1,0.3456,1.9728)" class="st1">
					<path d="M3.61 40.69 L0 42.06 L0 36.22 L3.61 37.5 L3.61 40.69 Z" class="st2"/>
				</g>
				<path d="M3.61 40.69 L0 42.06 L0 36.22 L3.61 37.5 L3.61 40.69 Z" class="st3"/>
			</g>
			<g id="shape403-67" v:mID="403" v:groupContext="shape" transform="translate(7.2234,-11.6905)">
				<title>Sheet.403</title>
				<g id="shadow403-68" v:groupContext="shadow" v:shadowOffsetX="0.3456" v:shadowOffsetY="-1.9728" v:shadowType="1"
						transform="matrix(1,0,0,1,0.3456,1.9728)" class="st1">
					<path d="M3.66 40.64 L0 42.06 L0 36.17 L3.66 37.45 L3.66 40.64 Z" class="st2"/>
				</g>
				<path d="M3.66 40.64 L0 42.06 L0 36.17 L3.66 37.45 L3.66 40.64 Z" class="st4"/>
			</g>
			<g id="shape404-72" v:mID="404" v:groupContext="shape" transform="translate(15.7299,-11.6905)">
				<title>Sheet.404</title>
				<g id="shadow404-73" v:groupContext="shadow" v:shadowOffsetX="0.3456" v:shadowOffsetY="-1.9728" v:shadowType="1"
						transform="matrix(1,0,0,1,0.3456,1.9728)" class="st1">
					<path d="M3.66 40.64 L0 42.06 L0 36.17 L3.66 37.45 L3.66 40.64 Z" class="st2"/>
				</g>
				<path d="M3.66 40.64 L0 42.06 L0 36.17 L3.66 37.45 L3.66 40.64 Z" class="st4"/>
			</g>
			<g id="shape405-77" v:mID="405" v:groupContext="shape" transform="translate(7.2234,-8.52651E-14)">
				<title>Sheet.405</title>
				<g id="shadow405-78" v:groupContext="shadow" v:shadowOffsetX="0.3456" v:shadowOffsetY="-1.9728" v:shadowType="1"
						transform="matrix(1,0,0,1,0.3456,1.9728)" class="st1">
					<path d="M3.66 40.64 L0 42.06 L0 36.17 L3.66 37.45 L3.66 40.64 Z" class="st2"/>
				</g>
				<path d="M3.66 40.64 L0 42.06 L0 36.17 L3.66 37.45 L3.66 40.64 Z" class="st4"/>
			</g>
			<g id="shape406-82" v:mID="406" v:groupContext="shape" transform="translate(15.7299,-8.52651E-14)">
				<title>Sheet.406</title>
				<g id="shadow406-83" v:groupContext="shadow" v:shadowOffsetX="0.3456" v:shadowOffsetY="-1.9728" v:shadowType="1"
						transform="matrix(1,0,0,1,0.3456,1.9728)" class="st1">
					<path d="M3.66 40.64 L0 42.06 L0 36.17 L3.66 37.45 L3.66 40.64 Z" class="st2"/>
				</g>
				<path d="M3.66 40.64 L0 42.06 L0 36.17 L3.66 37.45 L3.66 40.64 Z" class="st4"/>
			</g>
			<g id="shape407-87" v:mID="407" v:groupContext="shape" transform="translate(11.7855,-5.89277)">
				<title>Sheet.407</title>
				<g id="shadow407-88" v:groupContext="shadow" v:shadowOffsetX="0.3456" v:shadowOffsetY="-1.9728" v:shadowType="1"
						transform="matrix(1,0,0,1,0.3456,1.9728)" class="st1">
					<path d="M3.61 40.69 L0 42.06 L0 36.22 L3.61 37.5 L3.61 40.69 Z" class="st2"/>
				</g>
				<path d="M3.61 40.69 L0 42.06 L0 36.22 L3.61 37.5 L3.61 40.69 Z" class="st4"/>
			</g>
			<g id="shape408-92" v:mID="408" v:groupContext="shape" transform="translate(3.32657,-5.89277)">
				<title>Sheet.408</title>
				<g id="shadow408-93" v:groupContext="shadow" v:shadowOffsetX="0.3456" v:shadowOffsetY="-1.9728" v:shadowType="1"
						transform="matrix(1,0,0,1,0.3456,1.9728)" class="st1">
					<path d="M3.61 40.69 L0 42.06 L0 36.22 L3.61 37.5 L3.61 40.69 Z" class="st2"/>
				</g>
				<path d="M3.61 40.69 L0 42.06 L0 36.22 L3.61 37.5 L3.61 40.69 Z" class="st4"/>
			</g>
			<g id="shape409-97" v:mID="409" v:groupContext="shape" transform="translate(20.1495,-5.89277)">
				<title>Sheet.409</title>
				<g id="shadow409-98" v:groupContext="shadow" v:shadowOffsetX="0.3456" v:shadowOffsetY="-1.9728" v:shadowType="1"
						transform="matrix(1,0,0,1,0.3456,1.9728)" class="st1">
					<path d="M3.61 40.69 L0 42.06 L0 36.22 L3.61 37.5 L3.61 40.69 Z" class="st2"/>
				</g>
				<path d="M3.61 40.69 L0 42.06 L0 36.22 L3.61 37.5 L3.61 40.69 Z" class="st4"/>
			</g>
			<g id="shape410-102" v:mID="410" v:groupContext="shape" transform="translate(16.8229,-5.89277)">
				<title>Sheet.410</title>
				<g id="shadow410-103" v:groupContext="shadow" v:shadowOffsetX="0.3456" v:shadowOffsetY="-1.9728" v:shadowType="1"
						transform="matrix(1,0,0,1,0.3456,1.9728)" class="st1">
					<path d="M0 37.17 L0 41.02 L2.71 42.06 L2.71 36.22 L0 37.17 ZM0.29 40.73 L0.14 40.69 L0.14 37.5 L0.29 37.45 L0.43
								 37.41 L0.57 37.36 L0.57 40.83 L0.43 40.78 L0.29 40.73 ZM1 40.97 L0.81 40.92 L0.81 37.36 L1 37.31
								 L1.19 37.26 L1.38 37.22 L1.38 41.11 L1.19 41.07 L1 40.97 ZM1.85 41.26 L1.62 41.16 L1.62 37.12 L1.85
								 37.07 L2.09 36.98 L2.38 36.88 L2.38 41.4 L2.09 41.3 L1.85 41.26 Z" class="st2"/>
				</g>
				<path d="M0 37.17 L0 41.02 L2.71 42.06 L2.71 36.22 L0 37.17 ZM0.29 40.73 L0.14 40.69 L0.14 37.5 L0.29 37.45 L0.43
							 37.41 L0.57 37.36 L0.57 40.83 L0.43 40.78 L0.29 40.73 ZM1 40.97 L0.81 40.92 L0.81 37.36 L1 37.31 L1.19
							 37.26 L1.38 37.22 L1.38 41.11 L1.19 41.07 L1 40.97 ZM1.85 41.26 L1.62 41.16 L1.62 37.12 L1.85 37.07
							 L2.09 36.98 L2.38 36.88 L2.38 41.4 L2.09 41.3 L1.85 41.26 Z" class="st3"/>
			</g>
		</g>
	</g>
</svg>
