<?xml version="1.0" encoding="UTF-8" standalone="no"?>
<!DOCTYPE svg PUBLIC "-//W3C//DTD SVG 1.1//EN" "http://www.w3.org/Graphics/SVG/1.1/DTD/svg11.dtd">
<!-- Generated by Microsoft Visio, SVG Export EncryptionOnVm.svg Page-1 -->
<svg xmlns="http://www.w3.org/2000/svg" xmlns:xlink="http://www.w3.org/1999/xlink" xmlns:ev="http://www.w3.org/2001/xml-events"
		xmlns:v="http://schemas.microsoft.com/visio/2003/SVGExtensions/" width="0.885417in" height="0.861111in"
		viewBox="0 0 63.75 62" xml:space="preserve" color-interpolation-filters="sRGB" class="st12">
	<v:documentProperties v:langID="1033" v:viewMarkup="false"/>

	<style type="text/css">
	<![CDATA[
		.st1 {fill:#ffffff;stroke:none;stroke-linecap:round;stroke-linejoin:round;stroke-width:0.75}
		.st2 {visibility:visible}
		.st3 {fill:#5b9bd5;fill-opacity:0.22;filter:url(#filter_2);stroke:none}
		.st4 {fill:#7a7a7a;stroke:none;stroke-width:12.24}
		.st5 {fill:#a0a1a2;stroke:none;stroke-width:12.24}
		.st6 {fill:#ffffff;fill-opacity:0.2;stroke:none;stroke-width:12.24}
		.st7 {fill:#f2f2f2;stroke:none;stroke-width:12.24}
		.st8 {fill:#59b4d9;stroke:none;stroke-width:12.24}
		.st9 {fill:#b8d432;stroke:none;stroke-width:12.24}
		.st10 {fill:#7fba00;stroke:none;stroke-width:12.24}
		.st11 {fill:#fcd116;stroke:none;stroke-width:12.24}
		.st12 {fill:none;fill-rule:evenodd;font-size:12px;overflow:visible;stroke-linecap:square;stroke-miterlimit:3}
	]]>
	</style>

	<defs id="Filters">
		<filter id="filter_2">
			<feGaussianBlur stdDeviation="2"/>
		</filter>
	</defs>
	<g v:mID="0" v:index="1" v:groupContext="foregroundPage">
		<title>Page-1</title>
		<v:pageProperties v:drawingScale="1" v:pageScale="1" v:drawingUnits="19" v:shadowOffsetX="9" v:shadowOffsetY="-9"/>
		<g id="shape372-1" v:mID="372" v:groupContext="shape" transform="translate(0.375,-0.375)">
			<title>Sheet.372</title>
			<rect x="0" y="0.749998" width="63" height="61.25" class="st1"/>
		</g>
		<g id="group346-3" transform="translate(16.0435,-12.8725)" v:mID="346" v:groupContext="group">
			<title>Azure Portal - Virtual Machines.346</title>
			<g id="shape347-4" v:mID="347" v:groupContext="shape" transform="translate(5.48077,0)">
				<title>Sheet.347</title>
				<g id="shadow347-5" v:groupContext="shadow" v:shadowOffsetX="0.3456" v:shadowOffsetY="-1.9728" v:shadowType="1"
						transform="matrix(1,0,0,1,0.3456,1.9728)" class="st2">
					<path d="M15.05 55.91 L14.3 55.91 L6.83 55.91 L6.44 55.91 C7.48 59.56 6.09 60.09 0 60.09 L0 62 L7.74 62 L13.4
								 62 L20.7 62 L20.7 60.09 C14.61 60.09 14.02 59.57 15.05 55.91 Z" class="st3"/>
				</g>
				<path d="M15.05 55.91 L14.3 55.91 L6.83 55.91 L6.44 55.91 C7.48 59.56 6.09 60.09 0 60.09 L0 62 L7.74 62 L13.4 62
							 L20.7 62 L20.7 60.09 C14.61 60.09 14.02 59.57 15.05 55.91 Z" class="st4"/>
			</g>
			<g id="shape348-9" v:mID="348" v:groupContext="shape" transform="translate(0.000633249,-6.08742)">
				<title>Sheet.348</title>
				<g id="shadow348-10" v:groupContext="shadow" v:shadowOffsetX="0.3456" v:shadowOffsetY="-1.9728" v:shadowType="1"
						transform="matrix(1,0,0,1,0.3456,1.9728)" class="st2">
					<path d="M29.75 38.86 L1.72 38.86 C0.77 38.86 0 39.72 0 40.67 L0 60.21 C0 61.16 0.77 62 1.72 62 L29.75 62 C30.7
								 62 31.66 61.16 31.66 60.21 L31.66 40.67 C31.66 39.71 30.7 38.86 29.75 38.86 Z" class="st3"/>
				</g>
				<path d="M29.75 38.86 L1.72 38.86 C0.77 38.86 0 39.72 0 40.67 L0 60.21 C0 61.16 0.77 62 1.72 62 L29.75 62 C30.7 62
							 31.66 61.16 31.66 60.21 L31.66 40.67 C31.66 39.71 30.7 38.86 29.75 38.86 Z" class="st5"/>
			</g>
			<g id="shape349-14" v:mID="349" v:groupContext="shape" transform="translate(0,-6.08679)">
				<title>Sheet.349</title>
				<g id="shadow349-15" v:groupContext="shadow" v:shadowOffsetX="0.3456" v:shadowOffsetY="-1.9728" v:shadowType="1"
						transform="matrix(1,0,0,1,0.3456,1.9728)" class="st2">
					<path d="M29.77 38.86 C29.76 38.86 29.76 38.86 29.75 38.86 L1.72 38.86 C0.77 38.86 0 39.71 0 40.67 L0 60.21 C0
								 61.16 0.77 62 1.72 62 L2.39 62 L29.77 38.86 Z" class="st3"/>
				</g>
				<path d="M29.77 38.86 C29.76 38.86 29.76 38.86 29.75 38.86 L1.72 38.86 C0.77 38.86 0 39.71 0 40.67 L0 60.21 C0 61.16
							 0.77 62 1.72 62 L2.39 62 L29.77 38.86 Z" class="st6"/>
			</g>
			<g id="shape350-19" v:mID="350" v:groupContext="shape" transform="translate(2.40001,-8.52353)">
				<title>Sheet.350</title>
				<g id="shadow350-20" v:groupContext="shadow" v:shadowOffsetX="0.3456" v:shadowOffsetY="-1.9728" v:shadowType="1"
						transform="matrix(1,0,0,1,0.3456,1.9728)" class="st2">
					<rect x="0" y="43.7365" width="26.7915" height="18.2635" class="st3"/>
				</g>
				<rect x="0" y="43.7365" width="26.7915" height="18.2635" class="st7"/>
			</g>
			<g id="shape351-24" v:mID="351" v:groupContext="shape" transform="translate(2.40001,-8.52353)">
				<title>Sheet.351</title>
				<g id="shadow351-25" v:groupContext="shadow" v:shadowOffsetX="0.3456" v:shadowOffsetY="-1.9728" v:shadowType="1"
						transform="matrix(1,0,0,1,0.3456,1.9728)" class="st2">
					<path d="M0 62 L0.04 62 L0.04 43.74 L24.53 43.7 L24.53 43.7 L0 43.74 L0 62 Z" class="st3"/>
				</g>
				<path d="M0 62 L0.04 62 L0.04 43.74 L24.53 43.7 L24.53 43.7 L0 43.74 L0 62 Z" class="st8"/>
			</g>
			<g id="shape352-29" v:mID="352" v:groupContext="shape" transform="translate(5.48077,-1.42109E-14)">
				<title>Sheet.352</title>
				<g id="shadow352-30" v:groupContext="shadow" v:shadowOffsetX="0.3456" v:shadowOffsetY="-1.9728" v:shadowType="1"
						transform="matrix(1,0,0,1,0.3456,1.9728)" class="st2">
					<rect x="0" y="60.087" width="20.7022" height="1.91305" class="st3"/>
				</g>
				<rect x="0" y="60.087" width="20.7022" height="1.91305" class="st5"/>
			</g>
			<g id="shape353-34" v:mID="353" v:groupContext="shape" transform="translate(15.2607,-27.4476)">
				<title>Sheet.353</title>
				<g id="shadow353-35" v:groupContext="shadow" v:shadowOffsetX="0.3456" v:shadowOffsetY="-1.9728" v:shadowType="1"
						transform="matrix(1,0,0,1,0.3456,1.9728)" class="st2">
					<path d="M0.9 61.55 C0.9 61.8 0.7 62 0.45 62 C0.2 62 0 61.8 0 61.55 C0 61.3 0.2 61.1 0.45 61.1 C0.7 61.1 0.9
								 61.3 0.9 61.55 Z" class="st3"/>
				</g>
				<path d="M0.9 61.55 C0.9 61.8 0.7 62 0.45 62 C0.2 62 0 61.8 0 61.55 C0 61.3 0.2 61.1 0.45 61.1 C0.7 61.1 0.9 61.3
							 0.9 61.55 Z" class="st9"/>
			</g>
		</g>
		<g id="group369-39" transform="translate(25.7661,-24.2731)" v:mID="369" v:groupContext="group">
			<title>Security Center / </title>
			<g id="shape370-40" v:mID="370" v:groupContext="shape">
				<title>Sheet.370</title>
				<g id="shadow370-41" v:groupContext="shadow" v:shadowOffsetX="0.3456" v:shadowOffsetY="-1.9728" v:shadowType="1"
						transform="matrix(1,0,0,1,0.3456,1.9728)" class="st2">
					<path d="M12.05 55.97 C12.05 54.01 11.11 52.29 9.69 51.18 C9.69 51.24 9.69 51.32 9.69 51.37 C9.69 51.96 9.53
								 52.53 9.28 53.01 C9.98 53.79 10.41 54.82 10.41 55.95 C10.41 58.37 8.45 60.33 6.03 60.33 C3.61 60.33
								 1.64 58.37 1.64 55.95 C1.64 54.73 2.13 53.66 2.91 52.85 C2.69 52.39 2.56 51.88 2.56 51.34 C2.56
								 51.24 2.56 51.1 2.58 50.99 C1.02 52.07 0 53.9 0 55.95 C0 59.31 2.69 62 6.03 62 C9.36 62 12.05 59.31
								 12.05 55.97 Z" class="st3"/>
				</g>
				<path d="M12.05 55.97 C12.05 54.01 11.11 52.29 9.69 51.18 C9.69 51.24 9.69 51.32 9.69 51.37 C9.69 51.96 9.53 52.53
							 9.28 53.01 C9.98 53.79 10.41 54.82 10.41 55.95 C10.41 58.37 8.45 60.33 6.03 60.33 C3.61 60.33 1.64 58.37
							 1.64 55.95 C1.64 54.73 2.13 53.66 2.91 52.85 C2.69 52.39 2.56 51.88 2.56 51.34 C2.56 51.24 2.56 51.1
							 2.58 50.99 C1.02 52.07 0 53.9 0 55.95 C0 59.31 2.69 62 6.03 62 C9.36 62 12.05 59.31 12.05 55.97 Z"
						class="st10"/>
			</g>
			<g id="shape371-45" v:mID="371" v:groupContext="shape" transform="translate(3.33656,-2.85222)">
				<title>Sheet.371</title>
				<g id="shadow371-46" v:groupContext="shadow" v:shadowOffsetX="0.3456" v:shadowOffsetY="-1.9728" v:shadowType="1"
						transform="matrix(1,0,0,1,0.3456,1.9728)" class="st2">
					<path d="M2.77 51.4 C1.24 51.4 0 52.64 0 54.17 C0 55.43 0.83 56.48 1.99 56.83 L1.99 59.58 L0.7 59.58 L0.7 60.98
								 L1.99 60.98 L1.99 62 L3.52 62 L3.52 56.81 C4.68 56.48 5.52 55.41 5.52 54.14 C5.54 52.64 4.31 51.4
								 2.77 51.4 ZM2.77 52.85 C3.5 52.85 4.09 53.44 4.09 54.17 C4.09 54.9 3.5 55.49 2.77 55.49 C2.04 55.49
								 1.45 54.9 1.45 54.17 C1.45 53.44 2.04 52.85 2.77 52.85 Z" class="st3"/>
				</g>
				<path d="M2.77 51.4 C1.24 51.4 0 52.64 0 54.17 C0 55.43 0.83 56.48 1.99 56.83 L1.99 59.58 L0.7 59.58 L0.7 60.98 L1.99
							 60.98 L1.99 62 L3.52 62 L3.52 56.81 C4.68 56.48 5.52 55.41 5.52 54.14 C5.54 52.64 4.31 51.4 2.77 51.4
							 ZM2.77 52.85 C3.5 52.85 4.09 53.44 4.09 54.17 C4.09 54.9 3.5 55.49 2.77 55.49 C2.04 55.49 1.45 54.9
							 1.45 54.17 C1.45 53.44 2.04 52.85 2.77 52.85 Z" class="st11"/>
			</g>
		</g>
	</g>
</svg>
