<?xml version="1.0" encoding="UTF-8" standalone="no"?>
<!DOCTYPE svg PUBLIC "-//W3C//DTD SVG 1.1//EN" "http://www.w3.org/Graphics/SVG/1.1/DTD/svg11.dtd">
<!-- Generated by Microsoft Visio, SVG Export GlobalVNETPeering.svg Page-1 -->
<svg xmlns="http://www.w3.org/2000/svg" xmlns:xlink="http://www.w3.org/1999/xlink" xmlns:ev="http://www.w3.org/2001/xml-events"
		xmlns:v="http://schemas.microsoft.com/visio/2003/SVGExtensions/" width="2.76042in" height="2.76042in"
		viewBox="0 0 198.75 198.75" xml:space="preserve" color-interpolation-filters="sRGB" class="st7">
	<v:documentProperties v:langID="1033" v:viewMarkup="false"/>

	<style type="text/css">
	<![CDATA[
		.st1 {fill:#ffffff;stroke:none;stroke-linecap:round;stroke-linejoin:round;stroke-width:0.75}
		.st2 {fill:#59b4d9;stroke:none;stroke-linecap:butt;stroke-width:0.75}
		.st3 {fill:#ffffff;fill-opacity:0.5;stroke:none;stroke-linecap:butt;stroke-width:0.75}
		.st4 {fill:#3999c6;stroke:none;stroke-linecap:round;stroke-linejoin:round;stroke-width:0.75}
		.st5 {fill:#7fba00;stroke:none;stroke-linecap:round;stroke-linejoin:round;stroke-width:0.75}
		.st6 {fill:#ffffff;stroke:none;stroke-linecap:butt;stroke-width:0.75}
		.st7 {fill:none;fill-rule:evenodd;font-size:12px;overflow:visible;stroke-linecap:square;stroke-miterlimit:3}
	]]>
	</style>

	<g v:mID="0" v:index="1" v:groupContext="foregroundPage">
		<title>Page-1</title>
		<v:pageProperties v:drawingScale="1" v:pageScale="1" v:drawingUnits="19" v:shadowOffsetX="9" v:shadowOffsetY="-9"/>
		<g id="group291-1" transform="translate(0.375,-0.375)" v:mID="291" v:groupContext="group">
			<title>Sheet.291</title>
			<g id="shape290-2" v:mID="290" v:groupContext="shape">
				<title>Sheet.290</title>
				<rect x="0" y="0.750006" width="198" height="198" class="st1"/>
			</g>
			<g id="group283-4" transform="translate(43.2312,-73.8911)" v:mID="283" v:groupContext="group">
				<title>Sheet.283</title>
				<g id="group266-5" v:mID="266" v:groupContext="group">
					<title>Sheet.266</title>
					<g id="group253-6" transform="translate(29.8471,0)" v:mID="253" v:groupContext="group">
						<title>Sheet.253</title>
						<g id="shape246-7" v:mID="246" v:groupContext="shape">
							<title>Sheet.246</title>
							<path d="M47.45 168.31 C50.36 180.63 42.89 192.94 30.57 195.84 C18.26 198.75 6.09 191.42 3.04 179.11
										 C0 166.79 7.61 154.48 19.92 151.58 C19.92 151.58 19.92 151.58 19.92 151.58 C32.1 148.53
										 44.41 156 47.45 168.31 C47.45 168.31 47.45 168.31 47.45 168.31 Z" class="st2"/>
						</g>
						<g id="shape247-9" v:mID="247" v:groupContext="shape" transform="translate(1.52175,-9.82222)">
							<title>Sheet.247</title>
							<path d="M20.47 192.66 C20.47 189.34 17.71 186.58 14.39 186.58 C14.39 186.58 14.39 186.58 14.39 186.58
										 L13.42 186.58 C14.25 183.39 12.17 180.07 8.99 179.24 C8.58 179.11 8.02 179.11 7.47 179.11
										 L1.38 179.11 C0 186.16 2.08 193.35 6.92 198.61 L14.53 198.61 C17.85 198.75 20.47 196.12
										 20.47 192.66 C20.47 192.66 20.47 192.66 20.47 192.66 Z" class="st3"/>
						</g>
						<g id="shape248-11" v:mID="248" v:groupContext="shape" transform="translate(20.7512,-27.1149)">
							<title>Sheet.248</title>
							<path d="M8.85 184.92 C8.85 185.33 8.85 185.61 8.99 186.02 L6.36 186.02 C2.91 186.02 0 188.79 0 192.39
										 C0 195.98 2.77 198.75 6.36 198.75 L27.25 198.75 C26.56 191 22.13 184.36 15.49 180.77 L13
										 180.77 C10.65 180.77 8.85 182.56 8.85 184.92 Z" class="st3"/>
						</g>
						<g id="shape249-13" v:mID="249" v:groupContext="shape" transform="translate(26.8382,-5.11862)">
							<title>Sheet.249</title>
							<path d="M21.17 181.18 L8.72 181.18 C5.95 181.18 3.6 183.39 3.6 186.3 C3.6 187.13 3.87 187.96 4.15 188.79
										 C1.38 189.62 0 192.52 0.83 195.15 C1.52 197.37 3.46 198.75 5.81 198.75 L9.13 198.75 C15.77
										 195.29 20.34 188.65 21.17 181.18 Z" class="st3"/>
						</g>
					</g>
					<g id="group232-15" transform="translate(3.59712E-14,-13.9534)" v:mID="232" v:groupContext="group">
						<title>Networking/VNET Integration.220</title>
						<g id="shape233-16" v:mID="233" v:groupContext="shape" transform="translate(29.0168,0)">
							<title>Sheet.233</title>
							<path d="M12.62 187.46 L10.16 185 L1.43 176.44 L0 177.73 L9.89 187.46 L0 197.45 L1.43 198.75 L10.16 190.19
										 L12.62 187.46 L12.62 187.46 Z" class="st4"/>
						</g>
						<g id="shape234-18" v:mID="234" v:groupContext="shape">
							<title>Sheet.234</title>
							<path d="M0 187.46 L2.47 185 L11.19 176.44 L12.62 177.73 L2.73 187.46 L12.62 197.45 L11.19 198.75 L2.47
										 190.19 L0 187.46 L0 187.46 Z" class="st4"/>
						</g>
						<g id="shape235-20" v:mID="235" v:groupContext="shape" transform="translate(10.6653,-8.80961)">
							<title>Sheet.235</title>
							<path d="M5.09 196.27 C5.09 197.7 3.92 198.75 2.6 198.75 C1.3 198.75 0 197.57 0 196.27 C0 194.98 1.05
										 193.81 2.6 193.81 C4.03 193.81 5.09 194.98 5.09 196.27 Z" class="st5"/>
						</g>
						<g id="shape236-22" v:mID="236" v:groupContext="shape" transform="translate(18.2199,-8.80961)">
							<title>Sheet.236</title>
							<path d="M5.07 196.27 C5.07 197.7 3.9 198.75 2.6 198.75 C1.3 198.75 -0 197.57 0 196.27 C-0 194.98 1.17
										 193.81 2.6 193.81 C4.03 193.81 5.07 194.98 5.07 196.27 Z" class="st5"/>
						</g>
						<g id="shape237-24" v:mID="237" v:groupContext="shape" transform="translate(26.0213,-8.80961)">
							<title>Sheet.237</title>
							<path d="M4.95 196.27 C4.95 194.91 3.83 193.81 2.47 193.81 C1.12 193.81 0 194.91 0 196.27 C-0 197.63
										 1.12 198.75 2.47 198.75 C3.83 198.75 4.95 197.63 4.95 196.27 Z" class="st5"/>
						</g>
					</g>
					<g id="group239-26" transform="translate(69.8969,-13.9534)" v:mID="239" v:groupContext="group">
						<title>Sheet.239</title>
						<g id="shape240-27" v:mID="240" v:groupContext="shape" transform="translate(29.0168,-2.84217E-14)">
							<title>Sheet.240</title>
							<path d="M12.62 187.46 L10.16 185 L1.43 176.44 L0 177.73 L9.89 187.46 L0 197.45 L1.43 198.75 L10.16 190.19
										 L12.62 187.46 L12.62 187.46 Z" class="st4"/>
						</g>
						<g id="shape241-29" v:mID="241" v:groupContext="shape">
							<title>Sheet.241</title>
							<path d="M0 187.46 L2.47 185 L11.19 176.44 L12.62 177.73 L2.73 187.46 L12.62 197.45 L11.19 198.75 L2.47
										 190.19 L0 187.46 L0 187.46 Z" class="st4"/>
						</g>
						<g id="shape242-31" v:mID="242" v:groupContext="shape" transform="translate(10.6653,-8.80961)">
							<title>Sheet.242</title>
							<path d="M5.09 196.27 C5.09 197.7 3.92 198.75 2.6 198.75 C1.3 198.75 -0 197.57 0 196.27 C-0 194.98 1.05
										 193.81 2.6 193.81 C4.03 193.81 5.09 194.98 5.09 196.27 Z" class="st5"/>
						</g>
						<g id="shape243-33" v:mID="243" v:groupContext="shape" transform="translate(18.2199,-8.80961)">
							<title>Sheet.243</title>
							<path d="M5.07 196.27 C5.07 197.7 3.9 198.75 2.6 198.75 C1.3 198.75 0 197.57 0 196.27 C0 194.98 1.17
										 193.81 2.6 193.81 C4.03 193.81 5.07 194.98 5.07 196.27 Z" class="st5"/>
						</g>
						<g id="shape244-35" v:mID="244" v:groupContext="shape" transform="translate(26.0213,-8.80961)">
							<title>Sheet.244</title>
							<path d="M4.95 196.27 C4.95 194.91 3.83 193.81 2.47 193.81 C1.12 193.81 0 194.91 0 196.27 C-0 197.63
										 1.12 198.75 2.47 198.75 C3.83 198.75 4.95 197.63 4.95 196.27 Z" class="st5"/>
						</g>
					</g>
				</g>
				<g id="group282-37" transform="translate(45.7825,-22.2302)" v:mID="282" v:groupContext="group">
					<title>Sheet.282</title>
					<g id="group280-38" transform="translate(2.42256,0)" v:mID="280" v:groupContext="group">
						<title>Sheet.280</title>
						<g id="shape271-39" v:mID="271" v:groupContext="shape" transform="translate(1.73022,-1.69243)">
							<title>Sheet.271</title>
							<rect x="0" y="196.493" width="12.7874" height="2.25657" class="st6"/>
						</g>
						<g id="shape276-41" v:mID="276" v:groupContext="shape" transform="translate(13.483,-2.84217E-14)">
							<title>Sheet.276</title>
							<path d="M0 198.75 L0 193.11 L4.51 195.93 L0 198.75 Z" class="st6"/>
						</g>
					</g>
					<g id="shape281-43" v:mID="281" v:groupContext="shape" transform="translate(4.49903,391.859) rotate(180)">
						<title>Sheet.281</title>
						<path d="M0 198.75 L0 193.11 L4.5 195.93 L0 198.75 Z" class="st6"/>
					</g>
				</g>
			</g>
		</g>
	</g>
</svg>
