<?xml version="1.0" encoding="UTF-8" standalone="no"?>
<!DOCTYPE svg PUBLIC "-//W3C//DTD SVG 1.1//EN" "http://www.w3.org/Graphics/SVG/1.1/DTD/svg11.dtd">
<!-- Generated by Microsoft Visio, SVG Export VNETPeering.svg Page-1 -->
<svg xmlns="http://www.w3.org/2000/svg" xmlns:xlink="http://www.w3.org/1999/xlink" xmlns:ev="http://www.w3.org/2001/xml-events"
		xmlns:v="http://schemas.microsoft.com/visio/2003/SVGExtensions/" width="2.76042in" height="2.76042in"
		viewBox="0 0 198.75 198.75" xml:space="preserve" color-interpolation-filters="sRGB" class="st5">
	<v:documentProperties v:langID="1033" v:viewMarkup="false"/>

	<style type="text/css">
	<![CDATA[
		.st1 {fill:#ffffff;stroke:none;stroke-linecap:round;stroke-linejoin:round;stroke-width:0.75}
		.st2 {fill:#3999c6;stroke:none;stroke-linecap:round;stroke-linejoin:round;stroke-width:0.75}
		.st3 {fill:#7fba00;stroke:none;stroke-linecap:round;stroke-linejoin:round;stroke-width:0.75}
		.st4 {fill:#3999c6;stroke:none;stroke-linecap:butt;stroke-width:0.75}
		.st5 {fill:none;fill-rule:evenodd;font-size:12px;overflow:visible;stroke-linecap:square;stroke-miterlimit:3}
	]]>
	</style>

	<g v:mID="0" v:index="1" v:groupContext="foregroundPage">
		<title>Page-1</title>
		<v:pageProperties v:drawingScale="1" v:pageScale="1" v:drawingUnits="19" v:shadowOffsetX="9" v:shadowOffsetY="-9"/>
		<g id="group318-1" transform="translate(0.375,-0.375)" v:mID="318" v:groupContext="group">
			<title>Sheet.318</title>
			<g id="shape293-2" v:mID="293" v:groupContext="shape">
				<title>Sheet.293</title>
				<rect x="0" y="0.750006" width="198" height="198" class="st1"/>
			</g>
			<g id="group289-4" transform="translate(45,-83.2482)" v:mID="289" v:groupContext="group">
				<title>Sheet.289</title>
				<g id="group220-5" v:mID="220" v:groupContext="group">
					<title>Networking/VNET Integration.220</title>
					<g id="shape221-6" v:mID="221" v:groupContext="shape" transform="translate(29.6627,2.84217E-14)">
						<title>Sheet.221</title>
						<path d="M12.9 187.37 L10.38 184.88 L1.46 176.25 L0 177.55 L10.11 187.37 L0 197.44 L1.46 198.75 L10.38 190.11
									 L12.9 187.37 L12.9 187.37 Z" class="st2"/>
					</g>
					<g id="shape222-8" v:mID="222" v:groupContext="shape">
						<title>Sheet.222</title>
						<path d="M0 187.37 L2.52 184.88 L11.44 176.25 L12.9 177.55 L2.79 187.37 L12.9 197.44 L11.44 198.75 L2.52
									 190.11 L0 187.37 L0 187.37 Z" class="st2"/>
					</g>
					<g id="shape223-10" v:mID="223" v:groupContext="shape" transform="translate(10.9027,-8.88563)">
						<title>Sheet.223</title>
						<path d="M5.2 196.25 C5.2 197.69 4 198.75 2.66 198.75 C1.33 198.75 -0 197.56 0 196.25 C-0 194.94 1.08 193.77
									 2.66 193.77 C4.12 193.77 5.2 194.94 5.2 196.25 Z" class="st3"/>
					</g>
					<g id="shape224-12" v:mID="224" v:groupContext="shape" transform="translate(18.6254,-8.88563)">
						<title>Sheet.224</title>
						<path d="M5.18 196.25 C5.18 197.69 3.99 198.75 2.66 198.75 C1.33 198.75 0 197.56 0 196.25 C0 194.94 1.19
									 193.77 2.66 193.77 C4.12 193.77 5.18 194.94 5.18 196.25 Z" class="st3"/>
					</g>
					<g id="shape225-14" v:mID="225" v:groupContext="shape" transform="translate(26.6005,-8.88563)">
						<title>Sheet.225</title>
						<path d="M5.06 196.25 C5.06 194.88 3.92 193.77 2.52 193.77 C1.14 193.77 -0 194.88 0 196.25 C-0 197.62 1.14
									 198.75 2.52 198.75 C3.92 198.75 5.06 197.62 5.06 196.25 Z" class="st3"/>
					</g>
				</g>
				<g id="group229-16" transform="translate(69.9324,2.84217E-14)" v:mID="229" v:groupContext="group">
					<title>Sheet.229</title>
					<g id="shape198-17" v:mID="198" v:groupContext="shape" transform="translate(29.6627,2.84217E-14)">
						<title>Sheet.198</title>
						<path d="M12.9 187.37 L10.38 184.88 L1.46 176.25 L0 177.55 L10.11 187.37 L0 197.44 L1.46 198.75 L10.38 190.11
									 L12.9 187.37 L12.9 187.37 Z" class="st2"/>
					</g>
					<g id="shape199-19" v:mID="199" v:groupContext="shape">
						<title>Sheet.199</title>
						<path d="M0 187.37 L2.52 184.88 L11.44 176.25 L12.9 177.55 L2.79 187.37 L12.9 197.44 L11.44 198.75 L2.52
									 190.11 L0 187.37 L0 187.37 Z" class="st2"/>
					</g>
					<g id="shape200-21" v:mID="200" v:groupContext="shape" transform="translate(10.9027,-8.88563)">
						<title>Sheet.200</title>
						<path d="M5.2 196.25 C5.2 197.69 4 198.75 2.66 198.75 C1.33 198.75 -0 197.56 0 196.25 C-0 194.94 1.08 193.77
									 2.66 193.77 C4.12 193.77 5.2 194.94 5.2 196.25 Z" class="st3"/>
					</g>
					<g id="shape201-23" v:mID="201" v:groupContext="shape" transform="translate(18.6254,-8.88563)">
						<title>Sheet.201</title>
						<path d="M5.18 196.25 C5.18 197.69 3.99 198.75 2.66 198.75 C1.33 198.75 0 197.56 0 196.25 C0 194.94 1.19
									 193.77 2.66 193.77 C4.12 193.77 5.18 194.94 5.18 196.25 Z" class="st3"/>
					</g>
					<g id="shape202-25" v:mID="202" v:groupContext="shape" transform="translate(26.6005,-8.88563)">
						<title>Sheet.202</title>
						<path d="M5.06 196.25 C5.06 194.88 3.92 193.77 2.52 193.77 C1.14 193.77 -0 194.88 0 196.25 C-0 197.62 1.14
									 198.75 2.52 198.75 C3.92 198.75 5.06 197.62 5.06 196.25 Z" class="st3"/>
					</g>
				</g>
				<g id="group284-27" transform="translate(46.875,-9)" v:mID="284" v:groupContext="group">
					<title>Sheet.284</title>
					<g id="group285-28" transform="translate(2.25917,2.84217E-14)" v:mID="285" v:groupContext="group">
						<title>Sheet.285</title>
						<g id="shape286-29" v:mID="286" v:groupContext="shape" transform="translate(1.61353,-1.57828)">
							<title>Sheet.286</title>
							<rect x="0" y="196.646" width="11.925" height="2.10438" class="st4"/>
						</g>
						<g id="shape287-31" v:mID="287" v:groupContext="shape" transform="translate(12.5737,0)">
							<title>Sheet.287</title>
							<path d="M0 198.75 L0 193.49 L4.21 196.12 L0 198.75 Z" class="st4"/>
						</g>
					</g>
					<g id="shape288-33" v:mID="288" v:groupContext="shape" transform="translate(4.1956,392.239) rotate(180)">
						<title>Sheet.288</title>
						<path d="M0 198.75 L0 193.49 L4.2 196.12 L0 198.75 Z" class="st4"/>
					</g>
				</g>
			</g>
		</g>
	</g>
</svg>
