<?xml version="1.0" encoding="UTF-8" standalone="no"?>
<!DOCTYPE svg PUBLIC "-//W3C//DTD SVG 1.1//EN" "http://www.w3.org/Graphics/SVG/1.1/DTD/svg11.dtd">
<!-- Generated by Microsoft Visio, SVG Export VMBackup.svg Page-1 -->
<svg xmlns="http://www.w3.org/2000/svg" xmlns:xlink="http://www.w3.org/1999/xlink" xmlns:ev="http://www.w3.org/2001/xml-events"
		width="1.38542in" height="1.0865in" viewBox="0 0 99.75 78.2283" xml:space="preserve" color-interpolation-filters="sRGB"
		class="st14">
	<style type="text/css">
	<![CDATA[
		.st1 {fill:#ffffff;stroke:none;stroke-linecap:round;stroke-linejoin:round;stroke-width:0.75}
		.st2 {visibility:visible}
		.st3 {fill:#5b9bd5;fill-opacity:0.22;filter:url(#filter_2);stroke:none}
		.st4 {fill:#0072c6;stroke:none;stroke-width:12.24}
		.st5 {fill:#59b4d9;stroke:none;stroke-width:12.24}
		.st6 {fill:#556a8a;stroke:none;stroke-linecap:butt;stroke-width:0.75}
		.st7 {fill:#adbdca;stroke:none;stroke-linecap:butt;stroke-width:0.75}
		.st8 {fill:#0091c8;stroke:none;stroke-linecap:butt;stroke-width:0.75}
		.st9 {fill:#e5e5e5;stroke:none;stroke-linecap:butt;stroke-width:0.75}
		.st10 {fill:none;stroke:#556a8a;stroke-linecap:butt;stroke-width:1.5}
		.st11 {fill:none;stroke:none;stroke-linecap:butt;stroke-width:0.75}
		.st12 {fill:#ffffff;stroke:none;stroke-linecap:butt;stroke-width:0.75}
		.st13 {fill:#d7e7f4;fill-opacity:0.12;stroke:none;stroke-linecap:butt;stroke-width:0.75}
		.st14 {fill:none;fill-rule:evenodd;font-size:12px;overflow:visible;stroke-linecap:square;stroke-miterlimit:3}
	]]>
	</style>

	<defs id="Filters">
		<filter id="filter_2">
			<feGaussianBlur stdDeviation="2"/>
		</filter>
	</defs>
	<g>
		<title>Page-1</title>
		<g id="group758-1" transform="translate(0.375,-0.375)">
			<title>Sheet.758</title>
			<g id="shape757-2">
				<title>Sheet.757</title>
				<rect x="0" y="0.750001" width="99" height="77.4783" class="st1"/>
			</g>
			<g id="group756-4" transform="translate(23.3749,-22.4857)">
				<title>Sheet.756</title>
				<g id="group753-5">
					<title>Azure Backup</title>
					<g id="shape754-6" transform="translate(9.33808,-9.79706)">
						<title>Sheet.754</title>
						<g id="shadow754-7" transform="matrix(1,0,0,1,0.3456,1.9728)" class="st2">
							<path d="M21.73 67.33 C21.75 67.09 21.77 66.83 21.77 66.58 C21.77 62.57 18.47 59.31 14.43 59.31 C12.03
										 59.31 9.82 60.46 8.46 62.34 C7.59 61.8 6.58 61.5 5.52 61.5 C2.64 61.5 0.26 63.7 0 66.49
										 C0.45 66.43 0.9 66.39 1.36 66.39 C3.48 66.39 5.52 67.07 7.19 68.29 C8.44 65.41 11.62 63.56
										 15.15 63.46 L15.15 60.99 L19.46 64.67 L15.15 68.34 L15.15 65.93 C13.13 66.01 11.16 66.76
										 10.03 68.6 L10.26 68.58 C14.37 68.58 17.77 71.66 18.25 75.6 C19.23 76.33 20 77.22 20.55
										 78.23 C23.21 77.52 25.12 75.22 25.12 72.4 C25.12 70.14 23.9 68.34 21.73 67.33 Z"
									class="st3"/>
						</g>
						<path d="M21.73 67.33 C21.75 67.09 21.77 66.83 21.77 66.58 C21.77 62.57 18.47 59.31 14.43 59.31 C12.03 59.31
									 9.82 60.46 8.46 62.34 C7.59 61.8 6.58 61.5 5.52 61.5 C2.64 61.5 0.26 63.7 0 66.49 C0.45 66.43
									 0.9 66.39 1.36 66.39 C3.48 66.39 5.52 67.07 7.19 68.29 C8.44 65.41 11.62 63.56 15.15 63.46 L15.15
									 60.99 L19.46 64.67 L15.15 68.34 L15.15 65.93 C13.13 66.01 11.16 66.76 10.03 68.6 L10.26 68.58
									 C14.37 68.58 17.77 71.66 18.25 75.6 C19.23 76.33 20 77.22 20.55 78.23 C23.21 77.52 25.12 75.22
									 25.12 72.4 C25.12 70.14 23.9 68.34 21.73 67.33 Z" class="st4"/>
					</g>
					<g id="shape755-11">
						<title>Sheet.755</title>
						<g id="shadow755-12" transform="matrix(1,0,0,1,0.3456,1.9728)" class="st2">
							<path d="M3.39 67.09 C3.37 66.83 3.35 66.58 3.35 66.33 C3.35 62.32 6.65 59.07 10.69 59.07 C13.09 59.07
										 15.3 60.22 16.65 62.09 C17.53 61.55 18.54 61.26 19.6 61.26 C22.65 61.26 25.14 63.73 25.14
										 66.76 L25.13 67.2 C27.2 68.25 28.31 69.98 28.31 72.15 C28.31 75.56 25.53 78.23 21.98 78.23
										 L6.33 78.23 C2.78 78.23 0 75.56 0 72.15 C0 69.9 1.22 68.1 3.39 67.09 Z" class="st3"/>
						</g>
						<path d="M3.39 67.09 C3.37 66.83 3.35 66.58 3.35 66.33 C3.35 62.32 6.65 59.07 10.69 59.07 C13.09 59.07 15.3
									 60.22 16.65 62.09 C17.53 61.55 18.54 61.26 19.6 61.26 C22.65 61.26 25.14 63.73 25.14 66.76 L25.13
									 67.2 C27.2 68.25 28.31 69.98 28.31 72.15 C28.31 75.56 25.53 78.23 21.98 78.23 L6.33 78.23 C2.78
									 78.23 0 75.56 0 72.15 C0 69.9 1.22 68.1 3.39 67.09 Z" class="st5"/>
					</g>
				</g>
				<g id="group738-16" transform="translate(27.8429,-15.0181)">
					<title>Microsoft Azure Back-up</title>
					<g id="shape739-17" transform="translate(3.93976,-0.960916)">
						<title>polygon1908</title>
						<path d="M15.24 77.27 L16.19 78.23 L0 78.23 L1.01 77.27 L15.24 77.27 Z" class="st6"/>
					</g>
					<g id="shape740-19" transform="translate(5.40035,-1.34528)">
						<title>polygon1910</title>
						<path d="M12.7 77.84 L13.15 78.23 L0 78.23 L0.46 77.84 L12.7 77.84 Z" class="st7"/>
					</g>
					<g id="shape741-21" transform="translate(7.78342,-3.07493)">
						<title>polygon1912</title>
						<path d="M8.84 78.23 L8.01 77.46 L0.83 77.46 L0 78.23 L8.84 78.23 Z" class="st6"/>
					</g>
					<g id="shape742-23" transform="translate(11.5637,-3.47083)">
						<title>polygon1914</title>
						<path d="M0.77 76.29 L0.97 78.23 L0 78.23 L0.19 76.29 L0.77 76.29 Z" class="st6"/>
					</g>
					<g id="shape743-25" transform="translate(22.5815,140.121) rotate(180)">
						<title>rect1916</title>
						<path d="M0 77.46 a0.768751 0.768751 -180 0 0 0.768733 0.768733 L20.18 78.23 a0.768751 0.768751 -180 0 0
									 0.768733 -0.768733 L20.95 67.66 a0.768751 0.768751 -180 0 0 -0.768733 -0.768733 L0.77 66.89
									 a0.768751 0.768751 -180 0 0 -0.768733 0.768733 L0 77.46 Z" class="st8"/>
					</g>
					<g id="shape744-27" transform="translate(1.82574,-13.8372)">
						<title>path1918</title>
						<path d="M20.95 78.23 L20.95 76.31 a0.768733 0.768733 -180 0 0 -0.768733 -0.768733 L0.77 75.54 a0.768733
									 0.768733 -180 0 0 -0.768733 0.768733 L0 78.23 L20.95 78.23 Z" class="st9"/>
					</g>
					<g id="shape745-29" transform="translate(22.5815,140.121) rotate(180)">
						<title>rect1920</title>
						<path d="M0 77.46 a0.768751 0.768751 -180 0 0 0.768733 0.768733 L20.18 78.23 a0.768751 0.768751 -180 0 0
									 0.768733 -0.768733 L20.95 67.66 a0.768751 0.768751 -180 0 0 -0.768733 -0.768733 L0.77 66.89
									 a0.768751 0.768751 -180 0 0 -0.768733 0.768733 L0 77.46 Z" class="st10"/>
					</g>
					<g id="shape746-31">
						<title>rect1924</title>
						<rect x="0" y="60.7396" width="24.4073" height="17.4887" class="st11"/>
					</g>
					<g id="group747-33" transform="translate(8.83266,-7.4001)">
						<title>Sheet.747</title>
						<g id="shape748-34">
							<title>Sheet.748</title>
							<path d="M6.39 77.86 L6.39 78.12 L0.15 78.12 L0.15 77.86 L6.39 77.86 ZM6.42 77.76 L0.11 77.76 a0.0965106
										 0.0965106 -180 0 0 -0.112055 0.0810612 L0 78.15 a0.0965106 0.0965106 -180 0 0 0.112055 0.0810612
										 L6.42 78.23 a0.0965106 0.0965106 -180 0 0 0.112055 -0.0810612 L6.54 77.84 a0.101279 0.101279
										 -180 0 0 -0.112055 -0.0810612 Z" class="st12"/>
						</g>
						<g id="shape749-36" transform="translate(0.102709,-0.0337596)">
							<title>Sheet.749</title>
							<rect x="0" y="77.8231" width="3.88007" height="0.405211" class="st12"/>
						</g>
					</g>
					<g id="shape750-38" transform="translate(9.33744,-9.03506)">
						<title>Sheet.750</title>
						<path d="M4.71 76.47 a0.74748 0.74748 -180 0 0 -0.127409 0.01173 C4.58 76.47 4.58 76.47 4.58 76.46 C4.58
									 75.98 4.22 75.58 3.77 75.58 a0.761403 0.761403 -180 0 0 -0.421137 0.128458 A1.19618 1.19618
									 -180 0 0 2.63 75.1 A1.08441 1.08441 -180 0 0 2.32 75.05 C1.68 75.05 1.15 75.62 1.15 76.33 A1.41657
									 1.41657 -180 0 0 1.17 76.55 a0.757207 0.757207 -180 0 0 -0.354571 -0.0889766 C0.37 76.47 0 76.86
									 0 77.35 a0.890339 0.890339 -180 0 0 0.490564 0.812043 a0.762929 0.762929 -180 0 0 0.209806 0.0643722
									 L2.63 78.23 L4.85 78.22 a0.867832 0.867832 -180 0 0 0.679198 -0.872982 C5.53 76.86 5.16 76.47
									 4.71 76.47 Z" class="st12"/>
					</g>
					<g id="shape751-40" transform="translate(1.74404,-5.2291)">
						<title>Sheet.751</title>
						<path d="M0 78.23 L0 67.15 L19.76 67.14 L0 78.23 Z" class="st13"/>
					</g>
					<g id="shape752-42" transform="translate(11.5537,-9.50874)">
						<title>Sheet.752</title>
						<path d="M0.99 77.66 a0.074471 0.074471 -180 0 0 -0.105701 0 L0.57 77.98 L0.57 76.78 a0.0738945 0.0738945
									 -180 0 0 -0.0738945 -0.0738945 L0.5 76.71 a0.0738945 0.0738945 -180 0 0 -0.0738945 0.0738945
									 L0.42 77.98 L0.11 77.66 a0.0744705 0.0744705 -180 1 0 -0.105701 0.104932 L0.44 78.21 a0.0864825
									 0.0864825 -180 0 0 0.112715 0 L0.99 77.77 a0.0740866 0.0740866 -180 0 0 0.000672641 -0.104932
									 Z" class="st8"/>
					</g>
				</g>
			</g>
		</g>
	</g>
</svg>
