<?xml version="1.0" encoding="UTF-8" standalone="no"?>
<!DOCTYPE svg PUBLIC "-//W3C//DTD SVG 1.1//EN" "http://www.w3.org/Graphics/SVG/1.1/DTD/svg11.dtd">
<!-- Generated by Microsoft Visio, SVG Export NextGenFirewall.svg Page-1 -->
<svg xmlns="http://www.w3.org/2000/svg" xmlns:xlink="http://www.w3.org/1999/xlink" xmlns:ev="http://www.w3.org/2001/xml-events"
		xmlns:v="http://schemas.microsoft.com/visio/2003/SVGExtensions/" width="0.885417in" height="0.961804in"
		viewBox="0 0 63.75 69.2499" xml:space="preserve" color-interpolation-filters="sRGB" class="st8">
	<v:documentProperties v:langID="1033" v:viewMarkup="false"/>

	<style type="text/css">
	<![CDATA[
		.st1 {fill:#ffffff;stroke:none;stroke-linecap:round;stroke-linejoin:round;stroke-width:0.75}
		.st2 {fill:#ea700d;stroke:none;stroke-linecap:butt;stroke-width:0.75}
		.st3 {visibility:visible}
		.st4 {fill:#5b9bd5;fill-opacity:0.22;filter:url(#filter_2);stroke:none}
		.st5 {fill:#7fba00;stroke:none;stroke-width:12.24}
		.st6 {fill:#b8d432;fill-opacity:0.4;stroke:none;stroke-width:12.24}
		.st7 {fill:#ffffff;stroke:none;stroke-width:12.24}
		.st8 {fill:none;fill-rule:evenodd;font-size:12px;overflow:visible;stroke-linecap:square;stroke-miterlimit:3}
	]]>
	</style>

	<defs id="Filters">
		<filter id="filter_2">
			<feGaussianBlur stdDeviation="2"/>
		</filter>
	</defs>
	<g v:mID="0" v:index="1" v:groupContext="foregroundPage">
		<title>Page-1</title>
		<v:pageProperties v:drawingScale="1" v:pageScale="1" v:drawingUnits="19" v:shadowOffsetX="9" v:shadowOffsetY="-9"/>
		<g id="shape228-1" v:mID="228" v:groupContext="shape" transform="translate(0.375,-7.62487)">
			<title>Sheet.228</title>
			<rect x="0" y="7.99987" width="63" height="61.25" class="st1"/>
		</g>
		<g id="group213-3" transform="translate(20.7881,-28.5488)" v:mID="213" v:groupContext="group">
			<title>Firewall</title>
			<g id="shape214-4" v:mID="214" v:groupContext="shape" transform="translate(0,-14.9673)">
				<title>Sheet.214</title>
				<rect x="0" y="64.8151" width="5.54346" height="4.43477" class="st2"/>
			</g>
			<g id="shape215-6" v:mID="215" v:groupContext="shape" transform="translate(6.15934,-14.9673)">
				<title>Sheet.215</title>
				<rect x="0" y="64.8151" width="9.85461" height="4.43477" class="st2"/>
			</g>
			<g id="shape216-8" v:mID="216" v:groupContext="shape" transform="translate(16.6304,-14.9673)">
				<title>Sheet.216</title>
				<rect x="0" y="64.8151" width="5.54346" height="4.43477" class="st2"/>
			</g>
			<g id="shape217-10" v:mID="217" v:groupContext="shape" transform="translate(0,-9.97823)">
				<title>Sheet.217</title>
				<rect x="0" y="64.8151" width="10.471" height="4.43477" class="st2"/>
			</g>
			<g id="shape218-12" v:mID="218" v:groupContext="shape" transform="translate(11.0869,-9.97823)">
				<title>Sheet.218</title>
				<rect x="0" y="64.8151" width="11.0869" height="4.43477" class="st2"/>
			</g>
			<g id="shape219-14" v:mID="219" v:groupContext="shape" transform="translate(0,-4.98911)">
				<title>Sheet.219</title>
				<rect x="0" y="64.8151" width="5.54346" height="4.43477" class="st2"/>
			</g>
			<g id="shape220-16" v:mID="220" v:groupContext="shape" transform="translate(6.15934,-4.98911)">
				<title>Sheet.220</title>
				<rect x="0" y="64.8151" width="9.85461" height="4.43477" class="st2"/>
			</g>
			<g id="shape221-18" v:mID="221" v:groupContext="shape" transform="translate(16.6304,-4.98911)">
				<title>Sheet.221</title>
				<rect x="0" y="64.8151" width="5.54346" height="4.43477" class="st2"/>
			</g>
			<g id="shape222-20" v:mID="222" v:groupContext="shape">
				<title>Sheet.222</title>
				<rect x="0" y="64.8151" width="10.471" height="4.43477" class="st2"/>
			</g>
			<g id="shape223-22" v:mID="223" v:groupContext="shape" transform="translate(11.0869,9.9476E-14)">
				<title>Sheet.223</title>
				<rect x="0" y="64.8151" width="11.0869" height="4.43477" class="st2"/>
			</g>
		</g>
		<g id="group224-24" transform="translate(35.3329,-24.6684)" v:mID="224" v:groupContext="group">
			<title>Azure Security / Security Center.224</title>
			<g id="shape225-25" v:mID="225" v:groupContext="shape">
				<title>Sheet.225</title>
				<g id="shadow225-26" v:groupContext="shadow" v:shadowOffsetX="0.3456" v:shadowOffsetY="-1.9728" v:shadowType="1"
						transform="matrix(1,0,0,1,0.3456,1.9728)" class="st3">
					<path d="M11.47 53.11 C7.43 52.67 6.73 50.91 6.73 50.91 C6.73 50.91 5.81 53.18 0 53.18 L0 62.6 C0 63.74 0.62
								 64.8 1.51 65.72 C3.49 67.82 6.73 69.25 6.73 69.25 C6.73 69.25 13.45 66.31 13.45 62.6 L13.45 53.18
								 C12.72 53.18 12.06 53.15 11.47 53.11 Z" class="st4"/>
				</g>
				<path d="M11.47 53.11 C7.43 52.67 6.73 50.91 6.73 50.91 C6.73 50.91 5.81 53.18 0 53.18 L0 62.6 C0 63.74 0.62 64.8
							 1.51 65.72 C3.49 67.82 6.73 69.25 6.73 69.25 C6.73 69.25 13.45 66.31 13.45 62.6 L13.45 53.18 C12.72
							 53.18 12.06 53.15 11.47 53.11 Z" class="st5"/>
			</g>
			<g id="shape226-30" v:mID="226" v:groupContext="shape" transform="translate(0,-3.52916)">
				<title>Sheet.226</title>
				<g id="shadow226-31" v:groupContext="shadow" v:shadowOffsetX="0.3456" v:shadowOffsetY="-1.9728" v:shadowType="1"
						transform="matrix(1,0,0,1,0.3456,1.9728)" class="st3">
					<path d="M8.42 60.5 L11.47 56.64 C7.43 56.2 6.73 54.43 6.73 54.43 C6.73 54.43 5.81 56.71 0 56.71 L0 66.13 C0
								 67.26 0.62 68.33 1.51 69.25 L3.79 66.38 L8.42 60.5 Z" class="st4"/>
				</g>
				<path d="M8.42 60.5 L11.47 56.64 C7.43 56.2 6.73 54.43 6.73 54.43 C6.73 54.43 5.81 56.71 0 56.71 L0 66.13 C0 67.26
							 0.62 68.33 1.51 69.25 L3.79 66.38 L8.42 60.5 Z" class="st6"/>
			</g>
			<g id="shape227-35" v:mID="227" v:groupContext="shape" transform="translate(3.74973,-5.25697)">
				<title>Sheet.227</title>
				<g id="shadow227-36" v:groupContext="shadow" v:shadowOffsetX="0.3456" v:shadowOffsetY="-1.9728" v:shadowType="1"
						transform="matrix(1,0,0,1,0.3456,1.9728)" class="st3">
					<path d="M5.66 65.17 L5.26 65.17 L5.26 63.85 C5.26 63.22 5.04 62.63 4.63 62.23 C4.63 62.23 4.6 62.19 4.6 62.19
								 C4.19 61.75 3.6 61.49 2.98 61.49 C2.35 61.49 1.76 61.79 1.36 62.19 C0.96 62.63 0.7 63.22 0.7 63.88
								 L0.7 65.21 L0.29 65.21 C0.15 65.21 0 65.35 0 65.5 L0 68.15 L0 68.96 C0 69.1 0.15 69.25 0.29 69.25
								 L5.62 69.25 C5.77 69.25 5.92 69.1 5.92 68.96 L5.92 65.5 C5.96 65.28 5.81 65.17 5.66 65.17 ZM4.19
								 65.17 L2.35 65.17 L1.8 65.17 L1.8 63.85 C1.8 63.48 1.95 63.15 2.17 62.89 C2.39 62.67 2.68 62.52
								 3.01 62.52 C3.35 62.52 3.64 62.67 3.86 62.89 C3.9 62.96 3.97 63 4.01 63.07 C4.15 63.29 4.23 63.55
								 4.23 63.85 C4.19 63.85 4.19 65.17 4.19 65.17 Z" class="st4"/>
				</g>
				<path d="M5.66 65.17 L5.26 65.17 L5.26 63.85 C5.26 63.22 5.04 62.63 4.63 62.23 C4.63 62.23 4.6 62.19 4.6 62.19 C4.19
							 61.75 3.6 61.49 2.98 61.49 C2.35 61.49 1.76 61.79 1.36 62.19 C0.96 62.63 0.7 63.22 0.7 63.88 L0.7 65.21
							 L0.29 65.21 C0.15 65.21 0 65.35 0 65.5 L0 68.15 L0 68.96 C0 69.1 0.15 69.25 0.29 69.25 L5.62 69.25 C5.77
							 69.25 5.92 69.1 5.92 68.96 L5.92 65.5 C5.96 65.28 5.81 65.17 5.66 65.17 ZM4.19 65.17 L2.35 65.17 L1.8
							 65.17 L1.8 63.85 C1.8 63.48 1.95 63.15 2.17 62.89 C2.39 62.67 2.68 62.52 3.01 62.52 C3.35 62.52 3.64
							 62.67 3.86 62.89 C3.9 62.96 3.97 63 4.01 63.07 C4.15 63.29 4.23 63.55 4.23 63.85 C4.19 63.85 4.19 65.17
							 4.19 65.17 Z" class="st7"/>
			</g>
		</g>
	</g>
</svg>
