<?xml version="1.0" encoding="UTF-8" standalone="no"?>
<!DOCTYPE svg PUBLIC "-//W3C//DTD SVG 1.1//EN" "http://www.w3.org/Graphics/SVG/1.1/DTD/svg11.dtd">
<!-- Generated by Microsoft Visio, SVG Export SQLUnderAttack.svg Page-1 -->
<svg xmlns="http://www.w3.org/2000/svg" xmlns:xlink="http://www.w3.org/1999/xlink" xmlns:ev="http://www.w3.org/2001/xml-events"
		xmlns:v="http://schemas.microsoft.com/visio/2003/SVGExtensions/" width="0.59811in" height="0.660778in"
		viewBox="0 0 43.0639 47.576" xml:space="preserve" color-interpolation-filters="sRGB" class="st10">
	<v:documentProperties v:langID="1033" v:viewMarkup="false"/>

	<style type="text/css">
	<![CDATA[
		.st1 {visibility:visible}
		.st2 {fill:#5b9bd5;fill-opacity:0.22;filter:url(#filter_2);stroke:none}
		.st3 {fill:#0072c6;stroke:none;stroke-width:12.24}
		.st4 {fill:#ffffff;fill-opacity:0.15;stroke:none;stroke-width:12.24}
		.st5 {fill:#ffffff;stroke:none;stroke-width:12.24}
		.st6 {fill:#7fba00;stroke:none;stroke-width:12.24}
		.st7 {fill:#b8d432;stroke:none;stroke-width:12.24}
		.st8 {fill:#ffffff;stroke:none;stroke-linecap:round;stroke-linejoin:round;stroke-width:0.75}
		.st9 {fill:#c00000;stroke:none;stroke-width:4.02632}
		.st10 {fill:none;fill-rule:evenodd;font-size:12px;overflow:visible;stroke-linecap:square;stroke-miterlimit:3}
	]]>
	</style>

	<defs id="Filters">
		<filter id="filter_2">
			<feGaussianBlur stdDeviation="2"/>
		</filter>
	</defs>
	<g v:mID="0" v:index="1" v:groupContext="foregroundPage">
		<title>Page-1</title>
		<v:pageProperties v:drawingScale="1" v:pageScale="1" v:drawingUnits="19" v:shadowOffsetX="9" v:shadowOffsetY="-9"/>
		<g id="group316-1" transform="translate(12.24,-8.05134)" v:mID="316" v:groupContext="group">
			<title>Sheet.316</title>
			<g id="group80-2" transform="translate(-4.996E-14,-4.18866)" v:mID="80" v:groupContext="group">
				<title>SQL Database</title>
				<g id="shape81-3" v:mID="81" v:groupContext="shape">
					<title>Sheet.81</title>
					<g id="shadow81-4" v:groupContext="shadow" v:shadowOffsetX="0.3456" v:shadowOffsetY="-1.9728" v:shadowType="1"
							transform="matrix(1,0,0,1,0.3456,1.9728)" class="st1">
						<path d="M0 27.64 L0 44.42 C0 46.16 3.9 47.58 8.71 47.58 L8.71 27.64 C8.71 27.64 0 27.64 0 27.64 Z"
								class="st2"/>
					</g>
					<path d="M0 27.64 L0 44.42 C0 46.16 3.9 47.58 8.71 47.58 L8.71 27.64 C8.71 27.64 0 27.64 0 27.64 Z" class="st3"/>
				</g>
				<g id="shape82-8" v:mID="82" v:groupContext="shape" transform="translate(8.59268,-0.000464821)">
					<title>Sheet.82</title>
					<g id="shadow82-9" v:groupContext="shadow" v:shadowOffsetX="0.3456" v:shadowOffsetY="-1.9728" v:shadowType="1"
							transform="matrix(1,0,0,1,0.3456,1.9728)" class="st1">
						<path d="M0 47.58 L0.12 47.58 C4.93 47.58 8.83 46.16 8.83 44.42 L8.83 27.64 L0 27.64 L0 47.58 Z"
								class="st2"/>
					</g>
					<path d="M0 47.58 L0.12 47.58 C4.93 47.58 8.83 46.16 8.83 44.42 L8.83 27.64 L0 27.64 L0 47.58 Z" class="st3"/>
				</g>
				<g id="shape83-13" v:mID="83" v:groupContext="shape" transform="translate(8.59268,-0.000464821)">
					<title>Sheet.83</title>
					<g id="shadow83-14" v:groupContext="shadow" v:shadowOffsetX="0.3456" v:shadowOffsetY="-1.9728" v:shadowType="1"
							transform="matrix(1,0,0,1,0.3456,1.9728)" class="st1">
						<path d="M0 47.58 L0.12 47.58 C4.93 47.58 8.83 46.16 8.83 44.42 L8.83 27.64 L0 27.64 L0 47.58 Z"
								class="st2"/>
					</g>
					<path d="M0 47.58 L0.12 47.58 C4.93 47.58 8.83 46.16 8.83 44.42 L8.83 27.64 L0 27.64 L0 47.58 Z" class="st4"/>
				</g>
				<g id="shape84-18" v:mID="84" v:groupContext="shape" transform="translate(0,-16.7856)">
					<title>Sheet.84</title>
					<g id="shadow84-19" v:groupContext="shadow" v:shadowOffsetX="0.3456" v:shadowOffsetY="-1.9728" v:shadowType="1"
							transform="matrix(1,0,0,1,0.3456,1.9728)" class="st1">
						<path d="M17.42 44.42 C17.42 46.16 13.52 47.58 8.71 47.58 C3.9 47.58 0 46.16 0 44.42 C0 42.68 3.9 41.27 8.71
									 41.27 C13.52 41.27 17.42 42.68 17.42 44.42 Z" class="st2"/>
					</g>
					<path d="M17.42 44.42 C17.42 46.16 13.52 47.58 8.71 47.58 C3.9 47.58 0 46.16 0 44.42 C0 42.68 3.9 41.27 8.71
								 41.27 C13.52 41.27 17.42 42.68 17.42 44.42 Z" class="st5"/>
				</g>
				<g id="shape85-23" v:mID="85" v:groupContext="shape" transform="translate(1.78073,-18.0406)">
					<title>Sheet.85</title>
					<g id="shadow85-24" v:groupContext="shadow" v:shadowOffsetX="0.3456" v:shadowOffsetY="-1.9728" v:shadowType="1"
							transform="matrix(1,0,0,1,0.3456,1.9728)" class="st1">
						<path d="M13.86 45.49 C13.86 46.64 10.76 47.58 6.93 47.58 C3.1 47.58 0 46.64 0 45.49 C0 44.34 3.1 43.41 6.93
									 43.41 C10.76 43.41 13.86 44.34 13.86 45.49 Z" class="st2"/>
					</g>
					<path d="M13.86 45.49 C13.86 46.64 10.76 47.58 6.93 47.58 C3.1 47.58 0 46.64 0 45.49 C0 44.34 3.1 43.41 6.93
								 43.41 C10.76 43.41 13.86 44.34 13.86 45.49 Z" class="st6"/>
				</g>
				<g id="shape86-28" v:mID="86" v:groupContext="shape" transform="translate(1.78119,-18.8503)">
					<title>Sheet.86</title>
					<g id="shadow86-29" v:groupContext="shadow" v:shadowOffsetX="0.3456" v:shadowOffsetY="-1.9728" v:shadowType="1"
							transform="matrix(1,0,0,1,0.3456,1.9728)" class="st1">
						<path d="M12.41 47.58 C13.32 47.22 13.86 46.78 13.86 46.3 C13.86 45.15 10.76 44.22 6.93 44.22 C3.1 44.22
									 0 45.15 0 46.3 C0 46.78 0.55 47.22 1.45 47.58 C2.72 47.08 4.7 46.77 6.93 46.77 C9.16 46.77 11.14
									 47.08 12.41 47.58 Z" class="st2"/>
					</g>
					<path d="M12.41 47.58 C13.32 47.22 13.86 46.78 13.86 46.3 C13.86 45.15 10.76 44.22 6.93 44.22 C3.1 44.22 0 45.15
								 0 46.3 C0 46.78 0.55 47.22 1.45 47.58 C2.72 47.08 4.7 46.77 6.93 46.77 C9.16 46.77 11.14 47.08 12.41
								 47.58 Z" class="st7"/>
				</g>
				<g id="shape87-33" v:mID="87" v:groupContext="shape" transform="translate(2.36408,-6.64833)">
					<title>Sheet.87</title>
					<g id="shadow87-34" v:groupContext="shadow" v:shadowOffsetX="0.3456" v:shadowOffsetY="-1.9728" v:shadowType="1"
							transform="matrix(1,0,0,1,0.3456,1.9728)" class="st1">
						<path d="M3.58 45.93 C3.58 46.46 3.39 46.86 3.01 47.15 C2.64 47.43 2.11 47.58 1.45 47.58 C0.88 47.58 0.4
									 47.47 0.02 47.27 L0.02 46.04 C0.46 46.42 0.95 46.6 1.48 46.6 C1.73 46.6 1.93 46.55 2.07 46.45
									 C2.21 46.35 2.28 46.21 2.28 46.04 C2.28 45.88 2.21 45.73 2.08 45.61 C1.94 45.49 1.67 45.33 1.26
									 45.13 C0.42 44.74 0 44.2 0 43.52 C0 43.03 0.18 42.63 0.55 42.34 C0.91 42.04 1.4 41.89 2.01 41.89
									 C2.54 41.89 2.99 41.96 3.34 42.1 L3.34 43.25 C2.97 42.99 2.55 42.86 2.07 42.86 C1.84 42.86 1.65
									 42.91 1.51 43.01 C1.37 43.12 1.3 43.25 1.3 43.42 C1.3 43.59 1.36 43.74 1.47 43.85 C1.58 43.96
									 1.81 44.1 2.16 44.26 C2.67 44.5 3.04 44.75 3.25 45 C3.47 45.25 3.58 45.56 3.58 45.93 Z"
								class="st2"/>
					</g>
					<path d="M3.58 45.93 C3.58 46.46 3.39 46.86 3.01 47.15 C2.64 47.43 2.11 47.58 1.45 47.58 C0.88 47.58 0.4 47.47
								 0.02 47.27 L0.02 46.04 C0.46 46.42 0.95 46.6 1.48 46.6 C1.73 46.6 1.93 46.55 2.07 46.45 C2.21 46.35
								 2.28 46.21 2.28 46.04 C2.28 45.88 2.21 45.73 2.08 45.61 C1.94 45.49 1.67 45.33 1.26 45.13 C0.42
								 44.74 0 44.2 0 43.52 C0 43.03 0.18 42.63 0.55 42.34 C0.91 42.04 1.4 41.89 2.01 41.89 C2.54 41.89
								 2.99 41.96 3.34 42.1 L3.34 43.25 C2.97 42.99 2.55 42.86 2.07 42.86 C1.84 42.86 1.65 42.91 1.51 43.01
								 C1.37 43.12 1.3 43.25 1.3 43.42 C1.3 43.59 1.36 43.74 1.47 43.85 C1.58 43.96 1.81 44.1 2.16 44.26
								 C2.67 44.5 3.04 44.75 3.25 45 C3.47 45.25 3.58 45.56 3.58 45.93 Z" class="st5"/>
				</g>
				<g id="shape88-38" v:mID="88" v:groupContext="shape" transform="translate(6.47356,-5.37147)">
					<title>Sheet.88</title>
					<g id="shadow88-39" v:groupContext="shadow" v:shadowOffsetX="0.3456" v:shadowOffsetY="-1.9728" v:shadowType="1"
							transform="matrix(1,0,0,1,0.3456,1.9728)" class="st1">
						<path d="M5.39 43.42 C5.39 44.06 5.24 44.62 4.95 45.1 C4.65 45.57 4.24 45.91 3.7 46.1 L5.3 47.58 L3.69 47.58
									 L2.55 46.3 C2.06 46.28 1.62 46.15 1.23 45.91 C0.84 45.67 0.53 45.34 0.32 44.92 C0.11 44.51 0
									 44.04 0 43.53 C0 42.96 0.12 42.45 0.35 42 C0.58 41.56 0.9 41.21 1.32 40.97 C1.74 40.73 2.22
									 40.61 2.76 40.61 C3.27 40.61 3.72 40.73 4.12 40.96 C4.52 41.19 4.83 41.53 5.05 41.95 C5.28 42.38
									 5.39 42.87 5.39 43.42 ZM4.08 43.49 C4.08 42.93 3.96 42.49 3.72 42.16 C3.48 41.84 3.14 41.68
									 2.72 41.68 C2.29 41.68 1.95 41.84 1.69 42.17 C1.43 42.49 1.3 42.92 1.3 43.46 C1.3 44 1.43 44.43
									 1.68 44.75 C1.94 45.07 2.27 45.23 2.69 45.23 C3.12 45.23 3.46 45.07 3.71 44.76 C3.96 44.45 4.08
									 44.03 4.08 43.49 Z" class="st2"/>
					</g>
					<path d="M5.39 43.42 C5.39 44.06 5.24 44.62 4.95 45.1 C4.65 45.57 4.24 45.91 3.7 46.1 L5.3 47.58 L3.69 47.58
								 L2.55 46.3 C2.06 46.28 1.62 46.15 1.23 45.91 C0.84 45.67 0.53 45.34 0.32 44.92 C0.11 44.51 0 44.04
								 0 43.53 C0 42.96 0.12 42.45 0.35 42 C0.58 41.56 0.9 41.21 1.32 40.97 C1.74 40.73 2.22 40.61 2.76
								 40.61 C3.27 40.61 3.72 40.73 4.12 40.96 C4.52 41.19 4.83 41.53 5.05 41.95 C5.28 42.38 5.39 42.87
								 5.39 43.42 ZM4.08 43.49 C4.08 42.93 3.96 42.49 3.72 42.16 C3.48 41.84 3.14 41.68 2.72 41.68 C2.29
								 41.68 1.95 41.84 1.69 42.17 C1.43 42.49 1.3 42.92 1.3 43.46 C1.3 44 1.43 44.43 1.68 44.75 C1.94
								 45.07 2.27 45.23 2.69 45.23 C3.12 45.23 3.46 45.07 3.71 44.76 C3.96 44.45 4.08 44.03 4.08 43.49
								 Z" class="st5"/>
				</g>
				<g id="shape89-43" v:mID="89" v:groupContext="shape" transform="translate(12.7696,-6.74409)">
					<title>Sheet.89</title>
					<g id="shadow89-44" v:groupContext="shadow" v:shadowOffsetX="0.3456" v:shadowOffsetY="-1.9728" v:shadowType="1"
							transform="matrix(1,0,0,1,0.3456,1.9728)" class="st1">
						<path d="M3.27 47.58 L0 47.58 L0 42.08 L1.24 42.08 L1.24 46.57 L3.27 46.57 L3.27 47.58 Z" class="st2"/>
					</g>
					<path d="M3.27 47.58 L0 47.58 L0 42.08 L1.24 42.08 L1.24 46.57 L3.27 46.57 L3.27 47.58 Z" class="st5"/>
				</g>
			</g>
			<g id="group310-48" transform="translate(15.2727,-1.42109E-14)" v:mID="310" v:groupContext="group">
				<title>Sheet.310</title>
				<g id="shape308-49" v:mID="308" v:groupContext="shape" transform="translate(2.84692,-3.53666)">
					<title>Sheet.308</title>
					<rect x="0" y="39.3685" width="2.62195" height="8.20754" class="st8"/>
				</g>
				<g id="group221-51" v:mID="221" v:groupContext="group">
					<title>Alert</title>
					<g id="shape222-52" v:mID="222" v:groupContext="shape" transform="translate(-3.63646,-1.93325)">
						<title>Sheet.222</title>
						<g id="shadow222-53" v:groupContext="shadow" v:shadowOffsetX="0.3456" v:shadowOffsetY="-1.9728"
								v:shadowType="1" transform="matrix(1,0,0,1,0.3456,1.9728)" class="st1">
							<path d="M14.97 45.92 L11.85 40.84 L8.69 35.5 C8.19 34.65 7.23 34.65 6.73 35.46 L3.62 40.54 L0.5 45.92
										 C0 46.77 0.54 47.58 1.54 47.58 L7.73 47.58 L13.93 47.58 C14.97 47.54 15.47 46.73 14.97 45.92
										 ZM8.58 38.46 L8.35 42.96 L7.16 42.96 L6.93 38.46 L8.58 38.46 ZM7.73 45.73 C7.16 45.73 6.77
										 45.31 6.77 44.77 C6.77 44.19 7.16 43.81 7.73 43.81 C8.31 43.81 8.66 44.19 8.69 44.77 C8.69
										 45.31 8.31 45.73 7.73 45.73 Z" class="st2"/>
						</g>
						<path d="M14.97 45.92 L11.85 40.84 L8.69 35.5 C8.19 34.65 7.23 34.65 6.73 35.46 L3.62 40.54 L0.5 45.92 C0
									 46.77 0.54 47.58 1.54 47.58 L7.73 47.58 L13.93 47.58 C14.97 47.54 15.47 46.73 14.97 45.92 ZM8.58
									 38.46 L8.35 42.96 L7.16 42.96 L6.93 38.46 L8.58 38.46 ZM7.73 45.73 C7.16 45.73 6.77 45.31 6.77
									 44.77 C6.77 44.19 7.16 43.81 7.73 43.81 C8.31 43.81 8.66 44.19 8.69 44.77 C8.69 45.31 8.31 45.73
									 7.73 45.73 Z" class="st9"/>
					</g>
					<g id="group223-57" v:mID="223" v:groupContext="group">
						<title>Sheet.223</title>
					</g>
				</g>
			</g>
		</g>
	</g>
</svg>
