<?xml version="1.0" encoding="UTF-8" standalone="no"?>
<!DOCTYPE svg PUBLIC "-//W3C//DTD SVG 1.1//EN" "http://www.w3.org/Graphics/SVG/1.1/DTD/svg11.dtd">
<!-- Generated by Microsoft Visio, SVG Export SubnetUnderAttack.svg Page-1 -->
<svg xmlns="http://www.w3.org/2000/svg" xmlns:xlink="http://www.w3.org/1999/xlink" xmlns:ev="http://www.w3.org/2001/xml-events"
		xmlns:v="http://schemas.microsoft.com/visio/2003/SVGExtensions/" width="0.396261in" height="0.274783in"
		viewBox="0 0 28.5308 19.7844" xml:space="preserve" color-interpolation-filters="sRGB" class="st7">
	<v:documentProperties v:langID="1033" v:viewMarkup="false"/>

	<style type="text/css">
	<![CDATA[
		.st1 {fill:#3999c6;stroke:none;stroke-linecap:round;stroke-linejoin:round;stroke-width:0.75}
		.st2 {fill:#7fba00;stroke:none;stroke-linecap:round;stroke-linejoin:round;stroke-width:0.75}
		.st3 {fill:#ffffff;stroke:none;stroke-linecap:round;stroke-linejoin:round;stroke-width:0.75}
		.st4 {visibility:visible}
		.st5 {fill:#5b9bd5;fill-opacity:0.22;filter:url(#filter_2);stroke:none}
		.st6 {fill:#c00000;stroke:none;stroke-width:4.02632}
		.st7 {fill:none;fill-rule:evenodd;font-size:12px;overflow:visible;stroke-linecap:square;stroke-miterlimit:3}
	]]>
	</style>

	<defs id="Filters">
		<filter id="filter_2">
			<feGaussianBlur stdDeviation="2"/>
		</filter>
	</defs>
	<g v:mID="0" v:index="1" v:groupContext="foregroundPage">
		<title>Page-1</title>
		<v:pageProperties v:drawingScale="1" v:pageScale="1" v:drawingUnits="19" v:shadowOffsetX="9" v:shadowOffsetY="-9"/>
		<g id="group317-1" transform="translate(6.39488E-14,-4.0062)" v:mID="317" v:groupContext="group">
			<title>Sheet.317</title>
			<g id="group74-2" transform="translate(1.21902E-13,-1.59283)" v:mID="74" v:groupContext="group">
				<title>Networking/VNET Integration</title>
				<g id="shape75-3" v:mID="75" v:groupContext="shape" transform="translate(18.4488,0)">
					<title>Sheet.75</title>
					<path d="M8.03 12.61 L6.46 11.04 L0.91 5.6 L0 6.42 L6.29 12.61 L0 18.96 L0.91 19.78 L6.46 14.34 L8.03 12.61 L8.03
								 12.61 Z" class="st1"/>
				</g>
				<g id="shape76-5" v:mID="76" v:groupContext="shape">
					<title>Sheet.76</title>
					<path d="M0 12.61 L1.57 11.04 L7.12 5.6 L8.03 6.42 L1.74 12.61 L8.03 18.96 L7.12 19.78 L1.57 14.34 L0 12.61 L0
								 12.61 Z" class="st1"/>
				</g>
				<g id="shape77-7" v:mID="77" v:groupContext="shape" transform="translate(6.78096,-5.60112)">
					<title>Sheet.77</title>
					<path d="M3.23 18.21 C3.23 19.12 2.49 19.78 1.65 19.78 C0.83 19.78 -0 19.03 0 18.21 C0 17.39 0.67 16.64 1.65
								 16.64 C2.56 16.64 3.23 17.39 3.23 18.21 Z" class="st2"/>
				</g>
				<g id="shape78-9" v:mID="78" v:groupContext="shape" transform="translate(11.5841,-5.60112)">
					<title>Sheet.78</title>
					<path d="M3.22 18.21 C3.22 19.12 2.48 19.78 1.65 19.78 C0.83 19.78 -0 19.03 0 18.21 C0 17.39 0.74 16.64 1.65
								 16.64 C2.56 16.64 3.22 17.39 3.22 18.21 Z" class="st2"/>
				</g>
				<g id="shape79-11" v:mID="79" v:groupContext="shape" transform="translate(16.5443,-5.60112)">
					<title>Sheet.79</title>
					<path d="M3.15 18.21 C3.15 17.34 2.44 16.64 1.57 16.64 C0.71 16.64 0 17.34 0 18.21 C-0 19.08 0.71 19.78 1.57
								 19.78 C2.44 19.78 3.15 19.08 3.15 18.21 Z" class="st2"/>
				</g>
			</g>
			<g id="group310-13" transform="translate(18.742,-7.10543E-15)" v:mID="310" v:groupContext="group">
				<title>Sheet.310</title>
				<g id="shape308-14" v:mID="308" v:groupContext="shape" transform="translate(1.42346,-1.76833)">
					<title>Sheet.308</title>
					<rect x="0" y="15.6806" width="1.31097" height="4.10377" class="st3"/>
				</g>
				<g id="group221-16" v:mID="221" v:groupContext="group">
					<title>Alert</title>
					<g id="shape222-17" v:mID="222" v:groupContext="shape" transform="translate(-1.81823,-0.966627)">
						<title>Sheet.222</title>
						<g id="shadow222-18" v:groupContext="shadow" v:shadowOffsetX="0.3456" v:shadowOffsetY="-1.9728"
								v:shadowType="1" transform="matrix(1,0,0,1,0.3456,1.9728)" class="st4">
							<path d="M7.48 18.96 L5.92 16.42 L4.35 13.74 C4.1 13.32 3.62 13.32 3.37 13.72 L1.81 16.26 L0.25 18.96
										 C0 19.38 0.27 19.78 0.77 19.78 L3.87 19.78 L6.96 19.78 C7.48 19.77 7.73 19.36 7.48 18.96
										 ZM4.29 15.23 L4.17 17.48 L3.58 17.48 L3.46 15.23 L4.29 15.23 ZM3.87 18.86 C3.58 18.86 3.39
										 18.65 3.39 18.38 C3.39 18.09 3.58 17.9 3.87 17.9 C4.16 17.9 4.33 18.09 4.35 18.38 C4.35
										 18.65 4.16 18.86 3.87 18.86 Z" class="st5"/>
						</g>
						<path d="M7.48 18.96 L5.92 16.42 L4.35 13.74 C4.1 13.32 3.62 13.32 3.37 13.72 L1.81 16.26 L0.25 18.96 C0
									 19.38 0.27 19.78 0.77 19.78 L3.87 19.78 L6.96 19.78 C7.48 19.77 7.73 19.36 7.48 18.96 ZM4.29
									 15.23 L4.17 17.48 L3.58 17.48 L3.46 15.23 L4.29 15.23 ZM3.87 18.86 C3.58 18.86 3.39 18.65 3.39
									 18.38 C3.39 18.09 3.58 17.9 3.87 17.9 C4.16 17.9 4.33 18.09 4.35 18.38 C4.35 18.65 4.16 18.86
									 3.87 18.86 Z" class="st6"/>
					</g>
					<g id="group223-22" v:mID="223" v:groupContext="group">
						<title>Sheet.223</title>
					</g>
				</g>
			</g>
		</g>
	</g>
</svg>
