<?xml version="1.0" encoding="UTF-8" standalone="no"?>
<!DOCTYPE svg PUBLIC "-//W3C//DTD SVG 1.1//EN" "http://www.w3.org/Graphics/SVG/1.1/DTD/svg11.dtd">
<!-- Generated by Microsoft Visio, SVG Export enable_auditing.svg Page-1 -->
<svg xmlns="http://www.w3.org/2000/svg" xmlns:xlink="http://www.w3.org/1999/xlink" xmlns:ev="http://www.w3.org/2001/xml-events"
		xmlns:v="http://schemas.microsoft.com/visio/2003/SVGExtensions/" width="0.885417in" height="0.861111in"
		viewBox="0 0 63.75 62" xml:space="preserve" color-interpolation-filters="sRGB" class="st18">
	<v:documentProperties v:langID="1033" v:viewMarkup="false"/>

	<style type="text/css">
	<![CDATA[
		.st1 {fill:#ffffff;stroke:none;stroke-linecap:round;stroke-linejoin:round;stroke-width:0.75}
		.st2 {visibility:visible}
		.st3 {fill:#5b9bd5;fill-opacity:0.22;filter:url(#filter_2);stroke:none}
		.st4 {fill:#0072c6;stroke:none;stroke-width:12.24}
		.st5 {fill:#ffffff;fill-opacity:0.15;stroke:none;stroke-width:12.24}
		.st6 {fill:#ffffff;stroke:none;stroke-width:12.24}
		.st7 {fill:#7fba00;stroke:none;stroke-width:12.24}
		.st8 {fill:#b8d432;stroke:none;stroke-width:12.24}
		.st9 {fill:#3e3e3e;stroke:none;stroke-width:12.24}
		.st10 {fill:#652144;stroke:none;stroke-linecap:butt;stroke-width:0.606481}
		.st11 {fill:#f2d291;stroke:none;stroke-linecap:butt;stroke-width:0.606481}
		.st12 {fill:#421b0b;stroke:none;stroke-linecap:butt;stroke-width:0.606481}
		.st13 {fill:#000000;stroke:none;stroke-linecap:butt;stroke-width:0.606481}
		.st14 {fill:#d4a15e;stroke:none;stroke-linecap:butt;stroke-width:0.606481}
		.st15 {fill:#edba68;stroke:none;stroke-linecap:butt;stroke-width:0.606481}
		.st16 {fill:#ffffff;stroke:none;stroke-linecap:butt;stroke-width:0.606481}
		.st17 {fill:#993366;stroke:none;stroke-linecap:butt;stroke-width:0.606481}
		.st18 {fill:none;fill-rule:evenodd;font-size:12px;overflow:visible;stroke-linecap:square;stroke-miterlimit:3}
	]]>
	</style>

	<defs id="Filters">
		<filter id="filter_2">
			<feGaussianBlur stdDeviation="2"/>
		</filter>
	</defs>
	<g v:mID="0" v:index="1" v:groupContext="foregroundPage">
		<title>Page-1</title>
		<v:pageProperties v:drawingScale="1" v:pageScale="1" v:drawingUnits="19" v:shadowOffsetX="9" v:shadowOffsetY="-9"/>
		<g id="shape656-1" v:mID="656" v:groupContext="shape" transform="translate(0.375,-0.375)">
			<title>Sheet.656</title>
			<rect x="0" y="0.749998" width="63" height="61.25" class="st1"/>
		</g>
		<g id="group80-3" transform="translate(23.1094,-19.3811)" v:mID="80" v:groupContext="group">
			<title>SQL Database</title>
			<g id="shape81-4" v:mID="81" v:groupContext="shape">
				<title>Sheet.81</title>
				<g id="shadow81-5" v:groupContext="shadow" v:shadowOffsetX="0.3456" v:shadowOffsetY="-1.9728" v:shadowType="1"
						transform="matrix(1,0,0,1,0.3456,1.9728)" class="st2">
					<path d="M0 41.94 L0 58.82 C0 60.58 3.92 62 8.77 62 L8.77 41.94 C8.77 41.94 0 41.94 0 41.94 Z" class="st3"/>
				</g>
				<path d="M0 41.94 L0 58.82 C0 60.58 3.92 62 8.77 62 L8.77 41.94 C8.77 41.94 0 41.94 0 41.94 Z" class="st4"/>
			</g>
			<g id="shape82-9" v:mID="82" v:groupContext="shape" transform="translate(8.64541,-0.000467673)">
				<title>Sheet.82</title>
				<g id="shadow82-10" v:groupContext="shadow" v:shadowOffsetX="0.3456" v:shadowOffsetY="-1.9728" v:shadowType="1"
						transform="matrix(1,0,0,1,0.3456,1.9728)" class="st2">
					<path d="M0 62 L0.12 62 C4.96 62 8.89 60.58 8.89 58.83 L8.89 41.94 L0 41.94 L0 62 Z" class="st3"/>
				</g>
				<path d="M0 62 L0.12 62 C4.96 62 8.89 60.58 8.89 58.83 L8.89 41.94 L0 41.94 L0 62 Z" class="st4"/>
			</g>
			<g id="shape83-14" v:mID="83" v:groupContext="shape" transform="translate(8.64541,-0.000467673)">
				<title>Sheet.83</title>
				<g id="shadow83-15" v:groupContext="shadow" v:shadowOffsetX="0.3456" v:shadowOffsetY="-1.9728" v:shadowType="1"
						transform="matrix(1,0,0,1,0.3456,1.9728)" class="st2">
					<path d="M0 62 L0.12 62 C4.96 62 8.89 60.58 8.89 58.83 L8.89 41.94 L0 41.94 L0 62 Z" class="st3"/>
				</g>
				<path d="M0 62 L0.12 62 C4.96 62 8.89 60.58 8.89 58.83 L8.89 41.94 L0 41.94 L0 62 Z" class="st5"/>
			</g>
			<g id="shape84-19" v:mID="84" v:groupContext="shape" transform="translate(0,-16.8886)">
				<title>Sheet.84</title>
				<g id="shadow84-20" v:groupContext="shadow" v:shadowOffsetX="0.3456" v:shadowOffsetY="-1.9728" v:shadowType="1"
						transform="matrix(1,0,0,1,0.3456,1.9728)" class="st2">
					<path d="M17.53 58.83 C17.53 60.58 13.61 62 8.77 62 C3.92 62 0 60.58 0 58.83 C0 57.07 3.92 55.65 8.77 55.65 C13.61
								 55.65 17.53 57.07 17.53 58.83 Z" class="st3"/>
				</g>
				<path d="M17.53 58.83 C17.53 60.58 13.61 62 8.77 62 C3.92 62 0 60.58 0 58.83 C0 57.07 3.92 55.65 8.77 55.65 C13.61
							 55.65 17.53 57.07 17.53 58.83 Z" class="st6"/>
			</g>
			<g id="shape85-24" v:mID="85" v:groupContext="shape" transform="translate(1.79166,-18.1513)">
				<title>Sheet.85</title>
				<g id="shadow85-25" v:groupContext="shadow" v:shadowOffsetX="0.3456" v:shadowOffsetY="-1.9728" v:shadowType="1"
						transform="matrix(1,0,0,1,0.3456,1.9728)" class="st2">
					<path d="M13.95 59.91 C13.95 61.06 10.83 62 6.97 62 C3.12 62 0 61.06 0 59.91 C0 58.75 3.12 57.81 6.97 57.81 C10.83
								 57.81 13.95 58.75 13.95 59.91 Z" class="st3"/>
				</g>
				<path d="M13.95 59.91 C13.95 61.06 10.83 62 6.97 62 C3.12 62 0 61.06 0 59.91 C0 58.75 3.12 57.81 6.97 57.81 C10.83
							 57.81 13.95 58.75 13.95 59.91 Z" class="st7"/>
			</g>
			<g id="shape86-29" v:mID="86" v:groupContext="shape" transform="translate(1.79212,-18.966)">
				<title>Sheet.86</title>
				<g id="shadow86-30" v:groupContext="shadow" v:shadowOffsetX="0.3456" v:shadowOffsetY="-1.9728" v:shadowType="1"
						transform="matrix(1,0,0,1,0.3456,1.9728)" class="st2">
					<path d="M12.49 62 C13.4 61.65 13.95 61.2 13.95 60.72 C13.95 59.56 10.83 58.63 6.97 58.63 C3.12 58.63 0 59.56
								 0 60.72 C0 61.2 0.55 61.65 1.46 62 C2.74 61.51 4.73 61.19 6.97 61.19 C9.22 61.19 11.21 61.51 12.49
								 62 Z" class="st3"/>
				</g>
				<path d="M12.49 62 C13.4 61.65 13.95 61.2 13.95 60.72 C13.95 59.56 10.83 58.63 6.97 58.63 C3.12 58.63 0 59.56 0 60.72
							 C0 61.2 0.55 61.65 1.46 62 C2.74 61.51 4.73 61.19 6.97 61.19 C9.22 61.19 11.21 61.51 12.49 62 Z"
						class="st8"/>
			</g>
			<g id="shape87-34" v:mID="87" v:groupContext="shape" transform="translate(2.37859,-6.68913)">
				<title>Sheet.87</title>
				<g id="shadow87-35" v:groupContext="shadow" v:shadowOffsetX="0.3456" v:shadowOffsetY="-1.9728" v:shadowType="1"
						transform="matrix(1,0,0,1,0.3456,1.9728)" class="st2">
					<path d="M3.6 60.35 C3.6 60.87 3.41 61.28 3.03 61.57 C2.65 61.86 2.13 62 1.45 62 C0.88 62 0.41 61.9 0.02 61.69
								 L0.02 60.46 C0.47 60.83 0.95 61.02 1.48 61.02 C1.74 61.02 1.94 60.97 2.08 60.87 C2.22 60.76 2.29
								 60.63 2.29 60.46 C2.29 60.29 2.22 60.14 2.09 60.02 C1.95 59.9 1.68 59.74 1.27 59.54 C0.42 59.15
								 0 58.61 0 57.92 C0 57.43 0.18 57.03 0.55 56.73 C0.92 56.43 1.41 56.28 2.02 56.28 C2.56 56.28 3 56.35
								 3.36 56.49 L3.36 57.64 C2.99 57.39 2.56 57.26 2.09 57.26 C1.85 57.26 1.66 57.31 1.52 57.41 C1.38
								 57.51 1.31 57.65 1.31 57.82 C1.31 57.99 1.37 58.14 1.48 58.25 C1.59 58.36 1.82 58.5 2.17 58.66 C2.69
								 58.91 3.05 59.16 3.27 59.41 C3.49 59.66 3.6 59.97 3.6 60.35 Z" class="st3"/>
				</g>
				<path d="M3.6 60.35 C3.6 60.87 3.41 61.28 3.03 61.57 C2.65 61.86 2.13 62 1.45 62 C0.88 62 0.41 61.9 0.02 61.69 L0.02
							 60.46 C0.47 60.83 0.95 61.02 1.48 61.02 C1.74 61.02 1.94 60.97 2.08 60.87 C2.22 60.76 2.29 60.63 2.29
							 60.46 C2.29 60.29 2.22 60.14 2.09 60.02 C1.95 59.9 1.68 59.74 1.27 59.54 C0.42 59.15 0 58.61 0 57.92
							 C0 57.43 0.18 57.03 0.55 56.73 C0.92 56.43 1.41 56.28 2.02 56.28 C2.56 56.28 3 56.35 3.36 56.49 L3.36
							 57.64 C2.99 57.39 2.56 57.26 2.09 57.26 C1.85 57.26 1.66 57.31 1.52 57.41 C1.38 57.51 1.31 57.65 1.31
							 57.82 C1.31 57.99 1.37 58.14 1.48 58.25 C1.59 58.36 1.82 58.5 2.17 58.66 C2.69 58.91 3.05 59.16 3.27
							 59.41 C3.49 59.66 3.6 59.97 3.6 60.35 Z" class="st6"/>
			</g>
			<g id="shape88-39" v:mID="88" v:groupContext="shape" transform="translate(6.51329,-5.40443)">
				<title>Sheet.88</title>
				<g id="shadow88-40" v:groupContext="shadow" v:shadowOffsetX="0.3456" v:shadowOffsetY="-1.9728" v:shadowType="1"
						transform="matrix(1,0,0,1,0.3456,1.9728)" class="st2">
					<path d="M5.42 57.81 C5.42 58.46 5.27 59.03 4.98 59.51 C4.68 59.99 4.26 60.32 3.73 60.51 L5.33 62 L3.71 62 L2.57
								 60.72 C2.07 60.7 1.63 60.57 1.24 60.33 C0.84 60.08 0.54 59.75 0.32 59.33 C0.11 58.91 0 58.44 0 57.93
								 C0 57.35 0.12 56.84 0.35 56.39 C0.58 55.94 0.91 55.6 1.33 55.36 C1.75 55.12 2.24 54.99 2.78 54.99
								 C3.29 54.99 3.75 55.11 4.15 55.35 C4.55 55.58 4.86 55.91 5.09 56.34 C5.31 56.78 5.42 57.27 5.42
								 57.81 ZM4.11 57.88 C4.11 57.32 3.99 56.88 3.74 56.55 C3.5 56.23 3.16 56.07 2.74 56.07 C2.31 56.07
								 1.96 56.23 1.7 56.56 C1.44 56.88 1.31 57.32 1.31 57.86 C1.31 58.4 1.44 58.83 1.69 59.15 C1.95 59.48
								 2.29 59.64 2.71 59.64 C3.14 59.64 3.48 59.48 3.73 59.17 C3.98 58.86 4.11 58.43 4.11 57.88 Z"
							class="st3"/>
				</g>
				<path d="M5.42 57.81 C5.42 58.46 5.27 59.03 4.98 59.51 C4.68 59.99 4.26 60.32 3.73 60.51 L5.33 62 L3.71 62 L2.57
							 60.72 C2.07 60.7 1.63 60.57 1.24 60.33 C0.84 60.08 0.54 59.75 0.32 59.33 C0.11 58.91 0 58.44 0 57.93
							 C0 57.35 0.12 56.84 0.35 56.39 C0.58 55.94 0.91 55.6 1.33 55.36 C1.75 55.12 2.24 54.99 2.78 54.99 C3.29
							 54.99 3.75 55.11 4.15 55.35 C4.55 55.58 4.86 55.91 5.09 56.34 C5.31 56.78 5.42 57.27 5.42 57.81 ZM4.11
							 57.88 C4.11 57.32 3.99 56.88 3.74 56.55 C3.5 56.23 3.16 56.07 2.74 56.07 C2.31 56.07 1.96 56.23 1.7
							 56.56 C1.44 56.88 1.31 57.32 1.31 57.86 C1.31 58.4 1.44 58.83 1.69 59.15 C1.95 59.48 2.29 59.64 2.71
							 59.64 C3.14 59.64 3.48 59.48 3.73 59.17 C3.98 58.86 4.11 58.43 4.11 57.88 Z" class="st6"/>
			</g>
			<g id="shape89-44" v:mID="89" v:groupContext="shape" transform="translate(12.8479,-6.78547)">
				<title>Sheet.89</title>
				<g id="shadow89-45" v:groupContext="shadow" v:shadowOffsetX="0.3456" v:shadowOffsetY="-1.9728" v:shadowType="1"
						transform="matrix(1,0,0,1,0.3456,1.9728)" class="st2">
					<path d="M3.29 62 L0 62 L0 56.47 L1.25 56.47 L1.25 60.99 L3.29 60.99 L3.29 62 Z" class="st3"/>
				</g>
				<path d="M3.29 62 L0 62 L0 56.47 L1.25 56.47 L1.25 60.99 L3.29 60.99 L3.29 62 Z" class="st6"/>
			</g>
		</g>
		<g id="shape611-49" v:mID="611" v:groupContext="shape" transform="translate(22.4374,-16.2397)">
			<title>Sheet.611</title>
			<g id="shadow611-50" v:groupContext="shadow" v:shadowOffsetX="0.3456" v:shadowOffsetY="-1.9728" v:shadowType="1"
					transform="matrix(1,0,0,1,0.3456,1.9728)" class="st2">
				<path d="M8.77 54.47 C8.3 53.7 7.56 53.15 6.68 52.93 C6.41 52.87 6.13 52.82 5.86 52.82 C4.29 52.82 2.94 53.89 2.56
							 55.4 C2.34 56.25 2.47 57.13 2.91 57.9 L0.33 60.52 C0 60.85 0 61.42 0.33 61.75 C0.52 61.92 0.74 62 0.96
							 62 C1.18 62 1.4 61.92 1.59 61.75 L4.18 59.14 C4.45 59.31 4.76 59.42 5.06 59.5 C5.33 59.55 5.61 59.61
							 5.88 59.61 C7.45 59.61 8.8 58.54 9.18 57.02 C9.38 56.14 9.24 55.24 8.77 54.47 ZM8.17 56.78 C7.89 57.85
							 6.96 58.59 5.86 58.59 C5.66 58.59 5.47 58.56 5.28 58.51 C5 58.43 4.73 58.32 4.51 58.15 C4.26 57.99 4.07
							 57.77 3.9 57.55 C3.55 57 3.38 56.34 3.55 55.65 C3.82 54.58 4.76 53.83 5.86 53.83 C6.05 53.83 6.24 53.86
							 6.43 53.92 C7.04 54.08 7.56 54.44 7.89 54.99 C8.22 55.54 8.33 56.17 8.17 56.78 Z" class="st3"/>
			</g>
			<path d="M8.77 54.47 C8.3 53.7 7.56 53.15 6.68 52.93 C6.41 52.87 6.13 52.82 5.86 52.82 C4.29 52.82 2.94 53.89 2.56 55.4
						 C2.34 56.25 2.47 57.13 2.91 57.9 L0.33 60.52 C0 60.85 0 61.42 0.33 61.75 C0.52 61.92 0.74 62 0.96 62 C1.18
						 62 1.4 61.92 1.59 61.75 L4.18 59.14 C4.45 59.31 4.76 59.42 5.06 59.5 C5.33 59.55 5.61 59.61 5.88 59.61 C7.45
						 59.61 8.8 58.54 9.18 57.02 C9.38 56.14 9.24 55.24 8.77 54.47 ZM8.17 56.78 C7.89 57.85 6.96 58.59 5.86 58.59
						 C5.66 58.59 5.47 58.56 5.28 58.51 C5 58.43 4.73 58.32 4.51 58.15 C4.26 57.99 4.07 57.77 3.9 57.55 C3.55
						 57 3.38 56.34 3.55 55.65 C3.82 54.58 4.76 53.83 5.86 53.83 C6.05 53.83 6.24 53.86 6.43 53.92 C7.04 54.08
						 7.56 54.44 7.89 54.99 C8.22 55.54 8.33 56.17 8.17 56.78 Z" class="st9"/>
		</g>
		<g id="group613-54" transform="translate(15.791,-8.85099)" v:mID="613" v:groupContext="group">
			<title>Girl #1</title>
			<g id="group614-55" transform="translate(0.96392,2.13163E-14)" v:mID="614" v:groupContext="group">
				<title>Sheet.614</title>
				<g id="shape615-56" v:mID="615" v:groupContext="shape">
					<title>Sheet.615</title>
					<path d="M0.93 61.1 L1.74 61.1 C1.85 61.4 1.8 61.67 1.74 62 L1.54 62 L1.54 61.88 C1.54 61.79 1.47 61.72 1.38
								 61.72 C1.3 61.72 1.23 61.79 1.23 61.88 L1.23 62 L0 62 C0 61.8 0.12 61.63 0.28 61.5 C0.49 61.32 0.85
								 61.2 0.93 61.1 Z" class="st10"/>
				</g>
			</g>
			<g id="group616-58" transform="translate(1.23599,-0.388677)" v:mID="616" v:groupContext="group">
				<title>Sheet.616</title>
				<g id="shape617-59" v:mID="617" v:groupContext="shape">
					<title>Sheet.617</title>
					<path d="M0.6 57.99 L0.61 61.49 C0.53 61.59 0.22 61.71 0 61.89 C0.52 62 1.06 61.84 1.46 61.49 L1.46 57.99 L0.6
								 57.99 Z" class="st11"/>
				</g>
			</g>
			<g id="group618-61" transform="translate(3.07055,2.13163E-14)" v:mID="618" v:groupContext="group">
				<title>Sheet.618</title>
				<g id="shape619-62" v:mID="619" v:groupContext="shape">
					<title>Sheet.619</title>
					<path d="M0.92 61.1 L0.11 61.1 C0 61.4 0.05 61.67 0.11 62 L0.31 62 L0.31 61.88 C0.31 61.79 0.38 61.72 0.47 61.72
								 C0.55 61.72 0.62 61.79 0.62 61.88 L0.62 62 L1.86 62 C1.86 61.8 1.73 61.63 1.58 61.5 C1.36 61.32
								 1 61.2 0.92 61.1 Z" class="st10"/>
				</g>
			</g>
			<g id="group620-64" transform="translate(3.17938,-0.388677)" v:mID="620" v:groupContext="group">
				<title>Sheet.620</title>
				<g id="shape621-65" v:mID="621" v:groupContext="shape">
					<title>Sheet.621</title>
					<path d="M0.86 58.11 L0.86 61.49 C0.93 61.59 1.24 61.71 1.46 61.89 C0.94 62 0.4 61.84 0 61.49 L0 58.11 L0.86
								 58.11 Z" class="st11"/>
				</g>
			</g>
			<g id="group622-67" transform="translate(1.46143,-13.6193)" v:mID="622" v:groupContext="group">
				<title>Sheet.622</title>
				<g id="shape623-68" v:mID="623" v:groupContext="shape">
					<title>Sheet.623</title>
					<path d="M1.48 62 C2.29 62 2.95 61.34 2.95 60.52 C2.95 59.71 2.29 59.05 1.48 59.05 C0.66 59.05 0 59.71 0 60.52
								 C0 61.34 0.66 62 1.48 62 Z" class="st12"/>
				</g>
			</g>
			<g id="group624-70" transform="translate(4.24436,-4.01115)" v:mID="624" v:groupContext="group">
				<title>Sheet.624</title>
				<g id="shape625-71" v:mID="625" v:groupContext="shape">
					<title>Sheet.625</title>
					<path d="M0.44 57.45 C0.52 58.09 0.75 59.82 0.9 60.79 C0.89 60.8 0.88 60.82 0.87 60.83 L0.7 61.29 C0.68 61.37
								 0.72 61.46 0.79 61.49 C0.87 61.51 0.96 61.47 0.99 61.39 L1.05 61.22 L1.03 61.84 C1.03 61.93 1.09
								 61.99 1.17 62 C1.26 62 1.32 61.94 1.33 61.85 L1.33 61.77 C1.34 61.77 1.34 61.77 1.35 61.77 C1.44
								 61.77 1.5 61.7 1.51 61.62 L1.51 61.53 C1.55 61.51 1.59 61.46 1.59 61.41 L1.62 60.46 C1.62 60.42
								 1.61 60.38 1.59 60.35 C1.39 59.05 1.24 57.74 1.01 56.43 C0.96 56.13 0.67 55.49 0 55.6 L0.34 57.44
								 L0.44 57.45 Z" class="st11"/>
				</g>
			</g>
			<g id="group626-73" transform="translate(0,-4.01115)" v:mID="626" v:groupContext="group">
				<title>Sheet.626</title>
				<g id="shape627-74" v:mID="627" v:groupContext="shape">
					<title>Sheet.627</title>
					<path d="M1.2 57.45 C1.11 58.09 0.88 59.82 0.73 60.79 C0.75 60.8 0.75 60.82 0.76 60.83 L0.93 61.29 C0.96 61.37
								 0.92 61.46 0.84 61.49 C0.76 61.51 0.68 61.47 0.65 61.39 L0.58 61.22 L0.61 61.84 C0.61 61.93 0.54
								 61.99 0.46 62 C0.37 62 0.31 61.94 0.3 61.85 L0.3 61.77 C0.3 61.77 0.29 61.77 0.28 61.77 C0.19 61.77
								 0.13 61.7 0.12 61.62 L0.12 61.53 C0.08 61.51 0.05 61.46 0.05 61.41 L0 60.47 C0 60.43 0.02 60.39
								 0.04 60.36 C0.23 59.05 0.39 57.74 0.61 56.44 C0.67 56.14 0.96 55.49 1.62 55.61 L1.28 57.45 L1.2
								 57.45 Z" class="st11"/>
				</g>
			</g>
			<g id="group628-76" transform="translate(1.21267,-7.40042)" v:mID="628" v:groupContext="group">
				<title>Sheet.628</title>
				<g id="shape629-77" v:mID="629" v:groupContext="shape">
					<title>Sheet.629</title>
					<path d="M0 62 L1.73 62 L3.47 62 L3.47 60.4 L3.45 60.25 L0 60.25 L0 62 Z" class="st13"/>
				</g>
			</g>
			<g id="group630-79" transform="translate(1.22045,-9.14947)" v:mID="630" v:groupContext="group">
				<title>Sheet.630</title>
				<g id="shape631-80" v:mID="631" v:groupContext="shape">
					<title>Sheet.631</title>
					<path d="M3.44 62 L3.43 61.53 C3.44 61.31 3.36 61.1 3.22 60.94 L3.22 60.75 L0.22 60.75 L0.22 60.94 C0.09 61.1
								 0.01 61.31 0.02 61.52 L0 61.97 L0 62 L3.44 62 Z" class="st11"/>
				</g>
			</g>
			<g id="group632-82" transform="translate(2.33984,-9.40599)" v:mID="632" v:groupContext="group">
				<title>Sheet.632</title>
				<g id="shape633-83" v:mID="633" v:groupContext="shape">
					<title>Sheet.633</title>
					<path d="M0 60.13 L1.2 60.13 L1.2 61.21 C1.2 62 0 62 0 61.21 L0 60.13 Z" class="st11"/>
				</g>
			</g>
			<g id="group634-85" transform="translate(2.33984,-9.93459)" v:mID="634" v:groupContext="group">
				<title>Sheet.634</title>
				<g id="shape635-86" v:mID="635" v:groupContext="shape">
					<title>Sheet.635</title>
					<path d="M1.14 62 L0 60.87 L0 60.66 L1.2 60.66 L1.2 61.74 C1.19 61.83 1.17 61.91 1.14 62 Z" class="st14"/>
				</g>
			</g>
			<g id="group636-88" transform="translate(1.18158,-10.6653)" v:mID="636" v:groupContext="group">
				<title>Sheet.636</title>
				<g id="shape637-89" v:mID="637" v:groupContext="shape">
					<title>Sheet.637</title>
					<path d="M1.76 57.4 C2.18 57.41 3.47 57.44 3.5 58.95 C3.52 60.46 3.2 61 2.99 61.23 C2.78 61.46 2.58 61.66 2.16
								 61.77 C1.95 61.99 1.59 62 1.37 61.78 C1.36 61.77 1.35 61.77 1.35 61.77 C0.93 61.66 0.72 61.46 0.52
								 61.23 C0.32 61 0 60.45 0.02 58.95 C0.03 57.45 1.32 57.41 1.76 57.4 Z" class="st11"/>
				</g>
			</g>
			<g id="group638-91" transform="translate(2.9384,-10.7275)" v:mID="638" v:groupContext="group">
				<title>Sheet.638</title>
				<g id="shape639-92" v:mID="639" v:groupContext="shape">
					<title>Sheet.639</title>
					<path d="M0 57.46 C0.43 57.47 1.72 57.51 1.74 59.01 C1.76 60.52 1.45 61.07 1.24 61.29 C1.03 61.52 0.82 61.72
								 0.4 61.83 C0.3 61.94 0.15 62 0 62 L0 57.46 Z" class="st15"/>
				</g>
			</g>
			<g id="group640-94" transform="translate(0.870637,-12.1034)" v:mID="640" v:groupContext="group">
				<title>Sheet.640</title>
				<g id="shape641-95" v:mID="641" v:groupContext="shape">
					<title>Sheet.641</title>
					<path d="M0.56 61.15 C0.54 61.05 0.45 60.97 0.35 60.96 C0.23 60.94 0 61 0 61.35 C0 61.7 0.3 62 0.48 61.96 C0.67
								 61.92 0.58 61.25 0.56 61.15 Z" class="st11"/>
				</g>
			</g>
			<g id="group642-97" transform="translate(4.32987,-12.1112)" v:mID="642" v:groupContext="group">
				<title>Sheet.642</title>
				<g id="shape643-98" v:mID="643" v:groupContext="shape">
					<title>Sheet.643</title>
					<path d="M0.08 61.16 C0.12 61.06 0.21 60.99 0.32 60.96 C0.44 60.94 0.67 61 0.67 61.35 C0.67 61.7 0.37 62 0.19
								 61.96 C0 61.92 0.08 61.16 0.08 61.16 Z" class="st15"/>
				</g>
			</g>
			<g id="group644-100" transform="translate(2.34761,-11.3027)" v:mID="644" v:groupContext="group">
				<title>Sheet.644</title>
				<g id="shape645-101" v:mID="645" v:groupContext="shape">
					<title>Sheet.645</title>
					<path d="M1.17 61.46 C1.13 61.78 0.82 62 0.5 61.95 C0.24 61.91 0.04 61.71 0 61.46 L1.17 61.46 Z" class="st16"/>
				</g>
			</g>
			<g id="group646-103" transform="translate(0.785128,-3.64579)" v:mID="646" v:groupContext="group">
				<title>Sheet.646</title>
				<g id="shape647-104" v:mID="647" v:groupContext="shape">
					<title>Sheet.647</title>
					<path d="M0.43 58 L2.15 58 L3.88 58 L4.31 62 L2.15 62 L0 62 L0.43 58 Z" class="st13"/>
				</g>
			</g>
			<g id="group648-106" transform="translate(1.21267,-7.60253)" v:mID="648" v:groupContext="group">
				<title>Sheet.648</title>
				<g id="shape649-107" v:mID="649" v:groupContext="shape">
					<title>Sheet.649</title>
					<rect x="0" y="61.518" width="3.45923" height="0.48196" class="st17"/>
				</g>
			</g>
			<g id="group650-109" transform="translate(0.85509,-13.0829)" v:mID="650" v:groupContext="group">
				<title>Sheet.650</title>
				<g id="shape651-110" v:mID="651" v:groupContext="shape">
					<title>Sheet.651</title>
					<path d="M2.99 60.69 C3.16 61.04 3.14 61.6 3.81 61.96 C4.25 60.33 3.11 59.57 2.01 59.6 C0.84 59.62 0 60.39 0.33
								 62 C0.69 61.48 2.78 60.92 2.99 60.69 Z" class="st12"/>
				</g>
			</g>
			<g id="group652-112" transform="translate(1.0572,-12.0257)" v:mID="652" v:groupContext="group">
				<title>Sheet.652</title>
				<g id="shape653-113" v:mID="653" v:groupContext="shape">
					<title>Sheet.653</title>
					<ellipse cx="0.171018" cy="61.829" rx="0.171018" ry="0.171018" class="st10"/>
				</g>
			</g>
			<g id="group654-115" transform="translate(4.46202,-12.0257)" v:mID="654" v:groupContext="group">
				<title>Sheet.654</title>
				<g id="shape655-116" v:mID="655" v:groupContext="shape">
					<title>Sheet.655</title>
					<ellipse cx="0.171018" cy="61.829" rx="0.171018" ry="0.171018" class="st10"/>
				</g>
			</g>
		</g>
	</g>
</svg>
