<?xml version="1.0" encoding="UTF-8" standalone="no"?>
<!DOCTYPE svg PUBLIC "-//W3C//DTD SVG 1.1//EN" "http://www.w3.org/Graphics/SVG/1.1/DTD/svg11.dtd">
<!-- Generated by Microsoft Visio, SVG Export Test.svg Page-1 -->
<svg xmlns="http://www.w3.org/2000/svg" xmlns:xlink="http://www.w3.org/1999/xlink" xmlns:ev="http://www.w3.org/2001/xml-events"
		width="0.856873in" height="0.856873in" viewBox="0 0 61.6949 61.6949" xml:space="preserve"
		color-interpolation-filters="sRGB" class="st20">
	<style type="text/css">
	<![CDATA[
		.st1 {fill:#ffffff;stroke:none;stroke-linecap:round;stroke-linejoin:round;stroke-width:0.75}
		.st2 {visibility:visible}
		.st3 {fill:#5b9bd5;fill-opacity:0.22;filter:url(#filter_2);stroke:none}
		.st4 {fill:#59b4d9;stroke:none;stroke-width:0.75}
		.st5 {fill:#a0a1a2;stroke:none;stroke-width:0.75}
		.st6 {fill:#ffffff;fill-opacity:0.2;stroke:none;stroke-width:0.75}
		.st7 {fill:#b8d432;stroke:none;stroke-width:0.75}
		.st8 {fill:#ffffff;stroke:none;stroke-width:0.75}
		.st9 {fill:#7a7a7a;stroke:none;stroke-width:0.75}
		.st10 {fill:#ffffff;fill-opacity:0.7;stroke:none;stroke-width:0.75}
		.st11 {fill:#ffffff;fill-opacity:0.4;stroke:none;stroke-width:0.75}
		.st12 {fill:#4a9f49;stroke:none;stroke-linecap:round;stroke-linejoin:round;stroke-width:0.75}
		.st13 {fill:#adc80b;stroke:none;stroke-linecap:round;stroke-linejoin:round;stroke-width:0.75}
		.st14 {fill:#cbe238;stroke:none;stroke-linecap:round;stroke-linejoin:round;stroke-width:0.75}
		.st15 {fill:#087e06;stroke:none;stroke-linecap:round;stroke-linejoin:round;stroke-width:0.75}
		.st16 {fill:#0879da;stroke:none;stroke-linecap:round;stroke-linejoin:round;stroke-width:0.75}
		.st17 {fill:#11bdf5;stroke:none;stroke-linecap:round;stroke-linejoin:round;stroke-width:0.75}
		.st18 {fill:#39cef7;stroke:none;stroke-linecap:round;stroke-linejoin:round;stroke-width:0.75}
		.st19 {fill:#035293;stroke:none;stroke-linecap:round;stroke-linejoin:round;stroke-width:0.75}
		.st20 {fill:none;fill-rule:evenodd;font-size:12px;overflow:visible;stroke-linecap:square;stroke-miterlimit:3}
	]]>
	</style>

	<defs id="Filters">
		<filter id="filter_2">
			<feGaussianBlur stdDeviation="2"/>
		</filter>
	</defs>
	<g>
		<title>Page-1</title>
		<g id="group121-1" transform="translate(0.375,-0.375)">
			<title>Sheet.121</title>
			<g id="shape119-2">
				<title>Sheet.119</title>
				<rect x="0" y="0.750001" width="60.9449" height="60.9449" class="st1"/>
			</g>
			<g id="group118-4" transform="translate(17.5913,-17.9349)">
				<title>Sheet.118</title>
				<g id="group87-5" transform="translate(5.9952E-15,-3.5959)">
					<title>Azure Virtual Machines - Availability Set</title>
					<g id="shape88-6" transform="translate(9.3078,-19.3313)">
						<title>Sheet.88</title>
						<g id="shadow88-7" transform="matrix(1,0,0,1,0.3456,1.9728)" class="st2">
							<rect x="0" y="59.547" width="2.86404" height="2.14792" class="st3"/>
						</g>
						<rect x="0" y="59.547" width="2.86404" height="2.14792" class="st4"/>
					</g>
					<g id="shape89-11" transform="translate(5.01196,-19.3313)">
						<title>Sheet.89</title>
						<g id="shadow89-12" transform="matrix(1,0,0,1,0.3456,1.9728)" class="st2">
							<rect x="0" y="59.547" width="2.86404" height="2.14792" class="st3"/>
						</g>
						<rect x="0" y="59.547" width="2.86404" height="2.14792" class="st4"/>
					</g>
					<g id="shape90-16" transform="translate(17.8995,0)">
						<title>Sheet.90</title>
						<g id="shadow90-17" transform="matrix(1,0,0,1,0.3456,1.9728)" class="st2">
							<path d="M1.43 59.55 L0 59.55 L0 61.69 L2.15 61.69 C2.94 61.69 3.58 61.05 3.58 60.26 L3.58 58.12 L1.43
										 58.12 L1.43 59.55 Z" class="st3"/>
						</g>
						<path d="M1.43 59.55 L0 59.55 L0 61.69 L2.15 61.69 C2.94 61.69 3.58 61.05 3.58 60.26 L3.58 58.12 L1.43 58.12
									 L1.43 59.55 Z" class="st4"/>
					</g>
					<g id="shape91-21" transform="translate(0,-5.01153)">
						<title>Sheet.91</title>
						<g id="shadow91-22" transform="matrix(1,0,0,1,0.3456,1.9728)" class="st2">
							<rect x="0" y="58.8308" width="2.14792" height="2.86404" class="st3"/>
						</g>
						<rect x="0" y="58.8308" width="2.14792" height="2.86404" class="st4"/>
					</g>
					<g id="shape92-26" transform="translate(9.3078,0)">
						<title>Sheet.92</title>
						<g id="shadow92-27" transform="matrix(1,0,0,1,0.3456,1.9728)" class="st2">
							<rect x="0" y="59.547" width="2.86404" height="2.14792" class="st3"/>
						</g>
						<rect x="0" y="59.547" width="2.86404" height="2.14792" class="st4"/>
					</g>
					<g id="shape93-31" transform="translate(19.3313,-5.01153)">
						<title>Sheet.93</title>
						<g id="shadow93-32" transform="matrix(1,0,0,1,0.3456,1.9728)" class="st2">
							<rect x="0" y="58.8308" width="2.14792" height="2.86404" class="st3"/>
						</g>
						<rect x="0" y="58.8308" width="2.14792" height="2.86404" class="st4"/>
					</g>
					<g id="shape94-36" transform="translate(13.6036,0)">
						<title>Sheet.94</title>
						<g id="shadow94-37" transform="matrix(1,0,0,1,0.3456,1.9728)" class="st2">
							<rect x="0" y="59.547" width="2.86404" height="2.14792" class="st3"/>
						</g>
						<rect x="0" y="59.547" width="2.86404" height="2.14792" class="st4"/>
					</g>
					<g id="shape95-41" transform="translate(5.01196,0)">
						<title>Sheet.95</title>
						<g id="shadow95-42" transform="matrix(1,0,0,1,0.3456,1.9728)" class="st2">
							<rect x="0" y="59.547" width="2.86404" height="2.14792" class="st3"/>
						</g>
						<rect x="0" y="59.547" width="2.86404" height="2.14792" class="st4"/>
					</g>
					<g id="shape96-46">
						<title>Sheet.96</title>
						<g id="shadow96-47" transform="matrix(1,0,0,1,0.3456,1.9728)" class="st2">
							<path d="M2.15 59.55 L2.15 58.12 L0 58.12 L0 60.26 C0 61.05 0.64 61.69 1.43 61.69 L3.58 61.69 L3.58 59.55
										 L2.15 59.55 Z" class="st3"/>
						</g>
						<path d="M2.15 59.55 L2.15 58.12 L0 58.12 L0 60.26 C0 61.05 0.64 61.69 1.43 61.69 L3.58 61.69 L3.58 59.55
									 L2.15 59.55 Z" class="st4"/>
					</g>
					<g id="shape97-51" transform="translate(0,-13.6032)">
						<title>Sheet.97</title>
						<g id="shadow97-52" transform="matrix(1,0,0,1,0.3456,1.9728)" class="st2">
							<rect x="0" y="58.8308" width="2.14792" height="2.86404" class="st3"/>
						</g>
						<rect x="0" y="58.8308" width="2.14792" height="2.86404" class="st4"/>
					</g>
					<g id="shape98-56" transform="translate(0,-17.8995)">
						<title>Sheet.98</title>
						<g id="shadow98-57" transform="matrix(1,0,0,1,0.3456,1.9728)" class="st2">
							<path d="M2.15 60.26 L3.58 60.26 L3.58 58.12 L1.43 58.12 C0.64 58.12 0 58.76 0 59.55 L0 61.69 L2.15 61.69
										 L2.15 60.26 Z" class="st3"/>
						</g>
						<path d="M2.15 60.26 L3.58 60.26 L3.58 58.12 L1.43 58.12 C0.64 58.12 0 58.76 0 59.55 L0 61.69 L2.15 61.69
									 L2.15 60.26 Z" class="st4"/>
					</g>
					<g id="shape99-61" transform="translate(0,-9.30737)">
						<title>Sheet.99</title>
						<g id="shadow99-62" transform="matrix(1,0,0,1,0.3456,1.9728)" class="st2">
							<rect x="0" y="58.8308" width="2.14792" height="2.86404" class="st3"/>
						</g>
						<rect x="0" y="58.8308" width="2.14792" height="2.86404" class="st4"/>
					</g>
					<g id="shape100-66" transform="translate(19.3313,-9.30737)">
						<title>Sheet.100</title>
						<g id="shadow100-67" transform="matrix(1,0,0,1,0.3456,1.9728)" class="st2">
							<rect x="0" y="58.8308" width="2.14792" height="2.86404" class="st3"/>
						</g>
						<rect x="0" y="58.8308" width="2.14792" height="2.86404" class="st4"/>
					</g>
					<g id="shape101-71" transform="translate(19.3313,-13.6036)">
						<title>Sheet.101</title>
						<g id="shadow101-72" transform="matrix(1,0,0,1,0.3456,1.9728)" class="st2">
							<rect x="0" y="58.8308" width="2.14792" height="2.86404" class="st3"/>
						</g>
						<rect x="0" y="58.8308" width="2.14792" height="2.86404" class="st4"/>
					</g>
					<g id="shape102-76" transform="translate(13.6032,-19.3313)">
						<title>Sheet.102</title>
						<g id="shadow102-77" transform="matrix(1,0,0,1,0.3456,1.9728)" class="st2">
							<rect x="0" y="59.547" width="2.86404" height="2.14792" class="st3"/>
						</g>
						<rect x="0" y="59.547" width="2.86404" height="2.14792" class="st4"/>
					</g>
					<g id="shape103-81" transform="translate(17.8995,-17.8995)">
						<title>Sheet.103</title>
						<g id="shadow103-82" transform="matrix(1,0,0,1,0.3456,1.9728)" class="st2">
							<path d="M1.43 60.26 L1.43 61.69 L3.58 61.69 L3.58 59.55 C3.58 58.76 2.94 58.12 2.15 58.12 L0 58.12 L0
										 60.26 L1.43 60.26 Z" class="st3"/>
						</g>
						<path d="M1.43 60.26 L1.43 61.69 L3.58 61.69 L3.58 59.55 C3.58 58.76 2.94 58.12 2.15 58.12 L0 58.12 L0 60.26
									 L1.43 60.26 Z" class="st4"/>
					</g>
					<g id="shape104-86" transform="translate(3.60464,-8.6428)">
						<title>Sheet.104</title>
						<g id="shadow104-87" transform="matrix(1,0,0,1,0.3456,1.9728)" class="st2">
							<path d="M11.57 52.71 L0.67 52.71 C0.3 52.71 0 53.04 0 53.41 L0 61 C0 61.37 0.3 61.69 0.67 61.69 L11.57
										 61.69 C11.94 61.69 12.32 61.37 12.32 61 L12.32 53.41 C12.32 53.04 11.94 52.71 11.57 52.71
										 Z" class="st3"/>
						</g>
						<path d="M11.57 52.71 L0.67 52.71 C0.3 52.71 0 53.04 0 53.41 L0 61 C0 61.37 0.3 61.69 0.67 61.69 L11.57 61.69
									 C11.94 61.69 12.32 61.37 12.32 61 L12.32 53.41 C12.32 53.04 11.94 52.71 11.57 52.71 Z"
								class="st5"/>
					</g>
					<g id="shape105-91" transform="translate(3.60464,-8.64323)">
						<title>Sheet.105</title>
						<g id="shadow105-92" transform="matrix(1,0,0,1,0.3456,1.9728)" class="st2">
							<path d="M11.58 52.71 C11.58 52.71 11.57 52.71 11.57 52.71 L0.67 52.71 C0.3 52.71 0 53.04 0 53.41 L0
										 61 C0 61.37 0.3 61.69 0.67 61.69 L0.93 61.69 L11.58 52.71 Z" class="st3"/>
						</g>
						<path d="M11.58 52.71 C11.58 52.71 11.57 52.71 11.57 52.71 L0.67 52.71 C0.3 52.71 0 53.04 0 53.41 L0 61 C0
									 61.37 0.3 61.69 0.67 61.69 L0.93 61.69 L11.58 52.71 Z" class="st6"/>
					</g>
					<g id="shape106-96" transform="translate(4.53812,-9.58917)">
						<title>Sheet.106</title>
						<g id="shadow106-97" transform="matrix(1,0,0,1,0.3456,1.9728)" class="st2">
							<path d="M10.45 61.69 L0 61.69 L0 54.6 L10.45 54.58 L10.45 61.69 Z" class="st3"/>
						</g>
						<path d="M10.45 61.69 L0 61.69 L0 54.6 L10.45 54.58 L10.45 61.69 Z" class="st4"/>
					</g>
					<g id="shape107-101" transform="translate(9.54063,-16.9406)">
						<title>Sheet.107</title>
						<g id="shadow107-102" transform="matrix(1,0,0,1,0.3456,1.9728)" class="st2">
							<path d="M0.35 61.52 C0.35 61.62 0.27 61.69 0.17 61.69 C0.08 61.69 0 61.62 0 61.52 C0 61.42 0.08 61.35
										 0.17 61.35 C0.27 61.35 0.35 61.42 0.35 61.52 Z" class="st3"/>
						</g>
						<path d="M0.35 61.52 C0.35 61.62 0.27 61.69 0.17 61.69 C0.08 61.69 0 61.62 0 61.52 C0 61.42 0.08 61.35 0.17
									 61.35 C0.27 61.35 0.35 61.42 0.35 61.52 Z" class="st7"/>
					</g>
					<g id="shape108-106" transform="translate(7.66292,-13.3519)">
						<title>Sheet.108</title>
						<g id="shadow108-107" transform="matrix(1,0,0,1,0.3456,1.9728)" class="st2">
							<path d="M2.23 61.69 C2.22 61.69 2.21 61.69 2.2 61.69 L0.03 60.44 C0.01 60.42 0 60.4 0 60.38 C0 60.36
										 0.01 60.33 0.03 60.32 L2.19 59.08 C2.21 59.07 2.23 59.07 2.25 59.08 L4.42 60.33 C4.44 60.34
										 4.45 60.36 4.45 60.39 C4.45 60.41 4.44 60.43 4.42 60.44 L2.27 61.69 C2.26 61.69 2.25 61.69
										 2.23 61.69 Z" class="st3"/>
						</g>
						<path d="M2.23 61.69 C2.22 61.69 2.21 61.69 2.2 61.69 L0.03 60.44 C0.01 60.42 0 60.4 0 60.38 C0 60.36 0.01
									 60.33 0.03 60.32 L2.19 59.08 C2.21 59.07 2.23 59.07 2.25 59.08 L4.42 60.33 C4.44 60.34 4.45
									 60.36 4.45 60.39 C4.45 60.41 4.44 60.43 4.42 60.44 L2.27 61.69 C2.26 61.69 2.25 61.69 2.23 61.69
									 Z" class="st8"/>
					</g>
					<g id="shape109-111" transform="translate(7.68998,-3.84864)">
						<title>Sheet.109</title>
						<g id="shadow109-112" transform="matrix(1,0,0,1,0.3456,1.9728)" class="st2">
							<path d="M5.86 59.33 L5.56 59.33 L2.66 59.33 L2.51 59.33 C2.91 60.75 2.37 60.95 0 60.95 L0 61.69 L3.01
										 61.69 L5.21 61.69 L8.05 61.69 L8.05 60.95 C5.68 60.95 5.45 60.75 5.86 59.33 Z" class="st3"/>
						</g>
						<path d="M5.86 59.33 L5.56 59.33 L2.66 59.33 L2.51 59.33 C2.91 60.75 2.37 60.95 0 60.95 L0 61.69 L3.01 61.69
									 L5.21 61.69 L8.05 61.69 L8.05 60.95 C5.68 60.95 5.45 60.75 5.86 59.33 Z" class="st9"/>
					</g>
					<g id="shape110-116" transform="translate(5.55882,-6.2135)">
						<title>Sheet.110</title>
						<g id="shadow110-117" transform="matrix(1,0,0,1,0.3456,1.9728)" class="st2">
							<path d="M11.57 52.71 L0.67 52.71 C0.3 52.71 0 53.04 0 53.41 L0 61 C0 61.37 0.3 61.69 0.67 61.69 L11.57
										 61.69 C11.94 61.69 12.32 61.37 12.32 61 L12.32 53.41 C12.32 53.04 11.94 52.71 11.57 52.71
										 Z" class="st3"/>
						</g>
						<path d="M11.57 52.71 L0.67 52.71 C0.3 52.71 0 53.04 0 53.41 L0 61 C0 61.37 0.3 61.69 0.67 61.69 L11.57 61.69
									 C11.94 61.69 12.32 61.37 12.32 61 L12.32 53.41 C12.32 53.04 11.94 52.71 11.57 52.71 Z"
								class="st5"/>
					</g>
					<g id="shape111-121" transform="translate(5.55839,-6.21393)">
						<title>Sheet.111</title>
						<g id="shadow111-122" transform="matrix(1,0,0,1,0.3456,1.9728)" class="st2">
							<path d="M11.58 52.71 C11.58 52.71 11.57 52.71 11.57 52.71 L0.67 52.71 C0.3 52.71 0 53.04 0 53.41 L0
										 61 C0 61.37 0.3 61.69 0.67 61.69 L0.93 61.69 L11.58 52.71 Z" class="st3"/>
						</g>
						<path d="M11.58 52.71 C11.58 52.71 11.57 52.71 11.57 52.71 L0.67 52.71 C0.3 52.71 0 53.04 0 53.41 L0 61 C0
									 61.37 0.3 61.69 0.67 61.69 L0.93 61.69 L11.58 52.71 Z" class="st6"/>
					</g>
					<g id="shape112-126" transform="translate(6.49187,-7.15988)">
						<title>Sheet.112</title>
						<g id="shadow112-127" transform="matrix(1,0,0,1,0.3456,1.9728)" class="st2">
							<path d="M10.45 61.69 L0 61.69 L0 54.6 L10.45 54.58 L10.45 61.69 Z" class="st3"/>
						</g>
						<path d="M10.45 61.69 L0 61.69 L0 54.6 L10.45 54.58 L10.45 61.69 Z" class="st4"/>
					</g>
					<g id="shape113-131" transform="translate(7.68998,-3.84864)">
						<title>Sheet.113</title>
						<g id="shadow113-132" transform="matrix(1,0,0,1,0.3456,1.9728)" class="st2">
							<rect x="0" y="60.9517" width="8.05255" height="0.74318" class="st3"/>
						</g>
						<rect x="0" y="60.9517" width="8.05255" height="0.74318" class="st5"/>
					</g>
					<g id="shape114-136" transform="translate(11.4948,-14.5113)">
						<title>Sheet.114</title>
						<g id="shadow114-137" transform="matrix(1,0,0,1,0.3456,1.9728)" class="st2">
							<path d="M0.35 61.52 C0.35 61.62 0.27 61.69 0.17 61.69 C0.08 61.69 0 61.62 0 61.52 C0 61.42 0.08 61.35
										 0.17 61.35 C0.27 61.35 0.35 61.42 0.35 61.52 Z" class="st3"/>
						</g>
						<path d="M0.35 61.52 C0.35 61.62 0.27 61.69 0.17 61.69 C0.08 61.69 0 61.62 0 61.52 C0 61.42 0.08 61.35 0.17
									 61.35 C0.27 61.35 0.35 61.42 0.35 61.52 Z" class="st7"/>
					</g>
					<g id="shape115-141" transform="translate(9.61667,-10.9222)">
						<title>Sheet.115</title>
						<g id="shadow115-142" transform="matrix(1,0,0,1,0.3456,1.9728)" class="st2">
							<path d="M2.23 61.69 C2.22 61.69 2.21 61.69 2.2 61.69 L0.03 60.44 C0.01 60.42 0 60.4 0 60.38 C0 60.36
										 0.01 60.33 0.03 60.32 L2.19 59.08 C2.21 59.07 2.23 59.07 2.25 59.08 L4.42 60.33 C4.44 60.34
										 4.45 60.36 4.45 60.39 C4.45 60.41 4.44 60.43 4.42 60.44 L2.27 61.69 C2.26 61.69 2.25 61.69
										 2.23 61.69 Z" class="st3"/>
						</g>
						<path d="M2.23 61.69 C2.22 61.69 2.21 61.69 2.2 61.69 L0.03 60.44 C0.01 60.42 0 60.4 0 60.38 C0 60.36 0.01
									 60.33 0.03 60.32 L2.19 59.08 C2.21 59.07 2.23 59.07 2.25 59.08 L4.42 60.33 C4.44 60.34 4.45
									 60.36 4.45 60.39 C4.45 60.41 4.44 60.43 4.42 60.44 L2.27 61.69 C2.26 61.69 2.25 61.69 2.23 61.69
									 Z" class="st8"/>
					</g>
					<g id="shape116-146" transform="translate(9.31037,-7.88372)">
						<title>Sheet.116</title>
						<g id="shadow116-147" transform="matrix(1,0,0,1,0.3456,1.9728)" class="st2">
							<path d="M2.23 61.69 C2.22 61.69 2.21 61.69 2.2 61.69 L0.03 60.44 C0.01 60.43 0 60.41 0 60.38 L0 57.88
										 C0 57.86 0.01 57.84 0.03 57.83 C0.05 57.81 0.08 57.81 0.1 57.83 L2.26 59.07 C2.28 59.08
										 2.29 59.1 2.29 59.13 L2.29 61.63 C2.29 61.65 2.28 61.67 2.26 61.69 C2.25 61.69 2.24 61.69
										 2.23 61.69 Z" class="st3"/>
						</g>
						<path d="M2.23 61.69 C2.22 61.69 2.21 61.69 2.2 61.69 L0.03 60.44 C0.01 60.43 0 60.41 0 60.38 L0 57.88 C0
									 57.86 0.01 57.84 0.03 57.83 C0.05 57.81 0.08 57.81 0.1 57.83 L2.26 59.07 C2.28 59.08 2.29 59.1
									 2.29 59.13 L2.29 61.63 C2.29 61.65 2.28 61.67 2.26 61.69 C2.25 61.69 2.24 61.69 2.23 61.69 Z"
								class="st10"/>
					</g>
					<g id="shape117-151" transform="translate(12.0859,-7.88372)">
						<title>Sheet.117</title>
						<g id="shadow117-152" transform="matrix(1,0,0,1,0.3456,1.9728)" class="st2">
							<path d="M0.07 61.69 C0.05 61.69 0.04 61.69 0.03 61.69 C0.01 61.67 0 61.65 0 61.63 L0 59.14 C0 59.12
										 0.01 59.1 0.03 59.09 L2.19 57.84 C2.21 57.83 2.24 57.83 2.26 57.84 C2.28 57.85 2.29 57.88
										 2.29 57.9 L2.29 60.38 C2.29 60.41 2.28 60.43 2.26 60.44 L0.1 61.69 C0.09 61.69 0.08 61.69
										 0.07 61.69 Z" class="st3"/>
						</g>
						<path d="M0.07 61.69 C0.05 61.69 0.04 61.69 0.03 61.69 C0.01 61.67 0 61.65 0 61.63 L0 59.14 C0 59.12 0.01
									 59.1 0.03 59.09 L2.19 57.84 C2.21 57.83 2.24 57.83 2.26 57.84 C2.28 57.85 2.29 57.88 2.29 57.9
									 L2.29 60.38 C2.29 60.41 2.28 60.43 2.26 60.44 L0.1 61.69 C0.09 61.69 0.08 61.69 0.07 61.69 Z"
								class="st11"/>
					</g>
				</g>
				<g id="group86-156" transform="translate(16.7887,-2.13163E-14)">
					<title>Sheet.86</title>
					<g id="shape76-157">
						<title>Sheet.76</title>
						<path d="M8.97 60.02 C8.97 60.95 6.97 61.69 4.49 61.69 C2 61.69 0 60.95 0 60.02 L0 58.88 L8.97 58.88 L8.97
									 60.02 Z" class="st12"/>
					</g>
					<g id="shape77-159" transform="translate(0,-1.10679)">
						<title>Sheet.77</title>
						<path d="M8.97 59.99 C8.97 60.92 6.97 61.69 4.49 61.69 C2 61.69 0 60.92 0 59.99 C-0 59.06 2 58.31 4.49 58.31
									 C6.97 58.31 8.97 59.06 8.97 59.99 Z" class="st13"/>
					</g>
					<g id="shape78-161" transform="translate(1.67508,-3.17079)">
						<title>Sheet.78</title>
						<path d="M2.21 60.38 C1.47 60.41 0.72 60.53 0 60.77 L2.03 61.69 C2.24 61.64 2.42 61.61 2.63 61.61 L2.21 60.38
									 Z" class="st14"/>
					</g>
					<g id="shape79-163" transform="translate(4.66628,-1.10679)">
						<title>Sheet.79</title>
						<path d="M2.63 61.31 L0.6 60.35 C0.39 60.41 0.18 60.44 0 60.47 L0.42 61.69 C1.17 61.64 1.91 61.52 2.63 61.31
									 Z" class="st14"/>
					</g>
					<g id="shape80-165" transform="translate(3.26042,-2.33322)">
						<title>Sheet.80</title>
						<path d="M2.45 61.22 C2.45 61.49 1.88 61.69 1.23 61.69 C0.57 61.69 0 61.49 0 61.22 C0 60.98 0.57 60.77 1.23
									 60.77 C1.88 60.77 2.45 60.98 2.45 61.22 Z" class="st15"/>
					</g>
					<g id="shape81-167" transform="translate(0,-3.73914)">
						<title>Sheet.81</title>
						<path d="M8.97 60.02 C8.97 60.95 6.97 61.69 4.49 61.69 C2 61.69 0 60.95 0 60.02 L0 58.88 L8.97 58.88 L8.97
									 60.02 Z" class="st16"/>
					</g>
					<g id="shape82-169" transform="translate(0,-4.84592)">
						<title>Sheet.82</title>
						<path d="M8.97 59.99 C8.97 60.92 6.97 61.69 4.49 61.69 C2 61.69 0 60.92 0 59.99 C-0 59.06 2 58.31 4.49 58.31
									 C6.97 58.31 8.97 59.06 8.97 59.99 Z" class="st17"/>
					</g>
					<g id="shape83-171" transform="translate(1.67508,-6.90993)">
						<title>Sheet.83</title>
						<path d="M2.21 60.38 C1.47 60.41 0.72 60.53 0 60.77 L2.03 61.69 C2.24 61.64 2.45 61.61 2.63 61.61 L2.21 60.38
									 Z" class="st18"/>
					</g>
					<g id="shape84-173" transform="translate(4.66628,-4.84592)">
						<title>Sheet.84</title>
						<path d="M2.63 61.31 L0.6 60.35 C0.39 60.41 0.18 60.44 0 60.47 L0.42 61.69 C1.17 61.64 1.91 61.52 2.63 61.31
									 Z" class="st18"/>
					</g>
					<g id="shape85-175" transform="translate(3.26042,-6.07236)">
						<title>Sheet.85</title>
						<path d="M2.45 61.22 C2.45 61.49 1.88 61.69 1.23 61.69 C0.57 61.69 0 61.49 0 61.22 C0 60.98 0.57 60.77 1.23
									 60.77 C1.88 60.77 2.45 60.98 2.45 61.22 Z" class="st19"/>
					</g>
				</g>
			</g>
		</g>
	</g>
</svg>
