<?xml version="1.0" encoding="UTF-8" standalone="no"?>
<!DOCTYPE svg PUBLIC "-//W3C//DTD SVG 1.1//EN" "http://www.w3.org/Graphics/SVG/1.1/DTD/svg11.dtd">
<!-- Generated by Microsoft Visio, SVG Export ContainersHost.svg Page-1 -->
<svg xmlns="http://www.w3.org/2000/svg" xmlns:xlink="http://www.w3.org/1999/xlink" xmlns:ev="http://www.w3.org/2001/xml-events"
		xmlns:v="http://schemas.microsoft.com/visio/2003/SVGExtensions/" width="0.633907in" height="0.611265in"
		viewBox="0 0 45.6413 44.0111" xml:space="preserve" color-interpolation-filters="sRGB" class="st11">
	<v:documentProperties v:langID="1033" v:viewMarkup="false"/>

	<style type="text/css">
	<![CDATA[
		.st1 {visibility:visible}
		.st2 {fill:#5b9bd5;fill-opacity:0.22;filter:url(#filter_2);stroke:none}
		.st3 {fill:#7a7a7a;stroke:none;stroke-width:12.24}
		.st4 {fill:#a0a1a2;stroke:none;stroke-width:12.24}
		.st5 {fill:#ffffff;fill-opacity:0.2;stroke:none;stroke-width:12.24}
		.st6 {fill:#59b4d9;stroke:none;stroke-width:12.24}
		.st7 {fill:#b8d432;stroke:none;stroke-width:12.24}
		.st8 {fill:#ffffff;stroke:none;stroke-width:12.24}
		.st9 {fill:#ffffff;fill-opacity:0.7;stroke:none;stroke-width:12.24}
		.st10 {fill:#ffffff;fill-opacity:0.4;stroke:none;stroke-width:12.24}
		.st11 {fill:none;fill-rule:evenodd;font-size:12px;overflow:visible;stroke-linecap:square;stroke-miterlimit:3}
	]]>
	</style>

	<defs id="Filters">
		<filter id="filter_2">
			<feGaussianBlur stdDeviation="2"/>
		</filter>
	</defs>
	<g v:mID="0" v:index="1" v:groupContext="foregroundPage">
		<title>Page-1</title>
		<v:pageProperties v:drawingScale="1" v:pageScale="1" v:drawingUnits="19" v:shadowOffsetX="9" v:shadowOffsetY="-9"/>
		<g id="group480-1" transform="translate(12.24,-12.24)" v:mID="480" v:groupContext="group">
			<title>Azure Portal - Virtual Machines</title>
			<g id="shape481-2" v:mID="481" v:groupContext="shape" transform="translate(3.66295,0)">
				<title>Sheet.481</title>
				<g id="shadow481-3" v:groupContext="shadow" v:shadowOffsetX="0.3456" v:shadowOffsetY="-1.9728" v:shadowType="1"
						transform="matrix(1,0,0,1,0.3456,1.9728)" class="st1">
					<path d="M10.06 39.94 L9.56 39.94 L4.57 39.94 L4.31 39.94 C5 42.38 4.07 42.73 0 42.73 L0 44.01 L5.17 44.01 L8.95
								 44.01 L13.84 44.01 L13.84 42.73 C9.77 42.73 9.37 42.38 10.06 39.94 Z" class="st2"/>
				</g>
				<path d="M10.06 39.94 L9.56 39.94 L4.57 39.94 L4.31 39.94 C5 42.38 4.07 42.73 0 42.73 L0 44.01 L5.17 44.01 L8.95
							 44.01 L13.84 44.01 L13.84 42.73 C9.77 42.73 9.37 42.38 10.06 39.94 Z" class="st3"/>
			</g>
			<g id="shape482-7" v:mID="482" v:groupContext="shape" transform="translate(0.000423218,-4.06839)">
				<title>Sheet.482</title>
				<g id="shadow482-8" v:groupContext="shadow" v:shadowOffsetX="0.3456" v:shadowOffsetY="-1.9728" v:shadowType="1"
						transform="matrix(1,0,0,1,0.3456,1.9728)" class="st1">
					<path d="M19.88 28.55 L1.15 28.55 C0.51 28.55 0 29.12 0 29.75 L0 42.82 C0 43.45 0.51 44.01 1.15 44.01 L19.88
								 44.01 C20.52 44.01 21.16 43.45 21.16 42.82 L21.16 29.75 C21.16 29.12 20.52 28.55 19.88 28.55 Z"
							class="st2"/>
				</g>
				<path d="M19.88 28.55 L1.15 28.55 C0.51 28.55 0 29.12 0 29.75 L0 42.82 C0 43.45 0.51 44.01 1.15 44.01 L19.88 44.01
							 C20.52 44.01 21.16 43.45 21.16 42.82 L21.16 29.75 C21.16 29.12 20.52 28.55 19.88 28.55 Z" class="st4"/>
			</g>
			<g id="shape483-12" v:mID="483" v:groupContext="shape" transform="translate(0,-4.06797)">
				<title>Sheet.483</title>
				<g id="shadow483-13" v:groupContext="shadow" v:shadowOffsetX="0.3456" v:shadowOffsetY="-1.9728" v:shadowType="1"
						transform="matrix(1,0,0,1,0.3456,1.9728)" class="st1">
					<path d="M19.9 28.55 C19.89 28.55 19.89 28.55 19.88 28.55 L1.15 28.55 C0.51 28.55 0 29.12 0 29.75 L0 42.82 C0
								 43.45 0.51 44.01 1.15 44.01 L1.6 44.01 L19.9 28.55 Z" class="st2"/>
				</g>
				<path d="M19.9 28.55 C19.89 28.55 19.89 28.55 19.88 28.55 L1.15 28.55 C0.51 28.55 0 29.12 0 29.75 L0 42.82 C0 43.45
							 0.51 44.01 1.15 44.01 L1.6 44.01 L19.9 28.55 Z" class="st5"/>
			</g>
			<g id="shape484-17" v:mID="484" v:groupContext="shape" transform="translate(1.604,-5.69651)">
				<title>Sheet.484</title>
				<g id="shadow484-18" v:groupContext="shadow" v:shadowOffsetX="0.3456" v:shadowOffsetY="-1.9728" v:shadowType="1"
						transform="matrix(1,0,0,1,0.3456,1.9728)" class="st1">
					<rect x="0" y="31.8051" width="17.9055" height="12.206" class="st2"/>
				</g>
				<rect x="0" y="31.8051" width="17.9055" height="12.206" class="st6"/>
			</g>
			<g id="shape485-22" v:mID="485" v:groupContext="shape" transform="translate(1.604,-5.69651)">
				<title>Sheet.485</title>
				<g id="shadow485-23" v:groupContext="shadow" v:shadowOffsetX="0.3456" v:shadowOffsetY="-1.9728" v:shadowType="1"
						transform="matrix(1,0,0,1,0.3456,1.9728)" class="st1">
					<path d="M0 44.01 L0.02 44.01 L0.02 31.81 L16.39 31.78 L16.4 31.78 L0 31.81 L0 44.01 Z" class="st2"/>
				</g>
				<path d="M0 44.01 L0.02 44.01 L0.02 31.81 L16.39 31.78 L16.4 31.78 L0 31.81 L0 44.01 Z" class="st6"/>
			</g>
			<g id="shape486-27" v:mID="486" v:groupContext="shape" transform="translate(3.66295,-7.10543E-15)">
				<title>Sheet.486</title>
				<g id="shadow486-28" v:groupContext="shadow" v:shadowOffsetX="0.3456" v:shadowOffsetY="-1.9728" v:shadowType="1"
						transform="matrix(1,0,0,1,0.3456,1.9728)" class="st1">
					<rect x="0" y="42.7325" width="13.8358" height="1.27854" class="st2"/>
				</g>
				<rect x="0" y="42.7325" width="13.8358" height="1.27854" class="st4"/>
			</g>
			<g id="shape487-32" v:mID="487" v:groupContext="shape" transform="translate(10.1991,-18.344)">
				<title>Sheet.487</title>
				<g id="shadow487-33" v:groupContext="shadow" v:shadowOffsetX="0.3456" v:shadowOffsetY="-1.9728" v:shadowType="1"
						transform="matrix(1,0,0,1,0.3456,1.9728)" class="st1">
					<path d="M0.6 43.71 C0.6 43.88 0.47 44.01 0.3 44.01 C0.13 44.01 0 43.88 0 43.71 C0 43.54 0.13 43.41 0.3 43.41
								 C0.47 43.41 0.6 43.54 0.6 43.71 Z" class="st2"/>
				</g>
				<path d="M0.6 43.71 C0.6 43.88 0.47 44.01 0.3 44.01 C0.13 44.01 0 43.88 0 43.71 C0 43.54 0.13 43.41 0.3 43.41 C0.47
							 43.41 0.6 43.54 0.6 43.71 Z" class="st7"/>
			</g>
			<g id="shape488-37" v:mID="488" v:groupContext="shape" transform="translate(6.97294,-12.1696)">
				<title>Sheet.488</title>
				<g id="shadow488-38" v:groupContext="shadow" v:shadowOffsetX="0.3456" v:shadowOffsetY="-1.9728" v:shadowType="1"
						transform="matrix(1,0,0,1,0.3456,1.9728)" class="st1">
					<path d="M3.84 44.01 C3.82 44.01 3.8 44.01 3.78 43.99 L0.06 41.84 C0.02 41.82 0 41.79 0 41.75 C0 41.71 0.02 41.67
								 0.06 41.65 L3.76 39.51 C3.79 39.49 3.84 39.49 3.87 39.51 L7.6 41.66 C7.63 41.68 7.65 41.72 7.65
								 41.76 C7.65 41.8 7.63 41.84 7.6 41.86 L3.9 43.99 C3.88 44.01 3.86 44.01 3.84 44.01 Z" class="st2"/>
				</g>
				<path d="M3.84 44.01 C3.82 44.01 3.8 44.01 3.78 43.99 L0.06 41.84 C0.02 41.82 0 41.79 0 41.75 C0 41.71 0.02 41.67
							 0.06 41.65 L3.76 39.51 C3.79 39.49 3.84 39.49 3.87 39.51 L7.6 41.66 C7.63 41.68 7.65 41.72 7.65 41.76
							 C7.65 41.8 7.63 41.84 7.6 41.86 L3.9 43.99 C3.88 44.01 3.86 44.01 3.84 44.01 Z" class="st8"/>
			</g>
			<g id="shape489-42" v:mID="489" v:groupContext="shape" transform="translate(6.44688,-6.94204)">
				<title>Sheet.489</title>
				<g id="shadow489-43" v:groupContext="shadow" v:shadowOffsetX="0.3456" v:shadowOffsetY="-1.9728" v:shadowType="1"
						transform="matrix(1,0,0,1,0.3456,1.9728)" class="st1">
					<path d="M3.83 44.01 C3.81 44.01 3.79 44.01 3.77 44 L0.06 41.85 C0.02 41.83 0 41.8 0 41.75 L0 37.45 C0 37.41
								 0.02 37.37 0.06 37.35 C0.09 37.33 0.13 37.33 0.17 37.35 L3.89 39.5 C3.92 39.52 3.94 39.56 3.94 39.6
								 L3.94 43.9 C3.94 43.94 3.92 43.98 3.89 44 C3.87 44.01 3.85 44.01 3.83 44.01 Z" class="st2"/>
				</g>
				<path d="M3.83 44.01 C3.81 44.01 3.79 44.01 3.77 44 L0.06 41.85 C0.02 41.83 0 41.8 0 41.75 L0 37.45 C0 37.41 0.02
							 37.37 0.06 37.35 C0.09 37.33 0.13 37.33 0.17 37.35 L3.89 39.5 C3.92 39.52 3.94 39.56 3.94 39.6 L3.94
							 43.9 C3.94 43.94 3.92 43.98 3.89 44 C3.87 44.01 3.85 44.01 3.83 44.01 Z" class="st9"/>
			</g>
			<g id="shape490-47" v:mID="490" v:groupContext="shape" transform="translate(11.2148,-6.94204)">
				<title>Sheet.490</title>
				<g id="shadow490-48" v:groupContext="shadow" v:shadowOffsetX="0.3456" v:shadowOffsetY="-1.9728" v:shadowType="1"
						transform="matrix(1,0,0,1,0.3456,1.9728)" class="st1">
					<path d="M0.11 44.01 C0.09 44.01 0.07 44.01 0.05 44 C0.02 43.98 0 43.94 0 43.9 L0 39.62 C0 39.58 0.02 39.55 0.05
								 39.52 L3.77 37.38 C3.8 37.36 3.85 37.36 3.88 37.38 C3.92 37.4 3.94 37.44 3.94 37.48 L3.94 41.75
								 C3.94 41.8 3.92 41.83 3.88 41.85 L0.17 44 C0.15 44.01 0.13 44.01 0.11 44.01 Z" class="st2"/>
				</g>
				<path d="M0.11 44.01 C0.09 44.01 0.07 44.01 0.05 44 C0.02 43.98 0 43.94 0 43.9 L0 39.62 C0 39.58 0.02 39.55 0.05
							 39.52 L3.77 37.38 C3.8 37.36 3.85 37.36 3.88 37.38 C3.92 37.4 3.94 37.44 3.94 37.48 L3.94 41.75 C3.94
							 41.8 3.92 41.83 3.88 41.85 L0.17 44 C0.15 44.01 0.13 44.01 0.11 44.01 Z" class="st10"/>
			</g>
		</g>
	</g>
</svg>
