<?xml version="1.0" encoding="UTF-8" standalone="no"?>
<!DOCTYPE svg PUBLIC "-//W3C//DTD SVG 1.1//EN" "http://www.w3.org/Graphics/SVG/1.1/DTD/svg11.dtd">
<!-- Generated by Microsoft Visio, SVG Export ControllerImage.svg Page-1 -->
<svg xmlns="http://www.w3.org/2000/svg" xmlns:xlink="http://www.w3.org/1999/xlink" xmlns:ev="http://www.w3.org/2001/xml-events"
		xmlns:v="http://schemas.microsoft.com/visio/2003/SVGExtensions/" width="0.591398in" height="0.611352in"
		viewBox="0 0 42.5807 44.0174" xml:space="preserve" color-interpolation-filters="sRGB" class="st6">
	<v:documentProperties v:langID="1033" v:viewMarkup="false"/>

	<style type="text/css">
	<![CDATA[
		.st1 {fill:#3999c6;stroke:#0070c0;stroke-linecap:butt;stroke-width:0.5}
		.st2 {fill:#b92025;fill-opacity:0.3;stroke:none;stroke-linecap:butt;stroke-width:12.2892}
		.st3 {fill:#0070c0;stroke:none;stroke-linecap:butt;stroke-width:12.2892}
		.st4 {fill:#7e649e;stroke:#54426a;stroke-linecap:butt;stroke-width:0.5}
		.st5 {fill:#54426a;stroke:none;stroke-linecap:butt;stroke-width:12.2892}
		.st6 {fill:none;fill-rule:evenodd;font-size:12px;overflow:visible;stroke-linecap:square;stroke-miterlimit:3}
	]]>
	</style>

	<g v:mID="0" v:index="1" v:groupContext="foregroundPage">
		<title>Page-1</title>
		<v:pageProperties v:drawingScale="1" v:pageScale="1" v:drawingUnits="19" v:shadowOffsetX="9" v:shadowOffsetY="-9"/>
		<g id="group528-1" transform="translate(11.1653,-11.1653)" v:mID="528" v:groupContext="group">
			<title>Sheet.528</title>
			<g id="group499-2" transform="translate(10.5102,-11.2652)" v:mID="499" v:groupContext="group">
				<title>Sheet.499</title>
				<g id="shape500-3" v:mID="500" v:groupContext="shape">
					<title>Sheet.500</title>
					<path d="M0.37 33.6 a0.374607 0.371905 -180 0 0 -0.374607 0.371905 L0 43.65 a0.374607 0.371905 -180 0 0 0.374607
								 0.371905 L9.37 44.02 a0.374607 0.371905 -180 0 0 0.374607 -0.371905 L9.74 33.98 a0.374607 0.371905
								 -180 0 0 -0.374607 -0.371905 L0.37 33.6 Z" class="st1"/>
				</g>
				<g id="shape501-5" v:mID="501" v:groupContext="shape" transform="translate(5.60037,-12.6448)">
					<title>Sheet.501</title>
				</g>
				<g id="shape502-6" v:mID="502" v:groupContext="shape" transform="translate(8.59723,-11.1572)">
					<title>Sheet.502</title>
				</g>
				<g id="shape503-7" v:mID="503" v:groupContext="shape" transform="translate(5.60037,-12.6448)">
					<title>Sheet.503</title>
				</g>
				<g id="shape504-8" v:mID="504" v:groupContext="shape" transform="translate(1.12382,-1.11572)">
					<title>Sheet.504</title>
					<path d="M6.74 35.84 L0 35.84 L0 44.02 L7.49 44.02 L7.49 35.84 L6.74 35.84 ZM2.25 43.27 L0.75 43.27 L0.75 36.58
								 L2.25 36.58 L2.25 43.27 ZM4.5 43.27 L3 43.27 L3 36.58 L4.5 36.58 L4.5 43.27 ZM6.74 43.27 L5.24 43.27
								 L5.24 36.58 L6.74 36.58 L6.74 43.27 Z" class="st2"/>
				</g>
				<g id="shape505-10" v:mID="505" v:groupContext="shape" transform="translate(1.12382,-1.11572)">
					<title>Sheet.505</title>
					<path d="M6.74 35.84 L0 35.84 L0 44.02 L7.49 44.02 L7.49 35.84 L6.74 35.84 ZM2.25 43.27 L0.75 43.27 L0.75 36.58
								 L2.25 36.58 L2.25 43.27 ZM4.5 43.27 L3 43.27 L3 36.58 L4.5 36.58 L4.5 43.27 ZM6.74 43.27 L5.24 43.27
								 L5.24 36.58 L6.74 36.58 L6.74 43.27 Z" class="st3"/>
				</g>
			</g>
			<g id="group513-12" transform="translate(0.0347519,7.10543E-15)" v:mID="513" v:groupContext="group">
				<title>Sheet.513</title>
				<g id="shape514-13" v:mID="514" v:groupContext="shape">
					<title>Sheet.514</title>
					<path d="M0.37 33.53 a0.374607 0.374607 -180 0 0 -0.374607 0.374607 L0 43.64 a0.374607 0.374607 -180 0 0 0.374607
								 0.374607 L9.37 44.02 a0.374607 0.374607 -180 0 0 0.374607 -0.374607 L9.74 33.9 a0.374607 0.374607
								 -180 0 0 -0.374607 -0.374607 L0.37 33.53 Z" class="st1"/>
				</g>
				<g id="shape515-15" v:mID="515" v:groupContext="shape" transform="translate(5.60037,-12.7366)">
					<title>Sheet.515</title>
				</g>
				<g id="shape516-16" v:mID="516" v:groupContext="shape" transform="translate(8.59723,-11.2382)">
					<title>Sheet.516</title>
				</g>
				<g id="shape517-17" v:mID="517" v:groupContext="shape" transform="translate(5.60037,-12.7366)">
					<title>Sheet.517</title>
				</g>
				<g id="shape518-18" v:mID="518" v:groupContext="shape" transform="translate(1.12382,-1.12382)">
					<title>Sheet.518</title>
					<path d="M6.74 35.78 L0 35.78 L0 44.02 L7.49 44.02 L7.49 35.78 L6.74 35.78 ZM2.25 43.27 L0.75 43.27 L0.75 36.53
								 L2.25 36.53 L2.25 43.27 ZM4.5 43.27 L3 43.27 L3 36.53 L4.5 36.53 L4.5 43.27 ZM6.74 43.27 L5.24 43.27
								 L5.24 36.53 L6.74 36.53 L6.74 43.27 Z" class="st2"/>
				</g>
				<g id="shape519-20" v:mID="519" v:groupContext="shape" transform="translate(1.12382,-1.12382)">
					<title>Sheet.519</title>
					<path d="M6.74 35.78 L0 35.78 L0 44.02 L7.49 44.02 L7.49 35.78 L6.74 35.78 ZM2.25 43.27 L0.75 43.27 L0.75 36.53
								 L2.25 36.53 L2.25 43.27 ZM4.5 43.27 L3 43.27 L3 36.53 L4.5 36.53 L4.5 43.27 ZM6.74 43.27 L5.24 43.27
								 L5.24 36.53 L6.74 36.53 L6.74 43.27 Z" class="st3"/>
				</g>
			</g>
			<g id="group520-22" transform="translate(9.99201E-15,-11.1706)" v:mID="520" v:groupContext="group">
				<title>Sheet.520</title>
				<g id="shape493-23" v:mID="493" v:groupContext="shape">
					<title>Sheet.493</title>
					<path d="M0.37 33.53 a0.374607 0.374607 -180 0 0 -0.374607 0.374607 L0 43.64 a0.374607 0.374607 -180 0 0 0.374607
								 0.374607 L9.37 44.02 a0.374607 0.374607 -180 0 0 0.374607 -0.374607 L9.74 33.9 a0.374607 0.374607
								 -180 0 0 -0.374607 -0.374607 L0.37 33.53 Z" class="st4"/>
				</g>
				<g id="shape494-25" v:mID="494" v:groupContext="shape" transform="translate(5.60037,-12.7366)">
					<title>Sheet.494</title>
				</g>
				<g id="shape495-26" v:mID="495" v:groupContext="shape" transform="translate(8.59723,-11.2382)">
					<title>Sheet.495</title>
				</g>
				<g id="shape496-27" v:mID="496" v:groupContext="shape" transform="translate(5.60037,-12.7366)">
					<title>Sheet.496</title>
				</g>
				<g id="shape497-28" v:mID="497" v:groupContext="shape" transform="translate(1.12382,-1.12382)">
					<title>Sheet.497</title>
					<path d="M6.74 35.78 L0 35.78 L0 44.02 L7.49 44.02 L7.49 35.78 L6.74 35.78 ZM2.25 43.27 L0.75 43.27 L0.75 36.53
								 L2.25 36.53 L2.25 43.27 ZM4.5 43.27 L3 43.27 L3 36.53 L4.5 36.53 L4.5 43.27 ZM6.74 43.27 L5.24 43.27
								 L5.24 36.53 L6.74 36.53 L6.74 43.27 Z" class="st2"/>
				</g>
				<g id="shape498-30" v:mID="498" v:groupContext="shape" transform="translate(1.12382,-1.12382)">
					<title>Sheet.498</title>
					<path d="M6.74 35.78 L0 35.78 L0 44.02 L7.49 44.02 L7.49 35.78 L6.74 35.78 ZM2.25 43.27 L0.75 43.27 L0.75 36.53
								 L2.25 36.53 L2.25 43.27 ZM4.5 43.27 L3 43.27 L3 36.53 L4.5 36.53 L4.5 43.27 ZM6.74 43.27 L5.24 43.27
								 L5.24 36.53 L6.74 36.53 L6.74 43.27 Z" class="st5"/>
				</g>
			</g>
			<g id="group521-32" transform="translate(10.5102,7.10543E-15)" v:mID="521" v:groupContext="group">
				<title>Sheet.521</title>
				<g id="shape522-33" v:mID="522" v:groupContext="shape">
					<title>Sheet.522</title>
					<path d="M0.37 33.53 a0.374607 0.374607 -180 0 0 -0.374607 0.374607 L0 43.64 a0.374607 0.374607 -180 0 0 0.374607
								 0.374607 L9.37 44.02 a0.374607 0.374607 -180 0 0 0.374607 -0.374607 L9.74 33.9 a0.374607 0.374607
								 -180 0 0 -0.374607 -0.374607 L0.37 33.53 Z" class="st4"/>
				</g>
				<g id="shape523-35" v:mID="523" v:groupContext="shape" transform="translate(5.60037,-12.7366)">
					<title>Sheet.523</title>
				</g>
				<g id="shape524-36" v:mID="524" v:groupContext="shape" transform="translate(8.59723,-11.2382)">
					<title>Sheet.524</title>
				</g>
				<g id="shape525-37" v:mID="525" v:groupContext="shape" transform="translate(5.60037,-12.7366)">
					<title>Sheet.525</title>
				</g>
				<g id="shape526-38" v:mID="526" v:groupContext="shape" transform="translate(1.12382,-1.12382)">
					<title>Sheet.526</title>
					<path d="M6.74 35.78 L0 35.78 L0 44.02 L7.49 44.02 L7.49 35.78 L6.74 35.78 ZM2.25 43.27 L0.75 43.27 L0.75 36.53
								 L2.25 36.53 L2.25 43.27 ZM4.5 43.27 L3 43.27 L3 36.53 L4.5 36.53 L4.5 43.27 ZM6.74 43.27 L5.24 43.27
								 L5.24 36.53 L6.74 36.53 L6.74 43.27 Z" class="st2"/>
				</g>
				<g id="shape527-40" v:mID="527" v:groupContext="shape" transform="translate(1.12382,-1.12382)">
					<title>Sheet.527</title>
					<path d="M6.74 35.78 L0 35.78 L0 44.02 L7.49 44.02 L7.49 35.78 L6.74 35.78 ZM2.25 43.27 L0.75 43.27 L0.75 36.53
								 L2.25 36.53 L2.25 43.27 ZM4.5 43.27 L3 43.27 L3 36.53 L4.5 36.53 L4.5 43.27 ZM6.74 43.27 L5.24 43.27
								 L5.24 36.53 L6.74 36.53 L6.74 43.27 Z" class="st5"/>
				</g>
			</g>
		</g>
	</g>
</svg>
