<?xml version="1.0" encoding="UTF-8" standalone="no"?>
<!DOCTYPE svg PUBLIC "-//W3C//DTD SVG 1.1//EN" "http://www.w3.org/Graphics/SVG/1.1/DTD/svg11.dtd">
<!-- Generated by Microsoft Visio, SVG Export 003_ASCTasks_JitAdmin.svg Page-1 -->
<svg xmlns="http://www.w3.org/2000/svg" xmlns:xlink="http://www.w3.org/1999/xlink" xmlns:ev="http://www.w3.org/2001/xml-events"
		xmlns:v="http://schemas.microsoft.com/visio/2003/SVGExtensions/" width="0.493005in" height="0.614848in"
		viewBox="0 0 35.4963 44.2691" xml:space="preserve" color-interpolation-filters="sRGB" class="st13">
	<v:documentProperties v:langID="3082" v:metric="true" v:viewMarkup="false"/>

	<style type="text/css">
	<![CDATA[
		.st1 {visibility:visible}
		.st2 {fill:#5b9bd5;fill-opacity:0.22;filter:url(#filter_2);stroke:none}
		.st3 {fill:#b8d432;stroke:none;stroke-width:12.24}
		.st4 {fill:#3e3e3e;stroke:none;stroke-width:12.24}
		.st5 {fill:#ffffff;fill-opacity:0.15;stroke:none;stroke-width:12.24}
		.st6 {fill:#ffffff;stroke:none;stroke-width:12.24}
		.st7 {fill:#3999c6;stroke:none;stroke-width:12.24}
		.st8 {fill:#a0a1a2;stroke:none;stroke-width:12.24}
		.st9 {fill:#59b4d9;stroke:none;stroke-width:12.24}
		.st10 {fill:#7a7a7a;stroke:none;stroke-width:12.24}
		.st11 {fill:#1e1e1e;stroke:none;stroke-width:12.24}
		.st12 {fill:#1e1e1e;fill-opacity:0.2;stroke:none;stroke-width:12.24}
		.st13 {fill:none;fill-rule:evenodd;font-size:12px;overflow:visible;stroke-linecap:square;stroke-miterlimit:3}
	]]>
	</style>

	<defs id="Filters">
		<filter id="filter_2">
			<feGaussianBlur stdDeviation="2"/>
		</filter>
	</defs>
	<g v:mID="0" v:index="1" v:groupContext="foregroundPage">
		<title>Page-1</title>
		<v:pageProperties v:drawingScale="1" v:pageScale="1" v:drawingUnits="19" v:shadowOffsetX="9" v:shadowOffsetY="-9"/>
		<g id="group30-1" transform="translate(12.1858,-16.314)" v:mID="30" v:groupContext="group">
			<title>Multi-factor Authentication</title>
			<g id="shape31-2" v:mID="31" v:groupContext="shape" transform="translate(1.8151,-14.0514)">
				<title>Sheet.31</title>
				<g id="shadow31-3" v:groupContext="shadow" v:shadowOffsetX="0.3456" v:shadowOffsetY="-1.9728" v:shadowType="1"
						transform="matrix(1,0,0,1,0.3456,1.9728)" class="st1">
					<ellipse cx="0.876259" cy="43.7684" rx="0.876259" ry="0.500718" class="st2"/>
				</g>
				<ellipse cx="0.876259" cy="43.7684" rx="0.876259" ry="0.500718" class="st3"/>
			</g>
			<g id="shape32-7" v:mID="32" v:groupContext="shape">
				<title>Sheet.32</title>
				<g id="shadow32-8" v:groupContext="shadow" v:shadowOffsetX="0.3456" v:shadowOffsetY="-1.9728" v:shadowType="1"
						transform="matrix(1,0,0,1,0.3456,1.9728)" class="st1">
					<path d="M5.82 35.54 L1.53 36.07 L0.97 31.56 C0.94 31.19 1.19 30.88 1.56 30.84 L4.04 30.53 C4.41 30.5 4.73 30.72
								 4.79 31.1 L5.19 34.35 C5.23 34.54 5.38 34.66 5.57 34.63 C5.76 34.6 5.88 34.44 5.85 34.25 L5.23 29.12
								 C5.19 28.75 4.85 28.53 4.48 28.56 L0.66 29.06 C0.28 29.09 0 29.41 0.06 29.78 L0.84 36.07 C0.84 36.13
								 0.88 36.16 0.88 36.23 C0.69 36.35 0.59 36.57 0.62 36.79 L1.5 43.68 C1.53 44.02 1.88 44.27 2.19 44.24
								 L6.82 43.61 C7.17 43.58 7.36 43.24 7.32 42.9 L6.45 36.01 C6.42 35.7 6.13 35.51 5.82 35.54 ZM2.41
								 29.5 L2.94 29.44 C3.07 29.41 3.19 29.5 3.19 29.62 C3.22 29.75 3.13 29.87 3.01 29.87 L2.47 29.94
								 C2.34 29.97 2.22 29.87 2.22 29.75 C2.19 29.62 2.28 29.53 2.41 29.5 ZM4.32 39.38 L4.44 40.48 L3.63
								 40.58 L3.47 39.45 C3.22 39.33 2.97 39.08 2.91 38.73 C2.85 38.23 3.19 37.79 3.69 37.73 C4.19 37.66
								 4.63 38.01 4.7 38.51 C4.76 38.89 4.66 39.2 4.32 39.38 Z" class="st2"/>
				</g>
				<path d="M5.82 35.54 L1.53 36.07 L0.97 31.56 C0.94 31.19 1.19 30.88 1.56 30.84 L4.04 30.53 C4.41 30.5 4.73 30.72
							 4.79 31.1 L5.19 34.35 C5.23 34.54 5.38 34.66 5.57 34.63 C5.76 34.6 5.88 34.44 5.85 34.25 L5.23 29.12
							 C5.19 28.75 4.85 28.53 4.48 28.56 L0.66 29.06 C0.28 29.09 0 29.41 0.06 29.78 L0.84 36.07 C0.84 36.13
							 0.88 36.16 0.88 36.23 C0.69 36.35 0.59 36.57 0.62 36.79 L1.5 43.68 C1.53 44.02 1.88 44.27 2.19 44.24
							 L6.82 43.61 C7.17 43.58 7.36 43.24 7.32 42.9 L6.45 36.01 C6.42 35.7 6.13 35.51 5.82 35.54 ZM2.41 29.5
							 L2.94 29.44 C3.07 29.41 3.19 29.5 3.19 29.62 C3.22 29.75 3.13 29.87 3.01 29.87 L2.47 29.94 C2.34 29.97
							 2.22 29.87 2.22 29.75 C2.19 29.62 2.28 29.53 2.41 29.5 ZM4.32 39.38 L4.44 40.48 L3.63 40.58 L3.47 39.45
							 C3.22 39.33 2.97 39.08 2.91 38.73 C2.85 38.23 3.19 37.79 3.69 37.73 C4.19 37.66 4.63 38.01 4.7 38.51
							 C4.76 38.89 4.66 39.2 4.32 39.38 Z" class="st4"/>
			</g>
			<g id="shape33-12" v:mID="33" v:groupContext="shape" transform="translate(0,-3.28596)">
				<title>Sheet.33</title>
				<g id="shadow33-13" v:groupContext="shadow" v:shadowOffsetX="0.3456" v:shadowOffsetY="-1.9728" v:shadowType="1"
						transform="matrix(1,0,0,1,0.3456,1.9728)" class="st1">
					<path d="M0.84 39.33 C0.84 39.38 0.88 39.42 0.88 39.48 C0.69 39.6 0.59 39.83 0.62 40.05 L1.16 44.27 L3.22 39.17
								 L1.53 39.35 L0.97 34.85 C0.94 34.47 1.19 34.16 1.56 34.13 L4.04 33.82 C4.41 33.79 4.73 34 4.79 34.38
								 L4.88 35.07 L5.41 33.79 L5.26 32.44 C5.23 32.07 4.88 31.85 4.51 31.88 L0.66 32.34 C0.28 32.38 0
								 32.69 0.06 33.06 L0.84 39.33 ZM2.41 32.79 L2.94 32.72 C3.07 32.69 3.19 32.79 3.19 32.91 C3.22 33.04
								 3.13 33.16 3.01 33.16 L2.47 33.22 C2.34 33.25 2.22 33.16 2.22 33.04 C2.19 32.91 2.28 32.82 2.41
								 32.79 Z" class="st2"/>
				</g>
				<path d="M0.84 39.33 C0.84 39.38 0.88 39.42 0.88 39.48 C0.69 39.6 0.59 39.83 0.62 40.05 L1.16 44.27 L3.22 39.17 L1.53
							 39.35 L0.97 34.85 C0.94 34.47 1.19 34.16 1.56 34.13 L4.04 33.82 C4.41 33.79 4.73 34 4.79 34.38 L4.88
							 35.07 L5.41 33.79 L5.26 32.44 C5.23 32.07 4.88 31.85 4.51 31.88 L0.66 32.34 C0.28 32.38 0 32.69 0.06
							 33.06 L0.84 39.33 ZM2.41 32.79 L2.94 32.72 C3.07 32.69 3.19 32.79 3.19 32.91 C3.22 33.04 3.13 33.16
							 3.01 33.16 L2.47 33.22 C2.34 33.25 2.22 33.16 2.22 33.04 C2.19 32.91 2.28 32.82 2.41 32.79 Z"
						class="st5"/>
			</g>
		</g>
		<g id="group34-17" transform="translate(15.9711,-12.24)" v:mID="34" v:groupContext="group">
			<title>Scheduler</title>
			<g id="shape35-18" v:mID="35" v:groupContext="shape" transform="translate(1.83002,-2.41152)">
				<title>Sheet.35</title>
				<g id="shadow35-19" v:groupContext="shadow" v:shadowOffsetX="0.3456" v:shadowOffsetY="-1.9728" v:shadowType="1"
						transform="matrix(1,0,0,1,0.3456,1.9728)" class="st1">
					<path d="M2.31 39.19 C1.63 39.26 1.03 39.6 0.62 40.12 C0.21 40.61 0 41.26 0.07 41.96 C0.14 42.64 0.48 43.24 0.99
								 43.65 C1.49 44.06 2.14 44.27 2.84 44.2 C3.52 44.13 4.12 43.79 4.53 43.28 C4.94 42.78 5.15 42.13
								 5.08 41.43 C5.01 40.73 4.65 40.13 4.14 39.72 C3.71 39.38 3.16 39.17 2.58 39.17 C2.48 39.19 2.4 39.19
								 2.31 39.19 Z" class="st2"/>
				</g>
				<path d="M2.31 39.19 C1.63 39.26 1.03 39.6 0.62 40.12 C0.21 40.61 0 41.26 0.07 41.96 C0.14 42.64 0.48 43.24 0.99
							 43.65 C1.49 44.06 2.14 44.27 2.84 44.2 C3.52 44.13 4.12 43.79 4.53 43.28 C4.94 42.78 5.15 42.13 5.08
							 41.43 C5.01 40.73 4.65 40.13 4.14 39.72 C3.71 39.38 3.16 39.17 2.58 39.17 C2.48 39.19 2.4 39.19 2.31
							 39.19 Z" class="st6"/>
			</g>
			<g id="shape36-23" v:mID="36" v:groupContext="shape" transform="translate(3.07854,-1.98395)">
				<title>Sheet.36</title>
				<g id="shadow36-24" v:groupContext="shadow" v:shadowOffsetX="0.3456" v:shadowOffsetY="-1.9728" v:shadowType="1"
						transform="matrix(1,0,0,1,0.3456,1.9728)" class="st1">
					<path d="M4.19 40.97 C4.1 40.15 3.69 39.45 3.09 38.97 C2.97 38.88 2.86 38.8 2.74 38.73 L2.5 39.17 C2.6 39.23
								 2.69 39.29 2.77 39.36 C3.26 39.76 3.61 40.34 3.67 41.02 C3.74 41.68 3.54 42.32 3.15 42.81 C2.75
								 43.29 2.17 43.64 1.51 43.7 C1.06 43.76 0.62 43.67 0.24 43.5 L0 43.94 C0.46 44.17 0.99 44.27 1.56
								 44.2 C2.36 44.12 3.06 43.7 3.54 43.12 C4.02 42.54 4.27 41.77 4.19 40.97 Z" class="st2"/>
				</g>
				<path d="M4.19 40.97 C4.1 40.15 3.69 39.45 3.09 38.97 C2.97 38.88 2.86 38.8 2.74 38.73 L2.5 39.17 C2.6 39.23 2.69
							 39.29 2.77 39.36 C3.26 39.76 3.61 40.34 3.67 41.02 C3.74 41.68 3.54 42.32 3.15 42.81 C2.75 43.29 2.17
							 43.64 1.51 43.7 C1.06 43.76 0.62 43.67 0.24 43.5 L0 43.94 C0.46 44.17 0.99 44.27 1.56 44.2 C2.36 44.12
							 3.06 43.7 3.54 43.12 C4.02 42.54 4.27 41.77 4.19 40.97 Z" class="st7"/>
			</g>
			<g id="shape37-28" v:mID="37" v:groupContext="shape" transform="translate(1.33404,-2.3089)">
				<title>Sheet.37</title>
				<g id="shadow37-29" v:groupContext="shadow" v:shadowOffsetX="0.3456" v:shadowOffsetY="-1.9728" v:shadowType="1"
						transform="matrix(1,0,0,1,0.3456,1.9728)" class="st1">
					<path d="M1.47 43.5 C0.99 43.1 0.65 42.52 0.58 41.86 C0.51 41.19 0.72 40.56 1.11 40.06 C1.51 39.58 2.09 39.24
								 2.75 39.17 C3.3 39.12 3.81 39.24 4.24 39.5 L4.48 39.05 C3.97 38.75 3.33 38.61 2.7 38.68 C1.9 38.76
								 1.2 39.17 0.72 39.76 C0.24 40.34 0 41.11 0.09 41.91 C0.17 42.71 0.58 43.41 1.17 43.89 C1.35 44.05
								 1.56 44.17 1.78 44.27 L2.02 43.82 C1.82 43.74 1.63 43.62 1.47 43.5 Z" class="st2"/>
				</g>
				<path d="M1.47 43.5 C0.99 43.1 0.65 42.52 0.58 41.86 C0.51 41.19 0.72 40.56 1.11 40.06 C1.51 39.58 2.09 39.24 2.75
							 39.17 C3.3 39.12 3.81 39.24 4.24 39.5 L4.48 39.05 C3.97 38.75 3.33 38.61 2.7 38.68 C1.9 38.76 1.2 39.17
							 0.72 39.76 C0.24 40.34 0 41.11 0.09 41.91 C0.17 42.71 0.58 43.41 1.17 43.89 C1.35 44.05 1.56 44.17 1.78
							 44.27 L2.02 43.82 C1.82 43.74 1.63 43.62 1.47 43.5 Z" class="st8"/>
			</g>
			<g id="shape38-33" v:mID="38" v:groupContext="shape" transform="translate(1.33404,-2.3089)">
				<title>Sheet.38</title>
				<g id="shadow38-34" v:groupContext="shadow" v:shadowOffsetX="0.3456" v:shadowOffsetY="-1.9728" v:shadowType="1"
						transform="matrix(1,0,0,1,0.3456,1.9728)" class="st1">
					<path d="M1.47 43.5 C0.99 43.1 0.65 42.52 0.58 41.86 C0.51 41.19 0.72 40.56 1.11 40.06 C1.51 39.58 2.09 39.24
								 2.75 39.17 C3.3 39.12 3.81 39.24 4.24 39.5 L4.48 39.05 C3.97 38.75 3.33 38.61 2.7 38.68 C1.9 38.76
								 1.2 39.17 0.72 39.76 C0.24 40.34 0 41.11 0.09 41.91 C0.17 42.71 0.58 43.41 1.17 43.89 C1.35 44.05
								 1.56 44.17 1.78 44.27 L2.02 43.82 C1.82 43.74 1.63 43.62 1.47 43.5 Z" class="st2"/>
				</g>
				<path d="M1.47 43.5 C0.99 43.1 0.65 42.52 0.58 41.86 C0.51 41.19 0.72 40.56 1.11 40.06 C1.51 39.58 2.09 39.24 2.75
							 39.17 C3.3 39.12 3.81 39.24 4.24 39.5 L4.48 39.05 C3.97 38.75 3.33 38.61 2.7 38.68 C1.9 38.76 1.2 39.17
							 0.72 39.76 C0.24 40.34 0 41.11 0.09 41.91 C0.17 42.71 0.58 43.41 1.17 43.89 C1.35 44.05 1.56 44.17 1.78
							 44.27 L2.02 43.82 C1.82 43.74 1.63 43.62 1.47 43.5 Z" class="st9"/>
			</g>
			<g id="shape39-38" v:mID="39" v:groupContext="shape" transform="translate(4.25865,-4.17313)">
				<title>Sheet.39</title>
				<g id="shadow39-39" v:groupContext="shadow" v:shadowOffsetX="0.3456" v:shadowOffsetY="-1.9728" v:shadowType="1"
						transform="matrix(1,0,0,1,0.3456,1.9728)" class="st1">
					<path d="M1.32 44.24 L0.19 43.82 C0.07 43.77 0 43.65 0.05 43.52 C0.1 43.4 0.22 43.33 0.36 43.38 L1.49 43.79 C1.61
								 43.84 1.68 43.96 1.63 44.1 C1.58 44.22 1.44 44.27 1.32 44.24 Z" class="st2"/>
				</g>
				<path d="M1.32 44.24 L0.19 43.82 C0.07 43.77 0 43.65 0.05 43.52 C0.1 43.4 0.22 43.33 0.36 43.38 L1.49 43.79 C1.61
							 43.84 1.68 43.96 1.63 44.1 C1.58 44.22 1.44 44.27 1.32 44.24 Z" class="st10"/>
			</g>
			<g id="shape40-43" v:mID="40" v:groupContext="shape" transform="translate(4.07052,-4.65202)">
				<title>Sheet.40</title>
				<g id="shadow40-44" v:groupContext="shadow" v:shadowOffsetX="0.3456" v:shadowOffsetY="-1.9728" v:shadowType="1"
						transform="matrix(1,0,0,1,0.3456,1.9728)" class="st1">
					<path d="M0.24 44.27 C0.1 44.27 0 44.17 0 44.03 L0 42.03 C0 41.89 0.1 41.79 0.24 41.79 C0.38 41.79 0.48 41.89
								 0.48 42.03 L0.48 44.03 C0.48 44.17 0.38 44.27 0.24 44.27 Z" class="st2"/>
				</g>
				<path d="M0.24 44.27 C0.1 44.27 0 44.17 0 44.03 L0 42.03 C0 41.89 0.1 41.79 0.24 41.79 C0.38 41.79 0.48 41.89 0.48
							 42.03 L0.48 44.03 C0.48 44.17 0.38 44.27 0.24 44.27 Z" class="st10"/>
			</g>
			<g id="shape41-48" v:mID="41" v:groupContext="shape" transform="translate(3.9679,-4.54939)">
				<title>Sheet.41</title>
				<g id="shadow41-49" v:groupContext="shadow" v:shadowOffsetX="0.3456" v:shadowOffsetY="-1.9728" v:shadowType="1"
						transform="matrix(1,0,0,1,0.3456,1.9728)" class="st1">
					<ellipse cx="0.34206" cy="43.927" rx="0.34206" ry="0.34206" class="st2"/>
				</g>
				<ellipse cx="0.34206" cy="43.927" rx="0.34206" ry="0.34206" class="st11"/>
			</g>
			<g id="shape49-53" v:mID="49" v:groupContext="shape">
				<title>Sheet.49</title>
				<g id="shadow49-54" v:groupContext="shadow" v:shadowOffsetX="0.3456" v:shadowOffsetY="-1.9728" v:shadowType="1"
						transform="matrix(1,0,0,1,0.3456,1.9728)" class="st1">
					<path d="M4.03 41.92 L5.23 43.04 L4.15 44.27 L4.17 43.46 C4.09 43.46 3.97 43.46 3.88 43.46 C1.75 43.46 0 41.72
								 0 39.58 C0 37.44 1.75 35.72 3.88 35.72 C4.96 35.72 5.95 36.16 6.66 36.88 C6.04 36.28 5.22 35.92
								 4.29 35.92 C2.43 35.91 0.94 37.41 0.93 39.28 C0.93 41.05 2.38 42.51 4.12 42.63 L4.03 41.92 Z"
							class="st2"/>
				</g>
				<path d="M4.03 41.92 L5.23 43.04 L4.15 44.27 L4.17 43.46 C4.09 43.46 3.97 43.46 3.88 43.46 C1.75 43.46 0 41.72 0
							 39.58 C0 37.44 1.75 35.72 3.88 35.72 C4.96 35.72 5.95 36.16 6.66 36.88 C6.04 36.28 5.22 35.92 4.29 35.92
							 C2.43 35.91 0.94 37.41 0.93 39.28 C0.93 41.05 2.38 42.51 4.12 42.63 L4.03 41.92 Z" class="st3"/>
			</g>
			<g id="shape50-58" v:mID="50" v:groupContext="shape">
				<title>Sheet.50</title>
				<g id="shadow50-59" v:groupContext="shadow" v:shadowOffsetX="0.3456" v:shadowOffsetY="-1.9728" v:shadowType="1"
						transform="matrix(1,0,0,1,0.3456,1.9728)" class="st1">
					<path d="M4.24 43.14 C2.12 43.05 0.46 41.26 0.55 39.14 C0.6 37.82 1.32 36.67 2.36 36.02 C0.98 36.62 0 37.99 0
								 39.6 C0 41.74 1.75 43.48 3.88 43.48 C3.97 43.48 4.09 43.48 4.17 43.48 L4.15 44.27 L5.22 43.05 C4.91
								 43.12 4.58 43.14 4.24 43.14 Z" class="st2"/>
				</g>
				<path d="M4.24 43.14 C2.12 43.05 0.46 41.26 0.55 39.14 C0.6 37.82 1.32 36.67 2.36 36.02 C0.98 36.62 0 37.99 0 39.6
							 C0 41.74 1.75 43.48 3.88 43.48 C3.97 43.48 4.09 43.48 4.17 43.48 L4.15 44.27 L5.22 43.05 C4.91 43.12
							 4.58 43.14 4.24 43.14 Z" class="st12"/>
			</g>
		</g>
	</g>
</svg>
