<?xml version="1.0" encoding="UTF-8" standalone="no"?>
<!DOCTYPE svg PUBLIC "-//W3C//DTD SVG 1.1//EN" "http://www.w3.org/Graphics/SVG/1.1/DTD/svg11.dtd">
<!-- Generated by Microsoft Visio, SVG Export FaultTolerance.svg Page-1 -->
<svg xmlns="http://www.w3.org/2000/svg" xmlns:xlink="http://www.w3.org/1999/xlink" xmlns:ev="http://www.w3.org/2001/xml-events"
		xmlns:v="http://schemas.microsoft.com/visio/2003/SVGExtensions/" width="0.856873in" height="0.856873in"
		viewBox="0 0 61.6949 61.6949" xml:space="preserve" color-interpolation-filters="sRGB" class="st21">
	<v:documentProperties v:langID="1033" v:viewMarkup="false"/>

	<style type="text/css">
	<![CDATA[
		.st1 {fill:#ffffff;stroke:none;stroke-linecap:round;stroke-linejoin:round;stroke-width:0.75}
		.st2 {visibility:visible}
		.st3 {fill:#5b9bd5;fill-opacity:0.22;filter:url(#filter_2);stroke:none}
		.st4 {fill:#59b4d9;stroke:none;stroke-width:0.75}
		.st5 {fill:#a0a1a2;stroke:none;stroke-width:0.75}
		.st6 {fill:#ffffff;fill-opacity:0.2;stroke:none;stroke-width:0.75}
		.st7 {fill:#b8d432;stroke:none;stroke-width:0.75}
		.st8 {fill:#ffffff;stroke:none;stroke-width:0.75}
		.st9 {fill:#7a7a7a;stroke:none;stroke-width:0.75}
		.st10 {fill:#ffffff;fill-opacity:0.7;stroke:none;stroke-width:0.75}
		.st11 {fill:#ffffff;fill-opacity:0.4;stroke:none;stroke-width:0.75}
		.st12 {fill:#7a7a7a;stroke:none;stroke-width:12.24}
		.st13 {fill:#a0a1a2;stroke:none;stroke-width:12.24}
		.st14 {fill:#ffffff;fill-opacity:0.2;stroke:none;stroke-width:12.24}
		.st15 {fill:#59b4d9;stroke:none;stroke-width:12.24}
		.st16 {fill:#b8d432;stroke:none;stroke-width:12.24}
		.st17 {fill:#ffffff;stroke:none;stroke-width:12.24}
		.st18 {fill:#ffffff;fill-opacity:0.7;stroke:none;stroke-width:12.24}
		.st19 {fill:#ffffff;fill-opacity:0.4;stroke:none;stroke-width:12.24}
		.st20 {fill:#bfbfbf;stroke:none;stroke-linecap:round;stroke-linejoin:round;stroke-width:0.24}
		.st21 {fill:none;fill-rule:evenodd;font-size:12px;overflow:visible;stroke-linecap:square;stroke-miterlimit:3}
	]]>
	</style>

	<defs id="Filters">
		<filter id="filter_2">
			<feGaussianBlur stdDeviation="2"/>
		</filter>
	</defs>
	<g v:mID="0" v:index="1" v:groupContext="foregroundPage">
		<title>Page-1</title>
		<v:pageProperties v:drawingScale="0.0393701" v:pageScale="0.0393701" v:drawingUnits="24" v:shadowOffsetX="8.50394"
				v:shadowOffsetY="-8.50394"/>
		<g id="group185-1" transform="translate(0.375,-0.375)" v:mID="185" v:groupContext="group">
			<title>Sheet.185</title>
			<g id="shape119-2" v:mID="119" v:groupContext="shape">
				<title>Sheet.119</title>
				<rect x="0" y="0.750001" width="60.9449" height="60.9449" class="st1"/>
			</g>
			<g id="group184-4" transform="translate(12.7559,-19.7328)" v:mID="184" v:groupContext="group">
				<title>Sheet.184</title>
				<g id="group87-5" transform="translate(21.1431,-4.9738E-14)" v:mID="87" v:groupContext="group">
					<title>Azure Virtual Machines - Availability Set</title>
					<g id="shape88-6" v:mID="88" v:groupContext="shape" transform="translate(6.19242,-19.3313)">
						<title>Sheet.88</title>
						<g id="shadow88-7" v:groupContext="shadow" v:shadowOffsetX="0.3456" v:shadowOffsetY="-1.9728"
								v:shadowType="1" transform="matrix(1,0,0,1,0.3456,1.9728)" class="st2">
							<rect x="0" y="59.547" width="1.90543" height="2.14792" class="st3"/>
						</g>
						<rect x="0" y="59.547" width="1.90543" height="2.14792" class="st4"/>
					</g>
					<g id="shape89-11" v:mID="89" v:groupContext="shape" transform="translate(3.33442,-19.3313)">
						<title>Sheet.89</title>
						<g id="shadow89-12" v:groupContext="shadow" v:shadowOffsetX="0.3456" v:shadowOffsetY="-1.9728"
								v:shadowType="1" transform="matrix(1,0,0,1,0.3456,1.9728)" class="st2">
							<rect x="0" y="59.547" width="1.90543" height="2.14792" class="st3"/>
						</g>
						<rect x="0" y="59.547" width="1.90543" height="2.14792" class="st4"/>
					</g>
					<g id="shape90-16" v:mID="90" v:groupContext="shape" transform="translate(11.9084,0)">
						<title>Sheet.90</title>
						<g id="shadow90-17" v:groupContext="shadow" v:shadowOffsetX="0.3456" v:shadowOffsetY="-1.9728"
								v:shadowType="1" transform="matrix(1,0,0,1,0.3456,1.9728)" class="st2">
							<path d="M0.95 59.55 L0 59.55 L0 61.69 L1.43 61.69 C1.96 61.69 2.38 61.05 2.38 60.26 L2.38 58.12 L0.95
										 58.12 L0.95 59.55 Z" class="st3"/>
						</g>
						<path d="M0.95 59.55 L0 59.55 L0 61.69 L1.43 61.69 C1.96 61.69 2.38 61.05 2.38 60.26 L2.38 58.12 L0.95 58.12
									 L0.95 59.55 Z" class="st4"/>
					</g>
					<g id="shape91-21" v:mID="91" v:groupContext="shape" transform="translate(0,-5.01153)">
						<title>Sheet.91</title>
						<g id="shadow91-22" v:groupContext="shadow" v:shadowOffsetX="0.3456" v:shadowOffsetY="-1.9728"
								v:shadowType="1" transform="matrix(1,0,0,1,0.3456,1.9728)" class="st2">
							<rect x="0" y="58.8308" width="1.429" height="2.86404" class="st3"/>
						</g>
						<rect x="0" y="58.8308" width="1.429" height="2.86404" class="st4"/>
					</g>
					<g id="shape92-26" v:mID="92" v:groupContext="shape" transform="translate(6.19242,0)">
						<title>Sheet.92</title>
						<g id="shadow92-27" v:groupContext="shadow" v:shadowOffsetX="0.3456" v:shadowOffsetY="-1.9728"
								v:shadowType="1" transform="matrix(1,0,0,1,0.3456,1.9728)" class="st2">
							<rect x="0" y="59.547" width="1.90543" height="2.14792" class="st3"/>
						</g>
						<rect x="0" y="59.547" width="1.90543" height="2.14792" class="st4"/>
					</g>
					<g id="shape93-31" v:mID="93" v:groupContext="shape" transform="translate(12.861,-5.01153)">
						<title>Sheet.93</title>
						<g id="shadow93-32" v:groupContext="shadow" v:shadowOffsetX="0.3456" v:shadowOffsetY="-1.9728"
								v:shadowType="1" transform="matrix(1,0,0,1,0.3456,1.9728)" class="st2">
							<rect x="0" y="58.8308" width="1.429" height="2.86404" class="st3"/>
						</g>
						<rect x="0" y="58.8308" width="1.429" height="2.86404" class="st4"/>
					</g>
					<g id="shape94-36" v:mID="94" v:groupContext="shape" transform="translate(9.05041,0)">
						<title>Sheet.94</title>
						<g id="shadow94-37" v:groupContext="shadow" v:shadowOffsetX="0.3456" v:shadowOffsetY="-1.9728"
								v:shadowType="1" transform="matrix(1,0,0,1,0.3456,1.9728)" class="st2">
							<rect x="0" y="59.547" width="1.90543" height="2.14792" class="st3"/>
						</g>
						<rect x="0" y="59.547" width="1.90543" height="2.14792" class="st4"/>
					</g>
					<g id="shape95-41" v:mID="95" v:groupContext="shape" transform="translate(3.33442,0)">
						<title>Sheet.95</title>
						<g id="shadow95-42" v:groupContext="shadow" v:shadowOffsetX="0.3456" v:shadowOffsetY="-1.9728"
								v:shadowType="1" transform="matrix(1,0,0,1,0.3456,1.9728)" class="st2">
							<rect x="0" y="59.547" width="1.90543" height="2.14792" class="st3"/>
						</g>
						<rect x="0" y="59.547" width="1.90543" height="2.14792" class="st4"/>
					</g>
					<g id="shape96-46" v:mID="96" v:groupContext="shape">
						<title>Sheet.96</title>
						<g id="shadow96-47" v:groupContext="shadow" v:shadowOffsetX="0.3456" v:shadowOffsetY="-1.9728"
								v:shadowType="1" transform="matrix(1,0,0,1,0.3456,1.9728)" class="st2">
							<path d="M1.43 59.55 L1.43 58.12 L0 58.12 L0 60.26 C0 61.05 0.43 61.69 0.95 61.69 L2.38 61.69 L2.38 59.55
										 L1.43 59.55 Z" class="st3"/>
						</g>
						<path d="M1.43 59.55 L1.43 58.12 L0 58.12 L0 60.26 C0 61.05 0.43 61.69 0.95 61.69 L2.38 61.69 L2.38 59.55
									 L1.43 59.55 Z" class="st4"/>
					</g>
					<g id="shape97-51" v:mID="97" v:groupContext="shape" transform="translate(0,-13.6032)">
						<title>Sheet.97</title>
						<g id="shadow97-52" v:groupContext="shadow" v:shadowOffsetX="0.3456" v:shadowOffsetY="-1.9728"
								v:shadowType="1" transform="matrix(1,0,0,1,0.3456,1.9728)" class="st2">
							<rect x="0" y="58.8308" width="1.429" height="2.86404" class="st3"/>
						</g>
						<rect x="0" y="58.8308" width="1.429" height="2.86404" class="st4"/>
					</g>
					<g id="shape98-56" v:mID="98" v:groupContext="shape" transform="translate(0,-17.8995)">
						<title>Sheet.98</title>
						<g id="shadow98-57" v:groupContext="shadow" v:shadowOffsetX="0.3456" v:shadowOffsetY="-1.9728"
								v:shadowType="1" transform="matrix(1,0,0,1,0.3456,1.9728)" class="st2">
							<path d="M1.43 60.26 L2.38 60.26 L2.38 58.12 L0.95 58.12 C0.43 58.12 0 58.76 0 59.55 L0 61.69 L1.43 61.69
										 L1.43 60.26 Z" class="st3"/>
						</g>
						<path d="M1.43 60.26 L2.38 60.26 L2.38 58.12 L0.95 58.12 C0.43 58.12 0 58.76 0 59.55 L0 61.69 L1.43 61.69
									 L1.43 60.26 Z" class="st4"/>
					</g>
					<g id="shape99-61" v:mID="99" v:groupContext="shape" transform="translate(0,-9.30737)">
						<title>Sheet.99</title>
						<g id="shadow99-62" v:groupContext="shadow" v:shadowOffsetX="0.3456" v:shadowOffsetY="-1.9728"
								v:shadowType="1" transform="matrix(1,0,0,1,0.3456,1.9728)" class="st2">
							<rect x="0" y="58.8308" width="1.429" height="2.86404" class="st3"/>
						</g>
						<rect x="0" y="58.8308" width="1.429" height="2.86404" class="st4"/>
					</g>
					<g id="shape100-66" v:mID="100" v:groupContext="shape" transform="translate(12.861,-9.30737)">
						<title>Sheet.100</title>
						<g id="shadow100-67" v:groupContext="shadow" v:shadowOffsetX="0.3456" v:shadowOffsetY="-1.9728"
								v:shadowType="1" transform="matrix(1,0,0,1,0.3456,1.9728)" class="st2">
							<rect x="0" y="58.8308" width="1.429" height="2.86404" class="st3"/>
						</g>
						<rect x="0" y="58.8308" width="1.429" height="2.86404" class="st4"/>
					</g>
					<g id="shape101-71" v:mID="101" v:groupContext="shape" transform="translate(12.861,-13.6036)">
						<title>Sheet.101</title>
						<g id="shadow101-72" v:groupContext="shadow" v:shadowOffsetX="0.3456" v:shadowOffsetY="-1.9728"
								v:shadowType="1" transform="matrix(1,0,0,1,0.3456,1.9728)" class="st2">
							<rect x="0" y="58.8308" width="1.429" height="2.86404" class="st3"/>
						</g>
						<rect x="0" y="58.8308" width="1.429" height="2.86404" class="st4"/>
					</g>
					<g id="shape102-76" v:mID="102" v:groupContext="shape" transform="translate(9.05013,-19.3313)">
						<title>Sheet.102</title>
						<g id="shadow102-77" v:groupContext="shadow" v:shadowOffsetX="0.3456" v:shadowOffsetY="-1.9728"
								v:shadowType="1" transform="matrix(1,0,0,1,0.3456,1.9728)" class="st2">
							<rect x="0" y="59.547" width="1.90543" height="2.14792" class="st3"/>
						</g>
						<rect x="0" y="59.547" width="1.90543" height="2.14792" class="st4"/>
					</g>
					<g id="shape103-81" v:mID="103" v:groupContext="shape" transform="translate(11.9084,-17.8995)">
						<title>Sheet.103</title>
						<g id="shadow103-82" v:groupContext="shadow" v:shadowOffsetX="0.3456" v:shadowOffsetY="-1.9728"
								v:shadowType="1" transform="matrix(1,0,0,1,0.3456,1.9728)" class="st2">
							<path d="M0.95 60.26 L0.95 61.69 L2.38 61.69 L2.38 59.55 C2.38 58.76 1.95 58.12 1.43 58.12 L0 58.12 L0
										 60.26 L0.95 60.26 Z" class="st3"/>
						</g>
						<path d="M0.95 60.26 L0.95 61.69 L2.38 61.69 L2.38 59.55 C2.38 58.76 1.95 58.12 1.43 58.12 L0 58.12 L0 60.26
									 L0.95 60.26 Z" class="st4"/>
					</g>
					<g id="shape104-86" v:mID="104" v:groupContext="shape" transform="translate(2.39814,-8.6428)">
						<title>Sheet.104</title>
						<g id="shadow104-87" v:groupContext="shadow" v:shadowOffsetX="0.3456" v:shadowOffsetY="-1.9728"
								v:shadowType="1" transform="matrix(1,0,0,1,0.3456,1.9728)" class="st2">
							<path d="M7.7 52.71 L0.45 52.71 C0.2 52.71 0 53.04 0 53.41 L0 61 C0 61.37 0.2 61.69 0.45 61.69 L7.7 61.69
										 C7.94 61.69 8.19 61.37 8.19 61 L8.19 53.41 C8.19 53.04 7.94 52.71 7.7 52.71 Z" class="st3"/>
						</g>
						<path d="M7.7 52.71 L0.45 52.71 C0.2 52.71 0 53.04 0 53.41 L0 61 C0 61.37 0.2 61.69 0.45 61.69 L7.7 61.69
									 C7.94 61.69 8.19 61.37 8.19 61 L8.19 53.41 C8.19 53.04 7.94 52.71 7.7 52.71 Z" class="st5"/>
					</g>
					<g id="shape105-91" v:mID="105" v:groupContext="shape" transform="translate(2.39814,-8.64323)">
						<title>Sheet.105</title>
						<g id="shadow105-92" v:groupContext="shadow" v:shadowOffsetX="0.3456" v:shadowOffsetY="-1.9728"
								v:shadowType="1" transform="matrix(1,0,0,1,0.3456,1.9728)" class="st2">
							<path d="M7.7 52.71 C7.7 52.71 7.7 52.71 7.7 52.71 L0.45 52.71 C0.2 52.71 0 53.04 0 53.41 L0 61 C0 61.37
										 0.2 61.69 0.45 61.69 L0.62 61.69 L7.7 52.71 Z" class="st3"/>
						</g>
						<path d="M7.7 52.71 C7.7 52.71 7.7 52.71 7.7 52.71 L0.45 52.71 C0.2 52.71 0 53.04 0 53.41 L0 61 C0 61.37
									 0.2 61.69 0.45 61.69 L0.62 61.69 L7.7 52.71 Z" class="st6"/>
					</g>
					<g id="shape106-96" v:mID="106" v:groupContext="shape" transform="translate(3.01919,-9.58917)">
						<title>Sheet.106</title>
						<g id="shadow106-97" v:groupContext="shadow" v:shadowOffsetX="0.3456" v:shadowOffsetY="-1.9728"
								v:shadowType="1" transform="matrix(1,0,0,1,0.3456,1.9728)" class="st2">
							<path d="M6.95 61.69 L0 61.69 L0 54.6 L6.95 54.58 L6.95 61.69 Z" class="st3"/>
						</g>
						<path d="M6.95 61.69 L0 61.69 L0 54.6 L6.95 54.58 L6.95 61.69 Z" class="st4"/>
					</g>
					<g id="shape107-101" v:mID="107" v:groupContext="shape" transform="translate(6.34732,-16.9406)">
						<title>Sheet.107</title>
						<g id="shadow107-102" v:groupContext="shadow" v:shadowOffsetX="0.3456" v:shadowOffsetY="-1.9728"
								v:shadowType="1" transform="matrix(1,0,0,1,0.3456,1.9728)" class="st2">
							<path d="M0.23 61.52 C0.23 61.62 0.18 61.69 0.12 61.69 C0.05 61.69 0 61.62 0 61.52 C0 61.42 0.05 61.35
										 0.12 61.35 C0.18 61.35 0.23 61.42 0.23 61.52 Z" class="st3"/>
						</g>
						<path d="M0.23 61.52 C0.23 61.62 0.18 61.69 0.12 61.69 C0.05 61.69 0 61.62 0 61.52 C0 61.42 0.05 61.35 0.12
									 61.35 C0.18 61.35 0.23 61.42 0.23 61.52 Z" class="st7"/>
					</g>
					<g id="shape108-106" v:mID="108" v:groupContext="shape" transform="translate(5.09809,-13.3519)">
						<title>Sheet.108</title>
						<g id="shadow108-107" v:groupContext="shadow" v:shadowOffsetX="0.3456" v:shadowOffsetY="-1.9728"
								v:shadowType="1" transform="matrix(1,0,0,1,0.3456,1.9728)" class="st2">
							<path d="M1.49 61.69 C1.48 61.69 1.47 61.69 1.46 61.69 L0.02 60.44 C0.01 60.42 0 60.4 0 60.38 C0 60.36
										 0.01 60.33 0.02 60.32 L1.46 59.08 C1.47 59.07 1.49 59.07 1.5 59.08 L2.94 60.33 C2.96 60.34
										 2.96 60.36 2.96 60.39 C2.96 60.41 2.96 60.43 2.94 60.44 L1.51 61.69 C1.5 61.69 1.49 61.69
										 1.49 61.69 Z" class="st3"/>
						</g>
						<path d="M1.49 61.69 C1.48 61.69 1.47 61.69 1.46 61.69 L0.02 60.44 C0.01 60.42 0 60.4 0 60.38 C0 60.36 0.01
									 60.33 0.02 60.32 L1.46 59.08 C1.47 59.07 1.49 59.07 1.5 59.08 L2.94 60.33 C2.96 60.34 2.96 60.36
									 2.96 60.39 C2.96 60.41 2.96 60.43 2.94 60.44 L1.51 61.69 C1.5 61.69 1.49 61.69 1.49 61.69 Z"
								class="st8"/>
					</g>
					<g id="shape109-111" v:mID="109" v:groupContext="shape" transform="translate(5.1161,-3.84864)">
						<title>Sheet.109</title>
						<g id="shadow109-112" v:groupContext="shadow" v:shadowOffsetX="0.3456" v:shadowOffsetY="-1.9728"
								v:shadowType="1" transform="matrix(1,0,0,1,0.3456,1.9728)" class="st2">
							<path d="M3.9 59.33 L3.7 59.33 L1.77 59.33 L1.67 59.33 C1.94 60.75 1.58 60.95 0 60.95 L0 61.69 L2 61.69
										 L3.47 61.69 L5.36 61.69 L5.36 60.95 C3.78 60.95 3.63 60.75 3.9 59.33 Z" class="st3"/>
						</g>
						<path d="M3.9 59.33 L3.7 59.33 L1.77 59.33 L1.67 59.33 C1.94 60.75 1.58 60.95 0 60.95 L0 61.69 L2 61.69 L3.47
									 61.69 L5.36 61.69 L5.36 60.95 C3.78 60.95 3.63 60.75 3.9 59.33 Z" class="st9"/>
					</g>
					<g id="shape110-116" v:mID="110" v:groupContext="shape" transform="translate(3.69825,-6.2135)">
						<title>Sheet.110</title>
						<g id="shadow110-117" v:groupContext="shadow" v:shadowOffsetX="0.3456" v:shadowOffsetY="-1.9728"
								v:shadowType="1" transform="matrix(1,0,0,1,0.3456,1.9728)" class="st2">
							<path d="M7.7 52.71 L0.45 52.71 C0.2 52.71 0 53.04 0 53.41 L0 61 C0 61.37 0.2 61.69 0.45 61.69 L7.7 61.69
										 C7.94 61.69 8.19 61.37 8.19 61 L8.19 53.41 C8.19 53.04 7.94 52.71 7.7 52.71 Z" class="st3"/>
						</g>
						<path d="M7.7 52.71 L0.45 52.71 C0.2 52.71 0 53.04 0 53.41 L0 61 C0 61.37 0.2 61.69 0.45 61.69 L7.7 61.69
									 C7.94 61.69 8.19 61.37 8.19 61 L8.19 53.41 C8.19 53.04 7.94 52.71 7.7 52.71 Z" class="st5"/>
					</g>
					<g id="shape111-121" v:mID="111" v:groupContext="shape" transform="translate(3.69796,-6.21393)">
						<title>Sheet.111</title>
						<g id="shadow111-122" v:groupContext="shadow" v:shadowOffsetX="0.3456" v:shadowOffsetY="-1.9728"
								v:shadowType="1" transform="matrix(1,0,0,1,0.3456,1.9728)" class="st2">
							<path d="M7.7 52.71 C7.7 52.71 7.7 52.71 7.7 52.71 L0.45 52.71 C0.2 52.71 0 53.04 0 53.41 L0 61 C0 61.37
										 0.2 61.69 0.45 61.69 L0.62 61.69 L7.7 52.71 Z" class="st3"/>
						</g>
						<path d="M7.7 52.71 C7.7 52.71 7.7 52.71 7.7 52.71 L0.45 52.71 C0.2 52.71 0 53.04 0 53.41 L0 61 C0 61.37
									 0.2 61.69 0.45 61.69 L0.62 61.69 L7.7 52.71 Z" class="st6"/>
					</g>
					<g id="shape112-126" v:mID="112" v:groupContext="shape" transform="translate(4.319,-7.15988)">
						<title>Sheet.112</title>
						<g id="shadow112-127" v:groupContext="shadow" v:shadowOffsetX="0.3456" v:shadowOffsetY="-1.9728"
								v:shadowType="1" transform="matrix(1,0,0,1,0.3456,1.9728)" class="st2">
							<path d="M6.95 61.69 L0 61.69 L0 54.6 L6.95 54.58 L6.95 61.69 Z" class="st3"/>
						</g>
						<path d="M6.95 61.69 L0 61.69 L0 54.6 L6.95 54.58 L6.95 61.69 Z" class="st4"/>
					</g>
					<g id="shape113-131" v:mID="113" v:groupContext="shape" transform="translate(5.1161,-3.84864)">
						<title>Sheet.113</title>
						<g id="shadow113-132" v:groupContext="shadow" v:shadowOffsetX="0.3456" v:shadowOffsetY="-1.9728"
								v:shadowType="1" transform="matrix(1,0,0,1,0.3456,1.9728)" class="st2">
							<rect x="0" y="60.9517" width="5.35731" height="0.74318" class="st3"/>
						</g>
						<rect x="0" y="60.9517" width="5.35731" height="0.74318" class="st5"/>
					</g>
					<g id="shape114-136" v:mID="114" v:groupContext="shape" transform="translate(7.64742,-14.5113)">
						<title>Sheet.114</title>
						<g id="shadow114-137" v:groupContext="shadow" v:shadowOffsetX="0.3456" v:shadowOffsetY="-1.9728"
								v:shadowType="1" transform="matrix(1,0,0,1,0.3456,1.9728)" class="st2">
							<path d="M0.23 61.52 C0.23 61.62 0.18 61.69 0.12 61.69 C0.05 61.69 0 61.62 0 61.52 C0 61.42 0.05 61.35
										 0.12 61.35 C0.18 61.35 0.23 61.42 0.23 61.52 Z" class="st3"/>
						</g>
						<path d="M0.23 61.52 C0.23 61.62 0.18 61.69 0.12 61.69 C0.05 61.69 0 61.62 0 61.52 C0 61.42 0.05 61.35 0.12
									 61.35 C0.18 61.35 0.23 61.42 0.23 61.52 Z" class="st7"/>
					</g>
					<g id="shape115-141" v:mID="115" v:groupContext="shape" transform="translate(6.39791,-10.9222)">
						<title>Sheet.115</title>
						<g id="shadow115-142" v:groupContext="shadow" v:shadowOffsetX="0.3456" v:shadowOffsetY="-1.9728"
								v:shadowType="1" transform="matrix(1,0,0,1,0.3456,1.9728)" class="st2">
							<path d="M1.49 61.69 C1.48 61.69 1.47 61.69 1.46 61.69 L0.02 60.44 C0.01 60.42 0 60.4 0 60.38 C0 60.36
										 0.01 60.33 0.02 60.32 L1.46 59.08 C1.47 59.07 1.49 59.07 1.5 59.08 L2.94 60.33 C2.96 60.34
										 2.96 60.36 2.96 60.39 C2.96 60.41 2.96 60.43 2.94 60.44 L1.51 61.69 C1.5 61.69 1.49 61.69
										 1.49 61.69 Z" class="st3"/>
						</g>
						<path d="M1.49 61.69 C1.48 61.69 1.47 61.69 1.46 61.69 L0.02 60.44 C0.01 60.42 0 60.4 0 60.38 C0 60.36 0.01
									 60.33 0.02 60.32 L1.46 59.08 C1.47 59.07 1.49 59.07 1.5 59.08 L2.94 60.33 C2.96 60.34 2.96 60.36
									 2.96 60.39 C2.96 60.41 2.96 60.43 2.94 60.44 L1.51 61.69 C1.5 61.69 1.49 61.69 1.49 61.69 Z"
								class="st8"/>
					</g>
					<g id="shape116-146" v:mID="116" v:groupContext="shape" transform="translate(6.19413,-7.88372)">
						<title>Sheet.116</title>
						<g id="shadow116-147" v:groupContext="shadow" v:shadowOffsetX="0.3456" v:shadowOffsetY="-1.9728"
								v:shadowType="1" transform="matrix(1,0,0,1,0.3456,1.9728)" class="st2">
							<path d="M1.48 61.69 C1.47 61.69 1.47 61.69 1.46 61.69 L0.02 60.44 C0.01 60.43 0 60.41 0 60.38 L0 57.88
										 C0 57.86 0.01 57.84 0.02 57.83 C0.04 57.81 0.05 57.81 0.07 57.83 L1.5 59.07 C1.52 59.08
										 1.53 59.1 1.53 59.13 L1.53 61.63 C1.53 61.65 1.52 61.67 1.5 61.69 C1.5 61.69 1.49 61.69
										 1.48 61.69 Z" class="st3"/>
						</g>
						<path d="M1.48 61.69 C1.47 61.69 1.47 61.69 1.46 61.69 L0.02 60.44 C0.01 60.43 0 60.41 0 60.38 L0 57.88 C0
									 57.86 0.01 57.84 0.02 57.83 C0.04 57.81 0.05 57.81 0.07 57.83 L1.5 59.07 C1.52 59.08 1.53 59.1
									 1.53 59.13 L1.53 61.63 C1.53 61.65 1.52 61.67 1.5 61.69 C1.5 61.69 1.49 61.69 1.48 61.69 Z"
								class="st10"/>
					</g>
					<g id="shape117-151" v:mID="117" v:groupContext="shape" transform="translate(8.04068,-7.88372)">
						<title>Sheet.117</title>
						<g id="shadow117-152" v:groupContext="shadow" v:shadowOffsetX="0.3456" v:shadowOffsetY="-1.9728"
								v:shadowType="1" transform="matrix(1,0,0,1,0.3456,1.9728)" class="st2">
							<path d="M0.04 61.69 C0.04 61.69 0.03 61.69 0.02 61.69 C0.01 61.67 0 61.65 0 61.63 L0 59.14 C0 59.12
										 0.01 59.1 0.02 59.09 L1.46 57.84 C1.47 57.83 1.49 57.83 1.5 57.84 C1.52 57.85 1.53 57.88
										 1.53 57.9 L1.53 60.38 C1.53 60.41 1.52 60.43 1.5 60.44 L0.07 61.69 C0.06 61.69 0.05 61.69
										 0.04 61.69 Z" class="st3"/>
						</g>
						<path d="M0.04 61.69 C0.04 61.69 0.03 61.69 0.02 61.69 C0.01 61.67 0 61.65 0 61.63 L0 59.14 C0 59.12 0.01
									 59.1 0.02 59.09 L1.46 57.84 C1.47 57.83 1.49 57.83 1.5 57.84 C1.52 57.85 1.53 57.88 1.53 57.9
									 L1.53 60.38 C1.53 60.41 1.52 60.43 1.5 60.44 L0.07 61.69 C0.06 61.69 0.05 61.69 0.04 61.69 Z"
								class="st11"/>
					</g>
				</g>
				<g id="group172-156" transform="translate(-5.9952E-15,-3.75944)" v:mID="172" v:groupContext="group">
					<title>Azure Portal - Virtual Machines</title>
					<g id="shape173-157" v:mID="173" v:groupContext="shape" transform="translate(1.74186,0)">
						<title>Sheet.173</title>
						<g id="shadow173-158" v:groupContext="shadow" v:shadowOffsetX="0.3456" v:shadowOffsetY="-1.9728"
								v:shadowType="1" transform="matrix(1,0,0,1,0.3456,1.9728)" class="st2">
							<path d="M4.78 58.79 L4.54 58.79 L2.17 58.79 L2.05 58.79 C2.38 60.53 1.93 60.78 0 60.78 L0 61.69 L2.46
										 61.69 L4.26 61.69 L6.58 61.69 L6.58 60.78 C4.64 60.78 4.45 60.53 4.78 58.79 Z" class="st3"/>
						</g>
						<path d="M4.78 58.79 L4.54 58.79 L2.17 58.79 L2.05 58.79 C2.38 60.53 1.93 60.78 0 60.78 L0 61.69 L2.46 61.69
									 L4.26 61.69 L6.58 61.69 L6.58 60.78 C4.64 60.78 4.45 60.53 4.78 58.79 Z" class="st12"/>
					</g>
					<g id="shape174-162" v:mID="174" v:groupContext="shape" transform="translate(0.000201255,-2.90798)">
						<title>Sheet.174</title>
						<g id="shadow174-163" v:groupContext="shadow" v:shadowOffsetX="0.3456" v:shadowOffsetY="-1.9728"
								v:shadowType="1" transform="matrix(1,0,0,1,0.3456,1.9728)" class="st2">
							<path d="M9.45 50.64 L0.55 50.64 C0.24 50.64 0 51.05 0 51.5 L0 60.84 C0 61.29 0.24 61.69 0.55 61.69 L9.45
										 61.69 C9.76 61.69 10.06 61.29 10.06 60.84 L10.06 51.5 C10.06 51.05 9.76 50.64 9.45 50.64
										 Z" class="st3"/>
						</g>
						<path d="M9.45 50.64 L0.55 50.64 C0.24 50.64 0 51.05 0 51.5 L0 60.84 C0 61.29 0.24 61.69 0.55 61.69 L9.45
									 61.69 C9.76 61.69 10.06 61.29 10.06 60.84 L10.06 51.5 C10.06 51.05 9.76 50.64 9.45 50.64 Z"
								class="st13"/>
					</g>
					<g id="shape175-167" v:mID="175" v:groupContext="shape" transform="translate(0,-2.90768)">
						<title>Sheet.175</title>
						<g id="shadow175-168" v:groupContext="shadow" v:shadowOffsetX="0.3456" v:shadowOffsetY="-1.9728"
								v:shadowType="1" transform="matrix(1,0,0,1,0.3456,1.9728)" class="st2">
							<path d="M9.46 50.64 C9.46 50.64 9.46 50.64 9.45 50.64 L0.55 50.64 C0.24 50.64 0 51.05 0 51.5 L0 60.84
										 C0 61.29 0.24 61.69 0.55 61.69 L0.76 61.69 L9.46 50.64 Z" class="st3"/>
						</g>
						<path d="M9.46 50.64 C9.46 50.64 9.46 50.64 9.45 50.64 L0.55 50.64 C0.24 50.64 0 51.05 0 51.5 L0 60.84 C0
									 61.29 0.24 61.69 0.55 61.69 L0.76 61.69 L9.46 50.64 Z" class="st14"/>
					</g>
					<g id="shape176-172" v:mID="176" v:groupContext="shape" transform="translate(0.762756,-4.07172)">
						<title>Sheet.176</title>
						<g id="shadow176-173" v:groupContext="shadow" v:shadowOffsetX="0.3456" v:shadowOffsetY="-1.9728"
								v:shadowType="1" transform="matrix(1,0,0,1,0.3456,1.9728)" class="st2">
							<rect x="0" y="52.9703" width="8.51469" height="8.72455" class="st3"/>
						</g>
						<rect x="0" y="52.9703" width="8.51469" height="8.72455" class="st15"/>
					</g>
					<g id="shape177-177" v:mID="177" v:groupContext="shape" transform="translate(0.762756,-4.07172)">
						<title>Sheet.177</title>
						<g id="shadow177-178" v:groupContext="shadow" v:shadowOffsetX="0.3456" v:shadowOffsetY="-1.9728"
								v:shadowType="1" transform="matrix(1,0,0,1,0.3456,1.9728)" class="st2">
							<path d="M0 61.69 L0.01 61.69 L0.01 52.97 L7.8 52.95 L7.8 52.95 L0 52.97 L0 61.69 Z" class="st3"/>
						</g>
						<path d="M0 61.69 L0.01 61.69 L0.01 52.97 L7.8 52.95 L7.8 52.95 L0 52.97 L0 61.69 Z" class="st15"/>
					</g>
					<g id="shape178-182" v:mID="178" v:groupContext="shape" transform="translate(1.74186,-7.10543E-15)">
						<title>Sheet.178</title>
						<g id="shadow178-183" v:groupContext="shadow" v:shadowOffsetX="0.3456" v:shadowOffsetY="-1.9728"
								v:shadowType="1" transform="matrix(1,0,0,1,0.3456,1.9728)" class="st2">
							<rect x="0" y="60.781" width="6.57942" height="0.913868" class="st3"/>
						</g>
						<rect x="0" y="60.781" width="6.57942" height="0.913868" class="st13"/>
					</g>
					<g id="shape179-187" v:mID="179" v:groupContext="shape" transform="translate(4.85004,-13.1118)">
						<title>Sheet.179</title>
						<g id="shadow179-188" v:groupContext="shadow" v:shadowOffsetX="0.3456" v:shadowOffsetY="-1.9728"
								v:shadowType="1" transform="matrix(1,0,0,1,0.3456,1.9728)" class="st2">
							<path d="M0.29 61.48 C0.29 61.6 0.22 61.69 0.14 61.69 C0.06 61.69 0 61.6 0 61.48 C0 61.36 0.06 61.27
										 0.14 61.27 C0.22 61.27 0.29 61.36 0.29 61.48 Z" class="st3"/>
						</g>
						<path d="M0.29 61.48 C0.29 61.6 0.22 61.69 0.14 61.69 C0.06 61.69 0 61.6 0 61.48 C0 61.36 0.06 61.27 0.14
									 61.27 C0.22 61.27 0.29 61.36 0.29 61.48 Z" class="st16"/>
					</g>
					<g id="shape180-192" v:mID="180" v:groupContext="shape" transform="translate(3.31588,-8.69854)">
						<title>Sheet.180</title>
						<g id="shadow180-193" v:groupContext="shadow" v:shadowOffsetX="0.3456" v:shadowOffsetY="-1.9728"
								v:shadowType="1" transform="matrix(1,0,0,1,0.3456,1.9728)" class="st2">
							<path d="M1.83 61.69 C1.82 61.69 1.81 61.69 1.8 61.68 L0.03 60.15 C0.01 60.13 0 60.1 0 60.08 C0 60.05
										 0.01 60.02 0.03 60.01 L1.79 58.48 C1.8 58.47 1.82 58.47 1.84 58.48 L3.61 60.02 C3.63 60.03
										 3.64 60.06 3.64 60.09 C3.64 60.12 3.63 60.14 3.61 60.16 L1.85 61.68 C1.84 61.69 1.84 61.69
										 1.83 61.69 Z" class="st3"/>
						</g>
						<path d="M1.83 61.69 C1.82 61.69 1.81 61.69 1.8 61.68 L0.03 60.15 C0.01 60.13 0 60.1 0 60.08 C0 60.05 0.01
									 60.02 0.03 60.01 L1.79 58.48 C1.8 58.47 1.82 58.47 1.84 58.48 L3.61 60.02 C3.63 60.03 3.64 60.06
									 3.64 60.09 C3.64 60.12 3.63 60.14 3.61 60.16 L1.85 61.68 C1.84 61.69 1.84 61.69 1.83 61.69 Z"
								class="st17"/>
					</g>
					<g id="shape181-197" v:mID="181" v:groupContext="shape" transform="translate(3.06572,-4.96199)">
						<title>Sheet.181</title>
						<g id="shadow181-198" v:groupContext="shadow" v:shadowOffsetX="0.3456" v:shadowOffsetY="-1.9728"
								v:shadowType="1" transform="matrix(1,0,0,1,0.3456,1.9728)" class="st2">
							<path d="M1.82 61.69 C1.81 61.69 1.8 61.69 1.79 61.68 L0.03 60.15 C0.01 60.14 0 60.11 0 60.08 L0 57.01
										 C0 56.98 0.01 56.95 0.03 56.94 C0.04 56.92 0.06 56.92 0.08 56.94 L1.85 58.47 C1.86 58.48
										 1.87 58.51 1.87 58.54 L1.87 61.61 C1.87 61.64 1.86 61.67 1.85 61.68 C1.84 61.69 1.83 61.69
										 1.82 61.69 Z" class="st3"/>
						</g>
						<path d="M1.82 61.69 C1.81 61.69 1.8 61.69 1.79 61.68 L0.03 60.15 C0.01 60.14 0 60.11 0 60.08 L0 57.01 C0
									 56.98 0.01 56.95 0.03 56.94 C0.04 56.92 0.06 56.92 0.08 56.94 L1.85 58.47 C1.86 58.48 1.87 58.51
									 1.87 58.54 L1.87 61.61 C1.87 61.64 1.86 61.67 1.85 61.68 C1.84 61.69 1.83 61.69 1.82 61.69 Z"
								class="st18"/>
					</g>
					<g id="shape182-202" v:mID="182" v:groupContext="shape" transform="translate(5.33305,-4.96199)">
						<title>Sheet.182</title>
						<g id="shadow182-203" v:groupContext="shadow" v:shadowOffsetX="0.3456" v:shadowOffsetY="-1.9728"
								v:shadowType="1" transform="matrix(1,0,0,1,0.3456,1.9728)" class="st2">
							<path d="M0.05 61.69 C0.04 61.69 0.04 61.69 0.03 61.68 C0.01 61.67 0 61.64 0 61.61 L0 58.56 C0 58.53
										 0.01 58.5 0.03 58.49 L1.79 56.96 C1.81 56.94 1.83 56.94 1.85 56.96 C1.86 56.97 1.87 57 1.87
										 57.03 L1.87 60.08 C1.87 60.11 1.86 60.14 1.85 60.15 L0.08 61.68 C0.07 61.69 0.06 61.69 0.05
										 61.69 Z" class="st3"/>
						</g>
						<path d="M0.05 61.69 C0.04 61.69 0.04 61.69 0.03 61.68 C0.01 61.67 0 61.64 0 61.61 L0 58.56 C0 58.53 0.01
									 58.5 0.03 58.49 L1.79 56.96 C1.81 56.94 1.83 56.94 1.85 56.96 C1.86 56.97 1.87 57 1.87 57.03
									 L1.87 60.08 C1.87 60.11 1.86 60.14 1.85 60.15 L0.08 61.68 C0.07 61.69 0.06 61.69 0.05 61.69
									 Z" class="st19"/>
					</g>
				</g>
				<g id="shape183-207" v:mID="183" v:groupContext="shape" transform="translate(23.7242,112.56) rotate(175.477)">
					<title>Simple Arrow</title>
					<v:userDefs>
						<v:ud v:nameU="visVersion" v:val="VT0(15):26"/>
						<v:ud v:nameU="ArrowType" v:prompt="" v:val="VT0(2):26"/>
					</v:userDefs>
					<path d="M0 61.69 L4.35 56.74 L4.35 59.21 L7.19 59.21 L7.19 61.69 L7.19 64.17 L4.35 64.17 L4.35 66.65 L0 61.69
								 Z" class="st20"/>
				</g>
			</g>
		</g>
	</g>
</svg>
