<?xml version="1.0" encoding="UTF-8" standalone="no"?>
<!DOCTYPE svg PUBLIC "-//W3C//DTD SVG 1.1//EN" "http://www.w3.org/Graphics/SVG/1.1/DTD/svg11.dtd">
<!-- Generated by Microsoft Visio, SVG Export 003_ASCAlerts_Suspicious.svg Page-1 -->
<svg xmlns="http://www.w3.org/2000/svg" xmlns:xlink="http://www.w3.org/1999/xlink" xmlns:ev="http://www.w3.org/2001/xml-events"
		xmlns:v="http://schemas.microsoft.com/visio/2003/SVGExtensions/" width="8.26772in" height="11.6929in"
		viewBox="0 0 595.276 841.889" xml:space="preserve" color-interpolation-filters="sRGB" class="st2">
	<v:documentProperties v:langID="3082">
		<v:userDefs>
			<v:ud v:nameU="msvNoAutoConnect" v:val="VT0(1):26"/>
		</v:userDefs>
	</v:documentProperties>

	<style type="text/css">
	<![CDATA[
		.st1 {fill:#3f5765;stroke:none;stroke-linecap:round;stroke-linejoin:round;stroke-width:0.75}
		.st2 {fill:none;fill-rule:evenodd;font-size:12px;overflow:visible;stroke-linecap:square;stroke-miterlimit:3}
	]]>
	</style>

	<g v:mID="0" v:index="1" v:groupContext="foregroundPage">
		<title>Page-1</title>
		<v:pageProperties v:drawingScale="0.0393701" v:pageScale="0.0393701" v:drawingUnits="24" v:shadowOffsetX="8.99999"
				v:shadowOffsetY="-8.99999"/>
		<g id="group167-1" transform="translate(0,-825.759)" v:mID="167" v:groupContext="group">
			<title>Administrator #2</title>
			<g id="shape168-2" v:mID="168" v:groupContext="shape">
				<title>Sheet.168</title>
				<path d="M6.57 834.06 C7.55 833.57 8.2 832.56 8.2 831.4 C8.2 829.76 6.87 828.45 5.21 828.45 C3.54 828.45 2.22 829.76
							 2.22 831.4 C2.22 832.49 2.78 833.42 3.66 833.95 C2.14 834.25 1.38 835.18 0.55 837.05 C-0.51 839.45 0.29
							 840.12 0.29 840.12 C0.82 838.96 0.82 838.96 0.82 838.96 C0.97 840.49 0.97 840.49 0.97 840.49 C0.97 840.49
							 1.88 841.54 4.41 841.76 C7.1 841.99 9.71 842.29 9.71 838.96 C9.71 836.34 8.35 834.66 6.57 834.06 Z"
						class="st1"/>
			</g>
			<g id="shape169-4" v:mID="169" v:groupContext="shape" transform="translate(6.42471,-2.87907)">
				<title>Sheet.169</title>
				<path d="M10.28 830.69 C0.23 829.41 0.23 829.41 0.23 829.41 C-0 831.1 0 831.1 0 831.1 C0.15 831.14 0.31 831.21 0.46
							 831.29 C0.65 829.9 0.65 829.9 0.65 829.9 C9.64 831.03 9.64 831.03 9.64 831.03 C8.69 838.41 8.69 838.41
							 8.69 838.41 C1.25 836.98 1.25 836.98 1.25 836.98 C1.71 837.24 2.13 837.62 2.47 838.03 C4.17 838.37 4.17
							 838.37 4.17 838.37 C3.72 838.44 3.3 838.56 2.92 838.67 C3.42 839.53 3.68 840.58 3.72 841.78 C4.14 841.85
							 4.63 841.89 5.16 841.89 C7.17 841.89 8.84 841.1 8.84 840.09 C8.84 839.79 8.65 839.49 8.35 839.23 C9.22
							 839.42 9.22 839.42 9.22 839.42 C9.71 838.74 9.71 838.74 9.71 838.74 C10.58 831.06 10.58 831.06 10.58
							 831.06 L10.28 830.69 ZM2.13 833.46 C2.13 833.54 2.16 833.61 2.16 833.68 C3.3 833.84 3.3 833.84 3.3 833.84
							 C3.26 834.25 3.26 834.25 3.26 834.25 C3.57 834.29 3.57 834.29 3.57 834.29 C3.45 835.03 3.45 835.03 3.45
							 835.03 C3.15 834.96 3.15 834.96 3.15 834.96 C3.07 835.9 3.07 835.9 3.07 835.9 C3.87 836.05 3.87 836.05
							 3.87 836.05 C3.98 835.11 3.98 835.11 3.98 835.11 C3.64 835.03 3.64 835.03 3.64 835.03 C3.76 834.32 3.76
							 834.32 3.76 834.32 C4.06 834.36 4.06 834.36 4.06 834.36 C4.17 833.42 4.17 833.42 4.17 833.42 C3.34 833.31
							 3.34 833.31 3.34 833.31 C3.3 833.65 3.3 833.65 3.3 833.65 C2.73 833.54 2.73 833.54 2.73 833.54 C2.85
							 832.71 2.85 832.71 2.85 832.71 C3.15 832.75 3.15 832.75 3.15 832.75 C3.22 831.81 3.22 831.81 3.22 831.81
							 C2.47 831.74 2.47 831.74 2.47 831.74 C2.35 832.67 2.35 832.67 2.35 832.67 C2.66 832.71 2.66 832.71 2.66
							 832.71 C2.54 833.54 2.54 833.54 2.54 833.54 L2.13 833.46 ZM4.9 835.22 C4.78 836.19 4.78 836.19 4.78
							 836.19 C5.62 836.31 5.62 836.31 5.62 836.31 C5.73 835.37 5.73 835.37 5.73 835.37 C5.43 835.3 5.43 835.3
							 5.43 835.3 C5.5 834.58 5.5 834.58 5.5 834.58 C5.8 834.62 5.8 834.62 5.8 834.62 C5.88 834.21 5.88 834.21
							 5.88 834.21 C7.28 834.44 7.28 834.44 7.28 834.44 C7.25 834.85 7.25 834.85 7.25 834.85 C7.55 834.89 7.55
							 834.89 7.55 834.89 C7.47 835.63 7.47 835.63 7.47 835.63 C7.13 835.56 7.13 835.56 7.13 835.56 C7.02 836.53
							 7.02 836.53 7.02 836.53 C7.89 836.68 7.89 836.68 7.89 836.68 C8.01 835.71 8.01 835.71 8.01 835.71 C7.66
							 835.67 7.66 835.67 7.66 835.67 C7.78 834.92 7.78 834.92 7.78 834.92 C8.08 834.96 8.08 834.96 8.08 834.96
							 C8.19 833.99 8.19 833.99 8.19 833.99 C7.36 833.87 7.36 833.87 7.36 833.87 C7.32 834.21 7.32 834.21 7.32
							 834.21 C6.68 834.1 6.68 834.1 6.68 834.1 C6.79 833.27 6.79 833.27 6.79 833.27 C7.13 833.31 7.13 833.31
							 7.13 833.31 C7.25 832.34 7.25 832.34 7.25 832.34 C6.37 832.22 6.37 832.22 6.37 832.22 C6.3 833.2 6.3
							 833.2 6.3 833.2 C6.6 833.24 6.6 833.24 6.6 833.24 C6.49 834.1 6.49 834.1 6.49 834.1 C5.88 833.99 5.88
							 833.99 5.88 833.99 C5.92 833.68 5.92 833.68 5.92 833.68 C5.12 833.54 5.12 833.54 5.12 833.54 C5.01 834.51
							 5.01 834.51 5.01 834.51 C5.31 834.55 5.31 834.55 5.31 834.55 C5.24 835.3 5.24 835.3 5.24 835.3 L4.9
							 835.22 Z" class="st1"/>
			</g>
		</g>
	</g>
</svg>
