<?xml version="1.0" encoding="UTF-8" standalone="no"?>
<!DOCTYPE svg PUBLIC "-//W3C//DTD SVG 1.1//EN" "http://www.w3.org/Graphics/SVG/1.1/DTD/svg11.dtd">
<!-- Generated by Microsoft Visio, SVG Export 003_ASCAlerts_Suspicious.svg Page-1 -->
<svg xmlns="http://www.w3.org/2000/svg" xmlns:xlink="http://www.w3.org/1999/xlink" xmlns:ev="http://www.w3.org/2001/xml-events"
		xmlns:v="http://schemas.microsoft.com/visio/2003/SVGExtensions/" width="0.856873in" height="0.856873in"
		viewBox="0 0 61.6949 61.6949" xml:space="preserve" color-interpolation-filters="sRGB" class="st8">
	<v:documentProperties v:langID="3082"/>

	<style type="text/css">
	<![CDATA[
		.st1 {fill:#3e3e3f;stroke:none;stroke-linecap:butt;stroke-width:5.56364}
		.st2 {fill:#f3b607;stroke:none;stroke-linecap:butt;stroke-width:5.56364}
		.st3 {fill:#5b5c5f;stroke:none;stroke-linecap:butt;stroke-width:5.56364}
		.st4 {fill:#fbd7d7;stroke:none;stroke-linecap:butt;stroke-width:5.56364}
		.st5 {fill:#fbc8c8;stroke:none;stroke-linecap:butt;stroke-width:5.56364}
		.st6 {fill:#e2e4e5;stroke:none;stroke-linecap:butt;stroke-width:5.56364}
		.st7 {fill:#f1f2f2;stroke:none;stroke-linecap:butt;stroke-width:5.56364}
		.st8 {fill:none;fill-rule:evenodd;font-size:12px;overflow:visible;stroke-linecap:square;stroke-miterlimit:3}
	]]>
	</style>

	<g v:mID="0" v:index="1" v:groupContext="foregroundPage">
		<title>Page-1</title>
		<v:pageProperties v:drawingScale="1" v:pageScale="1" v:drawingUnits="19" v:shadowOffsetX="8.99998"
				v:shadowOffsetY="-8.99998"/>
		<g id="group5-1" transform="translate(21.9611,-21.9611)" v:mID="5" v:groupContext="group">
			<title>Wiki Ninja</title>
			<g id="shape6-2" v:mID="6" v:groupContext="shape" transform="translate(0.955911,-5.93823)">
				<title>Sheet.6</title>
				<path d="M3.01 61.12 L1.39 57.49 C1.25 57.15 0.81 57 0.49 57.15 C0.17 57.29 0 57.73 0.14 58.07 L1.77 61.69 L3.01
							 61.12 Z" class="st1"/>
			</g>
			<g id="shape7-4" v:mID="7" v:groupContext="shape" transform="translate(1.73802,-4.63472)">
				<title>Sheet.7</title>
				<path d="M3.48 60.54 L3.19 59.38 L0 60.83 L1.16 61.69 L3.48 60.54 Z" class="st2"/>
			</g>
			<g id="shape8-6" v:mID="8" v:groupContext="shape">
				<title>Sheet.8</title>
				<path d="M17.38 57.35 C16.74 56.94 14.48 56.19 12.75 55.32 C13.15 53.41 14.19 50.11 13.61 46.34 C13.35 44.63 10.43
							 43.16 9.27 43.16 C8.11 43.16 5.19 44.63 4.92 46.34 C4.35 50.11 5.39 53.41 5.79 55.32 C4.06 56.19 1.8
							 56.94 1.16 57.35 C0.29 57.9 0 61.69 0 61.69 L18.54 61.69 C18.54 61.69 18.25 57.9 17.38 57.35 Z"
						class="st1"/>
			</g>
			<g id="shape9-8" v:mID="9" v:groupContext="shape" transform="translate(4.34505,-3.99745)">
				<title>Sheet.9</title>
				<path d="M4.92 61.69 L4.92 47.15 C3.77 47.15 0.84 48.63 0.58 50.34 C0 54.11 1.04 57.41 1.45 59.32 L4.92 61.69 Z"
						class="st3"/>
			</g>
			<g id="shape10-10" v:mID="10" v:groupContext="shape" transform="translate(5.7934,-9.84878)">
				<title>Sheet.10</title>
				<path d="M3.48 58.22 C1.45 58.22 0 58.51 0 58.51 L0 59.96 C0 59.96 2.03 61.69 3.48 61.69 C4.92 61.69 6.95 59.96 6.95
							 59.96 L6.95 58.51 C6.95 58.51 5.5 58.22 3.48 58.22 Z" class="st4"/>
			</g>
			<g id="shape11-12" v:mID="11" v:groupContext="shape" transform="translate(9.26944,-9.84878)">
				<title>Sheet.11</title>
				<path d="M3.48 59.96 L3.48 58.51 C3.48 58.51 2.03 58.22 0 58.22 L0 61.69 C1.45 61.69 3.48 59.96 3.48 59.96 Z"
						class="st5"/>
			</g>
			<g id="shape12-14" v:mID="12" v:groupContext="shape" transform="translate(7.24175,-11.2971)">
				<title>Sheet.12</title>
				<path d="M1.16 61.12 C1.16 60.8 0.9 60.54 0.58 60.54 C0.58 60.54 0.58 60.54 0.58 60.57 C0.58 60.88 0.32 61.14 0 61.14
							 C0 61.46 0.26 61.69 0.58 61.69 C0.9 61.69 1.16 61.43 1.16 61.12 Z" class="st1"/>
			</g>
			<g id="shape13-16" v:mID="13" v:groupContext="shape" transform="translate(10.1384,-11.2971)">
				<title>Sheet.13</title>
				<path d="M1.16 61.12 C1.16 60.8 0.9 60.54 0.58 60.54 C0.58 60.54 0.58 60.54 0.58 60.57 C0.58 60.88 0.32 61.14 0 61.14
							 C0 61.46 0.26 61.69 0.58 61.69 C0.9 61.69 1.16 61.43 1.16 61.12 Z" class="st1"/>
			</g>
			<g id="shape14-18" v:mID="14" v:groupContext="shape" transform="translate(4.48988,-2.52013)">
				<title>Sheet.14</title>
				<path d="M5.62 60.83 L1.3 57.84 C0.9 58.05 0.43 58.25 0 58.45 L4.46 61.69 L5.62 60.83 Z" class="st6"/>
			</g>
			<g id="shape15-20" v:mID="15" v:groupContext="shape" transform="translate(5.50373,0)">
				<title>Sheet.15</title>
				<path d="M3.3 61.69 L9.41 56.28 C8.98 56.1 8.55 55.93 8.11 55.73 L0 61.69 L3.3 61.69 Z" class="st7"/>
			</g>
		</g>
	</g>
</svg>
