<?xml version="1.0" encoding="UTF-8" standalone="no"?>
<!DOCTYPE svg PUBLIC "-//W3C//DTD SVG 1.1//EN" "http://www.w3.org/Graphics/SVG/1.1/DTD/svg11.dtd">
<!-- Generated by Microsoft Visio, SVG Export JitAdmin.svg Page-1 -->
<svg xmlns="http://www.w3.org/2000/svg" xmlns:xlink="http://www.w3.org/1999/xlink" xmlns:ev="http://www.w3.org/2001/xml-events"
		xmlns:v="http://schemas.microsoft.com/visio/2003/SVGExtensions/" width="0.885417in" height="0.861111in"
		viewBox="0 0 63.75 62" xml:space="preserve" color-interpolation-filters="sRGB" class="st14">
	<v:documentProperties v:langID="1033" v:viewMarkup="false"/>

	<style type="text/css">
	<![CDATA[
		.st1 {fill:#ffffff;stroke:none;stroke-linecap:round;stroke-linejoin:round;stroke-width:0.75}
		.st2 {visibility:visible}
		.st3 {fill:#5b9bd5;fill-opacity:0.22;filter:url(#filter_2);stroke:none}
		.st4 {fill:#b8d432;stroke:none;stroke-width:12.24}
		.st5 {fill:#3e3e3e;stroke:none;stroke-width:12.24}
		.st6 {fill:#ffffff;fill-opacity:0.15;stroke:none;stroke-width:12.24}
		.st7 {fill:#ffffff;stroke:none;stroke-width:12.24}
		.st8 {fill:#3999c6;stroke:none;stroke-width:12.24}
		.st9 {fill:#a0a1a2;stroke:none;stroke-width:12.24}
		.st10 {fill:#59b4d9;stroke:none;stroke-width:12.24}
		.st11 {fill:#7a7a7a;stroke:none;stroke-width:12.24}
		.st12 {fill:#1e1e1e;stroke:none;stroke-width:12.24}
		.st13 {fill:#1e1e1e;fill-opacity:0.2;stroke:none;stroke-width:12.24}
		.st14 {fill:none;fill-rule:evenodd;font-size:12px;overflow:visible;stroke-linecap:square;stroke-miterlimit:3}
	]]>
	</style>

	<defs id="Filters">
		<filter id="filter_2">
			<feGaussianBlur stdDeviation="2"/>
		</filter>
	</defs>
	<g v:mID="0" v:index="1" v:groupContext="foregroundPage">
		<title>Page-1</title>
		<v:pageProperties v:drawingScale="1" v:pageScale="1" v:drawingUnits="19" v:shadowOffsetX="9" v:shadowOffsetY="-9"/>
		<g id="shape250-1" v:mID="250" v:groupContext="shape" transform="translate(0.375,-0.375)">
			<title>Sheet.250</title>
			<rect x="0" y="0.749998" width="63" height="61.25" class="st1"/>
		</g>
		<g id="group246-3" transform="translate(26.0409,-21.1383)" v:mID="246" v:groupContext="group">
			<title>Multi-factor Authentication</title>
			<g id="shape247-4" v:mID="247" v:groupContext="shape" transform="translate(2.8798,-22.2936)">
				<title>Sheet.247</title>
				<g id="shadow247-5" v:groupContext="shadow" v:shadowOffsetX="0.3456" v:shadowOffsetY="-1.9728" v:shadowType="1"
						transform="matrix(1,0,0,1,0.3456,1.9728)" class="st2">
					<ellipse cx="1.39025" cy="61.2056" rx="1.39025" ry="0.794426" class="st3"/>
				</g>
				<ellipse cx="1.39025" cy="61.2056" rx="1.39025" ry="0.794426" class="st4"/>
			</g>
			<g id="shape248-9" v:mID="248" v:groupContext="shape">
				<title>Sheet.248</title>
				<g id="shadow248-10" v:groupContext="shadow" v:shadowOffsetX="0.3456" v:shadowOffsetY="-1.9728" v:shadowType="1"
						transform="matrix(1,0,0,1,0.3456,1.9728)" class="st2">
					<path d="M9.24 48.15 L2.43 48.99 L1.54 41.84 C1.49 41.25 1.89 40.75 2.48 40.7 L6.41 40.2 C7 40.15 7.5 40.5 7.6
								 41.1 L8.24 46.26 C8.29 46.56 8.54 46.76 8.84 46.71 C9.14 46.66 9.33 46.41 9.28 46.11 L8.29 37.97
								 C8.24 37.37 7.7 37.03 7.1 37.07 L1.04 37.87 C0.45 37.92 0 38.42 0.1 39.01 L1.34 48.99 C1.34 49.09
								 1.39 49.14 1.39 49.24 C1.09 49.44 0.94 49.79 0.99 50.13 L2.38 61.06 C2.43 61.6 2.98 62 3.48 61.95
								 L10.82 60.96 C11.37 60.91 11.67 60.36 11.62 59.82 L10.23 48.89 C10.18 48.4 9.73 48.1 9.24 48.15
								 ZM3.82 38.56 L4.67 38.47 C4.87 38.42 5.06 38.56 5.06 38.76 C5.11 38.96 4.97 39.16 4.77 39.16 L3.92
								 39.26 C3.72 39.31 3.53 39.16 3.53 38.96 C3.48 38.76 3.62 38.61 3.82 38.56 ZM6.85 54.25 L7.05 55.99
								 L5.76 56.14 L5.51 54.35 C5.11 54.16 4.72 53.76 4.62 53.21 C4.52 52.42 5.06 51.72 5.86 51.62 C6.65
								 51.52 7.35 52.07 7.45 52.86 C7.55 53.46 7.4 53.96 6.85 54.25 Z" class="st3"/>
				</g>
				<path d="M9.24 48.15 L2.43 48.99 L1.54 41.84 C1.49 41.25 1.89 40.75 2.48 40.7 L6.41 40.2 C7 40.15 7.5 40.5 7.6 41.1
							 L8.24 46.26 C8.29 46.56 8.54 46.76 8.84 46.71 C9.14 46.66 9.33 46.41 9.28 46.11 L8.29 37.97 C8.24 37.37
							 7.7 37.03 7.1 37.07 L1.04 37.87 C0.45 37.92 0 38.42 0.1 39.01 L1.34 48.99 C1.34 49.09 1.39 49.14 1.39
							 49.24 C1.09 49.44 0.94 49.79 0.99 50.13 L2.38 61.06 C2.43 61.6 2.98 62 3.48 61.95 L10.82 60.96 C11.37
							 60.91 11.67 60.36 11.62 59.82 L10.23 48.89 C10.18 48.4 9.73 48.1 9.24 48.15 ZM3.82 38.56 L4.67 38.47
							 C4.87 38.42 5.06 38.56 5.06 38.76 C5.11 38.96 4.97 39.16 4.77 39.16 L3.92 39.26 C3.72 39.31 3.53 39.16
							 3.53 38.96 C3.48 38.76 3.62 38.61 3.82 38.56 ZM6.85 54.25 L7.05 55.99 L5.76 56.14 L5.51 54.35 C5.11
							 54.16 4.72 53.76 4.62 53.21 C4.52 52.42 5.06 51.72 5.86 51.62 C6.65 51.52 7.35 52.07 7.45 52.86 C7.55
							 53.46 7.4 53.96 6.85 54.25 Z" class="st5"/>
			</g>
			<g id="shape249-14" v:mID="249" v:groupContext="shape" transform="translate(0,-5.21342)">
				<title>Sheet.249</title>
				<g id="shadow249-15" v:groupContext="shadow" v:shadowOffsetX="0.3456" v:shadowOffsetY="-1.9728" v:shadowType="1"
						transform="matrix(1,0,0,1,0.3456,1.9728)" class="st2">
					<path d="M1.34 54.16 C1.34 54.25 1.39 54.3 1.39 54.4 C1.09 54.6 0.94 54.95 0.99 55.3 L1.84 62 L5.11 53.91 L2.43
								 54.2 L1.54 47.05 C1.49 46.46 1.89 45.96 2.48 45.91 L6.41 45.42 C7 45.37 7.5 45.71 7.6 46.31 L7.75
								 47.4 L8.59 45.37 L8.34 43.23 C8.29 42.64 7.75 42.29 7.15 42.34 L1.04 43.08 C0.45 43.13 0 43.63 0.1
								 44.22 L1.34 54.16 ZM3.82 43.78 L4.67 43.68 C4.87 43.63 5.06 43.78 5.06 43.98 C5.11 44.18 4.97 44.37
								 4.77 44.37 L3.92 44.47 C3.72 44.52 3.53 44.37 3.53 44.18 C3.48 43.98 3.62 43.83 3.82 43.78 Z"
							class="st3"/>
				</g>
				<path d="M1.34 54.16 C1.34 54.25 1.39 54.3 1.39 54.4 C1.09 54.6 0.94 54.95 0.99 55.3 L1.84 62 L5.11 53.91 L2.43 54.2
							 L1.54 47.05 C1.49 46.46 1.89 45.96 2.48 45.91 L6.41 45.42 C7 45.37 7.5 45.71 7.6 46.31 L7.75 47.4 L8.59
							 45.37 L8.34 43.23 C8.29 42.64 7.75 42.29 7.15 42.34 L1.04 43.08 C0.45 43.13 0 43.63 0.1 44.22 L1.34
							 54.16 ZM3.82 43.78 L4.67 43.68 C4.87 43.63 5.06 43.78 5.06 43.98 C5.11 44.18 4.97 44.37 4.77 44.37 L3.92
							 44.47 C3.72 44.52 3.53 44.37 3.53 44.18 C3.48 43.98 3.62 43.83 3.82 43.78 Z" class="st6"/>
			</g>
		</g>
		<g id="group229-19" transform="translate(32.0466,-14.6746)" v:mID="229" v:groupContext="group">
			<title>Scheduler</title>
			<g id="shape230-20" v:mID="230" v:groupContext="shape" transform="translate(2.90347,-3.82606)">
				<title>Sheet.230</title>
				<g id="shadow230-21" v:groupContext="shadow" v:shadowOffsetX="0.3456" v:shadowOffsetY="-1.9728" v:shadowType="1"
						transform="matrix(1,0,0,1,0.3456,1.9728)" class="st2">
					<path d="M3.66 53.94 C2.58 54.05 1.63 54.59 0.98 55.41 C0.33 56.19 0 57.22 0.11 58.34 C0.22 59.42 0.76 60.37
								 1.57 61.02 C2.36 61.67 3.39 62 4.5 61.89 C5.59 61.78 6.54 61.24 7.19 60.43 C7.84 59.64 8.17 58.61
								 8.06 57.5 C7.95 56.38 7.38 55.43 6.57 54.78 C5.89 54.24 5.02 53.91 4.1 53.91 C3.93 53.94 3.8 53.94
								 3.66 53.94 Z" class="st3"/>
				</g>
				<path d="M3.66 53.94 C2.58 54.05 1.63 54.59 0.98 55.41 C0.33 56.19 0 57.22 0.11 58.34 C0.22 59.42 0.76 60.37 1.57
							 61.02 C2.36 61.67 3.39 62 4.5 61.89 C5.59 61.78 6.54 61.24 7.19 60.43 C7.84 59.64 8.17 58.61 8.06 57.5
							 C7.95 56.38 7.38 55.43 6.57 54.78 C5.89 54.24 5.02 53.91 4.1 53.91 C3.93 53.94 3.8 53.94 3.66 53.94
							 Z" class="st7"/>
			</g>
			<g id="shape231-25" v:mID="231" v:groupContext="shape" transform="translate(4.88434,-3.14768)">
				<title>Sheet.231</title>
				<g id="shadow231-26" v:groupContext="shadow" v:shadowOffsetX="0.3456" v:shadowOffsetY="-1.9728" v:shadowType="1"
						transform="matrix(1,0,0,1,0.3456,1.9728)" class="st2">
					<path d="M6.65 56.76 C6.51 55.46 5.86 54.35 4.91 53.59 C4.72 53.45 4.53 53.32 4.34 53.21 L3.96 53.91 C4.12 54
								 4.26 54.1 4.4 54.21 C5.18 54.84 5.73 55.76 5.83 56.84 C5.94 57.9 5.62 58.91 4.99 59.69 C4.37 60.45
								 3.45 61 2.39 61.1 C1.68 61.19 0.98 61.05 0.38 60.78 L0 61.48 C0.73 61.84 1.57 62 2.47 61.89 C3.74
								 61.76 4.86 61.1 5.62 60.18 C6.38 59.26 6.78 58.04 6.65 56.76 Z" class="st3"/>
				</g>
				<path d="M6.65 56.76 C6.51 55.46 5.86 54.35 4.91 53.59 C4.72 53.45 4.53 53.32 4.34 53.21 L3.96 53.91 C4.12 54 4.26
							 54.1 4.4 54.21 C5.18 54.84 5.73 55.76 5.83 56.84 C5.94 57.9 5.62 58.91 4.99 59.69 C4.37 60.45 3.45 61
							 2.39 61.1 C1.68 61.19 0.98 61.05 0.38 60.78 L0 61.48 C0.73 61.84 1.57 62 2.47 61.89 C3.74 61.76 4.86
							 61.1 5.62 60.18 C6.38 59.26 6.78 58.04 6.65 56.76 Z" class="st8"/>
			</g>
			<g id="shape232-30" v:mID="232" v:groupContext="shape" transform="translate(2.11655,-3.66325)">
				<title>Sheet.232</title>
				<g id="shadow232-31" v:groupContext="shadow" v:shadowOffsetX="0.3456" v:shadowOffsetY="-1.9728" v:shadowType="1"
						transform="matrix(1,0,0,1,0.3456,1.9728)" class="st2">
					<path d="M2.33 60.78 C1.57 60.15 1.03 59.23 0.92 58.17 C0.81 57.12 1.14 56.11 1.76 55.32 C2.39 54.56 3.31 54.02
								 4.37 53.91 C5.24 53.83 6.05 54.02 6.73 54.43 L7.11 53.72 C6.3 53.24 5.29 53.02 4.29 53.13 C3.01
								 53.26 1.9 53.91 1.14 54.84 C0.38 55.76 0 56.98 0.14 58.26 C0.27 59.53 0.92 60.64 1.85 61.4 C2.14
								 61.65 2.47 61.84 2.82 62 L3.2 61.29 C2.88 61.16 2.58 60.97 2.33 60.78 Z" class="st3"/>
				</g>
				<path d="M2.33 60.78 C1.57 60.15 1.03 59.23 0.92 58.17 C0.81 57.12 1.14 56.11 1.76 55.32 C2.39 54.56 3.31 54.02 4.37
							 53.91 C5.24 53.83 6.05 54.02 6.73 54.43 L7.11 53.72 C6.3 53.24 5.29 53.02 4.29 53.13 C3.01 53.26 1.9
							 53.91 1.14 54.84 C0.38 55.76 0 56.98 0.14 58.26 C0.27 59.53 0.92 60.64 1.85 61.4 C2.14 61.65 2.47 61.84
							 2.82 62 L3.2 61.29 C2.88 61.16 2.58 60.97 2.33 60.78 Z" class="st9"/>
			</g>
			<g id="shape233-35" v:mID="233" v:groupContext="shape" transform="translate(2.11655,-3.66325)">
				<title>Sheet.233</title>
				<g id="shadow233-36" v:groupContext="shadow" v:shadowOffsetX="0.3456" v:shadowOffsetY="-1.9728" v:shadowType="1"
						transform="matrix(1,0,0,1,0.3456,1.9728)" class="st2">
					<path d="M2.33 60.78 C1.57 60.15 1.03 59.23 0.92 58.17 C0.81 57.12 1.14 56.11 1.76 55.32 C2.39 54.56 3.31 54.02
								 4.37 53.91 C5.24 53.83 6.05 54.02 6.73 54.43 L7.11 53.72 C6.3 53.24 5.29 53.02 4.29 53.13 C3.01
								 53.26 1.9 53.91 1.14 54.84 C0.38 55.76 0 56.98 0.14 58.26 C0.27 59.53 0.92 60.64 1.85 61.4 C2.14
								 61.65 2.47 61.84 2.82 62 L3.2 61.29 C2.88 61.16 2.58 60.97 2.33 60.78 Z" class="st3"/>
				</g>
				<path d="M2.33 60.78 C1.57 60.15 1.03 59.23 0.92 58.17 C0.81 57.12 1.14 56.11 1.76 55.32 C2.39 54.56 3.31 54.02 4.37
							 53.91 C5.24 53.83 6.05 54.02 6.73 54.43 L7.11 53.72 C6.3 53.24 5.29 53.02 4.29 53.13 C3.01 53.26 1.9
							 53.91 1.14 54.84 C0.38 55.76 0 56.98 0.14 58.26 C0.27 59.53 0.92 60.64 1.85 61.4 C2.14 61.65 2.47 61.84
							 2.82 62 L3.2 61.29 C2.88 61.16 2.58 60.97 2.33 60.78 Z" class="st10"/>
			</g>
			<g id="shape234-40" v:mID="234" v:groupContext="shape" transform="translate(6.75667,-6.62099)">
				<title>Sheet.234</title>
				<g id="shadow234-41" v:groupContext="shadow" v:shadowOffsetX="0.3456" v:shadowOffsetY="-1.9728" v:shadowType="1"
						transform="matrix(1,0,0,1,0.3456,1.9728)" class="st2">
					<path d="M2.09 61.95 L0.3 61.29 C0.11 61.21 0 61.02 0.08 60.81 C0.16 60.62 0.35 60.51 0.57 60.59 L2.36 61.24
								 C2.55 61.32 2.66 61.51 2.58 61.73 C2.5 61.92 2.28 62 2.09 61.95 Z" class="st3"/>
				</g>
				<path d="M2.09 61.95 L0.3 61.29 C0.11 61.21 0 61.02 0.08 60.81 C0.16 60.62 0.35 60.51 0.57 60.59 L2.36 61.24 C2.55
							 61.32 2.66 61.51 2.58 61.73 C2.5 61.92 2.28 62 2.09 61.95 Z" class="st11"/>
			</g>
			<g id="shape235-45" v:mID="235" v:groupContext="shape" transform="translate(6.45818,-7.38078)">
				<title>Sheet.235</title>
				<g id="shadow235-46" v:groupContext="shadow" v:shadowOffsetX="0.3456" v:shadowOffsetY="-1.9728" v:shadowType="1"
						transform="matrix(1,0,0,1,0.3456,1.9728)" class="st2">
					<path d="M0.38 62 C0.16 62 0 61.84 0 61.62 L0 58.45 C0 58.23 0.16 58.07 0.38 58.07 C0.6 58.07 0.76 58.23 0.76
								 58.45 L0.76 61.62 C0.76 61.84 0.6 62 0.38 62 Z" class="st3"/>
				</g>
				<path d="M0.38 62 C0.16 62 0 61.84 0 61.62 L0 58.45 C0 58.23 0.16 58.07 0.38 58.07 C0.6 58.07 0.76 58.23 0.76 58.45
							 L0.76 61.62 C0.76 61.84 0.6 62 0.38 62 Z" class="st11"/>
			</g>
			<g id="shape236-50" v:mID="236" v:groupContext="shape" transform="translate(6.29537,-7.21796)">
				<title>Sheet.236</title>
				<g id="shadow236-51" v:groupContext="shadow" v:shadowOffsetX="0.3456" v:shadowOffsetY="-1.9728" v:shadowType="1"
						transform="matrix(1,0,0,1,0.3456,1.9728)" class="st2">
					<ellipse cx="0.542704" cy="61.4573" rx="0.542704" ry="0.542704" class="st3"/>
				</g>
				<ellipse cx="0.542704" cy="61.4573" rx="0.542704" ry="0.542704" class="st12"/>
			</g>
			<g id="shape237-55" v:mID="237" v:groupContext="shape" transform="translate(6.89234,-2.87633)">
				<title>Sheet.237</title>
				<g id="shadow237-56" v:groupContext="shadow" v:shadowOffsetX="0.3456" v:shadowOffsetY="-1.9728" v:shadowType="1"
						transform="matrix(1,0,0,1,0.3456,1.9728)" class="st2"/>
			</g>
			<g id="shape238-57" v:mID="238" v:groupContext="shape" transform="translate(6.97375,-1.35676)">
				<title>Sheet.238</title>
				<g id="shadow238-58" v:groupContext="shadow" v:shadowOffsetX="0.3456" v:shadowOffsetY="-1.9728" v:shadowType="1"
						transform="matrix(1,0,0,1,0.3456,1.9728)" class="st2"/>
			</g>
			<g id="shape239-59" v:mID="239" v:groupContext="shape" transform="translate(8.19483,-1.60098)">
				<title>Sheet.239</title>
				<g id="shadow239-60" v:groupContext="shadow" v:shadowOffsetX="0.3456" v:shadowOffsetY="-1.9728" v:shadowType="1"
						transform="matrix(1,0,0,1,0.3456,1.9728)" class="st2"/>
			</g>
			<g id="shape240-61" v:mID="240" v:groupContext="shape" transform="translate(7.92348,-1.51957)">
				<title>Sheet.240</title>
				<g id="shadow240-62" v:groupContext="shadow" v:shadowOffsetX="0.3456" v:shadowOffsetY="-1.9728" v:shadowType="1"
						transform="matrix(1,0,0,1,0.3456,1.9728)" class="st2"/>
			</g>
			<g id="shape241-63" v:mID="241" v:groupContext="shape" transform="translate(10.5556,-11.7224)">
				<title>Sheet.241</title>
				<g id="shadow241-64" v:groupContext="shadow" v:shadowOffsetX="0.3456" v:shadowOffsetY="-1.9728" v:shadowType="1"
						transform="matrix(1,0,0,1,0.3456,1.9728)" class="st2"/>
			</g>
			<g id="shape242-65" v:mID="242" v:groupContext="shape" transform="translate(7.54359,-2.63211)">
				<title>Sheet.242</title>
				<g id="shadow242-66" v:groupContext="shadow" v:shadowOffsetX="0.3456" v:shadowOffsetY="-1.9728" v:shadowType="1"
						transform="matrix(1,0,0,1,0.3456,1.9728)" class="st2"/>
			</g>
			<g id="shape243-67" v:mID="243" v:groupContext="shape" transform="translate(6.45818,-2.60498)">
				<title>Sheet.243</title>
				<g id="shadow243-68" v:groupContext="shadow" v:shadowOffsetX="0.3456" v:shadowOffsetY="-1.9728" v:shadowType="1"
						transform="matrix(1,0,0,1,0.3456,1.9728)" class="st2"/>
			</g>
			<g id="shape244-69" v:mID="244" v:groupContext="shape">
				<title>Sheet.244</title>
				<g id="shadow244-70" v:groupContext="shadow" v:shadowOffsetX="0.3456" v:shadowOffsetY="-1.9728" v:shadowType="1"
						transform="matrix(1,0,0,1,0.3456,1.9728)" class="st2">
					<path d="M6.4 58.28 L8.3 60.05 L6.59 62 L6.62 60.72 C6.49 60.72 6.3 60.72 6.16 60.72 C2.77 60.72 0 57.96 0 54.56
								 C0 51.17 2.77 48.43 6.16 48.43 C7.87 48.43 9.44 49.14 10.56 50.28 C9.58 49.33 8.28 48.76 6.81 48.76
								 C3.85 48.73 1.49 51.12 1.47 54.08 C1.47 56.9 3.77 59.21 6.54 59.4 L6.4 58.28 Z" class="st3"/>
				</g>
				<path d="M6.4 58.28 L8.3 60.05 L6.59 62 L6.62 60.72 C6.49 60.72 6.3 60.72 6.16 60.72 C2.77 60.72 0 57.96 0 54.56
							 C0 51.17 2.77 48.43 6.16 48.43 C7.87 48.43 9.44 49.14 10.56 50.28 C9.58 49.33 8.28 48.76 6.81 48.76
							 C3.85 48.73 1.49 51.12 1.47 54.08 C1.47 56.9 3.77 59.21 6.54 59.4 L6.4 58.28 Z" class="st4"/>
			</g>
			<g id="shape245-74" v:mID="245" v:groupContext="shape">
				<title>Sheet.245</title>
				<g id="shadow245-75" v:groupContext="shadow" v:shadowOffsetX="0.3456" v:shadowOffsetY="-1.9728" v:shadowType="1"
						transform="matrix(1,0,0,1,0.3456,1.9728)" class="st2">
					<path d="M6.73 60.21 C3.36 60.07 0.73 57.22 0.87 53.86 C0.95 51.77 2.09 49.95 3.74 48.92 C1.55 49.87 0 52.04
								 0 54.59 C0 57.98 2.77 60.75 6.16 60.75 C6.3 60.75 6.49 60.75 6.62 60.75 L6.59 62 L8.28 60.07 C7.79
								 60.18 7.27 60.21 6.73 60.21 Z" class="st3"/>
				</g>
				<path d="M6.73 60.21 C3.36 60.07 0.73 57.22 0.87 53.86 C0.95 51.77 2.09 49.95 3.74 48.92 C1.55 49.87 0 52.04 0 54.59
							 C0 57.98 2.77 60.75 6.16 60.75 C6.3 60.75 6.49 60.75 6.62 60.75 L6.59 62 L8.28 60.07 C7.79 60.18 7.27
							 60.21 6.73 60.21 Z" class="st13"/>
			</g>
		</g>
	</g>
</svg>
