<?xml version="1.0" encoding="UTF-8" standalone="no"?>
<!DOCTYPE svg PUBLIC "-//W3C//DTD SVG 1.1//EN" "http://www.w3.org/Graphics/SVG/1.1/DTD/svg11.dtd">
<!-- Generated by Microsoft Visio, SVG Export 003_ASCAlerts_Suspicious.svg Page-1 -->
<svg xmlns="http://www.w3.org/2000/svg" xmlns:xlink="http://www.w3.org/1999/xlink" xmlns:ev="http://www.w3.org/2001/xml-events"
		xmlns:v="http://schemas.microsoft.com/visio/2003/SVGExtensions/" width="0.239444in" height="0.232853in"
		viewBox="0 0 17.24 16.7654" xml:space="preserve" color-interpolation-filters="sRGB" class="st2">
	<v:documentProperties v:langID="3082"/>

	<style type="text/css">
	<![CDATA[
		.st1 {fill:#3f5765;stroke:none;stroke-linecap:round;stroke-linejoin:round;stroke-width:0.75}
		.st2 {fill:none;fill-rule:evenodd;font-size:12px;overflow:visible;stroke-linecap:square;stroke-miterlimit:3}
	]]>
	</style>

	<g v:mID="0" v:index="1" v:groupContext="foregroundPage">
		<title>Page-1</title>
		<v:pageProperties v:drawingScale="1" v:pageScale="1" v:drawingUnits="19" v:shadowOffsetX="9" v:shadowOffsetY="-9"/>
		<g id="group47-1" transform="translate(2.4422,-4.21875)" v:mID="47" v:groupContext="group">
			<title>Diagnostics</title>
		</g>
		<g id="group51-2" transform="translate(3.47596,-4.5)" v:mID="51" v:groupContext="group">
			<title>Administrator #2</title>
			<g id="shape52-3" v:mID="52" v:groupContext="shape">
				<title>Sheet.52</title>
				<path d="M3.83 12.2 C4.41 11.91 4.78 11.33 4.78 10.65 C4.78 9.69 4.01 8.92 3.04 8.92 C2.07 8.92 1.29 9.69 1.29 10.65
							 C1.29 11.28 1.62 11.83 2.13 12.13 C1.25 12.31 0.81 12.85 0.32 13.94 C-0.3 15.34 0.17 15.73 0.17 15.73
							 C0.48 15.06 0.48 15.06 0.48 15.06 C0.56 15.95 0.56 15.95 0.56 15.95 C0.56 15.95 1.1 16.56 2.57 16.69
							 C4.14 16.82 5.66 17 5.66 15.06 C5.66 13.53 4.87 12.55 3.83 12.2 Z" class="st1"/>
			</g>
			<g id="shape53-5" v:mID="53" v:groupContext="shape" transform="translate(3.74843,-1.67976)">
				<title>Sheet.53</title>
				<path d="M6 10.23 C0.13 9.49 0.13 9.49 0.13 9.49 C-0 10.47 0 10.47 0 10.47 C0.09 10.49 0.18 10.54 0.27 10.58 C0.38
							 9.77 0.38 9.77 0.38 9.77 C5.62 10.43 5.62 10.43 5.62 10.43 C5.07 14.73 5.07 14.73 5.07 14.73 C0.73 13.9
							 0.73 13.9 0.73 13.9 C1 14.06 1.24 14.28 1.44 14.51 C2.44 14.71 2.44 14.71 2.44 14.71 C2.17 14.75 1.93
							 14.82 1.71 14.89 C1.99 15.39 2.15 16 2.17 16.7 C2.41 16.74 2.7 16.77 3.01 16.77 C4.18 16.77 5.16 16.31
							 5.16 15.72 C5.16 15.54 5.05 15.37 4.87 15.21 C5.38 15.32 5.38 15.32 5.38 15.32 C5.67 14.93 5.67 14.93
							 5.67 14.93 C6.17 10.45 6.17 10.45 6.17 10.45 L6 10.23 ZM1.24 11.85 C1.24 11.89 1.26 11.94 1.26 11.98
							 C1.93 12.07 1.93 12.07 1.93 12.07 C1.9 12.31 1.9 12.31 1.9 12.31 C2.08 12.33 2.08 12.33 2.08 12.33 C2.01
							 12.77 2.01 12.77 2.01 12.77 C1.84 12.72 1.84 12.72 1.84 12.72 C1.79 13.27 1.79 13.27 1.79 13.27 C2.26
							 13.36 2.26 13.36 2.26 13.36 C2.32 12.81 2.32 12.81 2.32 12.81 C2.13 12.77 2.13 12.77 2.13 12.77 C2.19
							 12.35 2.19 12.35 2.19 12.35 C2.37 12.37 2.37 12.37 2.37 12.37 C2.44 11.83 2.44 11.83 2.44 11.83 C1.95
							 11.76 1.95 11.76 1.95 11.76 C1.93 11.96 1.93 11.96 1.93 11.96 C1.59 11.89 1.59 11.89 1.59 11.89 C1.66
							 11.41 1.66 11.41 1.66 11.41 C1.84 11.43 1.84 11.43 1.84 11.43 C1.88 10.89 1.88 10.89 1.88 10.89 C1.44
							 10.84 1.44 10.84 1.44 10.84 C1.37 11.39 1.37 11.39 1.37 11.39 C1.55 11.41 1.55 11.41 1.55 11.41 C1.48
							 11.89 1.48 11.89 1.48 11.89 L1.24 11.85 ZM2.86 12.88 C2.79 13.44 2.79 13.44 2.79 13.44 C3.28 13.51 3.28
							 13.51 3.28 13.51 C3.34 12.96 3.34 12.96 3.34 12.96 C3.17 12.92 3.17 12.92 3.17 12.92 C3.21 12.5 3.21
							 12.5 3.21 12.5 C3.39 12.53 3.39 12.53 3.39 12.53 C3.43 12.29 3.43 12.29 3.43 12.29 C4.25 12.42 4.25
							 12.42 4.25 12.42 C4.23 12.66 4.23 12.66 4.23 12.66 C4.4 12.68 4.4 12.68 4.4 12.68 C4.36 13.12 4.36 13.12
							 4.36 13.12 C4.16 13.07 4.16 13.07 4.16 13.07 C4.1 13.64 4.1 13.64 4.1 13.64 C4.6 13.73 4.6 13.73 4.6
							 13.73 C4.67 13.16 4.67 13.16 4.67 13.16 C4.47 13.14 4.47 13.14 4.47 13.14 C4.54 12.7 4.54 12.7 4.54
							 12.7 C4.71 12.72 4.71 12.72 4.71 12.72 C4.78 12.15 4.78 12.15 4.78 12.15 C4.29 12.09 4.29 12.09 4.29
							 12.09 C4.27 12.29 4.27 12.29 4.27 12.29 C3.9 12.22 3.9 12.22 3.9 12.22 C3.96 11.74 3.96 11.74 3.96 11.74
							 C4.16 11.76 4.16 11.76 4.16 11.76 C4.23 11.19 4.23 11.19 4.23 11.19 C3.72 11.13 3.72 11.13 3.72 11.13
							 C3.67 11.69 3.67 11.69 3.67 11.69 C3.85 11.72 3.85 11.72 3.85 11.72 C3.79 12.22 3.79 12.22 3.79 12.22
							 C3.43 12.15 3.43 12.15 3.43 12.15 C3.45 11.98 3.45 11.98 3.45 11.98 C2.99 11.89 2.99 11.89 2.99 11.89
							 C2.92 12.46 2.92 12.46 2.92 12.46 C3.1 12.48 3.1 12.48 3.1 12.48 C3.06 12.92 3.06 12.92 3.06 12.92 L2.86
							 12.88 Z" class="st1"/>
			</g>
		</g>
	</g>
</svg>
