<?xml version="1.0" encoding="UTF-8" standalone="no"?>
<!DOCTYPE svg PUBLIC "-//W3C//DTD SVG 1.1//EN" "http://www.w3.org/Graphics/SVG/1.1/DTD/svg11.dtd">
<!-- Generated by Microsoft Visio, SVG Export SuseLogo.svg Page-1 -->
<svg xmlns="http://www.w3.org/2000/svg" xmlns:xlink="http://www.w3.org/1999/xlink" xmlns:ev="http://www.w3.org/2001/xml-events"
		xmlns:v="http://schemas.microsoft.com/visio/2003/SVGExtensions/" width="0.354167in" height="0.354167in"
		viewBox="0 0 25.5 25.5" xml:space="preserve" color-interpolation-filters="sRGB" class="st5">
	<v:documentProperties v:langID="1033" v:viewMarkup="false"/>

	<style type="text/css">
	<![CDATA[
		.st1 {fill:url(#grad7-5);stroke:none;stroke-linecap:butt;stroke-width:0.75}
		.st2 {fill:none;stroke:url(#grad0-9);stroke-linecap:butt;stroke-width:0.770809}
		.st3 {fill:#d3e5bb;stroke:none;stroke-linecap:butt;stroke-width:0.75}
		.st4 {fill:url(#grad0-17);stroke:none;stroke-linecap:butt;stroke-width:0.75}
		.st5 {fill:none;fill-rule:evenodd;font-size:12px;overflow:visible;stroke-linecap:square;stroke-miterlimit:3}
	]]>
	</style>

	<defs id="Patterns_And_Gradients">
		<radialGradient id="grad7-5" cx="0" cy="0" r="1.4">
			<stop offset="0" stop-color="#74b61e" stop-opacity="1"/>
			<stop offset="0.5" stop-color="#73b51d" stop-opacity="1"/>
			<stop offset="1" stop-color="#507f13" stop-opacity="1"/>
		</radialGradient>
		<linearGradient id="grad0-9" x1="0" y1="0" x2="1" y2="0" gradientTransform="rotate(-90 0.5 0.5)">
			<stop offset="0" stop-color="#000000" stop-opacity="1"/>
			<stop offset="1" stop-color="#ffffff" stop-opacity="1"/>
		</linearGradient>
		<linearGradient id="grad0-17" x1="0" y1="0" x2="1" y2="0" gradientTransform="rotate(-90 0.5 0.5)">
			<stop offset="0" stop-color="#e1ffb9" stop-opacity="1"/>
			<stop offset="1" stop-color="#ffffff" stop-opacity="1"/>
		</linearGradient>
	</defs>
	<g v:mID="0" v:index="1" v:groupContext="foregroundPage">
		<title>Page-1</title>
		<v:pageProperties v:drawingScale="1" v:pageScale="1" v:drawingUnits="19" v:shadowOffsetX="9" v:shadowOffsetY="-9"/>
		<g id="group365-1" transform="translate(0.75,-0.75)" v:mID="365" v:groupContext="group">
			<title>Sheet.365</title>
			<g id="shape366-2" v:mID="366" v:groupContext="shape">
				<title>bg</title>
				<path d="M24 13.5 C24 20.13 18.63 25.5 12 25.5 C5.37 25.5 0 20.13 0 13.5 C0 6.87 5.37 1.5 12 1.5 C18.63 1.5 24 6.87
							 24 13.5 Z" class="st1"/>
			</g>
			<g id="shape367-6" v:mID="367" v:groupContext="shape" transform="translate(0.0937513,-0.09375)">
				<title>shaglow</title>
				<path d="M23.81 13.59 C23.81 20.17 18.48 25.5 11.91 25.5 C5.33 25.5 0 20.17 0 13.59 C0 7.02 5.33 1.69 11.91 1.69
							 C18.48 1.69 23.81 7.02 23.81 13.59 Z" class="st2"/>
			</g>
			<g id="shape368-10" v:mID="368" v:groupContext="shape" transform="translate(6.03574,-9.4441)">
				<title>Geeko</title>
				<path d="M7.77 17.18 C7.36 17.18 6.98 17.19 6.8 17.21 C5.73 17.33 4.78 17.61 3.73 18.14 C2.03 18.99 0.97 19.94 0.37
							 21.17 C0.1 21.71 0.01 22.1 0 22.67 C0 23.03 0.03 23.22 0.12 23.52 C0.46 24.58 1.42 25.34 2.53 25.42
							 C3.61 25.5 4.41 25.07 4.77 24.23 C4.9 23.92 4.94 23.66 4.9 23.32 C4.81 22.5 4.28 21.88 3.5 21.68 C3.26
							 21.61 2.89 21.61 2.66 21.67 C2.01 21.85 1.54 22.43 1.71 23.15 C1.86 23.76 2.57 24.14 3.17 23.9 C3.41
							 23.8 3.55 23.69 3.48 23.43 C3.41 23.17 3.24 23.11 2.9 23.2 C2.77 23.24 2.68 23.21 2.58 23.12 C2.41 22.97
							 2.41 22.74 2.58 22.58 C2.79 22.38 3.17 22.36 3.51 22.54 C3.86 22.71 4.11 23.2 4.05 23.6 C3.99 24.02
							 3.75 24.31 3.35 24.45 C3.21 24.49 3.16 24.5 2.84 24.5 C2.49 24.5 2.47 24.49 2.28 24.43 C1.55 24.18 1.08
							 23.53 1.07 22.77 C1.07 22.29 1.24 21.9 1.62 21.52 C1.97 21.17 2.43 21 3.02 21 C3.75 21 4.35 21.26 4.88
							 21.79 C5.28 22.18 5.58 22.72 5.69 23.25 L5.73 23.41 L6.78 23.93 C6.78 23.92 6.78 23.85 6.77 23.8 C6.73
							 23.62 6.72 23.12 6.76 22.9 C6.81 22.59 6.88 22.43 7.04 22.28 C7.28 22.04 7.58 21.94 8.03 21.93 C8.63
							 21.93 9.14 22.15 9.6 22.61 C9.7 22.71 9.92 22.96 10.09 23.15 C10.26 23.35 10.43 23.52 10.46 23.55 C10.55
							 23.61 11.77 24.17 11.79 24.15 C11.79 24.15 11.75 24.07 11.69 23.98 C11.45 23.64 11.25 23.19 11.17 22.85
							 C11.12 22.61 11.13 22.26 11.2 22.1 C11.27 21.95 11.41 21.82 11.55 21.78 C11.71 21.73 12.06 21.73 12.52
							 21.78 C13.07 21.85 13.37 21.86 13.74 21.83 C14.57 21.77 15.11 21.63 15.72 21.34 C16.03 21.18 16.1 21.12
							 16.17 20.93 C16.24 20.76 16.27 20.59 16.23 20.59 C16.22 20.59 16.11 20.64 15.99 20.7 C15.52 20.92 15.12
							 21.01 14.76 21 C14.39 20.98 13.78 20.77 13.06 20.43 L12.73 20.27 L12.47 19.63 L12.72 19.78 C13.13 20.06
							 13.79 20.38 14.2 20.51 C14.82 20.71 15.31 20.68 15.81 20.43 C15.98 20.34 16.31 20.11 16.31 20.08 C16.31
							 20.02 16.14 19.45 16.04 19.19 C15.79 18.54 15.63 18.32 15.22 18.13 C14.77 17.91 14.28 17.76 13.37 17.55
							 C12.93 17.46 12.5 17.37 12.05 17.32 L12.04 17.85 C11.02 17.53 10.12 17.32 9.12 17.22 C8.86 17.19 8.29
							 17.18 7.77 17.18 ZM14.58 18.28 C14.91 18.28 15.23 18.45 15.42 18.76 C15.73 19.29 15.47 19.97 14.88 20.17
							 C14.49 20.31 14.03 20.15 13.79 19.8 C13.6 19.52 13.56 19.16 13.7 18.85 C13.78 18.68 13.97 18.47 14.13
							 18.39 C14.28 18.32 14.43 18.28 14.58 18.28 ZM14.57 18.57 C14.41 18.57 14.26 18.63 14.12 18.75 C13.92
							 18.93 13.85 19.27 13.97 19.52 C14.07 19.73 14.25 19.88 14.46 19.91 C14.77 19.96 15.06 19.82 15.18 19.56
							 C15.27 19.38 15.28 19.26 15.24 19.09 C15.15 18.75 14.87 18.56 14.57 18.57 ZM14.73 18.91 C14.84 18.91
							 14.98 18.98 15 19.05 C15.02 19.15 14.99 19.21 14.9 19.26 C14.76 19.33 14.58 19.31 14.47 19.21 C14.34
							 19.09 14.49 18.91 14.73 18.91 Z" class="st3"/>
			</g>
			<g id="shape369-12" v:mID="369" v:groupContext="shape" transform="translate(3.00749,-5.98309)">
				<title>SuSE</title>
				<path d="M1.13 21.45 C0.51 21.45 0 21.93 0 22.52 L0 22.84 C0 23.41 0.42 23.81 1.03 23.81 L2.17 23.81 C2.32 23.81
							 2.48 23.9 2.48 24.08 L2.48 24.37 C2.48 24.54 2.32 24.64 2.17 24.64 L0.05 24.64 L0.05 25.14 C0.05 25.33
							 0.22 25.47 0.44 25.47 L2.31 25.47 C2.94 25.47 3.45 24.99 3.45 24.4 L3.45 23.97 C3.45 23.39 3.08 23.06
							 2.43 23.06 L1.3 23.06 C1.11 23.06 0.98 22.96 0.98 22.81 L0.98 22.56 C0.98 22.41 1.15 22.28 1.33 22.28
							 L3.14 22.28 L3.14 21.78 C3.14 21.57 3.02 21.45 2.81 21.45 L1.13 21.45 ZM9.52 21.45 C8.9 21.45 8.39 21.93
							 8.39 22.52 L8.39 22.84 C8.39 23.41 8.82 23.81 9.43 23.81 L10.56 23.81 C10.71 23.81 10.87 23.9 10.87
							 24.08 L10.87 24.37 C10.87 24.54 10.71 24.64 10.56 24.64 L8.44 24.64 L8.44 25.14 C8.44 25.33 8.61 25.47
							 8.83 25.47 L10.71 25.47 C11.34 25.47 11.85 24.99 11.85 24.4 L11.85 23.97 C11.85 23.39 11.47 23.06 10.82
							 23.06 L9.7 23.06 C9.5 23.06 9.37 22.96 9.37 22.81 L9.37 22.56 C9.37 22.41 9.54 22.28 9.72 22.28 L11.58
							 22.28 L11.58 21.78 C11.58 21.58 11.43 21.45 11.21 21.45 L9.52 21.45 ZM13.62 21.45 C13 21.45 12.49 21.93
							 12.49 22.52 L12.49 24.4 C12.49 24.99 13 25.47 13.62 25.47 L15.2 25.47 C15.42 25.47 15.58 25.33 15.58
							 25.14 L15.58 24.64 L13.79 24.64 C13.59 24.64 13.46 24.51 13.46 24.33 C13.46 24.33 13.46 23.88 13.46
							 23.82 C13.52 23.82 15.61 23.82 15.61 23.82 C15.93 23.82 16.19 23.57 16.19 23.27 L16.19 22.52 C16.19
							 21.93 15.68 21.45 15.06 21.45 L13.62 21.45 ZM13.78 22.28 L14.9 22.28 C15.08 22.28 15.22 22.41 15.22
							 22.58 C15.22 22.58 15.22 23 15.22 23.06 C15.16 23.06 13.52 23.06 13.46 23.06 C13.46 23 13.46 22.58 13.46
							 22.58 C13.46 22.41 13.6 22.28 13.78 22.28 ZM4.41 22.45 C4.21 22.45 4.08 22.6 4.08 22.82 L4.08 24.36
							 C4.08 25.08 4.55 25.5 5.36 25.5 L5.5 25.5 C5.88 25.5 6.19 25.34 6.42 25.22 C6.56 25.16 6.66 25.1 6.73
							 25.1 C6.76 25.1 6.82 25.11 6.85 25.16 L7.08 25.47 L7.4 25.47 C7.65 25.47 7.75 25.27 7.75 25.13 L7.75
							 22.82 C7.75 22.61 7.52 22.45 7.32 22.45 L7.12 22.45 C6.92 22.45 6.78 22.6 6.78 22.82 L6.78 24.29 C6.78
							 24.48 6.62 24.64 6.42 24.64 L5.41 24.64 C5.21 24.64 5.05 24.48 5.05 24.29 L5.05 22.82 C5.05 22.61 4.82
							 22.45 4.62 22.45 L4.41 22.45 Z" class="st3"/>
			</g>
			<g id="shape370-14" v:mID="370" v:groupContext="shape" transform="translate(4.64039,-14.4894)">
				<title>glow</title>
				<path d="M14.58 21.24 C14.58 23.59 11.32 25.5 7.29 25.5 C3.26 25.5 0 23.59 0 21.24 C0 18.88 3.26 16.98 7.29 16.98
							 C11.32 16.98 14.58 18.88 14.58 21.24 Z" class="st4"/>
			</g>
		</g>
	</g>
</svg>
