<?xml version="1.0" encoding="UTF-8" standalone="no"?>
<!DOCTYPE svg PUBLIC "-//W3C//DTD SVG 1.1//EN" "http://www.w3.org/Graphics/SVG/1.1/DTD/svg11.dtd">
<!-- Generated by Microsoft Visio, SVG Export SingleContainerLogo.svg Page-1 -->
<svg xmlns="http://www.w3.org/2000/svg" xmlns:xlink="http://www.w3.org/1999/xlink" xmlns:ev="http://www.w3.org/2001/xml-events"
		xmlns:v="http://schemas.microsoft.com/visio/2003/SVGExtensions/" width="0.450737in" height="0.461674in"
		viewBox="0 0 32.453 33.2405" xml:space="preserve" color-interpolation-filters="sRGB" class="st4">
	<v:documentProperties v:langID="1033" v:viewMarkup="false"/>

	<style type="text/css">
	<![CDATA[
		.st1 {fill:#3999c6;stroke:#0070c0;stroke-linecap:butt;stroke-width:0.5}
		.st2 {fill:#b92025;fill-opacity:0.3;stroke:none;stroke-linecap:butt;stroke-width:12.2892}
		.st3 {fill:#0070c0;stroke:none;stroke-linecap:butt;stroke-width:12.2892}
		.st4 {fill:none;fill-rule:evenodd;font-size:12px;overflow:visible;stroke-linecap:square;stroke-miterlimit:3}
	]]>
	</style>

	<g v:mID="0" v:index="1" v:groupContext="foregroundPage">
		<title>Page-1</title>
		<v:pageProperties v:drawingScale="1" v:pageScale="1" v:drawingUnits="19" v:shadowOffsetX="9" v:shadowOffsetY="-9"/>
		<g id="shape414-1" v:mID="414" v:groupContext="shape" transform="translate(11.1079,-11.1079)">
			<title>Sheet.414</title>
			<path d="M0.39 22.22 a0.393736 0.393736 -180 0 0 -0.393736 0.393736 L0 32.85 a0.393736 0.393736 -180 0 0 0.393736 0.393736
						 L9.84 33.24 a0.393736 0.393736 -180 0 0 0.393736 -0.393736 L10.24 22.61 a0.393736 0.393736 -180 0 0 -0.393736
						 -0.393736 L0.39 22.22 Z" class="st1"/>
		</g>
		<g id="shape415-3" v:mID="415" v:groupContext="shape" transform="translate(16.9943,-24.495)">
			<title>Sheet.415</title>
		</g>
		<g id="shape416-4" v:mID="416" v:groupContext="shape" transform="translate(20.1442,-22.92)">
			<title>Sheet.416</title>
		</g>
		<g id="shape418-5" v:mID="418" v:groupContext="shape" transform="translate(16.9943,-24.495)">
			<title>Sheet.418</title>
		</g>
		<g id="shape419-6" v:mID="419" v:groupContext="shape" transform="translate(12.2892,-12.2892)">
			<title>Sheet.419</title>
			<path d="M7.09 24.58 L0 24.58 L0 33.24 L7.87 33.24 L7.87 24.58 L7.09 24.58 ZM2.36 32.45 L0.79 32.45 L0.79 25.37 L2.36
						 25.37 L2.36 32.45 ZM4.72 32.45 L3.15 32.45 L3.15 25.37 L4.72 25.37 L4.72 32.45 ZM7.09 32.45 L5.51 32.45
						 L5.51 25.37 L7.09 25.37 L7.09 32.45 Z" class="st2"/>
		</g>
		<g id="shape420-8" v:mID="420" v:groupContext="shape" transform="translate(12.2892,-12.2892)">
			<title>Sheet.420</title>
			<path d="M7.09 24.58 L0 24.58 L0 33.24 L7.87 33.24 L7.87 24.58 L7.09 24.58 ZM2.36 32.45 L0.79 32.45 L0.79 25.37 L2.36
						 25.37 L2.36 32.45 ZM4.72 32.45 L3.15 32.45 L3.15 25.37 L4.72 25.37 L4.72 32.45 ZM7.09 32.45 L5.51 32.45
						 L5.51 25.37 L7.09 25.37 L7.09 32.45 Z" class="st3"/>
		</g>
	</g>
</svg>
