<?xml version="1.0" encoding="UTF-8" standalone="no"?>
<!DOCTYPE svg PUBLIC "-//W3C//DTD SVG 1.1//EN" "http://www.w3.org/Graphics/SVG/1.1/DTD/svg11.dtd">
<!-- Generated by Microsoft Visio, SVG Export SQLPerfromance.svg Page-1 -->
<svg xmlns="http://www.w3.org/2000/svg" xmlns:xlink="http://www.w3.org/1999/xlink" xmlns:ev="http://www.w3.org/2001/xml-events"
		xmlns:v="http://schemas.microsoft.com/visio/2003/SVGExtensions/" width="1.38542in" height="1.0865in"
		viewBox="0 0 99.75 78.2283" xml:space="preserve" color-interpolation-filters="sRGB" class="st20">
	<v:documentProperties v:langID="1033" v:viewMarkup="false"/>

	<style type="text/css">
	<![CDATA[
		.st1 {fill:#ffffff;stroke:none;stroke-linecap:round;stroke-linejoin:round;stroke-width:0.75}
		.st2 {visibility:visible}
		.st3 {fill:#5b9bd5;fill-opacity:0.22;filter:url(#filter_2);stroke:none}
		.st4 {fill:#0072c6;stroke:none;stroke-width:12.24}
		.st5 {fill:#ffffff;fill-opacity:0.15;stroke:none;stroke-width:12.24}
		.st6 {fill:#ffffff;stroke:none;stroke-width:12.24}
		.st7 {fill:#7fba00;stroke:none;stroke-width:12.24}
		.st8 {fill:#b8d432;stroke:none;stroke-width:12.24}
		.st9 {fill:#ffffff;stroke:none;stroke-width:0.75}
		.st10 {fill:#7fba00;fill-opacity:0.4}
		.st11 {stroke:none;stroke-width:0.75}
		.st12 {fill:#7fba00;fill-opacity:0.8}
		.st13 {fill:#7fba00;fill-opacity:0.6}
		.st14 {fill:#7fba00;fill-opacity:0.25}
		.st15 {fill:#a0a1a2;stroke:none;stroke-width:0.75}
		.st16 {fill:#ffffff;fill-opacity:0.2;stroke:none;stroke-width:0.75}
		.st17 {fill:#7fba00;stroke:none;stroke-width:0.75}
		.st18 {fill:#dd5900;stroke:none;stroke-width:0.75}
		.st19 {fill:#ff8c00;stroke:none;stroke-width:0.75}
		.st20 {fill:none;fill-rule:evenodd;font-size:12px;overflow:visible;stroke-linecap:square;stroke-miterlimit:3}
	]]>
	</style>

	<defs id="Filters">
		<filter id="filter_2">
			<feGaussianBlur stdDeviation="2"/>
		</filter>
	</defs>
	<g v:mID="0" v:index="1" v:groupContext="foregroundPage">
		<title>Page-1</title>
		<v:pageProperties v:drawingScale="1" v:pageScale="1" v:drawingUnits="19" v:shadowOffsetX="9" v:shadowOffsetY="-9"/>
		<g id="group774-1" transform="translate(0.375,-0.375)" v:mID="774" v:groupContext="group">
			<title>Sheet.774</title>
			<g id="shape773-2" v:mID="773" v:groupContext="shape">
				<title>Sheet.773</title>
				<rect x="0" y="0.750001" width="99" height="77.4783" class="st1"/>
			</g>
			<g id="group80-4" transform="translate(36.2344,-21.1555)" v:mID="80" v:groupContext="group">
				<title>SQL Database</title>
				<g id="shape81-5" v:mID="81" v:groupContext="shape">
					<title>Sheet.81</title>
					<g id="shadow81-6" v:groupContext="shadow" v:shadowOffsetX="0.3456" v:shadowOffsetY="-1.9728" v:shadowType="1"
							transform="matrix(1,0,0,1,0.3456,1.9728)" class="st2">
						<path d="M0 47.87 L0 73.42 C0 76.08 5.94 78.23 13.27 78.23 L13.27 47.87 C13.27 47.87 0 47.87 0 47.87 Z"
								class="st3"/>
					</g>
					<path d="M0 47.87 L0 73.42 C0 76.08 5.94 78.23 13.27 78.23 L13.27 47.87 C13.27 47.87 0 47.87 0 47.87 Z"
							class="st4"/>
				</g>
				<g id="shape82-10" v:mID="82" v:groupContext="shape" transform="translate(13.0837,-0.000707762)">
					<title>Sheet.82</title>
					<g id="shadow82-11" v:groupContext="shadow" v:shadowOffsetX="0.3456" v:shadowOffsetY="-1.9728" v:shadowType="1"
							transform="matrix(1,0,0,1,0.3456,1.9728)" class="st2">
						<path d="M0 78.23 L0.18 78.23 C7.51 78.23 13.45 76.08 13.45 73.42 L13.45 47.87 L0 47.87 L0 78.23 Z"
								class="st3"/>
					</g>
					<path d="M0 78.23 L0.18 78.23 C7.51 78.23 13.45 76.08 13.45 73.42 L13.45 47.87 L0 47.87 L0 78.23 Z" class="st4"/>
				</g>
				<g id="shape83-15" v:mID="83" v:groupContext="shape" transform="translate(13.0837,-0.000707762)">
					<title>Sheet.83</title>
					<g id="shadow83-16" v:groupContext="shadow" v:shadowOffsetX="0.3456" v:shadowOffsetY="-1.9728" v:shadowType="1"
							transform="matrix(1,0,0,1,0.3456,1.9728)" class="st2">
						<path d="M0 78.23 L0.18 78.23 C7.51 78.23 13.45 76.08 13.45 73.42 L13.45 47.87 L0 47.87 L0 78.23 Z"
								class="st3"/>
					</g>
					<path d="M0 78.23 L0.18 78.23 C7.51 78.23 13.45 76.08 13.45 73.42 L13.45 47.87 L0 47.87 L0 78.23 Z" class="st5"/>
				</g>
				<g id="shape84-20" v:mID="84" v:groupContext="shape" transform="translate(0,-25.5587)">
					<title>Sheet.84</title>
					<g id="shadow84-21" v:groupContext="shadow" v:shadowOffsetX="0.3456" v:shadowOffsetY="-1.9728" v:shadowType="1"
							transform="matrix(1,0,0,1,0.3456,1.9728)" class="st2">
						<path d="M26.53 73.42 C26.53 76.08 20.59 78.23 13.27 78.23 C5.94 78.23 0 76.08 0 73.42 C0 70.77 5.94 68.62
									 13.27 68.62 C20.59 68.62 26.53 70.77 26.53 73.42 Z" class="st3"/>
					</g>
					<path d="M26.53 73.42 C26.53 76.08 20.59 78.23 13.27 78.23 C5.94 78.23 0 76.08 0 73.42 C0 70.77 5.94 68.62 13.27
								 68.62 C20.59 68.62 26.53 70.77 26.53 73.42 Z" class="st6"/>
				</g>
				<g id="shape85-25" v:mID="85" v:groupContext="shape" transform="translate(2.71144,-27.4697)">
					<title>Sheet.85</title>
					<g id="shadow85-26" v:groupContext="shadow" v:shadowOffsetX="0.3456" v:shadowOffsetY="-1.9728" v:shadowType="1"
							transform="matrix(1,0,0,1,0.3456,1.9728)" class="st2">
						<path d="M21.11 75.06 C21.11 76.81 16.38 78.23 10.55 78.23 C4.73 78.23 0 76.81 0 75.06 C0 73.31 4.73 71.89
									 10.55 71.89 C16.38 71.89 21.11 73.31 21.11 75.06 Z" class="st3"/>
					</g>
					<path d="M21.11 75.06 C21.11 76.81 16.38 78.23 10.55 78.23 C4.73 78.23 0 76.81 0 75.06 C0 73.31 4.73 71.89 10.55
								 71.89 C16.38 71.89 21.11 73.31 21.11 75.06 Z" class="st7"/>
				</g>
				<g id="shape86-30" v:mID="86" v:groupContext="shape" transform="translate(2.71215,-28.7026)">
					<title>Sheet.86</title>
					<g id="shadow86-31" v:groupContext="shadow" v:shadowOffsetX="0.3456" v:shadowOffsetY="-1.9728" v:shadowType="1"
							transform="matrix(1,0,0,1,0.3456,1.9728)" class="st2">
						<path d="M18.9 78.23 C20.28 77.69 21.11 77.02 21.11 76.29 C21.11 74.54 16.38 73.12 10.55 73.12 C4.73 73.12
									 0 74.54 0 76.29 C0 77.02 0.83 77.69 2.21 78.23 C4.14 77.48 7.16 77 10.55 77 C13.95 77 16.97
									 77.48 18.9 78.23 Z" class="st3"/>
					</g>
					<path d="M18.9 78.23 C20.28 77.69 21.11 77.02 21.11 76.29 C21.11 74.54 16.38 73.12 10.55 73.12 C4.73 73.12 0
								 74.54 0 76.29 C0 77.02 0.83 77.69 2.21 78.23 C4.14 77.48 7.16 77 10.55 77 C13.95 77 16.97 77.48
								 18.9 78.23 Z" class="st8"/>
				</g>
				<g id="shape87-35" v:mID="87" v:groupContext="shape" transform="translate(3.59968,-10.1231)">
					<title>Sheet.87</title>
					<g id="shadow87-36" v:groupContext="shadow" v:shadowOffsetX="0.3456" v:shadowOffsetY="-1.9728" v:shadowType="1"
							transform="matrix(1,0,0,1,0.3456,1.9728)" class="st2">
						<path d="M5.45 75.73 C5.45 76.52 5.16 77.14 4.59 77.57 C4.01 78.01 3.22 78.23 2.2 78.23 C1.34 78.23 0.62
									 78.07 0.03 77.76 L0.03 75.89 C0.7 76.46 1.44 76.75 2.25 76.75 C2.64 76.75 2.94 76.67 3.15 76.51
									 C3.36 76.36 3.47 76.15 3.47 75.89 C3.47 75.64 3.37 75.42 3.16 75.23 C2.96 75.05 2.54 74.8 1.92
									 74.51 C0.64 73.91 0 73.09 0 72.06 C0 71.31 0.28 70.7 0.84 70.25 C1.39 69.8 2.13 69.57 3.05 69.57
									 C3.87 69.57 4.55 69.68 5.09 69.89 L5.09 71.64 C4.52 71.25 3.88 71.05 3.16 71.05 C2.8 71.05 2.51
									 71.13 2.3 71.28 C2.09 71.44 1.99 71.64 1.99 71.9 C1.99 72.16 2.07 72.38 2.24 72.55 C2.41 72.72
									 2.76 72.93 3.28 73.18 C4.06 73.55 4.62 73.92 4.96 74.3 C5.29 74.69 5.45 75.16 5.45 75.73 Z"
								class="st3"/>
					</g>
					<path d="M5.45 75.73 C5.45 76.52 5.16 77.14 4.59 77.57 C4.01 78.01 3.22 78.23 2.2 78.23 C1.34 78.23 0.62 78.07
								 0.03 77.76 L0.03 75.89 C0.7 76.46 1.44 76.75 2.25 76.75 C2.64 76.75 2.94 76.67 3.15 76.51 C3.36
								 76.36 3.47 76.15 3.47 75.89 C3.47 75.64 3.37 75.42 3.16 75.23 C2.96 75.05 2.54 74.8 1.92 74.51 C0.64
								 73.91 0 73.09 0 72.06 C0 71.31 0.28 70.7 0.84 70.25 C1.39 69.8 2.13 69.57 3.05 69.57 C3.87 69.57
								 4.55 69.68 5.09 69.89 L5.09 71.64 C4.52 71.25 3.88 71.05 3.16 71.05 C2.8 71.05 2.51 71.13 2.3 71.28
								 C2.09 71.44 1.99 71.64 1.99 71.9 C1.99 72.16 2.07 72.38 2.24 72.55 C2.41 72.72 2.76 72.93 3.28 73.18
								 C4.06 73.55 4.62 73.92 4.96 74.3 C5.29 74.69 5.45 75.16 5.45 75.73 Z" class="st6"/>
				</g>
				<g id="shape88-40" v:mID="88" v:groupContext="shape" transform="translate(9.85701,-8.1789)">
					<title>Sheet.88</title>
					<g id="shadow88-41" v:groupContext="shadow" v:shadowOffsetX="0.3456" v:shadowOffsetY="-1.9728" v:shadowType="1"
							transform="matrix(1,0,0,1,0.3456,1.9728)" class="st2">
						<path d="M8.2 71.89 C8.2 72.88 7.98 73.73 7.53 74.46 C7.08 75.18 6.45 75.69 5.64 75.98 L8.07 78.23 L5.62
									 78.23 L3.88 76.28 C3.14 76.26 2.47 76.06 1.87 75.69 C1.27 75.33 0.81 74.83 0.49 74.19 C0.16
									 73.55 0 72.85 0 72.06 C0 71.2 0.18 70.42 0.53 69.74 C0.88 69.06 1.38 68.54 2.01 68.17 C2.65
									 67.81 3.38 67.63 4.21 67.63 C4.98 67.63 5.67 67.8 6.28 68.16 C6.89 68.51 7.36 69.02 7.7 69.67
									 C8.03 70.32 8.2 71.07 8.2 71.89 ZM6.22 72 C6.22 71.15 6.03 70.48 5.66 69.99 C5.29 69.5 4.79
									 69.25 4.15 69.25 C3.49 69.25 2.97 69.5 2.57 69.99 C2.18 70.48 1.99 71.14 1.99 71.96 C1.99 72.78
									 2.18 73.43 2.56 73.92 C2.95 74.41 3.46 74.65 4.1 74.65 C4.75 74.65 5.26 74.42 5.65 73.94 C6.03
									 73.47 6.22 72.82 6.22 72 Z" class="st3"/>
					</g>
					<path d="M8.2 71.89 C8.2 72.88 7.98 73.73 7.53 74.46 C7.08 75.18 6.45 75.69 5.64 75.98 L8.07 78.23 L5.62 78.23
								 L3.88 76.28 C3.14 76.26 2.47 76.06 1.87 75.69 C1.27 75.33 0.81 74.83 0.49 74.19 C0.16 73.55 0 72.85
								 0 72.06 C0 71.2 0.18 70.42 0.53 69.74 C0.88 69.06 1.38 68.54 2.01 68.17 C2.65 67.81 3.38 67.63 4.21
								 67.63 C4.98 67.63 5.67 67.8 6.28 68.16 C6.89 68.51 7.36 69.02 7.7 69.67 C8.03 70.32 8.2 71.07 8.2
								 71.89 ZM6.22 72 C6.22 71.15 6.03 70.48 5.66 69.99 C5.29 69.5 4.79 69.25 4.15 69.25 C3.49 69.25 2.97
								 69.5 2.57 69.99 C2.18 70.48 1.99 71.14 1.99 71.96 C1.99 72.78 2.18 73.43 2.56 73.92 C2.95 74.41
								 3.46 74.65 4.1 74.65 C4.75 74.65 5.26 74.42 5.65 73.94 C6.03 73.47 6.22 72.82 6.22 72 Z"
							class="st6"/>
				</g>
				<g id="shape89-45" v:mID="89" v:groupContext="shape" transform="translate(19.4436,-10.2689)">
					<title>Sheet.89</title>
					<g id="shadow89-46" v:groupContext="shadow" v:shadowOffsetX="0.3456" v:shadowOffsetY="-1.9728" v:shadowType="1"
							transform="matrix(1,0,0,1,0.3456,1.9728)" class="st2">
						<path d="M4.99 78.23 L0 78.23 L0 69.86 L1.89 69.86 L1.89 76.7 L4.99 76.7 L4.99 78.23 Z" class="st3"/>
					</g>
					<path d="M4.99 78.23 L0 78.23 L0 69.86 L1.89 69.86 L1.89 76.7 L4.99 76.7 L4.99 78.23 Z" class="st6"/>
				</g>
			</g>
			<g id="group759-50" transform="translate(53.3016,-14.0789)" v:mID="759" v:groupContext="group">
				<title>Azure Monitoring</title>
				<g id="group760-51" v:mID="760" v:groupContext="group">
					<title>g3814</title>
					<g id="shape761-52" v:mID="761" v:groupContext="shape" transform="translate(6.96712,-1.01662)">
						<title>path3775</title>
						<path d="M1.36 63.02 A7.78125 7.78125 -180 1 0 7.02 64.66 A7.6425 7.6425 -180 0 0 2.19 62.97 A8.0325 8.0325
									 -180 0 0 1.36 63.02 Z" class="st9"/>
					</g>
					<g id="shape762-54" v:mID="762" v:groupContext="shape" transform="translate(2.93898,-8.26125)">
						<title>path3777</title>
						<path d="M3 75.93 L1.12 74.39 A6.23625 6.23625 -180 0 0 0 78.23 L2.42 77.97 A3.825 3.825 0 0 1 3.01 75.92
									 L3 75.93 Z" class="st10"/>
						<path d="M3 75.93 L1.12 74.39 A6.23625 6.23625 -180 0 0 0 78.23 L2.42 77.97 A3.825 3.825 0 0 1 3.01 75.92"
								class="st11"/>
					</g>
					<g id="shape763-57" v:mID="763" v:groupContext="shape" transform="translate(8.92773,-11.7487)">
						<title>path3779</title>
						<path d="M2.31 78.22 L3.84 76.34 A6.24 6.24 -180 0 0 -0 75.22 L0.25 77.64 A3.82875 3.82875 0 0 1 2.31 78.23
									 L2.31 78.22 Z" class="st12"/>
						<path d="M2.31 78.22 L3.84 76.34 A6.24 6.24 -180 0 0 -0 75.22 L0.25 77.64 A3.82875 3.82875 0 0 1 2.31 78.23"
								class="st11"/>
					</g>
					<g id="shape764-60" v:mID="764" v:groupContext="shape" transform="translate(4.57398,-11.2275)">
						<title>path3781</title>
						<path d="M3.76 77.22 L3.51 74.78 A6.24375 6.24375 -180 0 0 0 76.7 L1.87 78.23 A3.82125 3.82125 0 0 1 3.75
									 77.2 L3.76 77.22 Z" class="st13"/>
						<path d="M3.76 77.22 L3.51 74.78 A6.24375 6.24375 -180 0 0 0 76.7 L1.87 78.23 A3.82125 3.82125 0 0 1 3.75
									 77.2" class="st11"/>
					</g>
					<g id="shape765-63" v:mID="765" v:groupContext="shape" transform="translate(3.01398,-3.90375)">
						<title>path3783</title>
						<path d="M2.42 74.46 L0 74.72 A6.24 6.24 -180 0 0 1.92 78.23 L3.45 76.35 A3.82125 3.82125 0 0 1 2.42 74.48
									 L2.42 74.46 Z" class="st14"/>
						<path d="M2.42 74.46 L0 74.72 A6.24 6.24 -180 0 0 1.92 78.23 L3.45 76.35 A3.82125 3.82125 0 0 1 2.42 74.48"
								class="st11"/>
					</g>
					<g id="shape766-66" v:mID="766" v:groupContext="shape" transform="translate(5.17773,0)">
						<title>path3785</title>
						<path d="M13.29 68.76 A9.42375 9.42375 -180 0 0 9.81 62.41 A9.09 9.09 -180 0 0 8.65 61.62 L7.9 63.04 A7.4325
									 7.4325 0 0 1 8.79 63.65 A7.7775 7.7775 0 0 1 4.78 77.47 A7.7325 7.7325 0 0 1 0.75 76.81 L0 78.23
									 A9.375 9.375 -180 0 0 13.29 68.76 Z" class="st15"/>
					</g>
					<g id="shape767-68" v:mID="767" v:groupContext="shape" transform="translate(9.19265E-14,-0.00375)">
						<title>path3787</title>
						<path d="M4.27 75.79 A7.7775 7.7775 0 0 1 13.11 63.04 L13.86 61.62 A9.375 9.375 -180 0 0 1.86 63.84 A9.34125
									 9.34125 -180 0 0 5.2 78.23 L5.95 76.81 A7.80375 7.80375 0 0 1 4.27 75.79 Z" class="st15"/>
					</g>
					<g id="shape768-70" v:mID="768" v:groupContext="shape" transform="translate(9.19265E-14,-0.00375)">
						<title>path3789</title>
						<path d="M4.27 75.79 A7.7775 7.7775 0 0 1 13.11 63.04 L13.86 61.62 A9.375 9.375 -180 0 0 1.86 63.84 A9.34125
									 9.34125 -180 0 0 5.2 78.23 L5.95 76.81 A7.80375 7.80375 0 0 1 4.27 75.79 Z" class="st16"/>
					</g>
					<g id="shape769-72" v:mID="769" v:groupContext="shape" transform="translate(11.8977,-9.95625)">
						<title>path3791</title>
						<path d="M1.53 75.06 L0 76.94 A3.81 3.81 0 0 1 0.85 78.23 L3.39 78.23 A6.2325 6.2325 -180 0 0 1.53 75.06 Z"
								class="st17"/>
					</g>
					<g id="shape770-74" v:mID="770" v:groupContext="shape" transform="translate(8.17756,-7.425)">
						<title>path3793</title>
						<path d="M0.24 77.91 A1.095 1.095 0 0 1 1.02 76.04 A1.08 1.08 0 0 1 1.79 76.34 L7.39 76.34 a0.79875 0.79875
									 0 1 1 0 1.59375 L1.74 77.94 A1.125 1.125 0 0 1 1.02 78.23 A1.0875 1.0875 0 0 1 0.24 77.91 Z"
								class="st18"/>
					</g>
					<g id="shape771-76" v:mID="771" v:groupContext="shape" transform="translate(8.09898,-8.49)">
						<title>path3795</title>
						<path d="M7.47 77.43 L1.87 77.43 A1.08 1.08 -180 0 0 1.09 77.13 A1.095 1.095 -180 0 0 0 78.23 L8.25 78.23
									 a0.79875 0.79875 -180 0 0 -0.78375 -0.795 Z" class="st19"/>
					</g>
				</g>
			</g>
		</g>
	</g>
</svg>
