<?xml version="1.0" encoding="UTF-8" standalone="no"?>
<!DOCTYPE svg PUBLIC "-//W3C//DTD SVG 1.1//EN" "http://www.w3.org/Graphics/SVG/1.1/DTD/svg11.dtd">
<!-- Generated by Microsoft Visio, SVG Export RedhatLogo.svg Page-1 -->
<svg xmlns="http://www.w3.org/2000/svg" xmlns:xlink="http://www.w3.org/1999/xlink" xmlns:ev="http://www.w3.org/2001/xml-events"
		xmlns:v="http://schemas.microsoft.com/visio/2003/SVGExtensions/" width="1.43136in" height="0.495784in"
		viewBox="0 0 103.058 35.6965" xml:space="preserve" color-interpolation-filters="sRGB" class="st4">
	<v:documentProperties v:langID="1033" v:viewMarkup="false"/>

	<style type="text/css">
	<![CDATA[
		.st1 {fill:#ffffff;stroke:none;stroke-width:1.92277}
		.st2 {fill:#100f0d;stroke:none;stroke-width:1.92277}
		.st3 {fill:#cd1e25;stroke:none;stroke-width:1.92277}
		.st4 {fill:none;fill-rule:evenodd;font-size:12px;overflow:visible;stroke-linecap:square;stroke-miterlimit:3}
	]]>
	</style>

	<g v:mID="0" v:index="1" v:groupContext="foregroundPage">
		<title>Page-1</title>
		<v:pageProperties v:drawingScale="1" v:pageScale="1" v:drawingUnits="19" v:shadowOffsetX="9" v:shadowOffsetY="-9"/>
		<g id="group325-1" transform="translate(1.92277,-1.92277)" v:mID="325" v:groupContext="group">
			<title>Redhat</title>
			<g id="shape326-2" v:mID="326" v:groupContext="shape" transform="translate(0.82974,1.42109E-14)">
				<title>Sheet.326</title>
				<path d="M28.47 28.43 C27.85 28.29 27.2 28.2 26.54 28.2 C25.42 28.2 24.39 28.39 23.64 28.71 C23.55 28.75 23.49 28.84
							 23.49 28.93 C23.49 28.97 23.5 29.01 23.52 29.04 C23.6 29.3 23.46 29.58 22.73 29.74 C21.64 29.98 20.96
							 31.1 20.56 31.47 C20.1 31.91 18.8 32.17 19 31.91 C19.15 31.71 19.74 31.07 20.09 30.39 C20.41 29.77 20.7
							 29.6 21.09 29.01 C21.2 28.84 21.64 28.24 21.77 27.76 C21.92 27.3 21.87 26.71 21.93 26.47 C22.01 26.12
							 22.33 25.37 22.36 24.95 C22.37 24.7 21.35 25.29 20.87 25.29 C20.39 25.29 19.92 25 19.48 24.98 C18.95
							 24.95 18.61 25.39 18.12 25.31 C17.85 25.27 17.61 25.03 17.13 25.01 C16.44 24.98 15.6 25.39 14.03 25.34
							 C12.48 25.29 11.04 23.38 10.85 23.08 C10.62 22.72 10.34 22.72 10.04 23 C9.73 23.28 9.35 23.06 9.25 22.87
							 C9.04 22.52 8.5 21.48 7.66 21.26 C6.49 20.96 5.9 21.9 5.98 22.66 C6.06 23.42 6.55 23.64 6.78 24.04 C7.01
							 24.45 7.13 24.71 7.56 24.89 C7.86 25.02 7.98 25.21 7.88 25.46 C7.81 25.68 7.49 25.73 7.28 25.74 C6.83
							 25.76 6.52 25.64 6.3 25.49 C6.03 25.32 5.82 25.09 5.59 24.69 C5.32 24.26 4.9 24.06 4.41 24.06 C4.18
							 24.06 3.96 24.13 3.77 24.23 C3 24.62 2.09 24.86 1.11 24.86 L0 24.86 C2.12 31.16 8.08 35.7 15.1 35.7
							 C20.7 35.7 25.63 32.8 28.47 28.43 Z" class="st1"/>
			</g>
			<g id="shape327-4" v:mID="327" v:groupContext="shape" transform="translate(31.5687,-7.76234)">
				<title>Sheet.327</title>
				<path d="M0.12 35.24 L0.12 34.98 L0.29 34.98 C0.38 34.98 0.47 35 0.47 35.1 C0.47 35.23 0.38 35.24 0.27 35.24 L0.12
							 35.24 ZM0.12 35.34 L0.27 35.34 L0.48 35.7 L0.62 35.7 L0.39 35.33 C0.51 35.32 0.6 35.26 0.6 35.11 C0.6
							 34.95 0.51 34.88 0.31 34.88 L0 34.88 L0 35.7 L0.12 35.7 L0.12 35.34 Z" class="st2"/>
			</g>
			<g id="shape328-6" v:mID="328" v:groupContext="shape" transform="translate(31.034,-7.36742)">
				<title>Sheet.328</title>
				<path d="M0.81 34.09 C0.36 34.09 0 34.45 0 34.89 C0 35.34 0.36 35.7 0.81 35.7 C1.25 35.7 1.61 35.34 1.61 34.89 C1.61
							 34.45 1.25 34.09 0.81 34.09 ZM0.81 34.23 C1.17 34.23 1.47 34.53 1.47 34.89 C1.47 35.26 1.17 35.55 0.81
							 35.55 C0.44 35.55 0.14 35.26 0.14 34.89 C0.14 34.53 0.44 34.23 0.81 34.23 Z" class="st2"/>
			</g>
			<g id="shape329-8" v:mID="329" v:groupContext="shape" transform="translate(-5.9952E-15,-3.52036)">
				<title>Sheet.329</title>
				<path d="M15.93 7.37 C7.13 7.37 0 14.5 0 23.29 C0 25.07 0.29 26.79 0.83 28.38 L1.94 28.38 C2.92 28.38 3.83 28.15
							 4.6 27.75 C4.79 27.65 5.01 27.59 5.24 27.59 C5.73 27.59 6.15 27.78 6.42 28.22 C6.65 28.61 6.86 28.85
							 7.13 29.01 C7.35 29.16 7.67 29.28 8.11 29.26 C8.32 29.25 8.64 29.2 8.72 28.98 C8.81 28.73 8.69 28.54
							 8.39 28.41 C7.96 28.23 7.84 27.97 7.61 27.56 C7.38 27.16 6.89 26.94 6.81 26.18 C6.73 25.43 7.32 24.48
							 8.49 24.78 C9.33 25 9.87 26.04 10.08 26.4 C10.19 26.58 10.56 26.8 10.87 26.52 C11.17 26.24 11.45 26.24
							 11.68 26.6 C11.88 26.9 13.31 28.81 14.86 28.86 C16.44 28.91 17.28 28.51 17.96 28.53 C18.45 28.55 18.68
							 28.79 18.95 28.84 C19.44 28.91 19.78 28.48 20.32 28.5 C20.75 28.52 21.22 28.81 21.7 28.81 C22.18 28.81
							 23.2 28.23 23.19 28.47 C23.16 28.89 22.84 29.65 22.76 29.99 C22.7 30.23 22.75 30.82 22.6 31.28 C22.48
							 31.76 22.03 32.37 21.92 32.54 C21.53 33.12 21.24 33.3 20.93 33.91 C20.57 34.6 19.98 35.23 19.83 35.44
							 C19.64 35.7 20.94 35.43 21.4 34.99 C21.79 34.62 22.47 33.5 23.56 33.26 C24.29 33.1 24.44 32.82 24.35
							 32.56 C24.33 32.53 24.32 32.49 24.32 32.46 C24.32 32.36 24.38 32.27 24.47 32.23 C25.22 31.92 26.25 31.72
							 27.37 31.72 C28.03 31.72 28.68 31.81 29.3 31.95 C30.91 29.46 31.85 26.48 31.85 23.29 C31.85 14.5 24.72
							 7.37 15.93 7.37 Z" class="st2"/>
			</g>
			<g id="shape330-10" v:mID="330" v:groupContext="shape" transform="translate(39.8827,-7.26643)">
				<title>Sheet.330</title>
				<path d="M26.06 19.56 L26.06 25.71 L26.01 25.71 C25.53 24.91 24.45 24.29 22.96 24.29 C20.33 24.29 18.05 26.46 18.06
							 30.12 C18.06 33.47 20.13 35.69 22.73 35.69 C24.31 35.69 25.63 34.94 26.28 33.72 L26.33 33.72 L26.45
							 35.45 L28.91 35.45 C28.86 34.71 28.82 33.5 28.82 32.39 L28.82 20.33 L26.06 19.56 ZM31.3 21.05 L31.3
							 35.45 L32.38 35.45 L32.38 28.77 C32.38 28.33 32.41 28.02 32.52 27.69 C32.99 26.34 34.27 25.22 35.82
							 25.22 C38.05 25.22 38.83 27.01 38.83 28.98 L38.83 35.45 L39.9 35.45 L39.9 28.86 C39.9 24.79 37.15 24.28
							 36.11 24.28 C35.28 24.28 34.54 24.52 33.91 24.9 C33.26 25.28 32.74 25.87 32.42 26.48 L32.38 26.48 L32.38
							 21.37 L31.3 21.05 ZM53.9 22.12 L52.82 22.52 L52.82 24.53 L50.98 24.53 L50.98 25.4 L52.82 25.4 L52.82
							 32.31 C52.82 33.42 52.99 34.34 53.48 34.91 C53.91 35.44 54.57 35.69 55.37 35.69 C56.03 35.69 56.52 35.57
							 56.87 35.42 L56.74 34.59 C56.47 34.69 56.07 34.76 55.5 34.76 C54.33 34.76 53.9 33.89 53.9 32.5 L53.9
							 25.4 L57.01 25.4 L57.01 24.53 L53.9 24.53 L53.9 22.12 ZM12.23 24.27 C8.72 24.27 6.89 27.12 6.89 30.13
							 C6.89 33.47 8.97 35.66 12.51 35.66 C14.09 35.66 15.39 35.37 16.32 34.97 L15.92 33.07 C15.08 33.38 14.17
							 33.58 12.9 33.58 C11.14 33.58 9.61 32.71 9.54 30.73 L16.83 30.76 C16.89 30.5 16.93 30.09 16.93 29.58
							 C16.93 27.19 15.78 24.27 12.23 24.27 ZM45.85 24.28 C44.86 24.28 43.64 24.55 42.64 25.22 L42.98 26.01
							 C43.78 25.45 44.77 25.19 45.72 25.19 C48.31 25.18 48.52 27.33 48.52 28.41 L48.52 28.7 C44.08 28.66 41.85
							 30.17 41.85 32.7 C41.85 34.15 42.88 35.7 45.07 35.7 C46.81 35.7 48.02 34.72 48.55 33.88 L48.6 33.88
							 L48.76 35.45 L49.76 35.45 C49.63 34.61 49.6 33.72 49.6 32.85 L49.6 28.59 C49.6 26.64 48.99 24.28 45.85
							 24.28 ZM5.56 24.29 C4.38 24.29 3.11 25.07 2.57 26.61 L2.49 26.61 L2.39 24.54 L0 24.54 C0.06 25.51 0.09
							 26.58 0.09 28.04 L0.07 35.45 L2.83 35.45 L2.83 29.79 C2.83 29.49 2.85 29.2 2.9 28.96 C3.15 27.71 4.06
							 26.87 5.37 26.87 C5.7 26.87 5.94 26.9 6.2 26.95 L6.2 24.35 C5.98 24.3 5.83 24.29 5.56 24.29 ZM12.06
							 26.15 C13.91 26.15 14.34 27.8 14.33 28.81 L9.53 28.81 C9.65 27.69 10.36 26.15 12.06 26.15 ZM23.62 26.43
							 C24.86 26.43 25.75 27.3 26 28.36 C26.05 28.59 26.06 28.86 26.06 29.08 L26.06 30.72 C26.06 31.01 26.04
							 31.28 25.98 31.52 C25.7 32.72 24.72 33.49 23.59 33.49 C21.86 33.49 20.86 32.02 20.86 30.02 C20.86 27.99
							 21.85 26.43 23.62 26.43 ZM47.6 29.61 C47.91 29.6 48.22 29.6 48.52 29.61 L48.52 31.96 C48.52 32.14 48.49
							 32.38 48.4 32.61 C48.03 33.67 46.99 34.8 45.18 34.8 C44.04 34.8 43 34.09 43 32.53 C43 30.23 45.41 29.67
							 47.6 29.61 ZM58.52 34.01 C58.08 34.01 57.72 34.37 57.72 34.81 C57.72 35.26 58.08 35.62 58.52 35.62 C58.97
							 35.62 59.33 35.26 59.33 34.81 C59.33 34.37 58.97 34.01 58.52 34.01 ZM58.52 34.15 C58.89 34.15 59.19
							 34.45 59.19 34.81 C59.19 35.18 58.89 35.47 58.52 35.47 C58.16 35.47 57.86 35.18 57.86 34.81 C57.86 34.45
							 58.16 34.15 58.52 34.15 ZM58.25 34.4 L58.25 35.22 L58.38 35.22 L58.38 34.87 L58.52 34.87 L58.74 35.22
							 L58.87 35.22 L58.64 34.86 C58.77 34.84 58.86 34.78 58.86 34.63 C58.86 34.47 58.76 34.4 58.57 34.4 L58.25
							 34.4 ZM58.38 34.51 L58.54 34.51 C58.63 34.51 58.73 34.53 58.73 34.63 C58.73 34.75 58.63 34.76 58.53
							 34.76 L58.38 34.76 L58.38 34.51 Z" class="st2"/>
			</g>
			<g id="shape331-12" v:mID="331" v:groupContext="shape" transform="translate(16.6006,-7.19555)">
				<title>Sheet.331</title>
				<path d="M2.83 34.16 C2.91 34.24 3.06 34.51 2.88 34.85 C2.79 35.03 2.68 35.16 2.5 35.31 C2.27 35.49 1.83 35.7 1.23
							 35.32 C0.91 35.11 0.89 35.04 0.45 35.1 C0.13 35.14 0 34.82 0.11 34.55 C0.23 34.29 0.7 34.07 1.28 34.41
							 C1.55 34.57 1.96 34.89 2.32 34.61 C2.47 34.49 2.56 34.41 2.76 34.17 C2.77 34.16 2.78 34.15 2.8 34.15
							 C2.81 34.15 2.82 34.16 2.83 34.16 Z" class="st2"/>
			</g>
			<g id="shape332-14" v:mID="332" v:groupContext="shape" transform="translate(2.64828,-10.6356)">
				<title>Sheet.332</title>
				<path d="M15.67 17.77 C15.31 17.78 14.94 17.83 14.58 17.92 C14.05 18.06 13.02 18.6 11.1 18.17 C7.78 17.42 7.29 19.08
							 7.1 19.8 C6.91 20.53 6.45 22.59 6.45 22.59 C6.3 23.43 6.1 24.88 11.25 25.86 C13.65 26.32 13.77 26.94
							 13.88 27.39 C14.07 28.19 14.38 28.65 14.72 28.88 C15.06 29.1 14.72 29.29 14.34 29.33 C13.32 29.44 9.54
							 28.35 7.3 27.08 C5.47 25.97 5.44 24.96 5.86 24.11 C3.1 23.81 1.02 24.36 0.65 25.67 C0 27.92 5.58 31.75
							 11.94 33.68 C18.61 35.7 25.47 34.29 26.23 30.09 C26.58 28.19 24.97 26.78 22.27 26.17 C22.11 26.7 21.88
							 27.38 20.89 27.89 C20.74 27.96 20.69 27.84 20.76 27.73 C21.13 27.09 21.2 26.93 21.31 26.67 C21.46 26.3
							 21.54 25.78 21.24 24.68 C20.64 22.53 19.39 19.65 18.48 18.71 C17.82 18.04 16.77 17.72 15.67 17.77 ZM15.97
							 18.5 C16 18.5 16.03 18.5 16.06 18.5 C17.08 18.53 17.9 18.93 17.89 19.41 C17.88 19.89 17.04 20.26 16.02
							 20.23 C15.69 20.23 15.38 20.18 15.11 20.1 C15.08 20.09 15.06 20.07 15.06 20.03 C15.06 20 15.08 19.97
							 15.11 19.97 C15.75 19.82 16.18 19.58 16.15 19.35 C16.11 19.05 15.28 18.88 14.29 18.98 C14.18 19 14.07
							 19.01 13.97 19.03 C13.97 19.03 13.97 19.03 13.96 19.03 C13.93 19.03 13.91 19 13.91 18.98 C13.91 18.96
							 13.92 18.94 13.94 18.93 C14.3 18.75 14.83 18.6 15.44 18.53 C15.62 18.51 15.8 18.5 15.97 18.5 ZM8.4 20.42
							 C8.56 20.42 8.72 20.5 8.79 20.59 C8.96 20.81 9.33 21.16 9.82 21.15 C10.3 21.14 10.86 21.04 11.63 21.04
							 C12.42 21.04 12.95 21.33 12.98 21.58 C13.01 21.8 12.92 22 12.04 22.06 C10.2 22.2 10.01 22.4 9.66 22.76
							 C9.18 23.28 8.54 22.09 8.54 22.09 C8.15 22.01 7.69 21.39 7.94 20.81 C8.06 20.53 8.24 20.43 8.4 20.42
							 Z" class="st3"/>
			</g>
		</g>
	</g>
</svg>
