<?xml version="1.0" encoding="UTF-8" standalone="no"?>
<!DOCTYPE svg PUBLIC "-//W3C//DTD SVG 1.1//EN" "http://www.w3.org/Graphics/SVG/1.1/DTD/svg11.dtd">
<!-- Generated by Microsoft Visio, SVG Export CentOSLogo.svg Page-1 -->
<svg xmlns="http://www.w3.org/2000/svg" xmlns:xlink="http://www.w3.org/1999/xlink" xmlns:ev="http://www.w3.org/2001/xml-events"
		xmlns:v="http://schemas.microsoft.com/visio/2003/SVGExtensions/" width="0.292353in" height="0.290962in"
		viewBox="0 0 21.0494 20.9493" xml:space="preserve" color-interpolation-filters="sRGB" class="st9">
	<v:documentProperties v:langID="1033" v:viewMarkup="false"/>

	<style type="text/css">
	<![CDATA[
		.st1 {fill:#b4bec1;stroke:#ffffff;stroke-linecap:butt;stroke-width:1.50116}
		.st2 {fill:#394d54;stroke:#ffffff;stroke-linecap:butt;stroke-width:1.50116}
		.st3 {fill:#fce94f;stroke:none;stroke-linecap:butt;stroke-width:0.75}
		.st4 {fill:#b4bec1;stroke:none;stroke-linecap:butt;stroke-width:0.75}
		.st5 {fill:#4f6a74;stroke:#ffffff;stroke-linecap:butt;stroke-width:1.50116}
		.st6 {fill:#4f6a74;stroke:none;stroke-linecap:butt;stroke-width:0.75}
		.st7 {fill:#8a9aa0;stroke:#ffffff;stroke-linecap:butt;stroke-width:1.50116}
		.st8 {fill:none;stroke:#ffffff;stroke-linecap:butt;stroke-width:1.50116}
		.st9 {fill:none;fill-rule:evenodd;font-size:12px;overflow:visible;stroke-linecap:square;stroke-miterlimit:3}
	]]>
	</style>

	<g v:mID="0" v:index="1" v:groupContext="foregroundPage">
		<title>Page-1</title>
		<v:pageProperties v:drawingScale="1" v:pageScale="1" v:drawingUnits="19" v:shadowOffsetX="9" v:shadowOffsetY="-9"/>
		<g id="group388-1" transform="translate(1.50116,-1.50116)" v:mID="388" v:groupContext="group">
			<title>Sheet.388</title>
			<g id="shape373-2" v:mID="373" v:groupContext="shape" transform="translate(-1.70276,21.8706) rotate(-134.825)">
				<title>rect4182</title>
				<path d="M0.04 20.95 L5.78 20.95 L5.75 15.2 L0 15.2 L0.04 20.95 Z" class="st1"/>
			</g>
			<g id="shape374-4" v:mID="374" v:groupContext="shape" transform="translate(3.21334,26.7878) rotate(-134.825)">
				<title>rect4186</title>
				<path d="M0.04 20.95 L5.78 20.95 L5.75 15.2 L0 15.2 L0.04 20.95 Z" class="st2"/>
			</g>
			<g id="shape375-6" v:mID="375" v:groupContext="shape" transform="translate(2.71615,-9.83959)">
				<title>rect4188</title>
				<rect x="0" y="15.4437" width="5.53095" height="5.50557" class="st3"/>
			</g>
			<g id="shape376-8" v:mID="376" v:groupContext="shape" transform="translate(9.88629,-2.63345)">
				<title>rect4190</title>
				<rect x="0" y="15.4181" width="5.49057" height="5.53121" class="st4"/>
			</g>
			<g id="shape377-10" v:mID="377" v:groupContext="shape" transform="translate(18.8746,22.7971) rotate(135.438)">
				<title>rect4180</title>
				<path d="M0.09 20.95 L5.86 20.95 L5.77 15.18 L0 15.18 L0.09 20.95 Z" class="st5"/>
			</g>
			<g id="shape378-12" v:mID="378" v:groupContext="shape" transform="translate(9.90843,-9.80359)">
				<title>rect4192</title>
				<rect x="0" y="15.4459" width="5.50908" height="5.50334" class="st6"/>
			</g>
			<g id="shape379-14" v:mID="379" v:groupContext="shape" transform="translate(23.7908,27.7144) rotate(135.438)">
				<title>rect4184</title>
				<path d="M0.09 20.95 L5.86 20.95 L5.77 15.18 L0 15.18 L0.09 20.95 Z" class="st7"/>
			</g>
			<g id="shape380-16" v:mID="380" v:groupContext="shape" transform="translate(2.51129,-9.83715)">
				<title>rect4168</title>
				<rect x="0" y="15.2468" width="5.73583" height="5.70247" class="st7"/>
			</g>
			<g id="shape381-18" v:mID="381" v:groupContext="shape" transform="translate(9.88629,-2.42859)">
				<title>rect4170</title>
				<rect x="0" y="15.2132" width="5.70067" height="5.73607" class="st8"/>
			</g>
			<g id="shape382-20" v:mID="382" v:groupContext="shape" transform="translate(9.90695,-9.80362)">
				<title>rect4172</title>
				<rect x="0" y="15.2468" width="5.71541" height="5.70247" class="st8"/>
			</g>
			<g id="shape383-22" v:mID="383" v:groupContext="shape" transform="translate(2.51176,-2.42887)">
				<title>rect4174</title>
				<rect x="0" y="15.2137" width="5.7356" height="5.73559" class="st2"/>
			</g>
			<g id="shape384-24" v:mID="384" v:groupContext="shape" transform="translate(18.8746,22.7971) rotate(135.438)">
				<title>rect4208</title>
				<path d="M0.09 20.95 L5.86 20.95 L5.77 15.18 L0 15.18 L0.09 20.95 Z" class="st8"/>
			</g>
			<g id="shape385-26" v:mID="385" v:groupContext="shape" transform="translate(-1.70283,21.8705) rotate(-134.825)">
				<title>rect4210</title>
				<path d="M0.04 20.95 L5.78 20.95 L5.75 15.2 L0 15.2 L0.04 20.95 Z" class="st8"/>
			</g>
			<g id="shape386-28" v:mID="386" v:groupContext="shape" transform="translate(23.7908,27.7144) rotate(135.438)">
				<title>rect4212</title>
				<path d="M0.09 20.95 L5.86 20.95 L5.77 15.18 L0 15.18 L0.09 20.95 Z" class="st8"/>
			</g>
			<g id="shape387-30" v:mID="387" v:groupContext="shape" transform="translate(3.21331,26.7878) rotate(-134.825)">
				<title>rect4214</title>
				<path d="M0.04 20.95 L5.78 20.95 L5.75 15.2 L0 15.2 L0.04 20.95 Z" class="st8"/>
			</g>
		</g>
	</g>
</svg>
