<?xml version="1.0" encoding="UTF-8" standalone="no"?>
<!DOCTYPE svg PUBLIC "-//W3C//DTD SVG 1.1//EN" "http://www.w3.org/Graphics/SVG/1.1/DTD/svg11.dtd">
<!-- Generated by Microsoft Visio, SVG Export SingleContainer.svg Page-1 -->
<svg xmlns="http://www.w3.org/2000/svg" xmlns:xlink="http://www.w3.org/1999/xlink" xmlns:ev="http://www.w3.org/2001/xml-events"
		xmlns:v="http://schemas.microsoft.com/visio/2003/SVGExtensions/" width="0.524525in" height="0.542841in"
		viewBox="0 0 37.7658 39.0845" xml:space="preserve" color-interpolation-filters="sRGB" class="st4">
	<v:documentProperties v:langID="1033" v:viewMarkup="false"/>

	<style type="text/css">
	<![CDATA[
		.st1 {fill:#3999c6;stroke:#0070c0;stroke-linecap:butt;stroke-width:0.5}
		.st2 {fill:#b92025;fill-opacity:0.3;stroke:none;stroke-linecap:butt;stroke-width:12.2892}
		.st3 {fill:#0070c0;stroke:none;stroke-linecap:butt;stroke-width:12.2892}
		.st4 {fill:none;fill-rule:evenodd;font-size:12px;overflow:visible;stroke-linecap:square;stroke-miterlimit:3}
	]]>
	</style>

	<g v:mID="0" v:index="1" v:groupContext="foregroundPage">
		<title>Page-1</title>
		<v:pageProperties v:drawingScale="1" v:pageScale="1" v:drawingUnits="19" v:shadowOffsetX="9" v:shadowOffsetY="-9"/>
		<g id="group491-1" transform="translate(10.311,-10.311)" v:mID="491" v:groupContext="group">
			<title>Sheet.491</title>
			<g id="shape414-2" v:mID="414" v:groupContext="shape">
				<title>Sheet.414</title>
				<path d="M0.66 20.62 a0.659374 0.659374 -180 0 0 -0.659374 0.659374 L0 38.43 a0.659374 0.659374 -180 0 0 0.659374
							 0.659374 L16.48 39.08 a0.659374 0.659374 -180 0 0 0.659374 -0.659374 L17.14 21.28 a0.659374 0.659374
							 -180 0 0 -0.659374 -0.659374 L0.66 20.62 Z" class="st1"/>
			</g>
			<g id="shape415-4" v:mID="415" v:groupContext="shape" transform="translate(9.85764,-22.4187)">
				<title>Sheet.415</title>
			</g>
			<g id="shape416-5" v:mID="416" v:groupContext="shape" transform="translate(15.1326,-19.7812)">
				<title>Sheet.416</title>
			</g>
			<g id="shape418-6" v:mID="418" v:groupContext="shape" transform="translate(9.85764,-22.4187)">
				<title>Sheet.418</title>
			</g>
			<g id="shape419-7" v:mID="419" v:groupContext="shape" transform="translate(1.97812,-1.97812)">
				<title>Sheet.419</title>
				<path d="M11.87 24.58 L0 24.58 L0 39.08 L13.19 39.08 L13.19 24.58 L11.87 24.58 ZM3.96 37.77 L1.32 37.77 L1.32 25.9
							 L3.96 25.9 L3.96 37.77 ZM7.91 37.77 L5.27 37.77 L5.27 25.9 L7.91 25.9 L7.91 37.77 ZM11.87 37.77 L9.23
							 37.77 L9.23 25.9 L11.87 25.9 L11.87 37.77 Z" class="st2"/>
			</g>
			<g id="shape420-9" v:mID="420" v:groupContext="shape" transform="translate(1.97812,-1.97812)">
				<title>Sheet.420</title>
				<path d="M11.87 24.58 L0 24.58 L0 39.08 L13.19 39.08 L13.19 24.58 L11.87 24.58 ZM3.96 37.77 L1.32 37.77 L1.32 25.9
							 L3.96 25.9 L3.96 37.77 ZM7.91 37.77 L5.27 37.77 L5.27 25.9 L7.91 25.9 L7.91 37.77 ZM11.87 37.77 L9.23
							 37.77 L9.23 25.9 L11.87 25.9 L11.87 37.77 Z" class="st3"/>
			</g>
		</g>
	</g>
</svg>
