<?xml version="1.0" encoding="UTF-8" standalone="no"?>
<!DOCTYPE svg PUBLIC "-//W3C//DTD SVG 1.1//EN" "http://www.w3.org/Graphics/SVG/1.1/DTD/svg11.dtd">
<!-- Generated by Microsoft Visio, SVG Export ServiceHealthAlert.svg Page-1 -->
<svg xmlns="http://www.w3.org/2000/svg" xmlns:xlink="http://www.w3.org/1999/xlink" xmlns:ev="http://www.w3.org/2001/xml-events"
		xmlns:v="http://schemas.microsoft.com/visio/2003/SVGExtensions/" width="0.682292in" height="0.682292in"
		viewBox="0 0 49.125 49.125" xml:space="preserve" color-interpolation-filters="sRGB" class="st3">
	<v:documentProperties v:langID="1033" v:viewMarkup="false"/>

	<style type="text/css">
	<![CDATA[
		.st1 {fill:#ffffff;stroke:none;stroke-linecap:round;stroke-linejoin:round;stroke-width:0.75}
		.st2 {fill:#59b4d9;stroke:none;stroke-linecap:round;stroke-linejoin:round;stroke-width:0.75}
		.st3 {fill:none;fill-rule:evenodd;font-size:12px;overflow:visible;stroke-linecap:square;stroke-miterlimit:3}
	]]>
	</style>

	<g v:mID="0" v:index="1" v:groupContext="foregroundPage">
		<title>Page-1</title>
		<v:pageProperties v:drawingScale="1" v:pageScale="1" v:drawingUnits="19" v:shadowOffsetX="9" v:shadowOffsetY="-9"/>
		<g id="group532-1" transform="translate(0.375,-0.375)" v:mID="532" v:groupContext="group">
			<title>Sheet.532</title>
			<g id="shape531-2" v:mID="531" v:groupContext="shape">
				<title>Sheet.531</title>
				<rect x="0" y="0.749999" width="48.375" height="48.375" class="st1"/>
			</g>
			<g id="shape529-4" v:mID="529" v:groupContext="shape" transform="translate(14.2247,-15.0937)">
				<title>Azure Service Health</title>
				<path d="M19.11 32.83 C17.05 30.6 12.82 31.53 10.35 35.03 C7.25 31.32 3.54 30.6 1.45 32.83 C-0.72 35.14 -0.14 37.85
							 1.14 40.09 L3.34 40.05 L5.43 39.95 L7.01 35.76 L7.01 35.76 C7.12 35.48 7.29 35.03 7.94 35.03 C8.63 35.03
							 8.66 35.55 8.66 35.79 L8.7 42.8 L9.83 40.43 L9.83 40.43 C9.9 40.22 10.11 40.09 10.35 40.09 L17.05 40.09
							 C17.32 40.09 17.6 40.4 17.6 40.7 C17.6 40.98 17.32 41.43 17.05 41.43 L11.03 41.43 L8.87 45.72 L8.87
							 45.72 C8.73 46.13 8.53 46.27 8.04 46.24 C7.8 46.2 7.6 45.79 7.6 45.55 L7.49 39.09 L6.84 40.88 L6.84
							 40.88 C6.81 41.08 6.6 41.43 6.39 41.46 L4.4 41.46 L1.75 41.46 L1.75 41.46 C4.37 45.28 8.87 48.51 10.17
							 49.06 L10.17 49.12 L10.17 49.12 L10.17 49.12 L10.17 49.06 L10.17 49.06 C12.75 48.13 24.88 39.09 19.11
							 32.83 Z" class="st2"/>
			</g>
		</g>
	</g>
</svg>
