<?xml version="1.0" encoding="UTF-8" standalone="no"?>
<!DOCTYPE svg PUBLIC "-//W3C//DTD SVG 1.1//EN" "http://www.w3.org/Graphics/SVG/1.1/DTD/svg11.dtd">
<!-- Generated by Microsoft Visio, SVG Export Tux.svg Page-1 -->
<svg xmlns="http://www.w3.org/2000/svg" xmlns:xlink="http://www.w3.org/1999/xlink" xmlns:ev="http://www.w3.org/2001/xml-events"
		xmlns:v="http://schemas.microsoft.com/visio/2003/SVGExtensions/" width="0.27594in" height="0.325519in"
		viewBox="0 0 19.8677 23.4374" xml:space="preserve" color-interpolation-filters="sRGB" class="st21">
	<v:documentProperties v:langID="1033" v:viewMarkup="false"/>

	<style type="text/css">
	<![CDATA[
		.st1 {fill:#ffffff}
		.st2 {fill:#cccccc;stroke:none;stroke-linecap:butt;stroke-width:0.75}
		.st3 {fill:#000000;stroke:none;stroke-linecap:butt;stroke-width:0.75}
		.st4 {fill:#000000;fill-opacity:0.35;stroke:none;stroke-linecap:butt;stroke-width:0.75}
		.st5 {fill:#f2ba0a;stroke:none;stroke-linecap:butt;stroke-width:0.75}
		.st6 {fill:none}
		.st7 {stroke:#ffffff;stroke-linecap:butt;stroke-width:0.375}
		.st8 {fill:#ffffff;fill-opacity:0.57;stroke:#000000;stroke-linecap:butt;stroke-opacity:0.57;stroke-width:0.75}
		.st9 {fill:url(#grad1-43);stroke:none;stroke-linecap:butt;stroke-width:0.75}
		.st10 {stroke:#000000;stroke-linecap:round;stroke-linejoin:round;stroke-opacity:0.78;stroke-width:0.75}
		.st11 {fill:url(#grad6-50);stroke:none;stroke-linecap:butt;stroke-width:0.75}
		.st12 {stroke:url(#grad7-55);stroke-linecap:butt;stroke-width:1.5}
		.st13 {fill:url(#grad6-59)}
		.st14 {fill:url(#grad1-66)}
		.st15 {stroke:url(#grad2-72);stroke-linecap:butt;stroke-width:1.2}
		.st16 {fill:#8b8b8b;stroke:none;stroke-linecap:butt;stroke-width:0.75}
		.st17 {stroke:url(#grad1-83);stroke-linecap:butt;stroke-width:1.2}
		.st18 {fill:url(#grad1-87);stroke:none;stroke-linecap:butt;stroke-width:0.75}
		.st19 {fill:#ffffff;fill-opacity:0.43;stroke:none;stroke-linecap:butt;stroke-width:0.75}
		.st20 {fill:#000000;fill-opacity:0.15;stroke:none;stroke-linecap:butt;stroke-width:0.75}
		.st21 {fill:none;fill-rule:evenodd;font-size:12px;overflow:visible;stroke-linecap:square;stroke-miterlimit:3}
	]]>
	</style>

	<defs id="Patterns_And_Gradients">
		<radialGradient id="grad1-43" cx="1" cy="1" r="1.4">
			<stop offset="0" stop-color="#ffffff" stop-opacity="1"/>
			<stop offset="1" stop-color="#ffd035" stop-opacity="1"/>
		</radialGradient>
		<radialGradient id="grad6-50" cx="1" cy="0" r="1.4">
			<stop offset="0" stop-color="#ffffff" stop-opacity="1"/>
			<stop offset="1" stop-color="#ffffff" stop-opacity="1"/>
		</radialGradient>
		<radialGradient id="grad7-55" cx="0" cy="0" r="1.4">
			<stop offset="0" stop-color="#ebebeb" stop-opacity="1"/>
			<stop offset="1" stop-color="#ebebeb" stop-opacity="1"/>
		</radialGradient>
		<radialGradient id="grad6-59" cx="1" cy="0" r="1.4">
			<stop offset="0" stop-color="#b3b3b3" stop-opacity="1"/>
			<stop offset="1" stop-color="#b3b3b3" stop-opacity="1"/>
		</radialGradient>
		<radialGradient id="grad1-66" cx="1" cy="1" r="1.4">
			<stop offset="0" stop-color="#b3b3b3" stop-opacity="1"/>
			<stop offset="1" stop-color="#b3b3b3" stop-opacity="1"/>
		</radialGradient>
		<radialGradient id="grad2-72" cx="0" cy="1" r="1.4">
			<stop offset="0" stop-color="#ebebeb" stop-opacity="1"/>
			<stop offset="1" stop-color="#ebebeb" stop-opacity="1"/>
		</radialGradient>
		<radialGradient id="grad1-83" cx="1" cy="1" r="1.4">
			<stop offset="0" stop-color="#ebebeb" stop-opacity="1"/>
			<stop offset="1" stop-color="#ebebeb" stop-opacity="1"/>
		</radialGradient>
		<radialGradient id="grad1-87" cx="1" cy="1" r="1.4">
			<stop offset="0" stop-color="#ffffff" stop-opacity="1"/>
			<stop offset="1" stop-color="#ffffff" stop-opacity="1"/>
		</radialGradient>
	</defs>
	<g v:mID="0" v:index="1" v:groupContext="foregroundPage">
		<title>Page-1</title>
		<v:pageProperties v:drawingScale="1" v:pageScale="1" v:drawingUnits="19" v:shadowOffsetX="9" v:shadowOffsetY="-9"/>
		<g id="group416-1" transform="translate(0.75,-0.680347)" v:mID="416" v:groupContext="group">
			<title>Sheet.416</title>
			<g id="shape417-2" v:mID="417" v:groupContext="shape" transform="translate(3.96244,-2.01333)">
				<title>path2389</title>
				<path d="M5.1 9.22 C4.28 9.28 3.33 9.48 2.81 10.17 C2.58 10.66 2.77 11.25 2.41 11.7 C2.01 12.35 1.67 13.03 1.53 13.78
							 C1.1 15.06 0.21 16.19 0.2 17.59 C0 19.18 0.8 20.69 1.69 21.94 C2.2 22.64 2.9 23.32 3.83 23.34 C4.91
							 23.44 6.04 23.3 6.94 22.67 C8.51 21.79 9.47 20.05 9.58 18.27 C9.71 16.65 9.49 14.91 8.47 13.59 C8.14
							 12.92 8.05 12.15 7.68 11.5 C7.3 10.86 7.39 9.92 6.65 9.54 C6.18 9.28 5.63 9.21 5.1 9.22 Z" class="st1"/>
			</g>
			<g id="shape418-5" v:mID="418" v:groupContext="shape" transform="translate(5.59161,-11.6672)">
				<title>path30079</title>
				<path d="M0.28 22.51 C0.55 22.79 1.08 22.88 1.48 23.03 C1.24 23.19 0.99 23.13 0.72 23.16 C0.51 23.3 0.32 23.44 0.09
							 23.29 C0 23.19 0.16 23.05 0.2 22.98 C0.26 22.86 0.25 22.73 0.25 22.64 C0.25 22.59 0.27 22.55 0.28 22.51
							 Z" class="st2"/>
			</g>
			<g id="shape419-7" v:mID="419" v:groupContext="shape" transform="translate(2.43265,-3.40556)">
				<title>path4393</title>
				<path d="M6.31 4.84 C5.29 4.92 4.41 5.46 3.97 6.39 C3.62 7.15 3.58 7.66 3.69 10.01 C3.74 11.15 3.76 12.15 3.72 12.25
							 C3.63 12.54 3.24 13.13 2.54 13.98 C1.74 14.97 1.61 15.22 1.37 16.03 C1.11 16.92 0.87 17.48 0.44 18.23
							 C0.14 18.76 0.06 18.96 0.03 19.34 C0 19.67 0.02 19.84 0.09 19.94 C0.58 20.52 0.73 21.07 1.5 21.87 C2.32
							 22.6 3.64 23.44 4.16 23.24 C4.59 23.08 4.67 22.59 4.35 22.17 C4.26 22.07 3.73 21.61 3.15 21.15 C2.58
							 20.68 2.04 20.24 1.97 20.15 C1.84 20.01 1.83 19.91 1.86 19.16 C1.91 18.14 2.1 17.54 2.76 16.26 C3.09
							 15.62 3.24 15.25 3.28 14.96 C3.33 14.51 3.58 13.95 4.04 13.19 C4.32 12.74 4.29 12.65 4.38 12.06 C4.56
							 10.92 7.3 11.07 8.25 11.3 C8.41 11.33 8.51 11.56 8.52 11.79 C8.57 11.9 8.8 12.37 9.03 12.84 C9.25 13.32
							 9.51 13.97 9.59 14.3 C9.69 14.74 9.8 14.98 9.98 15.21 C10.32 15.63 10.59 16.17 10.78 16.83 C10.87 17.16
							 11.04 17.71 11.02 18.55 C10.99 19.66 10.92 19.63 10.92 19.84 C10.93 20.27 10.63 20.37 10.61 20.87 C10.59
							 21.38 11.47 21.66 12.32 21.5 C13.18 21.33 13.63 20.96 13.81 20.66 C13.99 20.34 14.11 19.34 14.07 18.63
							 C14.02 17.82 13.84 17.12 13.42 16.05 C13.08 15.18 12.92 14.93 12.17 14.07 C11.63 13.43 10.78 11.99 10.52
							 11.23 C10.37 10.81 10.32 10.47 10.26 9.4 C10.17 7.76 10.1 7.4 9.77 6.73 C9.43 6.03 8.99 5.6 8.24 5.24
							 C7.59 4.93 6.92 4.8 6.31 4.84 Z" class="st3"/>
			</g>
			<g id="shape420-9" v:mID="420" v:groupContext="shape" transform="translate(6.54448,-16.3564)">
				<title>path2427</title>
				<path d="M0.46 23.37 C0.63 23.44 0.89 23.27 0.99 23.15 C1.1 23.03 1.22 22.83 1.31 22.69 C1.44 22.45 1.51 22.17 1.44
							 21.91 C1.35 21.62 1 21.03 0.58 21.06 C0.16 21.09 0.07 21.71 0.04 21.99 C0 22.27 0.03 22.62 0.08 22.85
							 C0.13 23.08 0.28 23.3 0.46 23.37 Z" class="st1"/>
			</g>
			<g id="shape421-12" v:mID="421" v:groupContext="shape" transform="translate(6.82376,-16.4522)">
				<title>path4391</title>
				<path d="M0 22.49 C0 22.09 0.12 21.9 0.38 21.9 C0.61 21.9 0.82 22.13 0.88 22.48 C0.93 22.76 0.97 22.97 0.74 23.16
							 C0.29 23.44 0.04 22.86 0 22.49 Z" class="st3"/>
			</g>
			<g id="shape422-14" v:mID="422" v:groupContext="shape" transform="translate(8.94807,-16.4027)">
				<title>path2431</title>
				<path d="M0.67 23.27 C0.79 23.43 0.84 23.43 1.12 23.43 C1.52 23.44 1.88 23.29 2.06 22.83 C2.23 22.37 2.05 22.01 1.87
							 21.65 C1.72 21.31 1.48 21.06 1.1 21.04 C0.84 21.03 0.63 21.15 0.43 21.31 C0.17 21.53 0.06 21.81 0.02
							 22.12 C0 22.49 0.44 22.95 0.67 23.27 Z" class="st1"/>
			</g>
			<g id="shape423-17" v:mID="423" v:groupContext="shape" transform="translate(9.38809,-16.5246)">
				<title>path2163</title>
				<path d="M0.36 23.3 C0 23.05 0.01 22.55 0.18 22.19 C0.34 21.95 0.42 21.9 0.65 21.9 C1.14 21.89 1.39 22.71 1.02 23.11
							 C0.82 23.32 0.68 23.44 0.36 23.3 Z" class="st3"/>
			</g>
			<g id="shape424-19" v:mID="424" v:groupContext="shape" transform="translate(6.5059,-13.3139)">
				<title>use15293</title>
				<path d="M1.39 23.29 C1.31 23.25 1.2 23.18 1.08 23.08 C0.67 22.74 0.47 21.77 0.03 21.89 C0 21.83 0.01 21.75 0.04
							 21.65 C0.08 21.55 0.15 21.44 0.25 21.32 C0.35 21.2 0.48 21.07 0.63 20.94 C1.28 20.38 1.52 20.28 2.14
							 20.33 C2.42 20.35 2.68 20.4 2.74 20.45 C2.9 20.58 3.9 20.97 4.08 20.97 C4.17 20.97 4.31 21.05 4.4 21.15
							 C4.55 21.3 4.74 21.48 4.7 21.79 C4.64 22.19 4.41 21.81 4.26 21.85 C4.16 21.87 3.75 22.58 3.38 22.82
							 C3.01 23.07 2.61 23.3 2.47 23.34 C2.13 23.44 1.68 23.42 1.39 23.29 Z" class="st4"/>
			</g>
			<g id="shape425-21" v:mID="425" v:groupContext="shape" transform="translate(6.5059,-14.0516)">
				<title>path2165</title>
				<path d="M1.39 23.29 C1.31 23.25 1.2 23.18 1.08 23.08 C0.67 22.74 0.34 22.31 0.03 21.89 C0 21.83 0.01 21.75 0.04
							 21.65 C0.08 21.55 0.15 21.44 0.25 21.32 C0.35 21.2 0.48 21.07 0.63 20.94 C1.28 20.38 1.52 20.28 2.14
							 20.33 C2.42 20.35 2.68 20.4 2.74 20.45 C2.9 20.58 3.9 20.97 4.08 20.97 C4.17 20.97 4.31 21.05 4.4 21.15
							 C4.55 21.3 4.56 21.37 4.52 21.68 C4.46 22.09 4.38 22.28 4.23 22.32 C4.13 22.35 3.75 22.58 3.38 22.82
							 C3.01 23.07 2.61 23.3 2.47 23.34 C2.13 23.44 1.68 23.42 1.39 23.29 Z" class="st5"/>
			</g>
			<g id="shape426-23" v:mID="426" v:groupContext="shape" transform="translate(6.0074,-0.720844)">
				<title>path4395</title>
				<path d="M3.06 21.85 C1.64 21.98 1.36 21.74 0.88 21.52 C0.41 21.31 0.09 20.88 0 21.07 C0.37 21.56 0.62 22.41 0.62
							 23.44 C1.13 23.14 1.06 23.08 1.92 22.98 C2.79 22.89 4.82 22.98 6.35 23.18 C6 22 6.48 20.82 6.51 19.63
							 C5.45 21.19 4.49 21.72 3.06 21.85 Z" class="st3"/>
			</g>
			<g id="shape427-25" v:mID="427" v:groupContext="shape" transform="translate(11.4756,-0.516261)">
				<title>use10192</title>
				<path d="M0 21.86 C0.08 21.2 0.09 20.53 0.1 19.87 C0.11 18.95 0.01 18.58 0.26 18.44 C0.52 18.28 0.74 18.44 1.72 18.53
							 C2.7 18.61 2.55 18.61 4.18 18.39 C4.43 18.55 4.53 19.1 4.53 19.53 C4.53 19.84 4.68 19.5 4.82 20.25 C4.96
							 21.05 2.32 23.44 0 21.86 Z" class="st4"/>
			</g>
			<g id="shape428-27" v:mID="428" v:groupContext="shape" transform="translate(12.0044,0)">
				<title>path4404</title>
				<path d="M0.87 23.29 C0.46 23.14 0.11 22.68 0.08 22.42 C0.06 22.14 0 21.79 0.06 21.45 C0.11 21.11 0.13 20.97 0.21
							 20.31 C0.28 19.65 0.3 18.98 0.31 18.32 C0.31 17.41 0.22 17.03 0.47 16.89 C0.73 16.73 0.95 16.89 1.93
							 16.98 C2.91 17.06 2.76 17.06 4.39 16.84 C4.63 17 4.74 17.55 4.74 17.98 C4.74 18.29 4.78 18.4 5.03 18.7
							 C5.35 19.12 5.69 19.42 6.02 19.59 C6.31 19.73 6.36 19.81 6.36 20.11 C6.36 20.44 5.96 20.83 5.22 21.19
							 C4.4 21.58 3.76 22.01 3.16 22.57 C2.87 22.84 2.61 23.07 2.38 23.19 C2.16 23.3 1.28 23.44 0.87 23.29
							 Z" class="st5"/>
			</g>
			<g id="shape429-29" v:mID="429" v:groupContext="shape" transform="translate(12.873,-6.47832)">
				<title>path2300</title>
				<path d="M0 17.92 C1.05 18.14 1.76 19.48 1.9 20.26 C2.04 21.03 1.68 22.58 1.24 23.44 L0 17.92 Z" class="st6"/>
				<path d="M0 17.92 C1.05 18.14 1.76 19.48 1.9 20.26 C2.04 21.03 1.68 22.58 1.24 23.44" class="st7"/>
			</g>
			<g id="shape430-32" v:mID="430" v:groupContext="shape" transform="translate(13.2271,-4.45148)">
				<title>use8911</title>
				<path d="M2.82 22.22 C3.03 21.62 2.37 21.58 1.78 21.42 C1.21 21.27 0.5 21.26 0.31 21.51 C0.13 21.75 0.02 21.97 0.01
							 22.34 C0 22.71 0.17 22.87 0.43 23.1 C0.68 23.34 1.01 23.44 1.5 23.33 C2.08 23.14 2.61 22.8 2.82 22.22
							 Z" class="st4"/>
			</g>
			<g id="shape431-34" v:mID="431" v:groupContext="shape" transform="translate(13.3747,-5.04165)">
				<title>path2178</title>
				<path d="M2.82 22.22 C3.03 21.62 2.37 21.58 1.78 21.42 C1.21 21.27 0.5 21.26 0.31 21.51 C0.13 21.75 0.02 21.97 0.01
							 22.34 C0 22.71 0.17 22.87 0.43 23.1 C0.68 23.34 1.01 23.44 1.5 23.33 C2.08 23.14 2.61 22.8 2.82 22.22
							 Z" class="st3"/>
			</g>
			<g id="shape432-36" v:mID="432" v:groupContext="shape" transform="translate(0,-0.0640925)">
				<title>path4406</title>
				<path d="M4.87 23.29 C4.65 23.22 4.29 23.09 4.08 23.01 C3.87 22.92 3.26 22.74 2.72 22.6 C0 21.89 0 21.89 0 21.49
							 C0 21.37 0.09 21.02 0.19 20.71 C0.37 20.2 0.38 20.1 0.33 19.49 C0.24 18.4 0.24 18.28 0.38 18.05 C0.53
							 17.8 0.88 17.68 1.48 17.68 C1.97 17.68 2.14 17.58 2.41 17.09 C2.57 16.8 2.69 16.7 2.93 16.6 C3.34 16.44
							 3.56 16.53 4.07 17.08 C4.47 17.5 4.61 17.71 5.51 19.16 C5.77 19.58 5.88 19.69 6.08 20.01 C6.27 20.32
							 6.99 21.33 7.01 21.9 C7.03 22.47 6.7 22.84 6.47 23.05 C6.27 23.24 5.75 23.44 5.47 23.43 C5.36 23.43
							 5.09 23.37 4.87 23.29 Z" class="st5"/>
			</g>
			<g id="shape433-38" v:mID="433" v:groupContext="shape" transform="translate(13.2896,-9.89638)">
				<title>path5704</title>
				<path d="M0.31 23.03 C0.05 23.36 0.01 23.44 0.61 23.22 C0.76 23.22 0.8 23.02 0.77 22.88 C0.74 22.75 0.31 22.26 0.19
							 22.31 C0 22.4 0.58 22.87 0.31 23.03 Z" class="st8"/>
			</g>
			<g id="shape434-40" v:mID="434" v:groupContext="shape" transform="translate(6.5059,-14.0516)">
				<title>use20900</title>
				<path d="M1.39 23.29 C1.31 23.25 1.2 23.18 1.08 23.08 C0.67 22.74 0.34 22.31 0.03 21.89 C0 21.83 0.01 21.75 0.04
							 21.65 C0.08 21.55 0.15 21.44 0.25 21.32 C0.35 21.2 0.48 21.07 0.63 20.94 C1.28 20.38 1.52 20.28 2.14
							 20.33 C2.42 20.35 2.68 20.4 2.74 20.45 C2.9 20.58 3.9 20.97 4.08 20.97 C4.17 20.97 4.31 21.05 4.4 21.15
							 C4.55 21.3 4.56 21.37 4.52 21.68 C4.46 22.09 4.38 22.28 4.23 22.32 C4.13 22.35 3.75 22.58 3.38 22.82
							 C3.01 23.07 2.61 23.3 2.47 23.34 C2.13 23.44 1.68 23.42 1.39 23.29 Z" class="st9"/>
			</g>
			<g id="shape435-44" v:mID="435" v:groupContext="shape" transform="translate(6.58254,-14.7524)">
				<title>path17759</title>
				<path d="M0 22.57 C0.31 22.59 0.46 22.92 0.71 23.06 C1.17 23.37 1.78 23.44 2.28 23.19 C2.71 23.01 3.07 22.7 3.48
							 22.47 C3.65 22.36 3.83 22.25 4.02 22.18 C4.11 22.13 4.08 22.18 4.03 22.2 L0 22.57 Z" class="st6"/>
				<path d="M0 22.57 C0.31 22.59 0.46 22.92 0.71 23.06 C1.17 23.37 1.78 23.44 2.28 23.19 C2.71 23.01 3.07 22.7 3.48
							 22.47 C3.65 22.36 3.83 22.25 4.02 22.18 C4.11 22.13 4.08 22.18 4.03 22.2" class="st10"/>
			</g>
			<g id="shape436-47" v:mID="436" v:groupContext="shape" transform="translate(9.35057,-19.8201)">
				<title>path21885</title>
				<path d="M1.74 22.74 C1.72 22.74 1.72 22.74 1.74 22.74 C1.35 22.28 0.7 22.01 0.11 21.86 C0 22.26 0.26 22.45 0.19
							 22.77 C0.12 23.1 0.21 23.19 0.16 23.4 C0.72 23.44 0.27 23.37 0.72 23.03 C1.29 22.67 1.28 23.05 1.62
							 22.97 C1.68 22.93 1.76 22.83 1.74 22.74 Z" class="st11"/>
			</g>
			<g id="shape437-51" v:mID="437" v:groupContext="shape" transform="translate(9.79814,-18.2448)">
				<title>path25354</title>
				<path d="M0 22.53 C0.21 22.61 0.63 22.65 0.82 22.77 C0.95 22.84 1.05 22.94 1.13 23.06 C1.2 23.17 1.26 23.31 1.3 23.44
							 L0 22.53 Z" class="st6"/>
				<path d="M0 22.53 C0.21 22.61 0.63 22.65 0.82 22.77 C0.95 22.84 1.05 22.94 1.13 23.06 C1.2 23.17 1.26 23.31 1.3 23.44"
						class="st12"/>
			</g>
			<g id="shape438-56" v:mID="438" v:groupContext="shape" transform="translate(9.04197,-17.8676)">
				<title>use5308</title>
				<path d="M1.91 23.44 C1.71 22.9 1.5 22.54 1.01 22.5 C0.41 22.53 0.2 22.84 0 23.27 C0.58 22.85 1.36 23.06 1.91 23.44
							 Z" class="st13"/>
			</g>
			<g id="shape439-61" v:mID="439" v:groupContext="shape" transform="translate(7.77793,-5.01585)">
				<title>path4159</title>
				<path d="M0.37 19.02 C0.44 19.6 0.28 19.72 0.3 20.09 C0.32 20.57 0.3 21.06 0.21 21.54 C0.18 22.07 0.38 22.71 0.38
							 23.24 C0.39 23.34 0.33 23.44 0.29 23.3 C0.02 22.91 0.06 22.28 0.06 21.82 C0.05 21.54 0.04 21.27 0.03
							 20.99 C0 20.53 0.02 20.05 0.18 19.6 C0.27 19.36 0.13 19.1 0.37 19.02 Z" class="st2"/>
			</g>
			<g id="shape440-63" v:mID="440" v:groupContext="shape" transform="translate(6.59713,-18.0042)">
				<title>use6394</title>
				<path d="M1.29 23.32 C0.67 22.34 0.18 22.6 0 23.44 C0.29 23.09 0.96 23.06 1.29 23.32 Z" class="st14"/>
			</g>
			<g id="shape441-68" v:mID="441" v:groupContext="shape" transform="translate(6.63272,-18.1495)">
				<title>use6400</title>
				<path d="M0 22.99 C0.23 22.33 0.97 22.53 1.22 22.96 C1.3 23.08 1.4 23.31 1.45 23.44 L0 22.99 Z" class="st6"/>
				<path d="M0 22.99 C0.23 22.33 0.97 22.53 1.22 22.96 C1.3 23.08 1.4 23.31 1.45 23.44" class="st15"/>
			</g>
			<g id="shape442-73" v:mID="442" v:groupContext="shape" transform="translate(8.77505,-16.7593)">
				<title>path7521</title>
				<path d="M0.3 23.44 C0.19 23.34 0.09 23.33 0 23.31 C0.13 23.17 0.22 23.28 0.3 23.44 Z" class="st3"/>
			</g>
			<g id="shape443-75" v:mID="443" v:groupContext="shape" transform="translate(7.82747,-16.8022)">
				<title>path7535</title>
				<path d="M0 23.44 C0.1 23.33 0.18 23.33 0.3 23.32 C0.23 23.27 0.22 23.23 0.11 23.26 C0 23.3 0 23.39 0 23.44 Z"
						class="st3"/>
			</g>
			<g id="shape444-77" v:mID="444" v:groupContext="shape" transform="translate(11.4162,-13.7913)">
				<title>path9680</title>
				<path d="M1.36 22.71 C1.28 22.43 1.02 22.32 0.74 22.18 C0.51 22.07 0.43 22.06 0.17 21.99 C0 21.95 0.33 22.31 0.41
							 22.47 C0.51 22.68 0.59 22.74 0.7 22.95 C0.77 23.09 0.92 23.17 1.03 23.28 C1.19 23.44 1.23 22.88 1.36
							 22.71 Z" class="st16"/>
			</g>
			<g id="shape445-79" v:mID="445" v:groupContext="shape" transform="translate(8.20034,-17.2744)">
				<title>use26716</title>
				<path d="M0 23.21 C0.33 23.15 0.58 23.11 0.76 23.44 L0 23.21 Z" class="st6"/>
				<path d="M0 23.21 C0.33 23.15 0.58 23.11 0.76 23.44" class="st17"/>
			</g>
			<g id="shape446-84" v:mID="446" v:groupContext="shape" transform="translate(9.7349,-17.1907)">
				<title>path27827</title>
				<path d="M0.03 22.75 C0 22.49 0.63 22.6 0.75 22.87 C0.81 23.01 0.9 23.18 0.82 23.33 C0.69 23.44 0.52 23.3 0.5 23.15
							 C0.49 22.87 0.06 23.02 0.03 22.75 Z" class="st18"/>
			</g>
			<g id="shape447-88" v:mID="447" v:groupContext="shape" transform="translate(6.74666,-17.0751)">
				<title>use28898</title>
				<path d="M0.03 22.75 C0 22.49 0.63 22.6 0.75 22.87 C0.81 23.01 0.9 23.18 0.82 23.33 C0.69 23.44 0.53 23.01 0.52 22.86
							 C0.5 22.58 0.06 23.02 0.03 22.75 Z" class="st18"/>
			</g>
			<g id="shape448-91" v:mID="448" v:groupContext="shape" transform="translate(12.6465,-10.9808) scale(-1,1)">
				<title>use31262</title>
				<path d="M3.08 22.47 C0.44 22.58 1.08 22.91 0 23.44 C0.42 22.74 0.42 22.69 0.7 22.19 C1.35 22.25 2.1 22.39 3.08 22.47
							 Z" class="st2"/>
			</g>
			<g id="shape449-93" v:mID="449" v:groupContext="shape" transform="translate(7.72632,-11.1047)">
				<title>path33400</title>
				<path d="M0.06 22.54 C0.11 22.66 0.43 22.63 0.44 22.82 C0.46 23 0.44 23.44 0.52 23.35 C0.6 23.26 0.63 23 0.72 22.84
							 C0.81 22.67 1.2 22.77 1.24 22.6 C1.27 22.42 0.57 22.69 0.55 22.17 C0.5 22.67 0 22.43 0.06 22.54 Z"
						class="st2"/>
			</g>
			<g id="group450-95" transform="translate(9.14269E-14,-0.069653)" v:mID="450" v:groupContext="group">
				<title>clipPath37379</title>
				<g id="shape451-96" v:mID="451" v:groupContext="shape">
					<title>path37381</title>
					<path d="M4.87 23.3 C4.65 23.23 4.29 23.1 4.08 23.01 C3.87 22.93 3.26 22.74 2.72 22.6 C0 21.9 0 21.9 0 21.5 C0
								 21.38 0.09 21.02 0.19 20.72 C0.37 20.21 0.38 20.1 0.33 19.49 C0.24 18.41 0.24 18.29 0.38 18.06 C0.53
								 17.81 0.88 17.69 1.48 17.69 C1.97 17.69 2.14 17.58 2.41 17.09 C2.57 16.81 2.69 16.7 2.93 16.61 C3.34
								 16.45 3.56 16.54 4.07 17.09 C4.47 17.5 4.61 17.71 5.51 19.16 C5.77 19.59 5.88 19.69 6.08 20.01 C6.27
								 20.33 6.99 21.34 7.01 21.9 C7.03 22.48 6.7 22.84 6.47 23.06 C6.27 23.24 5.75 23.44 5.47 23.44 C5.36
								 23.44 5.09 23.37 4.87 23.3 Z" class="st3"/>
				</g>
			</g>
			<g id="group452-98" transform="translate(12.038,-0.0831747)" v:mID="452" v:groupContext="group">
				<title>clipPath41564</title>
				<g id="shape453-99" v:mID="453" v:groupContext="shape">
					<title>path41566</title>
					<path d="M0.83 23.37 C0.43 23.22 0.07 22.77 0.05 22.5 C0.03 22.22 -0.03 21.88 0.02 21.54 C0.08 21.2 0.1 21.05
								 0.18 20.39 C0.25 19.73 0.27 19.07 0.27 18.4 C0.28 17.49 0.18 17.12 0.43 16.97 C0.7 16.81 0.92 16.98
								 1.9 17.06 C2.88 17.14 2.72 17.14 4.36 16.92 C4.6 17.08 4.71 17.64 4.71 18.07 C4.71 18.37 4.75 18.48
								 4.99 18.79 C5.32 19.2 5.66 19.5 5.99 19.67 C6.28 19.82 6.33 19.89 6.33 20.19 C6.33 20.53 5.92 20.91
								 5.19 21.27 C4.36 21.67 3.73 22.1 3.12 22.66 C2.84 22.92 2.57 23.15 2.35 23.27 C2.12 23.39 1.24 23.52
								 0.83 23.37 Z" class="st3"/>
				</g>
			</g>
			<g id="shape454-101" v:mID="454" v:groupContext="shape" transform="translate(3.20135,-6.61657)">
				<title>path46424</title>
				<path d="M1.37 19.05 C0.93 19.96 0.98 20.31 0.63 21.3 C0.38 21.63 0.62 22.15 0.24 22.4 C0 22.67 0.27 22.74 0.46 22.88
							 C0.66 23.11 0.8 23.31 1.09 23.44 C0.8 22.99 0.42 22.9 0.46 22.36 C0.57 21.71 0.88 20.81 1.04 20.18 C1.22
							 19.44 1.8 18.83 1.87 18.07 C1.77 18.17 1.69 18.58 1.37 19.05 Z" class="st19"/>
			</g>
			<g id="shape455-103" v:mID="455" v:groupContext="shape" transform="translate(13.349,-6.20807)">
				<title>path51377</title>
				<path d="M0.88 22.46 C0.55 22.37 0 22.94 0.19 23.08 C0.42 22.09 1.81 22.62 2.46 22.83 C2.55 23.05 2.29 23.1 2.16
							 23.44 C2.46 23.25 2.48 23.29 2.82 23.09 C2.89 22.97 2.82 22.85 2.53 22.77 C2.11 22.66 1.32 22.44 0.88
							 22.46 Z" class="st19"/>
			</g>
			<g id="shape456-105" v:mID="456" v:groupContext="shape" transform="translate(6.52044,-14.0581)">
				<title>path56285</title>
				<path d="M0 21.88 C0.08 21.9 0.22 21.98 0.37 22.01 C0.47 22.04 0.6 22.23 0.64 22.27 C0.71 22.32 0.82 22.38 0.89 22.42
							 C0.96 22.47 1.02 22.51 1.1 22.56 C1.17 22.61 1.19 22.64 1.28 22.77 C1.36 22.89 1.51 23.03 1.72 22.94
							 C1.94 22.84 1.98 22.65 2.24 22.59 C2.85 22.48 3.46 21.58 4.09 21.56 C4.33 21.6 4.39 21.58 4.43 21.8
							 C4.43 21.99 4.42 22.27 4.19 22.32 C3.75 22.55 3.06 23.05 2.61 23.27 C2.27 23.44 2.17 23.35 1.78 23.39
							 C1.66 23.39 1.19 23.25 1.15 23.16 C0.93 22.96 1.01 23.01 0.79 22.82 C0.64 22.67 0.28 22.26 0.19 22.13
							 C0.13 22.04 0.1 22.03 0 21.88 Z" class="st20"/>
			</g>
		</g>
	</g>
</svg>
