<?xml version="1.0" encoding="UTF-8" standalone="no"?>
<!DOCTYPE svg PUBLIC "-//W3C//DTD SVG 1.1//EN" "http://www.w3.org/Graphics/SVG/1.1/DTD/svg11.dtd">
<!-- Generated by Microsoft Visio, SVG Export WAF.svg Page-1 -->
<svg xmlns="http://www.w3.org/2000/svg" xmlns:xlink="http://www.w3.org/1999/xlink" xmlns:ev="http://www.w3.org/2001/xml-events"
		xmlns:v="http://schemas.microsoft.com/visio/2003/SVGExtensions/" width="0.885417in" height="0.861111in"
		viewBox="0 0 63.75 62" xml:space="preserve" color-interpolation-filters="sRGB" class="st14">
	<v:documentProperties v:langID="1033" v:viewMarkup="false"/>

	<style type="text/css">
	<![CDATA[
		.st1 {fill:#ffffff;stroke:none;stroke-linecap:round;stroke-linejoin:round;stroke-width:0.75}
		.st2 {visibility:visible}
		.st3 {fill:#5b9bd5;fill-opacity:0.22;filter:url(#filter_2);stroke:none}
		.st4 {fill:#7fba00;stroke:none;stroke-width:12.24}
		.st5 {fill:#ffffff;stroke:none;stroke-width:12.24}
		.st6 {fill:#ffffff;fill-opacity:0.15;stroke:none;stroke-width:12.24}
		.st7 {fill:#59b4d9;stroke:none;stroke-width:12.24}
		.st8 {fill:#ea700d;stroke:none;stroke-linecap:butt;stroke-width:0.75}
		.st9 {fill:none;stroke:none;stroke-linecap:round;stroke-linejoin:round;stroke-width:0.75}
		.st10 {fill:#595959;font-family:Calibri;font-size:0.499992em}
		.st11 {fill:#bad80a;stroke:none;stroke-linecap:butt;stroke-width:0.75}
		.st12 {fill:none}
		.st13 {stroke:#ffffff;stroke-linecap:round;stroke-linejoin:round;stroke-width:2.2575}
		.st14 {fill:none;fill-rule:evenodd;font-size:12px;overflow:visible;stroke-linecap:square;stroke-miterlimit:3}
	]]>
	</style>

	<defs id="Filters">
		<filter id="filter_2">
			<feGaussianBlur stdDeviation="2"/>
		</filter>
	</defs>
	<g v:mID="0" v:index="1" v:groupContext="foregroundPage">
		<title>Page-1</title>
		<v:pageProperties v:drawingScale="1" v:pageScale="1" v:drawingUnits="19" v:shadowOffsetX="9" v:shadowOffsetY="-9"/>
		<g id="shape345-1" v:mID="345" v:groupContext="shape" transform="translate(0.375,-0.375)">
			<title>Sheet.345</title>
			<rect x="0" y="0.749998" width="63" height="61.25" class="st1"/>
		</g>
		<g id="group318-3" transform="translate(25.8477,-16.2411)" v:mID="318" v:groupContext="group">
			<title>Application Gateway</title>
			<g id="shape319-4" v:mID="319" v:groupContext="shape">
				<title>Sheet.319</title>
				<g id="shadow319-5" v:groupContext="shadow" v:shadowOffsetX="0.3456" v:shadowOffsetY="-1.9728" v:shadowType="1"
						transform="matrix(1,0,0,1,0.3456,1.9728)" class="st2">
					<path d="M6.02 62 C5.73 62 5.44 61.88 5.22 61.66 L0.34 56.78 C0.12 56.56 0 56.27 0 55.98 C0 55.7 0.12 55.41 0.34
								 55.19 L5.22 50.31 C5.44 50.09 5.73 49.97 6.02 49.97 C6.3 49.97 6.59 50.09 6.81 50.31 L11.72 55.21
								 C11.93 55.43 12.05 55.7 12.05 56.01 C12.05 56.3 11.93 56.59 11.72 56.8 L6.81 61.66 C6.59 61.88 6.3
								 62 6.02 62 Z" class="st3"/>
				</g>
				<path d="M6.02 62 C5.73 62 5.44 61.88 5.22 61.66 L0.34 56.78 C0.12 56.56 0 56.27 0 55.98 C0 55.7 0.12 55.41 0.34
							 55.19 L5.22 50.31 C5.44 50.09 5.73 49.97 6.02 49.97 C6.3 49.97 6.59 50.09 6.81 50.31 L11.72 55.21 C11.93
							 55.43 12.05 55.7 12.05 56.01 C12.05 56.3 11.93 56.59 11.72 56.8 L6.81 61.66 C6.59 61.88 6.3 62 6.02
							 62 Z" class="st4"/>
			</g>
			<g id="shape320-9" v:mID="320" v:groupContext="shape" transform="translate(3.93088,-7.17673)">
				<title>Sheet.320</title>
				<g id="shadow320-10" v:groupContext="shadow" v:shadowOffsetX="0.3456" v:shadowOffsetY="-1.9728" v:shadowType="1"
						transform="matrix(1,0,0,1,0.3456,1.9728)" class="st2">
					<path d="M3.22 61.62 C2.89 61.87 2.49 62 2.1 62 C1.54 62 0.99 61.75 0.62 61.27 C0 60.46 0.15 59.29 0.97 58.67
								 C1.31 58.41 1.7 58.29 2.09 58.29 C2.65 58.29 3.21 58.54 3.57 59.02 C4.19 59.83 4.04 60.99 3.22 61.62
								 Z" class="st3"/>
				</g>
				<path d="M3.22 61.62 C2.89 61.87 2.49 62 2.1 62 C1.54 62 0.99 61.75 0.62 61.27 C0 60.46 0.15 59.29 0.97 58.67 C1.31
							 58.41 1.7 58.29 2.09 58.29 C2.65 58.29 3.21 58.54 3.57 59.02 C4.19 59.83 4.04 60.99 3.22 61.62 Z"
						class="st5"/>
			</g>
			<g id="shape321-14" v:mID="321" v:groupContext="shape" transform="translate(-6.09512E-14,-2.45424)">
				<title>Sheet.321</title>
				<g id="shadow321-15" v:groupContext="shadow" v:shadowOffsetX="0.3456" v:shadowOffsetY="-1.9728" v:shadowType="1"
						transform="matrix(1,0,0,1,0.3456,1.9728)" class="st2">
					<path d="M6.81 52.76 C6.59 52.54 6.3 52.42 6.02 52.42 C5.73 52.42 5.44 52.54 5.22 52.76 L0.34 57.64 C0.12 57.86
								 0 58.15 0 58.44 C0 58.73 0.12 59.02 0.34 59.23 L3.1 62 L8.33 54.28 L6.81 52.76 Z" class="st3"/>
				</g>
				<path d="M6.81 52.76 C6.59 52.54 6.3 52.42 6.02 52.42 C5.73 52.42 5.44 52.54 5.22 52.76 L0.34 57.64 C0.12 57.86 0
							 58.15 0 58.44 C0 58.73 0.12 59.02 0.34 59.23 L3.1 62 L8.33 54.28 L6.81 52.76 Z" class="st6"/>
			</g>
			<g id="shape322-19" v:mID="322" v:groupContext="shape" transform="translate(4.42726,-1.05869)">
				<title>Sheet.322</title>
				<g id="shadow322-20" v:groupContext="shadow" v:shadowOffsetX="0.3456" v:shadowOffsetY="-1.9728" v:shadowType="1"
						transform="matrix(1,0,0,1,0.3456,1.9728)" class="st2">
					<path d="M1.59 62 L3.18 60.41 L2.05 60.41 L2.05 55.64 L1.11 55.64 L1.11 60.41 L0 60.41 L1.59 62 Z" class="st3"/>
				</g>
				<path d="M1.59 62 L3.18 60.41 L2.05 60.41 L2.05 55.64 L1.11 55.64 L1.11 60.41 L0 60.41 L1.59 62 Z" class="st5"/>
			</g>
			<g id="shape323-24" v:mID="323" v:groupContext="shape" transform="translate(5.96838,-3.97491)">
				<title>Sheet.323</title>
				<g id="shadow323-25" v:groupContext="shadow" v:shadowOffsetX="0.3456" v:shadowOffsetY="-1.9728" v:shadowType="1"
						transform="matrix(1,0,0,1,0.3456,1.9728)" class="st2">
					<path d="M3.49 62 L3.49 59.75 L2.71 60.54 L0.68 58.51 L0 59.19 L2.03 61.22 L1.25 62 L3.49 62 Z" class="st3"/>
				</g>
				<path d="M3.49 62 L3.49 59.75 L2.71 60.54 L0.68 58.51 L0 59.19 L2.03 61.22 L1.25 62 L3.49 62 Z" class="st5"/>
			</g>
			<g id="shape324-29" v:mID="324" v:groupContext="shape" transform="translate(2.57094,-3.96649)">
				<title>Sheet.324</title>
				<g id="shadow324-30" v:groupContext="shadow" v:shadowOffsetX="0.3456" v:shadowOffsetY="-1.9728" v:shadowType="1"
						transform="matrix(1,0,0,1,0.3456,1.9728)" class="st2">
					<path d="M0 62 L2.25 62 L1.46 61.22 L3.55 59.13 L2.87 58.45 L0.78 60.54 L0 59.75 L0 62 Z" class="st3"/>
				</g>
				<path d="M0 62 L2.25 62 L1.46 61.22 L3.55 59.13 L2.87 58.45 L0.78 60.54 L0 59.75 L0 62 Z" class="st5"/>
			</g>
			<g id="shape325-34" v:mID="325" v:groupContext="shape" transform="translate(4.20951,-7.42312)">
				<title>Sheet.325</title>
				<g id="shadow325-35" v:groupContext="shadow" v:shadowOffsetX="0.3456" v:shadowOffsetY="-1.9728" v:shadowType="1"
						transform="matrix(1,0,0,1,0.3456,1.9728)" class="st2">
					<path d="M2.8 61.67 C2.5 61.89 2.16 62 1.82 62 C1.34 62 0.86 61.78 0.54 61.37 C0 60.66 0.13 59.65 0.84 59.11
								 C1.13 58.89 1.48 58.78 1.82 58.78 C2.3 58.78 2.78 59 3.1 59.41 C3.64 60.12 3.5 61.13 2.8 61.67 Z"
							class="st3"/>
				</g>
				<path d="M2.8 61.67 C2.5 61.89 2.16 62 1.82 62 C1.34 62 0.86 61.78 0.54 61.37 C0 60.66 0.13 59.65 0.84 59.11 C1.13
							 58.89 1.48 58.78 1.82 58.78 C2.3 58.78 2.78 59 3.1 59.41 C3.64 60.12 3.5 61.13 2.8 61.67 Z"
						class="st7"/>
			</g>
			<g id="shape326-39" v:mID="326" v:groupContext="shape" transform="translate(4.62913,-7.75613)">
				<title>Sheet.326</title>
				<g id="shadow326-40" v:groupContext="shadow" v:shadowOffsetX="0.3456" v:shadowOffsetY="-1.9728" v:shadowType="1"
						transform="matrix(1,0,0,1,0.3456,1.9728)" class="st2">
					<path d="M2.08 61.01 C2.2 61.16 2.41 61.19 2.57 61.07 C2.57 61.06 2.58 61.06 2.59 61.05 C2.74 61.16 2.85 61.23
								 2.91 61.27 C2.93 61.23 2.94 61.18 2.95 61.14 C2.89 61.09 2.8 61.02 2.68 60.92 C2.72 60.81 2.71 60.69
								 2.63 60.59 C2.52 60.45 2.33 60.41 2.18 60.5 C2.02 60.35 1.84 60.18 1.65 59.99 C2.24 59.68 2.66 59.72
								 2.66 59.72 C2.59 59.63 2.51 59.56 2.43 59.48 C2.18 59.45 1.79 59.45 1.35 59.69 L1.35 59.69 C1.2
								 59.53 1.05 59.37 0.9 59.19 C0.83 59.21 0.76 59.24 0.69 59.28 C0.8 59.46 0.95 59.65 1.12 59.83 C1.12
								 59.83 1.12 59.83 1.12 59.83 C0.98 59.93 0.82 60.06 0.68 60.22 C0.66 60.24 0.64 60.26 0.62 60.28
								 C0.53 60.26 0.44 60.26 0.36 60.29 C0.21 59.98 0.22 59.73 0.25 59.6 C0.18 59.66 0.12 59.73 0.07 59.81
								 C0.03 59.96 0.02 60.19 0.14 60.46 C0.01 60.63 0 60.87 0.14 61.05 C0.15 61.06 0.16 61.07 0.17 61.09
								 C0.11 61.29 0.09 61.48 0.08 61.65 C0.09 61.67 0.09 61.69 0.11 61.71 C0.19 61.81 0.28 61.89 0.38
								 61.97 C0.36 61.79 0.38 61.53 0.49 61.23 C0.56 61.24 0.64 61.23 0.71 61.2 C0.75 61.23 0.79 61.27
								 0.84 61.31 C1 61.43 1.16 61.53 1.31 61.61 C1.3 61.69 1.32 61.77 1.37 61.83 C1.48 61.97 1.68 62 1.82
								 61.89 C1.85 61.87 1.87 61.84 1.89 61.81 C2.14 61.87 2.36 61.88 2.52 61.88 C2.55 61.88 2.66 61.72
								 2.73 61.63 C2.63 61.65 2.34 61.69 1.94 61.57 C1.93 61.53 1.91 61.48 1.88 61.44 C1.78 61.31 1.59
								 61.28 1.45 61.37 C1.32 61.3 1.17 61.2 1.02 61.08 C0.99 61.06 0.96 61.03 0.93 61.01 C1.02 60.87 1.03
								 60.68 0.95 60.52 C0.97 60.51 0.99 60.49 1.01 60.47 C1.16 60.33 1.3 60.22 1.43 60.13 C1.42 60.13
								 1.42 60.12 1.41 60.12 C1.42 60.12 1.42 60.13 1.43 60.13 C1.43 60.13 1.43 60.13 1.43 60.13 C1.63
								 60.32 1.84 60.49 2.04 60.65 C1.99 60.76 2 60.9 2.08 61.01 Z" class="st3"/>
				</g>
				<path d="M2.08 61.01 C2.2 61.16 2.41 61.19 2.57 61.07 C2.57 61.06 2.58 61.06 2.59 61.05 C2.74 61.16 2.85 61.23 2.91
							 61.27 C2.93 61.23 2.94 61.18 2.95 61.14 C2.89 61.09 2.8 61.02 2.68 60.92 C2.72 60.81 2.71 60.69 2.63
							 60.59 C2.52 60.45 2.33 60.41 2.18 60.5 C2.02 60.35 1.84 60.18 1.65 59.99 C2.24 59.68 2.66 59.72 2.66
							 59.72 C2.59 59.63 2.51 59.56 2.43 59.48 C2.18 59.45 1.79 59.45 1.35 59.69 L1.35 59.69 C1.2 59.53 1.05
							 59.37 0.9 59.19 C0.83 59.21 0.76 59.24 0.69 59.28 C0.8 59.46 0.95 59.65 1.12 59.83 C1.12 59.83 1.12
							 59.83 1.12 59.83 C0.98 59.93 0.82 60.06 0.68 60.22 C0.66 60.24 0.64 60.26 0.62 60.28 C0.53 60.26 0.44
							 60.26 0.36 60.29 C0.21 59.98 0.22 59.73 0.25 59.6 C0.18 59.66 0.12 59.73 0.07 59.81 C0.03 59.96 0.02
							 60.19 0.14 60.46 C0.01 60.63 0 60.87 0.14 61.05 C0.15 61.06 0.16 61.07 0.17 61.09 C0.11 61.29 0.09 61.48
							 0.08 61.65 C0.09 61.67 0.09 61.69 0.11 61.71 C0.19 61.81 0.28 61.89 0.38 61.97 C0.36 61.79 0.38 61.53
							 0.49 61.23 C0.56 61.24 0.64 61.23 0.71 61.2 C0.75 61.23 0.79 61.27 0.84 61.31 C1 61.43 1.16 61.53 1.31
							 61.61 C1.3 61.69 1.32 61.77 1.37 61.83 C1.48 61.97 1.68 62 1.82 61.89 C1.85 61.87 1.87 61.84 1.89 61.81
							 C2.14 61.87 2.36 61.88 2.52 61.88 C2.55 61.88 2.66 61.72 2.73 61.63 C2.63 61.65 2.34 61.69 1.94 61.57
							 C1.93 61.53 1.91 61.48 1.88 61.44 C1.78 61.31 1.59 61.28 1.45 61.37 C1.32 61.3 1.17 61.2 1.02 61.08
							 C0.99 61.06 0.96 61.03 0.93 61.01 C1.02 60.87 1.03 60.68 0.95 60.52 C0.97 60.51 0.99 60.49 1.01 60.47
							 C1.16 60.33 1.3 60.22 1.43 60.13 C1.42 60.13 1.42 60.12 1.41 60.12 C1.42 60.12 1.42 60.13 1.43 60.13
							 C1.43 60.13 1.43 60.13 1.43 60.13 C1.63 60.32 1.84 60.49 2.04 60.65 C1.99 60.76 2 60.9 2.08 61.01 Z"
						class="st5"/>
			</g>
		</g>
		<g id="group327-44" transform="translate(24,-34.8789)" v:mID="327" v:groupContext="group">
			<title>Firewall.327</title>
			<g id="shape328-45" v:mID="328" v:groupContext="shape" transform="translate(0,-9.81593)">
				<title>Sheet.328</title>
				<rect x="0" y="59.0916" width="3.63553" height="2.90842" class="st8"/>
			</g>
			<g id="shape329-47" v:mID="329" v:groupContext="shape" transform="translate(4.03944,-9.81593)">
				<title>Sheet.329</title>
				<rect x="0" y="59.0916" width="6.46288" height="2.90842" class="st8"/>
			</g>
			<g id="shape330-49" v:mID="330" v:groupContext="shape" transform="translate(10.9066,-9.81593)">
				<title>Sheet.330</title>
				<rect x="0" y="59.0916" width="3.63553" height="2.90842" class="st8"/>
			</g>
			<g id="shape331-51" v:mID="331" v:groupContext="shape" transform="translate(0,-6.54395)">
				<title>Sheet.331</title>
				<rect x="0" y="59.0916" width="6.86715" height="2.90842" class="st8"/>
			</g>
			<g id="shape332-53" v:mID="332" v:groupContext="shape" transform="translate(7.27106,-6.54395)">
				<title>Sheet.332</title>
				<rect x="0" y="59.0916" width="7.27106" height="2.90842" class="st8"/>
			</g>
			<g id="shape333-55" v:mID="333" v:groupContext="shape" transform="translate(0,-3.27198)">
				<title>Sheet.333</title>
				<rect x="0" y="59.0916" width="3.63553" height="2.90842" class="st8"/>
			</g>
			<g id="shape334-57" v:mID="334" v:groupContext="shape" transform="translate(4.03944,-3.27198)">
				<title>Sheet.334</title>
				<rect x="0" y="59.0916" width="6.46288" height="2.90842" class="st8"/>
			</g>
			<g id="shape335-59" v:mID="335" v:groupContext="shape" transform="translate(10.9066,-3.27198)">
				<title>Sheet.335</title>
				<rect x="0" y="59.0916" width="3.63553" height="2.90842" class="st8"/>
			</g>
			<g id="shape336-61" v:mID="336" v:groupContext="shape">
				<title>Sheet.336</title>
				<rect x="0" y="59.0916" width="6.86715" height="2.90842" class="st8"/>
			</g>
			<g id="shape337-63" v:mID="337" v:groupContext="shape" transform="translate(7.27106,6.39488E-14)">
				<title>Sheet.337</title>
				<rect x="0" y="59.0916" width="7.27106" height="2.90842" class="st8"/>
			</g>
		</g>
		<g id="shape338-65" v:mID="338" v:groupContext="shape" transform="translate(20.7881,-27.7078)">
			<title>Sheet.338</title>
			<desc>WAF</desc>
			<v:textBlock v:margins="rect(4,4,4,4)"/>
			<v:textRect cx="11.0869" cy="58.9566" width="22.18" height="6.08673"/>
			<rect x="0" y="55.9133" width="22.1738" height="6.08673" class="st9"/>
			<text x="5.3" y="60.76" class="st10" v:langID="1033"><v:paragraph v:horizAlign="1"/><v:tabList/>WAF</text>		</g>
		<g id="shape343-68" v:mID="343" v:groupContext="shape" transform="translate(32.8536,-34.5194)">
			<title>path8194</title>
			<path d="M6.9 59.14 A4.03981 4.03981 0 1 1 2.86 55.1 A4.03981 4.03981 0 0 1 6.9 59.14 Z" class="st11"/>
		</g>
		<g id="shape344-70" v:mID="344" v:groupContext="shape" transform="translate(33.6879,-35.7339)">
			<title>polyline8196</title>
			<path d="M0 60.48 L1.52 62 L4.55 58.97 L0 60.48 Z" class="st12"/>
			<path d="M0 60.48 L1.52 62 L4.55 58.97" class="st13"/>
		</g>
	</g>
</svg>
