<?xml version="1.0" encoding="UTF-8" standalone="no"?>
<!DOCTYPE svg PUBLIC "-//W3C//DTD SVG 1.1//EN" "http://www.w3.org/Graphics/SVG/1.1/DTD/svg11.dtd">
<!-- Generated by Microsoft Visio, SVG Export TrafficManagerTTL60.svg Page-1 -->
<svg xmlns="http://www.w3.org/2000/svg" xmlns:xlink="http://www.w3.org/1999/xlink" xmlns:ev="http://www.w3.org/2001/xml-events"
		xmlns:v="http://schemas.microsoft.com/visio/2003/SVGExtensions/" width="0.774196in" height="0.771881in"
		viewBox="0 0 55.7421 55.5754" xml:space="preserve" color-interpolation-filters="sRGB" class="st11">
	<v:documentProperties v:langID="1033" v:viewMarkup="false"/>

	<style type="text/css">
	<![CDATA[
		.st1 {fill:#ffffff;stroke:none;stroke-linecap:round;stroke-linejoin:round;stroke-width:0.75}
		.st2 {visibility:visible}
		.st3 {fill:#5b9bd5;fill-opacity:0.22;filter:url(#filter_2);stroke:none}
		.st4 {fill:#804998;stroke:none;stroke-width:12.24}
		.st5 {fill:#ffffff;fill-opacity:0.8;stroke:none;stroke-width:12.24}
		.st6 {fill:#ffffff;fill-opacity:0.2;stroke:none;stroke-width:12.24}
		.st7 {fill:#0072c6;stroke:none;stroke-width:0.75}
		.st8 {fill:#ffffff;fill-opacity:0.2;stroke:none;stroke-width:0.75}
		.st9 {fill:#ffffff;fill-opacity:0.8;stroke:none;stroke-width:0.75}
		.st10 {fill:#ffffff;stroke:none;stroke-width:0.75}
		.st11 {fill:none;fill-rule:evenodd;font-size:12px;overflow:visible;stroke-linecap:square;stroke-miterlimit:3}
	]]>
	</style>

	<defs id="Filters">
		<filter id="filter_2">
			<feGaussianBlur stdDeviation="2"/>
		</filter>
	</defs>
	<g v:mID="0" v:index="1" v:groupContext="foregroundPage">
		<title>Page-1</title>
		<v:pageProperties v:drawingScale="0.0393701" v:pageScale="0.0393701" v:drawingUnits="24" v:shadowOffsetX="9"
				v:shadowOffsetY="-9"/>
		<g id="group158-1" transform="translate(0.375,-0.375)" v:mID="158" v:groupContext="group">
			<title>Sheet.158</title>
			<g id="shape157-2" v:mID="157" v:groupContext="shape">
				<title>Sheet.157</title>
				<rect x="0" y="0.965204" width="54.9921" height="54.6102" class="st1"/>
			</g>
			<g id="group156-4" transform="translate(13.748,-11.6498)" v:mID="156" v:groupContext="group">
				<title>Sheet.156</title>
				<g id="group145-5" transform="translate(0,-2.47322)" v:mID="145" v:groupContext="group">
					<title>Traffic Manager</title>
					<g id="shape146-6" v:mID="146" v:groupContext="shape">
						<title>Sheet.146</title>
						<g id="shadow146-7" v:groupContext="shadow" v:shadowOffsetX="0.3456" v:shadowOffsetY="-1.9728"
								v:shadowType="1" transform="matrix(1,0,0,1,0.3456,1.9728)" class="st2">
							<path d="M28.84 47.21 L28.84 35.15 L20.4 26.74 L8.46 26.74 L0 35.41 L0 47.17 L8.44 55.58 L20.4 55.58
										 L28.84 47.21 Z" class="st3"/>
						</g>
						<path d="M28.84 47.21 L28.84 35.15 L20.4 26.74 L8.46 26.74 L0 35.41 L0 47.17 L8.44 55.58 L20.4 55.58 L28.84
									 47.21 Z" class="st4"/>
					</g>
					<g id="shape147-11" v:mID="147" v:groupContext="shape" transform="translate(1.1535,-1.1535)">
						<title>Sheet.147</title>
						<g id="shadow147-12" v:groupContext="shadow" v:shadowOffsetX="0.3456" v:shadowOffsetY="-1.9728"
								v:shadowType="1" transform="matrix(1,0,0,1,0.3456,1.9728)" class="st2">
							<path d="M18.77 29.05 L7.78 29.05 L0 37.02 L0 47.84 L7.76 55.58 L18.77 55.58 L26.53 47.88 L26.53 36.79
										 L18.77 29.05 ZM18.11 53.98 L18.02 53.98 L11.52 47.38 L12.89 45.85 L8.18 45.85 L8.18 50.68
										 L9.72 49.02 L14.83 53.98 L8.42 53.98 L1.59 47.18 L1.59 37.67 L3.51 35.7 L8.6 40.29 L5.7
										 43.3 L14.96 43.3 L14.96 34.1 L11.93 37.12 L6.81 32.32 L8.45 30.64 L18.11 30.64 L24.94 37.45
										 L24.94 45.95 L21.7 42.9 L24.07 40.76 L17.51 40.76 L17.51 46.96 L19.65 44.83 L23.32 48.82
										 L18.11 53.98 Z" class="st3"/>
						</g>
						<path d="M18.77 29.05 L7.78 29.05 L0 37.02 L0 47.84 L7.76 55.58 L18.77 55.58 L26.53 47.88 L26.53 36.79 L18.77
									 29.05 ZM18.11 53.98 L18.02 53.98 L11.52 47.38 L12.89 45.85 L8.18 45.85 L8.18 50.68 L9.72 49.02
									 L14.83 53.98 L8.42 53.98 L1.59 47.18 L1.59 37.67 L3.51 35.7 L8.6 40.29 L5.7 43.3 L14.96 43.3
									 L14.96 34.1 L11.93 37.12 L6.81 32.32 L8.45 30.64 L18.11 30.64 L24.94 37.45 L24.94 45.95 L21.7
									 42.9 L24.07 40.76 L17.51 40.76 L17.51 46.96 L19.65 44.83 L23.32 48.82 L18.11 53.98 Z"
								class="st5"/>
					</g>
					<g id="shape148-16" v:mID="148" v:groupContext="shape" transform="translate(0,-4.09549)">
						<title>Sheet.148</title>
						<g id="shadow148-17" v:groupContext="shadow" v:shadowOffsetX="0.3456" v:shadowOffsetY="-1.9728"
								v:shadowType="1" transform="matrix(1,0,0,1,0.3456,1.9728)" class="st2">
							<path d="M24.74 35.16 L20.4 30.83 L8.46 30.83 L0 39.5 L0 51.27 L4.33 55.58 L24.74 35.16 Z" class="st3"/>
						</g>
						<path d="M24.74 35.16 L20.4 30.83 L8.46 30.83 L0 39.5 L0 51.27 L4.33 55.58 L24.74 35.16 Z" class="st6"/>
					</g>
				</g>
				<g id="group149-21" transform="translate(20.4145,0)" v:mID="149" v:groupContext="group">
					<title>DNS</title>
					<g id="shape150-22" v:mID="150" v:groupContext="shape" transform="translate(0.547341,0)">
						<title>Sheet.150</title>
						<g id="shadow150-23" v:groupContext="shadow" v:shadowOffsetX="0.3456" v:shadowOffsetY="-1.9728"
								v:shadowType="1" transform="matrix(1,0,0,1,0.3456,1.9728)" class="st2">
							<ellipse cx="5.6057" cy="49.9697" rx="5.6057" ry="5.6057" class="st3"/>
						</g>
						<ellipse cx="5.6057" cy="49.9697" rx="5.6057" ry="5.6057" class="st7"/>
					</g>
					<g id="shape151-27" v:mID="151" v:groupContext="shape" transform="translate(0,-1.6418)">
						<title>Sheet.151</title>
						<g id="shadow151-28" v:groupContext="shadow" v:shadowOffsetX="0.3456" v:shadowOffsetY="-1.9728"
								v:shadowType="1" transform="matrix(1,0,0,1,0.3456,1.9728)" class="st2">
							<path d="M2.19 55.58 C0 53.39 0 49.84 2.19 47.65 C4.38 45.46 7.93 45.46 10.12 47.65 L2.19 55.58 Z"
									class="st3"/>
						</g>
						<path d="M2.19 55.58 C0 53.39 0 49.84 2.19 47.65 C4.38 45.46 7.93 45.46 10.12 47.65 L2.19 55.58 Z"
								class="st8"/>
					</g>
					<g id="shape152-32" v:mID="152" v:groupContext="shape" transform="translate(0.995797,-0.469982)">
						<title>Sheet.152</title>
						<g id="shadow152-33" v:groupContext="shadow" v:shadowOffsetX="0.3456" v:shadowOffsetY="-1.9728"
								v:shadowType="1" transform="matrix(1,0,0,1,0.3456,1.9728)" class="st2">
							<path d="M10.31 50.44 C10.31 49.28 9.92 48.17 9.2 47.26 L9.16 47.22 C9.14 47.2 9.14 47.18 9.12 47.16
										 L8.79 46.81 C7.82 45.82 6.54 45.28 5.16 45.28 C5.16 45.28 5.16 45.28 5.14 45.28 L5.12 45.28
										 C3.75 45.3 2.5 45.82 1.53 46.79 L1.18 47.16 C1.16 47.18 1.16 47.2 1.13 47.22 L1.09 47.24
										 C0.39 48.15 0 49.28 0 50.44 C0 51.59 0.39 52.71 1.11 53.62 L1.16 53.66 C1.18 53.68 1.18
										 53.7 1.2 53.72 L1.53 54.07 C2.5 55.04 3.75 55.58 5.12 55.58 L5.14 55.58 C5.14 55.58 5.14
										 55.58 5.16 55.58 C6.52 55.58 7.82 55.04 8.79 54.07 L9.12 53.7 C9.14 53.68 9.14 53.66 9.16
										 53.64 L9.2 53.6 C9.92 52.73 10.31 51.59 10.31 50.44 ZM8.23 47.08 C8.21 47.08 8.19 47.1 8.17
										 47.1 C8.13 47.12 8.09 47.14 8.07 47.14 C7.98 47.18 7.88 47.2 7.78 47.24 C7.76 47.24 7.74
										 47.26 7.72 47.26 C7.59 47.3 7.49 47.32 7.36 47.37 C7.34 47.37 7.3 47.39 7.28 47.39 C7.1
										 46.89 6.87 46.46 6.6 46.13 C7.2 46.31 7.76 46.64 8.23 47.08 ZM5.12 45.88 L5.14 45.88 C5.69
										 45.88 6.27 46.48 6.68 47.51 C6.21 47.59 5.69 47.63 5.16 47.63 C4.62 47.63 4.08 47.59 3.59
										 47.51 C3.98 46.5 4.56 45.9 5.12 45.88 ZM3.65 46.15 C3.4 46.48 3.18 46.89 2.99 47.39 C2.97
										 47.39 2.97 47.39 2.95 47.39 C2.83 47.34 2.7 47.32 2.6 47.28 C2.58 47.28 2.56 47.26 2.54
										 47.26 C2.45 47.22 2.35 47.18 2.27 47.14 C2.23 47.12 2.21 47.12 2.17 47.1 C2.15 47.08 2.12
										 47.08 2.08 47.06 C2.56 46.66 3.07 46.33 3.65 46.15 ZM2.08 53.8 C2.1 53.8 2.12 53.78 2.15
										 53.78 C2.19 53.76 2.21 53.76 2.25 53.74 C2.33 53.7 2.43 53.68 2.54 53.64 C2.56 53.64 2.58
										 53.62 2.6 53.62 C2.72 53.57 2.83 53.55 2.95 53.51 C2.97 53.51 2.97 53.51 2.99 53.51 C3.18
										 53.99 3.4 54.42 3.65 54.75 C3.07 54.54 2.54 54.21 2.08 53.8 ZM5.14 55 L5.12 55 C4.56 54.98
										 3.98 54.4 3.59 53.39 C4.08 53.31 4.62 53.26 5.16 53.26 C5.69 53.26 6.19 53.31 6.68 53.39
										 C6.29 54.4 5.69 55 5.14 55 ZM6.6 54.75 C6.87 54.42 7.1 53.99 7.28 53.49 C7.3 53.49 7.34
										 53.51 7.36 53.51 C7.49 53.55 7.61 53.57 7.72 53.62 C7.74 53.62 7.76 53.64 7.78 53.64 C7.88
										 53.68 7.96 53.7 8.07 53.74 C8.11 53.76 8.13 53.76 8.17 53.78 C8.19 53.78 8.21 53.8 8.25
										 53.82 C7.76 54.23 7.2 54.56 6.6 54.75 ZM8.68 53.33 C8.62 53.33 8.58 53.31 8.52 53.29 C8.46
										 53.26 8.38 53.22 8.31 53.2 C8.29 53.2 8.27 53.18 8.25 53.18 C8 53.08 7.74 53.02 7.47 52.93
										 C7.53 52.69 7.59 52.44 7.63 52.19 L7.01 52.19 C6.97 52.42 6.93 52.63 6.87 52.81 C6.33 52.71
										 5.76 52.67 5.16 52.67 C4.54 52.67 3.96 52.73 3.4 52.83 C3.34 52.63 3.3 52.42 3.26 52.19
										 L2.64 52.19 C2.68 52.46 2.74 52.71 2.81 52.96 C2.56 53.02 2.31 53.1 2.08 53.18 C2.06 53.2
										 2.02 53.2 2 53.22 C1.94 53.24 1.86 53.29 1.79 53.31 C1.75 53.31 1.69 53.33 1.65 53.35 C1.03
										 52.6 0.68 51.68 0.62 50.73 L1.13 50.73 L1.13 50.13 L0.62 50.13 C0.68 49.18 1.03 48.27 1.63
										 47.55 L1.65 47.53 C1.69 47.55 1.75 47.57 1.79 47.59 C1.88 47.63 1.94 47.65 2.02 47.7 C2.04
										 47.7 2.06 47.72 2.08 47.72 C2.31 47.8 2.56 47.88 2.83 47.94 C2.76 48.17 2.72 48.4 2.68 48.62
										 L3.3 48.62 C3.34 48.44 3.38 48.23 3.42 48.07 C3.98 48.17 4.58 48.23 5.18 48.23 C5.78 48.23
										 6.35 48.17 6.89 48.09 C6.93 48.25 6.97 48.44 7.01 48.64 L7.63 48.64 C7.59 48.42 7.55 48.19
										 7.49 47.96 C7.76 47.9 8 47.82 8.25 47.72 C8.27 47.72 8.31 47.7 8.33 47.7 C8.42 47.67 8.48
										 47.63 8.56 47.61 C8.6 47.59 8.66 47.57 8.71 47.55 C9.3 48.29 9.67 49.2 9.74 50.15 L9.12
										 50.15 L9.12 50.75 L9.74 50.75 C9.63 51.68 9.28 52.6 8.68 53.33 Z" class="st3"/>
						</g>
						<path d="M10.31 50.44 C10.31 49.28 9.92 48.17 9.2 47.26 L9.16 47.22 C9.14 47.2 9.14 47.18 9.12 47.16 L8.79
									 46.81 C7.82 45.82 6.54 45.28 5.16 45.28 C5.16 45.28 5.16 45.28 5.14 45.28 L5.12 45.28 C3.75
									 45.3 2.5 45.82 1.53 46.79 L1.18 47.16 C1.16 47.18 1.16 47.2 1.13 47.22 L1.09 47.24 C0.39 48.15
									 0 49.28 0 50.44 C0 51.59 0.39 52.71 1.11 53.62 L1.16 53.66 C1.18 53.68 1.18 53.7 1.2 53.72 L1.53
									 54.07 C2.5 55.04 3.75 55.58 5.12 55.58 L5.14 55.58 C5.14 55.58 5.14 55.58 5.16 55.58 C6.52 55.58
									 7.82 55.04 8.79 54.07 L9.12 53.7 C9.14 53.68 9.14 53.66 9.16 53.64 L9.2 53.6 C9.92 52.73 10.31
									 51.59 10.31 50.44 ZM8.23 47.08 C8.21 47.08 8.19 47.1 8.17 47.1 C8.13 47.12 8.09 47.14 8.07 47.14
									 C7.98 47.18 7.88 47.2 7.78 47.24 C7.76 47.24 7.74 47.26 7.72 47.26 C7.59 47.3 7.49 47.32 7.36
									 47.37 C7.34 47.37 7.3 47.39 7.28 47.39 C7.1 46.89 6.87 46.46 6.6 46.13 C7.2 46.31 7.76 46.64
									 8.23 47.08 ZM5.12 45.88 L5.14 45.88 C5.69 45.88 6.27 46.48 6.68 47.51 C6.21 47.59 5.69 47.63
									 5.16 47.63 C4.62 47.63 4.08 47.59 3.59 47.51 C3.98 46.5 4.56 45.9 5.12 45.88 ZM3.65 46.15 C3.4
									 46.48 3.18 46.89 2.99 47.39 C2.97 47.39 2.97 47.39 2.95 47.39 C2.83 47.34 2.7 47.32 2.6 47.28
									 C2.58 47.28 2.56 47.26 2.54 47.26 C2.45 47.22 2.35 47.18 2.27 47.14 C2.23 47.12 2.21 47.12 2.17
									 47.1 C2.15 47.08 2.12 47.08 2.08 47.06 C2.56 46.66 3.07 46.33 3.65 46.15 ZM2.08 53.8 C2.1 53.8
									 2.12 53.78 2.15 53.78 C2.19 53.76 2.21 53.76 2.25 53.74 C2.33 53.7 2.43 53.68 2.54 53.64 C2.56
									 53.64 2.58 53.62 2.6 53.62 C2.72 53.57 2.83 53.55 2.95 53.51 C2.97 53.51 2.97 53.51 2.99 53.51
									 C3.18 53.99 3.4 54.42 3.65 54.75 C3.07 54.54 2.54 54.21 2.08 53.8 ZM5.14 55 L5.12 55 C4.56 54.98
									 3.98 54.4 3.59 53.39 C4.08 53.31 4.62 53.26 5.16 53.26 C5.69 53.26 6.19 53.31 6.68 53.39 C6.29
									 54.4 5.69 55 5.14 55 ZM6.6 54.75 C6.87 54.42 7.1 53.99 7.28 53.49 C7.3 53.49 7.34 53.51 7.36
									 53.51 C7.49 53.55 7.61 53.57 7.72 53.62 C7.74 53.62 7.76 53.64 7.78 53.64 C7.88 53.68 7.96 53.7
									 8.07 53.74 C8.11 53.76 8.13 53.76 8.17 53.78 C8.19 53.78 8.21 53.8 8.25 53.82 C7.76 54.23 7.2
									 54.56 6.6 54.75 ZM8.68 53.33 C8.62 53.33 8.58 53.31 8.52 53.29 C8.46 53.26 8.38 53.22 8.31 53.2
									 C8.29 53.2 8.27 53.18 8.25 53.18 C8 53.08 7.74 53.02 7.47 52.93 C7.53 52.69 7.59 52.44 7.63
									 52.19 L7.01 52.19 C6.97 52.42 6.93 52.63 6.87 52.81 C6.33 52.71 5.76 52.67 5.16 52.67 C4.54
									 52.67 3.96 52.73 3.4 52.83 C3.34 52.63 3.3 52.42 3.26 52.19 L2.64 52.19 C2.68 52.46 2.74 52.71
									 2.81 52.96 C2.56 53.02 2.31 53.1 2.08 53.18 C2.06 53.2 2.02 53.2 2 53.22 C1.94 53.24 1.86 53.29
									 1.79 53.31 C1.75 53.31 1.69 53.33 1.65 53.35 C1.03 52.6 0.68 51.68 0.62 50.73 L1.13 50.73 L1.13
									 50.13 L0.62 50.13 C0.68 49.18 1.03 48.27 1.63 47.55 L1.65 47.53 C1.69 47.55 1.75 47.57 1.79
									 47.59 C1.88 47.63 1.94 47.65 2.02 47.7 C2.04 47.7 2.06 47.72 2.08 47.72 C2.31 47.8 2.56 47.88
									 2.83 47.94 C2.76 48.17 2.72 48.4 2.68 48.62 L3.3 48.62 C3.34 48.44 3.38 48.23 3.42 48.07 C3.98
									 48.17 4.58 48.23 5.18 48.23 C5.78 48.23 6.35 48.17 6.89 48.09 C6.93 48.25 6.97 48.44 7.01 48.64
									 L7.63 48.64 C7.59 48.42 7.55 48.19 7.49 47.96 C7.76 47.9 8 47.82 8.25 47.72 C8.27 47.72 8.31
									 47.7 8.33 47.7 C8.42 47.67 8.48 47.63 8.56 47.61 C8.6 47.59 8.66 47.57 8.71 47.55 C9.3 48.29
									 9.67 49.2 9.74 50.15 L9.12 50.15 L9.12 50.75 L9.74 50.75 C9.63 51.68 9.28 52.6 8.68 53.33 Z"
								class="st9"/>
					</g>
					<g id="shape153-37" v:mID="153" v:groupContext="shape" transform="translate(2.64365,-4.26684)">
						<title>Sheet.153</title>
						<g id="shadow153-38" v:groupContext="shadow" v:shadowOffsetX="0.3456" v:shadowOffsetY="-1.9728"
								v:shadowType="1" transform="matrix(1,0,0,1,0.3456,1.9728)" class="st2">
							<path d="M2.21 54.2 C2.21 54.45 2.18 54.66 2.12 54.83 C2.05 55.01 1.96 55.15 1.84 55.26 C1.72 55.37 1.58
										 55.45 1.41 55.5 C1.24 55.55 1.03 55.58 0.8 55.58 L0.16 55.58 C0.12 55.58 0.08 55.56 0.05
										 55.54 C0.02 55.51 0 55.47 0 55.4 L0 53.08 C0 53.02 0.02 52.98 0.05 52.95 C0.08 52.92 0.12
										 52.91 0.16 52.91 L0.84 52.91 C1.08 52.91 1.28 52.94 1.45 52.99 C1.61 53.05 1.75 53.13 1.87
										 53.24 C1.98 53.35 2.07 53.49 2.13 53.65 C2.18 53.81 2.21 53.99 2.21 54.2 ZM1.65 54.22 C1.65
										 54.1 1.64 53.98 1.61 53.87 C1.58 53.76 1.53 53.67 1.47 53.59 C1.4 53.51 1.32 53.45 1.22
										 53.4 C1.11 53.36 0.98 53.33 0.81 53.33 L0.54 53.33 L0.54 55.15 L0.82 55.15 C0.97 55.15 1.09
										 55.13 1.2 55.09 C1.3 55.05 1.38 54.99 1.45 54.92 C1.52 54.84 1.57 54.74 1.6 54.63 C1.64
										 54.51 1.65 54.38 1.65 54.22 Z" class="st3"/>
						</g>
						<path d="M2.21 54.2 C2.21 54.45 2.18 54.66 2.12 54.83 C2.05 55.01 1.96 55.15 1.84 55.26 C1.72 55.37 1.58
									 55.45 1.41 55.5 C1.24 55.55 1.03 55.58 0.8 55.58 L0.16 55.58 C0.12 55.58 0.08 55.56 0.05 55.54
									 C0.02 55.51 0 55.47 0 55.4 L0 53.08 C0 53.02 0.02 52.98 0.05 52.95 C0.08 52.92 0.12 52.91 0.16
									 52.91 L0.84 52.91 C1.08 52.91 1.28 52.94 1.45 52.99 C1.61 53.05 1.75 53.13 1.87 53.24 C1.98
									 53.35 2.07 53.49 2.13 53.65 C2.18 53.81 2.21 53.99 2.21 54.2 ZM1.65 54.22 C1.65 54.1 1.64 53.98
									 1.61 53.87 C1.58 53.76 1.53 53.67 1.47 53.59 C1.4 53.51 1.32 53.45 1.22 53.4 C1.11 53.36 0.98
									 53.33 0.81 53.33 L0.54 53.33 L0.54 55.15 L0.82 55.15 C0.97 55.15 1.09 55.13 1.2 55.09 C1.3 55.05
									 1.38 54.99 1.45 54.92 C1.52 54.84 1.57 54.74 1.6 54.63 C1.64 54.51 1.65 54.38 1.65 54.22 Z"
								class="st10"/>
					</g>
					<g id="shape154-42" v:mID="154" v:groupContext="shape" transform="translate(5.30187,-4.2545)">
						<title>Sheet.154</title>
						<g id="shadow154-43" v:groupContext="shadow" v:shadowOffsetX="0.3456" v:shadowOffsetY="-1.9728"
								v:shadowType="1" transform="matrix(1,0,0,1,0.3456,1.9728)" class="st2">
							<path d="M2.2 55.37 C2.2 55.41 2.19 55.43 2.18 55.46 C2.17 55.48 2.16 55.5 2.14 55.52 C2.12 55.54 2.1
										 55.55 2.07 55.56 C2.05 55.56 2.02 55.57 1.99 55.57 L1.76 55.57 C1.71 55.57 1.67 55.56 1.64
										 55.55 C1.6 55.54 1.57 55.53 1.54 55.5 C1.51 55.48 1.48 55.44 1.46 55.4 C1.43 55.35 1.4 55.3
										 1.36 55.23 L0.7 53.98 C0.66 53.91 0.62 53.83 0.58 53.74 C0.54 53.66 0.51 53.57 0.48 53.49
										 L0.47 53.49 C0.48 53.59 0.48 53.69 0.48 53.79 C0.49 53.89 0.49 53.99 0.49 54.09 L0.49 55.49
										 C0.49 55.5 0.48 55.51 0.48 55.52 C0.47 55.54 0.46 55.54 0.44 55.55 C0.42 55.56 0.39 55.57
										 0.36 55.57 C0.33 55.57 0.29 55.58 0.24 55.58 C0.19 55.58 0.15 55.57 0.12 55.57 C0.09 55.56
										 0.07 55.56 0.05 55.55 C0.03 55.54 0.02 55.54 0.01 55.52 C0 55.51 0 55.5 0 55.49 L0 53.09
										 C0 53.03 0.02 52.98 0.06 52.95 C0.09 52.91 0.14 52.9 0.2 52.9 L0.49 52.9 C0.54 52.9 0.58
										 52.9 0.62 52.91 C0.65 52.92 0.69 52.94 0.71 52.96 C0.74 52.98 0.77 53.01 0.79 53.04 C0.82
										 53.08 0.84 53.12 0.87 53.18 L1.39 54.15 C1.42 54.21 1.45 54.27 1.48 54.32 C1.51 54.38 1.54
										 54.44 1.56 54.5 C1.59 54.55 1.62 54.61 1.64 54.66 C1.67 54.72 1.69 54.77 1.72 54.83 L1.72
										 54.83 C1.72 54.73 1.71 54.63 1.71 54.53 C1.71 54.42 1.71 54.32 1.71 54.23 L1.71 52.98 C1.71
										 52.97 1.71 52.95 1.72 52.94 C1.73 52.93 1.74 52.92 1.76 52.91 C1.78 52.9 1.81 52.9 1.84
										 52.9 C1.87 52.89 1.91 52.89 1.96 52.89 C2.01 52.89 2.05 52.89 2.08 52.9 C2.11 52.9 2.13
										 52.9 2.15 52.91 C2.17 52.92 2.18 52.93 2.19 52.94 C2.19 52.95 2.2 52.96 2.2 52.98 L2.2 55.37
										 L2.2 55.37 Z" class="st3"/>
						</g>
						<path d="M2.2 55.37 C2.2 55.41 2.19 55.43 2.18 55.46 C2.17 55.48 2.16 55.5 2.14 55.52 C2.12 55.54 2.1 55.55
									 2.07 55.56 C2.05 55.56 2.02 55.57 1.99 55.57 L1.76 55.57 C1.71 55.57 1.67 55.56 1.64 55.55 C1.6
									 55.54 1.57 55.53 1.54 55.5 C1.51 55.48 1.48 55.44 1.46 55.4 C1.43 55.35 1.4 55.3 1.36 55.23
									 L0.7 53.98 C0.66 53.91 0.62 53.83 0.58 53.74 C0.54 53.66 0.51 53.57 0.48 53.49 L0.47 53.49 C0.48
									 53.59 0.48 53.69 0.48 53.79 C0.49 53.89 0.49 53.99 0.49 54.09 L0.49 55.49 C0.49 55.5 0.48 55.51
									 0.48 55.52 C0.47 55.54 0.46 55.54 0.44 55.55 C0.42 55.56 0.39 55.57 0.36 55.57 C0.33 55.57 0.29
									 55.58 0.24 55.58 C0.19 55.58 0.15 55.57 0.12 55.57 C0.09 55.56 0.07 55.56 0.05 55.55 C0.03 55.54
									 0.02 55.54 0.01 55.52 C0 55.51 0 55.5 0 55.49 L0 53.09 C0 53.03 0.02 52.98 0.06 52.95 C0.09
									 52.91 0.14 52.9 0.2 52.9 L0.49 52.9 C0.54 52.9 0.58 52.9 0.62 52.91 C0.65 52.92 0.69 52.94 0.71
									 52.96 C0.74 52.98 0.77 53.01 0.79 53.04 C0.82 53.08 0.84 53.12 0.87 53.18 L1.39 54.15 C1.42
									 54.21 1.45 54.27 1.48 54.32 C1.51 54.38 1.54 54.44 1.56 54.5 C1.59 54.55 1.62 54.61 1.64 54.66
									 C1.67 54.72 1.69 54.77 1.72 54.83 L1.72 54.83 C1.72 54.73 1.71 54.63 1.71 54.53 C1.71 54.42
									 1.71 54.32 1.71 54.23 L1.71 52.98 C1.71 52.97 1.71 52.95 1.72 52.94 C1.73 52.93 1.74 52.92 1.76
									 52.91 C1.78 52.9 1.81 52.9 1.84 52.9 C1.87 52.89 1.91 52.89 1.96 52.89 C2.01 52.89 2.05 52.89
									 2.08 52.9 C2.11 52.9 2.13 52.9 2.15 52.91 C2.17 52.92 2.18 52.93 2.19 52.94 C2.19 52.95 2.2
									 52.96 2.2 52.98 L2.2 55.37 L2.2 55.37 Z" class="st10"/>
					</g>
					<g id="shape155-47" v:mID="155" v:groupContext="shape" transform="translate(7.91951,-4.21952)">
						<title>Sheet.155</title>
						<g id="shadow155-48" v:groupContext="shadow" v:shadowOffsetX="0.3456" v:shadowOffsetY="-1.9728"
								v:shadowType="1" transform="matrix(1,0,0,1,0.3456,1.9728)" class="st2">
							<path d="M1.74 54.73 C1.74 54.87 1.71 54.99 1.66 55.1 C1.61 55.2 1.54 55.29 1.45 55.36 C1.36 55.43 1.26
										 55.49 1.14 55.52 C1.02 55.56 0.89 55.58 0.75 55.58 C0.66 55.58 0.58 55.57 0.5 55.55 C0.42
										 55.54 0.35 55.52 0.29 55.5 C0.23 55.48 0.18 55.45 0.14 55.43 C0.1 55.41 0.07 55.39 0.05
										 55.37 C0.03 55.35 0.02 55.33 0.01 55.29 C0 55.26 0 55.21 0 55.15 C0 55.1 0 55.07 0 55.04
										 C0.01 55.01 0.01 54.99 0.02 54.97 C0.02 54.95 0.03 54.94 0.04 54.93 C0.05 54.92 0.06 54.92
										 0.08 54.92 C0.1 54.92 0.12 54.93 0.16 54.95 C0.19 54.98 0.24 55 0.29 55.03 C0.35 55.06 0.42
										 55.08 0.49 55.1 C0.57 55.13 0.66 55.14 0.76 55.14 C0.82 55.14 0.88 55.13 0.93 55.11 C0.98
										 55.1 1.03 55.08 1.07 55.05 C1.1 55.02 1.13 54.98 1.15 54.94 C1.17 54.9 1.18 54.85 1.18 54.8
										 C1.18 54.74 1.16 54.69 1.13 54.64 C1.1 54.6 1.05 54.56 1 54.53 C0.95 54.49 0.89 54.46 0.82
										 54.43 C0.75 54.4 0.68 54.37 0.61 54.34 C0.54 54.31 0.47 54.27 0.4 54.23 C0.34 54.19 0.28
										 54.14 0.22 54.08 C0.17 54.02 0.13 53.95 0.09 53.87 C0.06 53.79 0.05 53.69 0.05 53.58 C0.05
										 53.46 0.07 53.34 0.12 53.25 C0.16 53.15 0.23 53.07 0.31 53.01 C0.39 52.94 0.48 52.89 0.59
										 52.86 C0.7 52.83 0.82 52.81 0.94 52.81 C1 52.81 1.07 52.82 1.13 52.83 C1.19 52.84 1.25 52.85
										 1.31 52.87 C1.36 52.89 1.41 52.9 1.45 52.92 C1.49 52.94 1.52 52.96 1.54 52.98 C1.55 52.99
										 1.56 53 1.56 53.01 C1.57 53.02 1.57 53.03 1.58 53.05 C1.58 53.06 1.58 53.08 1.58 53.11 C1.58
										 53.13 1.59 53.16 1.59 53.2 C1.59 53.24 1.58 53.27 1.58 53.3 C1.58 53.33 1.58 53.35 1.57
										 53.37 C1.57 53.38 1.56 53.4 1.55 53.41 C1.54 53.41 1.53 53.42 1.51 53.42 C1.5 53.42 1.48
										 53.41 1.44 53.39 C1.41 53.37 1.37 53.35 1.32 53.33 C1.27 53.3 1.22 53.28 1.15 53.27 C1.09
										 53.25 1.02 53.24 0.95 53.24 C0.89 53.24 0.84 53.24 0.79 53.26 C0.75 53.27 0.71 53.29 0.68
										 53.32 C0.65 53.34 0.63 53.38 0.62 53.41 C0.6 53.45 0.59 53.48 0.59 53.52 C0.59 53.58 0.61
										 53.63 0.64 53.68 C0.68 53.72 0.72 53.76 0.77 53.79 C0.83 53.83 0.89 53.86 0.96 53.89 C1.03
										 53.92 1.1 53.95 1.17 53.98 C1.24 54.01 1.31 54.05 1.38 54.09 C1.45 54.14 1.51 54.19 1.56
										 54.24 C1.61 54.3 1.66 54.37 1.69 54.45 C1.72 54.53 1.74 54.62 1.74 54.73 Z" class="st3"/>
						</g>
						<path d="M1.74 54.73 C1.74 54.87 1.71 54.99 1.66 55.1 C1.61 55.2 1.54 55.29 1.45 55.36 C1.36 55.43 1.26 55.49
									 1.14 55.52 C1.02 55.56 0.89 55.58 0.75 55.58 C0.66 55.58 0.58 55.57 0.5 55.55 C0.42 55.54 0.35
									 55.52 0.29 55.5 C0.23 55.48 0.18 55.45 0.14 55.43 C0.1 55.41 0.07 55.39 0.05 55.37 C0.03 55.35
									 0.02 55.33 0.01 55.29 C0 55.26 0 55.21 0 55.15 C0 55.1 0 55.07 0 55.04 C0.01 55.01 0.01 54.99
									 0.02 54.97 C0.02 54.95 0.03 54.94 0.04 54.93 C0.05 54.92 0.06 54.92 0.08 54.92 C0.1 54.92 0.12
									 54.93 0.16 54.95 C0.19 54.98 0.24 55 0.29 55.03 C0.35 55.06 0.42 55.08 0.49 55.1 C0.57 55.13
									 0.66 55.14 0.76 55.14 C0.82 55.14 0.88 55.13 0.93 55.11 C0.98 55.1 1.03 55.08 1.07 55.05 C1.1
									 55.02 1.13 54.98 1.15 54.94 C1.17 54.9 1.18 54.85 1.18 54.8 C1.18 54.74 1.16 54.69 1.13 54.64
									 C1.1 54.6 1.05 54.56 1 54.53 C0.95 54.49 0.89 54.46 0.82 54.43 C0.75 54.4 0.68 54.37 0.61 54.34
									 C0.54 54.31 0.47 54.27 0.4 54.23 C0.34 54.19 0.28 54.14 0.22 54.08 C0.17 54.02 0.13 53.95 0.09
									 53.87 C0.06 53.79 0.05 53.69 0.05 53.58 C0.05 53.46 0.07 53.34 0.12 53.25 C0.16 53.15 0.23 53.07
									 0.31 53.01 C0.39 52.94 0.48 52.89 0.59 52.86 C0.7 52.83 0.82 52.81 0.94 52.81 C1 52.81 1.07
									 52.82 1.13 52.83 C1.19 52.84 1.25 52.85 1.31 52.87 C1.36 52.89 1.41 52.9 1.45 52.92 C1.49 52.94
									 1.52 52.96 1.54 52.98 C1.55 52.99 1.56 53 1.56 53.01 C1.57 53.02 1.57 53.03 1.58 53.05 C1.58
									 53.06 1.58 53.08 1.58 53.11 C1.58 53.13 1.59 53.16 1.59 53.2 C1.59 53.24 1.58 53.27 1.58 53.3
									 C1.58 53.33 1.58 53.35 1.57 53.37 C1.57 53.38 1.56 53.4 1.55 53.41 C1.54 53.41 1.53 53.42 1.51
									 53.42 C1.5 53.42 1.48 53.41 1.44 53.39 C1.41 53.37 1.37 53.35 1.32 53.33 C1.27 53.3 1.22 53.28
									 1.15 53.27 C1.09 53.25 1.02 53.24 0.95 53.24 C0.89 53.24 0.84 53.24 0.79 53.26 C0.75 53.27 0.71
									 53.29 0.68 53.32 C0.65 53.34 0.63 53.38 0.62 53.41 C0.6 53.45 0.59 53.48 0.59 53.52 C0.59 53.58
									 0.61 53.63 0.64 53.68 C0.68 53.72 0.72 53.76 0.77 53.79 C0.83 53.83 0.89 53.86 0.96 53.89 C1.03
									 53.92 1.1 53.95 1.17 53.98 C1.24 54.01 1.31 54.05 1.38 54.09 C1.45 54.14 1.51 54.19 1.56 54.24
									 C1.61 54.3 1.66 54.37 1.69 54.45 C1.72 54.53 1.74 54.62 1.74 54.73 Z" class="st10"/>
					</g>
				</g>
			</g>
		</g>
	</g>
</svg>
