<?xml version="1.0" encoding="UTF-8" standalone="no"?>
<!DOCTYPE svg PUBLIC "-//W3C//DTD SVG 1.1//EN" "http://www.w3.org/Graphics/SVG/1.1/DTD/svg11.dtd">
<!-- Generated by Microsoft Visio, SVG Export NSGSubnetFinal.svg Page-1 -->
<svg xmlns="http://www.w3.org/2000/svg" xmlns:xlink="http://www.w3.org/1999/xlink" xmlns:ev="http://www.w3.org/2001/xml-events"
		xmlns:v="http://schemas.microsoft.com/visio/2003/SVGExtensions/" width="0.885417in" height="0.861111in"
		viewBox="0 0 63.75 62" xml:space="preserve" color-interpolation-filters="sRGB" class="st9">
	<v:documentProperties v:langID="1033" v:viewMarkup="false"/>

	<style type="text/css">
	<![CDATA[
		.st1 {fill:#ffffff;stroke:none;stroke-linecap:round;stroke-linejoin:round;stroke-width:0.75}
		.st2 {fill:#3999c6;stroke:none;stroke-width:0.75}
		.st3 {fill:#59b4d9;fill-opacity:0.4;stroke:none;stroke-width:0.75}
		.st4 {fill:#ffffff;fill-opacity:0.3;stroke:none;stroke-width:0.75}
		.st5 {fill:#ffffff;fill-opacity:0.7;stroke:none;stroke-width:0.75}
		.st6 {fill:#3e3e3e;stroke:none;stroke-width:0.75}
		.st7 {fill:#3999c6;stroke:none;stroke-linecap:round;stroke-linejoin:round;stroke-width:0.75}
		.st8 {fill:#7fba00;stroke:none;stroke-linecap:round;stroke-linejoin:round;stroke-width:0.75}
		.st9 {fill:none;fill-rule:evenodd;font-size:12px;overflow:visible;stroke-linecap:square;stroke-miterlimit:3}
	]]>
	</style>

	<g v:mID="0" v:index="1" v:groupContext="foregroundPage">
		<title>Page-1</title>
		<v:pageProperties v:drawingScale="1" v:pageScale="1" v:drawingUnits="19" v:shadowOffsetX="9" v:shadowOffsetY="-9"/>
		<g id="shape73-1" v:mID="73" v:groupContext="shape" transform="translate(0.375,-0.375)">
			<title>Sheet.73</title>
			<rect x="0" y="0.749998" width="63" height="61.25" class="st1"/>
		</g>
		<g id="group49-3" transform="translate(44.0223,-39.8363)" v:mID="49" v:groupContext="group">
			<title>Network Security Group</title>
			<g id="shape50-4" v:mID="50" v:groupContext="shape">
				<title>Sheet.50</title>
				<path d="M8.28 50.35 C5.36 50.03 4.86 48.76 4.86 48.76 C4.86 48.76 4.19 50.41 0 50.41 L0 57.2 C0 58.02 0.45 58.79
							 1.09 59.45 C2.52 60.97 4.86 62 4.86 62 C4.86 62 9.71 59.88 9.71 57.2 L9.71 50.41 C9.18 50.41 8.7 50.38
							 8.28 50.35 Z" class="st2"/>
			</g>
			<g id="shape51-6" v:mID="51" v:groupContext="shape" transform="translate(0,-2.54718)">
				<title>Sheet.51</title>
				<path d="M6.08 55.69 L8.28 52.9 C5.36 52.58 4.86 51.31 4.86 51.31 C4.86 51.31 4.19 52.95 0 52.95 L0 59.74 C0 60.57
							 0.45 61.34 1.09 62 L2.73 59.93 L6.08 55.69 Z" class="st3"/>
			</g>
			<g id="group52-8" transform="translate(0.981725,-1.32666)" v:mID="52" v:groupContext="group">
				<title>Sheet.52</title>
				<g id="shape53-9" v:mID="53" v:groupContext="shape" transform="translate(0.0265331,0)">
					<title>Sheet.53</title>
					<path d="M0 56.56 L0 58.18 C0 58.84 0.37 59.45 0.88 59.98 C2.02 61.2 3.87 62 3.87 62 L3.87 56.56 L0 56.56 Z"
							class="st4"/>
				</g>
				<g id="shape54-11" v:mID="54" v:groupContext="shape" transform="translate(3.87384,0)">
					<title>Sheet.54</title>
					<path d="M0 62 C0 62 3.87 60.3 3.87 58.18 L3.87 56.56 L0 56.56 L0 62 Z" class="st5"/>
				</g>
				<g id="shape55-13" v:mID="55" v:groupContext="shape" transform="translate(0,-5.43929)">
					<title>Sheet.55</title>
					<path d="M3.87 56.88 C3.87 56.88 3.34 58.21 0 58.21 L0 62 L3.87 62 L3.87 56.88 Z" class="st5"/>
				</g>
				<g id="shape56-15" v:mID="56" v:groupContext="shape" transform="translate(3.87384,-5.43929)">
					<title>Sheet.56</title>
					<path d="M2.71 58.15 C0.4 57.89 0 56.91 0 56.91 L0 62 L3.87 62 L3.87 58.21 C3.45 58.21 3.05 58.18 2.71 58.15 Z"
							class="st4"/>
				</g>
			</g>
			<g id="group57-17" transform="translate(1.32931,-5.43504)" v:mID="57" v:groupContext="group">
				<title>Sheet.57</title>
				<g id="shape58-18" v:mID="58" v:groupContext="shape" transform="translate(-3.44724E-14,-0.0437796)">
					<title>Sheet.58</title>
					<path d="M2.21 62 L1.73 62 L0.49 60.09 C0.46 60.04 0.43 59.99 0.41 59.94 L0.4 59.94 C0.41 59.99 0.42 60.11 0.42
								 60.29 L0.42 62 L0 62 L0 59.4 L0.5 59.4 L1.7 61.27 C1.75 61.34 1.79 61.4 1.8 61.43 L1.81 61.43 C1.8
								 61.36 1.79 61.24 1.79 61.08 L1.79 59.4 L2.21 59.4 L2.21 62 Z" class="st6"/>
				</g>
				<g id="shape59-20" v:mID="59" v:groupContext="shape" transform="translate(2.7276,0)">
					<title>Sheet.59</title>
					<path d="M0 61.85 L0 61.41 C0.04 61.44 0.09 61.48 0.14 61.51 C0.2 61.53 0.26 61.56 0.32 61.58 C0.38 61.6 0.44
								 61.61 0.5 61.63 C0.57 61.64 0.62 61.64 0.68 61.64 C0.86 61.64 0.99 61.61 1.08 61.55 C1.17 61.49
								 1.21 61.4 1.21 61.29 C1.21 61.23 1.2 61.17 1.17 61.13 C1.14 61.08 1.1 61.04 1.05 61 C0.99 60.97
								 0.93 60.93 0.86 60.9 C0.79 60.86 0.71 60.83 0.63 60.79 C0.54 60.74 0.46 60.69 0.38 60.64 C0.3 60.6
								 0.24 60.54 0.18 60.48 C0.12 60.43 0.08 60.36 0.05 60.29 C0.02 60.21 0 60.12 0 60.03 C0 59.9 0.03
								 59.8 0.08 59.71 C0.14 59.62 0.21 59.54 0.3 59.48 C0.39 59.43 0.49 59.38 0.61 59.35 C0.72 59.33 0.84
								 59.31 0.96 59.31 C1.23 59.31 1.43 59.34 1.55 59.4 L1.55 59.83 C1.41 59.72 1.22 59.67 0.98 59.67
								 C0.92 59.67 0.86 59.68 0.79 59.69 C0.73 59.7 0.67 59.72 0.62 59.75 C0.57 59.78 0.53 59.81 0.5 59.85
								 C0.47 59.9 0.45 59.95 0.45 60.01 C0.45 60.07 0.47 60.12 0.49 60.16 C0.51 60.21 0.55 60.24 0.6 60.28
								 C0.64 60.32 0.7 60.35 0.77 60.38 C0.83 60.42 0.91 60.45 1 60.49 C1.09 60.54 1.18 60.59 1.26 60.64
								 C1.34 60.69 1.41 60.75 1.47 60.81 C1.53 60.87 1.58 60.94 1.61 61.02 C1.65 61.1 1.67 61.19 1.67 61.28
								 C1.67 61.42 1.64 61.53 1.59 61.62 C1.53 61.71 1.46 61.78 1.37 61.84 C1.28 61.9 1.18 61.94 1.06 61.96
								 C0.94 61.99 0.82 62 0.69 62 C0.65 62 0.59 62 0.53 61.99 C0.47 61.98 0.4 61.97 0.33 61.96 C0.27 61.95
								 0.2 61.93 0.15 61.91 C0.09 61.9 0.04 61.88 0 61.85 Z" class="st6"/>
				</g>
				<g id="shape60-22" v:mID="60" v:groupContext="shape" transform="translate(4.70485,-0.000530662)">
					<title>Sheet.60</title>
					<path d="M2.2 61.78 C1.93 61.93 1.62 62 1.29 62 C0.91 62 0.6 61.88 0.36 61.64 C0.12 61.4 0 61.08 0 60.69 C0 60.29
								 0.13 59.96 0.39 59.7 C0.65 59.44 0.98 59.31 1.38 59.31 C1.67 59.31 1.92 59.35 2.11 59.44 L2.11 59.88
								 C1.91 59.75 1.68 59.68 1.4 59.68 C1.12 59.68 0.9 59.78 0.72 59.96 C0.54 60.14 0.45 60.38 0.45 60.67
								 C0.45 60.97 0.53 61.2 0.68 61.37 C0.83 61.54 1.04 61.63 1.3 61.63 C1.48 61.63 1.64 61.59 1.77 61.52
								 L1.77 60.91 L1.22 60.91 L1.22 60.54 L2.2 60.54 C2.2 60.54 2.2 61.78 2.2 61.78 Z" class="st6"/>
				</g>
			</g>
		</g>
		<g id="group74-24" transform="translate(11.7108,-20.196)" v:mID="74" v:groupContext="group">
			<title>Networking/VNET Integration</title>
			<g id="shape75-25" v:mID="75" v:groupContext="shape" transform="translate(28.1023,7.10543E-15)">
				<title>Sheet.75</title>
				<path d="M12.23 51.07 L9.84 48.69 L1.39 40.39 L0 41.65 L9.58 51.07 L0 60.74 L1.39 62 L9.84 53.71 L12.23 51.07 L12.23
							 51.07 Z" class="st7"/>
			</g>
			<g id="shape76-27" v:mID="76" v:groupContext="shape">
				<title>Sheet.76</title>
				<path d="M0 51.07 L2.39 48.69 L10.84 40.39 L12.23 41.65 L2.65 51.07 L12.23 60.74 L10.84 62 L2.39 53.71 L0 51.07 L0
							 51.07 Z" class="st7"/>
			</g>
			<g id="shape77-29" v:mID="77" v:groupContext="shape" transform="translate(10.3292,-8.53197)">
				<title>Sheet.77</title>
				<path d="M4.93 59.6 C4.93 60.98 3.79 62 2.52 62 C1.26 62 0 60.86 0 59.6 C-0 58.35 1.02 57.22 2.52 57.22 C3.91 57.22
							 4.93 58.35 4.93 59.6 Z" class="st8"/>
			</g>
			<g id="shape78-31" v:mID="78" v:groupContext="shape" transform="translate(17.6457,-8.53197)">
				<title>Sheet.78</title>
				<path d="M4.91 59.6 C4.91 60.98 3.78 62 2.52 62 C1.26 62 0 60.86 0 59.6 C0 58.35 1.13 57.22 2.52 57.22 C3.91 57.22
							 4.91 58.35 4.91 59.6 Z" class="st8"/>
			</g>
			<g id="shape79-33" v:mID="79" v:groupContext="shape" transform="translate(25.2012,-8.53197)">
				<title>Sheet.79</title>
				<path d="M4.8 59.6 C4.8 58.28 3.71 57.22 2.39 57.22 C1.08 57.22 0 58.28 0 59.6 C-0 60.92 1.08 62 2.39 62 C3.71 62
							 4.8 60.92 4.8 59.6 Z" class="st8"/>
			</g>
		</g>
	</g>
</svg>
