<?xml version="1.0" encoding="UTF-8" standalone="no"?>
<!DOCTYPE svg PUBLIC "-//W3C//DTD SVG 1.1//EN" "http://www.w3.org/Graphics/SVG/1.1/DTD/svg11.dtd">
<!-- Generated by Microsoft Visio, SVG Export TrafficManagerEndpoints.svg Page-1 -->
<svg xmlns="http://www.w3.org/2000/svg" xmlns:xlink="http://www.w3.org/1999/xlink" xmlns:ev="http://www.w3.org/2001/xml-events"
		xmlns:v="http://schemas.microsoft.com/visio/2003/SVGExtensions/" width="0.774196in" height="1.03414in"
		viewBox="0 0 55.7421 74.4583" xml:space="preserve" color-interpolation-filters="sRGB" class="st14">
	<v:documentProperties v:langID="1033" v:viewMarkup="false"/>

	<style type="text/css">
	<![CDATA[
		.st1 {fill:#ffffff;stroke:none;stroke-linecap:round;stroke-linejoin:round;stroke-width:0.75}
		.st2 {visibility:visible}
		.st3 {fill:#5b9bd5;fill-opacity:0.22;filter:url(#filter_2);stroke:none}
		.st4 {fill:#804998;stroke:none;stroke-width:12.24}
		.st5 {fill:#ffffff;fill-opacity:0.8;stroke:none;stroke-width:12.24}
		.st6 {fill:#ffffff;fill-opacity:0.2;stroke:none;stroke-width:12.24}
		.st7 {fill:#595959;visibility:hidden}
		.st8 {stroke:none;stroke-linecap:round;stroke-linejoin:round;stroke-width:0.75}
		.st9 {fill:#ffffff;stroke:#ffffff;stroke-linecap:butt;stroke-width:1.5}
		.st10 {fill:#b8d432;stroke:#59b4d9;stroke-linecap:butt;stroke-width:0.75}
		.st11 {fill:#59b4d9;stroke:none;stroke-linecap:butt;stroke-width:0.75}
		.st12 {fill:#a5a5a5;stroke:none;stroke-linecap:round;stroke-linejoin:round;stroke-width:0.24}
		.st13 {stroke:#000000;stroke-linecap:round;stroke-linejoin:round;stroke-width:0.75}
		.st14 {fill:none;fill-rule:evenodd;font-size:12px;overflow:visible;stroke-linecap:square;stroke-miterlimit:3}
	]]>
	</style>

	<defs id="Filters">
		<filter id="filter_2">
			<feGaussianBlur stdDeviation="2"/>
		</filter>
	</defs>
	<g v:mID="0" v:index="1" v:groupContext="foregroundPage">
		<title>Page-1</title>
		<v:pageProperties v:drawingScale="0.0393701" v:pageScale="0.0393701" v:drawingUnits="24" v:shadowOffsetX="9"
				v:shadowOffsetY="-9"/>
		<g id="group293-1" transform="translate(0.375,-10.6769)" v:mID="293" v:groupContext="group">
			<title>Sheet.293</title>
			<g id="shape292-2" v:mID="292" v:groupContext="shape">
				<title>Sheet.292</title>
				<rect x="0" y="19.848" width="54.9921" height="54.6102" class="st1"/>
			</g>
			<g id="group162-4" transform="translate(15.9664,-31.5571)" v:mID="162" v:groupContext="group">
				<title>Traffic Manager</title>
				<g id="shape163-5" v:mID="163" v:groupContext="shape">
					<title>Sheet.163</title>
					<g id="shadow163-6" v:groupContext="shadow" v:shadowOffsetX="0.3456" v:shadowOffsetY="-1.9728" v:shadowType="1"
							transform="matrix(1,0,0,1,0.3456,1.9728)" class="st2">
						<path d="M19.98 68.66 L19.98 60.3 L14.14 54.47 L5.86 54.47 L0 60.48 L0 68.63 L5.85 74.46 L14.14 74.46 L19.98
									 68.66 Z" class="st3"/>
					</g>
					<path d="M19.98 68.66 L19.98 60.3 L14.14 54.47 L5.86 54.47 L0 60.48 L0 68.63 L5.85 74.46 L14.14 74.46 L19.98
								 68.66 Z" class="st4"/>
				</g>
				<g id="shape164-10" v:mID="164" v:groupContext="shape" transform="translate(0.79937,-0.79937)">
					<title>Sheet.164</title>
					<g id="shadow164-11" v:groupContext="shadow" v:shadowOffsetX="0.3456" v:shadowOffsetY="-1.9728"
							v:shadowType="1" transform="matrix(1,0,0,1,0.3456,1.9728)" class="st2">
						<path d="M13 56.07 L5.39 56.07 L0 61.6 L0 69.1 L5.38 74.46 L13.01 74.46 L18.39 69.13 L18.39 61.44 L13 56.07
									 ZM12.55 73.36 L12.49 73.36 L7.98 68.78 L8.93 67.72 L5.67 67.72 L5.67 71.07 L6.74 69.91 L10.28
									 73.36 L5.84 73.36 L1.1 68.64 L1.1 62.05 L2.43 60.69 L5.96 63.87 L3.95 65.95 L10.37 65.95 L10.37
									 59.58 L8.27 61.67 L4.72 58.34 L5.86 57.18 L12.55 57.18 L17.28 61.89 L17.28 67.79 L15.04 65.67
									 L16.68 64.19 L12.13 64.19 L12.13 68.49 L13.62 67.01 L16.16 69.77 L12.55 73.36 Z" class="st3"/>
					</g>
					<path d="M13 56.07 L5.39 56.07 L0 61.6 L0 69.1 L5.38 74.46 L13.01 74.46 L18.39 69.13 L18.39 61.44 L13 56.07 ZM12.55
								 73.36 L12.49 73.36 L7.98 68.78 L8.93 67.72 L5.67 67.72 L5.67 71.07 L6.74 69.91 L10.28 73.36 L5.84
								 73.36 L1.1 68.64 L1.1 62.05 L2.43 60.69 L5.96 63.87 L3.95 65.95 L10.37 65.95 L10.37 59.58 L8.27
								 61.67 L4.72 58.34 L5.86 57.18 L12.55 57.18 L17.28 61.89 L17.28 67.79 L15.04 65.67 L16.68 64.19 L12.13
								 64.19 L12.13 68.49 L13.62 67.01 L16.16 69.77 L12.55 73.36 Z" class="st5"/>
				</g>
				<g id="shape165-15" v:mID="165" v:groupContext="shape" transform="translate(0,-2.83816)">
					<title>Sheet.165</title>
					<g id="shadow165-16" v:groupContext="shadow" v:shadowOffsetX="0.3456" v:shadowOffsetY="-1.9728"
							v:shadowType="1" transform="matrix(1,0,0,1,0.3456,1.9728)" class="st2">
						<path d="M17.14 60.31 L14.14 57.31 L5.86 57.31 L0 63.32 L0 71.47 L3 74.46 L17.14 60.31 Z" class="st3"/>
					</g>
					<path d="M17.14 60.31 L14.14 57.31 L5.86 57.31 L0 63.32 L0 71.47 L3 74.46 L17.14 60.31 Z" class="st6"/>
				</g>
			</g>
			<g id="group173-20" transform="translate(6.87967,-2.24921)" v:mID="173" v:groupContext="group">
				<title>Azure Portal - Cloud service (classic)</title>
				<g id="shape174-21" v:mID="174" v:groupContext="shape">
					<title>Sheet.174</title>
					<rect x="0" y="64.0315" width="12.9836" height="10.4268" class="st7"/>
					<rect x="0" y="64.0315" width="12.9836" height="10.4268" class="st8"/>
				</g>
				<g id="group175-24" transform="translate(1.52666,-1.29311)" v:mID="175" v:groupContext="group">
					<title>Sheet.175</title>
					<g id="shape176-25" v:mID="176" v:groupContext="shape" transform="translate(0,0.416855)">
						<title>Sheet.176</title>
						<path d="M9.09 68.9 L8.89 68.84 L8.94 68.64 C8.99 68.45 9.02 68.25 9.02 68.05 C9.02 66.75 7.97 65.7 6.67
									 65.7 C5.72 65.7 4.87 66.27 4.51 67.14 L4.37 67.46 L4.15 67.2 C3.84 66.84 3.4 66.63 2.93 66.63
									 C2.05 66.63 1.33 67.35 1.33 68.23 C1.33 68.38 1.35 68.53 1.39 68.67 L1.45 68.86 L1.26 68.93
									 C0.47 69.22 0 69.86 0 70.64 C-0 71.67 0.85 72.48 1.92 72.48 L2.4 72.48 C2.39 72.48 2.38 72.65
									 2.38 72.74 C2.38 73.69 3.15 74.46 4.09 74.46 C4.78 74.46 5.4 74.05 5.67 73.41 L5.77 73.18 L5.94
									 73.37 C6.16 73.63 6.49 73.78 6.82 73.78 C7.47 73.78 7.99 73.25 7.99 72.61 C7.99 72.56 7.99 72.48
									 7.98 72.48 L8.51 72.48 C9.59 72.48 10.43 71.67 10.43 70.64 C10.43 69.83 9.92 69.16 9.09 68.9
									 Z" class="st9"/>
					</g>
				</g>
				<g id="group177-27" transform="translate(7.97577,-5.73559)" v:mID="177" v:groupContext="group">
					<title>Sheet.177</title>
					<g id="shape178-28" v:mID="178" v:groupContext="shape">
						<title>Sheet.178</title>
						<ellipse cx="0.590691" cy="73.8676" rx="0.590691" ry="0.590691" class="st10"/>
					</g>
				</g>
				<g id="group179-30" transform="translate(4.89744,-3.73292)" v:mID="179" v:groupContext="group">
					<title>Sheet.179</title>
					<g id="shape180-31" v:mID="180" v:groupContext="shape">
						<title>Sheet.180</title>
						<path d="M0.59 73.28 C0.27 73.28 0 73.54 0 73.87 C-0 74.2 0.27 74.46 0.59 74.46 C0.92 74.46 1.18 74.2 1.18
									 73.87 C1.18 73.54 0.92 73.28 0.59 73.28 Z" class="st10"/>
					</g>
				</g>
				<g id="group181-33" transform="translate(0.717589,-0.128704)" v:mID="181" v:groupContext="group">
					<title>Sheet.181</title>
					<g id="shape182-34" v:mID="182" v:groupContext="shape">
						<title>Sheet.182</title>
						<path d="M9.77 68.46 L9.23 68.65 L9.09 68.94 L9.3 69.36 L9.32 69.42 L9.02 69.72 L8.53 69.49 L8.24 69.61 L8.09
									 70.05 L8.07 70.11 L7.65 70.11 L7.47 69.6 L7.18 69.49 L6.76 69.7 L6.7 69.73 L6.4 69.43 L6.63
									 68.94 L6.51 68.65 L6.13 68.5 L6.14 68.48 L6.14 68.06 L6.58 67.88 L6.66 67.58 L6.43 67.16 L6.39
									 67.1 L6.69 66.81 L7.17 67.04 L7.47 66.92 L7.61 66.51 L7.63 66.48 L8.05 66.48 L8.24 66.96 L8.52
									 67.06 L8.95 66.83 L9 66.8 L9.3 67.1 L9.08 67.58 L9.19 67.88 L9.67 68.02 L9.77 68.04 L9.77 68.46
									 L9.77 68.46 ZM2.92 70.06 L3.43 69.88 L3.55 69.59 L3.33 69.17 L3.31 69.11 L3.6 68.81 L4.1 69.04
									 L4.38 68.92 L4.53 68.51 L4.55 68.5 L4.98 68.5 L5.16 68.96 L5.45 69.07 L5.87 68.84 L5.93 68.8
									 L6.22 69.1 L5.99 69.59 L6.12 69.88 L6.52 70.02 L6.54 70.05 L6.54 70.47 L6.08 70.65 L5.97 70.94
									 L6.2 71.36 L6.23 71.42 L5.94 71.72 L5.45 71.49 L5.16 71.61 L5.01 72.06 L4.99 72.13 L4.57 72.13
									 L4.38 71.61 L4.1 71.49 L3.67 71.7 L3.62 71.73 L3.32 71.43 L3.55 70.94 L3.43 70.65 L2.98 70.5
									 L2.92 70.48 L2.92 70.06 ZM10.69 67.92 L10.46 67.85 L10.52 67.62 C10.58 67.39 10.61 67.15 10.61
									 66.92 C10.61 65.4 9.37 64.16 7.85 64.16 C6.73 64.16 5.73 64.82 5.3 65.85 L5.14 66.23 L4.88 65.92
									 C4.52 65.49 4 65.25 3.45 65.25 C2.41 65.25 1.57 66.1 1.57 67.13 C1.57 67.31 1.59 67.48 1.64
									 67.65 L1.7 67.87 L1.48 67.95 C0.56 68.29 0 69.04 0 69.97 C0 71.18 1 72.13 2.26 72.13 L2.83 72.13
									 C2.81 72.13 2.8 72.34 2.8 72.44 C2.8 73.55 3.71 74.46 4.81 74.46 C5.63 74.46 6.36 73.98 6.67
									 73.23 L6.79 72.95 L6.98 73.18 C7.25 73.49 7.63 73.66 8.03 73.66 C8.78 73.66 9.4 73.04 9.4 72.28
									 C9.4 72.23 9.4 72.13 9.39 72.13 L10.01 72.13 C11.28 72.13 12.27 71.18 12.27 69.97 C12.27 69.01
									 11.66 68.22 10.69 67.92 Z" class="st11"/>
					</g>
				</g>
			</g>
			<g id="group274-36" transform="translate(34.0157,-2.7051)" v:mID="274" v:groupContext="group">
				<title>Azure Portal - Cloud service (classic).274</title>
				<g id="shape275-37" v:mID="275" v:groupContext="shape">
					<title>Sheet.275</title>
					<rect x="0" y="64.0315" width="12.9836" height="10.4268" class="st7"/>
					<rect x="0" y="64.0315" width="12.9836" height="10.4268" class="st8"/>
				</g>
				<g id="group276-40" transform="translate(1.52666,-1.29311)" v:mID="276" v:groupContext="group">
					<title>Sheet.276</title>
					<g id="shape277-41" v:mID="277" v:groupContext="shape" transform="translate(0,0.416855)">
						<title>Sheet.277</title>
						<path d="M9.09 68.9 L8.89 68.84 L8.94 68.64 C8.99 68.45 9.02 68.25 9.02 68.05 C9.02 66.75 7.97 65.7 6.67
									 65.7 C5.72 65.7 4.87 66.27 4.51 67.14 L4.37 67.46 L4.15 67.2 C3.84 66.84 3.4 66.63 2.93 66.63
									 C2.05 66.63 1.33 67.35 1.33 68.23 C1.33 68.38 1.35 68.53 1.39 68.67 L1.45 68.86 L1.26 68.93
									 C0.47 69.22 0 69.86 0 70.64 C-0 71.67 0.85 72.48 1.92 72.48 L2.4 72.48 C2.39 72.48 2.38 72.65
									 2.38 72.74 C2.38 73.69 3.15 74.46 4.09 74.46 C4.78 74.46 5.4 74.05 5.67 73.41 L5.77 73.18 L5.94
									 73.37 C6.16 73.63 6.49 73.78 6.82 73.78 C7.47 73.78 7.99 73.25 7.99 72.61 C7.99 72.56 7.99 72.48
									 7.98 72.48 L8.51 72.48 C9.59 72.48 10.43 71.67 10.43 70.64 C10.43 69.83 9.92 69.16 9.09 68.9
									 Z" class="st9"/>
					</g>
				</g>
				<g id="group278-43" transform="translate(7.97577,-5.73559)" v:mID="278" v:groupContext="group">
					<title>Sheet.278</title>
					<g id="shape279-44" v:mID="279" v:groupContext="shape">
						<title>Sheet.279</title>
						<ellipse cx="0.590691" cy="73.8676" rx="0.590691" ry="0.590691" class="st10"/>
					</g>
				</g>
				<g id="group280-46" transform="translate(4.89744,-3.73292)" v:mID="280" v:groupContext="group">
					<title>Sheet.280</title>
					<g id="shape281-47" v:mID="281" v:groupContext="shape">
						<title>Sheet.281</title>
						<path d="M0.59 73.28 C0.27 73.28 0 73.54 0 73.87 C-0 74.2 0.27 74.46 0.59 74.46 C0.92 74.46 1.18 74.2 1.18
									 73.87 C1.18 73.54 0.92 73.28 0.59 73.28 Z" class="st10"/>
					</g>
				</g>
				<g id="group282-49" transform="translate(0.717589,-0.128704)" v:mID="282" v:groupContext="group">
					<title>Sheet.282</title>
					<g id="shape283-50" v:mID="283" v:groupContext="shape">
						<title>Sheet.283</title>
						<path d="M9.77 68.46 L9.23 68.65 L9.09 68.94 L9.3 69.36 L9.32 69.42 L9.02 69.72 L8.53 69.49 L8.24 69.61 L8.09
									 70.05 L8.07 70.11 L7.65 70.11 L7.47 69.6 L7.18 69.49 L6.76 69.7 L6.7 69.73 L6.4 69.43 L6.63
									 68.94 L6.51 68.65 L6.13 68.5 L6.14 68.48 L6.14 68.06 L6.58 67.88 L6.66 67.58 L6.43 67.16 L6.39
									 67.1 L6.69 66.81 L7.17 67.04 L7.47 66.92 L7.61 66.51 L7.63 66.48 L8.05 66.48 L8.24 66.96 L8.52
									 67.06 L8.95 66.83 L9 66.8 L9.3 67.1 L9.08 67.58 L9.19 67.88 L9.67 68.02 L9.77 68.04 L9.77 68.46
									 L9.77 68.46 ZM2.92 70.06 L3.43 69.88 L3.55 69.59 L3.33 69.17 L3.31 69.11 L3.6 68.81 L4.1 69.04
									 L4.38 68.92 L4.53 68.51 L4.55 68.5 L4.98 68.5 L5.16 68.96 L5.45 69.07 L5.87 68.84 L5.93 68.8
									 L6.22 69.1 L5.99 69.59 L6.12 69.88 L6.52 70.02 L6.54 70.05 L6.54 70.47 L6.08 70.65 L5.97 70.94
									 L6.2 71.36 L6.23 71.42 L5.94 71.72 L5.45 71.49 L5.16 71.61 L5.01 72.06 L4.99 72.13 L4.57 72.13
									 L4.38 71.61 L4.1 71.49 L3.67 71.7 L3.62 71.73 L3.32 71.43 L3.55 70.94 L3.43 70.65 L2.98 70.5
									 L2.92 70.48 L2.92 70.06 ZM10.69 67.92 L10.46 67.85 L10.52 67.62 C10.58 67.39 10.61 67.15 10.61
									 66.92 C10.61 65.4 9.37 64.16 7.85 64.16 C6.73 64.16 5.73 64.82 5.3 65.85 L5.14 66.23 L4.88 65.92
									 C4.52 65.49 4 65.25 3.45 65.25 C2.41 65.25 1.57 66.1 1.57 67.13 C1.57 67.31 1.59 67.48 1.64
									 67.65 L1.7 67.87 L1.48 67.95 C0.56 68.29 0 69.04 0 69.97 C0 71.18 1 72.13 2.26 72.13 L2.83 72.13
									 C2.81 72.13 2.8 72.34 2.8 72.44 C2.8 73.55 3.71 74.46 4.81 74.46 C5.63 74.46 6.36 73.98 6.67
									 73.23 L6.79 72.95 L6.98 73.18 C7.25 73.49 7.63 73.66 8.03 73.66 C8.78 73.66 9.4 73.04 9.4 72.28
									 C9.4 72.23 9.4 72.13 9.39 72.13 L10.01 72.13 C11.28 72.13 12.27 71.18 12.27 69.97 C12.27 69.01
									 11.66 68.22 10.69 67.92 Z" class="st11"/>
					</g>
				</g>
			</g>
			<g id="shape285-52" v:mID="285" v:groupContext="shape" transform="translate(9.38976,-11.9848)">
				<title>Plus.285</title>
				<v:userDefs>
					<v:ud v:nameU="visVersion" v:prompt="" v:val="VT0(15):26"/>
				</v:userDefs>
				<path d="M4.78 69.68 L4.78 67.29 L3.19 67.29 L3.19 69.68 L0.8 69.68 L0.8 71.27 L3.19 71.27 L3.19 73.66 L4.78 73.66
							 L4.78 71.27 L7.17 71.27 L7.17 69.68 L4.78 69.68 Z" class="st12"/>
			</g>
			<g id="shape286-54" v:mID="286" v:groupContext="shape" transform="translate(36.5258,-12.2551)">
				<title>Plus.286</title>
				<v:userDefs>
					<v:ud v:nameU="visVersion" v:prompt="" v:val="VT0(15):26"/>
				</v:userDefs>
				<path d="M4.78 69.68 L4.78 67.29 L3.19 67.29 L3.19 69.68 L0.8 69.68 L0.8 71.27 L3.19 71.27 L3.19 73.66 L4.78 73.66
							 L4.78 71.27 L7.17 71.27 L7.17 69.68 L4.78 69.68 Z" class="st12"/>
			</g>
			<g id="group291-56" transform="translate(13.4646,-20.2185)" v:mID="291" v:groupContext="group">
				<title>Sheet.291</title>
				<g id="shape287-57" v:mID="287" v:groupContext="shape" transform="translate(26.9291,143.814) rotate(180)">
					<title>Sheet.287</title>
					<path d="M0 74.46 L26.93 74.46" class="st13"/>
				</g>
				<g id="shape288-60" v:mID="288" v:groupContext="shape" transform="translate(87.8855,65.0592) rotate(90)">
					<title>Sheet.288</title>
					<path d="M0 74.46 L4.3 74.46" class="st13"/>
				</g>
				<g id="shape289-63" v:mID="289" v:groupContext="shape" transform="translate(74.4583,69.3559) rotate(90)">
					<title>Sheet.289</title>
					<path d="M0 74.46 L5.1 74.46" class="st13"/>
				</g>
				<g id="shape290-66" v:mID="290" v:groupContext="shape" transform="translate(101.387,69.3559) rotate(90)">
					<title>Sheet.290</title>
					<path d="M0 74.46 L5.1 74.46" class="st13"/>
				</g>
			</g>
		</g>
	</g>
</svg>
