<?xml version="1.0" encoding="UTF-8" standalone="no"?>
<!DOCTYPE svg PUBLIC "-//W3C//DTD SVG 1.1//EN" "http://www.w3.org/Graphics/SVG/1.1/DTD/svg11.dtd">
<!-- Generated by Microsoft Visio, SVG Export SQLTDE.svg Page-1 -->
<svg xmlns="http://www.w3.org/2000/svg" xmlns:xlink="http://www.w3.org/1999/xlink" xmlns:ev="http://www.w3.org/2001/xml-events"
		xmlns:v="http://schemas.microsoft.com/visio/2003/SVGExtensions/" width="0.885417in" height="0.861111in"
		viewBox="0 0 63.75 62" xml:space="preserve" color-interpolation-filters="sRGB" class="st10">
	<v:documentProperties v:langID="1033" v:viewMarkup="false"/>

	<style type="text/css">
	<![CDATA[
		.st1 {fill:#ffffff;stroke:none;stroke-linecap:round;stroke-linejoin:round;stroke-width:0.75}
		.st2 {visibility:visible}
		.st3 {fill:#5b9bd5;fill-opacity:0.22;filter:url(#filter_2);stroke:none}
		.st4 {fill:#0072c6;stroke:none;stroke-width:12.24}
		.st5 {fill:#ffffff;fill-opacity:0.15;stroke:none;stroke-width:12.24}
		.st6 {fill:#ffffff;stroke:none;stroke-width:12.24}
		.st7 {fill:#7fba00;stroke:none;stroke-width:12.24}
		.st8 {fill:#b8d432;stroke:none;stroke-width:12.24}
		.st9 {fill:#b8d432;fill-opacity:0.4;stroke:none;stroke-width:12.24}
		.st10 {fill:none;fill-rule:evenodd;font-size:12px;overflow:visible;stroke-linecap:square;stroke-miterlimit:3}
	]]>
	</style>

	<defs id="Filters">
		<filter id="filter_2">
			<feGaussianBlur stdDeviation="2"/>
		</filter>
	</defs>
	<g v:mID="0" v:index="1" v:groupContext="foregroundPage">
		<title>Page-1</title>
		<v:pageProperties v:drawingScale="1" v:pageScale="1" v:drawingUnits="19" v:shadowOffsetX="9" v:shadowOffsetY="-9"/>
		<g id="shape73-1" v:mID="73" v:groupContext="shape" transform="translate(0.375,-0.375)">
			<title>Sheet.73</title>
			<rect x="0" y="0.749998" width="63" height="61.25" class="st1"/>
		</g>
		<g id="group80-3" transform="translate(22.7731,-18.9354)" v:mID="80" v:groupContext="group">
			<title>SQL Database</title>
			<g id="shape81-4" v:mID="81" v:groupContext="shape">
				<title>Sheet.81</title>
				<g id="shadow81-5" v:groupContext="shadow" v:shadowOffsetX="0.3456" v:shadowOffsetY="-1.9728" v:shadowType="1"
						transform="matrix(1,0,0,1,0.3456,1.9728)" class="st2">
					<path d="M0 41.17 L0 58.7 C0 60.52 4.08 62 9.1 62 L9.1 41.17 C9.1 41.17 0 41.17 0 41.17 Z" class="st3"/>
				</g>
				<path d="M0 41.17 L0 58.7 C0 60.52 4.08 62 9.1 62 L9.1 41.17 C9.1 41.17 0 41.17 0 41.17 Z" class="st4"/>
			</g>
			<g id="shape82-9" v:mID="82" v:groupContext="shape" transform="translate(8.97708,-0.000485615)">
				<title>Sheet.82</title>
				<g id="shadow82-10" v:groupContext="shadow" v:shadowOffsetX="0.3456" v:shadowOffsetY="-1.9728" v:shadowType="1"
						transform="matrix(1,0,0,1,0.3456,1.9728)" class="st2">
					<path d="M0 62 L0.12 62 C5.15 62 9.23 60.52 9.23 58.7 L9.23 41.17 L0 41.17 L0 62 Z" class="st3"/>
				</g>
				<path d="M0 62 L0.12 62 C5.15 62 9.23 60.52 9.23 58.7 L9.23 41.17 L0 41.17 L0 62 Z" class="st4"/>
			</g>
			<g id="shape83-14" v:mID="83" v:groupContext="shape" transform="translate(8.97708,-0.000485615)">
				<title>Sheet.83</title>
				<g id="shadow83-15" v:groupContext="shadow" v:shadowOffsetX="0.3456" v:shadowOffsetY="-1.9728" v:shadowType="1"
						transform="matrix(1,0,0,1,0.3456,1.9728)" class="st2">
					<path d="M0 62 L0.12 62 C5.15 62 9.23 60.52 9.23 58.7 L9.23 41.17 L0 41.17 L0 62 Z" class="st3"/>
				</g>
				<path d="M0 62 L0.12 62 C5.15 62 9.23 60.52 9.23 58.7 L9.23 41.17 L0 41.17 L0 62 Z" class="st5"/>
			</g>
			<g id="shape84-19" v:mID="84" v:groupContext="shape" transform="translate(0,-17.5365)">
				<title>Sheet.84</title>
				<g id="shadow84-20" v:groupContext="shadow" v:shadowOffsetX="0.3456" v:shadowOffsetY="-1.9728" v:shadowType="1"
						transform="matrix(1,0,0,1,0.3456,1.9728)" class="st2">
					<path d="M18.2 58.7 C18.2 60.52 14.13 62 9.1 62 C4.08 62 0 60.52 0 58.7 C0 56.88 4.08 55.41 9.1 55.41 C14.13
								 55.41 18.2 56.88 18.2 58.7 Z" class="st3"/>
				</g>
				<path d="M18.2 58.7 C18.2 60.52 14.13 62 9.1 62 C4.08 62 0 60.52 0 58.7 C0 56.88 4.08 55.41 9.1 55.41 C14.13 55.41
							 18.2 56.88 18.2 58.7 Z" class="st6"/>
			</g>
			<g id="shape85-24" v:mID="85" v:groupContext="shape" transform="translate(1.86039,-18.8477)">
				<title>Sheet.85</title>
				<g id="shadow85-25" v:groupContext="shadow" v:shadowOffsetX="0.3456" v:shadowOffsetY="-1.9728" v:shadowType="1"
						transform="matrix(1,0,0,1,0.3456,1.9728)" class="st2">
					<path d="M14.48 59.82 C14.48 61.03 11.24 62 7.24 62 C3.24 62 0 61.03 0 59.82 C0 58.62 3.24 57.65 7.24 57.65 C11.24
								 57.65 14.48 58.62 14.48 59.82 Z" class="st3"/>
				</g>
				<path d="M14.48 59.82 C14.48 61.03 11.24 62 7.24 62 C3.24 62 0 61.03 0 59.82 C0 58.62 3.24 57.65 7.24 57.65 C11.24
							 57.65 14.48 58.62 14.48 59.82 Z" class="st7"/>
			</g>
			<g id="shape86-29" v:mID="86" v:groupContext="shape" transform="translate(1.86088,-19.6936)">
				<title>Sheet.86</title>
				<g id="shadow86-30" v:groupContext="shadow" v:shadowOffsetX="0.3456" v:shadowOffsetY="-1.9728" v:shadowType="1"
						transform="matrix(1,0,0,1,0.3456,1.9728)" class="st2">
					<path d="M12.96 62 C13.91 61.63 14.48 61.17 14.48 60.67 C14.48 59.47 11.24 58.5 7.24 58.5 C3.24 58.5 0 59.47
								 0 60.67 C0 61.17 0.57 61.63 1.52 62 C2.84 61.49 4.91 61.15 7.24 61.15 C9.57 61.15 11.64 61.49 12.96
								 62 Z" class="st3"/>
				</g>
				<path d="M12.96 62 C13.91 61.63 14.48 61.17 14.48 60.67 C14.48 59.47 11.24 58.5 7.24 58.5 C3.24 58.5 0 59.47 0 60.67
							 C0 61.17 0.57 61.63 1.52 62 C2.84 61.49 4.91 61.15 7.24 61.15 C9.57 61.15 11.64 61.49 12.96 62 Z"
						class="st8"/>
			</g>
			<g id="shape87-34" v:mID="87" v:groupContext="shape" transform="translate(2.46984,-6.94575)">
				<title>Sheet.87</title>
				<g id="shadow87-35" v:groupContext="shadow" v:shadowOffsetX="0.3456" v:shadowOffsetY="-1.9728" v:shadowType="1"
						transform="matrix(1,0,0,1,0.3456,1.9728)" class="st2">
					<path d="M3.74 60.29 C3.74 60.83 3.54 61.25 3.15 61.55 C2.75 61.85 2.21 62 1.51 62 C0.92 62 0.42 61.89 0.02 61.68
								 L0.02 60.4 C0.48 60.79 0.99 60.98 1.54 60.98 C1.81 60.98 2.02 60.93 2.16 60.82 C2.31 60.72 2.38
								 60.57 2.38 60.4 C2.38 60.22 2.31 60.07 2.17 59.94 C2.03 59.82 1.74 59.65 1.31 59.45 C0.44 59.04
								 0 58.48 0 57.77 C0 57.25 0.19 56.84 0.57 56.53 C0.95 56.22 1.46 56.06 2.09 56.06 C2.66 56.06 3.12
								 56.13 3.49 56.28 L3.49 57.48 C3.1 57.21 2.66 57.08 2.17 57.08 C1.92 57.08 1.72 57.13 1.58 57.23
								 C1.43 57.34 1.36 57.48 1.36 57.66 C1.36 57.84 1.42 57.99 1.54 58.1 C1.65 58.22 1.89 58.36 2.25 58.53
								 C2.79 58.79 3.17 59.05 3.4 59.31 C3.63 59.57 3.74 59.9 3.74 60.29 Z" class="st3"/>
				</g>
				<path d="M3.74 60.29 C3.74 60.83 3.54 61.25 3.15 61.55 C2.75 61.85 2.21 62 1.51 62 C0.92 62 0.42 61.89 0.02 61.68
							 L0.02 60.4 C0.48 60.79 0.99 60.98 1.54 60.98 C1.81 60.98 2.02 60.93 2.16 60.82 C2.31 60.72 2.38 60.57
							 2.38 60.4 C2.38 60.22 2.31 60.07 2.17 59.94 C2.03 59.82 1.74 59.65 1.31 59.45 C0.44 59.04 0 58.48 0
							 57.77 C0 57.25 0.19 56.84 0.57 56.53 C0.95 56.22 1.46 56.06 2.09 56.06 C2.66 56.06 3.12 56.13 3.49 56.28
							 L3.49 57.48 C3.1 57.21 2.66 57.08 2.17 57.08 C1.92 57.08 1.72 57.13 1.58 57.23 C1.43 57.34 1.36 57.48
							 1.36 57.66 C1.36 57.84 1.42 57.99 1.54 58.1 C1.65 58.22 1.89 58.36 2.25 58.53 C2.79 58.79 3.17 59.05
							 3.4 59.31 C3.63 59.57 3.74 59.9 3.74 60.29 Z" class="st6"/>
			</g>
			<g id="shape88-39" v:mID="88" v:groupContext="shape" transform="translate(6.76316,-5.61177)">
				<title>Sheet.88</title>
				<g id="shadow88-40" v:groupContext="shadow" v:shadowOffsetX="0.3456" v:shadowOffsetY="-1.9728" v:shadowType="1"
						transform="matrix(1,0,0,1,0.3456,1.9728)" class="st2">
					<path d="M5.63 57.65 C5.63 58.33 5.47 58.92 5.17 59.41 C4.86 59.91 4.43 60.26 3.87 60.46 L5.54 62 L3.85 62 L2.66
								 60.67 C2.15 60.65 1.69 60.51 1.28 60.26 C0.87 60.01 0.56 59.67 0.33 59.23 C0.11 58.79 0 58.31 0
								 57.77 C0 57.17 0.12 56.64 0.36 56.18 C0.6 55.71 0.94 55.35 1.38 55.1 C1.82 54.85 2.32 54.73 2.89
								 54.73 C3.42 54.73 3.89 54.85 4.31 55.09 C4.73 55.33 5.05 55.68 5.28 56.13 C5.51 56.58 5.63 57.09
								 5.63 57.65 ZM4.27 57.73 C4.27 57.14 4.14 56.68 3.89 56.35 C3.63 56.01 3.29 55.84 2.84 55.84 C2.4
								 55.84 2.04 56.01 1.77 56.35 C1.5 56.69 1.36 57.14 1.36 57.7 C1.36 58.26 1.49 58.71 1.76 59.05 C2.02
								 59.38 2.37 59.55 2.81 59.55 C3.26 59.55 3.61 59.39 3.87 59.06 C4.14 58.74 4.27 58.29 4.27 57.73
								 Z" class="st3"/>
				</g>
				<path d="M5.63 57.65 C5.63 58.33 5.47 58.92 5.17 59.41 C4.86 59.91 4.43 60.26 3.87 60.46 L5.54 62 L3.85 62 L2.66
							 60.67 C2.15 60.65 1.69 60.51 1.28 60.26 C0.87 60.01 0.56 59.67 0.33 59.23 C0.11 58.79 0 58.31 0 57.77
							 C0 57.17 0.12 56.64 0.36 56.18 C0.6 55.71 0.94 55.35 1.38 55.1 C1.82 54.85 2.32 54.73 2.89 54.73 C3.42
							 54.73 3.89 54.85 4.31 55.09 C4.73 55.33 5.05 55.68 5.28 56.13 C5.51 56.58 5.63 57.09 5.63 57.65 ZM4.27
							 57.73 C4.27 57.14 4.14 56.68 3.89 56.35 C3.63 56.01 3.29 55.84 2.84 55.84 C2.4 55.84 2.04 56.01 1.77
							 56.35 C1.5 56.69 1.36 57.14 1.36 57.7 C1.36 58.26 1.49 58.71 1.76 59.05 C2.02 59.38 2.37 59.55 2.81
							 59.55 C3.26 59.55 3.61 59.39 3.87 59.06 C4.14 58.74 4.27 58.29 4.27 57.73 Z" class="st6"/>
			</g>
			<g id="shape89-44" v:mID="89" v:groupContext="shape" transform="translate(13.3408,-7.04579)">
				<title>Sheet.89</title>
				<g id="shadow89-45" v:groupContext="shadow" v:shadowOffsetX="0.3456" v:shadowOffsetY="-1.9728" v:shadowType="1"
						transform="matrix(1,0,0,1,0.3456,1.9728)" class="st2">
					<path d="M3.42 62 L0 62 L0 56.26 L1.29 56.26 L1.29 60.95 L3.42 60.95 L3.42 62 Z" class="st3"/>
				</g>
				<path d="M3.42 62 L0 62 L0 56.26 L1.29 56.26 L1.29 60.95 L3.42 60.95 L3.42 62 Z" class="st6"/>
			</g>
		</g>
		<g id="group90-49" transform="translate(36.2731,-12.9496)" v:mID="90" v:groupContext="group">
			<title>Azure Security / Security Center</title>
			<g id="shape91-50" v:mID="91" v:groupContext="shape">
				<title>Sheet.91</title>
				<g id="shadow91-51" v:groupContext="shadow" v:shadowOffsetX="0.3456" v:shadowOffsetY="-1.9728" v:shadowType="1"
						transform="matrix(1,0,0,1,0.3456,1.9728)" class="st2">
					<path d="M8.28 50.35 C5.36 50.03 4.86 48.76 4.86 48.76 C4.86 48.76 4.19 50.41 0 50.41 L0 57.2 C0 58.02 0.45 58.79
								 1.09 59.45 C2.52 60.97 4.86 62 4.86 62 C4.86 62 9.71 59.88 9.71 57.2 L9.71 50.41 C9.18 50.41 8.7
								 50.38 8.28 50.35 Z" class="st3"/>
				</g>
				<path d="M8.28 50.35 C5.36 50.03 4.86 48.76 4.86 48.76 C4.86 48.76 4.19 50.41 0 50.41 L0 57.2 C0 58.02 0.45 58.79
							 1.09 59.45 C2.52 60.97 4.86 62 4.86 62 C4.86 62 9.71 59.88 9.71 57.2 L9.71 50.41 C9.18 50.41 8.7 50.38
							 8.28 50.35 Z" class="st7"/>
			</g>
			<g id="shape92-55" v:mID="92" v:groupContext="shape" transform="translate(0,-2.54718)">
				<title>Sheet.92</title>
				<g id="shadow92-56" v:groupContext="shadow" v:shadowOffsetX="0.3456" v:shadowOffsetY="-1.9728" v:shadowType="1"
						transform="matrix(1,0,0,1,0.3456,1.9728)" class="st2">
					<path d="M6.08 55.69 L8.28 52.9 C5.36 52.58 4.86 51.31 4.86 51.31 C4.86 51.31 4.19 52.95 0 52.95 L0 59.74 C0
								 60.57 0.45 61.34 1.09 62 L2.73 59.93 L6.08 55.69 Z" class="st3"/>
				</g>
				<path d="M6.08 55.69 L8.28 52.9 C5.36 52.58 4.86 51.31 4.86 51.31 C4.86 51.31 4.19 52.95 0 52.95 L0 59.74 C0 60.57
							 0.45 61.34 1.09 62 L2.73 59.93 L6.08 55.69 Z" class="st9"/>
			</g>
			<g id="shape93-60" v:mID="93" v:groupContext="shape" transform="translate(2.70638,-3.79424)">
				<title>Sheet.93</title>
				<g id="shadow93-61" v:groupContext="shadow" v:shadowOffsetX="0.3456" v:shadowOffsetY="-1.9728" v:shadowType="1"
						transform="matrix(1,0,0,1,0.3456,1.9728)" class="st2">
					<path d="M4.09 59.05 L3.79 59.05 L3.79 58.1 C3.79 57.65 3.64 57.22 3.34 56.93 C3.34 56.93 3.32 56.91 3.32 56.91
								 C3.02 56.59 2.6 56.4 2.15 56.4 C1.7 56.4 1.27 56.61 0.98 56.91 C0.69 57.22 0.5 57.65 0.5 58.13 L0.5
								 59.08 L0.21 59.08 C0.11 59.08 0 59.19 0 59.29 L0 61.2 L0 61.79 C0 61.89 0.11 62 0.21 62 L4.06 62
								 C4.17 62 4.27 61.89 4.27 61.79 L4.27 59.29 C4.3 59.13 4.19 59.05 4.09 59.05 ZM3.02 59.05 L1.7 59.05
								 L1.3 59.05 L1.3 58.1 C1.3 57.83 1.41 57.6 1.57 57.41 C1.72 57.25 1.94 57.14 2.18 57.14 C2.41 57.14
								 2.63 57.25 2.79 57.41 C2.81 57.46 2.87 57.49 2.89 57.54 C3 57.7 3.05 57.89 3.05 58.1 C3.02 58.1
								 3.02 59.05 3.02 59.05 Z" class="st3"/>
				</g>
				<path d="M4.09 59.05 L3.79 59.05 L3.79 58.1 C3.79 57.65 3.64 57.22 3.34 56.93 C3.34 56.93 3.32 56.91 3.32 56.91 C3.02
							 56.59 2.6 56.4 2.15 56.4 C1.7 56.4 1.27 56.61 0.98 56.91 C0.69 57.22 0.5 57.65 0.5 58.13 L0.5 59.08
							 L0.21 59.08 C0.11 59.08 0 59.19 0 59.29 L0 61.2 L0 61.79 C0 61.89 0.11 62 0.21 62 L4.06 62 C4.17 62
							 4.27 61.89 4.27 61.79 L4.27 59.29 C4.3 59.13 4.19 59.05 4.09 59.05 ZM3.02 59.05 L1.7 59.05 L1.3 59.05
							 L1.3 58.1 C1.3 57.83 1.41 57.6 1.57 57.41 C1.72 57.25 1.94 57.14 2.18 57.14 C2.41 57.14 2.63 57.25 2.79
							 57.41 C2.81 57.46 2.87 57.49 2.89 57.54 C3 57.7 3.05 57.89 3.05 58.1 C3.02 58.1 3.02 59.05 3.02 59.05
							 Z" class="st6"/>
			</g>
		</g>
	</g>
</svg>
