<?xml version="1.0" encoding="UTF-8" standalone="no"?>
<!DOCTYPE svg PUBLIC "-//W3C//DTD SVG 1.1//EN" "http://www.w3.org/Graphics/SVG/1.1/DTD/svg11.dtd">
<!-- Generated by Microsoft Visio, SVG Export TrafficManagerMoreRegions.svg Page-1 -->
<svg xmlns="http://www.w3.org/2000/svg" xmlns:xlink="http://www.w3.org/1999/xlink" xmlns:ev="http://www.w3.org/2001/xml-events"
		xmlns:v="http://schemas.microsoft.com/visio/2003/SVGExtensions/" width="0.871689in" height="0.991575in"
		viewBox="0 0 62.7616 71.3934" xml:space="preserve" color-interpolation-filters="sRGB" class="st11">
	<v:documentProperties v:langID="1033" v:viewMarkup="false"/>

	<style type="text/css">
	<![CDATA[
		.st1 {fill:#ffffff;stroke:none;stroke-linecap:round;stroke-linejoin:round;stroke-width:0.75}
		.st2 {visibility:visible}
		.st3 {fill:#5b9bd5;fill-opacity:0.22;filter:url(#filter_2);stroke:none}
		.st4 {fill:#804998;stroke:none;stroke-width:12.24}
		.st5 {fill:#ffffff;fill-opacity:0.8;stroke:none;stroke-width:12.24}
		.st6 {fill:#ffffff;fill-opacity:0.2;stroke:none;stroke-width:12.24}
		.st7 {fill:#a5a5a5;stroke:none;stroke-linecap:round;stroke-linejoin:round;stroke-width:0.24}
		.st8 {stroke:#000000;stroke-linecap:round;stroke-linejoin:round;stroke-width:0.75}
		.st9 {fill:#59b4d9;stroke:none;stroke-width:12.24}
		.st10 {fill:#ffffff;stroke:none;stroke-width:12.24}
		.st11 {fill:none;fill-rule:evenodd;font-size:12px;overflow:visible;stroke-linecap:square;stroke-miterlimit:3}
	]]>
	</style>

	<defs id="Filters">
		<filter id="filter_2">
			<feGaussianBlur stdDeviation="2"/>
		</filter>
	</defs>
	<g v:mID="0" v:index="1" v:groupContext="foregroundPage">
		<title>Page-1</title>
		<v:pageProperties v:drawingScale="0.0393701" v:pageScale="0.0393701" v:drawingUnits="24" v:shadowOffsetX="9"
				v:shadowOffsetY="-9"/>
		<g id="group300-1" transform="translate(5.95989,-7.61205)" v:mID="300" v:groupContext="group">
			<title>Sheet.300</title>
			<g id="shape292-2" v:mID="292" v:groupContext="shape">
				<title>Sheet.292</title>
				<rect x="0" y="16.7831" width="54.9921" height="54.6102" class="st1"/>
			</g>
			<g id="group162-4" transform="translate(15.9664,-31.5571)" v:mID="162" v:groupContext="group">
				<title>Traffic Manager</title>
				<g id="shape163-5" v:mID="163" v:groupContext="shape">
					<title>Sheet.163</title>
					<g id="shadow163-6" v:groupContext="shadow" v:shadowOffsetX="0.3456" v:shadowOffsetY="-1.9728" v:shadowType="1"
							transform="matrix(1,0,0,1,0.3456,1.9728)" class="st2">
						<path d="M19.98 65.6 L19.98 57.24 L14.14 51.41 L5.86 51.41 L0 57.42 L0 65.57 L5.85 71.39 L14.14 71.39 L19.98
									 65.6 Z" class="st3"/>
					</g>
					<path d="M19.98 65.6 L19.98 57.24 L14.14 51.41 L5.86 51.41 L0 57.42 L0 65.57 L5.85 71.39 L14.14 71.39 L19.98
								 65.6 Z" class="st4"/>
				</g>
				<g id="shape164-10" v:mID="164" v:groupContext="shape" transform="translate(0.79937,-0.79937)">
					<title>Sheet.164</title>
					<g id="shadow164-11" v:groupContext="shadow" v:shadowOffsetX="0.3456" v:shadowOffsetY="-1.9728"
							v:shadowType="1" transform="matrix(1,0,0,1,0.3456,1.9728)" class="st2">
						<path d="M13 53.01 L5.39 53.01 L0 58.53 L0 66.03 L5.38 71.39 L13.01 71.39 L18.39 66.06 L18.39 58.37 L13 53.01
									 ZM12.55 70.29 L12.49 70.29 L7.98 65.72 L8.93 64.65 L5.67 64.65 L5.67 68 L6.74 66.85 L10.28 70.29
									 L5.84 70.29 L1.1 65.58 L1.1 58.98 L2.43 57.62 L5.96 60.8 L3.95 62.89 L10.37 62.89 L10.37 56.51
									 L8.27 58.6 L4.72 55.28 L5.86 54.11 L12.55 54.11 L17.28 58.83 L17.28 64.72 L15.04 62.61 L16.68
									 61.12 L12.13 61.12 L12.13 65.42 L13.62 63.95 L16.16 66.71 L12.55 70.29 Z" class="st3"/>
					</g>
					<path d="M13 53.01 L5.39 53.01 L0 58.53 L0 66.03 L5.38 71.39 L13.01 71.39 L18.39 66.06 L18.39 58.37 L13 53.01
								 ZM12.55 70.29 L12.49 70.29 L7.98 65.72 L8.93 64.65 L5.67 64.65 L5.67 68 L6.74 66.85 L10.28 70.29
								 L5.84 70.29 L1.1 65.58 L1.1 58.98 L2.43 57.62 L5.96 60.8 L3.95 62.89 L10.37 62.89 L10.37 56.51 L8.27
								 58.6 L4.72 55.28 L5.86 54.11 L12.55 54.11 L17.28 58.83 L17.28 64.72 L15.04 62.61 L16.68 61.12 L12.13
								 61.12 L12.13 65.42 L13.62 63.95 L16.16 66.71 L12.55 70.29 Z" class="st5"/>
				</g>
				<g id="shape165-15" v:mID="165" v:groupContext="shape" transform="translate(0,-2.83816)">
					<title>Sheet.165</title>
					<g id="shadow165-16" v:groupContext="shadow" v:shadowOffsetX="0.3456" v:shadowOffsetY="-1.9728"
							v:shadowType="1" transform="matrix(1,0,0,1,0.3456,1.9728)" class="st2">
						<path d="M17.14 57.25 L14.14 54.25 L5.86 54.25 L0 60.25 L0 68.41 L3 71.39 L17.14 57.25 Z" class="st3"/>
					</g>
					<path d="M17.14 57.25 L14.14 54.25 L5.86 54.25 L0 60.25 L0 68.41 L3 71.39 L17.14 57.25 Z" class="st6"/>
				</g>
			</g>
			<g id="shape286-20" v:mID="286" v:groupContext="shape" transform="translate(36.5258,-12.2551)">
				<title>Plus.286</title>
				<v:userDefs>
					<v:ud v:nameU="visVersion" v:prompt="" v:val="VT0(15):26"/>
				</v:userDefs>
				<path d="M4.78 66.62 L4.78 64.23 L3.19 64.23 L3.19 66.62 L0.8 66.62 L0.8 68.21 L3.19 68.21 L3.19 70.6 L4.78 70.6
							 L4.78 68.21 L7.17 68.21 L7.17 66.62 L4.78 66.62 Z" class="st7"/>
			</g>
			<g id="group291-22" transform="translate(13.4646,-20.2185)" v:mID="291" v:groupContext="group">
				<title>Sheet.291</title>
				<g id="shape287-23" v:mID="287" v:groupContext="shape" transform="translate(26.9291,137.684) rotate(180)">
					<title>Sheet.287</title>
					<path d="M0 71.39 L26.93 71.39" class="st8"/>
				</g>
				<g id="shape288-26" v:mID="288" v:groupContext="shape" transform="translate(84.8207,61.9943) rotate(90)">
					<title>Sheet.288</title>
					<path d="M0 71.39 L4.3 71.39" class="st8"/>
				</g>
				<g id="shape289-29" v:mID="289" v:groupContext="shape" transform="translate(71.3934,66.291) rotate(90)">
					<title>Sheet.289</title>
					<path d="M0 71.39 L5.1 71.39" class="st8"/>
				</g>
				<g id="shape290-32" v:mID="290" v:groupContext="shape" transform="translate(98.3225,66.291) rotate(90)">
					<title>Sheet.290</title>
					<path d="M0 71.39 L5.1 71.39" class="st8"/>
				</g>
			</g>
			<g id="group294-35" transform="translate(5.38583,-4.62795)" v:mID="294" v:groupContext="group">
				<title>Azure Portal - Web Apps</title>
				<g id="shape295-36" v:mID="295" v:groupContext="shape">
					<title>Sheet.295</title>
					<g id="shadow295-37" v:groupContext="shadow" v:shadowOffsetX="0.3456" v:shadowOffsetY="-1.9728"
							v:shadowType="1" transform="matrix(1,0,0,1,0.3456,1.9728)" class="st2">
						<path d="M11.99 69.97 C10.74 70.93 9.26 71.39 7.8 71.39 C5.73 71.39 3.67 70.46 2.32 68.69 C0 65.66 0.57 61.34
									 3.6 59.02 C4.85 58.06 6.33 57.6 7.79 57.6 C9.86 57.6 11.92 58.53 13.27 60.3 C15.59 63.33 15.01
									 67.66 11.99 69.97 Z" class="st3"/>
					</g>
					<path d="M11.99 69.97 C10.74 70.93 9.26 71.39 7.8 71.39 C5.73 71.39 3.67 70.46 2.32 68.69 C0 65.66 0.57 61.34
								 3.6 59.02 C4.85 58.06 6.33 57.6 7.79 57.6 C9.86 57.6 11.92 58.53 13.27 60.3 C15.59 63.33 15.01 67.66
								 11.99 69.97 Z" class="st9"/>
				</g>
				<g id="shape296-41" v:mID="296" v:groupContext="shape" transform="translate(1.80036,-1.42721)">
					<title>Sheet.296</title>
					<g id="shadow296-42" v:groupContext="shadow" v:shadowOffsetX="0.3456" v:shadowOffsetY="-1.9728"
							v:shadowType="1" transform="matrix(1,0,0,1,0.3456,1.9728)" class="st2">
						<path d="M8.92 67.13 C9.42 67.79 10.35 67.9 11 67.41 C11.03 67.38 11.06 67.35 11.09 67.32 C11.76 67.79 12.22
									 68.1 12.48 68.28 C12.56 68.08 12.61 67.89 12.66 67.69 C12.39 67.48 12.02 67.2 11.48 66.76 C11.66
									 66.3 11.6 65.76 11.28 65.33 C10.82 64.74 10 64.59 9.36 64.95 C8.66 64.32 7.89 63.6 7.08 62.79
									 C9.6 61.43 11.4 61.63 11.4 61.63 C11.1 61.25 10.77 60.91 10.41 60.61 C9.34 60.45 7.68 60.46
									 5.79 61.47 L5.79 61.47 L5.79 61.47 C5.16 60.81 4.52 60.1 3.86 59.34 C3.55 59.44 3.24 59.57 2.95
									 59.71 C3.43 60.5 4.08 61.3 4.81 62.08 C4.81 62.08 4.81 62.08 4.82 62.08 C4.21 62.51 3.53 63.08
									 2.9 63.74 C2.82 63.83 2.74 63.91 2.67 64 C2.29 63.92 1.9 63.94 1.53 64.08 C0.91 62.73 0.96 61.65
									 1.05 61.09 C0.78 61.37 0.53 61.67 0.31 61.99 C0.15 62.66 0.1 63.62 0.58 64.78 C0.03 65.5 0 66.54
									 0.58 67.3 C0.63 67.36 0.68 67.42 0.74 67.48 C0.48 68.35 0.37 69.18 0.33 69.9 C0.4 69.99 0.4
									 70.06 0.46 70.14 C0.79 70.57 1.21 70.93 1.61 71.25 C1.56 70.49 1.62 69.37 2.08 68.11 C2.41 68.14
									 2.74 68.09 3.05 67.96 C3.22 68.11 3.41 68.27 3.61 68.43 C4.28 68.96 4.96 69.38 5.62 69.71 C5.58
									 70.04 5.67 70.39 5.88 70.68 C6.35 71.28 7.21 71.39 7.81 70.93 C7.94 70.84 8.03 70.72 8.12 70.6
									 C9.19 70.84 10.13 70.88 10.82 70.88 C10.93 70.88 11.42 70.21 11.71 69.79 C11.28 69.88 10.03
									 70.05 8.31 69.56 C8.27 69.37 8.19 69.18 8.06 69.01 C7.63 68.44 6.83 68.32 6.24 68.7 C5.64 68.38
									 5.02 67.97 4.37 67.46 C4.24 67.36 4.12 67.26 4 67.15 C4.39 66.53 4.43 65.74 4.08 65.07 C4.16
									 64.99 4.24 64.91 4.33 64.83 C4.96 64.24 5.56 63.76 6.12 63.38 C6.1 63.36 6.08 63.33 6.06 63.31
									 C6.08 63.33 6.1 63.35 6.13 63.37 C6.13 63.37 6.13 63.37 6.12 63.37 C6.99 64.17 7.9 64.93 8.76
									 65.6 C8.54 66.09 8.57 66.68 8.92 67.13 Z" class="st3"/>
					</g>
					<path d="M8.92 67.13 C9.42 67.79 10.35 67.9 11 67.41 C11.03 67.38 11.06 67.35 11.09 67.32 C11.76 67.79 12.22
								 68.1 12.48 68.28 C12.56 68.08 12.61 67.89 12.66 67.69 C12.39 67.48 12.02 67.2 11.48 66.76 C11.66
								 66.3 11.6 65.76 11.28 65.33 C10.82 64.74 10 64.59 9.36 64.95 C8.66 64.32 7.89 63.6 7.08 62.79 C9.6
								 61.43 11.4 61.63 11.4 61.63 C11.1 61.25 10.77 60.91 10.41 60.61 C9.34 60.45 7.68 60.46 5.79 61.47
								 L5.79 61.47 L5.79 61.47 C5.16 60.81 4.52 60.1 3.86 59.34 C3.55 59.44 3.24 59.57 2.95 59.71 C3.43
								 60.5 4.08 61.3 4.81 62.08 C4.81 62.08 4.81 62.08 4.82 62.08 C4.21 62.51 3.53 63.08 2.9 63.74 C2.82
								 63.83 2.74 63.91 2.67 64 C2.29 63.92 1.9 63.94 1.53 64.08 C0.91 62.73 0.96 61.65 1.05 61.09 C0.78
								 61.37 0.53 61.67 0.31 61.99 C0.15 62.66 0.1 63.62 0.58 64.78 C0.03 65.5 0 66.54 0.58 67.3 C0.63
								 67.36 0.68 67.42 0.74 67.48 C0.48 68.35 0.37 69.18 0.33 69.9 C0.4 69.99 0.4 70.06 0.46 70.14 C0.79
								 70.57 1.21 70.93 1.61 71.25 C1.56 70.49 1.62 69.37 2.08 68.11 C2.41 68.14 2.74 68.09 3.05 67.96
								 C3.22 68.11 3.41 68.27 3.61 68.43 C4.28 68.96 4.96 69.38 5.62 69.71 C5.58 70.04 5.67 70.39 5.88
								 70.68 C6.35 71.28 7.21 71.39 7.81 70.93 C7.94 70.84 8.03 70.72 8.12 70.6 C9.19 70.84 10.13 70.88
								 10.82 70.88 C10.93 70.88 11.42 70.21 11.71 69.79 C11.28 69.88 10.03 70.05 8.31 69.56 C8.27 69.37
								 8.19 69.18 8.06 69.01 C7.63 68.44 6.83 68.32 6.24 68.7 C5.64 68.38 5.02 67.97 4.37 67.46 C4.24 67.36
								 4.12 67.26 4 67.15 C4.39 66.53 4.43 65.74 4.08 65.07 C4.16 64.99 4.24 64.91 4.33 64.83 C4.96 64.24
								 5.56 63.76 6.12 63.38 C6.1 63.36 6.08 63.33 6.06 63.31 C6.08 63.33 6.1 63.35 6.13 63.37 C6.13 63.37
								 6.13 63.37 6.12 63.37 C6.99 64.17 7.9 64.93 8.76 65.6 C8.54 66.09 8.57 66.68 8.92 67.13 Z"
							class="st10"/>
				</g>
			</g>
			<g id="group297-46" transform="translate(36.2126,-4.62795)" v:mID="297" v:groupContext="group">
				<title>Azure Portal - Web Apps.297</title>
				<g id="shape298-47" v:mID="298" v:groupContext="shape">
					<title>Sheet.298</title>
					<g id="shadow298-48" v:groupContext="shadow" v:shadowOffsetX="0.3456" v:shadowOffsetY="-1.9728"
							v:shadowType="1" transform="matrix(1,0,0,1,0.3456,1.9728)" class="st2">
						<path d="M6.81 70.59 C6.1 71.13 5.26 71.39 4.43 71.39 C3.25 71.39 2.09 70.86 1.32 69.86 C0 68.14 0.32 65.68
									 2.05 64.36 C2.76 63.81 3.6 63.55 4.43 63.55 C5.6 63.55 6.77 64.08 7.54 65.09 C8.86 66.81 8.53
									 69.27 6.81 70.59 Z" class="st3"/>
					</g>
					<path d="M6.81 70.59 C6.1 71.13 5.26 71.39 4.43 71.39 C3.25 71.39 2.09 70.86 1.32 69.86 C0 68.14 0.32 65.68 2.05
								 64.36 C2.76 63.81 3.6 63.55 4.43 63.55 C5.6 63.55 6.77 64.08 7.54 65.09 C8.86 66.81 8.53 69.27 6.81
								 70.59 Z" class="st9"/>
				</g>
				<g id="shape299-52" v:mID="299" v:groupContext="shape" transform="translate(1.02293,-0.810914)">
					<title>Sheet.299</title>
					<g id="shadow299-53" v:groupContext="shadow" v:shadowOffsetX="0.3456" v:shadowOffsetY="-1.9728"
							v:shadowType="1" transform="matrix(1,0,0,1,0.3456,1.9728)" class="st2">
						<path d="M5.07 68.97 C5.35 69.34 5.88 69.41 6.25 69.13 C6.27 69.11 6.28 69.1 6.3 69.08 C6.68 69.35 6.94 69.52
									 7.09 69.62 C7.13 69.51 7.16 69.4 7.2 69.29 C7.04 69.17 6.83 69.01 6.52 68.76 C6.62 68.5 6.59
									 68.19 6.41 67.95 C6.15 67.61 5.68 67.53 5.32 67.73 C4.92 67.38 4.48 66.97 4.02 66.51 C5.46 65.73
									 6.48 65.85 6.48 65.85 C6.31 65.63 6.12 65.44 5.91 65.27 C5.31 65.17 4.37 65.18 3.29 65.76 L3.29
									 65.76 L3.29 65.76 C2.93 65.38 2.57 64.98 2.19 64.55 C2.02 64.6 1.84 64.67 1.67 64.76 C1.95 65.21
									 2.32 65.66 2.73 66.1 C2.73 66.1 2.74 66.1 2.74 66.1 C2.39 66.35 2 66.67 1.65 67.05 C1.6 67.09
									 1.56 67.14 1.52 67.19 C1.3 67.15 1.08 67.16 0.87 67.24 C0.51 66.47 0.54 65.85 0.6 65.54 C0.45
									 65.7 0.3 65.87 0.18 66.05 C0.08 66.43 0.06 66.97 0.33 67.63 C0.01 68.05 0 68.63 0.33 69.07 C0.36
									 69.1 0.39 69.14 0.42 69.17 C0.27 69.66 0.21 70.14 0.19 70.54 C0.23 70.59 0.23 70.63 0.26 70.68
									 C0.45 70.93 0.69 71.13 0.92 71.31 C0.89 70.88 0.92 70.25 1.18 69.53 C1.37 69.54 1.56 69.51 1.73
									 69.44 C1.83 69.53 1.94 69.62 2.05 69.71 C2.43 70.01 2.82 70.25 3.19 70.44 C3.17 70.63 3.22 70.82
									 3.34 70.99 C3.61 71.33 4.1 71.39 4.44 71.13 C4.51 71.08 4.56 71.01 4.61 70.94 C5.22 71.08 5.75
									 71.1 6.15 71.1 C6.21 71.1 6.49 70.72 6.65 70.48 C6.41 70.53 5.7 70.63 4.72 70.35 C4.7 70.24
									 4.65 70.14 4.58 70.04 C4.33 69.72 3.88 69.65 3.54 69.86 C3.21 69.68 2.85 69.45 2.48 69.16 C2.41
									 69.1 2.34 69.04 2.27 68.98 C2.49 68.63 2.52 68.18 2.32 67.8 C2.37 67.75 2.41 67.71 2.46 67.67
									 C2.82 67.33 3.16 67.06 3.48 66.84 C3.47 66.83 3.46 66.81 3.44 66.8 C3.46 66.81 3.47 66.83 3.48
									 66.84 C3.48 66.84 3.48 66.84 3.48 66.84 C3.97 67.29 4.49 67.72 4.98 68.1 C4.85 68.38 4.87 68.71
									 5.07 68.97 Z" class="st3"/>
					</g>
					<path d="M5.07 68.97 C5.35 69.34 5.88 69.41 6.25 69.13 C6.27 69.11 6.28 69.1 6.3 69.08 C6.68 69.35 6.94 69.52
								 7.09 69.62 C7.13 69.51 7.16 69.4 7.2 69.29 C7.04 69.17 6.83 69.01 6.52 68.76 C6.62 68.5 6.59 68.19
								 6.41 67.95 C6.15 67.61 5.68 67.53 5.32 67.73 C4.92 67.38 4.48 66.97 4.02 66.51 C5.46 65.73 6.48
								 65.85 6.48 65.85 C6.31 65.63 6.12 65.44 5.91 65.27 C5.31 65.17 4.37 65.18 3.29 65.76 L3.29 65.76
								 L3.29 65.76 C2.93 65.38 2.57 64.98 2.19 64.55 C2.02 64.6 1.84 64.67 1.67 64.76 C1.95 65.21 2.32
								 65.66 2.73 66.1 C2.73 66.1 2.74 66.1 2.74 66.1 C2.39 66.35 2 66.67 1.65 67.05 C1.6 67.09 1.56 67.14
								 1.52 67.19 C1.3 67.15 1.08 67.16 0.87 67.24 C0.51 66.47 0.54 65.85 0.6 65.54 C0.45 65.7 0.3 65.87
								 0.18 66.05 C0.08 66.43 0.06 66.97 0.33 67.63 C0.01 68.05 0 68.63 0.33 69.07 C0.36 69.1 0.39 69.14
								 0.42 69.17 C0.27 69.66 0.21 70.14 0.19 70.54 C0.23 70.59 0.23 70.63 0.26 70.68 C0.45 70.93 0.69
								 71.13 0.92 71.31 C0.89 70.88 0.92 70.25 1.18 69.53 C1.37 69.54 1.56 69.51 1.73 69.44 C1.83 69.53
								 1.94 69.62 2.05 69.71 C2.43 70.01 2.82 70.25 3.19 70.44 C3.17 70.63 3.22 70.82 3.34 70.99 C3.61
								 71.33 4.1 71.39 4.44 71.13 C4.51 71.08 4.56 71.01 4.61 70.94 C5.22 71.08 5.75 71.1 6.15 71.1 C6.21
								 71.1 6.49 70.72 6.65 70.48 C6.41 70.53 5.7 70.63 4.72 70.35 C4.7 70.24 4.65 70.14 4.58 70.04 C4.33
								 69.72 3.88 69.65 3.54 69.86 C3.21 69.68 2.85 69.45 2.48 69.16 C2.41 69.1 2.34 69.04 2.27 68.98 C2.49
								 68.63 2.52 68.18 2.32 67.8 C2.37 67.75 2.41 67.71 2.46 67.67 C2.82 67.33 3.16 67.06 3.48 66.84 C3.47
								 66.83 3.46 66.81 3.44 66.8 C3.46 66.81 3.47 66.83 3.48 66.84 C3.48 66.84 3.48 66.84 3.48 66.84 C3.97
								 67.29 4.49 67.72 4.98 68.1 C4.85 68.38 4.87 68.71 5.07 68.97 Z" class="st10"/>
				</g>
			</g>
		</g>
	</g>
</svg>
