<?xml version="1.0" encoding="UTF-8" standalone="no"?>
<!DOCTYPE svg PUBLIC "-//W3C//DTD SVG 1.1//EN" "http://www.w3.org/Graphics/SVG/1.1/DTD/svg11.dtd">
<!-- Generated by Microsoft Visio, SVG Export SoftDelete.svg Page-1 -->
<svg xmlns="http://www.w3.org/2000/svg" xmlns:xlink="http://www.w3.org/1999/xlink" xmlns:ev="http://www.w3.org/2001/xml-events"
		xmlns:v="http://schemas.microsoft.com/visio/2003/SVGExtensions/" width="0.90606in" height="0.865092in"
		viewBox="0 0 65.2363 62.2866" xml:space="preserve" color-interpolation-filters="sRGB" class="st10">
	<v:documentProperties v:langID="1033" v:viewMarkup="false"/>

	<style type="text/css">
	<![CDATA[
		.st1 {fill:#ffffff;stroke:none;stroke-linecap:round;stroke-linejoin:round;stroke-width:0.75}
		.st2 {visibility:visible}
		.st3 {fill:#5b9bd5;fill-opacity:0.22;filter:url(#filter_2);stroke:none}
		.st4 {fill:#7fba00;stroke:none;stroke-width:12.24}
		.st5 {fill:#fcd116;stroke:none;stroke-width:12.24}
		.st6 {fill:#595959}
		.st7 {fill:none;stroke:none;stroke-linecap:round;stroke-linejoin:round;stroke-width:0.75}
		.st8 {fill:#000000;font-family:Calibri;font-size:0.499992em}
		.st9 {font-size:1em}
		.st10 {fill:none;fill-rule:evenodd;font-size:12px;overflow:visible;stroke-linecap:square;stroke-miterlimit:3}
	]]>
	</style>

	<defs id="Filters">
		<filter id="filter_2">
			<feGaussianBlur stdDeviation="2"/>
		</filter>
	</defs>
	<g v:mID="0" v:index="1" v:groupContext="foregroundPage">
		<title>Page-1</title>
		<v:pageProperties v:drawingScale="0.0393701" v:pageScale="0.0393701" v:drawingUnits="24" v:shadowOffsetX="9"
				v:shadowOffsetY="-9"/>
		<g id="group554-1" transform="translate(9.03959,-7.30141)" v:mID="554" v:groupContext="group">
			<title>Sheet.554</title>
			<g id="shape552-2" v:mID="552" v:groupContext="shape" transform="translate(0.414794,-1.42109E-14)">
				<title>Sheet.552</title>
				<rect x="0" y="7.67641" width="54.9921" height="54.6102" class="st1"/>
			</g>
			<g id="group553-4" transform="translate(0,-6.29859)" v:mID="553" v:groupContext="group">
				<title>Sheet.553</title>
				<g id="group547-5" transform="translate(3.20041,-7.99731)" v:mID="547" v:groupContext="group">
					<title>Key Vault</title>
					<g id="shape548-6" v:mID="548" v:groupContext="shape">
						<title>Sheet.548</title>
						<g id="shadow548-7" v:groupContext="shadow" v:shadowOffsetX="0.3456" v:shadowOffsetY="-1.9728"
								v:shadowType="1" transform="matrix(1,0,0,1,0.3456,1.9728)" class="st2">
							<path d="M23.08 50.75 C23.08 46.99 21.28 43.69 18.55 41.58 C18.55 41.68 18.55 41.83 18.55 41.94 C18.55
										 43.07 18.24 44.15 17.77 45.08 C19.11 46.57 19.94 48.53 19.94 50.69 C19.94 55.33 16.18 59.09
										 11.54 59.09 C6.9 59.09 3.14 55.33 3.14 50.69 C3.14 48.38 4.07 46.32 5.56 44.77 C5.15 43.89
										 4.89 42.92 4.89 41.89 C4.89 41.68 4.89 41.42 4.95 41.22 C1.96 43.28 0 46.78 0 50.69 C0 57.13
										 5.15 62.29 11.54 62.29 C17.93 62.29 23.08 57.13 23.08 50.75 Z" class="st3"/>
						</g>
						<path d="M23.08 50.75 C23.08 46.99 21.28 43.69 18.55 41.58 C18.55 41.68 18.55 41.83 18.55 41.94 C18.55 43.07
									 18.24 44.15 17.77 45.08 C19.11 46.57 19.94 48.53 19.94 50.69 C19.94 55.33 16.18 59.09 11.54
									 59.09 C6.9 59.09 3.14 55.33 3.14 50.69 C3.14 48.38 4.07 46.32 5.56 44.77 C5.15 43.89 4.89 42.92
									 4.89 41.89 C4.89 41.68 4.89 41.42 4.95 41.22 C1.96 43.28 0 46.78 0 50.69 C0 57.13 5.15 62.29
									 11.54 62.29 C17.93 62.29 23.08 57.13 23.08 50.75 Z" class="st4"/>
					</g>
					<g id="shape549-11" v:mID="549" v:groupContext="shape" transform="translate(6.38839,-5.46105)">
						<title>Sheet.549</title>
						<g id="shadow549-12" v:groupContext="shadow" v:shadowOffsetX="0.3456" v:shadowOffsetY="-1.9728"
								v:shadowType="1" transform="matrix(1,0,0,1,0.3456,1.9728)" class="st2">
							<path d="M5.31 41.99 C2.37 41.99 0 44.36 0 47.29 C0 49.72 1.6 51.73 3.81 52.39 L3.81 57.65 L1.34 57.65
										 L1.34 60.33 L3.81 60.33 L3.81 62.29 L6.75 62.29 L6.75 52.34 C8.96 51.73 10.56 49.66 10.56
										 47.24 C10.61 44.36 8.24 41.99 5.31 41.99 ZM5.31 44.77 C6.7 44.77 7.83 45.9 7.83 47.29 C7.83
										 48.69 6.7 49.82 5.31 49.82 C3.92 49.82 2.78 48.69 2.78 47.29 C2.78 45.9 3.92 44.77 5.31
										 44.77 Z" class="st3"/>
						</g>
						<path d="M5.31 41.99 C2.37 41.99 0 44.36 0 47.29 C0 49.72 1.6 51.73 3.81 52.39 L3.81 57.65 L1.34 57.65 L1.34
									 60.33 L3.81 60.33 L3.81 62.29 L6.75 62.29 L6.75 52.34 C8.96 51.73 10.56 49.66 10.56 47.24 C10.61
									 44.36 8.24 41.99 5.31 41.99 ZM5.31 44.77 C6.7 44.77 7.83 45.9 7.83 47.29 C7.83 48.69 6.7 49.82
									 5.31 49.82 C3.92 49.82 2.78 48.69 2.78 47.29 C2.78 45.9 3.92 44.77 5.31 44.77 Z" class="st5"/>
					</g>
				</g>
				<g id="shape550-16" v:mID="550" v:groupContext="shape" transform="translate(23.3133,0)">
					<title>Recycle bin</title>
					<v:custProps>
						<v:cp v:nameU="BackgroundShape" v:lbl="Background Shape" v:prompt="" v:type="1"
								v:format="None;Square;Circle" v:sortKey="" v:invis="false" v:ask="false" v:langID="2057" v:cal="0"
								v:val="VT4(None)"/>
						<v:cp v:nameU="IconOutline" v:lbl="Icon Outline" v:prompt="" v:type="3" v:format="" v:sortKey=""
								v:invis="false" v:ask="false" v:langID="2057" v:cal="0" v:val="VT0(0):5"/>
						<v:cp v:nameU="BackgroundOutline" v:lbl="Background Outline" v:prompt="" v:type="3" v:format=""
								v:sortKey="" v:invis="true" v:ask="false" v:langID="2057" v:cal="0" v:val="VT0(0):5"/>
						<v:cp v:nameU="IconFill" v:lbl="Icon Fill" v:prompt="" v:type="3" v:format="" v:sortKey="" v:invis="false"
								v:ask="false" v:langID="2057" v:cal="0" v:val="VT0(1):5"/>
						<v:cp v:nameU="BackgroundFill" v:lbl="Background Fill" v:prompt="" v:type="3" v:format="" v:sortKey=""
								v:invis="false" v:ask="false" v:langID="2057" v:cal="0" v:val="VT0(1):5"/>
					</v:custProps>
					<v:userDefs>
						<v:ud v:nameU="MarginX" v:prompt="" v:val="VT0(0.27806223320003):26"/>
						<v:ud v:nameU="MarginY" v:prompt="" v:val="VT0(0.2):26"/>
						<v:ud v:nameU="visShapeCategories" v:prompt="" v:val="VT4(Icon,Tile)"/>
						<v:ud v:nameU="Hastext" v:prompt="" v:val="VT0(0):5"/>
						<v:ud v:nameU="visEquivText" v:prompt="" v:val="VT4()"/>
						<v:ud v:nameU="BackgroundIndex" v:prompt="" v:val="VT0(0):26"/>
					</v:userDefs>
					<path d="M8.76 52.22 L9.64 52.22 L9.64 53.1 L8.76 53.1 L8.76 52.22 ZM11.12 51.26 L11.98 51.26 L10.84 57.32 L7.93
								 57.32 L6.81 51.26 L7.67 51.26 L8.65 56.47 L10.12 56.47 L10.13 56.47 L11.12 51.26 ZM9.47 50.51 L10.11
								 51.15 L9.47 51.79 L8.83 51.15 L9.47 50.51 ZM8.88 49.3 L9.51 49.94 L8.88 50.58 L8.24 49.94 L8.88
								 49.3 ZM13.92 45.33 L16.14 45.34 C17.07 45.34 17.69 46.12 17.69 46.91 L17.69 50.57 C17.69 51.29 16.75
								 51.29 16.75 50.57 L16.75 46.99 L16.3 46.99 L16.3 56.71 C16.3 57.09 16 57.39 15.63 57.39 C15.26 57.39
								 14.96 57.09 14.96 56.71 L14.96 51.07 L14.51 51.07 L14.51 56.71 C14.51 57.09 14.2 57.39 13.83 57.39
								 C13.46 57.39 13.16 57.09 13.16 56.71 L13.16 46.99 L12.13 48.63 C12.01 48.82 11.85 48.9 11.7 48.9
								 L9.63 48.9 C8.91 48.9 8.91 47.96 9.63 47.96 L11.44 47.96 L12.64 46.03 C12.91 45.61 13.38 45.33 13.92
								 45.33 ZM14.73 42.69 C15.39 42.69 15.93 43.23 15.93 43.89 C15.93 44.55 15.39 45.09 14.73 45.09 C14.07
								 45.09 13.53 44.55 13.53 43.89 C13.53 43.23 14.07 42.69 14.73 42.69 Z" class="st6"/>
				</g>
				<g id="shape551-19" v:mID="551" v:groupContext="shape" transform="translate(17.644,-22.0131)">
					<title>Sheet.551</title>
					<desc>90 Days Retention</desc>
					<v:textBlock v:margins="rect(4,4,4,4)" v:tabSpace="42.5197"/>
					<v:textRect cx="19.0888" cy="52.2866" width="38.18" height="20"/>
					<rect x="0" y="42.2866" width="38.1777" height="20" class="st7"/>
					<text x="9.56" y="50.49" class="st8" v:langID="1033"><v:paragraph v:horizAlign="1"/><v:tabList/>90 Days <tspan
								x="7.04" dy="1.2em" class="st9">Retention</tspan></text>				</g>
			</g>
		</g>
	</g>
</svg>
