<?xml version="1.0" encoding="UTF-8" standalone="no"?>
<!DOCTYPE svg PUBLIC "-//W3C//DTD SVG 1.1//EN" "http://www.w3.org/Graphics/SVG/1.1/DTD/svg11.dtd">
<!-- Generated by Microsoft Visio, SVG Export InetFacingNSG.svg Page-1 -->
<svg xmlns="http://www.w3.org/2000/svg" xmlns:xlink="http://www.w3.org/1999/xlink" xmlns:ev="http://www.w3.org/2001/xml-events"
		xmlns:v="http://schemas.microsoft.com/visio/2003/SVGExtensions/" width="0.885417in" height="0.861111in"
		viewBox="0 0 63.75 62" xml:space="preserve" color-interpolation-filters="sRGB" class="st17">
	<v:documentProperties v:langID="1033" v:viewMarkup="false"/>

	<style type="text/css">
	<![CDATA[
		.st1 {fill:#ffffff;stroke:none;stroke-linecap:round;stroke-linejoin:round;stroke-width:0.75}
		.st2 {visibility:visible}
		.st3 {fill:#5b9bd5;fill-opacity:0.22;filter:url(#filter_2);stroke:none}
		.st4 {fill:#c6e1f6;stroke:none;stroke-width:0.75}
		.st5 {fill:#333333;stroke:none;stroke-width:0.75}
		.st6 {fill:#909090;stroke:none;stroke-width:0.75}
		.st7 {fill:#aad2f2;stroke:none;stroke-width:0.75}
		.st8 {fill:#8090a8;stroke:none;stroke-width:0.75}
		.st9 {fill:#556a8a;stroke:none;stroke-width:0.75}
		.st10 {fill:#2b456d;stroke:none;stroke-width:0.75}
		.st11 {fill:#aab5c5;stroke:none;stroke-width:0.75}
		.st12 {fill:#3999c6;stroke:none;stroke-width:0.75}
		.st13 {fill:#59b4d9;fill-opacity:0.4;stroke:none;stroke-width:0.75}
		.st14 {fill:#ffffff;fill-opacity:0.3;stroke:none;stroke-width:0.75}
		.st15 {fill:#ffffff;fill-opacity:0.7;stroke:none;stroke-width:0.75}
		.st16 {fill:#3e3e3e;stroke:none;stroke-width:0.75}
		.st17 {fill:none;fill-rule:evenodd;font-size:12px;overflow:visible;stroke-linecap:square;stroke-miterlimit:3}
	]]>
	</style>

	<defs id="Filters">
		<filter id="filter_2">
			<feGaussianBlur stdDeviation="2"/>
		</filter>
	</defs>
	<g v:mID="0" v:index="1" v:groupContext="foregroundPage">
		<title>Page-1</title>
		<v:pageProperties v:drawingScale="1" v:pageScale="1" v:drawingUnits="19" v:shadowOffsetX="9" v:shadowOffsetY="-9"/>
		<g id="shape277-1" v:mID="277" v:groupContext="shape" transform="translate(0.375,-0.375)">
			<title>Sheet.277</title>
			<rect x="0" y="0.749998" width="63" height="61.25" class="st1"/>
		</g>
		<g id="group180-3" transform="translate(16.1246,-19.8037)" v:mID="180" v:groupContext="group">
			<title>Secure</title>
			<g id="shape181-4" v:mID="181" v:groupContext="shape" transform="translate(10.965,-2.93124)">
				<title>path6201</title>
				<g id="shadow181-5" v:groupContext="shadow" v:shadowOffsetX="0.3456" v:shadowOffsetY="-1.9728" v:shadowType="1"
						transform="matrix(1,0,0,1,0.3456,1.9728)" class="st2">
					<path d="M2.61 56.96 A2.50752 2.50752 0 0 1 3.81 57.28 A3.94543 3.94543 0 0 1 10.26 54.69 A5.79324 5.79324 0
								 0 1 21.74 55.4 A3.35617 3.35617 0 1 1 22.59 62 L2.61 62 A2.52033 2.52033 0 1 1 2.61 56.96 L2.61
								 56.96 Z" class="st3"/>
				</g>
				<path d="M2.61 56.96 A2.50752 2.50752 0 0 1 3.81 57.28 A3.94543 3.94543 0 0 1 10.26 54.69 A5.79324 5.79324 0 0 1
							 21.74 55.4 A3.35617 3.35617 0 1 1 22.59 62 L2.61 62 A2.52033 2.52033 0 1 1 2.61 56.96 L2.61 56.96 Z"
						class="st4"/>
			</g>
			<g id="shape182-9" v:mID="182" v:groupContext="shape" transform="translate(13.0051,-4.61893)">
				<title>rect6211</title>
				<g id="shadow182-10" v:groupContext="shadow" v:shadowOffsetX="0.3456" v:shadowOffsetY="-1.9728" v:shadowType="1"
						transform="matrix(1,0,0,1,0.3456,1.9728)" class="st2">
					<rect x="0" y="44.2264" width="11.5288" height="17.7736" class="st3"/>
				</g>
				<rect x="0" y="44.2264" width="11.5288" height="17.7736" class="st5"/>
			</g>
			<g id="shape183-14" v:mID="183" v:groupContext="shape" transform="translate(14.9266,-18.3895)">
				<title>rect6213</title>
				<g id="shadow183-15" v:groupContext="shadow" v:shadowOffsetX="0.3456" v:shadowOffsetY="-1.9728" v:shadowType="1"
						transform="matrix(1,0,0,1,0.3456,1.9728)" class="st2">
					<rect x="0" y="60.2386" width="7.6859" height="1.76135" class="st3"/>
				</g>
				<rect x="0" y="60.2386" width="7.6859" height="1.76135" class="st6"/>
			</g>
			<g id="shape184-19" v:mID="184" v:groupContext="shape" transform="translate(14.9266,-15.0269)">
				<title>rect6215</title>
				<g id="shadow184-20" v:groupContext="shadow" v:shadowOffsetX="0.3456" v:shadowOffsetY="-1.9728" v:shadowType="1"
						transform="matrix(1,0,0,1,0.3456,1.9728)" class="st2">
					<rect x="0" y="60.2386" width="7.6859" height="1.76135" class="st3"/>
				</g>
				<rect x="0" y="60.2386" width="7.6859" height="1.76135" class="st6"/>
			</g>
			<g id="shape185-24" v:mID="185" v:groupContext="shape" transform="translate(4.17739,-0.577432)">
				<title>path6217</title>
				<g id="shadow185-25" v:groupContext="shadow" v:shadowOffsetX="0.3456" v:shadowOffsetY="-1.9728" v:shadowType="1"
						transform="matrix(1,0,0,1,0.3456,1.9728)" class="st2">
					<path d="M3.61 61.9 A4.62115 4.62115 0 0 1 3.57 52.89 A4.48344 4.48344 0 0 1 7.93 49.07 A4.36815 4.36815 0 0
								 1 11.64 51.16 A4.40978 4.40978 0 0 1 13.6 50.7 A4.53468 4.53468 0 0 1 17.83 53.71 A4.16319 4.16319
								 0 0 1 20.46 61.57 L20.4 61.6 A3.84295 3.84295 0 0 1 19.16 61.94 L19.06 61.94 C18.52 61.99 17.78
								 62 16.62 62 L4.48 62 A3.7821 3.7821 0 0 1 3.61 61.9 Z" class="st3"/>
				</g>
				<path d="M3.61 61.9 A4.62115 4.62115 0 0 1 3.57 52.89 A4.48344 4.48344 0 0 1 7.93 49.07 A4.36815 4.36815 0 0 1 11.64
							 51.16 A4.40978 4.40978 0 0 1 13.6 50.7 A4.53468 4.53468 0 0 1 17.83 53.71 A4.16319 4.16319 0 0 1 20.46
							 61.57 L20.4 61.6 A3.84295 3.84295 0 0 1 19.16 61.94 L19.06 61.94 C18.52 61.99 17.78 62 16.62 62 L4.48
							 62 A3.7821 3.7821 0 0 1 3.61 61.9 Z" class="st7"/>
			</g>
			<g id="group186-29" v:mID="186" v:groupContext="group">
				<title>Sheet.186</title>
				<g id="shape187-30" v:mID="187" v:groupContext="shape" transform="translate(1.96152,-8.58933)">
					<title>path6221</title>
					<g id="shadow187-31" v:groupContext="shadow" v:shadowOffsetX="0.3456" v:shadowOffsetY="-1.9728"
							v:shadowType="1" transform="matrix(1,0,0,1,0.3456,1.9728)" class="st2">
						<path d="M1.36 58.64 C1.36 57.82 2.35 55.77 4.69 55.77 C7.03 55.77 7.85 57.81 7.88 58.8 C7.9 59.44 7.9 60.75
									 7.9 62 L9.26 62 C9.26 60.75 9.26 59.43 9.24 58.76 C9.2 56.95 7.75 54.4 4.69 54.4 A4.61635 4.61635
									 -180 0 0 1.16 55.95 C0.45 56.74 0 57.78 0 58.64 L0 61.85 L1.36 61.85 L1.36 58.64 Z"
								class="st3"/>
					</g>
					<path d="M1.36 58.64 C1.36 57.82 2.35 55.77 4.69 55.77 C7.03 55.77 7.85 57.81 7.88 58.8 C7.9 59.44 7.9 60.75
								 7.9 62 L9.26 62 C9.26 60.75 9.26 59.43 9.24 58.76 C9.2 56.95 7.75 54.4 4.69 54.4 A4.61635 4.61635
								 -180 0 0 1.16 55.95 C0.45 56.74 0 57.78 0 58.64 L0 61.85 L1.36 61.85 L1.36 58.64 Z" class="st8"/>
				</g>
				<g id="shape188-35" v:mID="188" v:groupContext="shape" transform="translate(0.00142514,7.81597E-14)">
					<title>path6223</title>
					<g id="shadow188-36" v:groupContext="shadow" v:shadowOffsetX="0.3456" v:shadowOffsetY="-1.9728"
							v:shadowType="1" transform="matrix(1,0,0,1,0.3456,1.9728)" class="st2">
						<path d="M12.55 52.18 L0.58 52.18 a0.546373 0.546373 -180 0 0 -0.579184 0.506429 L0 61.49 a0.546373 0.546373
									 -180 0 0 0.580611 0.506429 L12.55 62 a0.546373 0.546373 -180 0 0 0.580611 -0.506429 L13.13 52.69
									 a0.546373 0.546373 -180 0 0 -0.583464 -0.506429 Z" class="st3"/>
					</g>
					<path d="M12.55 52.18 L0.58 52.18 a0.546373 0.546373 -180 0 0 -0.579184 0.506429 L0 61.49 a0.546373 0.546373
								 -180 0 0 0.580611 0.506429 L12.55 62 a0.546373 0.546373 -180 0 0 0.580611 -0.506429 L13.13 52.69
								 a0.546373 0.546373 -180 0 0 -0.583464 -0.506429 Z" class="st9"/>
				</g>
				<g id="shape189-40" v:mID="189" v:groupContext="shape" transform="translate(1.96843E-13,-1.64055)">
					<title>rect6225</title>
					<g id="shadow189-41" v:groupContext="shadow" v:shadowOffsetX="0.3456" v:shadowOffsetY="-1.9728"
							v:shadowType="1" transform="matrix(1,0,0,1,0.3456,1.9728)" class="st2">
						<rect x="0" y="55.3565" width="13.1272" height="6.6435" class="st3"/>
					</g>
					<rect x="0" y="55.3565" width="13.1272" height="6.6435" class="st10"/>
				</g>
				<g id="shape190-45" v:mID="190" v:groupContext="shape" transform="translate(5.86602,-3.42612)">
					<title>path6227</title>
					<g id="shadow190-46" v:groupContext="shadow" v:shadowOffsetX="0.3456" v:shadowOffsetY="-1.9728"
							v:shadowType="1" transform="matrix(1,0,0,1,0.3456,1.9728)" class="st2">
						<path d="M2.02 58.99 A1.25537 1.25537 -180 1 0 -0 59.99 L0 61.3 a0.733253 0.733253 -180 0 0 1.46508 0 L1.47
									 60.04 A1.25395 1.25395 -180 0 0 2.02 58.99 Z" class="st3"/>
					</g>
					<path d="M2.02 58.99 A1.25537 1.25537 -180 1 0 -0 59.99 L0 61.3 a0.733253 0.733253 -180 0 0 1.46508 0 L1.47 60.04
								 A1.25395 1.25395 -180 0 0 2.02 58.99 Z" class="st11"/>
				</g>
			</g>
		</g>
		<g id="group263-50" transform="translate(28.4713,-26.3595)" v:mID="263" v:groupContext="group">
			<title>Network Security Group.263</title>
			<g id="shape264-51" v:mID="264" v:groupContext="shape">
				<title>Sheet.264</title>
				<path d="M5.8 53.83 C3.76 53.61 3.4 52.72 3.4 52.72 C3.4 52.72 2.94 53.87 0 53.87 L0 58.63 C0 59.21 0.32 59.75 0.76
							 60.21 C1.77 61.27 3.4 62 3.4 62 C3.4 62 6.81 60.51 6.81 58.63 L6.81 53.87 C6.44 53.87 6.1 53.85 5.8
							 53.83 Z" class="st12"/>
			</g>
			<g id="shape265-53" v:mID="265" v:groupContext="shape" transform="translate(0,-1.78553)">
				<title>Sheet.265</title>
				<path d="M4.26 57.57 L5.8 55.62 C3.76 55.4 3.4 54.5 3.4 54.5 C3.4 54.5 2.94 55.66 0 55.66 L0 60.42 C0 61 0.32 61.54
							 0.76 62 L1.92 60.55 L4.26 57.57 Z" class="st13"/>
			</g>
			<g id="group266-55" transform="translate(0.688174,-0.929965)" v:mID="266" v:groupContext="group">
				<title>Sheet.266</title>
				<g id="shape267-56" v:mID="267" v:groupContext="shape" transform="translate(0.0185993,0)">
					<title>Sheet.267</title>
					<path d="M0 58.19 L0 59.32 C0 59.79 0.26 60.21 0.61 60.59 C1.41 61.44 2.72 62 2.72 62 L2.72 58.19 L0 58.19 Z"
							class="st14"/>
				</g>
				<g id="shape268-58" v:mID="268" v:groupContext="shape" transform="translate(2.7155,0)">
					<title>Sheet.268</title>
					<path d="M0 62 C0 62 2.72 60.81 2.72 59.32 L2.72 58.19 L0 58.19 L0 62 Z" class="st15"/>
				</g>
				<g id="shape269-60" v:mID="269" v:groupContext="shape" transform="translate(0,-3.81286)">
					<title>Sheet.269</title>
					<path d="M2.72 58.41 C2.72 58.41 2.34 59.34 0 59.34 L0 62 L2.72 62 L2.72 58.41 Z" class="st15"/>
				</g>
				<g id="shape270-62" v:mID="270" v:groupContext="shape" transform="translate(2.7155,-3.81286)">
					<title>Sheet.270</title>
					<path d="M1.9 59.3 C0.28 59.12 0 58.43 0 58.43 L0 62 L2.72 62 L2.72 59.34 C2.42 59.34 2.14 59.32 1.9 59.3 Z"
							class="st14"/>
				</g>
			</g>
			<g id="group271-64" transform="translate(0.931825,-3.80988)" v:mID="271" v:groupContext="group">
				<title>Sheet.271</title>
				<g id="shape272-65" v:mID="272" v:groupContext="shape" transform="translate(-2.38559E-14,-0.0306889)">
					<title>Sheet.272</title>
					<path d="M1.55 62 L1.22 62 L0.34 60.66 C0.32 60.63 0.3 60.59 0.29 60.55 L0.28 60.55 C0.29 60.59 0.29 60.68 0.29
								 60.8 L0.29 62 L0 62 L0 60.18 L0.35 60.18 L1.19 61.48 C1.23 61.54 1.25 61.58 1.26 61.6 L1.27 61.6
								 C1.26 61.55 1.25 61.47 1.25 61.35 L1.25 60.18 L1.55 60.18 L1.55 62 Z" class="st16"/>
				</g>
				<g id="shape273-67" v:mID="273" v:groupContext="shape" transform="translate(1.91201,0)">
					<title>Sheet.273</title>
					<path d="M0 61.9 L0 61.59 C0.03 61.61 0.06 61.63 0.1 61.65 C0.14 61.67 0.18 61.69 0.22 61.71 C0.27 61.72 0.31
								 61.73 0.35 61.74 C0.4 61.75 0.44 61.75 0.47 61.75 C0.6 61.75 0.7 61.73 0.76 61.69 C0.82 61.64 0.85
								 61.58 0.85 61.5 C0.85 61.46 0.84 61.42 0.82 61.39 C0.8 61.36 0.77 61.33 0.73 61.3 C0.7 61.28 0.65
								 61.25 0.6 61.23 C0.55 61.2 0.5 61.18 0.44 61.15 C0.38 61.12 0.32 61.08 0.27 61.05 C0.21 61.02 0.17
								 60.98 0.13 60.94 C0.09 60.9 0.06 60.85 0.03 60.8 C0.01 60.75 0 60.69 0 60.62 C0 60.53 0.02 60.46
								 0.06 60.39 C0.1 60.33 0.15 60.28 0.21 60.24 C0.27 60.2 0.35 60.16 0.43 60.14 C0.51 60.13 0.59 60.11
								 0.67 60.11 C0.86 60.11 1 60.14 1.09 60.18 L1.09 60.48 C0.99 60.4 0.85 60.37 0.69 60.37 C0.65 60.37
								 0.6 60.37 0.56 60.38 C0.51 60.39 0.47 60.4 0.44 60.42 C0.4 60.44 0.37 60.47 0.35 60.5 C0.33 60.53
								 0.32 60.56 0.32 60.61 C0.32 60.65 0.33 60.68 0.34 60.71 C0.36 60.74 0.39 60.77 0.42 60.79 C0.45
								 60.82 0.49 60.84 0.54 60.87 C0.58 60.89 0.64 60.91 0.7 60.94 C0.76 60.97 0.82 61.01 0.88 61.05 C0.94
								 61.08 0.99 61.12 1.03 61.17 C1.07 61.21 1.11 61.26 1.13 61.31 C1.16 61.37 1.17 61.43 1.17 61.5 C1.17
								 61.59 1.15 61.67 1.11 61.73 C1.08 61.8 1.03 61.85 0.96 61.89 C0.9 61.93 0.83 61.96 0.74 61.97 C0.66
								 61.99 0.57 62 0.48 62 C0.45 62 0.42 62 0.37 61.99 C0.33 61.99 0.28 61.98 0.23 61.97 C0.19 61.96
								 0.14 61.95 0.1 61.94 C0.06 61.93 0.03 61.91 0 61.9 Z" class="st16"/>
				</g>
				<g id="shape274-69" v:mID="274" v:groupContext="shape" transform="translate(3.29803,-0.000371986)">
					<title>Sheet.274</title>
					<path d="M1.54 61.84 C1.35 61.95 1.14 62 0.91 62 C0.64 62 0.42 61.92 0.25 61.75 C0.08 61.58 0 61.36 0 61.08 C0
								 60.8 0.09 60.57 0.27 60.39 C0.46 60.21 0.69 60.12 0.97 60.12 C1.17 60.12 1.34 60.15 1.48 60.2 L1.48
								 60.52 C1.34 60.42 1.17 60.38 0.98 60.38 C0.79 60.38 0.63 60.44 0.5 60.57 C0.38 60.7 0.32 60.86 0.32
								 61.07 C0.32 61.27 0.37 61.44 0.48 61.56 C0.58 61.68 0.73 61.74 0.91 61.74 C1.04 61.74 1.15 61.72
								 1.24 61.67 L1.24 61.23 L0.85 61.23 L0.85 60.98 L1.54 60.98 C1.54 60.98 1.54 61.84 1.54 61.84 Z"
							class="st16"/>
				</g>
			</g>
		</g>
	</g>
</svg>
