<?xml version="1.0" encoding="UTF-8" standalone="no"?>
<!DOCTYPE svg PUBLIC "-//W3C//DTD SVG 1.1//EN" "http://www.w3.org/Graphics/SVG/1.1/DTD/svg11.dtd">
<!-- Generated by Microsoft Visio, SVG Export SQLUnderUtil.svg Page-1 -->
<svg xmlns="http://www.w3.org/2000/svg" xmlns:xlink="http://www.w3.org/1999/xlink" xmlns:ev="http://www.w3.org/2001/xml-events"
		xmlns:v="http://schemas.microsoft.com/visio/2003/SVGExtensions/" width="0.784363in" height="0.794822in"
		viewBox="0 0 56.4741 57.2272" xml:space="preserve" color-interpolation-filters="sRGB" class="st13">
	<v:documentProperties v:langID="1033" v:viewMarkup="false"/>

	<style type="text/css">
	<![CDATA[
		.st1 {fill:#ffffff;stroke:none;stroke-linecap:round;stroke-linejoin:round;stroke-width:0.75}
		.st2 {visibility:visible}
		.st3 {fill:#5b9bd5;fill-opacity:0.22;filter:url(#filter_2);stroke:none}
		.st4 {fill:#0072c6;stroke:none;stroke-width:12.24}
		.st5 {fill:#ffffff;fill-opacity:0.15;stroke:none;stroke-width:12.24}
		.st6 {fill:#ffffff;stroke:none;stroke-width:12.24}
		.st7 {fill:#7fba00;stroke:none;stroke-width:12.24}
		.st8 {fill:#b8d432;stroke:none;stroke-width:12.24}
		.st9 {fill:#0f0f0f;stroke:none;stroke-width:12.24}
		.st10 {fill:#ffffff;fill-opacity:0.098;stroke:none;stroke-width:12.24}
		.st11 {fill:#fcd116;stroke:none;stroke-width:12.24}
		.st12 {fill:#b8d432;fill-opacity:0.9;stroke:none;stroke-width:12.24}
		.st13 {fill:none;fill-rule:evenodd;font-size:12px;overflow:visible;stroke-linecap:square;stroke-miterlimit:3}
	]]>
	</style>

	<defs id="Filters">
		<filter id="filter_2">
			<feGaussianBlur stdDeviation="2"/>
		</filter>
	</defs>
	<g v:mID="0" v:index="1" v:groupContext="foregroundPage">
		<title>Page-1</title>
		<v:pageProperties v:drawingScale="0.0393701" v:pageScale="0.0393701" v:drawingUnits="24" v:shadowOffsetX="9"
				v:shadowOffsetY="-9"/>
		<g id="group572-1" transform="translate(0.375,-2.24192)" v:mID="572" v:groupContext="group">
			<title>Sheet.572</title>
			<g id="shape571-2" v:mID="571" v:groupContext="shape">
				<title>Sheet.571</title>
				<rect x="0" y="2.61692" width="54.9921" height="54.6102" class="st1"/>
			</g>
			<g id="group555-4" transform="translate(18.3942,-15.2405)" v:mID="555" v:groupContext="group">
				<title>SQL Database</title>
				<g id="shape556-5" v:mID="556" v:groupContext="shape">
					<title>Sheet.556</title>
					<g id="shadow556-6" v:groupContext="shadow" v:shadowOffsetX="0.3456" v:shadowOffsetY="-1.9728" v:shadowType="1"
							transform="matrix(1,0,0,1,0.3456,1.9728)" class="st2">
						<path d="M0 36.39 L0 53.93 C0 55.75 4.08 57.23 9.1 57.23 L9.1 36.39 C9.1 36.39 0 36.39 0 36.39 Z"
								class="st3"/>
					</g>
					<path d="M0 36.39 L0 53.93 C0 55.75 4.08 57.23 9.1 57.23 L9.1 36.39 C9.1 36.39 0 36.39 0 36.39 Z" class="st4"/>
				</g>
				<g id="shape557-10" v:mID="557" v:groupContext="shape" transform="translate(8.97708,-0.000485615)">
					<title>Sheet.557</title>
					<g id="shadow557-11" v:groupContext="shadow" v:shadowOffsetX="0.3456" v:shadowOffsetY="-1.9728"
							v:shadowType="1" transform="matrix(1,0,0,1,0.3456,1.9728)" class="st2">
						<path d="M0 57.23 L0.12 57.23 C5.15 57.23 9.23 55.75 9.23 53.93 L9.23 36.39 L0 36.39 L0 57.23 Z"
								class="st3"/>
					</g>
					<path d="M0 57.23 L0.12 57.23 C5.15 57.23 9.23 55.75 9.23 53.93 L9.23 36.39 L0 36.39 L0 57.23 Z" class="st4"/>
				</g>
				<g id="shape558-15" v:mID="558" v:groupContext="shape" transform="translate(8.97708,-0.000485615)">
					<title>Sheet.558</title>
					<g id="shadow558-16" v:groupContext="shadow" v:shadowOffsetX="0.3456" v:shadowOffsetY="-1.9728"
							v:shadowType="1" transform="matrix(1,0,0,1,0.3456,1.9728)" class="st2">
						<path d="M0 57.23 L0.12 57.23 C5.15 57.23 9.23 55.75 9.23 53.93 L9.23 36.39 L0 36.39 L0 57.23 Z"
								class="st3"/>
					</g>
					<path d="M0 57.23 L0.12 57.23 C5.15 57.23 9.23 55.75 9.23 53.93 L9.23 36.39 L0 36.39 L0 57.23 Z" class="st5"/>
				</g>
				<g id="shape559-20" v:mID="559" v:groupContext="shape" transform="translate(0,-17.5365)">
					<title>Sheet.559</title>
					<g id="shadow559-21" v:groupContext="shadow" v:shadowOffsetX="0.3456" v:shadowOffsetY="-1.9728"
							v:shadowType="1" transform="matrix(1,0,0,1,0.3456,1.9728)" class="st2">
						<path d="M18.2 53.93 C18.2 55.75 14.13 57.23 9.1 57.23 C4.08 57.23 0 55.75 0 53.93 C0 52.11 4.08 50.63 9.1
									 50.63 C14.13 50.63 18.2 52.11 18.2 53.93 Z" class="st3"/>
					</g>
					<path d="M18.2 53.93 C18.2 55.75 14.13 57.23 9.1 57.23 C4.08 57.23 0 55.75 0 53.93 C0 52.11 4.08 50.63 9.1 50.63
								 C14.13 50.63 18.2 52.11 18.2 53.93 Z" class="st6"/>
				</g>
				<g id="shape560-25" v:mID="560" v:groupContext="shape" transform="translate(1.86039,-18.8477)">
					<title>Sheet.560</title>
					<g id="shadow560-26" v:groupContext="shadow" v:shadowOffsetX="0.3456" v:shadowOffsetY="-1.9728"
							v:shadowType="1" transform="matrix(1,0,0,1,0.3456,1.9728)" class="st2">
						<path d="M14.48 55.05 C14.48 56.25 11.24 57.23 7.24 57.23 C3.24 57.23 0 56.25 0 55.05 C0 53.85 3.24 52.88
									 7.24 52.88 C11.24 52.88 14.48 53.85 14.48 55.05 Z" class="st3"/>
					</g>
					<path d="M14.48 55.05 C14.48 56.25 11.24 57.23 7.24 57.23 C3.24 57.23 0 56.25 0 55.05 C0 53.85 3.24 52.88 7.24
								 52.88 C11.24 52.88 14.48 53.85 14.48 55.05 Z" class="st7"/>
				</g>
				<g id="shape561-30" v:mID="561" v:groupContext="shape" transform="translate(1.86088,-19.6936)">
					<title>Sheet.561</title>
					<g id="shadow561-31" v:groupContext="shadow" v:shadowOffsetX="0.3456" v:shadowOffsetY="-1.9728"
							v:shadowType="1" transform="matrix(1,0,0,1,0.3456,1.9728)" class="st2">
						<path d="M12.96 57.23 C13.91 56.86 14.48 56.4 14.48 55.9 C14.48 54.7 11.24 53.72 7.24 53.72 C3.24 53.72 0
									 54.7 0 55.9 C0 56.4 0.57 56.86 1.52 57.23 C2.84 56.71 4.91 56.38 7.24 56.38 C9.57 56.38 11.64
									 56.71 12.96 57.23 Z" class="st3"/>
					</g>
					<path d="M12.96 57.23 C13.91 56.86 14.48 56.4 14.48 55.9 C14.48 54.7 11.24 53.72 7.24 53.72 C3.24 53.72 0 54.7
								 0 55.9 C0 56.4 0.57 56.86 1.52 57.23 C2.84 56.71 4.91 56.38 7.24 56.38 C9.57 56.38 11.64 56.71 12.96
								 57.23 Z" class="st8"/>
				</g>
				<g id="shape562-35" v:mID="562" v:groupContext="shape" transform="translate(2.46984,-6.94575)">
					<title>Sheet.562</title>
					<g id="shadow562-36" v:groupContext="shadow" v:shadowOffsetX="0.3456" v:shadowOffsetY="-1.9728"
							v:shadowType="1" transform="matrix(1,0,0,1,0.3456,1.9728)" class="st2">
						<path d="M3.74 55.51 C3.74 56.06 3.54 56.48 3.15 56.78 C2.75 57.08 2.21 57.23 1.51 57.23 C0.92 57.23 0.42
									 57.12 0.02 56.91 L0.02 55.62 C0.48 56.01 0.99 56.21 1.54 56.21 C1.81 56.21 2.02 56.16 2.16 56.05
									 C2.31 55.94 2.38 55.8 2.38 55.62 C2.38 55.45 2.31 55.3 2.17 55.17 C2.03 55.04 1.74 54.88 1.31
									 54.68 C0.44 54.26 0 53.7 0 52.99 C0 52.48 0.19 52.06 0.57 51.75 C0.95 51.44 1.46 51.29 2.09
									 51.29 C2.66 51.29 3.12 51.36 3.49 51.51 L3.49 52.7 C3.1 52.44 2.66 52.3 2.17 52.3 C1.92 52.3
									 1.72 52.36 1.58 52.46 C1.43 52.57 1.36 52.71 1.36 52.88 C1.36 53.07 1.42 53.22 1.54 53.33 C1.65
									 53.45 1.89 53.59 2.25 53.76 C2.79 54.02 3.17 54.27 3.4 54.53 C3.63 54.8 3.74 55.12 3.74 55.51
									 Z" class="st3"/>
					</g>
					<path d="M3.74 55.51 C3.74 56.06 3.54 56.48 3.15 56.78 C2.75 57.08 2.21 57.23 1.51 57.23 C0.92 57.23 0.42 57.12
								 0.02 56.91 L0.02 55.62 C0.48 56.01 0.99 56.21 1.54 56.21 C1.81 56.21 2.02 56.16 2.16 56.05 C2.31
								 55.94 2.38 55.8 2.38 55.62 C2.38 55.45 2.31 55.3 2.17 55.17 C2.03 55.04 1.74 54.88 1.31 54.68 C0.44
								 54.26 0 53.7 0 52.99 C0 52.48 0.19 52.06 0.57 51.75 C0.95 51.44 1.46 51.29 2.09 51.29 C2.66 51.29
								 3.12 51.36 3.49 51.51 L3.49 52.7 C3.1 52.44 2.66 52.3 2.17 52.3 C1.92 52.3 1.72 52.36 1.58 52.46
								 C1.43 52.57 1.36 52.71 1.36 52.88 C1.36 53.07 1.42 53.22 1.54 53.33 C1.65 53.45 1.89 53.59 2.25
								 53.76 C2.79 54.02 3.17 54.27 3.4 54.53 C3.63 54.8 3.74 55.12 3.74 55.51 Z" class="st6"/>
				</g>
				<g id="shape563-40" v:mID="563" v:groupContext="shape" transform="translate(6.76316,-5.61177)">
					<title>Sheet.563</title>
					<g id="shadow563-41" v:groupContext="shadow" v:shadowOffsetX="0.3456" v:shadowOffsetY="-1.9728"
							v:shadowType="1" transform="matrix(1,0,0,1,0.3456,1.9728)" class="st2">
						<path d="M5.63 52.88 C5.63 53.56 5.47 54.14 5.17 54.64 C4.86 55.14 4.43 55.48 3.87 55.68 L5.54 57.23 L3.85
									 57.23 L2.66 55.89 C2.15 55.87 1.69 55.74 1.28 55.49 C0.87 55.24 0.56 54.89 0.33 54.46 C0.11
									 54.02 0 53.53 0 53 C0 52.4 0.12 51.87 0.36 51.4 C0.6 50.94 0.94 50.58 1.38 50.33 C1.82 50.08
									 2.32 49.95 2.89 49.95 C3.42 49.95 3.89 50.07 4.31 50.32 C4.73 50.56 5.05 50.91 5.28 51.35 C5.51
									 51.8 5.63 52.31 5.63 52.88 ZM4.27 52.95 C4.27 52.37 4.14 51.91 3.89 51.57 C3.63 51.24 3.29 51.07
									 2.84 51.07 C2.4 51.07 2.04 51.24 1.77 51.57 C1.5 51.91 1.36 52.37 1.36 52.93 C1.36 53.49 1.49
									 53.94 1.76 54.27 C2.02 54.61 2.37 54.77 2.81 54.77 C3.26 54.77 3.61 54.61 3.87 54.29 C4.14 53.96
									 4.27 53.52 4.27 52.95 Z" class="st3"/>
					</g>
					<path d="M5.63 52.88 C5.63 53.56 5.47 54.14 5.17 54.64 C4.86 55.14 4.43 55.48 3.87 55.68 L5.54 57.23 L3.85 57.23
								 L2.66 55.89 C2.15 55.87 1.69 55.74 1.28 55.49 C0.87 55.24 0.56 54.89 0.33 54.46 C0.11 54.02 0 53.53
								 0 53 C0 52.4 0.12 51.87 0.36 51.4 C0.6 50.94 0.94 50.58 1.38 50.33 C1.82 50.08 2.32 49.95 2.89 49.95
								 C3.42 49.95 3.89 50.07 4.31 50.32 C4.73 50.56 5.05 50.91 5.28 51.35 C5.51 51.8 5.63 52.31 5.63 52.88
								 ZM4.27 52.95 C4.27 52.37 4.14 51.91 3.89 51.57 C3.63 51.24 3.29 51.07 2.84 51.07 C2.4 51.07 2.04
								 51.24 1.77 51.57 C1.5 51.91 1.36 52.37 1.36 52.93 C1.36 53.49 1.49 53.94 1.76 54.27 C2.02 54.61
								 2.37 54.77 2.81 54.77 C3.26 54.77 3.61 54.61 3.87 54.29 C4.14 53.96 4.27 53.52 4.27 52.95 Z"
							class="st6"/>
				</g>
				<g id="shape564-45" v:mID="564" v:groupContext="shape" transform="translate(13.3408,-7.04579)">
					<title>Sheet.564</title>
					<g id="shadow564-46" v:groupContext="shadow" v:shadowOffsetX="0.3456" v:shadowOffsetY="-1.9728"
							v:shadowType="1" transform="matrix(1,0,0,1,0.3456,1.9728)" class="st2">
						<path d="M3.42 57.23 L0 57.23 L0 51.48 L1.29 51.48 L1.29 56.18 L3.42 56.18 L3.42 57.23 Z" class="st3"/>
					</g>
					<path d="M3.42 57.23 L0 57.23 L0 51.48 L1.29 51.48 L1.29 56.18 L3.42 56.18 L3.42 57.23 Z" class="st6"/>
				</g>
			</g>
			<g id="group565-50" transform="translate(32.9129,-9.99808)" v:mID="565" v:groupContext="group">
				<title>Azure Billing</title>
				<g id="shape566-51" v:mID="566" v:groupContext="shape" transform="translate(4.68499,-3.93758)">
					<title>Sheet.566</title>
					<g id="shadow566-52" v:groupContext="shadow" v:shadowOffsetX="0.3456" v:shadowOffsetY="-1.9728"
							v:shadowType="1" transform="matrix(1,0,0,1,0.3456,1.9728)" class="st2">
						<path d="M1.54 56.25 C1.54 56.43 1.48 56.57 1.37 56.68 C1.26 56.79 1.1 56.85 0.88 56.88 L0.88 57.23 L0.65
									 57.23 L0.65 56.89 C0.43 56.89 0.23 56.84 0.04 56.74 L0.04 56.3 C0.1 56.34 0.19 56.39 0.32 56.43
									 C0.45 56.48 0.56 56.5 0.65 56.51 L0.65 55.93 C0.41 55.84 0.25 55.74 0.15 55.64 C0.05 55.53 0
									 55.4 0 55.23 C0 55.06 0.06 54.91 0.18 54.8 C0.3 54.68 0.46 54.61 0.65 54.59 L0.65 54.29 L0.88
									 54.29 L0.88 54.59 C1.11 54.6 1.28 54.63 1.39 54.7 L1.39 55.13 C1.24 55.04 1.07 54.98 0.88 54.96
									 L0.88 55.57 C1.12 55.65 1.29 55.75 1.39 55.86 C1.49 55.96 1.54 56.1 1.54 56.25 ZM0.65 55.48
									 L0.65 54.97 C0.5 54.99 0.43 55.07 0.43 55.2 C0.43 55.31 0.5 55.4 0.65 55.48 ZM1.11 56.27 C1.11
									 56.17 1.04 56.09 0.88 56.02 L0.88 56.5 C1.04 56.48 1.11 56.4 1.11 56.27 Z" class="st3"/>
					</g>
					<path d="M1.54 56.25 C1.54 56.43 1.48 56.57 1.37 56.68 C1.26 56.79 1.1 56.85 0.88 56.88 L0.88 57.23 L0.65 57.23
								 L0.65 56.89 C0.43 56.89 0.23 56.84 0.04 56.74 L0.04 56.3 C0.1 56.34 0.19 56.39 0.32 56.43 C0.45
								 56.48 0.56 56.5 0.65 56.51 L0.65 55.93 C0.41 55.84 0.25 55.74 0.15 55.64 C0.05 55.53 0 55.4 0 55.23
								 C0 55.06 0.06 54.91 0.18 54.8 C0.3 54.68 0.46 54.61 0.65 54.59 L0.65 54.29 L0.88 54.29 L0.88 54.59
								 C1.11 54.6 1.28 54.63 1.39 54.7 L1.39 55.13 C1.24 55.04 1.07 54.98 0.88 54.96 L0.88 55.57 C1.12
								 55.65 1.29 55.75 1.39 55.86 C1.49 55.96 1.54 56.1 1.54 56.25 ZM0.65 55.48 L0.65 54.97 C0.5 54.99
								 0.43 55.07 0.43 55.2 C0.43 55.31 0.5 55.4 0.65 55.48 ZM1.11 56.27 C1.11 56.17 1.04 56.09 0.88 56.02
								 L0.88 56.5 C1.04 56.48 1.11 56.4 1.11 56.27 Z" class="st9"/>
				</g>
				<g id="shape567-56" v:mID="567" v:groupContext="shape">
					<title>Sheet.567</title>
					<g id="shadow567-57" v:groupContext="shadow" v:shadowOffsetX="0.3456" v:shadowOffsetY="-1.9728"
							v:shadowType="1" transform="matrix(1,0,0,1,0.3456,1.9728)" class="st2">
						<path d="M5.47 54.78 C3.8 54.78 2.45 53.42 2.45 51.75 C2.45 50.08 3.8 48.73 5.47 48.73 C7.14 48.73 8.5 50.08
									 8.5 51.75 L10.95 51.75 C10.95 48.73 8.5 46.28 5.47 46.28 L5.47 46.28 C2.45 46.28 0 48.73 0 51.75
									 C0 54.78 2.45 57.23 5.47 57.23 C6.87 57.23 8.15 56.7 9.12 55.84 L7.48 54.01 C6.95 54.48 6.25
									 54.78 5.47 54.78 Z" class="st3"/>
					</g>
					<path d="M5.47 54.78 C3.8 54.78 2.45 53.42 2.45 51.75 C2.45 50.08 3.8 48.73 5.47 48.73 C7.14 48.73 8.5 50.08
								 8.5 51.75 L10.95 51.75 C10.95 48.73 8.5 46.28 5.47 46.28 L5.47 46.28 C2.45 46.28 0 48.73 0 51.75
								 C0 54.78 2.45 57.23 5.47 57.23 C6.87 57.23 8.15 56.7 9.12 55.84 L7.48 54.01 C6.95 54.48 6.25 54.78
								 5.47 54.78 Z" class="st7"/>
				</g>
				<g id="shape568-61" v:mID="568" v:groupContext="shape">
					<title>Sheet.568</title>
					<g id="shadow568-62" v:groupContext="shadow" v:shadowOffsetX="0.3456" v:shadowOffsetY="-1.9728"
							v:shadowType="1" transform="matrix(1,0,0,1,0.3456,1.9728)" class="st2">
						<path d="M5.47 54.78 C3.8 54.78 2.45 53.42 2.45 51.75 C2.45 50.08 3.8 48.73 5.47 48.73 C7.14 48.73 8.5 50.08
									 8.5 51.75 L10.95 51.75 C10.95 48.73 8.5 46.28 5.47 46.28 L5.47 46.28 C2.45 46.28 0 48.73 0 51.75
									 C0 54.78 2.45 57.23 5.47 57.23 C6.87 57.23 8.15 56.7 9.12 55.84 L7.48 54.01 C6.95 54.48 6.25
									 54.78 5.47 54.78 Z" class="st3"/>
					</g>
					<path d="M5.47 54.78 C3.8 54.78 2.45 53.42 2.45 51.75 C2.45 50.08 3.8 48.73 5.47 48.73 C7.14 48.73 8.5 50.08
								 8.5 51.75 L10.95 51.75 C10.95 48.73 8.5 46.28 5.47 46.28 L5.47 46.28 C2.45 46.28 0 48.73 0 51.75
								 C0 54.78 2.45 57.23 5.47 57.23 C6.87 57.23 8.15 56.7 9.12 55.84 L7.48 54.01 C6.95 54.48 6.25 54.78
								 5.47 54.78 Z" class="st10"/>
				</g>
				<g id="shape569-66" v:mID="569" v:groupContext="shape" transform="translate(7.48372,-1.39017)">
					<title>Sheet.569</title>
					<g id="shadow569-67" v:groupContext="shadow" v:shadowOffsetX="0.3456" v:shadowOffsetY="-1.9728"
							v:shadowType="1" transform="matrix(1,0,0,1,0.3456,1.9728)" class="st2">
						<path d="M3.46 53.14 L1.01 53.14 C1.01 54.04 0.62 54.84 0 55.4 L1.63 57.23 C2.75 56.22 3.46 54.77 3.46 53.14
									 Z" class="st3"/>
					</g>
					<path d="M3.46 53.14 L1.01 53.14 C1.01 54.04 0.62 54.84 0 55.4 L1.63 57.23 C2.75 56.22 3.46 54.77 3.46 53.14 Z"
							class="st11"/>
				</g>
				<g id="shape570-71" v:mID="570" v:groupContext="shape" transform="translate(5.4729,-5.47334)">
					<title>Sheet.570</title>
					<g id="shadow570-72" v:groupContext="shadow" v:shadowOffsetX="0.3456" v:shadowOffsetY="-1.9728"
							v:shadowType="1" transform="matrix(1,0,0,1,0.3456,1.9728)" class="st2">
						<path d="M3.02 57.23 L5.47 57.23 C5.47 54.2 3.02 51.75 0 51.75 L0 54.2 C1.67 54.2 3.02 55.56 3.02 57.23 Z"
								class="st3"/>
					</g>
					<path d="M3.02 57.23 L5.47 57.23 C5.47 54.2 3.02 51.75 0 51.75 L0 54.2 C1.67 54.2 3.02 55.56 3.02 57.23 Z"
							class="st12"/>
				</g>
			</g>
		</g>
	</g>
</svg>
