<?xml version="1.0" encoding="UTF-8" standalone="no"?>
<!DOCTYPE svg PUBLIC "-//W3C//DTD SVG 1.1//EN" "http://www.w3.org/Graphics/SVG/1.1/DTD/svg11.dtd">
<!-- Generated by Microsoft Visio, SVG Export RebootVm.svg Page-1 -->
<svg xmlns="http://www.w3.org/2000/svg" xmlns:xlink="http://www.w3.org/1999/xlink" xmlns:ev="http://www.w3.org/2001/xml-events"
		xmlns:v="http://schemas.microsoft.com/visio/2003/SVGExtensions/" width="0.885417in" height="0.861111in"
		viewBox="0 0 63.75 62" xml:space="preserve" color-interpolation-filters="sRGB" class="st12">
	<v:documentProperties v:langID="1033" v:viewMarkup="false"/>

	<style type="text/css">
	<![CDATA[
		.st1 {fill:#ffffff;stroke:none;stroke-linecap:round;stroke-linejoin:round;stroke-width:0.75}
		.st2 {visibility:visible}
		.st3 {fill:#5b9bd5;fill-opacity:0.22;filter:url(#filter_2);stroke:none}
		.st4 {fill:#7a7a7a;stroke:none;stroke-width:12.24}
		.st5 {fill:#a0a1a2;stroke:none;stroke-width:12.24}
		.st6 {fill:#ffffff;fill-opacity:0.2;stroke:none;stroke-width:12.24}
		.st7 {fill:#f2f2f2;stroke:none;stroke-width:12.24}
		.st8 {fill:#59b4d9;stroke:none;stroke-width:12.24}
		.st9 {fill:#b8d432;stroke:none;stroke-width:12.24}
		.st10 {fill:#fcd116;stroke:none;stroke-width:12.24}
		.st11 {fill:#ff8c00;fill-opacity:0.3;stroke:none;stroke-width:12.24}
		.st12 {fill:none;fill-rule:evenodd;font-size:12px;overflow:visible;stroke-linecap:square;stroke-miterlimit:3}
	]]>
	</style>

	<defs id="Filters">
		<filter id="filter_2">
			<feGaussianBlur stdDeviation="2"/>
		</filter>
	</defs>
	<g v:mID="0" v:index="1" v:groupContext="foregroundPage">
		<title>Page-1</title>
		<v:pageProperties v:drawingScale="1" v:pageScale="1" v:drawingUnits="19" v:shadowOffsetX="9" v:shadowOffsetY="-9"/>
		<g id="shape677-1" v:mID="677" v:groupContext="shape" transform="translate(0.375,-0.375)">
			<title>Sheet.677</title>
			<rect x="0" y="0.749998" width="63" height="61.25" class="st1"/>
		</g>
		<g id="group666-3" transform="translate(18.8024,-16.2481)" v:mID="666" v:groupContext="group">
			<title>Azure Portal - Virtual Machines.666</title>
			<g id="shape667-4" v:mID="667" v:groupContext="shape" transform="translate(4.52565,0)">
				<title>Sheet.667</title>
				<g id="shadow667-5" v:groupContext="shadow" v:shadowOffsetX="0.3456" v:shadowOffsetY="-1.9728" v:shadowType="1"
						transform="matrix(1,0,0,1,0.3456,1.9728)" class="st2">
					<path d="M12.43 56.97 L11.81 56.97 L5.64 56.97 L5.32 56.97 C6.17 59.99 5.03 60.42 0 60.42 L0 62 L6.39 62 L11.06
								 62 L17.09 62 L17.09 60.42 C12.07 60.42 11.57 59.99 12.43 56.97 Z" class="st3"/>
				</g>
				<path d="M12.43 56.97 L11.81 56.97 L5.64 56.97 L5.32 56.97 C6.17 59.99 5.03 60.42 0 60.42 L0 62 L6.39 62 L11.06 62
							 L17.09 62 L17.09 60.42 C12.07 60.42 11.57 59.99 12.43 56.97 Z" class="st4"/>
			</g>
			<g id="shape668-9" v:mID="668" v:groupContext="shape" transform="translate(0.000522895,-5.02659)">
				<title>Sheet.668</title>
				<g id="shadow668-10" v:groupContext="shadow" v:shadowOffsetX="0.3456" v:shadowOffsetY="-1.9728" v:shadowType="1"
						transform="matrix(1,0,0,1,0.3456,1.9728)" class="st2">
					<path d="M24.57 42.9 L1.42 42.9 C0.63 42.9 0 43.6 0 44.38 L0 60.52 C0 61.3 0.63 62 1.42 62 L24.57 62 C25.35 62
								 26.14 61.3 26.14 60.52 L26.14 44.38 C26.14 43.6 25.35 42.9 24.57 42.9 Z" class="st3"/>
				</g>
				<path d="M24.57 42.9 L1.42 42.9 C0.63 42.9 0 43.6 0 44.38 L0 60.52 C0 61.3 0.63 62 1.42 62 L24.57 62 C25.35 62 26.14
							 61.3 26.14 60.52 L26.14 44.38 C26.14 43.6 25.35 42.9 24.57 42.9 Z" class="st5"/>
			</g>
			<g id="shape669-14" v:mID="669" v:groupContext="shape" transform="translate(0,-5.02606)">
				<title>Sheet.669</title>
				<g id="shadow669-15" v:groupContext="shadow" v:shadowOffsetX="0.3456" v:shadowOffsetY="-1.9728" v:shadowType="1"
						transform="matrix(1,0,0,1,0.3456,1.9728)" class="st2">
					<path d="M24.58 42.9 C24.58 42.9 24.57 42.9 24.57 42.9 L1.42 42.9 C0.63 42.9 0 43.6 0 44.38 L0 60.52 C0 61.3
								 0.63 62 1.42 62 L1.97 62 L24.58 42.9 Z" class="st3"/>
				</g>
				<path d="M24.58 42.9 C24.58 42.9 24.57 42.9 24.57 42.9 L1.42 42.9 C0.63 42.9 0 43.6 0 44.38 L0 60.52 C0 61.3 0.63
							 62 1.42 62 L1.97 62 L24.58 42.9 Z" class="st6"/>
			</g>
			<g id="shape670-19" v:mID="670" v:groupContext="shape" transform="translate(1.98177,-7.03816)">
				<title>Sheet.670</title>
				<g id="shadow670-20" v:groupContext="shadow" v:shadowOffsetX="0.3456" v:shadowOffsetY="-1.9728" v:shadowType="1"
						transform="matrix(1,0,0,1,0.3456,1.9728)" class="st2">
					<rect x="0" y="46.9192" width="22.1226" height="15.0808" class="st3"/>
				</g>
				<rect x="0" y="46.9192" width="22.1226" height="15.0808" class="st7"/>
			</g>
			<g id="shape671-24" v:mID="671" v:groupContext="shape" transform="translate(1.98177,-7.03816)">
				<title>Sheet.671</title>
				<g id="shadow671-25" v:groupContext="shadow" v:shadowOffsetX="0.3456" v:shadowOffsetY="-1.9728" v:shadowType="1"
						transform="matrix(1,0,0,1,0.3456,1.9728)" class="st2">
					<path d="M0 62 L0.03 62 L0.03 46.92 L20.26 46.89 L20.26 46.89 L0 46.92 L0 62 Z" class="st3"/>
				</g>
				<path d="M0 62 L0.03 62 L0.03 46.92 L20.26 46.89 L20.26 46.89 L0 46.92 L0 62 Z" class="st8"/>
			</g>
			<g id="shape672-29" v:mID="672" v:groupContext="shape" transform="translate(4.52565,-1.42109E-14)">
				<title>Sheet.672</title>
				<g id="shadow672-30" v:groupContext="shadow" v:shadowOffsetX="0.3456" v:shadowOffsetY="-1.9728" v:shadowType="1"
						transform="matrix(1,0,0,1,0.3456,1.9728)" class="st2">
					<rect x="0" y="60.4203" width="17.0945" height="1.57966" class="st3"/>
				</g>
				<rect x="0" y="60.4203" width="17.0945" height="1.57966" class="st5"/>
			</g>
			<g id="shape673-34" v:mID="673" v:groupContext="shape" transform="translate(12.6012,-22.6643)">
				<title>Sheet.673</title>
				<g id="shadow673-35" v:groupContext="shadow" v:shadowOffsetX="0.3456" v:shadowOffsetY="-1.9728" v:shadowType="1"
						transform="matrix(1,0,0,1,0.3456,1.9728)" class="st2">
					<path d="M0.74 61.63 C0.74 61.83 0.58 62 0.37 62 C0.17 62 0 61.83 0 61.63 C0 61.42 0.17 61.26 0.37 61.26 C0.58
								 61.26 0.74 61.42 0.74 61.63 Z" class="st3"/>
				</g>
				<path d="M0.74 61.63 C0.74 61.83 0.58 62 0.37 62 C0.17 62 0 61.83 0 61.63 C0 61.42 0.17 61.26 0.37 61.26 C0.58 61.26
							 0.74 61.42 0.74 61.63 Z" class="st9"/>
			</g>
		</g>
		<g id="group660-39" transform="translate(25.7094,-25.4126)" v:mID="660" v:groupContext="group">
			<title>Azure Automation</title>
			<g id="shape661-40" v:mID="661" v:groupContext="shape" transform="translate(2.8709,-1.0982)">
				<title>Sheet.661</title>
				<g id="shadow661-41" v:groupContext="shadow" v:shadowOffsetX="0.3456" v:shadowOffsetY="-1.9728" v:shadowType="1"
						transform="matrix(1,0,0,1,0.3456,1.9728)" class="st2">
					<path d="M8.54 57.26 C8.54 57.17 8.54 57.08 8.53 56.99 L9.46 56.47 C9.41 56.17 9.33 55.87 9.22 55.58 L8.16 55.6
								 C8.08 55.43 7.99 55.27 7.89 55.12 L8.43 54.21 C8.24 53.97 8.02 53.75 7.78 53.56 L7.24 53.88 L7.02
								 54.22 L6.53 54.94 C7.22 55.48 7.67 56.32 7.67 57.26 C7.67 58.89 6.35 60.21 4.73 60.21 C3.11 60.21
								 1.79 58.89 1.79 57.26 C1.79 55.81 2.84 54.61 4.23 54.37 L4.45 53.46 L3.94 52.53 C3.63 52.58 3.33
								 52.66 3.05 52.77 L3.06 53.83 C2.9 53.91 2.74 54 2.59 54.1 L1.68 53.56 C1.44 53.75 1.22 53.97 1.02
								 54.21 L1.57 55.12 C1.47 55.27 1.38 55.43 1.3 55.6 L0.24 55.58 C0.13 55.87 0.05 56.17 0 56.47 L0.93
								 56.99 C0.92 57.08 0.92 57.17 0.92 57.26 C0.92 57.36 0.92 57.45 0.93 57.54 L0 58.05 C0.05 58.36 0.13
								 58.66 0.24 58.95 L1.3 58.93 C1.38 59.09 1.47 59.26 1.57 59.41 L1.03 60.32 C1.22 60.56 1.44 60.78
								 1.68 60.98 L2.59 60.42 C2.74 60.53 2.9 60.62 3.06 60.7 L3.05 61.76 C3.33 61.87 3.63 61.95 3.94 62
								 L4.46 61.07 C4.55 61.08 4.64 61.08 4.73 61.08 C4.82 61.08 4.91 61.08 5 61.07 L5.52 62 C5.83 61.95
								 6.13 61.87 6.41 61.76 L6.39 60.7 C6.56 60.62 6.72 60.53 6.87 60.42 L7.78 60.97 C8.02 60.78 8.24
								 60.56 8.44 60.32 L7.89 59.41 C7.99 59.26 8.08 59.09 8.16 58.93 L9.22 58.95 C9.33 58.66 9.41 58.36
								 9.46 58.05 L8.53 57.54 C8.54 57.45 8.54 57.36 8.54 57.26 Z" class="st3"/>
				</g>
				<path d="M8.54 57.26 C8.54 57.17 8.54 57.08 8.53 56.99 L9.46 56.47 C9.41 56.17 9.33 55.87 9.22 55.58 L8.16 55.6 C8.08
							 55.43 7.99 55.27 7.89 55.12 L8.43 54.21 C8.24 53.97 8.02 53.75 7.78 53.56 L7.24 53.88 L7.02 54.22 L6.53
							 54.94 C7.22 55.48 7.67 56.32 7.67 57.26 C7.67 58.89 6.35 60.21 4.73 60.21 C3.11 60.21 1.79 58.89 1.79
							 57.26 C1.79 55.81 2.84 54.61 4.23 54.37 L4.45 53.46 L3.94 52.53 C3.63 52.58 3.33 52.66 3.05 52.77 L3.06
							 53.83 C2.9 53.91 2.74 54 2.59 54.1 L1.68 53.56 C1.44 53.75 1.22 53.97 1.02 54.21 L1.57 55.12 C1.47 55.27
							 1.38 55.43 1.3 55.6 L0.24 55.58 C0.13 55.87 0.05 56.17 0 56.47 L0.93 56.99 C0.92 57.08 0.92 57.17 0.92
							 57.26 C0.92 57.36 0.92 57.45 0.93 57.54 L0 58.05 C0.05 58.36 0.13 58.66 0.24 58.95 L1.3 58.93 C1.38
							 59.09 1.47 59.26 1.57 59.41 L1.03 60.32 C1.22 60.56 1.44 60.78 1.68 60.98 L2.59 60.42 C2.74 60.53 2.9
							 60.62 3.06 60.7 L3.05 61.76 C3.33 61.87 3.63 61.95 3.94 62 L4.46 61.07 C4.55 61.08 4.64 61.08 4.73 61.08
							 C4.82 61.08 4.91 61.08 5 61.07 L5.52 62 C5.83 61.95 6.13 61.87 6.41 61.76 L6.39 60.7 C6.56 60.62 6.72
							 60.53 6.87 60.42 L7.78 60.97 C8.02 60.78 8.24 60.56 8.44 60.32 L7.89 59.41 C7.99 59.26 8.08 59.09 8.16
							 58.93 L9.22 58.95 C9.33 58.66 9.41 58.36 9.46 58.05 L8.53 57.54 C8.54 57.45 8.54 57.36 8.54 57.26 Z"
						class="st5"/>
			</g>
			<g id="shape662-45" v:mID="662" v:groupContext="shape">
				<title>Sheet.662</title>
				<g id="shadow662-46" v:groupContext="shadow" v:shadowOffsetX="0.3456" v:shadowOffsetY="-1.9728" v:shadowType="1"
						transform="matrix(1,0,0,1,0.3456,1.9728)" class="st2">
					<path d="M3.95 60.2 L3.95 59.75 L3.92 59.72 L3.45 59.56 L3.33 59.25 L3.56 58.77 L3.59 58.71 L3.44 58.57 L3.27
								 58.39 L3.21 58.42 L2.75 58.66 L2.43 58.57 L2.23 58.05 L1.78 58.05 L1.75 58.08 L1.6 58.55 L1.28 58.67
								 L0.74 58.41 L0.42 58.73 L0.45 58.79 L0.69 59.25 L0.55 59.57 L0 59.77 L0 60.22 L0.07 60.24 L0.55
								 60.4 L0.69 60.72 L0.44 61.25 L0.76 61.58 L0.82 61.55 L1.28 61.31 L1.6 61.44 L1.8 62 L2.25 62 L2.27
								 61.93 L2.44 61.45 L2.75 61.31 L3.28 61.56 L3.61 61.24 L3.58 61.18 L3.34 60.72 L3.43 60.4 L3.95 60.2
								 ZM2.02 60.63 C1.66 60.63 1.37 60.34 1.37 59.98 C1.37 59.63 1.66 59.34 2.02 59.34 C2.37 59.34 2.66
								 59.63 2.66 59.98 C2.66 60.34 2.37 60.63 2.02 60.63 Z" class="st3"/>
				</g>
				<path d="M3.95 60.2 L3.95 59.75 L3.92 59.72 L3.45 59.56 L3.33 59.25 L3.56 58.77 L3.59 58.71 L3.44 58.57 L3.27 58.39
							 L3.21 58.42 L2.75 58.66 L2.43 58.57 L2.23 58.05 L1.78 58.05 L1.75 58.08 L1.6 58.55 L1.28 58.67 L0.74
							 58.41 L0.42 58.73 L0.45 58.79 L0.69 59.25 L0.55 59.57 L0 59.77 L0 60.22 L0.07 60.24 L0.55 60.4 L0.69
							 60.72 L0.44 61.25 L0.76 61.58 L0.82 61.55 L1.28 61.31 L1.6 61.44 L1.8 62 L2.25 62 L2.27 61.93 L2.44
							 61.45 L2.75 61.31 L3.28 61.56 L3.61 61.24 L3.58 61.18 L3.34 60.72 L3.43 60.4 L3.95 60.2 ZM2.02 60.63
							 C1.66 60.63 1.37 60.34 1.37 59.98 C1.37 59.63 1.66 59.34 2.02 59.34 C2.37 59.34 2.66 59.63 2.66 59.98
							 C2.66 60.34 2.37 60.63 2.02 60.63 Z" class="st4"/>
			</g>
			<g id="shape663-50" v:mID="663" v:groupContext="shape" transform="translate(6.55071,-3.64504)">
				<title>Sheet.663</title>
				<g id="shadow663-51" v:groupContext="shadow" v:shadowOffsetX="0.3456" v:shadowOffsetY="-1.9728" v:shadowType="1"
						transform="matrix(1,0,0,1,0.3456,1.9728)" class="st2">
					<path d="M1.66 54.47 L1.48 55.03 L1.18 56 L1.03 56.47 L0.91 56.87 L0.02 59.69 C0 59.75 0.03 59.79 0.09 59.79
								 L0.91 59.79 C0.93 59.79 0.95 59.8 0.96 59.81 C0.98 59.83 0.99 59.86 0.97 59.89 L0.13 61.93 C0.11
								 61.99 0.12 62 0.16 61.95 L2.83 58.92 C2.87 58.88 2.86 58.84 2.8 58.84 L1.92 58.85 L1.76 58.85 C1.7
								 58.85 1.68 58.81 1.71 58.76 L2.54 57.28 L2.74 56.92 L2.96 56.51 L3.45 55.65 L3.73 55.15 C3.11 54.79
								 2.41 54.55 1.66 54.47 Z" class="st3"/>
				</g>
				<path d="M1.66 54.47 L1.48 55.03 L1.18 56 L1.03 56.47 L0.91 56.87 L0.02 59.69 C0 59.75 0.03 59.79 0.09 59.79 L0.91
							 59.79 C0.93 59.79 0.95 59.8 0.96 59.81 C0.98 59.83 0.99 59.86 0.97 59.89 L0.13 61.93 C0.11 61.99 0.12
							 62 0.16 61.95 L2.83 58.92 C2.87 58.88 2.86 58.84 2.8 58.84 L1.92 58.85 L1.76 58.85 C1.7 58.85 1.68 58.81
							 1.71 58.76 L2.54 57.28 L2.74 56.92 L2.96 56.51 L3.45 55.65 L3.73 55.15 C3.11 54.79 2.41 54.55 1.66 54.47
							 Z" class="st10"/>
			</g>
			<g id="shape664-55" v:mID="664" v:groupContext="shape" transform="translate(7.80822,-6.79757)">
				<title>Sheet.664</title>
				<g id="shadow664-56" v:groupContext="shadow" v:shadowOffsetX="0.3456" v:shadowOffsetY="-1.9728" v:shadowType="1"
						transform="matrix(1,0,0,1,0.3456,1.9728)" class="st2">
					<path d="M1.93 58.04 L0 62 L0.48 62 C0.44 61.99 0.42 61.95 0.45 61.91 L1.28 60.43 L1.48 60.07 L1.7 59.66 L2.19
								 58.81 L2.47 58.3 C2.29 58.21 2.12 58.12 1.93 58.04 Z" class="st3"/>
				</g>
				<path d="M1.93 58.04 L0 62 L0.48 62 C0.44 61.99 0.42 61.95 0.45 61.91 L1.28 60.43 L1.48 60.07 L1.7 59.66 L2.19 58.81
							 L2.47 58.3 C2.29 58.21 2.12 58.12 1.93 58.04 Z" class="st11"/>
			</g>
			<g id="shape665-60" v:mID="665" v:groupContext="shape" transform="translate(6.81607,-3.80485)">
				<title>Sheet.665</title>
				<g id="shadow665-61" v:groupContext="shadow" v:shadowOffsetX="0.3456" v:shadowOffsetY="-1.9728" v:shadowType="1"
						transform="matrix(1,0,0,1,0.3456,1.9728)" class="st2">
					<path d="M2.54 59 L2 59.01 L0 62 L2.57 59.08 C2.61 59.04 2.59 59 2.54 59 Z" class="st3"/>
				</g>
				<path d="M2.54 59 L2 59.01 L0 62 L2.57 59.08 C2.61 59.04 2.59 59 2.54 59 Z" class="st11"/>
			</g>
		</g>
	</g>
</svg>
