<?xml version="1.0" encoding="UTF-8" standalone="no"?>
<!DOCTYPE svg PUBLIC "-//W3C//DTD SVG 1.1//EN" "http://www.w3.org/Graphics/SVG/1.1/DTD/svg11.dtd">
<!-- Generated by Microsoft Visio, SVG Export subscriptionsandMFA2.svg Page-1 -->
<svg xmlns="http://www.w3.org/2000/svg" xmlns:xlink="http://www.w3.org/1999/xlink" xmlns:ev="http://www.w3.org/2001/xml-events"
		xmlns:v="http://schemas.microsoft.com/visio/2003/SVGExtensions/" width="0.647582in" height="0.57588in"
		viewBox="0 0 46.6259 41.4634" xml:space="preserve" color-interpolation-filters="sRGB" class="st11">
	<v:documentProperties v:langID="1033" v:viewMarkup="false"/>

	<style type="text/css">
	<![CDATA[
		.st1 {fill:#ffffff;stroke:none;stroke-linecap:round;stroke-linejoin:round;stroke-width:0.75}
		.st2 {fill:#ffc000;stroke:none;stroke-linecap:round;stroke-linejoin:round;stroke-width:0.75}
		.st3 {fill:#bf9000;stroke:none;stroke-linecap:round;stroke-linejoin:round;stroke-width:0.75}
		.st4 {fill:#ffe699;stroke:none;stroke-linecap:round;stroke-linejoin:round;stroke-width:0.75}
		.st5 {visibility:visible}
		.st6 {fill:#5b9bd5;fill-opacity:0.22;filter:url(#filter_2);stroke:none}
		.st7 {fill:#b8d432;stroke:none;stroke-width:12.24}
		.st8 {fill:#3e3e3e;stroke:none;stroke-width:12.24}
		.st9 {fill:#ffffff;fill-opacity:0.15;stroke:none;stroke-width:12.24}
		.st10 {fill:#a5a5a5;stroke:none;stroke-linecap:round;stroke-linejoin:round;stroke-width:0.24}
		.st11 {fill:none;fill-rule:evenodd;font-size:12px;overflow:visible;stroke-linecap:square;stroke-miterlimit:3}
	]]>
	</style>

	<defs id="Filters">
		<filter id="filter_2">
			<feGaussianBlur stdDeviation="2"/>
		</filter>
	</defs>
	<g v:mID="0" v:index="1" v:groupContext="foregroundPage">
		<title>Page-1</title>
		<v:pageProperties v:drawingScale="0.0393701" v:pageScale="0.0393701" v:drawingUnits="24" v:shadowOffsetX="9"
				v:shadowOffsetY="-9"/>
		<g id="group25-1" transform="translate(0.375,-0.463795)" v:mID="25" v:groupContext="group">
			<title>Sheet.25</title>
			<g id="shape23-2" v:mID="23" v:groupContext="shape">
				<title>Sheet.23</title>
				<rect x="0" y="0.927933" width="40.8189" height="40.5354" class="st1"/>
			</g>
			<g id="group22-4" transform="translate(6.77776,-11.7452)" v:mID="22" v:groupContext="group">
				<title>Sheet.22</title>
				<g id="group1-5" transform="translate(-1.69864E-14,-0.0608278)" v:mID="1" v:groupContext="group">
					<title>Sheet.1</title>
					<g id="group2-6" transform="translate(0,-6.49663)" v:mID="2" v:groupContext="group">
						<title>Sheet.2</title>
						<g id="shape2-7" v:mID="2" v:groupContext="groupContent">
							<path d="M4.27 31.43 C4.81 30.89 5.67 30.9 6.21 31.43 L10.06 35.3 C10.59 35.83 10.59 36.7 10.05 37.23
										 L6.18 41.07 C5.65 41.6 4.78 41.6 4.25 41.07 L0.4 37.2 C-0.13 36.67 -0.13 35.8 0.4 35.27
										 L4.27 31.43 Z" class="st2"/>
						</g>
					</g>
					<g id="group3-9" transform="translate(3.42628,0)" v:mID="3" v:groupContext="group">
						<title>Sheet.3</title>
						<g id="shape3-10" v:mID="3" v:groupContext="groupContent">
							<path d="M3.2 29.42 L3.2 39.87 L1.6 41.46 L0 39.87 L0 29.42 L3.2 29.42 Z" class="st2"/>
						</g>
					</g>
					<g id="group4-12" transform="translate(4.01288,-13.4771)" v:mID="4" v:groupContext="group">
						<title>Sheet.4</title>
						<g id="shape4-13" v:mID="4" v:groupContext="groupContent">
							<path d="M0 40.29 C0 39.65 0.53 39.12 1.17 39.12 C1.82 39.12 2.35 39.65 2.35 40.29 C2.35 40.94 1.82 41.46
										 1.17 41.46 C0.53 41.46 0 40.94 0 40.29 Z" class="st1"/>
						</g>
					</g>
					<g id="group5-15" transform="translate(4.0662,-1.85682)" v:mID="5" v:groupContext="group">
						<title>Sheet.5</title>
						<g id="shape5-16" v:mID="5" v:groupContext="groupContent">
							<path d="M0 36.5 L0 41.46 L0.96 41.46 L0.96 36.5 L0 36.5 L0 36.5 Z" class="st3"/>
						</g>
					</g>
					<g id="group6-18" transform="translate(4.0662,-6.12594)" v:mID="6" v:groupContext="group">
						<title>Sheet.6</title>
						<g id="shape6-19" v:mID="6" v:groupContext="groupContent">
							<path d="M0 40.13 L0.96 40.8 L0 41.46 L0 40.13 Z" class="st3"/>
						</g>
					</g>
					<g id="group7-21" transform="translate(4.06464,-0.774905)" v:mID="7" v:groupContext="group">
						<title>Sheet.7</title>
						<g id="shape7-22" v:mID="7" v:groupContext="groupContent">
							<path d="M0.96 40.37 L0.96 41.46 L0 40.37 L0.96 40.37 Z" class="st3"/>
						</g>
					</g>
					<g id="group8-24" transform="translate(6.35927,-1.33173)" v:mID="8" v:groupContext="group">
						<title>Sheet.8</title>
						<g id="shape8-25" v:mID="8" v:groupContext="groupContent">
							<path d="M0 39.65 L1.17 40.32 L0 41.46 L0 39.65 Z" class="st2"/>
						</g>
					</g>
					<g id="group9-27" transform="translate(6.35927,-2.71672)" v:mID="9" v:groupContext="group">
						<title>Sheet.9</title>
						<g id="shape9-28" v:mID="9" v:groupContext="groupContent">
							<path d="M0 39.65 L1.17 40.56 L0 41.46 L0 39.65 Z" class="st2"/>
						</g>
					</g>
					<g id="group10-30" transform="translate(6.35927,-4.04844)" v:mID="10" v:groupContext="group">
						<title>Sheet.10</title>
						<g id="shape10-31" v:mID="10" v:groupContext="groupContent">
							<path d="M0 39.65 L1.17 40.56 L0 41.46 L0 39.65 Z" class="st2"/>
						</g>
					</g>
					<g id="group11-33" transform="translate(1.98644,-11.5594)" v:mID="11" v:groupContext="group">
						<title>Sheet.11</title>
						<g id="shape11-34" v:mID="11" v:groupContext="groupContent">
							<path d="M0 40.66 L0 41.46 L6.77 41.46 L6.77 40.66 L0 40.66 L0 40.66 Z" class="st4"/>
						</g>
					</g>
					<g id="group12-36" transform="translate(1.98644,-10.3342)" v:mID="12" v:groupContext="group">
						<title>Sheet.12</title>
						<g id="shape12-37" v:mID="12" v:groupContext="groupContent">
							<path d="M0 40.66 L0 41.46 L6.77 41.46 L6.77 40.66 L0 40.66 L0 40.66 Z" class="st4"/>
						</g>
					</g>
				</g>
				<g id="group17-39" transform="translate(19.3,-7.10543E-15)" v:mID="17" v:groupContext="group">
					<title>Multi-factor Authentication</title>
					<g id="shape18-40" v:mID="18" v:groupContext="shape" transform="translate(1.96544,-15.2152)">
						<title>Sheet.18</title>
						<g id="shadow18-41" v:groupContext="shadow" v:shadowOffsetX="0.3456" v:shadowOffsetY="-1.9728"
								v:shadowType="1" transform="matrix(1,0,0,1,0.3456,1.9728)" class="st5">
							<ellipse cx="0.948831" cy="40.9212" rx="0.948831" ry="0.542189" class="st6"/>
						</g>
						<ellipse cx="0.948831" cy="40.9212" rx="0.948831" ry="0.542189" class="st7"/>
					</g>
					<g id="shape19-45" v:mID="19" v:groupContext="shape">
						<title>Sheet.19</title>
						<g id="shadow19-46" v:groupContext="shadow" v:shadowOffsetX="0.3456" v:shadowOffsetY="-1.9728"
								v:shadowType="1" transform="matrix(1,0,0,1,0.3456,1.9728)" class="st5">
							<path d="M6.3 32.01 L1.66 32.59 L1.05 27.71 C1.02 27.3 1.29 26.96 1.69 26.93 L4.37 26.59 C4.78 26.55
										 5.12 26.79 5.18 27.2 L5.63 30.72 C5.66 30.92 5.83 31.06 6.03 31.03 C6.24 30.99 6.37 30.82
										 6.34 30.62 L5.66 25.06 C5.63 24.66 5.25 24.42 4.85 24.45 L0.71 24.99 C0.3 25.03 0 25.37
										 0.07 25.77 L0.91 32.59 C0.91 32.65 0.95 32.69 0.95 32.75 C0.75 32.89 0.64 33.13 0.68 33.36
										 L1.63 40.82 C1.66 41.19 2.03 41.46 2.37 41.43 L7.39 40.75 C7.76 40.72 7.96 40.35 7.93 39.97
										 L6.98 32.52 C6.95 32.18 6.64 31.98 6.3 32.01 ZM2.61 25.47 L3.19 25.4 C3.32 25.37 3.46 25.47
										 3.46 25.6 C3.49 25.74 3.39 25.88 3.25 25.88 L2.68 25.94 C2.54 25.98 2.41 25.88 2.41 25.74
										 C2.37 25.6 2.47 25.5 2.61 25.47 ZM4.68 36.18 L4.81 37.36 L3.93 37.46 L3.76 36.24 C3.49 36.11
										 3.22 35.84 3.15 35.47 C3.08 34.92 3.46 34.45 4 34.38 C4.54 34.31 5.02 34.69 5.08 35.23 C5.15
										 35.63 5.05 35.97 4.68 36.18 Z" class="st6"/>
						</g>
						<path d="M6.3 32.01 L1.66 32.59 L1.05 27.71 C1.02 27.3 1.29 26.96 1.69 26.93 L4.37 26.59 C4.78 26.55 5.12
									 26.79 5.18 27.2 L5.63 30.72 C5.66 30.92 5.83 31.06 6.03 31.03 C6.24 30.99 6.37 30.82 6.34 30.62
									 L5.66 25.06 C5.63 24.66 5.25 24.42 4.85 24.45 L0.71 24.99 C0.3 25.03 0 25.37 0.07 25.77 L0.91
									 32.59 C0.91 32.65 0.95 32.69 0.95 32.75 C0.75 32.89 0.64 33.13 0.68 33.36 L1.63 40.82 C1.66
									 41.19 2.03 41.46 2.37 41.43 L7.39 40.75 C7.76 40.72 7.96 40.35 7.93 39.97 L6.98 32.52 C6.95
									 32.18 6.64 31.98 6.3 32.01 ZM2.61 25.47 L3.19 25.4 C3.32 25.37 3.46 25.47 3.46 25.6 C3.49 25.74
									 3.39 25.88 3.25 25.88 L2.68 25.94 C2.54 25.98 2.41 25.88 2.41 25.74 C2.37 25.6 2.47 25.5 2.61
									 25.47 ZM4.68 36.18 L4.81 37.36 L3.93 37.46 L3.76 36.24 C3.49 36.11 3.22 35.84 3.15 35.47 C3.08
									 34.92 3.46 34.45 4 34.38 C4.54 34.31 5.02 34.69 5.08 35.23 C5.15 35.63 5.05 35.97 4.68 36.18
									 Z" class="st8"/>
					</g>
					<g id="shape20-50" v:mID="20" v:groupContext="shape" transform="translate(0,-3.55812)">
						<title>Sheet.20</title>
						<g id="shadow20-51" v:groupContext="shadow" v:shadowOffsetX="0.3456" v:shadowOffsetY="-1.9728"
								v:shadowType="1" transform="matrix(1,0,0,1,0.3456,1.9728)" class="st5">
							<path d="M0.91 36.11 C0.91 36.18 0.95 36.21 0.95 36.28 C0.75 36.41 0.64 36.65 0.68 36.89 L1.25 41.46
										 L3.49 35.94 L1.66 36.14 L1.05 31.26 C1.02 30.86 1.29 30.52 1.69 30.48 L4.37 30.15 C4.78
										 30.11 5.12 30.35 5.18 30.76 L5.29 31.5 L5.86 30.11 L5.69 28.65 C5.66 28.25 5.29 28.01 4.88
										 28.04 L0.71 28.55 C0.3 28.59 0 28.93 0.07 29.33 L0.91 36.11 ZM2.61 29.03 L3.19 28.96 C3.32
										 28.93 3.46 29.03 3.46 29.16 C3.49 29.3 3.39 29.43 3.25 29.43 L2.68 29.5 C2.54 29.54 2.41
										 29.43 2.41 29.3 C2.37 29.16 2.47 29.06 2.61 29.03 Z" class="st6"/>
						</g>
						<path d="M0.91 36.11 C0.91 36.18 0.95 36.21 0.95 36.28 C0.75 36.41 0.64 36.65 0.68 36.89 L1.25 41.46 L3.49
									 35.94 L1.66 36.14 L1.05 31.26 C1.02 30.86 1.29 30.52 1.69 30.48 L4.37 30.15 C4.78 30.11 5.12
									 30.35 5.18 30.76 L5.29 31.5 L5.86 30.11 L5.69 28.65 C5.66 28.25 5.29 28.01 4.88 28.04 L0.71
									 28.55 C0.3 28.59 0 28.93 0.07 29.33 L0.91 36.11 ZM2.61 29.03 L3.19 28.96 C3.32 28.93 3.46 29.03
									 3.46 29.16 C3.49 29.3 3.39 29.43 3.25 29.43 L2.68 29.5 C2.54 29.54 2.41 29.43 2.41 29.3 C2.37
									 29.16 2.47 29.06 2.61 29.03 Z" class="st9"/>
					</g>
				</g>
				<g id="shape21-55" v:mID="21" v:groupContext="shape" transform="translate(9.64999,-3.26543)">
					<title>Plus</title>
					<v:userDefs>
						<v:ud v:nameU="visVersion" v:prompt="" v:val="VT0(15):26"/>
					</v:userDefs>
					<path d="M4.78 36.69 L4.78 34.3 L3.19 34.3 L3.19 36.69 L0.8 36.69 L0.8 38.28 L3.19 38.28 L3.19 40.67 L4.78 40.67
								 L4.78 38.28 L7.17 38.28 L7.17 36.69 L4.78 36.69 Z" class="st10"/>
				</g>
			</g>
		</g>
	</g>
</svg>
