<?xml version="1.0" encoding="UTF-8" standalone="no"?>
<!DOCTYPE svg PUBLIC "-//W3C//DTD SVG 1.1//EN" "http://www.w3.org/Graphics/SVG/1.1/DTD/svg11.dtd">
<!-- Generated by Microsoft Visio, SVG Export 3SubscriptionOwners.svg Page-1 -->
<svg xmlns="http://www.w3.org/2000/svg" xmlns:xlink="http://www.w3.org/1999/xlink" xmlns:ev="http://www.w3.org/2001/xml-events"
		xmlns:v="http://schemas.microsoft.com/visio/2003/SVGExtensions/" width="0.774196in" height="0.769693in"
		viewBox="0 0 55.7421 55.4179" xml:space="preserve" color-interpolation-filters="sRGB" class="st8">
	<v:documentProperties v:langID="1033" v:viewMarkup="false"/>

	<style type="text/css">
	<![CDATA[
		.st1 {fill:#ffffff;stroke:none;stroke-linecap:round;stroke-linejoin:round;stroke-width:0.75}
		.st2 {fill:#ffc000;stroke:none;stroke-linecap:round;stroke-linejoin:round;stroke-width:0.75}
		.st3 {fill:#bf9000;stroke:none;stroke-linecap:round;stroke-linejoin:round;stroke-width:0.75}
		.st4 {fill:#ffe699;stroke:none;stroke-linecap:round;stroke-linejoin:round;stroke-width:0.75}
		.st5 {fill:#3f5765;stroke:none;stroke-linecap:round;stroke-linejoin:round;stroke-width:0.75}
		.st6 {stroke:#92d050;stroke-linecap:round;stroke-linejoin:round;stroke-width:0.24}
		.st7 {fill:#c00000;stroke:none;stroke-linecap:round;stroke-linejoin:round;stroke-width:0.24}
		.st8 {fill:none;fill-rule:evenodd;font-size:12px;overflow:visible;stroke-linecap:square;stroke-miterlimit:3}
	]]>
	</style>

	<g v:mID="0" v:index="1" v:groupContext="foregroundPage">
		<title>Page-1</title>
		<v:pageProperties v:drawingScale="0.0393701" v:pageScale="0.0393701" v:drawingUnits="24" v:shadowOffsetX="9"
				v:shadowOffsetY="-9"/>
		<g id="group79-1" transform="translate(0.375,-0.432692)" v:mID="79" v:groupContext="group">
			<title>Sheet.79</title>
			<g id="shape51-2" v:mID="51" v:groupContext="shape">
				<title>Sheet.51</title>
				<rect x="0" y="0.807693" width="54.9921" height="54.6102" class="st1"/>
			</g>
			<g id="group29-4" transform="translate(10.33,-24.2762)" v:mID="29" v:groupContext="group">
				<title>Sheet.29</title>
				<g id="group30-5" transform="translate(0,-6.49663)" v:mID="30" v:groupContext="group">
					<title>Sheet.30</title>
					<g id="shape30-6" v:mID="30" v:groupContext="groupContent">
						<path d="M4.27 45.38 C4.81 44.85 5.67 44.85 6.21 45.38 L10.06 49.25 C10.59 49.79 10.59 50.65 10.05 51.18
									 L6.18 55.03 C5.65 55.56 4.78 55.56 4.25 55.02 L0.4 51.16 C-0.13 50.62 -0.13 49.76 0.4 49.23
									 L4.27 45.38 Z" class="st2"/>
					</g>
				</g>
				<g id="group31-8" transform="translate(3.42628,0)" v:mID="31" v:groupContext="group">
					<title>Sheet.31</title>
					<g id="shape31-9" v:mID="31" v:groupContext="groupContent">
						<path d="M3.2 43.38 L3.2 53.82 L1.6 55.42 L0 53.82 L0 43.38 L3.2 43.38 Z" class="st2"/>
					</g>
				</g>
				<g id="group32-11" transform="translate(4.01288,-13.4771)" v:mID="32" v:groupContext="group">
					<title>Sheet.32</title>
					<g id="shape32-12" v:mID="32" v:groupContext="groupContent">
						<path d="M0 54.25 C0 53.6 0.53 53.07 1.17 53.07 C1.82 53.07 2.35 53.6 2.35 54.25 C2.35 54.9 1.82 55.42 1.17
									 55.42 C0.53 55.42 0 54.9 0 54.25 Z" class="st1"/>
					</g>
				</g>
				<g id="group33-14" transform="translate(4.0662,-1.85682)" v:mID="33" v:groupContext="group">
					<title>Sheet.33</title>
					<g id="shape33-15" v:mID="33" v:groupContext="groupContent">
						<path d="M0 50.46 L0 55.42 L0.96 55.42 L0.96 50.46 L0 50.46 L0 50.46 Z" class="st3"/>
					</g>
				</g>
				<g id="group34-17" transform="translate(4.0662,-6.12594)" v:mID="34" v:groupContext="group">
					<title>Sheet.34</title>
					<g id="shape34-18" v:mID="34" v:groupContext="groupContent">
						<path d="M0 54.09 L0.96 54.75 L0 55.42 L0 54.09 Z" class="st3"/>
					</g>
				</g>
				<g id="group35-20" transform="translate(4.06464,-0.774905)" v:mID="35" v:groupContext="group">
					<title>Sheet.35</title>
					<g id="shape35-21" v:mID="35" v:groupContext="groupContent">
						<path d="M0.96 54.32 L0.96 55.42 L0 54.32 L0.96 54.32 Z" class="st3"/>
					</g>
				</g>
				<g id="group36-23" transform="translate(6.35927,-1.33173)" v:mID="36" v:groupContext="group">
					<title>Sheet.36</title>
					<g id="shape36-24" v:mID="36" v:groupContext="groupContent">
						<path d="M0 53.61 L1.17 54.27 L0 55.42 L0 53.61 Z" class="st2"/>
					</g>
				</g>
				<g id="group37-26" transform="translate(6.35927,-2.71672)" v:mID="37" v:groupContext="group">
					<title>Sheet.37</title>
					<g id="shape37-27" v:mID="37" v:groupContext="groupContent">
						<path d="M0 53.61 L1.17 54.51 L0 55.42 L0 53.61 Z" class="st2"/>
					</g>
				</g>
				<g id="group38-29" transform="translate(6.35927,-4.04844)" v:mID="38" v:groupContext="group">
					<title>Sheet.38</title>
					<g id="shape38-30" v:mID="38" v:groupContext="groupContent">
						<path d="M0 53.61 L1.17 54.51 L0 55.42 L0 53.61 Z" class="st2"/>
					</g>
				</g>
				<g id="group39-32" transform="translate(1.98644,-11.5594)" v:mID="39" v:groupContext="group">
					<title>Sheet.39</title>
					<g id="shape39-33" v:mID="39" v:groupContext="groupContent">
						<path d="M0 54.62 L0 55.42 L6.77 55.42 L6.77 54.62 L0 54.62 L0 54.62 Z" class="st4"/>
					</g>
				</g>
				<g id="group40-35" transform="translate(1.98644,-10.3342)" v:mID="40" v:groupContext="group">
					<title>Sheet.40</title>
					<g id="shape40-36" v:mID="40" v:groupContext="groupContent">
						<path d="M0 54.62 L0 55.42 L6.77 55.42 L6.77 54.62 L0 54.62 L0 54.62 Z" class="st4"/>
					</g>
				</g>
			</g>
			<g id="shape46-38" v:mID="46" v:groupContext="shape" transform="translate(4.94315,-19.5673)">
				<title>Azure Subscription</title>
				<path d="M3.72 47.72 C3.05 47.72 2.49 47.17 2.49 46.53 C2.49 45.87 3.05 45.35 3.72 45.35 C4.41 45.35 4.97 45.87 4.97
							 46.53 C4.97 47.17 4.41 47.72 3.72 47.72 ZM6.67 51.36 C6.72 51.54 6.72 51.54 6.72 51.54 C6.72 51.57 6.74
							 51.62 6.74 51.64 C6.74 51.83 6.62 51.97 6.42 52.02 C5.02 52.39 5.02 52.39 5.02 52.39 C5.61 54.69 5.61
							 54.69 5.61 54.69 C5.68 55.02 5.49 55.32 5.17 55.42 C5.12 55.42 5.07 55.42 5.02 55.42 C4.72 55.42 4.48
							 55.26 4.41 54.97 C3.82 52.7 3.82 52.7 3.82 52.7 C3.47 52.8 3.47 52.8 3.47 52.8 C2.91 54.97 2.91 54.97
							 2.91 54.97 C2.86 55.26 2.58 55.42 2.31 55.42 C2.27 55.42 2.22 55.42 2.17 55.42 C1.85 55.32 1.65 55.02
							 1.72 54.69 C2.12 53.13 2.12 53.13 2.12 53.13 C1.33 53.34 1.33 53.34 1.33 53.34 C1.31 53.34 1.26 53.34
							 1.23 53.34 C1.04 53.34 0.89 53.25 0.84 53.06 C-0 50.13 0 50.13 0 50.13 C0 50.1 0 50.08 0 50.03 C0 49.87
							 0.13 49.7 0.3 49.65 C1.21 49.42 1.21 49.42 1.21 49.42 C2.61 48.35 2.61 48.35 2.61 48.35 C2.63 48.33
							 2.68 48.31 2.71 48.31 C2.88 48.17 3.2 48.09 3.67 48.09 C4.31 48.09 4.65 48.26 4.8 48.5 C5.39 48.33 5.39
							 48.33 5.39 48.33 C5.44 48.33 5.46 48.33 5.51 48.33 C5.68 48.33 5.86 48.45 5.91 48.61 C6.42 50.43 6.42
							 50.43 6.42 50.43 C6.47 50.43 6.47 50.43 6.47 50.43 C6.77 50.43 6.96 50.65 6.96 50.91 C6.96 51.12 6.84
							 51.28 6.67 51.36 ZM2.12 50.27 C5.83 49.3 5.83 49.3 5.83 49.3 C5.66 48.69 5.66 48.69 5.66 48.69 C5.66
							 48.61 5.59 48.57 5.51 48.57 C5.49 48.57 5.49 48.57 5.46 48.57 C3.13 49.16 3.13 49.16 3.13 49.16 C2.12
							 49.94 2.12 49.94 2.12 49.94 L2.12 50.27 ZM0.42 50.7 C1.13 50.53 1.13 50.53 1.13 50.53 C1.13 49.68 1.13
							 49.68 1.13 49.68 C0.37 49.87 0.37 49.87 0.37 49.87 C0.3 49.89 0.25 49.96 0.25 50.03 C0.25 50.06 0.25
							 50.06 0.25 50.08 L0.42 50.7 ZM6.5 51.64 C6.5 51.64 6.5 51.62 6.47 51.59 C6.08 50.1 6.08 50.1 6.08 50.1
							 C2.12 51.12 2.12 51.12 2.12 51.12 C2.12 51.17 2.12 51.17 2.12 51.17 C2.12 51.17 2.12 51.17 2.12 51.17
							 C2.12 51.43 1.9 51.64 1.62 51.64 C1.43 51.64 1.26 51.54 1.18 51.38 C0.64 51.5 0.64 51.5 0.64 51.5 C1.06
							 52.99 1.06 52.99 1.06 52.99 C1.09 53.06 1.16 53.1 1.23 53.1 C1.23 53.1 1.26 53.1 1.28 53.1 C6.37 51.81
							 6.37 51.81 6.37 51.81 C6.45 51.78 6.5 51.71 6.5 51.64 ZM5.91 51.05 C6.03 51.47 6.03 51.47 6.03 51.47
							 C5.59 51.59 5.59 51.59 5.59 51.59 C5.46 51.17 5.46 51.17 5.46 51.17 L5.91 51.05 ZM5.29 51.22 C5.41 51.62
							 5.41 51.62 5.41 51.62 C4.97 51.73 4.97 51.73 4.97 51.73 C4.85 51.33 4.85 51.33 4.85 51.33 L5.29 51.22
							 Z" class="st5"/>
			</g>
			<g id="shape47-40" v:mID="47" v:groupContext="shape" transform="translate(11.9055,-13.898)">
				<title>Azure Subscription.47</title>
				<path d="M3.72 47.72 C3.05 47.72 2.49 47.17 2.49 46.53 C2.49 45.87 3.05 45.35 3.72 45.35 C4.41 45.35 4.97 45.87 4.97
							 46.53 C4.97 47.17 4.41 47.72 3.72 47.72 ZM6.67 51.36 C6.72 51.54 6.72 51.54 6.72 51.54 C6.72 51.57 6.74
							 51.62 6.74 51.64 C6.74 51.83 6.62 51.97 6.42 52.02 C5.02 52.39 5.02 52.39 5.02 52.39 C5.61 54.69 5.61
							 54.69 5.61 54.69 C5.68 55.02 5.49 55.32 5.17 55.42 C5.12 55.42 5.07 55.42 5.02 55.42 C4.72 55.42 4.48
							 55.26 4.41 54.97 C3.82 52.7 3.82 52.7 3.82 52.7 C3.47 52.8 3.47 52.8 3.47 52.8 C2.91 54.97 2.91 54.97
							 2.91 54.97 C2.86 55.26 2.58 55.42 2.31 55.42 C2.27 55.42 2.22 55.42 2.17 55.42 C1.85 55.32 1.65 55.02
							 1.72 54.69 C2.12 53.13 2.12 53.13 2.12 53.13 C1.33 53.34 1.33 53.34 1.33 53.34 C1.31 53.34 1.26 53.34
							 1.23 53.34 C1.04 53.34 0.89 53.25 0.84 53.06 C-0 50.13 0 50.13 0 50.13 C0 50.1 0 50.08 0 50.03 C0 49.87
							 0.13 49.7 0.3 49.65 C1.21 49.42 1.21 49.42 1.21 49.42 C2.61 48.35 2.61 48.35 2.61 48.35 C2.63 48.33
							 2.68 48.31 2.71 48.31 C2.88 48.17 3.2 48.09 3.67 48.09 C4.31 48.09 4.65 48.26 4.8 48.5 C5.39 48.33 5.39
							 48.33 5.39 48.33 C5.44 48.33 5.46 48.33 5.51 48.33 C5.68 48.33 5.86 48.45 5.91 48.61 C6.42 50.43 6.42
							 50.43 6.42 50.43 C6.47 50.43 6.47 50.43 6.47 50.43 C6.77 50.43 6.96 50.65 6.96 50.91 C6.96 51.12 6.84
							 51.28 6.67 51.36 ZM2.12 50.27 C5.83 49.3 5.83 49.3 5.83 49.3 C5.66 48.69 5.66 48.69 5.66 48.69 C5.66
							 48.61 5.59 48.57 5.51 48.57 C5.49 48.57 5.49 48.57 5.46 48.57 C3.13 49.16 3.13 49.16 3.13 49.16 C2.12
							 49.94 2.12 49.94 2.12 49.94 L2.12 50.27 ZM0.42 50.7 C1.13 50.53 1.13 50.53 1.13 50.53 C1.13 49.68 1.13
							 49.68 1.13 49.68 C0.37 49.87 0.37 49.87 0.37 49.87 C0.3 49.89 0.25 49.96 0.25 50.03 C0.25 50.06 0.25
							 50.06 0.25 50.08 L0.42 50.7 ZM6.5 51.64 C6.5 51.64 6.5 51.62 6.47 51.59 C6.08 50.1 6.08 50.1 6.08 50.1
							 C2.12 51.12 2.12 51.12 2.12 51.12 C2.12 51.17 2.12 51.17 2.12 51.17 C2.12 51.17 2.12 51.17 2.12 51.17
							 C2.12 51.43 1.9 51.64 1.62 51.64 C1.43 51.64 1.26 51.54 1.18 51.38 C0.64 51.5 0.64 51.5 0.64 51.5 C1.06
							 52.99 1.06 52.99 1.06 52.99 C1.09 53.06 1.16 53.1 1.23 53.1 C1.23 53.1 1.26 53.1 1.28 53.1 C6.37 51.81
							 6.37 51.81 6.37 51.81 C6.45 51.78 6.5 51.71 6.5 51.64 ZM5.91 51.05 C6.03 51.47 6.03 51.47 6.03 51.47
							 C5.59 51.59 5.59 51.59 5.59 51.59 C5.46 51.17 5.46 51.17 5.46 51.17 L5.91 51.05 ZM5.29 51.22 C5.41 51.62
							 5.41 51.62 5.41 51.62 C4.97 51.73 4.97 51.73 4.97 51.73 C4.85 51.33 4.85 51.33 4.85 51.33 L5.29 51.22
							 Z" class="st5"/>
			</g>
			<g id="shape48-42" v:mID="48" v:groupContext="shape" transform="translate(18.8679,-19.5673)">
				<title>Azure Subscription.48</title>
				<path d="M3.72 47.72 C3.05 47.72 2.49 47.17 2.49 46.53 C2.49 45.87 3.05 45.35 3.72 45.35 C4.41 45.35 4.97 45.87 4.97
							 46.53 C4.97 47.17 4.41 47.72 3.72 47.72 ZM6.67 51.36 C6.72 51.54 6.72 51.54 6.72 51.54 C6.72 51.57 6.74
							 51.62 6.74 51.64 C6.74 51.83 6.62 51.97 6.42 52.02 C5.02 52.39 5.02 52.39 5.02 52.39 C5.61 54.69 5.61
							 54.69 5.61 54.69 C5.68 55.02 5.49 55.32 5.17 55.42 C5.12 55.42 5.07 55.42 5.02 55.42 C4.72 55.42 4.48
							 55.26 4.41 54.97 C3.82 52.7 3.82 52.7 3.82 52.7 C3.47 52.8 3.47 52.8 3.47 52.8 C2.91 54.97 2.91 54.97
							 2.91 54.97 C2.86 55.26 2.58 55.42 2.31 55.42 C2.27 55.42 2.22 55.42 2.17 55.42 C1.85 55.32 1.65 55.02
							 1.72 54.69 C2.12 53.13 2.12 53.13 2.12 53.13 C1.33 53.34 1.33 53.34 1.33 53.34 C1.31 53.34 1.26 53.34
							 1.23 53.34 C1.04 53.34 0.89 53.25 0.84 53.06 C-0 50.13 0 50.13 0 50.13 C0 50.1 0 50.08 0 50.03 C0 49.87
							 0.13 49.7 0.3 49.65 C1.21 49.42 1.21 49.42 1.21 49.42 C2.61 48.35 2.61 48.35 2.61 48.35 C2.63 48.33
							 2.68 48.31 2.71 48.31 C2.88 48.17 3.2 48.09 3.67 48.09 C4.31 48.09 4.65 48.26 4.8 48.5 C5.39 48.33 5.39
							 48.33 5.39 48.33 C5.44 48.33 5.46 48.33 5.51 48.33 C5.68 48.33 5.86 48.45 5.91 48.61 C6.42 50.43 6.42
							 50.43 6.42 50.43 C6.47 50.43 6.47 50.43 6.47 50.43 C6.77 50.43 6.96 50.65 6.96 50.91 C6.96 51.12 6.84
							 51.28 6.67 51.36 ZM2.12 50.27 C5.83 49.3 5.83 49.3 5.83 49.3 C5.66 48.69 5.66 48.69 5.66 48.69 C5.66
							 48.61 5.59 48.57 5.51 48.57 C5.49 48.57 5.49 48.57 5.46 48.57 C3.13 49.16 3.13 49.16 3.13 49.16 C2.12
							 49.94 2.12 49.94 2.12 49.94 L2.12 50.27 ZM0.42 50.7 C1.13 50.53 1.13 50.53 1.13 50.53 C1.13 49.68 1.13
							 49.68 1.13 49.68 C0.37 49.87 0.37 49.87 0.37 49.87 C0.3 49.89 0.25 49.96 0.25 50.03 C0.25 50.06 0.25
							 50.06 0.25 50.08 L0.42 50.7 ZM6.5 51.64 C6.5 51.64 6.5 51.62 6.47 51.59 C6.08 50.1 6.08 50.1 6.08 50.1
							 C2.12 51.12 2.12 51.12 2.12 51.12 C2.12 51.17 2.12 51.17 2.12 51.17 C2.12 51.17 2.12 51.17 2.12 51.17
							 C2.12 51.43 1.9 51.64 1.62 51.64 C1.43 51.64 1.26 51.54 1.18 51.38 C0.64 51.5 0.64 51.5 0.64 51.5 C1.06
							 52.99 1.06 52.99 1.06 52.99 C1.09 53.06 1.16 53.1 1.23 53.1 C1.23 53.1 1.26 53.1 1.28 53.1 C6.37 51.81
							 6.37 51.81 6.37 51.81 C6.45 51.78 6.5 51.71 6.5 51.64 ZM5.91 51.05 C6.03 51.47 6.03 51.47 6.03 51.47
							 C5.59 51.59 5.59 51.59 5.59 51.59 C5.46 51.17 5.46 51.17 5.46 51.17 L5.91 51.05 ZM5.29 51.22 C5.41 51.62
							 5.41 51.62 5.41 51.62 C4.97 51.73 4.97 51.73 4.97 51.73 C4.85 51.33 4.85 51.33 4.85 51.33 L5.29 51.22
							 Z" class="st5"/>
			</g>
			<g id="shape77-44" v:mID="77" v:groupContext="shape" transform="translate(20.126,-10.1679)">
				<title>Right Parenthesis</title>
				<v:userDefs>
					<v:ud v:nameU="visVersion" v:prompt="" v:val="VT0(15):26"/>
				</v:userDefs>
				<path d="M-0 55.42 A7.43014 4.57217 -180 0 0 6.96 51.99 L6.96 24.57 A7.43014 4.57217 -180 0 0 -0 21.14" class="st6"/>
			</g>
			<g id="group78-47" transform="translate(29.3609,-14.276)" v:mID="78" v:groupContext="group">
				<title>Sheet.78</title>
				<g id="shape72-48" v:mID="72" v:groupContext="shape" transform="translate(5.85827,-10.5827)">
					<title>Azure Subscription.72</title>
					<path d="M3.72 47.72 C3.05 47.72 2.49 47.17 2.49 46.53 C2.49 45.87 3.05 45.35 3.72 45.35 C4.41 45.35 4.97 45.87
								 4.97 46.53 C4.97 47.17 4.41 47.72 3.72 47.72 ZM6.67 51.36 C6.72 51.54 6.72 51.54 6.72 51.54 C6.72
								 51.57 6.74 51.62 6.74 51.64 C6.74 51.83 6.62 51.97 6.42 52.02 C5.02 52.39 5.02 52.39 5.02 52.39
								 C5.61 54.69 5.61 54.69 5.61 54.69 C5.68 55.02 5.49 55.32 5.17 55.42 C5.12 55.42 5.07 55.42 5.02
								 55.42 C4.72 55.42 4.48 55.26 4.41 54.97 C3.82 52.7 3.82 52.7 3.82 52.7 C3.47 52.8 3.47 52.8 3.47
								 52.8 C2.91 54.97 2.91 54.97 2.91 54.97 C2.86 55.26 2.58 55.42 2.31 55.42 C2.27 55.42 2.22 55.42
								 2.17 55.42 C1.85 55.32 1.65 55.02 1.72 54.69 C2.12 53.13 2.12 53.13 2.12 53.13 C1.33 53.34 1.33
								 53.34 1.33 53.34 C1.31 53.34 1.26 53.34 1.23 53.34 C1.04 53.34 0.89 53.25 0.84 53.06 C0 50.13 -0
								 50.13 0 50.13 C0 50.1 0 50.08 0 50.03 C-0 49.87 0.13 49.7 0.3 49.65 C1.21 49.42 1.21 49.42 1.21
								 49.42 C2.61 48.35 2.61 48.35 2.61 48.35 C2.63 48.33 2.68 48.31 2.71 48.31 C2.88 48.17 3.2 48.09
								 3.67 48.09 C4.31 48.09 4.65 48.26 4.8 48.5 C5.39 48.33 5.39 48.33 5.39 48.33 C5.44 48.33 5.46 48.33
								 5.51 48.33 C5.68 48.33 5.86 48.45 5.91 48.61 C6.42 50.43 6.42 50.43 6.42 50.43 C6.47 50.43 6.47
								 50.43 6.47 50.43 C6.77 50.43 6.96 50.65 6.96 50.91 C6.96 51.12 6.84 51.28 6.67 51.36 ZM2.12 50.27
								 C5.83 49.3 5.83 49.3 5.83 49.3 C5.66 48.69 5.66 48.69 5.66 48.69 C5.66 48.61 5.59 48.57 5.51 48.57
								 C5.49 48.57 5.49 48.57 5.46 48.57 C3.13 49.16 3.13 49.16 3.13 49.16 C2.12 49.94 2.12 49.94 2.12
								 49.94 L2.12 50.27 ZM0.42 50.7 C1.13 50.53 1.13 50.53 1.13 50.53 C1.13 49.68 1.13 49.68 1.13 49.68
								 C0.37 49.87 0.37 49.87 0.37 49.87 C0.3 49.89 0.25 49.96 0.25 50.03 C0.25 50.06 0.25 50.06 0.25 50.08
								 L0.42 50.7 ZM6.5 51.64 C6.5 51.64 6.5 51.62 6.47 51.59 C6.08 50.1 6.08 50.1 6.08 50.1 C2.12 51.12
								 2.12 51.12 2.12 51.12 C2.12 51.17 2.12 51.17 2.12 51.17 C2.12 51.17 2.12 51.17 2.12 51.17 C2.12
								 51.43 1.9 51.64 1.62 51.64 C1.43 51.64 1.26 51.54 1.18 51.38 C0.64 51.5 0.64 51.5 0.64 51.5 C1.06
								 52.99 1.06 52.99 1.06 52.99 C1.09 53.06 1.16 53.1 1.23 53.1 C1.23 53.1 1.26 53.1 1.28 53.1 C6.37
								 51.81 6.37 51.81 6.37 51.81 C6.45 51.78 6.5 51.71 6.5 51.64 ZM5.91 51.05 C6.03 51.47 6.03 51.47
								 6.03 51.47 C5.59 51.59 5.59 51.59 5.59 51.59 C5.46 51.17 5.46 51.17 5.46 51.17 L5.91 51.05 ZM5.29
								 51.22 C5.41 51.62 5.41 51.62 5.41 51.62 C4.97 51.73 4.97 51.73 4.97 51.73 C4.85 51.33 4.85 51.33
								 4.85 51.33 L5.29 51.22 Z" class="st5"/>
				</g>
				<g id="shape73-50" v:mID="73" v:groupContext="shape" transform="translate(5.85827,4.9738E-14)">
					<title>Azure Subscription.73</title>
					<path d="M3.72 47.72 C3.05 47.72 2.49 47.17 2.49 46.53 C2.49 45.87 3.05 45.35 3.72 45.35 C4.41 45.35 4.97 45.87
								 4.97 46.53 C4.97 47.17 4.41 47.72 3.72 47.72 ZM6.67 51.36 C6.72 51.54 6.72 51.54 6.72 51.54 C6.72
								 51.57 6.74 51.62 6.74 51.64 C6.74 51.83 6.62 51.97 6.42 52.02 C5.02 52.39 5.02 52.39 5.02 52.39
								 C5.61 54.69 5.61 54.69 5.61 54.69 C5.68 55.02 5.49 55.32 5.17 55.42 C5.12 55.42 5.07 55.42 5.02
								 55.42 C4.72 55.42 4.48 55.26 4.41 54.97 C3.82 52.7 3.82 52.7 3.82 52.7 C3.47 52.8 3.47 52.8 3.47
								 52.8 C2.91 54.97 2.91 54.97 2.91 54.97 C2.86 55.26 2.58 55.42 2.31 55.42 C2.27 55.42 2.22 55.42
								 2.17 55.42 C1.85 55.32 1.65 55.02 1.72 54.69 C2.12 53.13 2.12 53.13 2.12 53.13 C1.33 53.34 1.33
								 53.34 1.33 53.34 C1.31 53.34 1.26 53.34 1.23 53.34 C1.04 53.34 0.89 53.25 0.84 53.06 C0 50.13 -0
								 50.13 0 50.13 C0 50.1 0 50.08 0 50.03 C-0 49.87 0.13 49.7 0.3 49.65 C1.21 49.42 1.21 49.42 1.21
								 49.42 C2.61 48.35 2.61 48.35 2.61 48.35 C2.63 48.33 2.68 48.31 2.71 48.31 C2.88 48.17 3.2 48.09
								 3.67 48.09 C4.31 48.09 4.65 48.26 4.8 48.5 C5.39 48.33 5.39 48.33 5.39 48.33 C5.44 48.33 5.46 48.33
								 5.51 48.33 C5.68 48.33 5.86 48.45 5.91 48.61 C6.42 50.43 6.42 50.43 6.42 50.43 C6.47 50.43 6.47
								 50.43 6.47 50.43 C6.77 50.43 6.96 50.65 6.96 50.91 C6.96 51.12 6.84 51.28 6.67 51.36 ZM2.12 50.27
								 C5.83 49.3 5.83 49.3 5.83 49.3 C5.66 48.69 5.66 48.69 5.66 48.69 C5.66 48.61 5.59 48.57 5.51 48.57
								 C5.49 48.57 5.49 48.57 5.46 48.57 C3.13 49.16 3.13 49.16 3.13 49.16 C2.12 49.94 2.12 49.94 2.12
								 49.94 L2.12 50.27 ZM0.42 50.7 C1.13 50.53 1.13 50.53 1.13 50.53 C1.13 49.68 1.13 49.68 1.13 49.68
								 C0.37 49.87 0.37 49.87 0.37 49.87 C0.3 49.89 0.25 49.96 0.25 50.03 C0.25 50.06 0.25 50.06 0.25 50.08
								 L0.42 50.7 ZM6.5 51.64 C6.5 51.64 6.5 51.62 6.47 51.59 C6.08 50.1 6.08 50.1 6.08 50.1 C2.12 51.12
								 2.12 51.12 2.12 51.12 C2.12 51.17 2.12 51.17 2.12 51.17 C2.12 51.17 2.12 51.17 2.12 51.17 C2.12
								 51.43 1.9 51.64 1.62 51.64 C1.43 51.64 1.26 51.54 1.18 51.38 C0.64 51.5 0.64 51.5 0.64 51.5 C1.06
								 52.99 1.06 52.99 1.06 52.99 C1.09 53.06 1.16 53.1 1.23 53.1 C1.23 53.1 1.26 53.1 1.28 53.1 C6.37
								 51.81 6.37 51.81 6.37 51.81 C6.45 51.78 6.5 51.71 6.5 51.64 ZM5.91 51.05 C6.03 51.47 6.03 51.47
								 6.03 51.47 C5.59 51.59 5.59 51.59 5.59 51.59 C5.46 51.17 5.46 51.17 5.46 51.17 L5.91 51.05 ZM5.29
								 51.22 C5.41 51.62 5.41 51.62 5.41 51.62 C4.97 51.73 4.97 51.73 4.97 51.73 C4.85 51.33 4.85 51.33
								 4.85 51.33 L5.29 51.22 Z" class="st5"/>
				</g>
				<g id="shape74-52" v:mID="74" v:groupContext="shape" transform="translate(11.9851,-5.29134)">
					<title>Azure Subscription.74</title>
					<path d="M3.72 47.72 C3.05 47.72 2.49 47.17 2.49 46.53 C2.49 45.87 3.05 45.35 3.72 45.35 C4.41 45.35 4.97 45.87
								 4.97 46.53 C4.97 47.17 4.41 47.72 3.72 47.72 ZM6.67 51.36 C6.72 51.54 6.72 51.54 6.72 51.54 C6.72
								 51.57 6.74 51.62 6.74 51.64 C6.74 51.83 6.62 51.97 6.42 52.02 C5.02 52.39 5.02 52.39 5.02 52.39
								 C5.61 54.69 5.61 54.69 5.61 54.69 C5.68 55.02 5.49 55.32 5.17 55.42 C5.12 55.42 5.07 55.42 5.02
								 55.42 C4.72 55.42 4.48 55.26 4.41 54.97 C3.82 52.7 3.82 52.7 3.82 52.7 C3.47 52.8 3.47 52.8 3.47
								 52.8 C2.91 54.97 2.91 54.97 2.91 54.97 C2.86 55.26 2.58 55.42 2.31 55.42 C2.27 55.42 2.22 55.42
								 2.17 55.42 C1.85 55.32 1.65 55.02 1.72 54.69 C2.12 53.13 2.12 53.13 2.12 53.13 C1.33 53.34 1.33
								 53.34 1.33 53.34 C1.31 53.34 1.26 53.34 1.23 53.34 C1.04 53.34 0.89 53.25 0.84 53.06 C0 50.13 -0
								 50.13 0 50.13 C0 50.1 0 50.08 0 50.03 C-0 49.87 0.13 49.7 0.3 49.65 C1.21 49.42 1.21 49.42 1.21
								 49.42 C2.61 48.35 2.61 48.35 2.61 48.35 C2.63 48.33 2.68 48.31 2.71 48.31 C2.88 48.17 3.2 48.09
								 3.67 48.09 C4.31 48.09 4.65 48.26 4.8 48.5 C5.39 48.33 5.39 48.33 5.39 48.33 C5.44 48.33 5.46 48.33
								 5.51 48.33 C5.68 48.33 5.86 48.45 5.91 48.61 C6.42 50.43 6.42 50.43 6.42 50.43 C6.47 50.43 6.47
								 50.43 6.47 50.43 C6.77 50.43 6.96 50.65 6.96 50.91 C6.96 51.12 6.84 51.28 6.67 51.36 ZM2.12 50.27
								 C5.83 49.3 5.83 49.3 5.83 49.3 C5.66 48.69 5.66 48.69 5.66 48.69 C5.66 48.61 5.59 48.57 5.51 48.57
								 C5.49 48.57 5.49 48.57 5.46 48.57 C3.13 49.16 3.13 49.16 3.13 49.16 C2.12 49.94 2.12 49.94 2.12
								 49.94 L2.12 50.27 ZM0.42 50.7 C1.13 50.53 1.13 50.53 1.13 50.53 C1.13 49.68 1.13 49.68 1.13 49.68
								 C0.37 49.87 0.37 49.87 0.37 49.87 C0.3 49.89 0.25 49.96 0.25 50.03 C0.25 50.06 0.25 50.06 0.25 50.08
								 L0.42 50.7 ZM6.5 51.64 C6.5 51.64 6.5 51.62 6.47 51.59 C6.08 50.1 6.08 50.1 6.08 50.1 C2.12 51.12
								 2.12 51.12 2.12 51.12 C2.12 51.17 2.12 51.17 2.12 51.17 C2.12 51.17 2.12 51.17 2.12 51.17 C2.12
								 51.43 1.9 51.64 1.62 51.64 C1.43 51.64 1.26 51.54 1.18 51.38 C0.64 51.5 0.64 51.5 0.64 51.5 C1.06
								 52.99 1.06 52.99 1.06 52.99 C1.09 53.06 1.16 53.1 1.23 53.1 C1.23 53.1 1.26 53.1 1.28 53.1 C6.37
								 51.81 6.37 51.81 6.37 51.81 C6.45 51.78 6.5 51.71 6.5 51.64 ZM5.91 51.05 C6.03 51.47 6.03 51.47
								 6.03 51.47 C5.59 51.59 5.59 51.59 5.59 51.59 C5.46 51.17 5.46 51.17 5.46 51.17 L5.91 51.05 ZM5.29
								 51.22 C5.41 51.62 5.41 51.62 5.41 51.62 C4.97 51.73 4.97 51.73 4.97 51.73 C4.85 51.33 4.85 51.33
								 4.85 51.33 L5.29 51.22 Z" class="st5"/>
				</g>
				<g id="shape75-54" v:mID="75" v:groupContext="shape" transform="translate(-1.64868E-14,-5.29134)">
					<title>Azure Subscription.75</title>
					<path d="M3.72 47.72 C3.05 47.72 2.49 47.17 2.49 46.53 C2.49 45.87 3.05 45.35 3.72 45.35 C4.41 45.35 4.97 45.87
								 4.97 46.53 C4.97 47.17 4.41 47.72 3.72 47.72 ZM6.67 51.36 C6.72 51.54 6.72 51.54 6.72 51.54 C6.72
								 51.57 6.74 51.62 6.74 51.64 C6.74 51.83 6.62 51.97 6.42 52.02 C5.02 52.39 5.02 52.39 5.02 52.39
								 C5.61 54.69 5.61 54.69 5.61 54.69 C5.68 55.02 5.49 55.32 5.17 55.42 C5.12 55.42 5.07 55.42 5.02
								 55.42 C4.72 55.42 4.48 55.26 4.41 54.97 C3.82 52.7 3.82 52.7 3.82 52.7 C3.47 52.8 3.47 52.8 3.47
								 52.8 C2.91 54.97 2.91 54.97 2.91 54.97 C2.86 55.26 2.58 55.42 2.31 55.42 C2.27 55.42 2.22 55.42
								 2.17 55.42 C1.85 55.32 1.65 55.02 1.72 54.69 C2.12 53.13 2.12 53.13 2.12 53.13 C1.33 53.34 1.33
								 53.34 1.33 53.34 C1.31 53.34 1.26 53.34 1.23 53.34 C1.04 53.34 0.89 53.25 0.84 53.06 C0 50.13 -0
								 50.13 0 50.13 C0 50.1 0 50.08 0 50.03 C-0 49.87 0.13 49.7 0.3 49.65 C1.21 49.42 1.21 49.42 1.21
								 49.42 C2.61 48.35 2.61 48.35 2.61 48.35 C2.63 48.33 2.68 48.31 2.71 48.31 C2.88 48.17 3.2 48.09
								 3.67 48.09 C4.31 48.09 4.65 48.26 4.8 48.5 C5.39 48.33 5.39 48.33 5.39 48.33 C5.44 48.33 5.46 48.33
								 5.51 48.33 C5.68 48.33 5.86 48.45 5.91 48.61 C6.42 50.43 6.42 50.43 6.42 50.43 C6.47 50.43 6.47
								 50.43 6.47 50.43 C6.77 50.43 6.96 50.65 6.96 50.91 C6.96 51.12 6.84 51.28 6.67 51.36 ZM2.12 50.27
								 C5.83 49.3 5.83 49.3 5.83 49.3 C5.66 48.69 5.66 48.69 5.66 48.69 C5.66 48.61 5.59 48.57 5.51 48.57
								 C5.49 48.57 5.49 48.57 5.46 48.57 C3.13 49.16 3.13 49.16 3.13 49.16 C2.12 49.94 2.12 49.94 2.12
								 49.94 L2.12 50.27 ZM0.42 50.7 C1.13 50.53 1.13 50.53 1.13 50.53 C1.13 49.68 1.13 49.68 1.13 49.68
								 C0.37 49.87 0.37 49.87 0.37 49.87 C0.3 49.89 0.25 49.96 0.25 50.03 C0.25 50.06 0.25 50.06 0.25 50.08
								 L0.42 50.7 ZM6.5 51.64 C6.5 51.64 6.5 51.62 6.47 51.59 C6.08 50.1 6.08 50.1 6.08 50.1 C2.12 51.12
								 2.12 51.12 2.12 51.12 C2.12 51.17 2.12 51.17 2.12 51.17 C2.12 51.17 2.12 51.17 2.12 51.17 C2.12
								 51.43 1.9 51.64 1.62 51.64 C1.43 51.64 1.26 51.54 1.18 51.38 C0.64 51.5 0.64 51.5 0.64 51.5 C1.06
								 52.99 1.06 52.99 1.06 52.99 C1.09 53.06 1.16 53.1 1.23 53.1 C1.23 53.1 1.26 53.1 1.28 53.1 C6.37
								 51.81 6.37 51.81 6.37 51.81 C6.45 51.78 6.5 51.71 6.5 51.64 ZM5.91 51.05 C6.03 51.47 6.03 51.47
								 6.03 51.47 C5.59 51.59 5.59 51.59 5.59 51.59 C5.46 51.17 5.46 51.17 5.46 51.17 L5.91 51.05 ZM5.29
								 51.22 C5.41 51.62 5.41 51.62 5.41 51.62 C4.97 51.73 4.97 51.73 4.97 51.73 C4.85 51.33 4.85 51.33
								 4.85 51.33 L5.29 51.22 Z" class="st5"/>
				</g>
				<g id="shape76-56" v:mID="76" v:groupContext="shape" transform="translate(4.11275,-5.29134)">
					<title>No Symbol</title>
					<v:userDefs>
						<v:ud v:nameU="MaxThicknessPercent" v:prompt="" v:val="VT0(0.6000600060006):26"/>
						<v:ud v:nameU="visVersion" v:prompt="" v:val="VT0(15):26"/>
					</v:userDefs>
					<path d="M10.45 50.19 A5.2267 5.2267 -180 1 0 0 50.19 A5.2267 5.2267 -180 1 0 10.45 50.19 ZM2.47 49.07 A2.90671
								 2.90671 -180 0 0 6.35 52.95 L2.47 49.07 ZM7.98 51.31 A2.90671 2.90671 -180 0 0 4.1 47.44 L7.98 51.31
								 Z" class="st7"/>
				</g>
			</g>
		</g>
	</g>
</svg>
