<?xml version="1.0" encoding="UTF-8" standalone="no"?>
<!DOCTYPE svg PUBLIC "-//W3C//DTD SVG 1.1//EN" "http://www.w3.org/Graphics/SVG/1.1/DTD/svg11.dtd">
<!-- Generated by Microsoft Visio, SVG Export MoreSubscriptionOwners.svg Page-1 -->
<svg xmlns="http://www.w3.org/2000/svg" xmlns:xlink="http://www.w3.org/1999/xlink" xmlns:ev="http://www.w3.org/2001/xml-events"
		xmlns:v="http://schemas.microsoft.com/visio/2003/SVGExtensions/" width="0.774196in" height="0.768892in"
		viewBox="0 0 55.7421 55.3602" xml:space="preserve" color-interpolation-filters="sRGB" class="st8">
	<v:documentProperties v:langID="1033" v:viewMarkup="false"/>

	<style type="text/css">
	<![CDATA[
		.st1 {fill:#ffffff;stroke:none;stroke-linecap:round;stroke-linejoin:round;stroke-width:0.75}
		.st2 {fill:#ffc000;stroke:none;stroke-linecap:round;stroke-linejoin:round;stroke-width:0.75}
		.st3 {fill:#bf9000;stroke:none;stroke-linecap:round;stroke-linejoin:round;stroke-width:0.75}
		.st4 {fill:#ffe699;stroke:none;stroke-linecap:round;stroke-linejoin:round;stroke-width:0.75}
		.st5 {fill:#3f5765;stroke:none;stroke-linecap:round;stroke-linejoin:round;stroke-width:0.75}
		.st6 {stroke:#92d050;stroke-linecap:round;stroke-linejoin:round;stroke-width:0.24}
		.st7 {fill:#a5a5a5;stroke:none;stroke-linecap:round;stroke-linejoin:round;stroke-width:0.24}
		.st8 {fill:none;fill-rule:evenodd;font-size:12px;overflow:visible;stroke-linecap:square;stroke-miterlimit:3}
	]]>
	</style>

	<g v:mID="0" v:index="1" v:groupContext="foregroundPage">
		<title>Page-1</title>
		<v:pageProperties v:drawingScale="0.0393701" v:pageScale="0.0393701" v:drawingUnits="24" v:shadowOffsetX="9"
				v:shadowOffsetY="-9"/>
		<g id="group144-1" transform="translate(0.375,-0.375)" v:mID="144" v:groupContext="group">
			<title>Sheet.144</title>
			<g id="shape81-2" v:mID="81" v:groupContext="shape">
				<title>Sheet.81</title>
				<rect x="0" y="0.750002" width="54.9921" height="54.6102" class="st1"/>
			</g>
			<g id="group83-4" transform="translate(10.33,-30.7728)" v:mID="83" v:groupContext="group">
				<title>Sheet.83</title>
				<g id="shape83-5" v:mID="83" v:groupContext="groupContent">
					<path d="M4.27 45.32 C4.81 44.79 5.67 44.79 6.21 45.33 L10.06 49.2 C10.59 49.73 10.59 50.59 10.05 51.12 L6.18
								 54.97 C5.65 55.5 4.78 55.5 4.25 54.97 L0.4 51.1 C-0.13 50.56 -0.13 49.7 0.4 49.17 L4.27 45.32 Z"
							class="st2"/>
				</g>
			</g>
			<g id="group84-7" transform="translate(13.7563,-24.2762)" v:mID="84" v:groupContext="group">
				<title>Sheet.84</title>
				<g id="shape84-8" v:mID="84" v:groupContext="groupContent">
					<path d="M3.2 43.32 L3.2 53.76 L1.6 55.36 L0 53.76 L0 43.32 L3.2 43.32 Z" class="st2"/>
				</g>
			</g>
			<g id="group85-10" transform="translate(14.3429,-37.7532)" v:mID="85" v:groupContext="group">
				<title>Sheet.85</title>
				<g id="shape85-11" v:mID="85" v:groupContext="groupContent">
					<path d="M0 54.19 C0 53.54 0.53 53.02 1.17 53.02 C1.82 53.02 2.35 53.54 2.35 54.19 C2.35 54.84 1.82 55.36 1.17
								 55.36 C0.53 55.36 0 54.84 0 54.19 Z" class="st1"/>
				</g>
			</g>
			<g id="group86-13" transform="translate(14.3962,-26.133)" v:mID="86" v:groupContext="group">
				<title>Sheet.86</title>
				<g id="shape86-14" v:mID="86" v:groupContext="groupContent">
					<path d="M0 50.4 L0 55.36 L0.96 55.36 L0.96 50.4 L0 50.4 L0 50.4 Z" class="st3"/>
				</g>
			</g>
			<g id="group87-16" transform="translate(14.3962,-30.4021)" v:mID="87" v:groupContext="group">
				<title>Sheet.87</title>
				<g id="shape87-17" v:mID="87" v:groupContext="groupContent">
					<path d="M0 54.03 L0.96 54.69 L0 55.36 L0 54.03 Z" class="st3"/>
				</g>
			</g>
			<g id="group88-19" transform="translate(14.3947,-25.0511)" v:mID="88" v:groupContext="group">
				<title>Sheet.88</title>
				<g id="shape88-20" v:mID="88" v:groupContext="groupContent">
					<path d="M0.96 54.26 L0.96 55.36 L0 54.26 L0.96 54.26 Z" class="st3"/>
				</g>
			</g>
			<g id="group89-22" transform="translate(16.6893,-25.6079)" v:mID="89" v:groupContext="group">
				<title>Sheet.89</title>
				<g id="shape89-23" v:mID="89" v:groupContext="groupContent">
					<path d="M0 53.55 L1.17 54.21 L0 55.36 L0 53.55 Z" class="st2"/>
				</g>
			</g>
			<g id="group90-25" transform="translate(16.6893,-26.9929)" v:mID="90" v:groupContext="group">
				<title>Sheet.90</title>
				<g id="shape90-26" v:mID="90" v:groupContext="groupContent">
					<path d="M0 53.55 L1.17 54.45 L0 55.36 L0 53.55 Z" class="st2"/>
				</g>
			</g>
			<g id="group91-28" transform="translate(16.6893,-28.3246)" v:mID="91" v:groupContext="group">
				<title>Sheet.91</title>
				<g id="shape91-29" v:mID="91" v:groupContext="groupContent">
					<path d="M0 53.55 L1.17 54.45 L0 55.36 L0 53.55 Z" class="st2"/>
				</g>
			</g>
			<g id="group92-31" transform="translate(12.3165,-35.8355)" v:mID="92" v:groupContext="group">
				<title>Sheet.92</title>
				<g id="shape92-32" v:mID="92" v:groupContext="groupContent">
					<path d="M0 54.56 L0 55.36 L6.77 55.36 L6.77 54.56 L0 54.56 L0 54.56 Z" class="st4"/>
				</g>
			</g>
			<g id="group93-34" transform="translate(12.3165,-34.6104)" v:mID="93" v:groupContext="group">
				<title>Sheet.93</title>
				<g id="shape93-35" v:mID="93" v:groupContext="groupContent">
					<path d="M0 54.56 L0 55.36 L6.77 55.36 L6.77 54.56 L0 54.56 L0 54.56 Z" class="st4"/>
				</g>
			</g>
			<g id="shape95-37" v:mID="95" v:groupContext="shape" transform="translate(11.9055,-13.898)">
				<title>Azure Subscription.47</title>
				<path d="M3.72 47.66 C3.05 47.66 2.49 47.11 2.49 46.48 C2.49 45.82 3.05 45.3 3.72 45.3 C4.41 45.3 4.97 45.82 4.97
							 46.48 C4.97 47.11 4.41 47.66 3.72 47.66 ZM6.67 51.3 C6.72 51.49 6.72 51.49 6.72 51.49 C6.72 51.51 6.74
							 51.56 6.74 51.58 C6.74 51.77 6.62 51.91 6.42 51.96 C5.02 52.34 5.02 52.34 5.02 52.34 C5.61 54.63 5.61
							 54.63 5.61 54.63 C5.68 54.96 5.49 55.27 5.17 55.36 C5.12 55.36 5.07 55.36 5.02 55.36 C4.72 55.36 4.48
							 55.2 4.41 54.92 C3.82 52.65 3.82 52.65 3.82 52.65 C3.47 52.74 3.47 52.74 3.47 52.74 C2.91 54.92 2.91
							 54.92 2.91 54.92 C2.86 55.2 2.58 55.36 2.31 55.36 C2.27 55.36 2.22 55.36 2.17 55.36 C1.85 55.27 1.65
							 54.96 1.72 54.63 C2.12 53.07 2.12 53.07 2.12 53.07 C1.33 53.28 1.33 53.28 1.33 53.28 C1.31 53.28 1.26
							 53.28 1.23 53.28 C1.04 53.28 0.89 53.19 0.84 53 C-0 50.07 0 50.07 0 50.07 C0 50.04 0 50.02 0 49.98 C0
							 49.81 0.13 49.64 0.3 49.6 C1.21 49.36 1.21 49.36 1.21 49.36 C2.61 48.3 2.61 48.3 2.61 48.3 C2.63 48.27
							 2.68 48.25 2.71 48.25 C2.88 48.11 3.2 48.04 3.67 48.04 C4.31 48.04 4.65 48.2 4.8 48.44 C5.39 48.27 5.39
							 48.27 5.39 48.27 C5.44 48.27 5.46 48.27 5.51 48.27 C5.68 48.27 5.86 48.39 5.91 48.56 C6.42 50.38 6.42
							 50.38 6.42 50.38 C6.47 50.38 6.47 50.38 6.47 50.38 C6.77 50.38 6.96 50.59 6.96 50.85 C6.96 51.06 6.84
							 51.23 6.67 51.3 ZM2.12 50.21 C5.83 49.24 5.83 49.24 5.83 49.24 C5.66 48.63 5.66 48.63 5.66 48.63 C5.66
							 48.56 5.59 48.51 5.51 48.51 C5.49 48.51 5.49 48.51 5.46 48.51 C3.13 49.1 3.13 49.1 3.13 49.1 C2.12 49.88
							 2.12 49.88 2.12 49.88 L2.12 50.21 ZM0.42 50.64 C1.13 50.47 1.13 50.47 1.13 50.47 C1.13 49.62 1.13 49.62
							 1.13 49.62 C0.37 49.81 0.37 49.81 0.37 49.81 C0.3 49.83 0.25 49.91 0.25 49.98 C0.25 50 0.25 50 0.25
							 50.02 L0.42 50.64 ZM6.5 51.58 C6.5 51.58 6.5 51.56 6.47 51.54 C6.08 50.04 6.08 50.04 6.08 50.04 C2.12
							 51.06 2.12 51.06 2.12 51.06 C2.12 51.11 2.12 51.11 2.12 51.11 C2.12 51.11 2.12 51.11 2.12 51.11 C2.12
							 51.37 1.9 51.58 1.62 51.58 C1.43 51.58 1.26 51.49 1.18 51.32 C0.64 51.44 0.64 51.44 0.64 51.44 C1.06
							 52.93 1.06 52.93 1.06 52.93 C1.09 53 1.16 53.05 1.23 53.05 C1.23 53.05 1.26 53.05 1.28 53.05 C6.37 51.75
							 6.37 51.75 6.37 51.75 C6.45 51.73 6.5 51.65 6.5 51.58 ZM5.91 50.99 C6.03 51.42 6.03 51.42 6.03 51.42
							 C5.59 51.54 5.59 51.54 5.59 51.54 C5.46 51.11 5.46 51.11 5.46 51.11 L5.91 50.99 ZM5.29 51.16 C5.41 51.56
							 5.41 51.56 5.41 51.56 C4.97 51.68 4.97 51.68 4.97 51.68 C4.85 51.28 4.85 51.28 4.85 51.28 L5.29 51.16
							 Z" class="st5"/>
			</g>
			<g id="shape96-39" v:mID="96" v:groupContext="shape" transform="translate(33.5433,-22.2726)">
				<title>Azure Subscription.48</title>
				<path d="M3.72 47.66 C3.05 47.66 2.49 47.11 2.49 46.48 C2.49 45.82 3.05 45.3 3.72 45.3 C4.41 45.3 4.97 45.82 4.97
							 46.48 C4.97 47.11 4.41 47.66 3.72 47.66 ZM6.67 51.3 C6.72 51.49 6.72 51.49 6.72 51.49 C6.72 51.51 6.74
							 51.56 6.74 51.58 C6.74 51.77 6.62 51.91 6.42 51.96 C5.02 52.34 5.02 52.34 5.02 52.34 C5.61 54.63 5.61
							 54.63 5.61 54.63 C5.68 54.96 5.49 55.27 5.17 55.36 C5.12 55.36 5.07 55.36 5.02 55.36 C4.72 55.36 4.48
							 55.2 4.41 54.92 C3.82 52.65 3.82 52.65 3.82 52.65 C3.47 52.74 3.47 52.74 3.47 52.74 C2.91 54.92 2.91
							 54.92 2.91 54.92 C2.86 55.2 2.58 55.36 2.31 55.36 C2.27 55.36 2.22 55.36 2.17 55.36 C1.85 55.27 1.65
							 54.96 1.72 54.63 C2.12 53.07 2.12 53.07 2.12 53.07 C1.33 53.28 1.33 53.28 1.33 53.28 C1.31 53.28 1.26
							 53.28 1.23 53.28 C1.04 53.28 0.89 53.19 0.84 53 C-0 50.07 0 50.07 0 50.07 C0 50.04 0 50.02 0 49.98 C0
							 49.81 0.13 49.64 0.3 49.6 C1.21 49.36 1.21 49.36 1.21 49.36 C2.61 48.3 2.61 48.3 2.61 48.3 C2.63 48.27
							 2.68 48.25 2.71 48.25 C2.88 48.11 3.2 48.04 3.67 48.04 C4.31 48.04 4.65 48.2 4.8 48.44 C5.39 48.27 5.39
							 48.27 5.39 48.27 C5.44 48.27 5.46 48.27 5.51 48.27 C5.68 48.27 5.86 48.39 5.91 48.56 C6.42 50.38 6.42
							 50.38 6.42 50.38 C6.47 50.38 6.47 50.38 6.47 50.38 C6.77 50.38 6.96 50.59 6.96 50.85 C6.96 51.06 6.84
							 51.23 6.67 51.3 ZM2.12 50.21 C5.83 49.24 5.83 49.24 5.83 49.24 C5.66 48.63 5.66 48.63 5.66 48.63 C5.66
							 48.56 5.59 48.51 5.51 48.51 C5.49 48.51 5.49 48.51 5.46 48.51 C3.13 49.1 3.13 49.1 3.13 49.1 C2.12 49.88
							 2.12 49.88 2.12 49.88 L2.12 50.21 ZM0.42 50.64 C1.13 50.47 1.13 50.47 1.13 50.47 C1.13 49.62 1.13 49.62
							 1.13 49.62 C0.37 49.81 0.37 49.81 0.37 49.81 C0.3 49.83 0.25 49.91 0.25 49.98 C0.25 50 0.25 50 0.25
							 50.02 L0.42 50.64 ZM6.5 51.58 C6.5 51.58 6.5 51.56 6.47 51.54 C6.08 50.04 6.08 50.04 6.08 50.04 C2.12
							 51.06 2.12 51.06 2.12 51.06 C2.12 51.11 2.12 51.11 2.12 51.11 C2.12 51.11 2.12 51.11 2.12 51.11 C2.12
							 51.37 1.9 51.58 1.62 51.58 C1.43 51.58 1.26 51.49 1.18 51.32 C0.64 51.44 0.64 51.44 0.64 51.44 C1.06
							 52.93 1.06 52.93 1.06 52.93 C1.09 53 1.16 53.05 1.23 53.05 C1.23 53.05 1.26 53.05 1.28 53.05 C6.37 51.75
							 6.37 51.75 6.37 51.75 C6.45 51.73 6.5 51.65 6.5 51.58 ZM5.91 50.99 C6.03 51.42 6.03 51.42 6.03 51.42
							 C5.59 51.54 5.59 51.54 5.59 51.54 C5.46 51.11 5.46 51.11 5.46 51.11 L5.91 50.99 ZM5.29 51.16 C5.41 51.56
							 5.41 51.56 5.41 51.56 C4.97 51.68 4.97 51.68 4.97 51.68 C4.85 51.28 4.85 51.28 4.85 51.28 L5.29 51.16
							 Z" class="st5"/>
			</g>
			<g id="shape97-41" v:mID="97" v:groupContext="shape" transform="translate(20.7874,-10.1986)">
				<title>Right Parenthesis</title>
				<v:userDefs>
					<v:ud v:nameU="visVersion" v:prompt="" v:val="VT0(15):26"/>
				</v:userDefs>
				<path d="M-0 55.36 A7.43014 4.57217 -180 0 0 6.96 51.93 L6.96 24.51 A7.43014 4.57217 -180 0 0 -0 21.09" class="st6"/>
			</g>
			<g id="shape142-44" v:mID="142" v:groupContext="shape" transform="translate(23.6221,-22.2726)">
				<title>Plus</title>
				<v:userDefs>
					<v:ud v:nameU="visVersion" v:prompt="" v:val="VT0(15):26"/>
				</v:userDefs>
				<path d="M4.78 50.58 L4.78 48.19 L3.19 48.19 L3.19 50.58 L0.8 50.58 L0.8 52.17 L3.19 52.17 L3.19 54.56 L4.78 54.56
							 L4.78 52.17 L7.17 52.17 L7.17 50.58 L4.78 50.58 Z" class="st7"/>
			</g>
		</g>
	</g>
</svg>
