<?xml version="1.0" encoding="UTF-8" standalone="no"?>
<!DOCTYPE svg PUBLIC "-//W3C//DTD SVG 1.1//EN" "http://www.w3.org/Graphics/SVG/1.1/DTD/svg11.dtd">
<!-- Generated by Microsoft Visio, SVG Export PHPUpdate.svg Page-1 -->
<svg xmlns="http://www.w3.org/2000/svg" xmlns:xlink="http://www.w3.org/1999/xlink" xmlns:ev="http://www.w3.org/2001/xml-events"
		xmlns:v="http://schemas.microsoft.com/visio/2003/SVGExtensions/" width="0.577346in" height="0.573409in"
		viewBox="0 0 41.5689 41.2854" xml:space="preserve" color-interpolation-filters="sRGB" class="st6">
	<v:documentProperties v:langID="1033" v:viewMarkup="false"/>

	<style type="text/css">
	<![CDATA[
		.st1 {fill:#ffffff;stroke:none;stroke-linecap:round;stroke-linejoin:round;stroke-width:0.75}
		.st2 {fill:#3f5765;stroke:none;stroke-linecap:round;stroke-linejoin:round;stroke-width:0.75}
		.st3 {fill:#55d2f6;stroke:none;stroke-linecap:round;stroke-linejoin:round;stroke-width:0.75}
		.st4 {stroke:#556a8a;stroke-linecap:round;stroke-linejoin:round;stroke-width:1.49999}
		.st5 {fill:#556a8a;stroke:none;stroke-linecap:round;stroke-linejoin:round;stroke-width:0.75}
		.st6 {fill:none;fill-rule:evenodd;font-size:12px;overflow:visible;stroke-linecap:square;stroke-miterlimit:3}
	]]>
	</style>

	<g v:mID="0" v:index="1" v:groupContext="foregroundPage">
		<title>Page-1</title>
		<v:pageProperties v:drawingScale="0.0393701" v:pageScale="0.0393701" v:drawingUnits="24" v:shadowOffsetX="9"
				v:shadowOffsetY="-9"/>
		<g id="group518-1" transform="translate(0.375,-0.375)" v:mID="518" v:groupContext="group">
			<title>Sheet.518</title>
			<g id="shape23-2" v:mID="23" v:groupContext="shape">
				<title>Sheet.23</title>
				<rect x="0" y="0.750001" width="40.8189" height="40.5354" class="st1"/>
			</g>
			<g id="group517-4" transform="translate(5.24409,-10.8967)" v:mID="517" v:groupContext="group">
				<title>Sheet.517</title>
				<g id="group447-5" v:mID="447" v:groupContext="group">
					<title>PHP #1</title>
					<g id="shape448-6" v:mID="448" v:groupContext="shape">
						<title>Sheet.448</title>
						<path d="M23.46 34.53 C23.28 33.87 22.9 33.35 22.45 32.87 C21.98 32.37 21.42 31.94 20.82 31.59 C19.92 31.06
									 18.96 30.66 17.96 30.36 C16.8 30 15.62 29.75 14.42 29.63 C13.84 29.55 13.26 29.5 12.69 29.48
									 C12.69 29.48 9 29.22 5.53 30.36 C2.72 31.26 1.51 32.21 0.59 33.55 C0.46 33.72 0.36 33.92 0.28
									 34.12 C-0.04 34.85 -0.09 35.58 0.16 36.31 C0.33 36.89 0.66 37.37 1.06 37.79 C1.51 38.32 2.07
									 38.72 2.64 39.1 C3.5 39.63 4.43 40 5.38 40.33 C6.51 40.71 7.72 40.96 8.92 41.11 C9.4 41.16 9.92
									 41.21 10.43 41.24 C10.88 41.29 11.33 41.29 11.81 41.29 C12.46 41.29 13.11 41.26 13.77 41.21
									 C14.14 41.16 14.49 41.13 14.87 41.08 C15.42 41.01 15.95 40.91 16.5 40.81 C17.43 40.58 18.36
									 40.31 19.26 39.95 C20.19 39.55 21.07 39.1 21.82 38.47 C22.33 38.07 22.75 37.64 23.08 37.09 C23.36
									 36.66 23.53 36.18 23.58 35.68 C23.61 35.28 23.58 34.9 23.46 34.53 ZM8.69 36.31 C8.24 36.81 7.69
									 37.11 7.01 37.21 C6.86 37.24 6.69 37.24 6.54 37.24 C6.06 37.24 5.56 37.24 5.1 37.24 C5 37.24
									 4.98 37.27 4.98 37.34 C4.85 37.84 4.78 38.35 4.68 38.85 C4.68 38.87 4.65 38.9 4.65 38.92 C4.2
									 38.92 3.72 38.92 3.27 38.92 C3.7 36.81 4.13 34.68 4.55 32.57 C4.58 32.57 4.6 32.57 4.6 32.57
									 C5.56 32.57 6.51 32.57 7.46 32.57 C7.82 32.57 8.17 32.64 8.49 32.77 C9 32.99 9.3 33.37 9.37
									 33.9 C9.5 34.8 9.3 35.61 8.69 36.31 ZM14.04 37.24 C13.54 37.24 13.06 37.24 12.56 37.24 C12.59
									 37.06 12.64 36.86 12.66 36.69 C12.79 36.13 12.89 35.56 12.99 34.98 C13.04 34.73 13.09 34.5 13.14
									 34.25 C13.14 34.17 13.16 34.1 13.16 34.05 C13.16 33.82 13.04 33.67 12.81 33.62 C12.71 33.62
									 12.61 33.6 12.54 33.6 C12.13 33.6 11.76 33.6 11.36 33.6 C11.26 33.6 11.23 33.62 11.21 33.72
									 C11.08 34.4 10.93 35.08 10.8 35.76 C10.7 36.23 10.6 36.71 10.5 37.19 C10.5 37.21 10.5 37.24
									 10.45 37.24 C10.03 37.24 9.57 37.24 9.15 37.24 C9.15 37.24 9.12 37.24 9.1 37.24 C9.52 35.1 9.95
									 32.99 10.38 30.86 C10.85 30.86 11.31 30.86 11.78 30.86 C11.76 31.01 11.73 31.13 11.71 31.26
									 C11.63 31.64 11.56 32.04 11.48 32.44 C11.46 32.52 11.51 32.57 11.58 32.57 C12.06 32.57 12.54
									 32.54 12.99 32.57 C13.34 32.57 13.69 32.62 13.99 32.79 C14.29 32.92 14.52 33.14 14.59 33.47
									 C14.64 33.67 14.62 33.87 14.59 34.05 C14.52 34.53 14.44 34.98 14.34 35.46 C14.27 35.88 14.19
									 36.34 14.12 36.76 C14.09 36.91 14.07 37.06 14.04 37.24 ZM19.51 36.51 C19.11 36.91 18.61 37.14
									 18.06 37.21 C17.88 37.24 17.71 37.24 17.53 37.24 C17.15 37.24 16.78 37.24 16.4 37.24 C16.3 37.24
									 16.23 37.24 16.13 37.24 C16.03 37.24 16.03 37.27 16 37.34 C15.95 37.64 15.87 37.97 15.82 38.27
									 C15.77 38.47 15.72 38.67 15.7 38.9 C15.7 38.9 15.67 38.92 15.65 38.92 C15.2 38.92 14.77 38.92
									 14.32 38.92 C14.32 38.92 14.32 38.92 14.29 38.92 C14.34 38.72 14.37 38.5 14.42 38.3 C14.54 37.67
									 14.67 37.04 14.8 36.41 C14.92 35.78 15.05 35.15 15.17 34.53 C15.3 33.92 15.42 33.32 15.55 32.72
									 C15.57 32.57 15.57 32.57 15.75 32.57 C16.65 32.57 17.58 32.57 18.51 32.57 C18.91 32.57 19.29
									 32.64 19.67 32.84 C20.07 33.07 20.32 33.42 20.39 33.87 C20.57 34.88 20.29 35.78 19.51 36.51
									 Z" class="st2"/>
					</g>
					<g id="shape449-8" v:mID="449" v:groupContext="shape" transform="translate(5.14828,-4.82434)">
						<title>Sheet.449</title>
						<path d="M1.84 38.5 C1.61 38.47 1.39 38.5 1.16 38.5 C1.16 38.5 1.16 38.5 1.16 38.47 C0.96 38.47 0.76 38.47
									 0.56 38.47 C0.48 38.47 0.46 38.5 0.43 38.6 C0.43 38.62 0.41 38.67 0.41 38.7 C0.33 39.17 0.26
									 39.63 0.18 40.1 C0.13 40.46 0.06 40.81 0.01 41.16 C-0.02 41.26 0.03 41.29 0.13 41.29 C0.41 41.29
									 0.66 41.29 0.94 41.29 C1.14 41.29 1.31 41.29 1.49 41.24 C2.07 41.13 2.44 40.81 2.64 40.26 C2.72
									 39.98 2.77 39.7 2.79 39.4 C2.79 39.17 2.74 38.97 2.57 38.8 C2.37 38.6 2.12 38.52 1.84 38.5 Z"
								class="st2"/>
					</g>
					<g id="shape450-10" v:mID="450" v:groupContext="shape" transform="translate(16.3927,-4.82434)">
						<title>Sheet.450</title>
						<path d="M2.17 38.75 C1.99 38.57 1.79 38.52 1.59 38.5 C1.39 38.47 1.19 38.5 0.99 38.5 C0.99 38.5 0.99 38.5
									 0.99 38.47 C0.84 38.47 0.66 38.47 0.49 38.47 C0.41 38.47 0.39 38.5 0.36 38.6 C0.31 39.05 0.24
									 39.48 0.18 39.93 C0.13 40.33 0.06 40.76 0.01 41.16 C-0.02 41.26 0.01 41.29 0.11 41.29 C0.34
									 41.29 0.59 41.29 0.81 41.29 C0.96 41.29 1.14 41.29 1.29 41.24 C1.77 41.13 2.09 40.81 2.27 40.26
									 C2.34 39.95 2.39 39.65 2.39 39.35 C2.39 39.1 2.32 38.9 2.17 38.75 Z" class="st2"/>
					</g>
				</g>
				<g id="group511-12" transform="translate(20.2205,-8.73706)" v:mID="511" v:groupContext="group">
					<title>Upgrade</title>
					<g id="shape512-13" v:mID="512" v:groupContext="shape">
						<title>Sheet.512</title>
						<path d="M4.97 31.36 C0.55 31.36 -1.67 36.7 1.47 39.84 C2.88 41.25 5.02 41.67 6.88 40.91 C8.73 40.14 9.95
									 38.33 9.95 36.32 C9.95 33.58 7.71 31.36 4.97 31.36 Z" class="st1"/>
					</g>
					<g id="shape513-15" v:mID="513" v:groupContext="shape" transform="translate(0.181781,-0.0760828)">
						<title>Sheet.513</title>
						<path d="M4.03 41.29 C2.2 40.94 0.71 39.64 0.14 37.89 C0.08 37.74 0.04 37.57 0 37.42 L9.93 37.42 C9.9 37.57
									 9.85 37.74 9.81 37.89 C9.22 39.64 7.72 40.94 5.9 41.29 L4.03 41.29 Z" class="st3"/>
					</g>
					<g id="shape514-17" v:mID="514" v:groupContext="shape" transform="translate(0.173784,-0.0826766)">
						<title>Sheet.514</title>
						<path d="M4.98 31.36 C0.56 31.36 -1.66 36.7 1.46 39.83 C2.88 41.25 5.02 41.68 6.87 40.91 C8.73 40.14 9.94
									 38.33 9.94 36.32 C9.94 33.58 7.72 31.36 4.98 31.36" class="st4"/>
					</g>
					<g id="shape515-20" v:mID="515" v:groupContext="shape" transform="translate(4.97483,-2.1851)">
						<title>Sheet.515</title>
						<path d="M0 41.26 L0.34 41.26 L0.34 41.29 L0 41.29 L0 41.26 Z" class="st5"/>
					</g>
					<g id="shape516-22" v:mID="516" v:groupContext="shape" transform="translate(2.8248,-2.04815)">
						<title>Sheet.516</title>
						<path d="M2.15 41.29 L2.49 41.29 L2.49 35.44 L4.4 37.34 L4.64 37.09 L2.33 34.79 L0 37.12 L0.25 37.37 L2.15
									 35.45 L2.15 41.29 Z" class="st5"/>
					</g>
				</g>
			</g>
		</g>
	</g>
</svg>
