<?xml version="1.0" encoding="UTF-8" standalone="no"?>
<!DOCTYPE svg PUBLIC "-//W3C//DTD SVG 1.1//EN" "http://www.w3.org/Graphics/SVG/1.1/DTD/svg11.dtd">
<!-- Generated by Microsoft Visio, SVG Export 015_AAdvisor_NetworkGateway.svg Page-1 -->
<svg xmlns="http://www.w3.org/2000/svg" xmlns:xlink="http://www.w3.org/1999/xlink" xmlns:ev="http://www.w3.org/2001/xml-events"
		xmlns:v="http://schemas.microsoft.com/visio/2003/SVGExtensions/" width="0.294455in" height="0.326215in"
		viewBox="0 0 21.2008 23.4875" xml:space="preserve" color-interpolation-filters="sRGB" class="st5">
	<v:documentProperties v:langID="3082" v:metric="true" v:viewMarkup="false"/>

	<style type="text/css">
	<![CDATA[
		.st1 {fill:#a0a1a2;stroke:none;stroke-linecap:butt;stroke-width:0.75}
		.st2 {fill:#59b4d9;stroke:none;stroke-linecap:butt;stroke-width:0.75}
		.st3 {fill:#ffffff;fill-opacity:0.15;stroke:none;stroke-linecap:butt;stroke-width:0.75}
		.st4 {fill:#ffffff;stroke:none;stroke-linecap:butt;stroke-width:0.75}
		.st5 {fill:none;fill-rule:evenodd;font-size:12px;overflow:visible;stroke-linecap:square;stroke-miterlimit:3}
	]]>
	</style>

	<g v:mID="0" v:index="1" v:groupContext="foregroundPage">
		<title>Page-1</title>
		<v:pageProperties v:drawingScale="0.0393701" v:pageScale="0.0393701" v:drawingUnits="24" v:shadowOffsetX="9"
				v:shadowOffsetY="-9"/>
		<g id="group2-1" transform="translate(0.75,-0.75)" v:mID="2" v:groupContext="group">
			<title>Sheet.2</title>
			<g id="shape3-2" v:mID="3" v:groupContext="shape" transform="translate(2.33067,-13.4563)">
				<title>Sheet.3</title>
				<path d="M15.04 23.09 L15.04 22.12 C15.04 20.19 14.34 18.39 13.1 17.11 C11.96 15.79 9.41 14.96 7.52 14.96 C5.63 14.96
							 3.08 15.79 1.93 17.11 C0.75 18.39 0 20.19 0 22.12 L0 23.09 L3.47 23.49 L3.47 22.61 C3.47 21.46 3.87
							 20.01 4.53 19.27 C5.19 18.52 6.6 18.17 7.52 18.12 C8.44 18.12 9.85 18.52 10.51 19.27 C11.17 20.01 11.57
							 20.98 11.57 22.08 L11.57 23.49 L15.04 23.09 Z" class="st1"/>
			</g>
			<g id="shape4-4" v:mID="4" v:groupContext="shape">
				<title>Sheet.4</title>
				<path d="M2.33 9.64 C0.62 9.64 0 10.65 0 11.97 L0 21.16 C0 22.3 0.7 23.49 2.02 23.49 L17.68 23.49 C19.17 23.49 19.7
							 22.3 19.7 21.16 L19.7 11.97 C19.7 10.78 19.22 9.64 17.37 9.64 L2.33 9.64 Z" class="st2"/>
			</g>
			<g id="shape5-6" v:mID="5" v:groupContext="shape">
				<title>Sheet.5</title>
				<path d="M13.85 9.64 L2.33 9.64 C0.62 9.64 0 10.65 0 11.97 L0 21.16 C0 22.3 0.7 23.49 2.02 23.49 L4.97 23.49 L13.85
							 9.64 Z" class="st3"/>
			</g>
			<g id="shape6-8" v:mID="6" v:groupContext="shape" transform="translate(2.50657,-1.2313)">
				<title>Sheet.6</title>
				<path d="M4.71 14.65 L7.26 12.1 L9.81 14.65 L8 14.65 L8 16.5 L6.46 16.5 L6.46 14.65 C6.46 14.65 4.71 14.65 4.71 14.65
							 ZM0 18.52 L0 17.02 L2.64 17.02 L2.64 15.26 L5.1 17.73 L2.64 20.19 L2.64 18.47 L0 18.47 L0 18.52 ZM7.26
							 23.49 L4.66 20.89 L6.46 20.89 L6.46 19.09 L8 19.09 L8 20.89 L9.85 20.89 L7.26 23.49 ZM14.51 18.52 L11.87
							 18.52 L11.87 20.28 L9.37 17.77 L11.87 15.26 L11.87 17.02 L14.51 17.02 L14.51 18.52 Z" class="st4"/>
			</g>
		</g>
	</g>
</svg>
