<?xml version="1.0" encoding="UTF-8" standalone="no"?>
<!DOCTYPE svg PUBLIC "-//W3C//DTD SVG 1.1//EN" "http://www.w3.org/Graphics/SVG/1.1/DTD/svg11.dtd">
<!-- Generated by Microsoft Visio, SVG Export 016_ASCTasks_VNET.svg Page-1 -->
<svg xmlns="http://www.w3.org/2000/svg" xmlns:xlink="http://www.w3.org/1999/xlink" xmlns:ev="http://www.w3.org/2001/xml-events"
		xmlns:v="http://schemas.microsoft.com/visio/2003/SVGExtensions/" width="0.234025in" height="0.143075in"
		viewBox="0 0 16.8498 10.3014" xml:space="preserve" color-interpolation-filters="sRGB" class="st3">
	<v:documentProperties v:langID="3082" v:metric="true" v:viewMarkup="false"/>

	<style type="text/css">
	<![CDATA[
		.st1 {fill:#3999c6;stroke:none;stroke-linecap:butt;stroke-width:0.75}
		.st2 {fill:#7fba00;stroke:none;stroke-linecap:butt;stroke-width:0.75}
		.st3 {fill:none;fill-rule:evenodd;font-size:12px;overflow:visible;stroke-linecap:square;stroke-miterlimit:3}
	]]>
	</style>

	<g v:mID="0" v:index="1" v:groupContext="foregroundPage">
		<title>Page-1</title>
		<v:pageProperties v:drawingScale="0.0393701" v:pageScale="0.0393701" v:drawingUnits="24" v:shadowOffsetX="9"
				v:shadowOffsetY="-9"/>
		<g id="group14-1" transform="translate(0.700507,-0.700507)" v:mID="14" v:groupContext="group">
			<title>Sheet.14</title>
			<g id="shape15-2" v:mID="15" v:groupContext="shape" transform="translate(10.5138,0)">
				<title>Sheet.15</title>
				<path d="M4.78 6.07 C4.94 5.92 4.9 5.67 4.78 5.52 L4.05 4.78 L0.74 1.57 C0.58 1.41 0.37 1.41 0.21 1.57 C0.06 1.72
							 0.03 1.96 0.21 2.12 L3.68 5.52 C3.83 5.67 3.83 5.92 3.68 6.07 L0.15 9.6 C0 9.75 0 9.99 0.15 10.15 C0.31
							 10.3 0.55 10.27 0.67 10.15 L3.95 6.9 C3.95 6.9 3.95 6.9 3.98 6.87 L4.78 6.07 Z" class="st1"/>
			</g>
			<g id="shape16-4" v:mID="16" v:groupContext="shape">
				<title>Sheet.16</title>
				<path d="M0.15 6.07 C0 5.92 0.03 5.67 0.15 5.52 L0.89 4.78 L4.2 1.57 C4.35 1.41 4.57 1.41 4.72 1.57 C4.87 1.72 4.9
							 1.96 4.72 2.12 L1.32 5.52 C1.16 5.67 1.16 5.92 1.32 6.07 L4.78 9.6 C4.94 9.75 4.94 9.99 4.78 10.15 C4.63
							 10.3 4.38 10.27 4.26 10.15 L0.92 6.93 C0.92 6.93 0.92 6.93 0.89 6.9 L0.15 6.07 Z" class="st1"/>
			</g>
			<g id="shape17-6" v:mID="17" v:groupContext="shape" transform="translate(3.55568,-3.49437)">
				<title>Sheet.17</title>
				<path d="M2.08 9.29 C2.08 9.87 1.59 10.3 1.07 10.3 C0.55 10.3 0 9.81 0 9.29 C0 8.77 0.43 8.28 1.07 8.28 C1.69 8.28
							 2.08 8.77 2.08 9.29 Z" class="st2"/>
			</g>
			<g id="shape18-8" v:mID="18" v:groupContext="shape" transform="translate(6.65157,-3.49437)">
				<title>Sheet.18</title>
				<path d="M2.08 9.29 C2.08 9.87 1.59 10.3 1.07 10.3 C0.55 10.3 0 9.81 0 9.29 C0 8.77 0.49 8.28 1.07 8.28 C1.66 8.28
							 2.08 8.77 2.08 9.29 Z" class="st2"/>
			</g>
			<g id="shape19-10" v:mID="19" v:groupContext="shape" transform="translate(9.83942,-3.49437)">
				<title>Sheet.19</title>
				<ellipse cx="1.01153" cy="9.28986" rx="1.01153" ry="1.01153" class="st2"/>
			</g>
		</g>
	</g>
</svg>
