<?xml version="1.0" encoding="UTF-8" standalone="no"?>
<!DOCTYPE svg PUBLIC "-//W3C//DTD SVG 1.1//EN" "http://www.w3.org/Graphics/SVG/1.1/DTD/svg11.dtd">
<!-- Generated by Microsoft Visio, SVG Export 018_ASCTasks_WebApp.svg Page-1 -->
<svg xmlns="http://www.w3.org/2000/svg" xmlns:xlink="http://www.w3.org/1999/xlink" xmlns:ev="http://www.w3.org/2001/xml-events"
		xmlns:v="http://schemas.microsoft.com/visio/2003/SVGExtensions/" width="8.26772in" height="11.6929in"
		viewBox="0 0 595.276 841.889" xml:space="preserve" color-interpolation-filters="sRGB" class="st2">
	<v:documentProperties v:langID="3082">
		<v:userDefs>
			<v:ud v:nameU="msvNoAutoConnect" v:val="VT0(1):26"/>
		</v:userDefs>
	</v:documentProperties>

	<style type="text/css">
	<![CDATA[
		.st1 {fill:#0078d7;stroke:none;stroke-linecap:butt;stroke-width:0.772726}
		.st2 {fill:none;fill-rule:evenodd;font-size:12px;overflow:visible;stroke-linecap:square;stroke-miterlimit:3}
	]]>
	</style>

	<g v:mID="0" v:index="1" v:groupContext="foregroundPage">
		<title>Page-1</title>
		<v:pageProperties v:drawingScale="0.0393701" v:pageScale="0.0393701" v:drawingUnits="24" v:shadowOffsetX="8.99999"
				v:shadowOffsetY="-8.99999"/>
		<g id="group1-1" transform="translate(0,-826.342)" v:mID="1" v:groupContext="group">
			<title>Sheet.1</title>
			<g id="group2-2" v:mID="2" v:groupContext="group">
				<title>Sheet.2</title>
			</g>
			<g id="group3-3" v:mID="3" v:groupContext="group">
				<title>paths</title>
				<g id="group4-4" v:mID="4" v:groupContext="group">
					<title>Sheet.4</title>
					<g id="group5-5" v:mID="5" v:groupContext="group">
						<title>Sheet.5</title>
						<g id="shape6-6" v:mID="6" v:groupContext="shape">
							<title>Sheet.6</title>
							<path d="M12.64 839.55 C11.44 840.48 10.02 840.92 8.62 840.92 C6.6 840.92 4.67 840.03 3.34 838.3 C1.13
										 835.4 1.69 831.26 4.59 829.04 C5.79 828.11 7.21 827.67 8.62 827.67 C10.63 827.67 12.56 828.56
										 13.89 830.29 C16.11 833.19 15.54 837.34 12.64 839.55 ZM14.66 829.65 C13.17 827.68 10.87
										 826.67 8.62 826.67 C7.01 826.67 5.36 827.2 3.99 828.24 C0.65 830.82 0 835.57 2.58 838.91
										 C4.08 840.88 6.33 841.89 8.62 841.89 C10.23 841.89 11.89 841.36 13.26 840.32 C16.6 837.78
										 17.24 832.99 14.66 829.65 Z" class="st1"/>
						</g>
					</g>
					<g id="group7-8" transform="translate(2.77501,-2.30893)" v:mID="7" v:groupContext="group">
						<title>Sheet.7</title>
						<g id="group8-9" transform="translate(0.163898,-0.0859607)" v:mID="8" v:groupContext="group">
							<title>Sheet.8</title>
							<g id="group9-10" transform="translate(0.211673,1.13687E-13)" v:mID="9" v:groupContext="group">
								<title>Sheet.9</title>
								<g id="shape10-11" v:mID="10" v:groupContext="shape">
									<title>Sheet.10</title>
									<path d="M2.02 838.1 C1.58 837.66 1.21 837.26 0.93 836.86 C0.29 838.15 0.09 839.48 0 840.56 C0.08
												 840.64 0.08 840.72 0.12 840.8 C0.45 841.2 0.85 841.6 1.21 841.89 C1.21 841 1.29
												 839.55 2.02 838.1 Z" class="st1"/>
								</g>
							</g>
							<g id="group11-13" transform="translate(1.82834,-4.87483)" v:mID="11" v:groupContext="group">
								<title>Sheet.11</title>
								<g id="shape12-14" v:mID="12" v:groupContext="shape">
									<title>Sheet.12</title>
									<path d="M2.75 837.86 C2.14 838.26 1.54 838.79 0.89 839.47 C0.56 839.83 0.25 840.2 0 840.56 C0.28
												 841 0.6 841.45 1.04 841.89 C1.37 841.45 1.77 840.96 2.25 840.52 C2.85 839.96 3.42
												 839.48 3.98 839.11 C3.59 838.71 3.15 838.26 2.75 837.86 Z" class="st1"/>
								</g>
							</g>
							<g id="group13-16" transform="translate(5.48273,-8.17972)" v:mID="13" v:groupContext="group">
								<title>Sheet.13</title>
								<g id="shape14-17" v:mID="14" v:groupContext="shape">
									<title>Sheet.14</title>
									<path d="M5.41 840.78 C5.13 840.41 4.84 840.1 4.48 839.81 C3.47 839.65 1.81 839.68 0 840.64 C0.4
												 841.09 0.84 841.53 1.25 841.89 C3.66 840.57 5.41 840.78 5.41 840.78 Z" class="st1"/>
								</g>
							</g>
							<g id="group15-19" transform="translate(4.996E-15,-5.08989)" v:mID="15" v:groupContext="group">
								<title>Sheet.15</title>
								<g id="shape16-20" v:mID="16" v:groupContext="shape">
									<title>Sheet.16</title>
									<path d="M1.17 841.89 C1.37 841.53 1.57 841.16 1.81 840.76 C0.77 839.11 0.8 837.74 0.92 837.09
												 C0.68 837.37 0.39 837.66 0.19 837.94 C0 838.87 0 840.24 1.17 841.89 Z" class="st1"/>
								</g>
							</g>
							<g id="group17-22" transform="translate(2.25619,-0.447455)" v:mID="17" v:groupContext="group">
								<title>Sheet.17</title>
								<g id="shape18-23" v:mID="18" v:groupContext="shape">
									<title>Sheet.18</title>
									<path d="M1.89 838.63 C1.4 838.23 1 837.87 0.64 837.5 C0.4 837.87 0.2 838.19 0 838.55 C0.32 838.87
												 0.73 839.24 1.17 839.55 C3.87 841.69 6.57 841.89 8.1 841.89 C8.17 841.89 8.66 841.25
												 8.94 840.85 C8.24 841.01 5.34 841.37 1.89 838.63 Z" class="st1"/>
								</g>
							</g>
							<g id="group19-25" transform="translate(1.15863,-3.83629)" v:mID="19" v:groupContext="group">
								<title>Sheet.19</title>
								<g id="shape20-26" v:mID="20" v:groupContext="shape">
									<title>Sheet.20</title>
									<path d="M0 840.64 C0.28 841.05 0.64 841.49 1.09 841.89 C1.25 841.53 1.45 841.2 1.73 840.85 C1.29
												 840.4 0.97 839.96 0.69 839.52 C0.41 839.92 0.2 840.28 0 840.64 Z" class="st1"/>
								</g>
							</g>
							<g id="group21-28" transform="translate(5.80898,-2.88968)" v:mID="21" v:groupContext="group">
								<title>Sheet.21</title>
								<g id="shape22-29" v:mID="22" v:groupContext="shape">
									<title>Sheet.22</title>
									<path d="M0 837.13 C2.5 839.43 5.4 841.36 6.16 841.89 C6.24 841.69 6.29 841.53 6.33 841.33 C5.52
												 840.72 3.43 839.11 0.89 836.57 C0.64 836.73 0.32 836.84 0 837.13 Z" class="st1"/>
								</g>
							</g>
							<g id="group23-31" transform="translate(2.73947,-8.88552)" v:mID="23" v:groupContext="group">
								<title>Sheet.23</title>
								<g id="shape24-32" v:mID="24" v:groupContext="shape">
									<title>Sheet.24</title>
									<path d="M2.78 841.33 C2.18 840.69 1.54 839.97 0.89 839.24 C0.61 839.32 0.29 839.45 0 839.61
												 C0.44 840.37 1.13 841.16 1.81 841.89 C2.18 841.69 2.47 841.5 2.78 841.33 Z"
											class="st1"/>
								</g>
							</g>
							<g id="group25-34" transform="translate(4.54787,-7.65023)" v:mID="25" v:groupContext="group">
								<title>Sheet.25</title>
								<g id="shape26-35" v:mID="26" v:groupContext="shape">
									<title>Sheet.26</title>
									<path d="M0.97 840.1 C0.65 840.26 0.28 840.41 0 840.65 C0.4 841.05 0.82 841.49 1.26 841.89 C1.59
												 841.69 1.86 841.53 2.18 841.36 C1.78 840.97 1.42 840.54 0.97 840.1 Z" class="st1"/>
								</g>
							</g>
						</g>
						<g id="group27-37" transform="translate(8.18552,-3.41502)" v:mID="27" v:groupContext="group">
							<title>Sheet.27</title>
							<g id="shape28-38" v:mID="28" v:groupContext="shape">
								<title>Sheet.28</title>
								<path d="M0.73 839.19 C0.12 839.68 0 840.56 0.45 841.16 C0.94 841.8 1.82 841.89 2.46 841.44 C3.06
											 840.95 3.19 840.07 2.74 839.43 C2.26 838.83 1.38 838.71 0.73 839.19 Z" class="st1"/>
							</g>
						</g>
						<g id="group29-40" transform="translate(5.28572,1.13687E-13)" v:mID="29" v:groupContext="group">
							<title>Sheet.29</title>
							<g id="shape30-41" v:mID="30" v:groupContext="shape">
								<title>Sheet.30</title>
								<path d="M0.69 839.35 C0.12 839.79 0 840.64 0.45 841.2 C0.89 841.77 1.74 841.89 2.3 841.44 C2.87
											 841 2.99 840.2 2.54 839.59 C2.1 838.98 1.29 838.9 0.69 839.35 Z" class="st1"/>
							</g>
						</g>
						<g id="group31-43" transform="translate(2.498E-15,-2.87025)" v:mID="31" v:groupContext="group">
							<title>Sheet.31</title>
							<g id="shape32-44" v:mID="32" v:groupContext="shape">
								<title>Sheet.32</title>
								<path d="M1.04 838.02 C0.15 838.71 0 839.96 0.68 840.85 C1.37 841.74 2.61 841.89 3.5 841.21 C4.39
											 840.53 4.55 839.28 3.87 838.39 C3.18 837.5 1.89 837.33 1.04 838.02 Z" class="st1"/>
							</g>
						</g>
					</g>
				</g>
			</g>
		</g>
	</g>
</svg>
