<?xml version="1.0" encoding="UTF-8" standalone="no"?>
<!DOCTYPE svg PUBLIC "-//W3C//DTD SVG 1.1//EN" "http://www.w3.org/Graphics/SVG/1.1/DTD/svg11.dtd">
<!-- Generated by Microsoft Visio, SVG Export 018_ASCTasks_WebApp.svg Page-1 -->
<svg xmlns="http://www.w3.org/2000/svg" xmlns:xlink="http://www.w3.org/1999/xlink" xmlns:ev="http://www.w3.org/2001/xml-events"
		xmlns:v="http://schemas.microsoft.com/visio/2003/SVGExtensions/" width="0.856873in" height="0.856873in"
		viewBox="0 0 61.6949 61.6949" xml:space="preserve" color-interpolation-filters="sRGB" class="st2">
	<v:documentProperties v:langID="3082"/>

	<style type="text/css">
	<![CDATA[
		.st1 {fill:#0078d7;stroke:none;stroke-linecap:butt;stroke-width:0.772725}
		.st2 {fill:none;fill-rule:evenodd;font-size:12px;overflow:visible;stroke-linecap:square;stroke-miterlimit:3}
	]]>
	</style>

	<g v:mID="0" v:index="1" v:groupContext="foregroundPage">
		<title>Page-1</title>
		<v:pageProperties v:drawingScale="1" v:pageScale="1" v:drawingUnits="19" v:shadowOffsetX="8.99998"
				v:shadowOffsetY="-8.99998"/>
		<g id="group1-1" transform="translate(22.5,-22.765)" v:mID="1" v:groupContext="group">
			<title>Sheet.1</title>
			<g id="group2-2" v:mID="2" v:groupContext="group">
				<title>Sheet.2</title>
			</g>
			<g id="group3-3" v:mID="3" v:groupContext="group">
				<title>paths</title>
				<g id="group4-4" v:mID="4" v:groupContext="group">
					<title>Sheet.4</title>
					<g id="group5-5" v:mID="5" v:groupContext="group">
						<title>Sheet.5</title>
						<g id="shape6-6" v:mID="6" v:groupContext="shape">
							<title>Sheet.6</title>
							<path d="M12.64 59.35 C11.44 60.28 10.02 60.72 8.62 60.72 C6.6 60.72 4.67 59.83 3.34 58.1 C1.13 55.2
										 1.69 51.06 4.59 48.84 C5.79 47.91 7.21 47.47 8.62 47.47 C10.63 47.47 12.56 48.36 13.89 50.09
										 C16.11 52.99 15.54 57.14 12.64 59.35 ZM14.66 49.45 C13.17 47.48 10.87 46.47 8.62 46.47 C7.01
										 46.47 5.36 47 3.99 48.04 C0.65 50.62 0 55.37 2.58 58.71 C4.08 60.68 6.33 61.69 8.62 61.69
										 C10.23 61.69 11.89 61.16 13.26 60.12 C16.6 57.58 17.24 52.79 14.66 49.45 Z" class="st1"/>
						</g>
					</g>
					<g id="group7-8" transform="translate(2.775,-2.30893)" v:mID="7" v:groupContext="group">
						<title>Sheet.7</title>
						<g id="group8-9" transform="translate(0.163898,-0.0859605)" v:mID="8" v:groupContext="group">
							<title>Sheet.8</title>
							<g id="group9-10" transform="translate(0.211673,0)" v:mID="9" v:groupContext="group">
								<title>Sheet.9</title>
								<g id="shape10-11" v:mID="10" v:groupContext="shape">
									<title>Sheet.10</title>
									<path d="M2.02 57.9 C1.58 57.46 1.21 57.06 0.93 56.66 C0.29 57.95 0.09 59.28 0 60.36 C0.08 60.44
												 0.08 60.52 0.12 60.6 C0.45 61 0.85 61.4 1.21 61.69 C1.21 60.8 1.29 59.35 2.02 57.9
												 Z" class="st1"/>
								</g>
							</g>
							<g id="group11-13" transform="translate(1.82834,-4.87482)" v:mID="11" v:groupContext="group">
								<title>Sheet.11</title>
								<g id="shape12-14" v:mID="12" v:groupContext="shape">
									<title>Sheet.12</title>
									<path d="M2.75 57.66 C2.14 58.06 1.54 58.59 0.89 59.27 C0.56 59.63 0.25 60 0 60.36 C0.28 60.8
												 0.6 61.25 1.04 61.69 C1.37 61.25 1.77 60.76 2.25 60.32 C2.85 59.76 3.42 59.28 3.98
												 58.91 C3.59 58.51 3.15 58.06 2.75 57.66 Z" class="st1"/>
								</g>
							</g>
							<g id="group13-16" transform="translate(5.48272,-8.1797)" v:mID="13" v:groupContext="group">
								<title>Sheet.13</title>
								<g id="shape14-17" v:mID="14" v:groupContext="shape">
									<title>Sheet.14</title>
									<path d="M5.41 60.58 C5.13 60.21 4.84 59.9 4.48 59.61 C3.47 59.45 1.81 59.48 0 60.44 C0.4 60.89
												 0.84 61.33 1.25 61.69 C3.66 60.37 5.41 60.58 5.41 60.58 Z" class="st1"/>
								</g>
							</g>
							<g id="group15-19" transform="translate(0,-5.08988)" v:mID="15" v:groupContext="group">
								<title>Sheet.15</title>
								<g id="shape16-20" v:mID="16" v:groupContext="shape">
									<title>Sheet.16</title>
									<path d="M1.17 61.69 C1.37 61.33 1.57 60.96 1.81 60.56 C0.77 58.91 0.8 57.54 0.92 56.89 C0.68
												 57.17 0.39 57.46 0.19 57.74 C0 58.67 0 60.04 1.17 61.69 Z" class="st1"/>
								</g>
							</g>
							<g id="group17-22" transform="translate(2.25619,-0.447454)" v:mID="17" v:groupContext="group">
								<title>Sheet.17</title>
								<g id="shape18-23" v:mID="18" v:groupContext="shape">
									<title>Sheet.18</title>
									<path d="M1.89 58.43 C1.4 58.03 1 57.67 0.64 57.3 C0.4 57.67 0.2 57.99 0 58.35 C0.32 58.67 0.73
												 59.04 1.17 59.35 C3.87 61.49 6.57 61.69 8.1 61.69 C8.17 61.69 8.66 61.05 8.94 60.65
												 C8.24 60.81 5.34 61.17 1.89 58.43 Z" class="st1"/>
								</g>
							</g>
							<g id="group19-25" transform="translate(1.15863,-3.83628)" v:mID="19" v:groupContext="group">
								<title>Sheet.19</title>
								<g id="shape20-26" v:mID="20" v:groupContext="shape">
									<title>Sheet.20</title>
									<path d="M0 60.44 C0.28 60.85 0.64 61.29 1.09 61.69 C1.25 61.33 1.45 61 1.73 60.65 C1.29 60.2
												 0.97 59.76 0.69 59.32 C0.41 59.72 0.2 60.08 0 60.44 Z" class="st1"/>
								</g>
							</g>
							<g id="group21-28" transform="translate(5.80897,-2.88967)" v:mID="21" v:groupContext="group">
								<title>Sheet.21</title>
								<g id="shape22-29" v:mID="22" v:groupContext="shape">
									<title>Sheet.22</title>
									<path d="M0 56.93 C2.5 59.23 5.4 61.16 6.16 61.69 C6.24 61.49 6.29 61.33 6.33 61.13 C5.52 60.52
												 3.43 58.91 0.89 56.37 C0.64 56.53 0.32 56.64 0 56.93 Z" class="st1"/>
								</g>
							</g>
							<g id="group23-31" transform="translate(2.73946,-8.8855)" v:mID="23" v:groupContext="group">
								<title>Sheet.23</title>
								<g id="shape24-32" v:mID="24" v:groupContext="shape">
									<title>Sheet.24</title>
									<path d="M2.78 61.13 C2.18 60.49 1.54 59.77 0.89 59.04 C0.61 59.12 0.29 59.25 0 59.41 C0.44 60.17
												 1.13 60.96 1.81 61.69 C2.18 61.49 2.47 61.3 2.78 61.13 Z" class="st1"/>
								</g>
							</g>
							<g id="group25-34" transform="translate(4.54786,-7.65022)" v:mID="25" v:groupContext="group">
								<title>Sheet.25</title>
								<g id="shape26-35" v:mID="26" v:groupContext="shape">
									<title>Sheet.26</title>
									<path d="M0.97 59.9 C0.65 60.06 0.28 60.21 0 60.45 C0.4 60.85 0.82 61.29 1.26 61.69 C1.59 61.49
												 1.86 61.33 2.18 61.16 C1.78 60.77 1.42 60.34 0.97 59.9 Z" class="st1"/>
								</g>
							</g>
						</g>
						<g id="group27-37" transform="translate(8.1855,-3.41501)" v:mID="27" v:groupContext="group">
							<title>Sheet.27</title>
							<g id="shape28-38" v:mID="28" v:groupContext="shape">
								<title>Sheet.28</title>
								<path d="M0.73 58.99 C0.12 59.48 0 60.36 0.45 60.96 C0.94 61.6 1.82 61.69 2.46 61.24 C3.06 60.75
											 3.19 59.87 2.74 59.23 C2.26 58.63 1.38 58.51 0.73 58.99 Z" class="st1"/>
							</g>
						</g>
						<g id="group29-40" transform="translate(5.28571,3.55271E-14)" v:mID="29" v:groupContext="group">
							<title>Sheet.29</title>
							<g id="shape30-41" v:mID="30" v:groupContext="shape">
								<title>Sheet.30</title>
								<path d="M0.69 59.15 C0.12 59.59 0 60.44 0.45 61 C0.89 61.57 1.74 61.69 2.3 61.24 C2.87 60.8 2.99
											 60 2.54 59.39 C2.1 58.78 1.29 58.7 0.69 59.15 Z" class="st1"/>
							</g>
						</g>
						<g id="group31-43" transform="translate(1.14908E-14,-2.87024)" v:mID="31" v:groupContext="group">
							<title>Sheet.31</title>
							<g id="shape32-44" v:mID="32" v:groupContext="shape">
								<title>Sheet.32</title>
								<path d="M1.04 57.82 C0.15 58.51 0 59.76 0.68 60.65 C1.37 61.54 2.61 61.69 3.5 61.01 C4.39 60.33
											 4.55 59.08 3.87 58.19 C3.18 57.3 1.89 57.13 1.04 57.82 Z" class="st1"/>
							</g>
						</g>
					</g>
				</g>
			</g>
		</g>
	</g>
</svg>
