<?xml version="1.0" encoding="UTF-8" standalone="no"?>
<!DOCTYPE svg PUBLIC "-//W3C//DTD SVG 1.1//EN" "http://www.w3.org/Graphics/SVG/1.1/DTD/svg11.dtd">
<!-- Generated by Microsoft Visio, SVG Export 018_ASCTasks_WebApp.svg Page-1 -->
<svg xmlns="http://www.w3.org/2000/svg" xmlns:xlink="http://www.w3.org/1999/xlink" xmlns:ev="http://www.w3.org/2001/xml-events"
		xmlns:v="http://schemas.microsoft.com/visio/2003/SVGExtensions/" width="0.239444in" height="0.232853in"
		viewBox="0 0 17.24 16.7654" xml:space="preserve" color-interpolation-filters="sRGB" class="st2">
	<v:documentProperties v:langID="3082" v:metric="true" v:viewMarkup="false"/>

	<style type="text/css">
	<![CDATA[
		.st1 {fill:#0078d7;stroke:none;stroke-linecap:butt;stroke-width:0.772726}
		.st2 {fill:none;fill-rule:evenodd;font-size:12px;overflow:visible;stroke-linecap:square;stroke-miterlimit:3}
	]]>
	</style>

	<g v:mID="0" v:index="1" v:groupContext="foregroundPage">
		<title>Page-1</title>
		<v:pageProperties v:drawingScale="1" v:pageScale="1" v:drawingUnits="19" v:shadowOffsetX="9" v:shadowOffsetY="-9"/>
		<g id="group121-1" transform="translate(0,-0.772726)" v:mID="121" v:groupContext="group">
			<title>Sheet.121</title>
			<g id="group122-2" v:mID="122" v:groupContext="group">
				<title>Sheet.122</title>
			</g>
			<g id="group123-3" v:mID="123" v:groupContext="group">
				<title>paths</title>
				<g id="group124-4" v:mID="124" v:groupContext="group">
					<title>Sheet.124</title>
					<g id="group125-5" v:mID="125" v:groupContext="group">
						<title>Sheet.125</title>
						<g id="shape126-6" v:mID="126" v:groupContext="shape">
							<title>Sheet.126</title>
							<path d="M12.64 14.43 C11.44 15.36 10.02 15.8 8.62 15.8 C6.6 15.8 4.67 14.91 3.34 13.18 C1.13 10.28 1.69
										 6.14 4.59 3.92 C5.79 2.99 7.21 2.55 8.62 2.55 C10.63 2.55 12.56 3.44 13.89 5.17 C16.11 8.07
										 15.54 12.22 12.64 14.43 ZM14.66 4.53 C13.17 2.56 10.87 1.55 8.62 1.55 C7.01 1.55 5.36 2.08
										 3.99 3.12 C0.65 5.7 0 10.45 2.58 13.79 C4.08 15.76 6.33 16.77 8.62 16.77 C10.23 16.77 11.89
										 16.24 13.26 15.2 C16.6 12.66 17.24 7.87 14.66 4.53 Z" class="st1"/>
						</g>
					</g>
					<g id="group127-8" transform="translate(2.77501,-2.30893)" v:mID="127" v:groupContext="group">
						<title>Sheet.127</title>
						<g id="group128-9" transform="translate(0.163898,-0.0859607)" v:mID="128" v:groupContext="group">
							<title>Sheet.128</title>
							<g id="group129-10" transform="translate(0.211673,-1.42109E-14)" v:mID="129" v:groupContext="group">
								<title>Sheet.129</title>
								<g id="shape130-11" v:mID="130" v:groupContext="shape">
									<title>Sheet.130</title>
									<path d="M2.02 12.98 C1.58 12.54 1.21 12.14 0.93 11.74 C0.29 13.03 0.09 14.36 0 15.44 C0.08 15.52
												 0.08 15.6 0.12 15.68 C0.45 16.08 0.85 16.48 1.21 16.77 C1.21 15.88 1.29 14.43 2.02
												 12.98 Z" class="st1"/>
								</g>
							</g>
							<g id="group131-13" transform="translate(1.82834,-4.87483)" v:mID="131" v:groupContext="group">
								<title>Sheet.131</title>
								<g id="shape132-14" v:mID="132" v:groupContext="shape">
									<title>Sheet.132</title>
									<path d="M2.75 12.74 C2.14 13.14 1.54 13.67 0.89 14.35 C0.56 14.71 0.25 15.08 0 15.44 C0.28 15.88
												 0.6 16.33 1.04 16.77 C1.37 16.33 1.77 15.84 2.25 15.4 C2.85 14.84 3.42 14.36 3.98
												 13.99 C3.59 13.59 3.15 13.14 2.75 12.74 Z" class="st1"/>
								</g>
							</g>
							<g id="group133-16" transform="translate(5.48273,-8.17972)" v:mID="133" v:groupContext="group">
								<title>Sheet.133</title>
								<g id="shape134-17" v:mID="134" v:groupContext="shape">
									<title>Sheet.134</title>
									<path d="M5.41 15.66 C5.13 15.29 4.84 14.98 4.48 14.69 C3.47 14.53 1.81 14.56 0 15.52 C0.4 15.97
												 0.84 16.41 1.25 16.77 C3.66 15.45 5.41 15.66 5.41 15.66 Z" class="st1"/>
								</g>
							</g>
							<g id="group135-19" transform="translate(-8.61811E-15,-5.08989)" v:mID="135" v:groupContext="group">
								<title>Sheet.135</title>
								<g id="shape136-20" v:mID="136" v:groupContext="shape">
									<title>Sheet.136</title>
									<path d="M1.17 16.77 C1.37 16.41 1.57 16.04 1.81 15.64 C0.77 13.99 0.8 12.62 0.92 11.97 C0.68
												 12.25 0.39 12.54 0.19 12.82 C0 13.75 0 15.12 1.17 16.77 Z" class="st1"/>
								</g>
							</g>
							<g id="group137-22" transform="translate(2.25619,-0.447455)" v:mID="137" v:groupContext="group">
								<title>Sheet.137</title>
								<g id="shape138-23" v:mID="138" v:groupContext="shape">
									<title>Sheet.138</title>
									<path d="M1.89 13.51 C1.4 13.11 1 12.75 0.64 12.38 C0.4 12.75 0.2 13.07 0 13.43 C0.32 13.75 0.73
												 14.12 1.17 14.43 C3.87 16.57 6.57 16.77 8.1 16.77 C8.17 16.77 8.66 16.13 8.94 15.73
												 C8.24 15.89 5.34 16.25 1.89 13.51 Z" class="st1"/>
								</g>
							</g>
							<g id="group139-25" transform="translate(1.15863,-3.83629)" v:mID="139" v:groupContext="group">
								<title>Sheet.139</title>
								<g id="shape140-26" v:mID="140" v:groupContext="shape">
									<title>Sheet.140</title>
									<path d="M0 15.52 C0.28 15.93 0.64 16.37 1.09 16.77 C1.25 16.41 1.45 16.08 1.73 15.73 C1.29 15.28
												 0.97 14.84 0.69 14.4 C0.41 14.8 0.2 15.16 0 15.52 Z" class="st1"/>
								</g>
							</g>
							<g id="group141-28" transform="translate(5.80898,-2.88968)" v:mID="141" v:groupContext="group">
								<title>Sheet.141</title>
								<g id="shape142-29" v:mID="142" v:groupContext="shape">
									<title>Sheet.142</title>
									<path d="M0 12.01 C2.5 14.31 5.4 16.24 6.16 16.77 C6.24 16.57 6.29 16.41 6.33 16.21 C5.52 15.6
												 3.43 13.99 0.89 11.45 C0.64 11.61 0.32 11.72 0 12.01 Z" class="st1"/>
								</g>
							</g>
							<g id="group143-31" transform="translate(2.73947,-8.88552)" v:mID="143" v:groupContext="group">
								<title>Sheet.143</title>
								<g id="shape144-32" v:mID="144" v:groupContext="shape">
									<title>Sheet.144</title>
									<path d="M2.78 16.21 C2.18 15.57 1.54 14.85 0.89 14.12 C0.61 14.2 0.29 14.33 0 14.49 C0.44 15.25
												 1.13 16.04 1.81 16.77 C2.18 16.57 2.47 16.38 2.78 16.21 Z" class="st1"/>
								</g>
							</g>
							<g id="group145-34" transform="translate(4.54787,-7.65023)" v:mID="145" v:groupContext="group">
								<title>Sheet.145</title>
								<g id="shape146-35" v:mID="146" v:groupContext="shape">
									<title>Sheet.146</title>
									<path d="M0.97 14.98 C0.65 15.14 0.28 15.29 0 15.53 C0.4 15.93 0.82 16.37 1.26 16.77 C1.59 16.57
												 1.86 16.41 2.18 16.24 C1.78 15.85 1.42 15.42 0.97 14.98 Z" class="st1"/>
								</g>
							</g>
						</g>
						<g id="group147-37" transform="translate(8.18552,-3.41502)" v:mID="147" v:groupContext="group">
							<title>Sheet.147</title>
							<g id="shape148-38" v:mID="148" v:groupContext="shape">
								<title>Sheet.148</title>
								<path d="M0.73 14.07 C0.12 14.56 0 15.44 0.45 16.04 C0.94 16.68 1.82 16.77 2.46 16.32 C3.06 15.83
											 3.19 14.95 2.74 14.31 C2.26 13.71 1.38 13.59 0.73 14.07 Z" class="st1"/>
							</g>
						</g>
						<g id="group149-40" transform="translate(5.28572,3.19744E-14)" v:mID="149" v:groupContext="group">
							<title>Sheet.149</title>
							<g id="shape150-41" v:mID="150" v:groupContext="shape">
								<title>Sheet.150</title>
								<path d="M0.69 14.23 C0.12 14.67 0 15.52 0.45 16.08 C0.89 16.65 1.74 16.77 2.3 16.32 C2.87 15.88
											 2.99 15.08 2.54 14.47 C2.1 13.86 1.29 13.78 0.69 14.23 Z" class="st1"/>
							</g>
						</g>
						<g id="group151-43" transform="translate(1.29896E-14,-2.87025)" v:mID="151" v:groupContext="group">
							<title>Sheet.151</title>
							<g id="shape152-44" v:mID="152" v:groupContext="shape">
								<title>Sheet.152</title>
								<path d="M1.04 12.9 C0.15 13.59 0 14.84 0.68 15.73 C1.37 16.62 2.61 16.77 3.5 16.09 C4.39 15.41 4.55
											 14.16 3.87 13.27 C3.18 12.38 1.89 12.21 1.04 12.9 Z" class="st1"/>
							</g>
						</g>
					</g>
				</g>
			</g>
		</g>
	</g>
</svg>
