<?xml version="1.0" encoding="UTF-8" standalone="no"?>
<!DOCTYPE svg PUBLIC "-//W3C//DTD SVG 1.1//EN" "http://www.w3.org/Graphics/SVG/1.1/DTD/svg11.dtd">
<!-- Generated by Microsoft Visio, SVG Export 019_ASCTasks_VM.svg Page-1 -->
<svg xmlns="http://www.w3.org/2000/svg" xmlns:xlink="http://www.w3.org/1999/xlink" xmlns:ev="http://www.w3.org/2001/xml-events"
		xmlns:v="http://schemas.microsoft.com/visio/2003/SVGExtensions/" width="8.26772in" height="11.6929in"
		viewBox="0 0 595.276 841.89" xml:space="preserve" color-interpolation-filters="sRGB" class="st2">
	<v:documentProperties v:langID="3082" v:metric="true" v:viewMarkup="false">
		<v:userDefs>
			<v:ud v:nameU="msvNoAutoConnect" v:val="VT0(1):26"/>
		</v:userDefs>
	</v:documentProperties>

	<style type="text/css">
	<![CDATA[
		.st1 {fill:#0078d7;stroke:none;stroke-linecap:butt;stroke-width:2.66087}
		.st2 {fill:none;fill-rule:evenodd;font-size:12px;overflow:visible;stroke-linecap:square;stroke-miterlimit:3}
	]]>
	</style>

	<g v:mID="0" v:index="1" v:groupContext="foregroundPage">
		<title>Page-1</title>
		<v:pageProperties v:drawingScale="0.0393701" v:pageScale="0.0393701" v:drawingUnits="24" v:shadowOffsetX="9"
				v:shadowOffsetY="-9"/>
		<g id="group52-1" transform="translate(2.40944,-812.592)" v:mID="52" v:groupContext="group">
			<title>Sheet.52</title>
			<g id="group53-2" v:mID="53" v:groupContext="group">
				<title>Sheet.53</title>
				<g id="shape54-3" v:mID="54" v:groupContext="shape">
					<title>Sheet.54</title>
					<path d="M23.28 819.01 L1.33 819.01 C0.6 819.01 0 819.67 0 820.4 L0 835.72 C0 836.45 0.6 837.11 1.33 837.11 L8.82
								 837.11 C9.62 839.97 8.56 840.36 3.78 840.36 L3.78 841.89 L9.82 841.89 L14.26 841.89 L19.96 841.89
								 L19.96 840.36 C15.19 840.36 14.72 839.97 15.52 837.11 L23.28 837.11 C24.01 837.11 24.8 836.45 24.8
								 835.72 L24.8 820.4 C24.8 819.67 24.01 819.01 23.28 819.01 ZM22.88 820.87 L22.88 835.19 L1.86 835.19
								 L1.86 820.87 L22.88 820.87 Z" class="st1"/>
				</g>
				<g id="group55-5" transform="translate(7.89854,-9.23817)" v:mID="55" v:groupContext="group">
					<title>Sheet.55</title>
					<g id="group56-6" transform="translate(0.377021,-5.00838)" v:mID="56" v:groupContext="group">
						<title>Sheet.56</title>
						<g id="shape57-7" v:mID="57" v:groupContext="shape">
							<title>Sheet.57</title>
							<path d="M7.69 839.63 L3.85 837.45 L0 839.63 L0 839.7 L3.85 841.89 L7.69 839.63 Z" class="st1"/>
						</g>
					</g>
					<g id="group58-9" transform="translate(4.63732,0)" v:mID="58" v:groupContext="group">
						<title>Sheet.58</title>
						<g id="shape59-10" v:mID="59" v:groupContext="shape">
							<title>Sheet.59</title>
							<path d="M0 837.51 L0 841.89 L3.85 839.7 L3.85 835.32 L0 837.51 Z" class="st1"/>
						</g>
					</g>
					<g id="group60-12" v:mID="60" v:groupContext="group">
						<title>Sheet.60</title>
						<g id="shape61-13" v:mID="61" v:groupContext="shape">
							<title>Sheet.61</title>
							<path d="M3.85 837.51 L0 835.32 L0 839.7 L3.85 841.89 L3.85 837.51 Z" class="st1"/>
						</g>
					</g>
				</g>
			</g>
		</g>
	</g>
</svg>
