<?xml version="1.0" encoding="UTF-8" standalone="no"?>
<!DOCTYPE svg PUBLIC "-//W3C//DTD SVG 1.1//EN" "http://www.w3.org/Graphics/SVG/1.1/DTD/svg11.dtd">
<!-- Generated by Microsoft Visio, SVG Export 020_ASCTasks_RestrictStorage.svg Page-1 -->
<svg xmlns="http://www.w3.org/2000/svg" xmlns:xlink="http://www.w3.org/1999/xlink" xmlns:ev="http://www.w3.org/2001/xml-events"
		xmlns:v="http://schemas.microsoft.com/visio/2003/SVGExtensions/" width="8.26772in" height="11.6929in"
		viewBox="0 0 595.276 841.889" xml:space="preserve" color-interpolation-filters="sRGB" class="st10">
	<v:documentProperties v:langID="3082">
		<v:userDefs>
			<v:ud v:nameU="msvNoAutoConnect" v:val="VT0(1):26"/>
		</v:userDefs>
	</v:documentProperties>

	<style type="text/css">
	<![CDATA[
		.st1 {fill:#a0a1a2;stroke:none;stroke-linecap:butt;stroke-width:12.24}
		.st2 {fill:#7a7a7a;stroke:none;stroke-linecap:butt;stroke-width:12.24}
		.st3 {fill:#ffffff;stroke:none;stroke-linecap:butt;stroke-width:12.24}
		.st4 {fill:#fcd116;stroke:none;stroke-linecap:butt;stroke-width:12.24}
		.st5 {fill:#ffffff;fill-opacity:0.2;stroke:none;stroke-linecap:butt;stroke-width:12.24}
		.st6 {fill:#59b4d9;stroke:none;stroke-linecap:butt;stroke-width:0.75}
		.st7 {fill:#dd5900;stroke:none;stroke-linecap:butt;stroke-width:0.75}
		.st8 {fill:#a0a1a2;stroke:none;stroke-linecap:butt;stroke-width:0.75}
		.st9 {fill:#ba141a;stroke:none;stroke-linecap:butt;stroke-width:0.75}
		.st10 {fill:none;fill-rule:evenodd;font-size:12px;overflow:visible;stroke-linecap:square;stroke-miterlimit:3}
	]]>
	</style>

	<g v:mID="0" v:index="1" v:groupContext="foregroundPage">
		<title>Page-1</title>
		<v:pageProperties v:drawingScale="0.0393701" v:pageScale="0.0393701" v:drawingUnits="24" v:shadowOffsetX="8.99999"
				v:shadowOffsetY="-8.99999"/>
		<g id="group1-1" transform="translate(0,-831.885)" v:mID="1" v:groupContext="group">
			<title>Azure Storage/Azure Files</title>
			<g id="shape2-2" v:mID="2" v:groupContext="shape">
				<title>Sheet.2</title>
				<path d="M0 841.44 C0 841.68 0.16 841.89 0.45 841.89 L11.3 841.89 C11.53 841.89 11.74 841.72 11.74 841.44 L11.74
							 833.67 L0 833.67 L0 841.44 Z" class="st1"/>
			</g>
			<g id="shape3-4" v:mID="3" v:groupContext="shape" transform="translate(0,-8.21983)">
				<title>Sheet.3</title>
				<path d="M11.3 840.1 L0.45 840.1 C0.16 840.1 0 840.32 0 840.55 L0 841.89 L11.74 841.89 L11.74 840.55 C11.74 840.32
							 11.58 840.1 11.3 840.1 Z" class="st2"/>
			</g>
			<g id="shape4-6" v:mID="4" v:groupContext="shape" transform="translate(4.41522,-5.65994)">
				<title>Sheet.4</title>
				<rect x="0" y="840.104" width="2.95914" height="1.78488" class="st3"/>
			</g>
			<g id="shape5-8" v:mID="5" v:groupContext="shape" transform="translate(4.41522,-3.24096)">
				<title>Sheet.5</title>
				<rect x="0" y="840.104" width="2.95914" height="1.78488" class="st4"/>
			</g>
			<g id="shape6-10" v:mID="6" v:groupContext="shape" transform="translate(7.93801,-3.24096)">
				<title>Sheet.6</title>
				<rect x="0" y="840.104" width="2.95914" height="1.78488" class="st4"/>
			</g>
			<g id="shape7-12" v:mID="7" v:groupContext="shape" transform="translate(7.93801,-5.65994)">
				<title>Sheet.7</title>
				<rect x="0" y="840.104" width="2.95914" height="1.78488" class="st3"/>
			</g>
			<g id="shape8-14" v:mID="8" v:groupContext="shape" transform="translate(0.892438,-5.65994)">
				<title>Sheet.8</title>
				<rect x="0" y="840.104" width="2.95914" height="1.78488" class="st3"/>
			</g>
			<g id="shape9-16" v:mID="9" v:groupContext="shape" transform="translate(0.892438,-3.24096)">
				<title>Sheet.9</title>
				<rect x="0" y="840.104" width="2.95914" height="1.78488" class="st3"/>
			</g>
			<g id="shape10-18" v:mID="10" v:groupContext="shape" transform="translate(0.892438,-0.845468)">
				<title>Sheet.10</title>
				<rect x="0" y="840.104" width="2.95914" height="1.78488" class="st4"/>
			</g>
			<g id="shape11-20" v:mID="11" v:groupContext="shape" transform="translate(4.41522,-0.845468)">
				<title>Sheet.11</title>
				<rect x="0" y="840.104" width="2.95914" height="1.78488" class="st4"/>
			</g>
			<g id="shape12-22" v:mID="12" v:groupContext="shape" transform="translate(7.93801,-0.845468)">
				<title>Sheet.12</title>
				<rect x="0" y="840.104" width="2.95914" height="1.78488" class="st4"/>
			</g>
			<g id="shape13-24" v:mID="13" v:groupContext="shape">
				<title>Sheet.13</title>
				<path d="M0.45 831.88 C0.23 831.88 0 832.1 0 832.33 L0 834.07 L0 834.84 L0 841.44 C0 841.68 0.23 841.89 0.45 841.89
							 L0.94 841.89 L10.24 831.88 L0.45 831.88 Z" class="st5"/>
			</g>
		</g>
		<g id="group14-26" transform="translate(8.21663,-830.551)" v:mID="14" v:groupContext="group">
			<title>Azure Firewall</title>
			<g id="shape15-27" v:mID="15" v:groupContext="shape" transform="translate(1.20564,-2.26792)">
				<title>Sheet.15</title>
				<path d="M1.13 839.4 C1.24 838.72 1.82 838.2 2.53 838.2 C3.32 838.2 3.96 838.84 3.96 839.63 C3.96 839.72 3.95 839.81
							 3.93 839.9 C4.39 839.95 4.75 840.37 4.75 840.89 C4.75 841.44 4.34 841.89 3.83 841.89 C3.72 841.89 1.21
							 841.89 1.21 841.89 C0.55 841.89 0 841.31 0 840.62 C0 839.98 0.5 839.45 1.13 839.4 Z" class="st6"/>
			</g>
			<g id="group16-29" v:mID="16" v:groupContext="group">
				<title>Sheet.16</title>
				<g id="group17-30" transform="translate(1.55182,-2.50678)" v:mID="17" v:groupContext="group">
					<title>Sheet.17</title>
					<g id="shape18-31" v:mID="18" v:groupContext="shape" transform="translate(0.119371,-0.119371)">
						<title>Sheet.18</title>
						<path d="M0.12 841.89 C0.05 841.89 0 841.84 0 841.77 L0 841.17 C0 841.11 0.05 841.05 0.12 841.05 L1.43 841.05
									 C1.5 841.05 1.55 841.11 1.55 841.17 L1.55 841.77 C1.55 841.84 1.5 841.89 1.43 841.89 L0.12 841.89
									 Z" class="st7"/>
					</g>
					<g id="shape19-33" v:mID="19" v:groupContext="shape">
						<title>Sheet.19</title>
						<path d="M1.55 841.05 L1.55 841.65 L0.24 841.65 L0.24 841.05 L1.55 841.05 ZM1.55 840.81 L0.24 840.81 C0.11
									 840.81 0 840.92 0 841.05 L0 841.65 C0 841.78 0.11 841.89 0.24 841.89 L1.55 841.89 C1.68 841.89
									 1.79 841.78 1.79 841.65 L1.79 841.05 C1.79 840.92 1.68 840.81 1.55 840.81 Z" class="st8"/>
					</g>
				</g>
				<g id="group20-35" transform="translate(3.10364,-2.50678)" v:mID="20" v:groupContext="group">
					<title>Sheet.20</title>
					<g id="shape21-36" v:mID="21" v:groupContext="shape" transform="translate(0.119371,-0.119371)">
						<title>Sheet.21</title>
						<path d="M0.12 841.89 C0.05 841.89 0 841.84 0 841.77 L0 841.17 C0 841.11 0.05 841.05 0.12 841.05 L1.43 841.05
									 C1.5 841.05 1.55 841.11 1.55 841.17 L1.55 841.77 C1.55 841.84 1.5 841.89 1.43 841.89 L0.12 841.89
									 Z" class="st9"/>
					</g>
					<g id="shape22-38" v:mID="22" v:groupContext="shape">
						<title>Sheet.22</title>
						<path d="M1.55 841.05 L1.55 841.65 L0.24 841.65 L0.24 841.05 L1.55 841.05 ZM1.55 840.81 L0.24 840.81 C0.11
									 840.81 0 840.92 0 841.05 L0 841.65 C0 841.78 0.11 841.89 0.24 841.89 L1.55 841.89 C1.68 841.89
									 1.79 841.78 1.79 841.65 L1.79 841.05 C1.79 840.92 1.68 840.81 1.55 840.81 Z" class="st8"/>
					</g>
				</g>
				<g id="group23-40" transform="translate(-2.44804E-14,-2.50678)" v:mID="23" v:groupContext="group">
					<title>Sheet.23</title>
					<g id="shape24-41" v:mID="24" v:groupContext="shape" transform="translate(0.119371,-0.119371)">
						<title>Sheet.24</title>
						<path d="M0.12 841.89 C0.05 841.89 0 841.84 0 841.77 L0 841.17 C0 841.11 0.05 841.05 0.12 841.05 L1.43 841.05
									 C1.5 841.05 1.55 841.11 1.55 841.17 L1.55 841.77 C1.55 841.84 1.5 841.89 1.43 841.89 L0.12 841.89
									 Z" class="st9"/>
					</g>
					<g id="shape25-43" v:mID="25" v:groupContext="shape">
						<title>Sheet.25</title>
						<path d="M1.55 841.05 L1.55 841.65 L0.24 841.65 L0.24 841.05 L1.55 841.05 ZM1.55 840.81 L0.24 840.81 C0.11
									 840.81 0 840.92 0 841.05 L0 841.65 C0 841.78 0.11 841.89 0.24 841.89 L1.55 841.89 C1.68 841.89
									 1.79 841.78 1.79 841.65 L1.79 841.05 C1.79 840.92 1.68 840.81 1.55 840.81 Z" class="st8"/>
					</g>
				</g>
				<g id="group26-45" transform="translate(1.55182,-1.67119)" v:mID="26" v:groupContext="group">
					<title>Sheet.26</title>
					<g id="shape27-46" v:mID="27" v:groupContext="shape" transform="translate(0.119371,-0.119371)">
						<title>Sheet.27</title>
						<path d="M0.12 841.89 C0.05 841.89 0 841.84 0 841.77 L0 841.17 C0 841.11 0.05 841.05 0.12 841.05 L1.43 841.05
									 C1.5 841.05 1.55 841.11 1.55 841.17 L1.55 841.77 C1.55 841.84 1.5 841.89 1.43 841.89 L0.12 841.89
									 Z" class="st9"/>
					</g>
					<g id="shape28-48" v:mID="28" v:groupContext="shape">
						<title>Sheet.28</title>
						<path d="M1.55 841.05 L1.55 841.65 L0.24 841.65 L0.24 841.05 L1.55 841.05 ZM1.55 840.81 L0.24 840.81 C0.11
									 840.81 0 840.92 0 841.05 L0 841.65 C0 841.78 0.11 841.89 0.24 841.89 L1.55 841.89 C1.68 841.89
									 1.79 841.78 1.79 841.65 L1.79 841.05 C1.79 840.92 1.68 840.81 1.55 840.81 Z" class="st8"/>
					</g>
				</g>
				<g id="group29-50" transform="translate(-2.44804E-14,-0.835594)" v:mID="29" v:groupContext="group">
					<title>Sheet.29</title>
					<g id="shape30-51" v:mID="30" v:groupContext="shape" transform="translate(0.119371,-0.119371)">
						<title>Sheet.30</title>
						<path d="M0.12 841.89 C0.05 841.89 0 841.84 0 841.77 L0 841.17 C0 841.11 0.05 841.05 0.12 841.05 L1.43 841.05
									 C1.5 841.05 1.55 841.11 1.55 841.17 L1.55 841.77 C1.55 841.84 1.5 841.89 1.43 841.89 L0.12 841.89
									 Z" class="st7"/>
					</g>
					<g id="shape31-53" v:mID="31" v:groupContext="shape">
						<title>Sheet.31</title>
						<path d="M1.55 841.05 L1.55 841.65 L0.24 841.65 L0.24 841.05 L1.55 841.05 ZM1.55 840.81 L0.24 840.81 C0.11
									 840.81 0 840.92 0 841.05 L0 841.65 C0 841.78 0.11 841.89 0.24 841.89 L1.55 841.89 C1.68 841.89
									 1.79 841.78 1.79 841.65 L1.79 841.05 C1.79 840.92 1.68 840.81 1.55 840.81 Z" class="st8"/>
					</g>
				</g>
				<g id="group32-55" transform="translate(-2.44804E-14,-1.67119)" v:mID="32" v:groupContext="group">
					<title>Sheet.32</title>
					<g id="shape33-56" v:mID="33" v:groupContext="shape" transform="translate(0.119371,-0.119371)">
						<title>Sheet.33</title>
						<path d="M0.12 841.89 C0.05 841.89 0 841.84 0 841.77 L0 841.17 C0 841.11 0.05 841.05 0.12 841.05 L1.43 841.05
									 C1.5 841.05 1.55 841.11 1.55 841.17 L1.55 841.77 C1.55 841.84 1.5 841.89 1.43 841.89 L0.12 841.89
									 Z" class="st9"/>
					</g>
					<g id="shape34-58" v:mID="34" v:groupContext="shape">
						<title>Sheet.34</title>
						<path d="M1.55 841.05 L1.55 841.65 L0.24 841.65 L0.24 841.05 L1.55 841.05 ZM1.55 840.81 L0.24 840.81 C0.11
									 840.81 0 840.92 0 841.05 L0 841.65 C0 841.78 0.11 841.89 0.24 841.89 L1.55 841.89 C1.68 841.89
									 1.79 841.78 1.79 841.65 L1.79 841.05 C1.79 840.92 1.68 840.81 1.55 840.81 Z" class="st8"/>
					</g>
				</g>
				<g id="group35-60" transform="translate(1.55182,1.13687E-13)" v:mID="35" v:groupContext="group">
					<title>Sheet.35</title>
					<g id="shape36-61" v:mID="36" v:groupContext="shape" transform="translate(0.119371,-0.119371)">
						<title>Sheet.36</title>
						<path d="M0.12 841.89 C0.05 841.89 0 841.84 0 841.77 L0 841.17 C0 841.11 0.05 841.05 0.12 841.05 L1.43 841.05
									 C1.5 841.05 1.55 841.11 1.55 841.17 L1.55 841.77 C1.55 841.84 1.5 841.89 1.43 841.89 L0.12 841.89
									 Z" class="st9"/>
					</g>
					<g id="shape37-63" v:mID="37" v:groupContext="shape">
						<title>Sheet.37</title>
						<path d="M1.55 841.05 L1.55 841.65 L0.24 841.65 L0.24 841.05 L1.55 841.05 ZM1.55 840.81 L0.24 840.81 C0.11
									 840.81 0 840.92 0 841.05 L0 841.65 C0 841.78 0.11 841.89 0.24 841.89 L1.55 841.89 C1.68 841.89
									 1.79 841.78 1.79 841.65 L1.79 841.05 C1.79 840.92 1.68 840.81 1.55 840.81 Z" class="st8"/>
					</g>
				</g>
				<g id="group38-65" transform="translate(3.10364,-0.835594)" v:mID="38" v:groupContext="group">
					<title>Sheet.38</title>
					<g id="shape39-66" v:mID="39" v:groupContext="shape" transform="translate(0.119371,-0.119371)">
						<title>Sheet.39</title>
						<path d="M0.12 841.89 C0.05 841.89 0 841.84 0 841.77 L0 841.17 C0 841.11 0.05 841.05 0.12 841.05 L1.43 841.05
									 C1.5 841.05 1.55 841.11 1.55 841.17 L1.55 841.77 C1.55 841.84 1.5 841.89 1.43 841.89 L0.12 841.89
									 Z" class="st9"/>
					</g>
					<g id="shape40-68" v:mID="40" v:groupContext="shape">
						<title>Sheet.40</title>
						<path d="M1.55 841.05 L1.55 841.65 L0.24 841.65 L0.24 841.05 L1.55 841.05 ZM1.55 840.81 L0.24 840.81 C0.11
									 840.81 0 840.92 0 841.05 L0 841.65 C0 841.78 0.11 841.89 0.24 841.89 L1.55 841.89 C1.68 841.89
									 1.79 841.78 1.79 841.65 L1.79 841.05 C1.79 840.92 1.68 840.81 1.55 840.81 Z" class="st8"/>
					</g>
				</g>
				<g id="group41-70" transform="translate(3.10364,-1.67119)" v:mID="41" v:groupContext="group">
					<title>Sheet.41</title>
					<g id="shape42-71" v:mID="42" v:groupContext="shape" transform="translate(0.119371,-0.119371)">
						<title>Sheet.42</title>
						<path d="M0.12 841.89 C0.05 841.89 0 841.84 0 841.77 L0 841.17 C0 841.11 0.05 841.05 0.12 841.05 L1.43 841.05
									 C1.5 841.05 1.55 841.11 1.55 841.17 L1.55 841.77 C1.55 841.84 1.5 841.89 1.43 841.89 L0.12 841.89
									 Z" class="st9"/>
					</g>
					<g id="shape43-73" v:mID="43" v:groupContext="shape">
						<title>Sheet.43</title>
						<path d="M1.55 841.05 L1.55 841.65 L0.24 841.65 L0.24 841.05 L1.55 841.05 ZM1.55 840.81 L0.24 840.81 C0.11
									 840.81 0 840.92 0 841.05 L0 841.65 C0 841.78 0.11 841.89 0.24 841.89 L1.55 841.89 C1.68 841.89
									 1.79 841.78 1.79 841.65 L1.79 841.05 C1.79 840.92 1.68 840.81 1.55 840.81 Z" class="st8"/>
					</g>
				</g>
				<g id="group44-75" transform="translate(1.55182,-0.835594)" v:mID="44" v:groupContext="group">
					<title>Sheet.44</title>
					<g id="shape45-76" v:mID="45" v:groupContext="shape" transform="translate(0.119371,-0.119371)">
						<title>Sheet.45</title>
						<path d="M0.12 841.89 C0.05 841.89 0 841.84 0 841.77 L0 841.17 C0 841.11 0.05 841.05 0.12 841.05 L1.43 841.05
									 C1.5 841.05 1.55 841.11 1.55 841.17 L1.55 841.77 C1.55 841.84 1.5 841.89 1.43 841.89 L0.12 841.89
									 Z" class="st9"/>
					</g>
					<g id="shape46-78" v:mID="46" v:groupContext="shape">
						<title>Sheet.46</title>
						<path d="M1.55 841.05 L1.55 841.65 L0.24 841.65 L0.24 841.05 L1.55 841.05 ZM1.55 840.81 L0.24 840.81 C0.11
									 840.81 0 840.92 0 841.05 L0 841.65 C0 841.78 0.11 841.89 0.24 841.89 L1.55 841.89 C1.68 841.89
									 1.79 841.78 1.79 841.65 L1.79 841.05 C1.79 840.92 1.68 840.81 1.55 840.81 Z" class="st8"/>
					</g>
				</g>
				<g id="group47-80" transform="translate(3.10364,1.13687E-13)" v:mID="47" v:groupContext="group">
					<title>Sheet.47</title>
					<g id="shape48-81" v:mID="48" v:groupContext="shape" transform="translate(0.119371,-0.119371)">
						<title>Sheet.48</title>
						<path d="M0.12 841.89 C0.05 841.89 0 841.84 0 841.77 L0 841.17 C0 841.11 0.05 841.05 0.12 841.05 L1.43 841.05
									 C1.5 841.05 1.55 841.11 1.55 841.17 L1.55 841.77 C1.55 841.84 1.5 841.89 1.43 841.89 L0.12 841.89
									 Z" class="st7"/>
					</g>
					<g id="shape49-83" v:mID="49" v:groupContext="shape">
						<title>Sheet.49</title>
						<path d="M1.55 841.05 L1.55 841.65 L0.24 841.65 L0.24 841.05 L1.55 841.05 ZM1.55 840.81 L0.24 840.81 C0.11
									 840.81 0 840.92 0 841.05 L0 841.65 C0 841.78 0.11 841.89 0.24 841.89 L1.55 841.89 C1.68 841.89
									 1.79 841.78 1.79 841.65 L1.79 841.05 C1.79 840.92 1.68 840.81 1.55 840.81 Z" class="st8"/>
					</g>
				</g>
				<g id="group50-85" v:mID="50" v:groupContext="group">
					<title>Sheet.50</title>
					<g id="shape51-86" v:mID="51" v:groupContext="shape" transform="translate(0.119371,-0.119371)">
						<title>Sheet.51</title>
						<path d="M0.12 841.89 C0.05 841.89 0 841.84 0 841.77 L0 841.17 C0 841.11 0.05 841.05 0.12 841.05 L1.43 841.05
									 C1.5 841.05 1.55 841.11 1.55 841.17 L1.55 841.77 C1.55 841.84 1.5 841.89 1.43 841.89 L0.12 841.89
									 Z" class="st9"/>
					</g>
					<g id="shape52-88" v:mID="52" v:groupContext="shape">
						<title>Sheet.52</title>
						<path d="M1.55 841.05 L1.55 841.65 L0.24 841.65 L0.24 841.05 L1.55 841.05 ZM1.55 840.81 L0.24 840.81 C0.11
									 840.81 0 840.92 0 841.05 L0 841.65 C0 841.78 0.11 841.89 0.24 841.89 L1.55 841.89 C1.68 841.89
									 1.79 841.78 1.79 841.65 L1.79 841.05 C1.79 840.92 1.68 840.81 1.55 840.81 Z" class="st8"/>
					</g>
				</g>
			</g>
		</g>
	</g>
</svg>
