<?xml version="1.0" encoding="UTF-8" standalone="no"?>
<!DOCTYPE svg PUBLIC "-//W3C//DTD SVG 1.1//EN" "http://www.w3.org/Graphics/SVG/1.1/DTD/svg11.dtd">
<!-- Generated by Microsoft Visio, SVG Export 021_ASCTasks_Storage.svg Page-1 -->
<svg xmlns="http://www.w3.org/2000/svg" xmlns:xlink="http://www.w3.org/1999/xlink" xmlns:ev="http://www.w3.org/2001/xml-events"
		xmlns:v="http://schemas.microsoft.com/visio/2003/SVGExtensions/" width="8.26772in" height="11.6929in"
		viewBox="0 0 595.276 841.889" xml:space="preserve" color-interpolation-filters="sRGB" class="st7">
	<v:documentProperties v:langID="3082">
		<v:userDefs>
			<v:ud v:nameU="msvNoAutoConnect" v:val="VT0(1):26"/>
		</v:userDefs>
	</v:documentProperties>

	<style type="text/css">
	<![CDATA[
		.st1 {fill:#a0a1a2;stroke:none;stroke-linecap:butt;stroke-width:7.65}
		.st2 {fill:#7a7a7a}
		.st3 {stroke:none;stroke-linecap:butt;stroke-width:7.65}
		.st4 {fill:#b8d432;stroke:none;stroke-linecap:butt;stroke-width:7.65}
		.st5 {fill:#ffffff;stroke:none;stroke-linecap:butt;stroke-width:7.65}
		.st6 {fill:#ffffff;fill-opacity:0.2;stroke:none;stroke-linecap:butt;stroke-width:7.65}
		.st7 {fill:none;fill-rule:evenodd;font-size:12px;overflow:visible;stroke-linecap:square;stroke-miterlimit:3}
	]]>
	</style>

	<g v:mID="0" v:index="1" v:groupContext="foregroundPage">
		<title>Page-1</title>
		<v:pageProperties v:drawingScale="0.0393701" v:pageScale="0.0393701" v:drawingUnits="24" v:shadowOffsetX="8.99999"
				v:shadowOffsetY="-8.99999"/>
		<g id="group59-1" transform="translate(7.99361E-15,-835.984)" v:mID="59" v:groupContext="group">
			<title>Azure Files Storage</title>
			<g id="shape60-2" v:mID="60" v:groupContext="shape">
				<title>Sheet.60</title>
				<path d="M0 841.63 C0 841.77 0.11 841.89 0.26 841.89 L6.82 841.89 C6.96 841.89 7.09 841.78 7.09 841.63 L7.09 837.08
							 L0 837.08 L0 841.63 Z" class="st1"/>
			</g>
			<g id="shape61-4" v:mID="61" v:groupContext="shape" transform="translate(0,-4.80685)">
				<title>Sheet.61</title>
				<path d="M6.82 840.8 L0.26 840.8 C0.11 840.8 0 840.93 0 841.06 L0 841.89 L7.09 841.89 L7.09 841.06 C7.09 840.93 6.97
							 840.82 6.82 840.82 L6.82 840.8 Z" class="st2"/>
				<path d="M6.82 840.8 L0.26 840.8 C0.11 840.8 0 840.93 0 841.06 L0 841.89 L7.09 841.89 L7.09 841.06 C7.09 840.93 6.97
							 840.82 6.82 840.82" class="st3"/>
			</g>
			<g id="shape62-7" v:mID="62" v:groupContext="shape" transform="translate(0.566929,-1.99134)">
				<title>Sheet.62</title>
				<rect x="0" y="840.927" width="5.95276" height="0.961417" class="st4"/>
			</g>
			<g id="shape63-9" v:mID="63" v:groupContext="shape" transform="translate(0.566929,-3.43335)">
				<title>Sheet.63</title>
				<rect x="0" y="840.927" width="5.95276" height="0.961417" class="st5"/>
			</g>
			<g id="shape64-11" v:mID="64" v:groupContext="shape" transform="translate(0.566929,-0.549331)">
				<title>Sheet.64</title>
				<rect x="0" y="840.927" width="5.95276" height="0.961417" class="st4"/>
			</g>
			<g id="shape65-13" v:mID="65" v:groupContext="shape" transform="translate(0,-0.0549213)">
				<title>Sheet.65</title>
				<path d="M0.28 836.04 C0.13 836.04 0 836.16 0 836.31 L0 837.32 L0 837.77 L0 841.61 C0 841.77 0.13 841.89 0.28 841.89
							 L0.6 841.89 L6.18 836.04 L0.28 836.04 Z" class="st6"/>
			</g>
		</g>
	</g>
</svg>
