<?xml version="1.0" encoding="UTF-8" standalone="no"?>
<!DOCTYPE svg PUBLIC "-//W3C//DTD SVG 1.1//EN" "http://www.w3.org/Graphics/SVG/1.1/DTD/svg11.dtd">
<!-- Generated by Microsoft Visio, SVG Export 021_ASCTasks_Storage.svg 002_AAdvisor_ReliabilityAS -->
<svg xmlns="http://www.w3.org/2000/svg" xmlns:xlink="http://www.w3.org/1999/xlink" xmlns:ev="http://www.w3.org/2001/xml-events"
		xmlns:v="http://schemas.microsoft.com/visio/2003/SVGExtensions/" width="0.856873in" height="0.856873in"
		viewBox="0 0 61.6949 61.6949" xml:space="preserve" color-interpolation-filters="sRGB" class="st9">
	<v:documentProperties v:langID="3082" v:viewMarkup="false"/>

	<style type="text/css">
	<![CDATA[
		.st1 {fill:#ffffff;stroke:none;stroke-linecap:round;stroke-linejoin:round;stroke-width:0.749999}
		.st2 {fill:#a0a1a2;stroke:none;stroke-linecap:butt;stroke-width:7.65}
		.st3 {fill:#7a7a7a;stroke:none;stroke-width:1}
		.st4 {fill:none}
		.st5 {stroke:none;stroke-linecap:butt;stroke-width:7.65}
		.st6 {fill:#b8d432;stroke:none;stroke-linecap:butt;stroke-width:7.65}
		.st7 {fill:#ffffff;stroke:none;stroke-linecap:butt;stroke-width:7.65}
		.st8 {fill:#ffffff;fill-opacity:0.2;stroke:none;stroke-linecap:butt;stroke-width:7.65}
		.st9 {fill:none;fill-rule:evenodd;font-size:12px;overflow:visible;stroke-linecap:square;stroke-miterlimit:3}
	]]>
	</style>

	<g v:mID="0" v:index="1" v:groupContext="foregroundPage">
		<title>002_AAdvisor_ReliabilityAS</title>
		<v:pageProperties v:drawingScale="1" v:pageScale="1" v:drawingUnits="19" v:shadowOffsetX="9" v:shadowOffsetY="-9"/>
		<g id="group1-1" transform="translate(0.375,-0.374999)" v:mID="1" v:groupContext="group">
			<title>Page-1</title>
			<g id="group2-2" v:mID="2" v:groupContext="group">
				<title>Sheet.2</title>
				<g id="group3-3" v:mID="3" v:groupContext="group">
					<title>Sheet.3</title>
					<g id="shape4-4" v:mID="4" v:groupContext="shape">
						<title>Sheet.4</title>
						<rect x="0" y="0.749999" width="60.9449" height="60.9449" class="st1"/>
					</g>
				</g>
			</g>
		</g>
		<g id="group215-6" transform="translate(23.155,-26.151)" v:mID="215" v:groupContext="group">
			<title>Azure Files Storage</title>
			<g id="shape216-7" v:mID="216" v:groupContext="shape">
				<title>Sheet.216</title>
				<path d="M0 61.22 C0 61.48 0.2 61.69 0.47 61.69 L12.36 61.69 C12.61 61.69 12.84 61.5 12.84 61.22 L12.84 52.98 L0
							 52.98 L0 61.22 Z" class="st2"/>
			</g>
			<g id="group217-9" transform="translate(0,-8.7086)" v:mID="217" v:groupContext="group">
				<title>Sheet.217</title>
				<g id="shape218-10" v:mID="218" v:groupContext="shape">
					<title>Sheet.218</title>
					<path d="M12.36 59.72 L0.47 59.72 C0.2 59.72 0 59.96 0 60.19 L0 61.69 L12.84 61.69 L12.84 60.19 C12.84 59.96
								 12.63 59.76 12.36 59.76 L12.36 59.72 Z" class="st3"/>
				</g>
				<g id="shape219-12" v:mID="219" v:groupContext="shape">
					<title>Sheet.219</title>
					<path d="M12.36 59.72 L0.47 59.72 C0.2 59.72 0 59.96 0 60.19 L0 61.69 L12.84 61.69 L12.84 60.19 C12.84 59.96
								 12.63 59.76 12.36 59.76 L12.36 59.72 Z" class="st4"/>
					<path d="M12.36 59.72 L0.47 59.72 C0.2 59.72 0 59.96 0 60.19 L0 61.69 L12.84 61.69 L12.84 60.19 C12.84 59.96
								 12.63 59.76 12.36 59.76" class="st5"/>
				</g>
			</g>
			<g id="shape220-15" v:mID="220" v:groupContext="shape" transform="translate(1.02711,-3.61059)">
				<title>Sheet.220</title>
				<rect x="0" y="59.9531" width="10.7847" height="1.74181" class="st6"/>
			</g>
			<g id="shape221-17" v:mID="221" v:groupContext="shape" transform="translate(1.02711,-6.22309)">
				<title>Sheet.221</title>
				<rect x="0" y="59.9531" width="10.7847" height="1.74181" class="st7"/>
			</g>
			<g id="shape222-19" v:mID="222" v:groupContext="shape" transform="translate(1.02711,-0.998094)">
				<title>Sheet.222</title>
				<rect x="0" y="59.9531" width="10.7847" height="1.74181" class="st6"/>
			</g>
			<g id="shape223-21" v:mID="223" v:groupContext="shape" transform="translate(-6.39488E-14,-0.0995013)">
				<title>Sheet.223</title>
				<path d="M0.51 51.1 C0.24 51.1 0 51.31 0 51.59 L0 53.42 L0 54.23 L0 61.19 C0 61.48 0.24 61.69 0.51 61.69 L1.09 61.69
							 L11.2 51.1 L0.51 51.1 Z" class="st8"/>
			</g>
		</g>
	</g>
</svg>
