<?xml version="1.0" encoding="UTF-8" standalone="no"?>
<!DOCTYPE svg PUBLIC "-//W3C//DTD SVG 1.1//EN" "http://www.w3.org/Graphics/SVG/1.1/DTD/svg11.dtd">
<!-- Generated by Microsoft Visio, SVG Export 021_ASCTasks_Storage.svg Page-1 -->
<svg xmlns="http://www.w3.org/2000/svg" xmlns:xlink="http://www.w3.org/1999/xlink" xmlns:ev="http://www.w3.org/2001/xml-events"
		xmlns:v="http://schemas.microsoft.com/visio/2003/SVGExtensions/" width="0.390833in" height="0.360965in"
		viewBox="0 0 28.14 25.9895" xml:space="preserve" color-interpolation-filters="sRGB" class="st9">
	<v:documentProperties v:langID="3082" v:metric="true" v:viewMarkup="false"/>

	<style type="text/css">
	<![CDATA[
		.st1 {fill:#a0a1a2;stroke:none;stroke-linecap:butt;stroke-width:7.64999}
		.st2 {fill:#7a7a7a;stroke:none;stroke-width:0.999999}
		.st3 {fill:none;stroke:none;stroke-width:0.999999}
		.st4 {fill:none}
		.st5 {stroke:none;stroke-linecap:butt;stroke-width:7.64999}
		.st6 {fill:#b8d432;stroke:none;stroke-linecap:butt;stroke-width:7.64999}
		.st7 {fill:#ffffff;stroke:none;stroke-linecap:butt;stroke-width:7.64999}
		.st8 {fill:#ffffff;fill-opacity:0.2;stroke:none;stroke-linecap:butt;stroke-width:7.64999}
		.st9 {fill:none;fill-rule:evenodd;font-size:12px;overflow:visible;stroke-linecap:square;stroke-miterlimit:3}
	]]>
	</style>

	<g v:mID="0" v:index="1" v:groupContext="foregroundPage">
		<title>Page-1</title>
		<v:pageProperties v:drawingScale="1" v:pageScale="1" v:drawingUnits="19" v:shadowOffsetX="8.99999"
				v:shadowOffsetY="-8.99999"/>
		<g id="group33-1" transform="translate(7.64999,-7.64999)" v:mID="33" v:groupContext="group">
			<title>Azure Files Storage</title>
			<g id="shape34-2" v:mID="34" v:groupContext="shape">
				<title>Sheet.34</title>
				<path d="M0 25.52 C0 25.78 0.2 25.99 0.47 25.99 L12.36 25.99 C12.61 25.99 12.84 25.8 12.84 25.52 L12.84 17.28 L0
							 17.28 L0 25.52 Z" class="st1"/>
			</g>
			<g id="group35-4" transform="translate(3.19744E-14,-8.70859)" v:mID="35" v:groupContext="group">
				<title>Sheet.35</title>
				<g id="shape36-5" v:mID="36" v:groupContext="shape">
					<title>Sheet.36</title>
					<path d="M12.36 24.02 L0.47 24.02 C0.2 24.02 0 24.26 0 24.49 L0 25.99 L12.84 25.99 L12.84 24.49 C12.84 24.26
								 12.63 24.06 12.36 24.06 L12.36 24.02 Z" class="st2"/>
				</g>
				<g id="group37-7" v:mID="37" v:groupContext="group">
					<title>Sheet.37</title>
					<g id="shape38-8" v:mID="38" v:groupContext="shape">
						<title>Sheet.38</title>
						<path d="M12.36 24.02 L0.47 24.02 C0.2 24.02 0 24.26 0 24.49 L0 25.99 L12.84 25.99 L12.84 24.49 C12.84 24.26
									 12.63 24.06 12.36 24.06 L12.36 24.02 Z" class="st3"/>
					</g>
					<g id="shape39-10" v:mID="39" v:groupContext="shape">
						<title>Sheet.39</title>
						<path d="M12.36 24.02 L0.47 24.02 C0.2 24.02 0 24.26 0 24.49 L0 25.99 L12.84 25.99 L12.84 24.49 C12.84 24.26
									 12.63 24.06 12.36 24.06 L12.36 24.02 Z" class="st4"/>
						<path d="M12.36 24.02 L0.47 24.02 C0.2 24.02 0 24.26 0 24.49 L0 25.99 L12.84 25.99 L12.84 24.49 C12.84 24.26
									 12.63 24.06 12.36 24.06" class="st5"/>
					</g>
				</g>
			</g>
			<g id="shape40-13" v:mID="40" v:groupContext="shape" transform="translate(1.02711,-3.60568)">
				<title>Sheet.40</title>
				<rect x="0" y="24.2477" width="10.7847" height="1.74181" class="st6"/>
			</g>
			<g id="shape41-15" v:mID="41" v:groupContext="shape" transform="translate(1.02711,-6.21818)">
				<title>Sheet.41</title>
				<rect x="0" y="24.2477" width="10.7847" height="1.74181" class="st7"/>
			</g>
			<g id="shape42-17" v:mID="42" v:groupContext="shape" transform="translate(1.02711,-0.993183)">
				<title>Sheet.42</title>
				<rect x="0" y="24.2477" width="10.7847" height="1.74181" class="st6"/>
			</g>
			<g id="shape43-19" v:mID="43" v:groupContext="shape" transform="translate(2.29816E-14,-0.0995012)">
				<title>Sheet.43</title>
				<path d="M0.51 15.4 C0.24 15.4 0 15.61 0 15.89 L0 17.72 L0 18.53 L0 25.49 C0 25.78 0.24 25.99 0.51 25.99 L1.09 25.99
							 L11.2 15.4 L0.51 15.4 Z" class="st8"/>
			</g>
		</g>
	</g>
</svg>
