<?xml version="1.0" encoding="UTF-8" standalone="no"?>
<!DOCTYPE svg PUBLIC "-//W3C//DTD SVG 1.1//EN" "http://www.w3.org/Graphics/SVG/1.1/DTD/svg11.dtd">
<!-- Generated by Microsoft Visio, SVG Export 022_ASCTasks_SQL.svg Page-1 -->
<svg xmlns="http://www.w3.org/2000/svg" xmlns:xlink="http://www.w3.org/1999/xlink" xmlns:ev="http://www.w3.org/2001/xml-events"
		xmlns:v="http://schemas.microsoft.com/visio/2003/SVGExtensions/" width="0.856873in" height="0.856873in"
		viewBox="0 0 61.6949 61.6949" xml:space="preserve" color-interpolation-filters="sRGB" class="st6">
	<v:documentProperties v:langID="3082"/>

	<style type="text/css">
	<![CDATA[
		.st1 {fill:#0072c6;stroke:none;stroke-linecap:butt;stroke-width:12.24}
		.st2 {fill:#ffffff;fill-opacity:0.15;stroke:none;stroke-linecap:butt;stroke-width:12.24}
		.st3 {fill:#ffffff;stroke:none;stroke-linecap:butt;stroke-width:12.24}
		.st4 {fill:#7fba00;stroke:none;stroke-linecap:butt;stroke-width:12.24}
		.st5 {fill:#b8d432;stroke:none;stroke-linecap:butt;stroke-width:12.24}
		.st6 {fill:none;fill-rule:evenodd;font-size:12px;overflow:visible;stroke-linecap:square;stroke-miterlimit:3}
	]]>
	</style>

	<g v:mID="0" v:index="1" v:groupContext="foregroundPage">
		<title>Page-1</title>
		<v:pageProperties v:drawingScale="1" v:pageScale="1" v:drawingUnits="19" v:shadowOffsetX="8.99999"
				v:shadowOffsetY="-8.99999"/>
		<g id="group5-1" transform="translate(18.4219,-14.2514)" v:mID="5" v:groupContext="group">
			<title>SQL Database</title>
			<g id="shape6-2" v:mID="6" v:groupContext="shape">
				<title>Sheet.6</title>
				<path d="M0 33.85 L0 57.29 C0 59.72 5.45 61.69 12.16 61.69 L12.16 33.85 C12.16 33.85 0 33.85 0 33.85 Z" class="st1"/>
			</g>
			<g id="shape7-4" v:mID="7" v:groupContext="shape" transform="translate(11.9973,-0.000648992)">
				<title>Sheet.7</title>
				<path d="M0 61.69 L0.17 61.69 C6.88 61.69 12.33 59.72 12.33 57.29 L12.33 33.85 L0 33.85 L0 61.69 Z" class="st1"/>
			</g>
			<g id="shape8-6" v:mID="8" v:groupContext="shape" transform="translate(11.9973,-0.000648992)">
				<title>Sheet.8</title>
				<path d="M0 61.69 L0.17 61.69 C6.88 61.69 12.33 59.72 12.33 57.29 L12.33 33.85 L0 33.85 L0 61.69 Z" class="st2"/>
			</g>
			<g id="shape9-8" v:mID="9" v:groupContext="shape" transform="translate(0,-23.4364)">
				<title>Sheet.9</title>
				<path d="M24.33 57.29 C24.33 59.72 18.88 61.69 12.16 61.69 C5.45 61.69 0 59.72 0 57.29 C0 54.86 5.45 52.88 12.16
							 52.88 C18.88 52.88 24.33 54.86 24.33 57.29 Z" class="st3"/>
			</g>
			<g id="shape10-10" v:mID="10" v:groupContext="shape" transform="translate(2.48629,-25.1887)">
				<title>Sheet.10</title>
				<path d="M19.35 58.79 C19.35 60.39 15.02 61.69 9.68 61.69 C4.33 61.69 0 60.39 0 58.79 C0 57.18 4.33 55.88 9.68 55.88
							 C15.02 55.88 19.35 57.18 19.35 58.79 Z" class="st4"/>
			</g>
			<g id="shape11-12" v:mID="11" v:groupContext="shape" transform="translate(2.48694,-26.3192)">
				<title>Sheet.11</title>
				<path d="M17.33 61.69 C18.59 61.2 19.35 60.59 19.35 59.92 C19.35 58.31 15.02 57.01 9.68 57.01 C4.33 57.01 0 58.31
							 0 59.92 C0 60.59 0.76 61.2 2.03 61.69 C3.8 61.01 6.56 60.56 9.68 60.56 C12.79 60.56 15.56 61.01 17.33
							 61.69 Z" class="st5"/>
			</g>
			<g id="shape12-14" v:mID="12" v:groupContext="shape" transform="translate(3.30077,-9.28254)">
				<title>Sheet.12</title>
				<path d="M5 59.4 C5 60.13 4.74 60.7 4.21 61.1 C3.68 61.49 2.95 61.69 2.02 61.69 C1.23 61.69 0.56 61.55 0.03 61.27
							 L0.03 59.55 C0.65 60.07 1.32 60.34 2.06 60.34 C2.42 60.34 2.69 60.26 2.89 60.12 C3.08 59.98 3.18 59.79
							 3.18 59.55 C3.18 59.32 3.09 59.12 2.9 58.95 C2.71 58.78 2.33 58.56 1.76 58.28 C0.59 57.74 0 56.99 0
							 56.04 C0 55.35 0.26 54.8 0.77 54.38 C1.28 53.96 1.95 53.76 2.8 53.76 C3.55 53.76 4.17 53.85 4.66 54.05
							 L4.66 55.65 C4.15 55.29 3.56 55.12 2.9 55.12 C2.56 55.12 2.3 55.19 2.11 55.33 C1.92 55.47 1.82 55.66
							 1.82 55.89 C1.82 56.13 1.9 56.33 2.05 56.49 C2.21 56.64 2.53 56.84 3.01 57.06 C3.73 57.4 4.24 57.75
							 4.54 58.1 C4.85 58.45 5 58.88 5 59.4 Z" class="st3"/>
			</g>
			<g id="shape13-16" v:mID="13" v:groupContext="shape" transform="translate(9.03852,-7.49975)">
				<title>Sheet.13</title>
				<path d="M7.52 55.89 C7.52 56.79 7.32 57.57 6.91 58.24 C6.5 58.9 5.92 59.37 5.17 59.63 L7.4 61.69 L5.15 61.69 L3.56
							 59.91 C2.88 59.89 2.26 59.71 1.72 59.37 C1.17 59.04 0.75 58.58 0.45 57.99 C0.15 57.41 0 56.76 0 56.04
							 C0 55.25 0.16 54.54 0.48 53.91 C0.81 53.29 1.26 52.81 1.85 52.48 C2.43 52.14 3.1 51.97 3.86 51.97 C4.57
							 51.97 5.2 52.14 5.76 52.46 C6.32 52.78 6.75 53.25 7.06 53.85 C7.37 54.45 7.52 55.13 7.52 55.89 ZM5.7
							 55.98 C5.7 55.2 5.53 54.59 5.19 54.14 C4.85 53.69 4.39 53.46 3.8 53.46 C3.2 53.46 2.72 53.69 2.36 54.14
							 C2 54.59 1.82 55.2 1.82 55.95 C1.82 56.7 2 57.3 2.35 57.75 C2.7 58.19 3.17 58.42 3.76 58.42 C4.35 58.42
							 4.83 58.2 5.18 57.77 C5.53 57.33 5.7 56.74 5.7 55.98 Z" class="st3"/>
			</g>
			<g id="shape14-18" v:mID="14" v:groupContext="shape" transform="translate(17.8291,-9.41623)">
				<title>Sheet.14</title>
				<path d="M4.57 61.69 L0 61.69 L0 54.02 L1.73 54.02 L1.73 60.29 L4.57 60.29 L4.57 61.69 Z" class="st3"/>
			</g>
		</g>
	</g>
</svg>
