<?xml version="1.0" encoding="UTF-8" standalone="no"?>
<!DOCTYPE svg PUBLIC "-//W3C//DTD SVG 1.1//EN" "http://www.w3.org/Graphics/SVG/1.1/DTD/svg11.dtd">
<!-- Generated by Microsoft Visio, SVG Export 022_ASCTasks_SQL.svg Page-1 -->
<svg xmlns="http://www.w3.org/2000/svg" xmlns:xlink="http://www.w3.org/1999/xlink" xmlns:ev="http://www.w3.org/2001/xml-events"
		xmlns:v="http://schemas.microsoft.com/visio/2003/SVGExtensions/" width="8.26772in" height="11.6929in"
		viewBox="0 0 595.276 841.889" xml:space="preserve" color-interpolation-filters="sRGB" class="st6">
	<v:documentProperties v:langID="3082">
		<v:userDefs>
			<v:ud v:nameU="msvNoAutoConnect" v:val="VT0(1):26"/>
		</v:userDefs>
	</v:documentProperties>

	<style type="text/css">
	<![CDATA[
		.st1 {fill:#0072c6;stroke:none;stroke-linecap:butt;stroke-width:12.24}
		.st2 {fill:#ffffff;fill-opacity:0.15;stroke:none;stroke-linecap:butt;stroke-width:12.24}
		.st3 {fill:#ffffff;stroke:none;stroke-linecap:butt;stroke-width:12.24}
		.st4 {fill:#7fba00;stroke:none;stroke-linecap:butt;stroke-width:12.24}
		.st5 {fill:#b8d432;stroke:none;stroke-linecap:butt;stroke-width:12.24}
		.st6 {fill:none;fill-rule:evenodd;font-size:12px;overflow:visible;stroke-linecap:square;stroke-miterlimit:3}
	]]>
	</style>

	<g v:mID="0" v:index="1" v:groupContext="foregroundPage">
		<title>Page-1</title>
		<v:pageProperties v:drawingScale="0.0393701" v:pageScale="0.0393701" v:drawingUnits="24" v:shadowOffsetX="8.99999"
				v:shadowOffsetY="-8.99999"/>
		<g id="group66-1" transform="translate(0,-836.254)" v:mID="66" v:groupContext="group">
			<title>SQL Database</title>
			<g id="shape67-2" v:mID="67" v:groupContext="shape">
				<title>Sheet.67</title>
				<path d="M0 837.02 L0 841.12 C0 841.54 0.95 841.89 2.13 841.89 L2.13 837.02 C2.13 837.02 0 837.02 0 837.02 Z"
						class="st1"/>
			</g>
			<g id="shape68-4" v:mID="68" v:groupContext="shape" transform="translate(2.09683,-0.000113428)">
				<title>Sheet.68</title>
				<path d="M0 841.89 L0.03 841.89 C1.2 841.89 2.16 841.54 2.16 841.12 L2.16 837.02 L0 837.02 L0 841.89 Z" class="st1"/>
			</g>
			<g id="shape69-6" v:mID="69" v:groupContext="shape" transform="translate(2.09683,-0.000113428)">
				<title>Sheet.69</title>
				<path d="M0 841.89 L0.03 841.89 C1.2 841.89 2.16 841.54 2.16 841.12 L2.16 837.02 L0 837.02 L0 841.89 Z" class="st2"/>
			</g>
			<g id="shape70-8" v:mID="70" v:groupContext="shape" transform="translate(0,-4.09612)">
				<title>Sheet.70</title>
				<path d="M4.25 841.12 C4.25 841.54 3.3 841.89 2.13 841.89 C0.95 841.89 0 841.54 0 841.12 C0 840.69 0.95 840.35 2.13
							 840.35 C3.3 840.35 4.25 840.69 4.25 841.12 Z" class="st3"/>
			</g>
			<g id="shape71-10" v:mID="71" v:groupContext="shape" transform="translate(0.434543,-4.40237)">
				<title>Sheet.71</title>
				<path d="M3.38 841.38 C3.38 841.66 2.63 841.89 1.69 841.89 C0.76 841.89 0 841.66 0 841.38 C0 841.1 0.76 840.87 1.69
							 840.87 C2.63 840.87 3.38 841.1 3.38 841.38 Z" class="st4"/>
			</g>
			<g id="shape72-12" v:mID="72" v:groupContext="shape" transform="translate(0.434657,-4.59997)">
				<title>Sheet.72</title>
				<path d="M3.03 841.89 C3.25 841.8 3.38 841.7 3.38 841.58 C3.38 841.3 2.63 841.07 1.69 841.07 C0.76 841.07 0 841.3
							 0 841.58 C0 841.7 0.13 841.8 0.35 841.89 C0.66 841.77 1.15 841.69 1.69 841.69 C2.24 841.69 2.72 841.77
							 3.03 841.89 Z" class="st5"/>
			</g>
			<g id="shape73-14" v:mID="73" v:groupContext="shape" transform="translate(0.576896,-1.62236)">
				<title>Sheet.73</title>
				<path d="M0.87 841.49 C0.87 841.62 0.83 841.71 0.74 841.78 C0.64 841.85 0.52 841.89 0.35 841.89 C0.21 841.89 0.1
							 841.86 0.01 841.81 L0.01 841.51 C0.11 841.61 0.23 841.65 0.36 841.65 C0.42 841.65 0.47 841.64 0.5 841.61
							 C0.54 841.59 0.56 841.56 0.56 841.51 C0.56 841.47 0.54 841.44 0.51 841.41 C0.47 841.38 0.41 841.34 0.31
							 841.29 C0.1 841.2 0 841.07 0 840.9 C0 840.78 0.04 840.68 0.13 840.61 C0.22 840.54 0.34 840.5 0.49 840.5
							 C0.62 840.5 0.73 840.52 0.81 840.55 L0.81 840.83 C0.72 840.77 0.62 840.74 0.51 840.74 C0.45 840.74 0.4
							 840.75 0.37 840.78 C0.34 840.8 0.32 840.83 0.32 840.87 C0.32 840.92 0.33 840.95 0.36 840.98 C0.39 841.01
							 0.44 841.04 0.53 841.08 C0.65 841.14 0.74 841.2 0.79 841.26 C0.85 841.32 0.87 841.4 0.87 841.49 Z"
						class="st3"/>
			</g>
			<g id="shape74-16" v:mID="74" v:groupContext="shape" transform="translate(1.57971,-1.31078)">
				<title>Sheet.74</title>
				<path d="M1.31 840.87 C1.31 841.03 1.28 841.17 1.21 841.28 C1.14 841.4 1.03 841.48 0.9 841.53 L1.29 841.89 L0.9 841.89
							 L0.62 841.58 C0.5 841.57 0.4 841.54 0.3 841.48 C0.2 841.42 0.13 841.34 0.08 841.24 C0.03 841.14 0 841.03
							 0 840.9 C0 840.76 0.03 840.64 0.08 840.53 C0.14 840.42 0.22 840.34 0.32 840.28 C0.43 840.22 0.54 840.19
							 0.67 840.19 C0.8 840.19 0.91 840.22 1.01 840.27 C1.1 840.33 1.18 840.41 1.23 840.52 C1.29 840.62 1.31
							 840.74 1.31 840.87 ZM1 840.89 C1 840.75 0.97 840.65 0.91 840.57 C0.85 840.49 0.77 840.45 0.66 840.45
							 C0.56 840.45 0.48 840.49 0.41 840.57 C0.35 840.65 0.32 840.75 0.32 840.88 C0.32 841.02 0.35 841.12 0.41
							 841.2 C0.47 841.28 0.55 841.32 0.66 841.32 C0.76 841.32 0.84 841.28 0.9 841.2 C0.97 841.13 1 841.02
							 1 840.89 Z" class="st3"/>
			</g>
			<g id="shape75-18" v:mID="75" v:groupContext="shape" transform="translate(3.1161,-1.64573)">
				<title>Sheet.75</title>
				<path d="M0.8 841.89 L0 841.89 L0 840.55 L0.3 840.55 L0.3 841.64 L0.8 841.64 L0.8 841.89 Z" class="st3"/>
			</g>
		</g>
	</g>
</svg>
