<?xml version="1.0" encoding="UTF-8" standalone="no"?>
<!DOCTYPE svg PUBLIC "-//W3C//DTD SVG 1.1//EN" "http://www.w3.org/Graphics/SVG/1.1/DTD/svg11.dtd">
<!-- Generated by Microsoft Visio, SVG Export 023_ASCTasks_Containers.svg Page-1 -->
<svg xmlns="http://www.w3.org/2000/svg" xmlns:xlink="http://www.w3.org/1999/xlink" xmlns:ev="http://www.w3.org/2001/xml-events"
		xmlns:v="http://schemas.microsoft.com/visio/2003/SVGExtensions/" width="8.26772in" height="11.6929in"
		viewBox="0 0 595.276 841.889" xml:space="preserve" color-interpolation-filters="sRGB" class="st2">
	<v:documentProperties v:langID="3082">
		<v:userDefs>
			<v:ud v:nameU="msvNoAutoConnect" v:val="VT0(1):26"/>
		</v:userDefs>
	</v:documentProperties>

	<style type="text/css">
	<![CDATA[
		.st1 {fill:#0072c6;stroke:none;stroke-linecap:butt;stroke-width:0.75}
		.st2 {fill:none;fill-rule:evenodd;font-size:12px;overflow:visible;stroke-linecap:square;stroke-miterlimit:3}
	]]>
	</style>

	<g v:mID="0" v:index="1" v:groupContext="foregroundPage">
		<title>Page-1</title>
		<v:pageProperties v:drawingScale="0.0393701" v:pageScale="0.0393701" v:drawingUnits="24" v:shadowOffsetX="9"
				v:shadowOffsetY="-9"/>
		<g id="group96-1" transform="translate(-9.80815,-822.845)" v:mID="96" v:groupContext="group">
			<title>Sheet.96</title>
			<g id="shape97-2" v:mID="97" v:groupContext="shape" transform="translate(10.1393,-9.5056)">
				<title>Sheet.97</title>
				<path d="M0 834.92 L0 841.89 L4.44 839.99 L4.44 832.38 L0 834.92 ZM3.8 834.15 L3.8 834.79 L3.8 838.99 L2.85 839.42
							 L2.85 835.3 L1.58 835.99 L1.58 840.01 L0.63 840.4 L0.63 836.5 L0.63 835.87 L2.85 834.67 L2.85 834.66
							 L3.8 834.15 Z" class="st1"/>
			</g>
			<g id="shape98-4" v:mID="98" v:groupContext="shape" transform="translate(14.5753,-8.39662)">
				<title>Sheet.98</title>
				<path d="M0 831.27 L0 838.88 L13.94 841.89 L13.94 836.34 L0 831.27 ZM12.67 837.61 L12.67 840.78 L11.75 840.53 L11.75
							 837.23 L10.14 836.72 L10.14 840.15 L9.22 839.89 L9.22 836.34 L7.6 835.84 L7.6 839.51 L6.68 839.26 L6.68
							 835.46 L5.07 834.95 L5.07 838.88 L4.15 838.62 L4.15 834.57 L2.37 834 L2.38 838.21 L1.27 837.93 L1.27
							 833.62 L1.27 832.99 L3.8 833.87 L5.07 834.32 L6.34 834.76 L6.97 834.98 L9.41 835.84 L10.14 836.09 L11.41
							 836.53 L12.67 836.98 L12.67 837.61 Z" class="st1"/>
			</g>
			<g id="shape99-6" v:mID="99" v:groupContext="shape" transform="translate(14.5753,0)">
				<title>Sheet.99</title>
				<path d="M0 831.75 L0 841.89 L13.94 838.72 L13.94 834.44 L0 831.75 ZM12.67 838.03 L11.75 838.18 L11.75 835.43 L10.14
							 835.22 L10.14 838.55 L9.22 838.7 L9.22 835.1 L7.6 834.89 L7.6 839.07 L6.68 839.22 L6.68 834.77 L5.07
							 834.56 L5.07 839.58 L4.15 839.74 L4.15 834.44 L2.38 834.23 L2.37 840.17 L1.27 840.36 L1.27 833.35 L12.67
							 835.08 L12.67 838.03 Z" class="st1"/>
			</g>
			<g id="shape101-8" v:mID="101" v:groupContext="shape" transform="translate(10.1393,0)">
				<title>Sheet.101</title>
				<path d="M0 833.49 L0 839.35 L4.44 841.89 L4.44 831.75 L0 833.49 ZM3.8 834.18 L3.8 840.3 L2.85 839.83 L2.85 834.49
							 L1.58 834.91 L1.58 839.19 L0.63 838.72 L0.63 835.22 L0.63 834.59 L2.85 833.86 L3.8 833.54 L3.8 834.18
							 Z" class="st1"/>
			</g>
		</g>
	</g>
</svg>
