<?xml version="1.0" encoding="UTF-8" standalone="no"?>
<!DOCTYPE svg PUBLIC "-//W3C//DTD SVG 1.1//EN" "http://www.w3.org/Graphics/SVG/1.1/DTD/svg11.dtd">
<!-- Generated by Microsoft Visio, SVG Export 023_ASCTasks_Containers.svg Page-1 -->
<svg xmlns="http://www.w3.org/2000/svg" xmlns:xlink="http://www.w3.org/1999/xlink" xmlns:ev="http://www.w3.org/2001/xml-events"
		xmlns:v="http://schemas.microsoft.com/visio/2003/SVGExtensions/" width="0.276055in" height="0.284953in"
		viewBox="0 0 19.876 20.5166" xml:space="preserve" color-interpolation-filters="sRGB" class="st2">
	<v:documentProperties v:langID="3082" v:metric="true" v:viewMarkup="false"/>

	<style type="text/css">
	<![CDATA[
		.st1 {fill:#0072c6;stroke:none;stroke-linecap:butt;stroke-width:0.75}
		.st2 {fill:none;fill-rule:evenodd;font-size:12px;overflow:visible;stroke-linecap:square;stroke-miterlimit:3}
	]]>
	</style>

	<g v:mID="0" v:index="1" v:groupContext="foregroundPage">
		<title>Page-1</title>
		<v:pageProperties v:drawingScale="1" v:pageScale="1" v:drawingUnits="19" v:shadowOffsetX="9" v:shadowOffsetY="-9"/>
		<g id="group234-1" transform="translate(0.75,-0.75)" v:mID="234" v:groupContext="group">
			<title>Sheet.234</title>
			<g id="shape235-2" v:mID="235" v:groupContext="shape" transform="translate(9.99201E-15,-9.5056)">
				<title>Sheet.235</title>
				<path d="M0 13.55 L0 20.52 L4.44 18.62 L4.44 11.01 L0 13.55 ZM3.8 12.78 L3.8 13.42 L3.8 17.62 L2.85 18.05 L2.85 13.93
							 L1.58 14.62 L1.58 18.64 L0.63 19.03 L0.63 15.13 L0.63 14.5 L2.85 13.3 L2.85 13.29 L3.8 12.78 Z"
						class="st1"/>
			</g>
			<g id="shape236-4" v:mID="236" v:groupContext="shape" transform="translate(4.436,-8.39662)">
				<title>Sheet.236</title>
				<path d="M0 9.9 L0 17.51 L13.94 20.52 L13.94 14.97 L0 9.9 ZM12.67 16.24 L12.67 19.41 L11.75 19.16 L11.75 15.86 L10.14
							 15.35 L10.14 18.78 L9.22 18.52 L9.22 14.97 L7.6 14.47 L7.6 18.14 L6.68 17.89 L6.68 14.09 L5.07 13.58
							 L5.07 17.51 L4.15 17.25 L4.15 13.2 L2.37 12.63 L2.38 16.84 L1.27 16.56 L1.27 12.25 L1.27 11.62 L3.8
							 12.5 L5.07 12.95 L6.34 13.39 L6.97 13.61 L9.41 14.47 L10.14 14.72 L11.41 15.16 L12.67 15.61 L12.67 16.24
							 Z" class="st1"/>
			</g>
			<g id="shape237-6" v:mID="237" v:groupContext="shape" transform="translate(4.436,1.42109E-14)">
				<title>Sheet.237</title>
				<path d="M0 10.38 L0 20.52 L13.94 17.35 L13.94 13.07 L0 10.38 ZM12.67 16.66 L11.75 16.81 L11.75 14.06 L10.14 13.85
							 L10.14 17.18 L9.22 17.33 L9.22 13.73 L7.6 13.52 L7.6 17.7 L6.68 17.85 L6.68 13.4 L5.07 13.19 L5.07 18.21
							 L4.15 18.37 L4.15 13.07 L2.38 12.86 L2.37 18.8 L1.27 18.99 L1.27 11.98 L12.67 13.71 L12.67 16.66 Z"
						class="st1"/>
			</g>
			<g id="shape238-8" v:mID="238" v:groupContext="shape">
				<title>Sheet.238</title>
				<path d="M0 12.12 L0 17.98 L4.44 20.52 L4.44 10.38 L0 12.12 ZM3.8 12.81 L3.8 18.93 L2.85 18.46 L2.85 13.12 L1.58
							 13.54 L1.58 17.82 L0.63 17.35 L0.63 13.85 L0.63 13.22 L2.85 12.49 L3.8 12.17 L3.8 12.81 Z" class="st1"/>
			</g>
		</g>
	</g>
</svg>
