<?xml version="1.0" encoding="UTF-8" standalone="no"?>
<!DOCTYPE svg PUBLIC "-//W3C//DTD SVG 1.1//EN" "http://www.w3.org/Graphics/SVG/1.1/DTD/svg11.dtd">
<!-- Generated by Microsoft Visio, SVG Export 024_ASCTasks_ScaleSet.svg Page-1 -->
<svg xmlns="http://www.w3.org/2000/svg" xmlns:xlink="http://www.w3.org/1999/xlink" xmlns:ev="http://www.w3.org/2001/xml-events"
		xmlns:v="http://schemas.microsoft.com/visio/2003/SVGExtensions/" width="0.217725in" height="0.217757in"
		viewBox="0 0 15.6762 15.6785" xml:space="preserve" color-interpolation-filters="sRGB" class="st9">
	<v:documentProperties v:langID="3082" v:metric="true" v:viewMarkup="false"/>

	<style type="text/css">
	<![CDATA[
		.st1 {fill:#a0a1a2;stroke:none;stroke-linecap:butt;stroke-width:0.75}
		.st2 {fill:#ffffff;fill-opacity:0.2;stroke:none;stroke-linecap:butt;stroke-width:0.75}
		.st3 {fill:#59b4d9;stroke:none;stroke-linecap:butt;stroke-width:0.75}
		.st4 {fill:#b8d432;stroke:none;stroke-linecap:butt;stroke-width:0.75}
		.st5 {fill:#ffffff;stroke:none;stroke-linecap:butt;stroke-width:0.75}
		.st6 {fill:#7a7a7a;stroke:none;stroke-linecap:butt;stroke-width:0.75}
		.st7 {fill:#ffffff;fill-opacity:0.7;stroke:none;stroke-linecap:butt;stroke-width:0.75}
		.st8 {fill:#ffffff;fill-opacity:0.4;stroke:none;stroke-linecap:butt;stroke-width:0.75}
		.st9 {fill:none;fill-rule:evenodd;font-size:12px;overflow:visible;stroke-linecap:square;stroke-miterlimit:3}
	]]>
	</style>

	<g v:mID="0" v:index="1" v:groupContext="foregroundPage">
		<title>Page-1</title>
		<v:pageProperties v:drawingScale="1" v:pageScale="1" v:drawingUnits="19" v:shadowOffsetX="9" v:shadowOffsetY="-9"/>
		<g id="group1-1" transform="translate(0.75,-0.75)" v:mID="1" v:groupContext="group">
			<title>Sheet.1</title>
			<g id="shape2-2" v:mID="2" v:groupContext="shape" transform="translate(0.000283465,-6.3085)">
				<title>Sheet.2</title>
				<path d="M10.13 7.81 L0.59 7.81 C0.26 7.81 0 8.1 0 8.43 L0 15.07 C0 15.39 0.26 15.68 0.59 15.68 L10.13 15.68 C10.45
							 15.68 10.78 15.39 10.78 15.07 L10.78 8.43 C10.78 8.1 10.45 7.81 10.13 7.81 Z" class="st1"/>
			</g>
			<g id="shape3-4" v:mID="3" v:groupContext="shape" transform="translate(1.4988E-14,-6.3085)">
				<title>Sheet.3</title>
				<path d="M10.13 7.81 C10.13 7.81 10.13 7.81 10.13 7.81 L0.59 7.81 C0.26 7.81 0 8.1 0 8.43 L0 15.07 C0 15.39 0.26
							 15.68 0.59 15.68 L0.81 15.68 L10.13 7.81 Z" class="st2"/>
			</g>
			<g id="shape4-6" v:mID="4" v:groupContext="shape" transform="translate(0.816945,-7.13679)">
				<title>Sheet.4</title>
				<path d="M9.14 15.68 L0 15.68 L0 9.47 L9.14 9.46 L9.14 15.68 Z" class="st3"/>
			</g>
			<g id="shape5-8" v:mID="5" v:groupContext="shape" transform="translate(5.19449,-13.5694)">
				<title>Sheet.5</title>
				<path d="M0.31 15.53 C0.31 15.61 0.24 15.68 0.15 15.68 C0.07 15.68 0 15.61 0 15.53 C0 15.44 0.07 15.37 0.15 15.37
							 C0.24 15.37 0.31 15.44 0.31 15.53 Z" class="st4"/>
			</g>
			<g id="shape6-10" v:mID="6" v:groupContext="shape" transform="translate(3.55124,-10.4289)">
				<title>Sheet.6</title>
				<path d="M1.96 15.68 C1.95 15.68 1.94 15.68 1.93 15.67 L0.03 14.58 C0.01 14.57 0 14.55 0 14.53 C0 14.51 0.01 14.49
							 0.03 14.48 L1.91 13.39 C1.93 13.38 1.95 13.38 1.97 13.39 L3.87 14.49 C3.89 14.5 3.9 14.51 3.9 14.53
							 C3.9 14.56 3.89 14.57 3.87 14.58 L1.98 15.67 C1.97 15.68 1.97 15.68 1.96 15.68 Z" class="st5"/>
			</g>
			<g id="shape7-12" v:mID="7" v:groupContext="shape" transform="translate(1.68633,-4.19499)">
				<title>Sheet.7</title>
				<path d="M10.13 7.81 L0.59 7.81 C0.26 7.81 0 8.1 0 8.43 L0 15.07 C0 15.39 0.26 15.68 0.59 15.68 L10.13 15.68 C10.45
							 15.68 10.78 15.39 10.78 15.07 L10.78 8.43 C10.78 8.1 10.45 7.81 10.13 7.81 Z" class="st1"/>
			</g>
			<g id="shape8-14" v:mID="8" v:groupContext="shape" transform="translate(1.68633,-4.19528)">
				<title>Sheet.8</title>
				<path d="M10.13 7.81 C10.13 7.81 10.13 7.81 10.13 7.81 L0.59 7.81 C0.26 7.81 0 8.1 0 8.43 L0 15.07 C0 15.39 0.26
							 15.68 0.59 15.68 L0.81 15.68 L10.13 7.81 Z" class="st2"/>
			</g>
			<g id="shape9-16" v:mID="9" v:groupContext="shape" transform="translate(2.50299,-5.02328)">
				<title>Sheet.9</title>
				<path d="M9.14 15.68 L0 15.68 L0 9.47 L9.14 9.46 L9.14 15.68 Z" class="st3"/>
			</g>
			<g id="shape10-18" v:mID="10" v:groupContext="shape" transform="translate(6.88054,-11.4559)">
				<title>Sheet.10</title>
				<path d="M0.31 15.53 C0.31 15.61 0.24 15.68 0.15 15.68 C0.07 15.68 0 15.61 0 15.53 C0 15.44 0.07 15.37 0.15 15.37
							 C0.24 15.37 0.31 15.44 0.31 15.53 Z" class="st4"/>
			</g>
			<g id="shape11-20" v:mID="11" v:groupContext="shape" transform="translate(5.23757,-8.31572)">
				<title>Sheet.11</title>
				<path d="M1.96 15.68 C1.95 15.68 1.94 15.68 1.93 15.67 L0.03 14.58 C0.01 14.57 0 14.55 0 14.53 C0 14.51 0.01 14.49
							 0.03 14.48 L1.91 13.39 C1.93 13.38 1.95 13.38 1.97 13.39 L3.87 14.49 C3.89 14.5 3.9 14.51 3.9 14.53
							 C3.9 14.56 3.89 14.57 3.87 14.58 L1.98 15.67 C1.97 15.68 1.97 15.68 1.96 15.68 Z" class="st5"/>
			</g>
			<g id="shape12-22" v:mID="12" v:groupContext="shape" transform="translate(5.2611,-3.55271E-15)">
				<title>Sheet.12</title>
				<path d="M5.12 13.61 L4.87 13.61 L2.33 13.61 L2.19 13.61 C2.55 14.85 2.07 15.03 0 15.03 L0 15.68 L2.64 15.68 L4.56
							 15.68 L7.05 15.68 L7.05 15.03 C4.97 15.03 4.77 14.85 5.12 13.61 Z" class="st6"/>
			</g>
			<g id="shape13-24" v:mID="13" v:groupContext="shape" transform="translate(3.39619,-2.06929)">
				<title>Sheet.13</title>
				<path d="M10.13 7.81 L0.59 7.81 C0.26 7.81 0 8.1 0 8.43 L0 15.07 C0 15.39 0.26 15.68 0.59 15.68 L10.13 15.68 C10.45
							 15.68 10.78 15.39 10.78 15.07 L10.78 8.43 C10.78 8.1 10.45 7.81 10.13 7.81 Z" class="st1"/>
			</g>
			<g id="shape14-26" v:mID="14" v:groupContext="shape" transform="translate(3.39591,-2.06929)">
				<title>Sheet.14</title>
				<path d="M10.13 7.81 C10.13 7.81 10.13 7.81 10.13 7.81 L0.59 7.81 C0.26 7.81 0 8.1 0 8.43 L0 15.07 C0 15.39 0.26
							 15.68 0.59 15.68 L0.81 15.68 L10.13 7.81 Z" class="st2"/>
			</g>
			<g id="shape15-28" v:mID="15" v:groupContext="shape" transform="translate(4.21285,-2.89729)">
				<title>Sheet.15</title>
				<path d="M9.14 15.68 L0 15.68 L0 9.47 L9.14 9.46 L9.14 15.68 Z" class="st3"/>
			</g>
			<g id="shape16-30" v:mID="16" v:groupContext="shape" transform="translate(5.26139,-0.000732)">
				<title>Sheet.16</title>
				<rect x="0" y="15.0282" width="7.04636" height="0.650268" class="st1"/>
			</g>
			<g id="shape17-32" v:mID="17" v:groupContext="shape" transform="translate(8.59039,-9.33024)">
				<title>Sheet.17</title>
				<path d="M0.31 15.53 C0.31 15.61 0.24 15.68 0.15 15.68 C0.07 15.68 0 15.61 0 15.53 C0 15.44 0.07 15.37 0.15 15.37
							 C0.24 15.37 0.31 15.44 0.31 15.53 Z" class="st4"/>
			</g>
			<g id="shape18-34" v:mID="18" v:groupContext="shape" transform="translate(6.94715,-6.18973)">
				<title>Sheet.18</title>
				<path d="M1.96 15.68 C1.95 15.68 1.94 15.68 1.93 15.67 L0.03 14.58 C0.01 14.57 0 14.55 0 14.53 C0 14.51 0.01 14.49
							 0.03 14.48 L1.91 13.39 C1.93 13.38 1.95 13.38 1.97 13.39 L3.87 14.49 C3.89 14.5 3.9 14.51 3.9 14.53
							 C3.9 14.56 3.89 14.57 3.87 14.58 L1.98 15.67 C1.97 15.68 1.97 15.68 1.96 15.68 Z" class="st5"/>
			</g>
			<g id="shape19-36" v:mID="19" v:groupContext="shape" transform="translate(6.67899,-3.53083)">
				<title>Sheet.19</title>
				<path d="M1.95 15.68 C1.94 15.68 1.93 15.68 1.92 15.67 L0.03 14.58 C0.01 14.57 0 14.55 0 14.53 L0 12.34 C0 12.32
							 0.01 12.3 0.03 12.29 C0.05 12.28 0.07 12.28 0.09 12.29 L1.98 13.38 C2 13.39 2.01 13.41 2.01 13.43 L2.01
							 15.62 C2.01 15.64 2 15.66 1.98 15.67 C1.97 15.68 1.96 15.68 1.95 15.68 Z" class="st7"/>
			</g>
			<g id="shape20-38" v:mID="20" v:groupContext="shape" transform="translate(9.10772,-3.53083)">
				<title>Sheet.20</title>
				<path d="M0.06 15.68 C0.05 15.68 0.04 15.68 0.03 15.67 C0.01 15.66 0 15.64 0 15.62 L0 13.45 C0 13.43 0.01 13.41 0.03
							 13.4 L1.92 12.31 C1.94 12.3 1.96 12.3 1.98 12.31 C1.99 12.32 2.01 12.34 2.01 12.36 L2.01 14.53 C2.01
							 14.55 1.99 14.57 1.98 14.58 L0.09 15.67 C0.08 15.68 0.07 15.68 0.06 15.68 Z" class="st8"/>
			</g>
		</g>
	</g>
</svg>
