<?xml version="1.0" encoding="UTF-8" standalone="no"?>
<!DOCTYPE svg PUBLIC "-//W3C//DTD SVG 1.1//EN" "http://www.w3.org/Graphics/SVG/1.1/DTD/svg11.dtd">
<!-- Generated by Microsoft Visio, SVG Export 024_ASCTasks_ScaleSet.svg Page-1 -->
<svg xmlns="http://www.w3.org/2000/svg" xmlns:xlink="http://www.w3.org/1999/xlink" xmlns:ev="http://www.w3.org/2001/xml-events"
		xmlns:v="http://schemas.microsoft.com/visio/2003/SVGExtensions/" width="8.26772in" height="11.6929in"
		viewBox="0 0 595.276 841.889" xml:space="preserve" color-interpolation-filters="sRGB" class="st9">
	<v:documentProperties v:langID="3082">
		<v:userDefs>
			<v:ud v:nameU="msvNoAutoConnect" v:val="VT0(1):26"/>
		</v:userDefs>
	</v:documentProperties>

	<style type="text/css">
	<![CDATA[
		.st1 {fill:#a0a1a2;stroke:none;stroke-linecap:butt;stroke-width:0.75}
		.st2 {fill:#ffffff;fill-opacity:0.2;stroke:none;stroke-linecap:butt;stroke-width:0.75}
		.st3 {fill:#59b4d9;stroke:none;stroke-linecap:butt;stroke-width:0.75}
		.st4 {fill:#b8d432;stroke:none;stroke-linecap:butt;stroke-width:0.75}
		.st5 {fill:#ffffff;stroke:none;stroke-linecap:butt;stroke-width:0.75}
		.st6 {fill:#7a7a7a;stroke:none;stroke-linecap:butt;stroke-width:0.75}
		.st7 {fill:#ffffff;fill-opacity:0.7;stroke:none;stroke-linecap:butt;stroke-width:0.75}
		.st8 {fill:#ffffff;fill-opacity:0.4;stroke:none;stroke-linecap:butt;stroke-width:0.75}
		.st9 {fill:none;fill-rule:evenodd;font-size:12px;overflow:visible;stroke-linecap:square;stroke-miterlimit:3}
	]]>
	</style>

	<g v:mID="0" v:index="1" v:groupContext="foregroundPage">
		<title>Page-1</title>
		<v:pageProperties v:drawingScale="0.0393701" v:pageScale="0.0393701" v:drawingUnits="24" v:shadowOffsetX="9"
				v:shadowOffsetY="-9"/>
		<g id="group102-1" transform="translate(-2.79776E-14,-827.717)" v:mID="102" v:groupContext="group">
			<title>Sheet.102</title>
			<g id="shape103-2" v:mID="103" v:groupContext="shape" transform="translate(0.000283465,-6.3085)">
				<title>Sheet.103</title>
				<path d="M10.13 834.02 L0.59 834.02 C0.26 834.02 0 834.31 0 834.64 L0 841.28 C0 841.6 0.26 841.89 0.59 841.89 L10.13
							 841.89 C10.45 841.89 10.78 841.6 10.78 841.28 L10.78 834.64 C10.78 834.31 10.45 834.02 10.13 834.02
							 Z" class="st1"/>
			</g>
			<g id="shape104-4" v:mID="104" v:groupContext="shape" transform="translate(0,-6.3085)">
				<title>Sheet.104</title>
				<path d="M10.13 834.02 C10.13 834.02 10.13 834.02 10.13 834.02 L0.59 834.02 C0.26 834.02 0 834.31 0 834.64 L0 841.28
							 C0 841.6 0.26 841.89 0.59 841.89 L0.81 841.89 L10.13 834.02 Z" class="st2"/>
			</g>
			<g id="shape105-6" v:mID="105" v:groupContext="shape" transform="translate(0.816945,-7.13679)">
				<title>Sheet.105</title>
				<path d="M9.14 841.89 L0 841.89 L0 835.68 L9.14 835.67 L9.14 841.89 Z" class="st3"/>
			</g>
			<g id="shape106-8" v:mID="106" v:groupContext="shape" transform="translate(5.19449,-13.5694)">
				<title>Sheet.106</title>
				<path d="M0.31 841.74 C0.31 841.82 0.24 841.89 0.15 841.89 C0.07 841.89 0 841.82 0 841.74 C0 841.65 0.07 841.58 0.15
							 841.58 C0.24 841.58 0.31 841.65 0.31 841.74 Z" class="st4"/>
			</g>
			<g id="shape107-10" v:mID="107" v:groupContext="shape" transform="translate(3.55124,-10.4289)">
				<title>Sheet.107</title>
				<path d="M1.96 841.89 C1.95 841.89 1.94 841.89 1.93 841.88 L0.03 840.79 C0.01 840.78 0 840.76 0 840.74 C0 840.72
							 0.01 840.7 0.03 840.69 L1.91 839.6 C1.93 839.59 1.95 839.59 1.97 839.6 L3.87 840.7 C3.89 840.71 3.9
							 840.72 3.9 840.74 C3.9 840.77 3.89 840.78 3.87 840.79 L1.98 841.88 C1.97 841.89 1.97 841.89 1.96 841.89
							 Z" class="st5"/>
			</g>
			<g id="shape108-12" v:mID="108" v:groupContext="shape" transform="translate(1.68633,-4.19499)">
				<title>Sheet.108</title>
				<path d="M10.13 834.02 L0.59 834.02 C0.26 834.02 0 834.31 0 834.64 L0 841.28 C0 841.6 0.26 841.89 0.59 841.89 L10.13
							 841.89 C10.45 841.89 10.78 841.6 10.78 841.28 L10.78 834.64 C10.78 834.31 10.45 834.02 10.13 834.02
							 Z" class="st1"/>
			</g>
			<g id="shape109-14" v:mID="109" v:groupContext="shape" transform="translate(1.68633,-4.19528)">
				<title>Sheet.109</title>
				<path d="M10.13 834.02 C10.13 834.02 10.13 834.02 10.13 834.02 L0.59 834.02 C0.26 834.02 0 834.31 0 834.64 L0 841.28
							 C0 841.6 0.26 841.89 0.59 841.89 L0.81 841.89 L10.13 834.02 Z" class="st2"/>
			</g>
			<g id="shape110-16" v:mID="110" v:groupContext="shape" transform="translate(2.50299,-5.02328)">
				<title>Sheet.110</title>
				<path d="M9.14 841.89 L0 841.89 L0 835.68 L9.14 835.67 L9.14 841.89 Z" class="st3"/>
			</g>
			<g id="shape111-18" v:mID="111" v:groupContext="shape" transform="translate(6.88054,-11.4559)">
				<title>Sheet.111</title>
				<path d="M0.31 841.74 C0.31 841.82 0.24 841.89 0.15 841.89 C0.07 841.89 0 841.82 0 841.74 C0 841.65 0.07 841.58 0.15
							 841.58 C0.24 841.58 0.31 841.65 0.31 841.74 Z" class="st4"/>
			</g>
			<g id="shape112-20" v:mID="112" v:groupContext="shape" transform="translate(5.23757,-8.31572)">
				<title>Sheet.112</title>
				<path d="M1.96 841.89 C1.95 841.89 1.94 841.89 1.93 841.88 L0.03 840.79 C0.01 840.78 0 840.76 0 840.74 C0 840.72
							 0.01 840.7 0.03 840.69 L1.91 839.6 C1.93 839.59 1.95 839.59 1.97 839.6 L3.87 840.7 C3.89 840.71 3.9
							 840.72 3.9 840.74 C3.9 840.77 3.89 840.78 3.87 840.79 L1.98 841.88 C1.97 841.89 1.97 841.89 1.96 841.89
							 Z" class="st5"/>
			</g>
			<g id="shape113-22" v:mID="113" v:groupContext="shape" transform="translate(5.2611,1.13687E-13)">
				<title>Sheet.113</title>
				<path d="M5.12 839.82 L4.87 839.82 L2.33 839.82 L2.19 839.82 C2.55 841.06 2.07 841.24 0 841.24 L0 841.89 L2.64 841.89
							 L4.56 841.89 L7.05 841.89 L7.05 841.24 C4.97 841.24 4.77 841.06 5.12 839.82 Z" class="st6"/>
			</g>
			<g id="shape114-24" v:mID="114" v:groupContext="shape" transform="translate(3.39619,-2.06929)">
				<title>Sheet.114</title>
				<path d="M10.13 834.02 L0.59 834.02 C0.26 834.02 0 834.31 0 834.64 L0 841.28 C0 841.6 0.26 841.89 0.59 841.89 L10.13
							 841.89 C10.45 841.89 10.78 841.6 10.78 841.28 L10.78 834.64 C10.78 834.31 10.45 834.02 10.13 834.02
							 Z" class="st1"/>
			</g>
			<g id="shape115-26" v:mID="115" v:groupContext="shape" transform="translate(3.39591,-2.06929)">
				<title>Sheet.115</title>
				<path d="M10.13 834.02 C10.13 834.02 10.13 834.02 10.13 834.02 L0.59 834.02 C0.26 834.02 0 834.31 0 834.64 L0 841.28
							 C0 841.6 0.26 841.89 0.59 841.89 L0.81 841.89 L10.13 834.02 Z" class="st2"/>
			</g>
			<g id="shape116-28" v:mID="116" v:groupContext="shape" transform="translate(4.21285,-2.89729)">
				<title>Sheet.116</title>
				<path d="M9.14 841.89 L0 841.89 L0 835.68 L9.14 835.67 L9.14 841.89 Z" class="st3"/>
			</g>
			<g id="shape117-30" v:mID="117" v:groupContext="shape" transform="translate(5.26139,1.13687E-13)">
				<title>Sheet.117</title>
				<rect x="0" y="841.239" width="7.04636" height="0.650268" class="st1"/>
			</g>
			<g id="shape118-32" v:mID="118" v:groupContext="shape" transform="translate(8.59039,-9.33024)">
				<title>Sheet.118</title>
				<path d="M0.31 841.74 C0.31 841.82 0.24 841.89 0.15 841.89 C0.07 841.89 0 841.82 0 841.74 C0 841.65 0.07 841.58 0.15
							 841.58 C0.24 841.58 0.31 841.65 0.31 841.74 Z" class="st4"/>
			</g>
			<g id="shape119-34" v:mID="119" v:groupContext="shape" transform="translate(6.94715,-6.18973)">
				<title>Sheet.119</title>
				<path d="M1.96 841.89 C1.95 841.89 1.94 841.89 1.93 841.88 L0.03 840.79 C0.01 840.78 0 840.76 0 840.74 C0 840.72
							 0.01 840.7 0.03 840.69 L1.91 839.6 C1.93 839.59 1.95 839.59 1.97 839.6 L3.87 840.7 C3.89 840.71 3.9
							 840.72 3.9 840.74 C3.9 840.77 3.89 840.78 3.87 840.79 L1.98 841.88 C1.97 841.89 1.97 841.89 1.96 841.89
							 Z" class="st5"/>
			</g>
			<g id="shape120-36" v:mID="120" v:groupContext="shape" transform="translate(6.67899,-3.53083)">
				<title>Sheet.120</title>
				<path d="M1.95 841.89 C1.94 841.89 1.93 841.89 1.92 841.88 L0.03 840.79 C0.01 840.78 0 840.76 0 840.74 L0 838.55
							 C0 838.53 0.01 838.51 0.03 838.5 C0.05 838.49 0.07 838.49 0.09 838.5 L1.98 839.59 C2 839.6 2.01 839.62
							 2.01 839.64 L2.01 841.83 C2.01 841.85 2 841.87 1.98 841.88 C1.97 841.89 1.96 841.89 1.95 841.89 Z"
						class="st7"/>
			</g>
			<g id="shape121-38" v:mID="121" v:groupContext="shape" transform="translate(9.10772,-3.53083)">
				<title>Sheet.121</title>
				<path d="M0.06 841.89 C0.05 841.89 0.04 841.89 0.03 841.88 C0.01 841.87 0 841.85 0 841.83 L0 839.66 C0 839.64 0.01
							 839.62 0.03 839.61 L1.92 838.52 C1.94 838.51 1.96 838.51 1.98 838.52 C1.99 838.53 2.01 838.55 2.01 838.57
							 L2.01 840.74 C2.01 840.76 1.99 840.78 1.98 840.79 L0.09 841.88 C0.08 841.89 0.07 841.89 0.06 841.89
							 Z" class="st8"/>
			</g>
		</g>
	</g>
</svg>
