<?xml version="1.0" encoding="UTF-8" standalone="no"?>
<!DOCTYPE svg PUBLIC "-//W3C//DTD SVG 1.1//EN" "http://www.w3.org/Graphics/SVG/1.1/DTD/svg11.dtd">
<!-- Generated by Microsoft Visio, SVG Export 025_ASCTasks_Assestment.svg Page-1 -->
<svg xmlns="http://www.w3.org/2000/svg" xmlns:xlink="http://www.w3.org/1999/xlink" xmlns:ev="http://www.w3.org/2001/xml-events"
		xmlns:v="http://schemas.microsoft.com/visio/2003/SVGExtensions/" width="0.185278in" height="0.190833in"
		viewBox="0 0 13.34 13.74" xml:space="preserve" color-interpolation-filters="sRGB" class="st3">
	<v:documentProperties v:langID="3082" v:metric="true" v:viewMarkup="false"/>

	<style type="text/css">
	<![CDATA[
		.st1 {fill:#ffffff;stroke:none;stroke-width:1}
		.st2 {fill:#595959;stroke:none;stroke-width:1}
		.st3 {fill:none;fill-rule:evenodd;font-size:12px;overflow:visible;stroke-linecap:square;stroke-miterlimit:3}
	]]>
	</style>

	<g v:mID="0" v:index="1" v:groupContext="foregroundPage">
		<title>Page-1</title>
		<v:pageProperties v:drawingScale="1" v:pageScale="1" v:drawingUnits="19" v:shadowOffsetX="9" v:shadowOffsetY="-9"/>
		<g id="group21-1" transform="translate(1,-1)" v:mID="21" v:groupContext="group">
			<title>Malware Assessment</title>
			<g id="group22-2" v:mID="22" v:groupContext="group">
				<title>Sheet.22</title>
				<g id="shape23-3" v:mID="23" v:groupContext="shape">
					<title>Sheet.23</title>
					<path d="M5.67 13.74 L5.58 13.71 C5.36 13.63 0 11.7 0 4.5 C0 4.1 0.11 3.59 0.48 3.36 C0.65 3.25 0.91 3.17 1.28
								 3.34 C3.17 4.16 3.83 3.45 4.48 2.77 C4.82 2.4 5.16 2.06 5.64 2 L5.67 2 L5.7 2 C6.18 2.06 6.52 2.4
								 6.86 2.77 C7.51 3.45 8.19 4.16 10.06 3.34 C10.43 3.17 10.69 3.25 10.86 3.36 C11.23 3.59 11.34 4.1
								 11.34 4.5 C11.34 11.73 5.98 13.65 5.75 13.71 L5.67 13.74 Z" class="st1"/>
				</g>
				<g id="shape24-5" v:mID="24" v:groupContext="shape" transform="translate(0.283465,-0.283465)">
					<title>Sheet.24</title>
					<path d="M9.89 3.87 C6.8 5.23 6.52 2.68 5.39 2.57 C4.22 2.68 3.97 5.23 0.88 3.87 C0.26 3.59 0 4.27 0 4.78 C0
								 11.53 4.73 13.51 5.39 13.74 C6.04 13.51 10.77 11.53 10.77 4.78 C10.77 4.27 10.54 3.59 9.89 3.87
								 ZM7.94 9.57 L7.17 10.34 L5.39 8.55 L3.6 10.34 L2.83 9.57 L4.62 7.79 L2.83 6 L3.6 5.23 L5.39 7.02
								 L7.17 5.23 L7.94 6 L6.15 7.79 L7.94 9.57 Z" class="st2"/>
				</g>
			</g>
		</g>
	</g>
</svg>
