<?xml version="1.0" encoding="UTF-8" standalone="no"?>
<!DOCTYPE svg PUBLIC "-//W3C//DTD SVG 1.1//EN" "http://www.w3.org/Graphics/SVG/1.1/DTD/svg11.dtd">
<!-- Generated by Microsoft Visio, SVG Export 025_ASCTasks_Assestment.svg Page-1 -->
<svg xmlns="http://www.w3.org/2000/svg" xmlns:xlink="http://www.w3.org/1999/xlink" xmlns:ev="http://www.w3.org/2001/xml-events"
		xmlns:v="http://schemas.microsoft.com/visio/2003/SVGExtensions/" width="0.262153in" height="0.27042in"
		viewBox="0 0 18.875 19.4702" xml:space="preserve" color-interpolation-filters="sRGB" class="st3">
	<v:documentProperties v:langID="3082" v:metric="true" v:viewMarkup="false"/>

	<style type="text/css">
	<![CDATA[
		.st1 {fill:#ffffff;stroke:none;stroke-width:0.999998}
		.st2 {fill:#595959;stroke:none;stroke-width:0.999998}
		.st3 {fill:none;fill-rule:evenodd;font-size:12px;overflow:visible;stroke-linecap:square;stroke-miterlimit:3}
	]]>
	</style>

	<g v:mID="0" v:index="1" v:groupContext="foregroundPage">
		<title>Page-1</title>
		<v:pageProperties v:drawingScale="1" v:pageScale="1" v:drawingUnits="19" v:shadowOffsetX="8.99998"
				v:shadowOffsetY="-8.99998"/>
		<g id="group51-1" transform="translate(0.999998,-0.999998)" v:mID="51" v:groupContext="group">
			<title>Malware Assessment</title>
			<g id="group52-2" v:mID="52" v:groupContext="group">
				<title>Sheet.52</title>
				<g id="shape53-3" v:mID="53" v:groupContext="shape">
					<title>Sheet.53</title>
					<path d="M8.44 19.47 L8.3 19.43 C7.98 19.31 0 16.43 0 5.72 C0 5.12 0.16 4.37 0.71 4.02 C0.97 3.86 1.35 3.74 1.9
								 3.99 C4.72 5.21 5.7 4.16 6.67 3.15 C7.17 2.6 7.68 2.09 8.39 2 L8.44 2 L8.48 2 C9.2 2.09 9.7 2.6
								 10.21 3.15 C11.18 4.16 12.19 5.21 14.97 3.99 C15.52 3.74 15.91 3.86 16.16 4.02 C16.71 4.37 16.87
								 5.12 16.87 5.72 C16.87 16.48 8.9 19.34 8.56 19.43 L8.44 19.47 Z" class="st1"/>
				</g>
				<g id="shape54-5" v:mID="54" v:groupContext="shape" transform="translate(0.421823,-0.421823)">
					<title>Sheet.54</title>
					<path d="M14.72 4.78 C10.12 6.81 9.7 3.01 8.02 2.85 C6.28 3.01 5.91 6.81 1.31 4.78 C0.39 4.37 0 5.38 0 6.14 C0
								 16.18 7.04 19.13 8.02 19.47 C8.99 19.13 16.03 16.18 16.03 6.14 C16.03 5.38 15.68 4.37 14.72 4.78
								 ZM11.82 13.26 L10.67 14.41 L8.02 11.75 L5.36 14.41 L4.21 13.26 L6.87 10.62 L4.21 7.95 L5.36 6.81
								 L8.02 9.47 L10.67 6.81 L11.82 7.95 L9.15 10.62 L11.82 13.26 Z" class="st2"/>
				</g>
			</g>
		</g>
	</g>
</svg>
