<?xml version="1.0" encoding="UTF-8" standalone="no"?>
<!DOCTYPE svg PUBLIC "-//W3C//DTD SVG 1.1//EN" "http://www.w3.org/Graphics/SVG/1.1/DTD/svg11.dtd">
<!-- Generated by Microsoft Visio, SVG Export 025_ASCTasks_Assestment.svg Page-1 -->
<svg xmlns="http://www.w3.org/2000/svg" xmlns:xlink="http://www.w3.org/1999/xlink" xmlns:ev="http://www.w3.org/2001/xml-events"
		xmlns:v="http://schemas.microsoft.com/visio/2003/SVGExtensions/" width="8.26772in" height="11.6929in"
		viewBox="0 0 595.276 841.889" xml:space="preserve" color-interpolation-filters="sRGB" class="st3">
	<v:documentProperties v:langID="3082">
		<v:userDefs>
			<v:ud v:nameU="msvNoAutoConnect" v:val="VT0(1):26"/>
		</v:userDefs>
	</v:documentProperties>

	<style type="text/css">
	<![CDATA[
		.st1 {fill:#ffffff}
		.st2 {fill:#595959}
		.st3 {fill:none;fill-rule:evenodd;font-size:12px;overflow:visible;stroke-linecap:square;stroke-miterlimit:3}
	]]>
	</style>

	<g v:mID="0" v:index="1" v:groupContext="foregroundPage">
		<title>Page-1</title>
		<v:pageProperties v:drawingScale="0.0393701" v:pageScale="0.0393701" v:drawingUnits="24" v:shadowOffsetX="9"
				v:shadowOffsetY="-9"/>
		<g id="group122-1" transform="translate(1.9984E-15,-830.154)" v:mID="122" v:groupContext="group">
			<title>Malware Assessment</title>
			<g id="group123-2" v:mID="123" v:groupContext="group">
				<title>Sheet.123</title>
				<g id="shape124-3" v:mID="124" v:groupContext="shape">
					<title>Sheet.124</title>
					<path d="M5.67 841.89 L5.58 841.86 C5.36 841.78 0 839.85 0 832.65 C0 832.25 0.11 831.74 0.48 831.51 C0.65 831.4
								 0.91 831.32 1.28 831.49 C3.17 832.31 3.83 831.6 4.48 830.92 C4.82 830.55 5.16 830.21 5.64 830.15
								 L5.67 830.15 L5.7 830.15 C6.18 830.21 6.52 830.55 6.86 830.92 C7.51 831.6 8.19 832.31 10.06 831.49
								 C10.43 831.32 10.69 831.4 10.86 831.51 C11.23 831.74 11.34 832.25 11.34 832.65 C11.34 839.88 5.98
								 841.8 5.75 841.86 L5.67 841.89 Z" class="st1"/>
				</g>
				<g id="shape125-6" v:mID="125" v:groupContext="shape" transform="translate(0.283465,-0.283465)">
					<title>Sheet.125</title>
					<path d="M9.89 832.02 C6.8 833.38 6.52 830.83 5.39 830.72 C4.22 830.83 3.97 833.38 0.88 832.02 C0.26 831.74 0
								 832.42 0 832.93 C0 839.68 4.73 841.66 5.39 841.89 C6.04 841.66 10.77 839.68 10.77 832.93 C10.77
								 832.42 10.54 831.74 9.89 832.02 ZM7.94 837.72 L7.17 838.49 L5.39 836.7 L3.6 838.49 L2.83 837.72
								 L4.62 835.94 L2.83 834.15 L3.6 833.38 L5.39 835.17 L7.17 833.38 L7.94 834.15 L6.15 835.94 L7.94
								 837.72 Z" class="st2"/>
				</g>
			</g>
		</g>
	</g>
</svg>
