<?xml version="1.0" encoding="UTF-8" standalone="no"?>
<!DOCTYPE svg PUBLIC "-//W3C//DTD SVG 1.1//EN" "http://www.w3.org/Graphics/SVG/1.1/DTD/svg11.dtd">
<!-- Generated by Microsoft Visio, SVG Export 025_ASCTasks_Assestment.svg Page-1 -->
<svg xmlns="http://www.w3.org/2000/svg" xmlns:xlink="http://www.w3.org/1999/xlink" xmlns:ev="http://www.w3.org/2001/xml-events"
		xmlns:v="http://schemas.microsoft.com/visio/2003/SVGExtensions/" width="0.856873in" height="0.856873in"
		viewBox="0 0 61.6949 61.6949" xml:space="preserve" color-interpolation-filters="sRGB" class="st3">
	<v:documentProperties v:langID="3082"/>

	<style type="text/css">
	<![CDATA[
		.st1 {fill:#ffffff;stroke:none;stroke-width:0.999998}
		.st2 {fill:#595959;stroke:none;stroke-width:0.999998}
		.st3 {fill:none;fill-rule:evenodd;font-size:12px;overflow:visible;stroke-linecap:square;stroke-miterlimit:3}
	]]>
	</style>

	<g v:mID="0" v:index="1" v:groupContext="foregroundPage">
		<title>Page-1</title>
		<v:pageProperties v:drawingScale="1" v:pageScale="1" v:drawingUnits="19" v:shadowOffsetX="8.99998"
				v:shadowOffsetY="-8.99998"/>
		<g id="group59-1" transform="translate(25.2675,-24.75)" v:mID="59" v:groupContext="group">
			<title>Sheet.59</title>
			<g id="shape60-2" v:mID="60" v:groupContext="shape">
				<title>Sheet.60</title>
				<path d="M5.67 61.69 L5.58 61.66 C5.36 61.58 0 59.65 0 52.45 C0 52.05 0.11 51.54 0.48 51.31 C0.65 51.2 0.91 51.12
							 1.28 51.29 C3.17 52.11 3.83 51.4 4.48 50.72 C4.82 50.35 5.16 50.01 5.64 49.95 L5.67 49.95 L5.7 49.95
							 C6.18 50.01 6.52 50.35 6.86 50.72 C7.51 51.4 8.19 52.11 10.06 51.29 C10.43 51.12 10.69 51.2 10.86 51.31
							 C11.23 51.54 11.34 52.05 11.34 52.45 C11.34 59.68 5.98 61.6 5.75 61.66 L5.67 61.69 Z" class="st1"/>
			</g>
			<g id="shape61-4" v:mID="61" v:groupContext="shape" transform="translate(0.283465,-0.283465)">
				<title>Sheet.61</title>
				<path d="M9.89 51.82 C6.8 53.18 6.52 50.63 5.39 50.52 C4.22 50.63 3.97 53.18 0.88 51.82 C0.26 51.54 0 52.22 0 52.73
							 C0 59.48 4.73 61.46 5.39 61.69 C6.04 61.46 10.77 59.48 10.77 52.73 C10.77 52.22 10.54 51.54 9.89 51.82
							 ZM7.94 57.52 L7.17 58.29 L5.39 56.5 L3.6 58.29 L2.83 57.52 L4.62 55.74 L2.83 53.95 L3.6 53.18 L5.39
							 54.97 L7.17 53.18 L7.94 53.95 L6.15 55.74 L7.94 57.52 Z" class="st2"/>
			</g>
		</g>
	</g>
</svg>
