<?xml version="1.0" encoding="UTF-8" standalone="no"?>
<!DOCTYPE svg PUBLIC "-//W3C//DTD SVG 1.1//EN" "http://www.w3.org/Graphics/SVG/1.1/DTD/svg11.dtd">
<!-- Generated by Microsoft Visio, SVG Export 025_ASCTasks_Assestment.svg Page-1 -->
<svg xmlns="http://www.w3.org/2000/svg" xmlns:xlink="http://www.w3.org/1999/xlink" xmlns:ev="http://www.w3.org/2001/xml-events"
		xmlns:v="http://schemas.microsoft.com/visio/2003/SVGExtensions/" width="0.856873in" height="0.856873in"
		viewBox="0 0 61.6949 61.6949" xml:space="preserve" color-interpolation-filters="sRGB" class="st3">
	<v:documentProperties v:langID="3082"/>

	<style type="text/css">
	<![CDATA[
		.st1 {fill:#ffffff;stroke:none;stroke-width:0.999998}
		.st2 {fill:#595959;stroke:none;stroke-width:0.999998}
		.st3 {fill:none;fill-rule:evenodd;font-size:12px;overflow:visible;stroke-linecap:square;stroke-miterlimit:3}
	]]>
	</style>

	<g v:mID="0" v:index="1" v:groupContext="foregroundPage">
		<title>Page-1</title>
		<v:pageProperties v:drawingScale="1" v:pageScale="1" v:drawingUnits="19" v:shadowOffsetX="8.99998"
				v:shadowOffsetY="-8.99998"/>
		<g id="group51-1" transform="translate(22.5,-21.9048)" v:mID="51" v:groupContext="group">
			<title>Malware Assessment</title>
			<g id="group52-2" transform="translate(3.9375,-3.97024)" v:mID="52" v:groupContext="group">
				<title>Sheet.52</title>
				<g id="shape53-3" v:mID="53" v:groupContext="shape">
					<title>Sheet.53</title>
					<path d="M4.78 61.69 L4.71 61.67 C4.52 61.6 0 59.97 0 53.9 C0 53.57 0.09 53.14 0.4 52.94 C0.55 52.85 0.77 52.78
								 1.08 52.93 C2.67 53.62 3.23 53.02 3.78 52.44 C4.06 52.13 4.35 51.85 4.76 51.8 L4.78 51.8 L4.81 51.8
								 C5.21 51.85 5.5 52.13 5.78 52.44 C6.33 53.02 6.91 53.62 8.48 52.93 C8.8 52.78 9.01 52.85 9.16 52.94
								 C9.47 53.14 9.56 53.57 9.56 53.9 C9.56 60 5.04 61.62 4.85 61.67 L4.78 61.69 Z" class="st1"/>
				</g>
				<g id="shape54-5" v:mID="54" v:groupContext="shape" transform="translate(0.239033,-0.239033)">
					<title>Sheet.54</title>
					<path d="M8.34 53.37 C5.73 54.52 5.5 52.37 4.55 52.28 C3.56 52.37 3.35 54.52 0.74 53.37 C0.22 53.14 0 53.71 0
								 54.14 C0 59.83 3.99 61.5 4.55 61.69 C5.09 61.5 9.08 59.83 9.08 54.14 C9.08 53.71 8.89 53.14 8.34
								 53.37 ZM6.7 58.18 L6.05 58.83 L4.55 57.32 L3.04 58.83 L2.39 58.18 L3.9 56.68 L2.39 55.17 L3.04 54.52
								 L4.55 56.03 L6.05 54.52 L6.7 55.17 L5.19 56.68 L6.7 58.18 Z" class="st2"/>
				</g>
			</g>
		</g>
	</g>
</svg>
