<?xml version="1.0" encoding="UTF-8" standalone="no"?>
<!DOCTYPE svg PUBLIC "-//W3C//DTD SVG 1.1//EN" "http://www.w3.org/Graphics/SVG/1.1/DTD/svg11.dtd">
<!-- Generated by Microsoft Visio, SVG Export 026_ASCTasks_NSG.svg Page-1 -->
<svg xmlns="http://www.w3.org/2000/svg" xmlns:xlink="http://www.w3.org/1999/xlink" xmlns:ev="http://www.w3.org/2001/xml-events"
		xmlns:v="http://schemas.microsoft.com/visio/2003/SVGExtensions/" width="0.148085in" height="0.194505in"
		viewBox="0 0 10.6622 14.0043" xml:space="preserve" color-interpolation-filters="sRGB" class="st6">
	<v:documentProperties v:langID="3082" v:metric="true" v:viewMarkup="false"/>

	<style type="text/css">
	<![CDATA[
		.st1 {fill:#3999c6;stroke:none;stroke-linecap:butt;stroke-width:0.749998}
		.st2 {fill:#59b4d9;fill-opacity:0.4;stroke:none;stroke-linecap:butt;stroke-width:0.749998}
		.st3 {fill:#ffffff;fill-opacity:0.3;stroke:none;stroke-linecap:butt;stroke-width:0.749998}
		.st4 {fill:#ffffff;fill-opacity:0.7;stroke:none;stroke-linecap:butt;stroke-width:0.749998}
		.st5 {fill:#3e3e3e;stroke:none;stroke-linecap:butt;stroke-width:0.749998}
		.st6 {fill:none;fill-rule:evenodd;font-size:12px;overflow:visible;stroke-linecap:square;stroke-miterlimit:3}
	]]>
	</style>

	<g v:mID="0" v:index="1" v:groupContext="foregroundPage">
		<title>Page-1</title>
		<v:pageProperties v:drawingScale="1" v:pageScale="1" v:drawingUnits="19" v:shadowOffsetX="8.99998"
				v:shadowOffsetY="-8.99998"/>
		<g id="group17-1" transform="translate(0.749998,-0.749998)" v:mID="17" v:groupContext="group">
			<title>Sheet.17</title>
			<g id="shape18-2" v:mID="18" v:groupContext="shape">
				<title>Sheet.18</title>
				<path d="M7.81 3.02 C5.06 2.7 4.59 1.5 4.59 1.5 C4.59 1.5 3.96 3.05 0 3.05 L0 9.47 C0 10.25 0.42 10.98 1.02 11.6
							 C2.37 13.03 4.59 14 4.59 14 C4.59 14 9.16 12 9.16 9.47 L9.16 3.05 C8.67 3.05 8.22 3.04 7.81 3.02 Z"
						class="st1"/>
			</g>
			<g id="shape19-4" v:mID="19" v:groupContext="shape" transform="translate(0,-2.40471)">
				<title>Sheet.19</title>
				<path d="M5.74 8.04 L7.81 5.42 C5.06 5.12 4.59 3.9 4.59 3.9 C4.59 3.9 3.96 5.47 0 5.47 L0 11.88 C0 12.65 0.42 13.38
							 1.02 14 L2.57 12.05 L5.74 8.04 Z" class="st2"/>
			</g>
			<g id="group20-6" transform="translate(0.926818,-1.25245)" v:mID="20" v:groupContext="group">
				<title>Sheet.20</title>
				<g id="shape21-7" v:mID="21" v:groupContext="shape" transform="translate(0.0250491,1.77636E-15)">
					<title>Sheet.21</title>
					<path d="M0 8.87 L0 10.39 C0 11.03 0.35 11.6 0.82 12.1 C1.9 13.25 3.66 14 3.66 14 L3.66 8.87 L0 8.87 Z"
							class="st3"/>
				</g>
				<g id="shape22-9" v:mID="22" v:groupContext="shape" transform="translate(3.65715,1.77636E-15)">
					<title>Sheet.22</title>
					<path d="M0 14 C0 14 3.66 12.4 3.66 10.39 L3.66 8.87 L0 8.87 L0 14 Z" class="st4"/>
				</g>
				<g id="shape23-11" v:mID="23" v:groupContext="shape" transform="translate(0,-5.13505)">
					<title>Sheet.23</title>
					<path d="M3.66 9.18 C3.66 9.18 3.15 10.42 0 10.42 L0 14 L3.66 14 L3.66 9.18 Z" class="st4"/>
				</g>
				<g id="shape24-13" v:mID="24" v:groupContext="shape" transform="translate(3.65715,-5.13505)">
					<title>Sheet.24</title>
					<path d="M2.55 10.38 C0.37 10.13 0 9.2 0 9.2 L0 14 L3.66 14 L3.66 10.42 C3.25 10.42 2.89 10.39 2.55 10.38 Z"
							class="st3"/>
				</g>
			</g>
			<g id="group25-15" transform="translate(1.25497,-5.13105)" v:mID="25" v:groupContext="group">
				<title>Sheet.25</title>
				<g id="shape26-16" v:mID="26" v:groupContext="shape" transform="translate(0,-0.0413308)">
					<title>Sheet.26</title>
					<path d="M2.09 14 L1.64 14 L0.46 12.2 C0.42 12.15 0.41 12.12 0.39 12.05 L0.37 12.05 C0.39 12.12 0.4 12.23 0.4
								 12.4 L0.4 14 L0 14 L0 11.55 L0.47 11.55 L1.61 13.32 C1.65 13.39 1.69 13.43 1.7 13.45 L1.71 13.45
								 C1.7 13.39 1.69 13.29 1.69 13.14 L1.69 11.55 L2.09 11.55 L2.09 14 Z" class="st5"/>
				</g>
				<g id="shape27-18" v:mID="27" v:groupContext="shape" transform="translate(2.57505,1.77636E-15)">
					<title>Sheet.27</title>
					<path d="M0 13.87 L0 13.45 C0.04 13.48 0.07 13.52 0.14 13.54 C0.19 13.57 0.24 13.59 0.3 13.62 C0.36 13.63 0.42
								 13.64 0.47 13.65 C0.52 13.67 0.59 13.67 0.64 13.67 C0.81 13.67 0.94 13.64 1.02 13.58 C1.1 13.52
								 1.15 13.44 1.15 13.33 C1.15 13.28 1.14 13.23 1.1 13.18 C1.07 13.14 1.04 13.1 0.99 13.07 C0.94 13.03
								 0.87 12.99 0.81 12.97 C0.75 12.93 0.66 12.89 0.59 12.85 C0.5 12.82 0.42 12.78 0.36 12.72 C0.29 12.68
								 0.22 12.63 0.17 12.58 C0.11 12.52 0.07 12.45 0.05 12.39 C0.01 12.32 0 12.24 0 12.14 C0 12.03 0.02
								 11.93 0.07 11.84 C0.12 11.75 0.2 11.69 0.29 11.64 C0.36 11.57 0.46 11.54 0.57 11.5 C0.69 11.48 0.79
								 11.47 0.91 11.47 C1.16 11.47 1.35 11.5 1.46 11.55 L1.46 11.95 C1.32 11.85 1.15 11.8 0.92 11.8 C0.87
								 11.8 0.81 11.82 0.75 11.83 C0.69 11.83 0.64 11.85 0.59 11.88 C0.54 11.9 0.5 11.94 0.47 11.98 C0.44
								 12.02 0.42 12.08 0.42 12.13 C0.42 12.18 0.44 12.24 0.46 12.28 C0.49 12.3 0.52 12.34 0.56 12.38 C0.61
								 12.42 0.66 12.44 0.72 12.48 C0.79 12.5 0.86 12.54 0.94 12.58 C1.04 12.63 1.11 12.67 1.19 12.72 C1.26
								 12.77 1.32 12.82 1.39 12.88 C1.45 12.94 1.49 13 1.52 13.08 C1.55 13.15 1.57 13.23 1.57 13.33 C1.57
								 13.45 1.55 13.55 1.5 13.65 C1.45 13.73 1.39 13.8 1.29 13.85 C1.21 13.9 1.11 13.94 1 13.97 C0.89
								 14 0.77 14 0.65 14 C0.61 14 0.56 14 0.5 14 C0.44 13.99 0.37 13.98 0.31 13.97 C0.25 13.95 0.19 13.94
								 0.14 13.93 C0.07 13.9 0.04 13.89 0 13.87 Z" class="st5"/>
				</g>
				<g id="shape28-20" v:mID="28" v:groupContext="shape" transform="translate(4.44168,-0.00050098)">
					<title>Sheet.28</title>
					<path d="M2.07 13.8 C1.81 13.94 1.54 14 1.22 14 C0.85 14 0.56 13.89 0.34 13.67 C0.11 13.44 0 13.14 0 12.77 C0
								 12.39 0.12 12.08 0.36 11.83 C0.61 11.59 0.92 11.47 1.3 11.47 C1.57 11.47 1.8 11.5 2 11.59 L2 12
								 C1.8 11.88 1.57 11.83 1.32 11.83 C1.06 11.83 0.85 11.9 0.69 12.08 C0.51 12.24 0.42 12.47 0.42 12.75
								 C0.42 13.03 0.5 13.25 0.65 13.42 C0.79 13.58 0.97 13.65 1.22 13.65 C1.4 13.65 1.55 13.62 1.67 13.55
								 L1.67 12.98 L1.15 12.98 L1.15 12.63 L2.07 12.63 C2.07 12.63 2.07 13.8 2.07 13.8 Z" class="st5"/>
				</g>
			</g>
		</g>
	</g>
</svg>
