<?xml version="1.0" encoding="UTF-8" standalone="no"?>
<!DOCTYPE svg PUBLIC "-//W3C//DTD SVG 1.1//EN" "http://www.w3.org/Graphics/SVG/1.1/DTD/svg11.dtd">
<!-- Generated by Microsoft Visio, SVG Export 026_ASCTasks_NSG.svg Page-1 -->
<svg xmlns="http://www.w3.org/2000/svg" xmlns:xlink="http://www.w3.org/1999/xlink" xmlns:ev="http://www.w3.org/2001/xml-events"
		xmlns:v="http://schemas.microsoft.com/visio/2003/SVGExtensions/" width="0.856873in" height="0.856873in"
		viewBox="0 0 61.6949 61.6949" xml:space="preserve" color-interpolation-filters="sRGB" class="st6">
	<v:documentProperties v:langID="3082"/>

	<style type="text/css">
	<![CDATA[
		.st1 {fill:#3999c6;stroke:none;stroke-linecap:butt;stroke-width:0.749998}
		.st2 {fill:#59b4d9;fill-opacity:0.4;stroke:none;stroke-linecap:butt;stroke-width:0.749998}
		.st3 {fill:#ffffff;fill-opacity:0.3;stroke:none;stroke-linecap:butt;stroke-width:0.749998}
		.st4 {fill:#ffffff;fill-opacity:0.7;stroke:none;stroke-linecap:butt;stroke-width:0.749998}
		.st5 {fill:#3e3e3e;stroke:none;stroke-linecap:butt;stroke-width:0.749998}
		.st6 {fill:none;fill-rule:evenodd;font-size:12px;overflow:visible;stroke-linecap:square;stroke-miterlimit:3}
	]]>
	</style>

	<g v:mID="0" v:index="1" v:groupContext="foregroundPage">
		<title>Page-1</title>
		<v:pageProperties v:drawingScale="1" v:pageScale="1" v:drawingUnits="19" v:shadowOffsetX="8.99998"
				v:shadowOffsetY="-8.99998"/>
		<g id="group17-1" transform="translate(26.2753,-24.1228)" v:mID="17" v:groupContext="group">
			<title>Sheet.17</title>
			<g id="shape18-2" v:mID="18" v:groupContext="shape">
				<title>Sheet.18</title>
				<path d="M7.81 50.71 C5.06 50.4 4.59 49.2 4.59 49.2 C4.59 49.2 3.96 50.75 0 50.75 L0 57.16 C0 57.94 0.42 58.67 1.02
							 59.29 C2.37 60.72 4.59 61.69 4.59 61.69 C4.59 61.69 9.16 59.69 9.16 57.16 L9.16 50.75 C8.67 50.75 8.22
							 50.73 7.81 50.71 Z" class="st1"/>
			</g>
			<g id="shape19-4" v:mID="19" v:groupContext="shape" transform="translate(0,-2.40471)">
				<title>Sheet.19</title>
				<path d="M5.74 55.73 L7.81 53.11 C5.06 52.81 4.59 51.6 4.59 51.6 C4.59 51.6 3.96 53.16 0 53.16 L0 59.57 C0 60.34
							 0.42 61.07 1.02 61.69 L2.57 59.74 L5.74 55.73 Z" class="st2"/>
			</g>
			<g id="group20-6" transform="translate(0.926818,-1.25245)" v:mID="20" v:groupContext="group">
				<title>Sheet.20</title>
				<g id="shape21-7" v:mID="21" v:groupContext="shape" transform="translate(0.0250491,0)">
					<title>Sheet.21</title>
					<path d="M0 56.56 L0 58.08 C0 58.72 0.35 59.29 0.82 59.79 C1.9 60.94 3.66 61.69 3.66 61.69 L3.66 56.56 L0 56.56
								 Z" class="st3"/>
				</g>
				<g id="shape22-9" v:mID="22" v:groupContext="shape" transform="translate(3.65715,0)">
					<title>Sheet.22</title>
					<path d="M0 61.69 C0 61.69 3.66 60.09 3.66 58.08 L3.66 56.56 L0 56.56 L0 61.69 Z" class="st4"/>
				</g>
				<g id="shape23-11" v:mID="23" v:groupContext="shape" transform="translate(0,-5.13505)">
					<title>Sheet.23</title>
					<path d="M3.66 56.87 C3.66 56.87 3.15 58.11 0 58.11 L0 61.69 L3.66 61.69 L3.66 56.87 Z" class="st4"/>
				</g>
				<g id="shape24-13" v:mID="24" v:groupContext="shape" transform="translate(3.65715,-5.13505)">
					<title>Sheet.24</title>
					<path d="M2.55 58.07 C0.37 57.82 0 56.9 0 56.9 L0 61.69 L3.66 61.69 L3.66 58.11 C3.25 58.11 2.89 58.08 2.55 58.07
								 Z" class="st3"/>
				</g>
			</g>
			<g id="group25-15" transform="translate(1.25497,-5.13105)" v:mID="25" v:groupContext="group">
				<title>Sheet.25</title>
				<g id="shape26-16" v:mID="26" v:groupContext="shape" transform="translate(0,-0.0413308)">
					<title>Sheet.26</title>
					<path d="M2.09 61.69 L1.64 61.69 L0.46 59.89 C0.42 59.84 0.41 59.81 0.39 59.74 L0.37 59.74 C0.39 59.81 0.4 59.92
								 0.4 60.09 L0.4 61.69 L0 61.69 L0 59.24 L0.47 59.24 L1.61 61.01 C1.65 61.08 1.69 61.12 1.7 61.14
								 L1.71 61.14 C1.7 61.08 1.69 60.98 1.69 60.83 L1.69 59.24 L2.09 59.24 L2.09 61.69 Z" class="st5"/>
				</g>
				<g id="shape27-18" v:mID="27" v:groupContext="shape" transform="translate(2.57505,0)">
					<title>Sheet.27</title>
					<path d="M0 61.56 L0 61.14 C0.04 61.17 0.07 61.21 0.14 61.23 C0.19 61.26 0.24 61.28 0.3 61.31 C0.36 61.32 0.42
								 61.33 0.47 61.34 C0.52 61.36 0.59 61.36 0.64 61.36 C0.81 61.36 0.94 61.33 1.02 61.27 C1.1 61.21
								 1.15 61.13 1.15 61.02 C1.15 60.97 1.14 60.92 1.1 60.87 C1.07 60.83 1.04 60.79 0.99 60.76 C0.94 60.72
								 0.87 60.68 0.81 60.66 C0.75 60.62 0.66 60.58 0.59 60.54 C0.5 60.51 0.42 60.47 0.36 60.41 C0.29 60.37
								 0.22 60.32 0.17 60.27 C0.11 60.21 0.07 60.14 0.05 60.08 C0.01 60.01 0 59.93 0 59.83 C0 59.72 0.02
								 59.62 0.07 59.53 C0.12 59.44 0.2 59.38 0.29 59.33 C0.36 59.26 0.46 59.23 0.57 59.19 C0.69 59.17
								 0.79 59.16 0.91 59.16 C1.16 59.16 1.35 59.19 1.46 59.24 L1.46 59.64 C1.32 59.54 1.15 59.49 0.92
								 59.49 C0.87 59.49 0.81 59.51 0.75 59.52 C0.69 59.52 0.64 59.54 0.59 59.57 C0.54 59.59 0.5 59.63
								 0.47 59.67 C0.44 59.71 0.42 59.77 0.42 59.82 C0.42 59.87 0.44 59.93 0.46 59.97 C0.49 59.99 0.52
								 60.03 0.56 60.07 C0.61 60.11 0.66 60.13 0.72 60.17 C0.79 60.19 0.86 60.23 0.94 60.27 C1.04 60.32
								 1.11 60.36 1.19 60.41 C1.26 60.46 1.32 60.51 1.39 60.57 C1.45 60.63 1.49 60.69 1.52 60.77 C1.55
								 60.84 1.57 60.92 1.57 61.02 C1.57 61.14 1.55 61.24 1.5 61.34 C1.45 61.42 1.39 61.49 1.29 61.54 C1.21
								 61.59 1.11 61.63 1 61.66 C0.89 61.69 0.77 61.69 0.65 61.69 C0.61 61.69 0.56 61.69 0.5 61.69 C0.44
								 61.68 0.37 61.67 0.31 61.66 C0.25 61.64 0.19 61.63 0.14 61.62 C0.07 61.59 0.04 61.58 0 61.56 Z"
							class="st5"/>
				</g>
				<g id="shape28-20" v:mID="28" v:groupContext="shape" transform="translate(4.44168,-0.00050098)">
					<title>Sheet.28</title>
					<path d="M2.07 61.49 C1.81 61.63 1.54 61.69 1.22 61.69 C0.85 61.69 0.56 61.58 0.34 61.36 C0.11 61.13 0 60.83
								 0 60.46 C0 60.08 0.12 59.77 0.36 59.52 C0.61 59.28 0.92 59.16 1.3 59.16 C1.57 59.16 1.8 59.19 2
								 59.28 L2 59.69 C1.8 59.57 1.57 59.52 1.32 59.52 C1.06 59.52 0.85 59.59 0.69 59.77 C0.51 59.93 0.42
								 60.16 0.42 60.44 C0.42 60.72 0.5 60.94 0.65 61.11 C0.79 61.27 0.97 61.34 1.22 61.34 C1.4 61.34 1.55
								 61.31 1.67 61.24 L1.67 60.67 L1.15 60.67 L1.15 60.32 L2.07 60.32 C2.07 60.32 2.07 61.49 2.07 61.49
								 Z" class="st5"/>
				</g>
			</g>
		</g>
	</g>
</svg>
