<?xml version="1.0" encoding="UTF-8" standalone="no"?>
<!DOCTYPE svg PUBLIC "-//W3C//DTD SVG 1.1//EN" "http://www.w3.org/Graphics/SVG/1.1/DTD/svg11.dtd">
<!-- Generated by Microsoft Visio, SVG Export 026_ASCTasks_NSG.svg Page-1 -->
<svg xmlns="http://www.w3.org/2000/svg" xmlns:xlink="http://www.w3.org/1999/xlink" xmlns:ev="http://www.w3.org/2001/xml-events"
		xmlns:v="http://schemas.microsoft.com/visio/2003/SVGExtensions/" width="0.122639in" height="0.159775in"
		viewBox="0 0 8.82998 11.5038" xml:space="preserve" color-interpolation-filters="sRGB" class="st6">
	<v:documentProperties v:langID="3082" v:metric="true" v:viewMarkup="false"/>

	<style type="text/css">
	<![CDATA[
		.st1 {fill:#3999c6;stroke:none;stroke-linecap:butt;stroke-width:0.749998}
		.st2 {fill:#59b4d9;fill-opacity:0.4;stroke:none;stroke-linecap:butt;stroke-width:0.749998}
		.st3 {fill:#ffffff;fill-opacity:0.3;stroke:none;stroke-linecap:butt;stroke-width:0.749998}
		.st4 {fill:#ffffff;fill-opacity:0.7;stroke:none;stroke-linecap:butt;stroke-width:0.749998}
		.st5 {fill:#3e3e3e;stroke:none;stroke-linecap:butt;stroke-width:0.749998}
		.st6 {fill:none;fill-rule:evenodd;font-size:12px;overflow:visible;stroke-linecap:square;stroke-miterlimit:3}
	]]>
	</style>

	<g v:mID="0" v:index="1" v:groupContext="foregroundPage">
		<title>Page-1</title>
		<v:pageProperties v:drawingScale="1" v:pageScale="1" v:drawingUnits="19" v:shadowOffsetX="8.99998"
				v:shadowOffsetY="-8.99998"/>
		<g id="group1-1" transform="translate(0.749998,-0.749998)" v:mID="1" v:groupContext="group">
			<title>Sheet.1</title>
			<g id="shape2-2" v:mID="2" v:groupContext="shape">
				<title>Sheet.2</title>
				<path d="M6.25 2.71 C4.05 2.46 3.67 1.5 3.67 1.5 C3.67 1.5 3.17 2.74 0 2.74 L0 7.87 C0 8.5 0.34 9.08 0.82 9.58 C1.9
							 10.72 3.67 11.5 3.67 11.5 C3.67 11.5 7.33 9.9 7.33 7.87 L7.33 2.74 C6.94 2.74 6.58 2.73 6.25 2.71 Z"
						class="st1"/>
			</g>
			<g id="shape3-4" v:mID="3" v:groupContext="shape" transform="translate(-1.94844E-14,-1.92384)">
				<title>Sheet.3</title>
				<path d="M4.59 6.73 L6.25 4.63 C4.05 4.39 3.67 3.42 3.67 3.42 C3.67 3.42 3.17 4.67 0 4.67 L0 9.8 C0 10.42 0.34 11
							 0.82 11.5 L2.06 9.94 L4.59 6.73 Z" class="st2"/>
			</g>
			<g id="group4-6" transform="translate(0.741482,-1.002)" v:mID="4" v:groupContext="group">
				<title>Sheet.4</title>
				<g id="shape5-7" v:mID="5" v:groupContext="shape" transform="translate(0.02004,-2.84217E-14)">
					<title>Sheet.5</title>
					<path d="M0 7.39 L0 8.61 C0 9.12 0.28 9.58 0.66 9.98 C1.52 10.9 2.93 11.5 2.93 11.5 L2.93 7.39 L0 7.39 Z"
							class="st3"/>
				</g>
				<g id="shape6-9" v:mID="6" v:groupContext="shape" transform="translate(2.92583,-2.84217E-14)">
					<title>Sheet.6</title>
					<path d="M0 11.5 C0 11.5 2.93 10.22 2.93 8.61 L2.93 7.39 L0 7.39 L0 11.5 Z" class="st4"/>
				</g>
				<g id="shape7-11" v:mID="7" v:groupContext="shape" transform="translate(1.07414E-14,-4.10819)">
					<title>Sheet.7</title>
					<path d="M2.93 7.64 C2.93 7.64 2.52 8.63 0 8.63 L0 11.5 L2.93 11.5 L2.93 7.64 Z" class="st4"/>
				</g>
				<g id="shape8-13" v:mID="8" v:groupContext="shape" transform="translate(2.92583,-4.10819)">
					<title>Sheet.8</title>
					<path d="M2.04 8.6 C0.3 8.4 0 7.66 0 7.66 L0 11.5 L2.93 11.5 L2.93 8.63 C2.6 8.63 2.31 8.61 2.04 8.6 Z"
							class="st3"/>
				</g>
			</g>
			<g id="group9-15" transform="translate(1.00401,-4.10499)" v:mID="9" v:groupContext="group">
				<title>Sheet.9</title>
				<g id="shape10-16" v:mID="10" v:groupContext="shape" transform="translate(2.22322E-14,-0.0330659)">
					<title>Sheet.10</title>
					<path d="M1.67 11.5 L1.31 11.5 L0.37 10.06 C0.34 10.02 0.33 9.99 0.31 9.94 L0.3 9.94 C0.31 9.99 0.32 10.08 0.32
								 10.22 L0.32 11.5 L0 11.5 L0 9.54 L0.38 9.54 L1.29 10.95 C1.32 11.01 1.35 11.04 1.36 11.06 L1.37
								 11.06 C1.36 11.01 1.35 10.93 1.35 10.81 L1.35 9.54 L1.67 9.54 L1.67 11.5 Z" class="st5"/>
				</g>
				<g id="shape11-18" v:mID="11" v:groupContext="shape" transform="translate(2.06012,-2.84217E-14)">
					<title>Sheet.11</title>
					<path d="M0 11.39 L0 11.06 C0.03 11.08 0.06 11.11 0.11 11.13 C0.15 11.15 0.19 11.17 0.24 11.19 C0.29 11.2 0.34
								 11.21 0.38 11.22 C0.42 11.23 0.47 11.23 0.51 11.23 C0.65 11.23 0.75 11.21 0.82 11.16 C0.88 11.11
								 0.92 11.05 0.92 10.96 C0.92 10.92 0.91 10.88 0.88 10.84 C0.86 10.81 0.83 10.78 0.79 10.75 C0.75
								 10.72 0.7 10.69 0.65 10.67 C0.6 10.64 0.53 10.61 0.47 10.58 C0.4 10.55 0.34 10.52 0.29 10.47 C0.23
								 10.44 0.18 10.4 0.14 10.36 C0.09 10.31 0.06 10.26 0.04 10.21 C0.01 10.15 0 10.09 0 10.01 C0 9.92
								 0.02 9.84 0.06 9.77 C0.1 9.7 0.16 9.65 0.23 9.61 C0.29 9.55 0.37 9.53 0.46 9.5 C0.55 9.48 0.63 9.47
								 0.73 9.47 C0.93 9.47 1.08 9.5 1.17 9.54 L1.17 9.86 C1.06 9.78 0.92 9.74 0.74 9.74 C0.7 9.74 0.65
								 9.75 0.6 9.76 C0.55 9.76 0.51 9.78 0.47 9.8 C0.43 9.82 0.4 9.85 0.38 9.88 C0.35 9.91 0.34 9.96 0.34
								 10 C0.34 10.04 0.35 10.09 0.37 10.12 C0.39 10.14 0.42 10.17 0.45 10.2 C0.49 10.23 0.53 10.25 0.58
								 10.28 C0.63 10.3 0.69 10.33 0.75 10.36 C0.83 10.4 0.89 10.43 0.95 10.47 C1.01 10.51 1.06 10.55 1.11
								 10.6 C1.16 10.65 1.19 10.7 1.22 10.76 C1.24 10.82 1.26 10.88 1.26 10.96 C1.26 11.06 1.24 11.14 1.2
								 11.22 C1.16 11.28 1.11 11.34 1.03 11.38 C0.97 11.42 0.89 11.45 0.8 11.47 C0.71 11.5 0.62 11.5 0.52
								 11.5 C0.49 11.5 0.45 11.5 0.4 11.5 C0.35 11.49 0.3 11.48 0.25 11.47 C0.2 11.46 0.15 11.45 0.11 11.44
								 C0.06 11.42 0.03 11.41 0 11.39 Z" class="st5"/>
				</g>
				<g id="shape12-20" v:mID="12" v:groupContext="shape" transform="translate(3.55348,-0.000400799)">
					<title>Sheet.12</title>
					<path d="M1.66 11.34 C1.45 11.45 1.23 11.5 0.98 11.5 C0.68 11.5 0.45 11.41 0.27 11.23 C0.09 11.05 0 10.81 0 10.51
								 C0 10.21 0.1 9.96 0.29 9.76 C0.49 9.57 0.74 9.47 1.04 9.47 C1.26 9.47 1.44 9.5 1.6 9.57 L1.6 9.9
								 C1.44 9.8 1.26 9.76 1.06 9.76 C0.85 9.76 0.68 9.82 0.55 9.96 C0.41 10.09 0.34 10.27 0.34 10.5 C0.34
								 10.72 0.4 10.9 0.52 11.03 C0.63 11.16 0.78 11.22 0.98 11.22 C1.12 11.22 1.24 11.19 1.34 11.14 L1.34
								 10.68 L0.92 10.68 L0.92 10.4 L1.66 10.4 C1.66 10.4 1.66 11.34 1.66 11.34 Z" class="st5"/>
				</g>
			</g>
		</g>
	</g>
</svg>
