<?xml version="1.0" encoding="UTF-8" standalone="no"?>
<!DOCTYPE svg PUBLIC "-//W3C//DTD SVG 1.1//EN" "http://www.w3.org/Graphics/SVG/1.1/DTD/svg11.dtd">
<!-- Generated by Microsoft Visio, SVG Export 026_ASCTasks_NSG.svg Page-1 -->
<svg xmlns="http://www.w3.org/2000/svg" xmlns:xlink="http://www.w3.org/1999/xlink" xmlns:ev="http://www.w3.org/2001/xml-events"
		xmlns:v="http://schemas.microsoft.com/visio/2003/SVGExtensions/" width="8.26772in" height="11.6929in"
		viewBox="0 0 595.276 841.889" xml:space="preserve" color-interpolation-filters="sRGB" class="st6">
	<v:documentProperties v:langID="3082">
		<v:userDefs>
			<v:ud v:nameU="msvNoAutoConnect" v:val="VT0(1):26"/>
		</v:userDefs>
	</v:documentProperties>

	<style type="text/css">
	<![CDATA[
		.st1 {fill:#3999c6;stroke:none;stroke-linecap:butt;stroke-width:0.75}
		.st2 {fill:#59b4d9;fill-opacity:0.4;stroke:none;stroke-linecap:butt;stroke-width:0.75}
		.st3 {fill:#ffffff;fill-opacity:0.3;stroke:none;stroke-linecap:butt;stroke-width:0.75}
		.st4 {fill:#ffffff;fill-opacity:0.7;stroke:none;stroke-linecap:butt;stroke-width:0.75}
		.st5 {fill:#3e3e3e;stroke:none;stroke-linecap:butt;stroke-width:0.75}
		.st6 {fill:none;fill-rule:evenodd;font-size:12px;overflow:visible;stroke-linecap:square;stroke-miterlimit:3}
	]]>
	</style>

	<g v:mID="0" v:index="1" v:groupContext="foregroundPage">
		<title>Page-1</title>
		<v:pageProperties v:drawingScale="0.0393701" v:pageScale="0.0393701" v:drawingUnits="24" v:shadowOffsetX="9"
				v:shadowOffsetY="-9"/>
		<g id="group126-1" transform="translate(3.9968E-15,-827.977)" v:mID="126" v:groupContext="group">
			<title>Sheet.126</title>
			<g id="shape127-2" v:mID="127" v:groupContext="shape">
				<title>Sheet.127</title>
				<path d="M8.7 829.65 C5.63 829.31 5.1 827.98 5.1 827.98 C5.1 827.98 4.41 829.7 0 829.7 L0 836.84 C0 837.71 0.47 838.52
							 1.14 839.21 C2.65 840.8 5.1 841.89 5.1 841.89 C5.1 841.89 10.2 839.66 10.2 836.84 L10.2 829.7 C9.65
							 829.7 9.15 829.68 8.7 829.65 Z" class="st1"/>
			</g>
			<g id="shape128-4" v:mID="128" v:groupContext="shape" transform="translate(0,-2.67665)">
				<title>Sheet.128</title>
				<path d="M6.38 835.25 L8.7 832.33 C5.63 831.99 5.1 830.65 5.1 830.65 C5.1 830.65 4.41 832.38 0 832.38 L0 839.52 C0
							 840.38 0.47 841.19 1.14 841.89 L2.87 839.71 L6.38 835.25 Z" class="st2"/>
			</g>
			<g id="group129-6" transform="translate(1.03163,-1.39409)" v:mID="129" v:groupContext="group">
				<title>Sheet.129</title>
				<g id="shape130-7" v:mID="130" v:groupContext="shape" transform="translate(0.0278818,1.13687E-13)">
					<title>Sheet.130</title>
					<path d="M0 836.17 L0 837.87 C0 838.57 0.39 839.21 0.92 839.77 C2.12 841.05 4.07 841.89 4.07 841.89 L4.07 836.17
								 L0 836.17 Z" class="st3"/>
				</g>
				<g id="shape131-9" v:mID="131" v:groupContext="shape" transform="translate(4.07074,1.13687E-13)">
					<title>Sheet.131</title>
					<path d="M0 841.89 C0 841.89 4.07 840.1 4.07 837.87 L4.07 836.17 L0 836.17 L0 841.89 Z" class="st4"/>
				</g>
				<g id="shape132-11" v:mID="132" v:groupContext="shape" transform="translate(0,-5.71576)">
					<title>Sheet.132</title>
					<path d="M4.07 836.51 C4.07 836.51 3.51 837.9 0 837.9 L0 841.89 L4.07 841.89 L4.07 836.51 Z" class="st4"/>
				</g>
				<g id="shape133-13" v:mID="133" v:groupContext="shape" transform="translate(4.07074,-5.71576)">
					<title>Sheet.133</title>
					<path d="M2.84 837.85 C0.42 837.57 0 836.54 0 836.54 L0 841.89 L4.07 841.89 L4.07 837.9 C3.62 837.9 3.21 837.87
								 2.84 837.85 Z" class="st3"/>
				</g>
			</g>
			<g id="group134-15" transform="translate(1.39688,-5.7113)" v:mID="134" v:groupContext="group">
				<title>Sheet.134</title>
				<g id="shape135-16" v:mID="135" v:groupContext="shape" transform="translate(-3.6221E-14,-0.0460049)">
					<title>Sheet.135</title>
					<path d="M2.32 841.89 L1.82 841.89 L0.52 839.88 C0.48 839.83 0.46 839.78 0.43 839.72 L0.42 839.72 C0.43 839.78
								 0.44 839.91 0.44 840.1 L0.44 841.89 L0 841.89 L0 839.16 L0.53 839.16 L1.79 841.12 C1.84 841.2 1.88
								 841.25 1.89 841.28 L1.9 841.28 C1.89 841.21 1.88 841.09 1.88 840.92 L1.88 839.16 L2.32 839.16 L2.32
								 841.89 Z" class="st5"/>
				</g>
				<g id="shape136-18" v:mID="136" v:groupContext="shape" transform="translate(2.86625,1.13687E-13)">
					<title>Sheet.136</title>
					<path d="M0 841.73 L0 841.27 C0.04 841.3 0.09 841.34 0.15 841.37 C0.21 841.4 0.27 841.43 0.34 841.45 C0.4 841.47
								 0.47 841.48 0.53 841.5 C0.59 841.51 0.65 841.51 0.71 841.51 C0.9 841.51 1.04 841.48 1.14 841.42
								 C1.23 841.35 1.28 841.26 1.28 841.14 C1.28 841.08 1.26 841.02 1.23 840.97 C1.2 840.92 1.15 840.88
								 1.1 840.84 C1.04 840.8 0.98 840.76 0.9 840.73 C0.83 840.69 0.74 840.65 0.66 840.61 C0.56 840.57
								 0.48 840.52 0.4 840.46 C0.32 840.41 0.25 840.36 0.19 840.3 C0.13 840.23 0.08 840.16 0.05 840.09
								 C0.02 840.01 0 839.92 0 839.81 C0 839.69 0.03 839.57 0.09 839.48 C0.14 839.38 0.22 839.31 0.32 839.25
								 C0.41 839.18 0.52 839.14 0.64 839.11 C0.76 839.08 0.88 839.06 1.01 839.06 C1.29 839.06 1.5 839.1
								 1.63 839.16 L1.63 839.61 C1.48 839.5 1.28 839.44 1.03 839.44 C0.97 839.44 0.9 839.45 0.83 839.46
								 C0.77 839.47 0.71 839.49 0.65 839.52 C0.6 839.55 0.56 839.59 0.53 839.63 C0.49 839.68 0.48 839.74
								 0.48 839.8 C0.48 839.86 0.49 839.92 0.51 839.96 C0.54 840 0.58 840.04 0.63 840.08 C0.68 840.12 0.74
								 840.15 0.81 840.19 C0.88 840.22 0.96 840.26 1.05 840.3 C1.15 840.35 1.24 840.4 1.32 840.46 C1.4
								 840.51 1.48 840.57 1.54 840.64 C1.61 840.71 1.66 840.78 1.7 840.86 C1.73 840.94 1.75 841.03 1.75
								 841.14 C1.75 841.27 1.72 841.39 1.67 841.49 C1.61 841.58 1.54 841.66 1.44 841.72 C1.35 841.78 1.24
								 841.82 1.12 841.85 C0.99 841.88 0.86 841.89 0.72 841.89 C0.68 841.89 0.62 841.89 0.56 841.88 C0.49
								 841.87 0.42 841.86 0.35 841.85 C0.28 841.83 0.21 841.82 0.15 841.8 C0.09 841.78 0.04 841.76 0 841.73
								 Z" class="st5"/>
				</g>
				<g id="shape137-20" v:mID="137" v:groupContext="shape" transform="translate(4.94399,-0.000557635)">
					<title>Sheet.137</title>
					<path d="M2.31 841.66 C2.02 841.81 1.71 841.89 1.36 841.89 C0.95 841.89 0.63 841.76 0.38 841.51 C0.13 841.26
								 0 840.93 0 840.51 C0 840.09 0.14 839.74 0.41 839.47 C0.68 839.2 1.03 839.06 1.45 839.06 C1.76 839.06
								 2.01 839.11 2.22 839.2 L2.22 839.66 C2.01 839.52 1.76 839.46 1.47 839.46 C1.18 839.46 0.94 839.55
								 0.76 839.74 C0.57 839.93 0.48 840.18 0.48 840.49 C0.48 840.8 0.56 841.05 0.72 841.23 C0.88 841.41
								 1.09 841.5 1.37 841.5 C1.56 841.5 1.72 841.46 1.86 841.39 L1.86 840.74 L1.28 840.74 L1.28 840.36
								 L2.31 840.36 C2.31 840.36 2.31 841.66 2.31 841.66 Z" class="st5"/>
				</g>
			</g>
		</g>
	</g>
</svg>
