<?xml version="1.0" encoding="UTF-8" standalone="no"?>
<!DOCTYPE svg PUBLIC "-//W3C//DTD SVG 1.1//EN" "http://www.w3.org/Graphics/SVG/1.1/DTD/svg11.dtd">
<!-- Generated by Microsoft Visio, SVG Export 026_ASCTasks_NSG.svg Page-1 -->
<svg xmlns="http://www.w3.org/2000/svg" xmlns:xlink="http://www.w3.org/1999/xlink" xmlns:ev="http://www.w3.org/2001/xml-events"
		xmlns:v="http://schemas.microsoft.com/visio/2003/SVGExtensions/" width="0.1625in" height="0.21412in"
		viewBox="0 0 11.7 15.4166" xml:space="preserve" color-interpolation-filters="sRGB" class="st6">
	<v:documentProperties v:langID="3082" v:metric="true" v:viewMarkup="false"/>

	<style type="text/css">
	<![CDATA[
		.st1 {fill:#3999c6;stroke:none;stroke-linecap:butt;stroke-width:0.75}
		.st2 {fill:#59b4d9;fill-opacity:0.4;stroke:none;stroke-linecap:butt;stroke-width:0.75}
		.st3 {fill:#ffffff;fill-opacity:0.3;stroke:none;stroke-linecap:butt;stroke-width:0.75}
		.st4 {fill:#ffffff;fill-opacity:0.7;stroke:none;stroke-linecap:butt;stroke-width:0.75}
		.st5 {fill:#3e3e3e;stroke:none;stroke-linecap:butt;stroke-width:0.75}
		.st6 {fill:none;fill-rule:evenodd;font-size:12px;overflow:visible;stroke-linecap:square;stroke-miterlimit:3}
	]]>
	</style>

	<g v:mID="0" v:index="1" v:groupContext="foregroundPage">
		<title>Page-1</title>
		<v:pageProperties v:drawingScale="1" v:pageScale="1" v:drawingUnits="19" v:shadowOffsetX="9" v:shadowOffsetY="-9"/>
		<g id="group25-1" transform="translate(0.75,-0.75)" v:mID="25" v:groupContext="group">
			<title>Sheet.25</title>
			<g id="shape26-2" v:mID="26" v:groupContext="shape">
				<title>Sheet.26</title>
				<path d="M8.7 3.18 C5.63 2.84 5.1 1.51 5.1 1.51 C5.1 1.51 4.41 3.23 0 3.23 L0 10.37 C0 11.24 0.47 12.05 1.14 12.74
							 C2.65 14.33 5.1 15.42 5.1 15.42 C5.1 15.42 10.2 13.19 10.2 10.37 L10.2 3.23 C9.65 3.23 9.15 3.21 8.7
							 3.18 Z" class="st1"/>
			</g>
			<g id="shape27-4" v:mID="27" v:groupContext="shape" transform="translate(-3.9968E-14,-2.67665)">
				<title>Sheet.27</title>
				<path d="M6.38 8.78 L8.7 5.86 C5.63 5.52 5.1 4.18 5.1 4.18 C5.1 4.18 4.41 5.91 0 5.91 L0 13.05 C0 13.91 0.47 14.72
							 1.14 15.42 L2.87 13.24 L6.38 8.78 Z" class="st2"/>
			</g>
			<g id="group28-6" transform="translate(1.03163,-1.39409)" v:mID="28" v:groupContext="group">
				<title>Sheet.28</title>
				<g id="shape29-7" v:mID="29" v:groupContext="shape" transform="translate(0.0278818,-2.30926E-14)">
					<title>Sheet.29</title>
					<path d="M0 9.7 L0 11.4 C0 12.1 0.39 12.74 0.92 13.3 C2.12 14.58 4.07 15.42 4.07 15.42 L4.07 9.7 L0 9.7 Z"
							class="st3"/>
				</g>
				<g id="shape30-9" v:mID="30" v:groupContext="shape" transform="translate(4.07074,-2.30926E-14)">
					<title>Sheet.30</title>
					<path d="M0 15.42 C0 15.42 4.07 13.63 4.07 11.4 L4.07 9.7 L0 9.7 L0 15.42 Z" class="st4"/>
				</g>
				<g id="shape31-11" v:mID="31" v:groupContext="shape" transform="translate(-1.09912E-14,-5.71576)">
					<title>Sheet.31</title>
					<path d="M4.07 10.04 C4.07 10.04 3.51 11.43 0 11.43 L0 15.42 L4.07 15.42 L4.07 10.04 Z" class="st4"/>
				</g>
				<g id="shape32-13" v:mID="32" v:groupContext="shape" transform="translate(4.07074,-5.71576)">
					<title>Sheet.32</title>
					<path d="M2.84 11.38 C0.42 11.1 0 10.07 0 10.07 L0 15.42 L4.07 15.42 L4.07 11.43 C3.62 11.43 3.21 11.4 2.84 11.38
								 Z" class="st3"/>
				</g>
			</g>
			<g id="group33-15" transform="translate(1.39688,-5.7113)" v:mID="33" v:groupContext="group">
				<title>Sheet.33</title>
				<g id="shape34-16" v:mID="34" v:groupContext="shape" transform="translate(7.24421E-15,-0.0460049)">
					<title>Sheet.34</title>
					<path d="M2.32 15.42 L1.82 15.42 L0.52 13.41 C0.48 13.36 0.46 13.31 0.43 13.25 L0.42 13.25 C0.43 13.31 0.44 13.44
								 0.44 13.63 L0.44 15.42 L0 15.42 L0 12.69 L0.53 12.69 L1.79 14.65 C1.84 14.73 1.88 14.78 1.89 14.81
								 L1.9 14.81 C1.89 14.74 1.88 14.62 1.88 14.45 L1.88 12.69 L2.32 12.69 L2.32 15.42 Z" class="st5"/>
				</g>
				<g id="shape35-18" v:mID="35" v:groupContext="shape" transform="translate(2.86625,1.24345E-14)">
					<title>Sheet.35</title>
					<path d="M0 15.26 L0 14.8 C0.04 14.83 0.09 14.87 0.15 14.9 C0.21 14.93 0.27 14.96 0.34 14.98 C0.4 15 0.47 15.01
								 0.53 15.03 C0.59 15.04 0.65 15.04 0.71 15.04 C0.9 15.04 1.04 15.01 1.14 14.95 C1.23 14.88 1.28 14.79
								 1.28 14.67 C1.28 14.61 1.26 14.55 1.23 14.5 C1.2 14.45 1.15 14.41 1.1 14.37 C1.04 14.33 0.98 14.29
								 0.9 14.26 C0.83 14.22 0.74 14.18 0.66 14.14 C0.56 14.1 0.48 14.05 0.4 13.99 C0.32 13.94 0.25 13.89
								 0.19 13.83 C0.13 13.76 0.08 13.69 0.05 13.62 C0.02 13.54 0 13.45 0 13.34 C0 13.22 0.03 13.1 0.09
								 13.01 C0.14 12.91 0.22 12.84 0.32 12.78 C0.41 12.71 0.52 12.67 0.64 12.64 C0.76 12.61 0.88 12.59
								 1.01 12.59 C1.29 12.59 1.5 12.63 1.63 12.69 L1.63 13.14 C1.48 13.03 1.28 12.97 1.03 12.97 C0.97
								 12.97 0.9 12.98 0.83 12.99 C0.77 13 0.71 13.02 0.65 13.05 C0.6 13.08 0.56 13.12 0.53 13.16 C0.49
								 13.21 0.48 13.27 0.48 13.33 C0.48 13.39 0.49 13.45 0.51 13.49 C0.54 13.53 0.58 13.57 0.63 13.61
								 C0.68 13.65 0.74 13.68 0.81 13.72 C0.88 13.75 0.96 13.79 1.05 13.83 C1.15 13.88 1.24 13.93 1.32
								 13.99 C1.4 14.04 1.48 14.1 1.54 14.17 C1.61 14.24 1.66 14.31 1.7 14.39 C1.73 14.47 1.75 14.56 1.75
								 14.67 C1.75 14.8 1.72 14.92 1.67 15.02 C1.61 15.11 1.54 15.19 1.44 15.25 C1.35 15.31 1.24 15.35
								 1.12 15.38 C0.99 15.41 0.86 15.42 0.72 15.42 C0.68 15.42 0.62 15.42 0.56 15.41 C0.49 15.4 0.42 15.39
								 0.35 15.38 C0.28 15.36 0.21 15.35 0.15 15.33 C0.09 15.31 0.04 15.29 0 15.26 Z" class="st5"/>
				</g>
				<g id="shape36-20" v:mID="36" v:groupContext="shape" transform="translate(4.94399,-0.000557635)">
					<title>Sheet.36</title>
					<path d="M2.31 15.19 C2.02 15.34 1.71 15.42 1.36 15.42 C0.95 15.42 0.63 15.29 0.38 15.04 C0.13 14.79 0 14.46
								 0 14.04 C0 13.62 0.14 13.27 0.41 13 C0.68 12.73 1.03 12.59 1.45 12.59 C1.76 12.59 2.01 12.64 2.22
								 12.73 L2.22 13.19 C2.01 13.05 1.76 12.99 1.47 12.99 C1.18 12.99 0.94 13.08 0.76 13.27 C0.57 13.46
								 0.48 13.71 0.48 14.02 C0.48 14.33 0.56 14.58 0.72 14.76 C0.88 14.94 1.09 15.03 1.37 15.03 C1.56
								 15.03 1.72 14.99 1.86 14.92 L1.86 14.27 L1.28 14.27 L1.28 13.89 L2.31 13.89 C2.31 13.89 2.31 15.19
								 2.31 15.19 Z" class="st5"/>
				</g>
			</g>
		</g>
	</g>
</svg>
