<?xml version="1.0" encoding="UTF-8" standalone="no"?>
<!DOCTYPE svg PUBLIC "-//W3C//DTD SVG 1.1//EN" "http://www.w3.org/Graphics/SVG/1.1/DTD/svg11.dtd">
<!-- Generated by Microsoft Visio, SVG Export 027_ASCTasks_Functions.svg Page-1 -->
<svg xmlns="http://www.w3.org/2000/svg" xmlns:xlink="http://www.w3.org/1999/xlink" xmlns:ev="http://www.w3.org/2001/xml-events"
		xmlns:v="http://schemas.microsoft.com/visio/2003/SVGExtensions/" width="0.447231in" height="0.432986in"
		viewBox="0 0 32.2007 31.175" xml:space="preserve" color-interpolation-filters="sRGB" class="st4">
	<v:documentProperties v:langID="3082" v:metric="true" v:viewMarkup="false"/>

	<style type="text/css">
	<![CDATA[
		.st1 {fill:#3999c6;stroke:none;stroke-linecap:butt;stroke-width:9.5625}
		.st2 {fill:#fcd116;stroke:none;stroke-linecap:butt;stroke-width:9.5625}
		.st3 {fill:#ff8c00;fill-opacity:0.3;stroke:none;stroke-linecap:butt;stroke-width:9.5625}
		.st4 {fill:none;fill-rule:evenodd;font-size:12px;overflow:visible;stroke-linecap:square;stroke-miterlimit:3}
	]]>
	</style>

	<g v:mID="0" v:index="1" v:groupContext="foregroundPage">
		<title>Page-1</title>
		<v:pageProperties v:drawingScale="1" v:pageScale="1" v:drawingUnits="19" v:shadowOffsetX="9" v:shadowOffsetY="-9"/>
		<g id="group37-1" transform="translate(9.52517,-9.5625)" v:mID="37" v:groupContext="group">
			<title>Sheet.37</title>
			<g id="group38-2" v:mID="38" v:groupContext="group">
				<title>Sheet.38</title>
				<g id="shape39-3" v:mID="39" v:groupContext="shape" transform="translate(8.94284,-2.34801)">
					<title>Sheet.39</title>
					<path d="M4.08 27.58 C4.21 27.45 4.19 27.23 4.08 27.11 L3.45 26.47 L0.63 23.74 C0.51 23.61 0.33 23.61 0.18 23.74
								 C0.06 23.86 0.02 24.08 0.18 24.21 L3.14 27.11 C3.27 27.23 3.27 27.45 3.14 27.58 L0.12 30.58 C0 30.7
								 0 30.92 0.12 31.05 C0.25 31.17 0.47 31.15 0.57 31.05 L3.37 28.27 C3.37 28.27 3.37 28.27 3.39 28.25
								 L4.08 27.58 Z" class="st1"/>
				</g>
				<g id="shape40-5" v:mID="40" v:groupContext="shape" transform="translate(4.32154E-14,-2.34801)">
					<title>Sheet.40</title>
					<path d="M0.12 27.58 C0 27.45 0.02 27.23 0.12 27.11 L0.76 26.47 L3.57 23.74 C3.7 23.61 3.88 23.61 4.02 23.74
								 C4.14 23.86 4.19 24.08 4.02 24.21 L1.12 27.11 C1 27.23 1 27.45 1.12 27.58 L4.08 30.58 C4.21 30.7
								 4.21 30.92 4.08 31.05 C3.96 31.17 3.74 31.15 3.63 31.05 L0.78 28.31 C0.78 28.31 0.78 28.31 0.76
								 28.29 L0.12 27.58 Z" class="st1"/>
				</g>
				<g id="shape41-7" v:mID="41" v:groupContext="shape" transform="translate(3.6343,2.84217E-14)">
					<title>Sheet.41</title>
					<path d="M6.13 19.12 L2.14 19.12 L0 25.17 L2.61 25.19 L0.57 31.17 L6.21 23.19 L3.47 23.19 L6.13 19.12 Z"
							class="st2"/>
				</g>
				<g id="shape42-9" v:mID="42" v:groupContext="shape" transform="translate(4.20599,2.84217E-14)">
					<title>Sheet.42</title>
					<path d="M2.9 23.19 L5.55 19.12 L3.47 19.12 L1.27 24.15 L3.88 24.17 L0 31.17 L5.64 23.19 L2.9 23.19 Z"
							class="st3"/>
				</g>
			</g>
		</g>
	</g>
</svg>
