<?xml version="1.0" encoding="UTF-8" standalone="no"?>
<!DOCTYPE svg PUBLIC "-//W3C//DTD SVG 1.1//EN" "http://www.w3.org/Graphics/SVG/1.1/DTD/svg11.dtd">
<!-- Generated by Microsoft Visio, SVG Export 027_ASCTasks_Functions.svg Page-1 -->
<svg xmlns="http://www.w3.org/2000/svg" xmlns:xlink="http://www.w3.org/1999/xlink" xmlns:ev="http://www.w3.org/2001/xml-events"
		xmlns:v="http://schemas.microsoft.com/visio/2003/SVGExtensions/" width="8.26772in" height="11.6929in"
		viewBox="0 0 595.276 841.889" xml:space="preserve" color-interpolation-filters="sRGB" class="st4">
	<v:documentProperties v:langID="3082">
		<v:userDefs>
			<v:ud v:nameU="msvNoAutoConnect" v:val="VT0(1):26"/>
		</v:userDefs>
	</v:documentProperties>

	<style type="text/css">
	<![CDATA[
		.st1 {fill:#3999c6;stroke:none;stroke-linecap:butt;stroke-width:9.5625}
		.st2 {fill:#fcd116;stroke:none;stroke-linecap:butt;stroke-width:9.5625}
		.st3 {fill:#ff8c00;fill-opacity:0.3;stroke:none;stroke-linecap:butt;stroke-width:9.5625}
		.st4 {fill:none;fill-rule:evenodd;font-size:12px;overflow:visible;stroke-linecap:square;stroke-miterlimit:3}
	]]>
	</style>

	<g v:mID="0" v:index="1" v:groupContext="foregroundPage">
		<title>Page-1</title>
		<v:pageProperties v:drawingScale="0.0393701" v:pageScale="0.0393701" v:drawingUnits="24" v:shadowOffsetX="9"
				v:shadowOffsetY="-9"/>
		<g id="group138-1" transform="translate(0.566929,-829.134)" v:mID="138" v:groupContext="group">
			<title>Sheet.138</title>
			<g id="group139-2" v:mID="139" v:groupContext="group">
				<title>Sheet.139</title>
				<g id="shape140-3" v:mID="140" v:groupContext="shape" transform="translate(8.94284,-2.34801)">
					<title>Sheet.140</title>
					<path d="M4.08 838.3 C4.21 838.17 4.19 837.95 4.08 837.83 L3.45 837.19 L0.63 834.46 C0.51 834.33 0.33 834.33
								 0.18 834.46 C0.06 834.58 0.02 834.8 0.18 834.93 L3.14 837.83 C3.27 837.95 3.27 838.17 3.14 838.3
								 L0.12 841.3 C0 841.42 0 841.64 0.12 841.77 C0.25 841.89 0.47 841.87 0.57 841.77 L3.37 838.99 C3.37
								 838.99 3.37 838.99 3.39 838.97 L4.08 838.3 Z" class="st1"/>
				</g>
				<g id="shape141-5" v:mID="141" v:groupContext="shape" transform="translate(0,-2.34801)">
					<title>Sheet.141</title>
					<path d="M0.12 838.3 C0 838.17 0.02 837.95 0.12 837.83 L0.76 837.19 L3.57 834.46 C3.7 834.33 3.88 834.33 4.02
								 834.46 C4.14 834.58 4.19 834.8 4.02 834.93 L1.12 837.83 C1 837.95 1 838.17 1.12 838.3 L4.08 841.3
								 C4.21 841.42 4.21 841.64 4.08 841.77 C3.96 841.89 3.74 841.87 3.63 841.77 L0.78 839.03 C0.78 839.03
								 0.78 839.03 0.76 839.01 L0.12 838.3 Z" class="st1"/>
				</g>
				<g id="shape142-7" v:mID="142" v:groupContext="shape" transform="translate(3.6343,1.13687E-13)">
					<title>Sheet.142</title>
					<path d="M6.13 829.84 L2.14 829.84 L0 835.89 L2.61 835.91 L0.57 841.89 L6.21 833.91 L3.47 833.91 L6.13 829.84
								 Z" class="st2"/>
				</g>
				<g id="shape143-9" v:mID="143" v:groupContext="shape" transform="translate(4.20599,1.13687E-13)">
					<title>Sheet.143</title>
					<path d="M2.9 833.91 L5.55 829.84 L3.47 829.84 L1.27 834.87 L3.88 834.89 L0 841.89 L5.64 833.91 L2.9 833.91 Z"
							class="st3"/>
				</g>
			</g>
		</g>
	</g>
</svg>
