<?xml version="1.0" encoding="UTF-8" standalone="no"?>
<!DOCTYPE svg PUBLIC "-//W3C//DTD SVG 1.1//EN" "http://www.w3.org/Graphics/SVG/1.1/DTD/svg11.dtd">
<!-- Generated by Microsoft Visio, SVG Export 028_ASCTasks_MFA.svg Page-1 -->
<svg xmlns="http://www.w3.org/2000/svg" xmlns:xlink="http://www.w3.org/1999/xlink" xmlns:ev="http://www.w3.org/2001/xml-events"
		xmlns:v="http://schemas.microsoft.com/visio/2003/SVGExtensions/" width="0.439723in" height="0.555171in"
		viewBox="0 0 31.6601 39.9723" xml:space="preserve" color-interpolation-filters="sRGB" class="st4">
	<v:documentProperties v:langID="3082" v:metric="true" v:viewMarkup="false"/>

	<style type="text/css">
	<![CDATA[
		.st1 {fill:#b8d432;stroke:none;stroke-linecap:butt;stroke-width:12.24}
		.st2 {fill:#3e3e3e;stroke:none;stroke-linecap:butt;stroke-width:12.24}
		.st3 {fill:#ffffff;fill-opacity:0.15;stroke:none;stroke-linecap:butt;stroke-width:12.24}
		.st4 {fill:none;fill-rule:evenodd;font-size:12px;overflow:visible;stroke-linecap:square;stroke-miterlimit:3}
	]]>
	</style>

	<g v:mID="0" v:index="1" v:groupContext="foregroundPage">
		<title>Page-1</title>
		<v:pageProperties v:drawingScale="1" v:pageScale="1" v:drawingUnits="19" v:shadowOffsetX="8.99999"
				v:shadowOffsetY="-8.99999"/>
		<g id="group13-1" transform="translate(12.1865,-12.2115)" v:mID="13" v:groupContext="group">
			<title>Multi-factor Authentication</title>
			<g id="shape14-2" v:mID="14" v:groupContext="shape" transform="translate(1.79194,-13.8743)">
				<title>Sheet.14</title>
				<ellipse cx="0.86507" cy="39.478" rx="0.86507" ry="0.494325" class="st1"/>
			</g>
			<g id="shape15-4" v:mID="15" v:groupContext="shape">
				<title>Sheet.15</title>
				<path d="M5.75 31.36 L1.52 31.87 L0.95 27.42 C0.92 27.05 1.18 26.74 1.54 26.71 L3.98 26.41 C4.35 26.38 4.66 26.58
							 4.73 26.96 L5.13 30.18 C5.16 30.36 5.32 30.49 5.5 30.46 C5.69 30.43 5.82 30.27 5.78 30.08 L5.16 25.01
							 C5.13 24.64 4.79 24.42 4.42 24.45 L0.65 24.95 C0.28 24.98 0 25.29 0.06 25.67 L0.82 31.87 C0.82 31.93
							 0.86 31.96 0.86 32.03 C0.67 32.15 0.59 32.37 0.62 32.59 L1.49 39.38 C1.52 39.72 1.85 39.97 2.16 39.94
							 L6.73 39.32 C7.07 39.29 7.26 38.95 7.23 38.6 L6.36 31.81 C6.33 31.51 6.05 31.33 5.75 31.36 ZM2.38 25.39
							 L2.89 25.33 C3.03 25.29 3.16 25.39 3.16 25.51 C3.19 25.64 3.09 25.76 2.95 25.76 L2.44 25.82 C2.32 25.85
							 2.19 25.76 2.19 25.64 C2.16 25.51 2.25 25.42 2.38 25.39 ZM4.26 35.15 L4.38 36.22 L3.59 36.32 L3.44 35.21
							 C3.19 35.09 2.92 34.84 2.86 34.5 C2.81 34 3.16 33.58 3.65 33.52 C4.14 33.46 4.57 33.8 4.63 34.28 C4.7
							 34.65 4.6 34.97 4.26 35.15 Z" class="st2"/>
			</g>
			<g id="shape16-6" v:mID="16" v:groupContext="shape" transform="translate(0,-3.24401)">
				<title>Sheet.16</title>
				<path d="M0.82 35.09 C0.82 35.15 0.86 35.18 0.86 35.25 C0.67 35.37 0.59 35.59 0.62 35.81 L1.15 39.97 L3.19 34.93
							 L1.52 35.12 L0.95 30.67 C0.92 30.3 1.18 29.99 1.54 29.96 L3.98 29.65 C4.35 29.62 4.66 29.83 4.73 30.21
							 L4.82 30.89 L5.35 29.62 L5.19 28.3 C5.16 27.92 4.82 27.7 4.45 27.74 L0.65 28.2 C0.28 28.23 0 28.54 0.06
							 28.9 L0.82 35.09 ZM2.38 28.64 L2.89 28.57 C3.03 28.54 3.16 28.64 3.16 28.75 C3.19 28.87 3.09 28.99 2.95
							 28.99 L2.44 29.06 C2.32 29.09 2.19 28.99 2.19 28.87 C2.16 28.75 2.25 28.67 2.38 28.64 Z" class="st3"/>
			</g>
		</g>
	</g>
</svg>
