<?xml version="1.0" encoding="UTF-8" standalone="no"?>
<!DOCTYPE svg PUBLIC "-//W3C//DTD SVG 1.1//EN" "http://www.w3.org/Graphics/SVG/1.1/DTD/svg11.dtd">
<!-- Generated by Microsoft Visio, SVG Export 028_ASCTasks_MFA.svg Page-1 -->
<svg xmlns="http://www.w3.org/2000/svg" xmlns:xlink="http://www.w3.org/1999/xlink" xmlns:ev="http://www.w3.org/2001/xml-events"
		xmlns:v="http://schemas.microsoft.com/visio/2003/SVGExtensions/" width="0.404166in" height="0.478327in"
		viewBox="0 0 29.1 34.4395" xml:space="preserve" color-interpolation-filters="sRGB" class="st4">
	<v:documentProperties v:langID="3082" v:metric="true" v:viewMarkup="false"/>

	<style type="text/css">
	<![CDATA[
		.st1 {fill:#b8d432;stroke:none;stroke-linecap:butt;stroke-width:12.24}
		.st2 {fill:#3e3e3e;stroke:none;stroke-linecap:butt;stroke-width:12.24}
		.st3 {fill:#ffffff;fill-opacity:0.15;stroke:none;stroke-linecap:butt;stroke-width:12.24}
		.st4 {fill:none;fill-rule:evenodd;font-size:12px;overflow:visible;stroke-linecap:square;stroke-miterlimit:3}
	]]>
	</style>

	<g v:mID="0" v:index="1" v:groupContext="foregroundPage">
		<title>Page-1</title>
		<v:pageProperties v:drawingScale="1" v:pageScale="1" v:drawingUnits="19" v:shadowOffsetX="9" v:shadowOffsetY="-9"/>
		<g id="group43-1" transform="translate(12.206,-12.2219)" v:mID="43" v:groupContext="group">
			<title>Multi-factor Authentication</title>
			<g id="shape44-2" v:mID="44" v:groupContext="shape" transform="translate(1.15245,-8.92252)">
				<title>Sheet.44</title>
				<ellipse cx="0.556352" cy="34.1216" rx="0.556352" ry="0.317915" class="st1"/>
			</g>
			<g id="shape45-4" v:mID="45" v:groupContext="shape">
				<title>Sheet.45</title>
				<path d="M3.7 28.9 L0.98 29.23 L0.61 26.37 C0.59 26.13 0.76 25.93 0.99 25.91 L2.56 25.72 C2.8 25.7 3 25.83 3.04 26.07
							 L3.3 28.14 C3.32 28.26 3.42 28.34 3.54 28.32 C3.66 28.3 3.74 28.2 3.72 28.08 L3.32 24.82 C3.3 24.58
							 3.08 24.44 2.84 24.46 L0.42 24.78 C0.18 24.8 0 25 0.04 25.24 L0.53 29.23 C0.53 29.27 0.55 29.29 0.55
							 29.33 C0.43 29.41 0.38 29.55 0.4 29.69 L0.96 34.06 C0.98 34.28 1.19 34.44 1.39 34.42 L4.33 34.02 C4.55
							 34 4.67 33.78 4.65 33.56 L4.09 29.19 C4.07 29 3.89 28.88 3.7 28.9 ZM1.53 25.06 L1.86 25.02 C1.95 25
							 2.03 25.06 2.03 25.14 C2.05 25.22 1.99 25.3 1.9 25.3 L1.57 25.34 C1.49 25.36 1.41 25.3 1.41 25.22 C1.39
							 25.14 1.45 25.08 1.53 25.06 ZM2.74 31.34 L2.82 32.03 L2.31 32.09 L2.21 31.38 C2.05 31.3 1.88 31.14 1.84
							 30.92 C1.81 30.6 2.03 30.33 2.35 30.29 C2.66 30.25 2.94 30.47 2.98 30.78 C3.02 31.02 2.96 31.22 2.74
							 31.34 Z" class="st2"/>
			</g>
			<g id="shape46-6" v:mID="46" v:groupContext="shape" transform="translate(0,-2.08632)">
				<title>Sheet.46</title>
				<path d="M0.53 31.3 C0.53 31.34 0.55 31.36 0.55 31.4 C0.43 31.48 0.38 31.62 0.4 31.76 L0.74 34.44 L2.05 31.2 L0.98
							 31.32 L0.61 28.46 C0.59 28.22 0.76 28.02 0.99 28 L2.56 27.8 C2.8 27.78 3 27.92 3.04 28.16 L3.1 28.6
							 L3.44 27.78 L3.34 26.93 C3.32 26.69 3.1 26.55 2.86 26.57 L0.42 26.87 C0.18 26.89 0 27.09 0.04 27.32
							 L0.53 31.3 ZM1.53 27.15 L1.86 27.11 C1.95 27.09 2.03 27.15 2.03 27.22 C2.05 27.3 1.99 27.38 1.9 27.38
							 L1.57 27.42 C1.49 27.44 1.41 27.38 1.41 27.3 C1.39 27.22 1.45 27.17 1.53 27.15 Z" class="st3"/>
			</g>
		</g>
	</g>
</svg>
