<?xml version="1.0" encoding="UTF-8" standalone="no"?>
<!DOCTYPE svg PUBLIC "-//W3C//DTD SVG 1.1//EN" "http://www.w3.org/Graphics/SVG/1.1/DTD/svg11.dtd">
<!-- Generated by Microsoft Visio, SVG Export 028_ASCTasks_MFA.svg Page-1 -->
<svg xmlns="http://www.w3.org/2000/svg" xmlns:xlink="http://www.w3.org/1999/xlink" xmlns:ev="http://www.w3.org/2001/xml-events"
		xmlns:v="http://schemas.microsoft.com/visio/2003/SVGExtensions/" width="8.26772in" height="11.6929in"
		viewBox="0 0 595.276 841.889" xml:space="preserve" color-interpolation-filters="sRGB" class="st4">
	<v:documentProperties v:langID="3082">
		<v:userDefs>
			<v:ud v:nameU="msvNoAutoConnect" v:val="VT0(1):26"/>
		</v:userDefs>
	</v:documentProperties>

	<style type="text/css">
	<![CDATA[
		.st1 {fill:#b8d432;stroke:none;stroke-linecap:butt;stroke-width:12.24}
		.st2 {fill:#3e3e3e;stroke:none;stroke-linecap:butt;stroke-width:12.24}
		.st3 {fill:#ffffff;fill-opacity:0.15;stroke:none;stroke-linecap:butt;stroke-width:12.24}
		.st4 {fill:none;fill-rule:evenodd;font-size:12px;overflow:visible;stroke-linecap:square;stroke-miterlimit:3}
	]]>
	</style>

	<g v:mID="0" v:index="1" v:groupContext="foregroundPage">
		<title>Page-1</title>
		<v:pageProperties v:drawingScale="0.0393701" v:pageScale="0.0393701" v:drawingUnits="24" v:shadowOffsetX="9"
				v:shadowOffsetY="-9"/>
		<g id="group144-1" transform="translate(3.9968E-15,-826.721)" v:mID="144" v:groupContext="group">
			<title>Multi-factor Authentication</title>
			<g id="shape145-2" v:mID="145" v:groupContext="shape" transform="translate(1.74904,-13.54)">
				<title>Sheet.145</title>
				<ellipse cx="0.844363" cy="841.406" rx="0.844363" ry="0.482493" class="st1"/>
			</g>
			<g id="shape146-4" v:mID="146" v:groupContext="shape">
				<title>Sheet.146</title>
				<path d="M5.61 833.48 L1.48 833.99 L0.93 829.65 C0.9 829.28 1.15 828.98 1.51 828.95 L3.89 828.65 C4.25 828.62 4.55
							 828.83 4.61 829.19 L5.01 832.33 C5.04 832.51 5.19 832.63 5.37 832.6 C5.55 832.57 5.67 832.42 5.64 832.24
							 L5.04 827.29 C5.01 826.93 4.67 826.72 4.31 826.75 L0.63 827.23 C0.27 827.26 0 827.56 0.06 827.93 L0.81
							 833.99 C0.81 834.05 0.84 834.08 0.84 834.14 C0.66 834.26 0.57 834.47 0.6 834.68 L1.45 841.32 C1.48 841.65
							 1.81 841.89 2.11 841.86 L6.57 841.26 C6.91 841.23 7.09 840.89 7.06 840.56 L6.21 833.93 C6.18 833.63
							 5.91 833.45 5.61 833.48 ZM2.32 827.66 L2.83 827.59 C2.96 827.56 3.08 827.66 3.08 827.78 C3.11 827.9
							 3.02 828.02 2.89 828.02 L2.38 828.08 C2.26 828.11 2.14 828.02 2.14 827.9 C2.11 827.78 2.2 827.69 2.32
							 827.66 ZM4.16 837.18 L4.28 838.24 L3.5 838.33 L3.35 837.24 C3.11 837.12 2.86 836.88 2.8 836.55 C2.74
							 836.07 3.08 835.65 3.56 835.59 C4.04 835.53 4.46 835.86 4.52 836.34 C4.58 836.7 4.49 837 4.16 837.18
							 Z" class="st2"/>
			</g>
			<g id="shape147-6" v:mID="147" v:groupContext="shape" transform="translate(0,-3.16636)">
				<title>Sheet.147</title>
				<path d="M0.81 837.12 C0.81 837.18 0.84 837.21 0.84 837.27 C0.66 837.4 0.57 837.61 0.6 837.82 L1.12 841.89 L3.11
							 836.97 L1.48 837.15 L0.93 832.81 C0.9 832.45 1.15 832.15 1.51 832.12 L3.89 831.82 C4.25 831.79 4.55
							 832 4.61 832.36 L4.7 833.02 L5.22 831.79 L5.07 830.49 C5.04 830.13 4.7 829.92 4.34 829.95 L0.63 830.4
							 C0.27 830.43 0 830.73 0.06 831.09 L0.81 837.12 ZM2.32 830.82 L2.83 830.76 C2.96 830.73 3.08 830.82 3.08
							 830.94 C3.11 831.06 3.02 831.18 2.89 831.18 L2.38 831.24 C2.26 831.27 2.14 831.18 2.14 831.06 C2.11
							 830.94 2.2 830.85 2.32 830.82 Z" class="st3"/>
			</g>
		</g>
	</g>
</svg>
