<?xml version="1.0" encoding="UTF-8" standalone="no"?>
<!DOCTYPE svg PUBLIC "-//W3C//DTD SVG 1.1//EN" "http://www.w3.org/Graphics/SVG/1.1/DTD/svg11.dtd">
<!-- Generated by Microsoft Visio, SVG Export 029_ASCTasks_Diagnostics.svg Page-1 -->
<svg xmlns="http://www.w3.org/2000/svg" xmlns:xlink="http://www.w3.org/1999/xlink" xmlns:ev="http://www.w3.org/2001/xml-events"
		xmlns:v="http://schemas.microsoft.com/visio/2003/SVGExtensions/" width="8.26772in" height="11.6929in"
		viewBox="0 0 595.276 841.889" xml:space="preserve" color-interpolation-filters="sRGB" class="st3">
	<v:documentProperties v:langID="3082">
		<v:userDefs>
			<v:ud v:nameU="msvNoAutoConnect" v:val="VT0(1):26"/>
		</v:userDefs>
	</v:documentProperties>

	<style type="text/css">
	<![CDATA[
		.st1 {fill:#ffffff}
		.st2 {fill:#595959}
		.st3 {fill:none;fill-rule:evenodd;font-size:12px;overflow:visible;stroke-linecap:square;stroke-miterlimit:3}
	]]>
	</style>

	<g v:mID="0" v:index="1" v:groupContext="foregroundPage">
		<title>Page-1</title>
		<v:pageProperties v:drawingScale="0.0393701" v:pageScale="0.0393701" v:drawingUnits="24" v:shadowOffsetX="9"
				v:shadowOffsetY="-9"/>
		<g id="group148-1" transform="translate(0,-830.731)" v:mID="148" v:groupContext="group">
			<title>Diagnostics</title>
			<g id="group149-2" v:mID="149" v:groupContext="group">
				<title>Sheet.149</title>
				<g id="shape150-3" v:mID="150" v:groupContext="shape">
					<title>Sheet.150</title>
					<path d="M15.01 841.89 L1.4 841.89 C0.63 841.89 0 841.26 0 840.49 L0 832.13 C0 831.36 0.63 830.73 1.4 830.73
								 L15.01 830.73 C15.78 830.73 16.41 831.36 16.41 832.13 L16.41 840.49 C16.44 841.26 15.81 841.89 15.01
								 841.89 Z" class="st1"/>
				</g>
				<g id="shape151-6" v:mID="151" v:groupContext="shape" transform="translate(0.314827,-0.314827)">
					<title>Sheet.151</title>
					<path d="M15.74 832.44 C15.74 831.85 15.25 831.39 14.69 831.39 L1.05 831.39 C0.45 831.39 0 831.88 0 832.44 L0
								 840.84 C-0 841.43 0.49 841.89 1.05 841.89 L14.69 841.89 C15.29 841.89 15.74 841.4 15.74 840.84 L15.74
								 832.44 ZM14.69 832.44 L14.69 833.39 L12.24 835.17 L11.02 834.54 C10.81 834.44 10.56 834.47 10.42
								 834.61 L9.55 835.42 L8.19 835.38 C7.98 835.38 7.8 835.49 7.73 835.63 L6.75 837.9 L5.7 835.49 C5.6
								 835.31 5.46 835.24 5.25 835.24 C5.07 835.24 4.9 835.31 4.79 835.49 L3.85 836.96 L3.01 836.68 C2.87
								 836.64 2.76 836.64 2.62 836.71 L1.01 837.52 L1.01 832.44 L14.69 832.44 ZM1.05 840.49 L1.05 838.57
								 L1.05 838.64 L2.9 837.73 L3.92 838.08 C4.13 838.15 4.37 838.08 4.51 837.87 L5.21 836.78 L6.26 839.51
								 C6.37 839.69 6.51 839.79 6.72 839.79 C6.72 839.79 6.72 839.79 6.72 839.79 C6.89 839.79 7.07 839.65
								 7.17 839.51 L8.43 836.71 L9.69 836.75 C9.83 836.75 9.97 836.57 10.07 836.5 L10.81 835.73 L11.96
								 836.33 C12.14 836.43 12.38 836.4 12.52 836.26 L14.59 834.72 L14.59 840.49 L1.05 840.49 Z"
							class="st2"/>
				</g>
			</g>
		</g>
	</g>
</svg>
