<?xml version="1.0" encoding="UTF-8" standalone="no"?>
<!DOCTYPE svg PUBLIC "-//W3C//DTD SVG 1.1//EN" "http://www.w3.org/Graphics/SVG/1.1/DTD/svg11.dtd">
<!-- Generated by Microsoft Visio, SVG Export 029_ASCTasks_Diagnostics.svg Page-1 -->
<svg xmlns="http://www.w3.org/2000/svg" xmlns:xlink="http://www.w3.org/1999/xlink" xmlns:ev="http://www.w3.org/2001/xml-events"
		xmlns:v="http://schemas.microsoft.com/visio/2003/SVGExtensions/" width="0.188886in" height="0.137337in"
		viewBox="0 0 13.5998 9.88823" xml:space="preserve" color-interpolation-filters="sRGB" class="st3">
	<v:documentProperties v:langID="3082" v:metric="true" v:viewMarkup="false"/>

	<style type="text/css">
	<![CDATA[
		.st1 {fill:#ffffff;stroke:none;stroke-width:1}
		.st2 {fill:#595959;stroke:none;stroke-width:1}
		.st3 {fill:none;fill-rule:evenodd;font-size:12px;overflow:visible;stroke-linecap:square;stroke-miterlimit:3}
	]]>
	</style>

	<g v:mID="0" v:index="1" v:groupContext="foregroundPage">
		<title>Page-1</title>
		<v:pageProperties v:drawingScale="1" v:pageScale="1" v:drawingUnits="19" v:shadowOffsetX="9" v:shadowOffsetY="-9"/>
		<g id="group47-1" transform="translate(1,-1)" v:mID="47" v:groupContext="group">
			<title>Diagnostics</title>
			<g id="group48-2" v:mID="48" v:groupContext="group">
				<title>Sheet.48</title>
				<g id="shape49-3" v:mID="49" v:groupContext="shape">
					<title>Sheet.49</title>
					<path d="M10.61 9.89 L0.99 9.89 C0.45 9.89 0 9.44 0 8.9 L0 2.99 C0 2.45 0.45 2 0.99 2 L10.61 2 C11.15 2 11.6
								 2.45 11.6 2.99 L11.6 8.9 C11.62 9.44 11.17 9.89 10.61 9.89 Z" class="st1"/>
				</g>
				<g id="shape50-5" v:mID="50" v:groupContext="shape" transform="translate(0.222529,-0.222529)">
					<title>Sheet.50</title>
					<path d="M11.13 3.21 C11.13 2.79 10.78 2.47 10.38 2.47 L0.74 2.47 C0.32 2.47 0 2.81 0 3.21 L0 9.15 C0 9.56 0.35
								 9.89 0.74 9.89 L10.38 9.89 C10.81 9.89 11.13 9.54 11.13 9.15 L11.13 3.21 ZM10.38 3.21 L10.38 3.88
								 L8.65 5.14 L7.79 4.69 C7.64 4.62 7.46 4.64 7.37 4.74 L6.75 5.32 L5.79 5.29 C5.64 5.29 5.51 5.36
								 5.46 5.46 L4.77 7.07 L4.03 5.36 C3.96 5.24 3.86 5.19 3.71 5.19 C3.58 5.19 3.46 5.24 3.39 5.36 L2.72
								 6.4 L2.13 6.21 C2.03 6.18 1.95 6.18 1.85 6.23 L0.71 6.8 L0.71 3.21 L10.38 3.21 ZM0.74 8.9 L0.74
								 7.54 L0.74 7.59 L2.05 6.95 L2.77 7.2 C2.92 7.24 3.09 7.2 3.19 7.05 L3.68 6.28 L4.42 8.21 C4.5 8.33
								 4.6 8.4 4.75 8.4 C4.75 8.4 4.75 8.4 4.75 8.4 C4.87 8.4 5 8.3 5.07 8.21 L5.96 6.23 L6.85 6.26 C6.95
								 6.26 7.05 6.13 7.12 6.08 L7.64 5.53 L8.45 5.96 C8.58 6.03 8.75 6.01 8.85 5.91 L10.31 4.82 L10.31
								 8.9 L0.74 8.9 Z" class="st2"/>
				</g>
			</g>
		</g>
	</g>
</svg>
