<?xml version="1.0" encoding="UTF-8" standalone="no"?>
<!DOCTYPE svg PUBLIC "-//W3C//DTD SVG 1.1//EN" "http://www.w3.org/Graphics/SVG/1.1/DTD/svg11.dtd">
<!-- Generated by Microsoft Visio, SVG Export 030_ASCTasks_monitor.svg Page-1 -->
<svg xmlns="http://www.w3.org/2000/svg" xmlns:xlink="http://www.w3.org/1999/xlink" xmlns:ev="http://www.w3.org/2001/xml-events"
		xmlns:v="http://schemas.microsoft.com/visio/2003/SVGExtensions/" width="0.856873in" height="0.856873in"
		viewBox="0 0 61.6949 61.6949" xml:space="preserve" color-interpolation-filters="sRGB" class="st2">
	<v:documentProperties v:langID="3082"/>

	<style type="text/css">
	<![CDATA[
		.st1 {fill:#3f5765;stroke:none;stroke-linecap:round;stroke-linejoin:round;stroke-width:0.75}
		.st2 {fill:none;fill-rule:evenodd;font-size:12px;overflow:visible;stroke-linecap:square;stroke-miterlimit:3}
	]]>
	</style>

	<g v:mID="0" v:index="1" v:groupContext="foregroundPage">
		<title>Page-1</title>
		<v:pageProperties v:drawingScale="1" v:pageScale="1" v:drawingUnits="19" v:shadowOffsetX="8.99998"
				v:shadowOffsetY="-8.99998"/>
		<g id="shape1-1" v:mID="1" v:groupContext="shape" transform="translate(22.5,-21.9407)">
			<title>Monitoring</title>
			<path d="M4.15 57.97 C3.15 58.84 3.31 59.86 3.36 60.4 C4.13 61.06 8.39 61.63 9.78 61.69 C10.27 61.31 10.71 61.01 10.89
						 60.86 L10.87 60.72 C10.35 60.59 9.97 60.59 9.45 60.47 C9.41 60.79 9.58 61.22 9.36 61.19 C9.3 60.35 9.18
						 59.56 10.27 58.86 L4.15 57.97 ZM11.76 53.13 L13.53 53.35 L13.32 55.46 L11.5 55.16 L11.76 53.13 ZM2.18 52.47
						 C2.08 52.46 1.98 52.54 1.98 52.66 C1.96 52.76 2.05 52.86 2.16 52.86 L5.5 53.08 C5.61 53.08 5.71 52.99 5.71
						 52.89 C5.72 52.79 5.64 52.69 5.52 52.69 L2.18 52.47 ZM2.35 51.7 C2.23 51.7 2.15 51.79 2.13 51.89 C2.13 51.99
						 2.22 52.09 2.32 52.09 L5.66 52.31 C5.77 52.32 5.86 52.24 5.87 52.12 C5.87 52.02 5.79 51.92 5.69 51.92 L2.35
						 51.7 ZM2.45 50.95 C2.33 50.93 2.25 51.01 2.23 51.11 C2.23 51.23 2.32 51.31 2.42 51.33 L5.76 51.55 C5.87
						 51.55 5.96 51.47 5.97 51.37 C5.97 51.25 5.89 51.16 5.79 51.16 L2.45 50.95 ZM7.23 50.91 C6.78 51.3 6.46 51.9
						 6.39 52.59 C6.36 53.15 6.49 53.68 6.76 54.1 L8.36 52.83 L7.23 50.91 ZM12.1 50.53 L13.83 50.63 L13.59 52.86
						 L11.86 52.66 L12.1 50.53 ZM9 50.46 L8.42 52.96 L8.42 52.96 L8.42 52.98 L6.85 54.24 C7.2 54.72 7.74 55.06
						 8.34 55.11 C9.52 55.21 10.56 54.24 10.67 52.93 C10.76 51.73 10.04 50.68 9 50.46 ZM2.8 48.51 L11.9 48.85
						 L11.86 49.18 L2.77 48.85 L2.8 48.51 ZM2.89 47.84 L11.98 48.17 L11.95 48.51 L2.85 48.17 L2.89 47.84 ZM2.58
						 47.33 L2.38 49.23 L11.81 49.67 L11.11 55.65 L13.68 56.05 L14.6 47.64 L2.58 47.33 ZM1.88 46.06 L15.57 46.18
						 L14.25 57.85 L0.81 56.17 L1.88 46.06 ZM17.3 45.39 L1.34 45.39 L0 57.16 L15.27 59.38 L15.86 59.33 L17.44
						 45.92 C17.45 45.76 17.29 45.55 17.3 45.39 Z" class="st1"/>
		</g>
	</g>
</svg>
