<?xml version="1.0" encoding="UTF-8" standalone="no"?>
<!DOCTYPE svg PUBLIC "-//W3C//DTD SVG 1.1//EN" "http://www.w3.org/Graphics/SVG/1.1/DTD/svg11.dtd">
<!-- Generated by Microsoft Visio, SVG Export 031_ASCTasks_KeyVault.svg Page-1 -->
<svg xmlns="http://www.w3.org/2000/svg" xmlns:xlink="http://www.w3.org/1999/xlink" xmlns:ev="http://www.w3.org/2001/xml-events"
		xmlns:v="http://schemas.microsoft.com/visio/2003/SVGExtensions/" width="0.856873in" height="0.856873in"
		viewBox="0 0 61.6949 61.6949" xml:space="preserve" color-interpolation-filters="sRGB" class="st3">
	<v:documentProperties v:langID="3082"/>

	<style type="text/css">
	<![CDATA[
		.st1 {fill:#7fba00;stroke:none;stroke-linecap:butt;stroke-width:12.24}
		.st2 {fill:#fcd116;stroke:none;stroke-linecap:butt;stroke-width:12.24}
		.st3 {fill:none;fill-rule:evenodd;font-size:12px;overflow:visible;stroke-linecap:square;stroke-miterlimit:3}
	]]>
	</style>

	<g v:mID="0" v:index="1" v:groupContext="foregroundPage">
		<title>Page-1</title>
		<v:pageProperties v:drawingScale="1" v:pageScale="1" v:drawingUnits="19" v:shadowOffsetX="8.99997"
				v:shadowOffsetY="-8.99997"/>
		<g id="group15-1" transform="translate(22.1484,-20.65)" v:mID="15" v:groupContext="group">
			<title>Key Vault</title>
			<g id="shape16-2" v:mID="16" v:groupContext="shape">
				<title>Sheet.16</title>
				<path d="M18.35 52.52 C18.35 49.53 16.92 46.91 14.75 45.23 C14.75 45.31 14.75 45.43 14.75 45.51 C14.75 46.42 14.5
							 47.28 14.13 48.01 C15.2 49.2 15.85 50.76 15.85 52.48 C15.85 56.16 12.86 59.16 9.18 59.16 C5.49 59.16
							 2.5 56.16 2.5 52.48 C2.5 50.63 3.24 49 4.42 47.77 C4.1 47.07 3.89 46.29 3.89 45.47 C3.89 45.31 3.89
							 45.1 3.93 44.94 C1.56 46.58 0 49.36 0 52.48 C0 57.6 4.1 61.69 9.18 61.69 C14.26 61.69 18.35 57.6 18.35
							 52.52 Z" class="st1"/>
			</g>
			<g id="shape17-4" v:mID="17" v:groupContext="shape" transform="translate(5.07945,-4.34211)">
				<title>Sheet.17</title>
				<path d="M4.22 45.56 C1.88 45.56 0 47.44 0 49.77 C0 51.7 1.27 53.3 3.03 53.83 L3.03 58.01 L1.07 58.01 L1.07 60.14
							 L3.03 60.14 L3.03 61.69 L5.37 61.69 L5.37 53.79 C7.13 53.3 8.4 51.66 8.4 49.73 C8.44 47.44 6.55 45.56
							 4.22 45.56 ZM4.22 47.77 C5.33 47.77 6.23 48.67 6.23 49.77 C6.23 50.88 5.33 51.78 4.22 51.78 C3.11 51.78
							 2.21 50.88 2.21 49.77 C2.21 48.67 3.11 47.77 4.22 47.77 Z" class="st2"/>
			</g>
		</g>
	</g>
</svg>
