<?xml version="1.0" encoding="UTF-8" standalone="no"?>
<!DOCTYPE svg PUBLIC "-//W3C//DTD SVG 1.1//EN" "http://www.w3.org/Graphics/SVG/1.1/DTD/svg11.dtd">
<!-- Generated by Microsoft Visio, SVG Export 032_ASCTasks_AzureSearch.svg Page-1 -->
<svg xmlns="http://www.w3.org/2000/svg" xmlns:xlink="http://www.w3.org/1999/xlink" xmlns:ev="http://www.w3.org/2001/xml-events"
		xmlns:v="http://schemas.microsoft.com/visio/2003/SVGExtensions/" width="0.856873in" height="0.856873in"
		viewBox="0 0 61.6949 61.6949" xml:space="preserve" color-interpolation-filters="sRGB" class="st8">
	<v:documentProperties v:langID="3082"/>

	<style type="text/css">
	<![CDATA[
		.st1 {fill:#59b4d9;stroke:none;stroke-linecap:butt;stroke-width:12.24}
		.st2 {fill:#ffffff;fill-opacity:0.2;stroke:none;stroke-linecap:butt;stroke-width:12.24}
		.st3 {fill:#ffffff;stroke:none;stroke-linecap:butt;stroke-width:12.24}
		.st4 {fill:#59b4d9;fill-opacity:0.098;stroke:none;stroke-linecap:butt;stroke-width:12.24}
		.st5 {fill:#59b4d9;fill-opacity:0.3;stroke:none;stroke-linecap:butt;stroke-width:12.24}
		.st6 {fill:#3e3e3e;stroke:none;stroke-linecap:butt;stroke-width:12.24}
		.st7 {fill:#1e1e1e;fill-opacity:0.5;stroke:none;stroke-linecap:butt;stroke-width:12.24}
		.st8 {fill:none;fill-rule:evenodd;font-size:12px;overflow:visible;stroke-linecap:square;stroke-miterlimit:3}
	]]>
	</style>

	<g v:mID="0" v:index="1" v:groupContext="foregroundPage">
		<title>Page-1</title>
		<v:pageProperties v:drawingScale="1" v:pageScale="1" v:drawingUnits="19" v:shadowOffsetX="8.99997"
				v:shadowOffsetY="-8.99997"/>
		<g id="group18-1" transform="translate(20.55,-20.75)" v:mID="18" v:groupContext="group">
			<title>Azure Search</title>
			<g id="shape19-2" v:mID="19" v:groupContext="shape" transform="translate(0,-6.66352)">
				<title>Sheet.19</title>
				<path d="M18.1 53.63 C18.1 53.47 18.14 53.26 18.14 53.1 C18.14 50.18 15.75 47.83 12.79 47.83 C11.06 47.79 9.46 48.61
							 8.47 49.97 C7.86 49.56 7.12 49.36 6.33 49.36 C4.11 49.36 2.3 51.16 2.3 53.34 L2.3 53.67 C0.82 54.46
							 0 55.73 0 57.29 C0 59.76 2.02 61.69 4.61 61.69 L15.96 61.69 C18.55 61.69 20.57 59.76 20.57 57.29 C20.57
							 55.65 19.66 54.33 18.1 53.63 Z" class="st1"/>
			</g>
			<g id="shape20-4" v:mID="20" v:groupContext="shape" transform="translate(0,-6.78691)">
				<title>Sheet.20</title>
				<path d="M2.88 59.43 C2.88 57.75 3.74 56.43 5.35 55.61 L5.35 55.28 C5.35 52.93 7.28 51.04 9.63 51.04 C10.45 51.04
							 11.23 51.25 11.89 51.66 C12.92 50.22 14.64 49.31 16.49 49.31 C16.49 49.31 16.49 49.31 16.49 49.31 C15.51
							 48.45 14.23 47.92 12.79 47.92 C11.06 47.92 9.46 48.74 8.47 50.1 C7.86 49.68 7.12 49.48 6.33 49.48 C4.11
							 49.48 2.3 51.29 2.3 53.47 L2.3 53.8 C0.82 54.58 0 55.85 0 57.42 C0 59.51 1.44 61.24 3.46 61.69 C3.08
							 61.04 2.88 60.26 2.88 59.43 Z" class="st2"/>
			</g>
			<g id="shape21-6" v:mID="21" v:groupContext="shape" transform="translate(6.95145,-5.10047)">
				<title>Sheet.21</title>
				<path d="M7.16 58.98 C6.75 60.58 5.35 61.69 3.7 61.69 C3.41 61.69 3.13 61.65 2.84 61.57 C2.43 61.45 2.02 61.28 1.69
							 61.04 C1.32 60.79 1.03 60.46 0.78 60.13 C0.25 59.31 0 58.32 0.25 57.29 C0.66 55.69 2.06 54.58 3.7 54.58
							 C3.99 54.58 4.28 54.62 4.57 54.7 C5.47 54.95 6.25 55.48 6.75 56.31 C7.24 57.09 7.4 58.08 7.16 58.98
							 Z" class="st3"/>
			</g>
			<g id="shape22-8" v:mID="22" v:groupContext="shape" transform="translate(6.95145,-5.10047)">
				<title>Sheet.22</title>
				<path d="M7.16 58.98 C6.75 60.58 5.35 61.69 3.7 61.69 C3.41 61.69 3.13 61.65 2.84 61.57 C2.43 61.45 2.02 61.28 1.69
							 61.04 C1.32 60.79 1.03 60.46 0.78 60.13 C0.25 59.31 0 58.32 0.25 57.29 C0.66 55.69 2.06 54.58 3.7 54.58
							 C3.99 54.58 4.28 54.62 4.57 54.7 C5.47 54.95 6.25 55.48 6.75 56.31 C7.24 57.09 7.4 58.08 7.16 58.98
							 Z" class="st4"/>
			</g>
			<g id="shape23-10" v:mID="23" v:groupContext="shape" transform="translate(6.95145,-6.25219)">
				<title>Sheet.23</title>
				<path d="M5.64 56.31 C5.31 56.1 4.94 55.94 4.57 55.85 C4.28 55.77 3.99 55.73 3.7 55.73 C2.06 55.73 0.66 56.84 0.25
							 58.45 C0 59.47 0.21 60.5 0.78 61.28 C0.86 61.41 0.99 61.57 1.11 61.69 C1.85 59.35 3.5 57.42 5.64 56.31
							 Z" class="st5"/>
			</g>
			<g id="shape24-12" v:mID="24" v:groupContext="shape" transform="translate(1.89211,0)">
				<title>Sheet.24</title>
				<path d="M13.12 50.42 C12.42 49.27 11.31 48.45 10 48.12 C9.58 48.04 9.17 47.96 8.76 47.96 C6.42 47.96 4.4 49.56 3.83
							 51.82 C3.5 53.1 3.7 54.41 4.36 55.57 L0.49 59.47 C0 59.97 0 60.83 0.49 61.32 C0.78 61.57 1.11 61.69
							 1.44 61.69 C1.77 61.69 2.1 61.57 2.39 61.32 L6.25 57.42 C6.66 57.66 7.12 57.83 7.57 57.95 C7.98 58.03
							 8.39 58.12 8.8 58.12 C11.15 58.12 13.16 56.51 13.74 54.25 C14.03 52.93 13.82 51.58 13.12 50.42 ZM12.22
							 53.88 C11.81 55.48 10.41 56.59 8.76 56.59 C8.47 56.59 8.19 56.55 7.9 56.47 C7.49 56.35 7.07 56.18 6.75
							 55.94 C6.38 55.69 6.09 55.36 5.84 55.03 C5.31 54.21 5.06 53.22 5.31 52.19 C5.72 50.59 7.12 49.48 8.76
							 49.48 C9.05 49.48 9.34 49.52 9.63 49.6 C10.53 49.85 11.31 50.38 11.81 51.21 C12.3 52.03 12.46 52.97
							 12.22 53.88 Z" class="st6"/>
			</g>
			<g id="shape25-14" v:mID="25" v:groupContext="shape" transform="translate(5.88199,-3.86648)">
				<title>Sheet.25</title>
				<path d="M1.89 61.08 C1.36 60.71 0.95 60.3 0.58 59.76 C0.49 59.64 0.45 59.56 0.37 59.43 L0.04 59.8 L0 59.84 C0.04
							 59.93 0.08 60.01 0.16 60.09 C0.58 60.67 1.03 61.16 1.6 61.57 C1.65 61.61 1.77 61.65 1.89 61.69 L2.26
							 61.32 C2.1 61.2 2.02 61.16 1.89 61.08 Z" class="st7"/>
			</g>
		</g>
	</g>
</svg>
