<?xml version="1.0" encoding="UTF-8" standalone="no"?>
<!DOCTYPE svg PUBLIC "-//W3C//DTD SVG 1.1//EN" "http://www.w3.org/Graphics/SVG/1.1/DTD/svg11.dtd">
<!-- Generated by Microsoft Visio, SVG Export 035_ASCTasks_AzureLogo.svg Page-1 -->
<svg xmlns="http://www.w3.org/2000/svg" xmlns:xlink="http://www.w3.org/1999/xlink" xmlns:ev="http://www.w3.org/2001/xml-events"
		xmlns:v="http://schemas.microsoft.com/visio/2003/SVGExtensions/" width="0.256436in" height="0.204424in"
		viewBox="0 0 18.4634 14.7185" xml:space="preserve" color-interpolation-filters="sRGB" class="st2">
	<v:documentProperties v:langID="3082" v:metric="true" v:viewMarkup="false"/>

	<style type="text/css">
	<![CDATA[
		.st1 {fill:#2075b8;stroke:none;stroke-linecap:butt;stroke-width:1}
		.st2 {fill:none;fill-rule:evenodd;font-size:12px;overflow:visible;stroke-linecap:square;stroke-miterlimit:3}
	]]>
	</style>

	<g v:mID="0" v:index="1" v:groupContext="foregroundPage">
		<title>Page-1</title>
		<v:pageProperties v:drawingScale="1" v:pageScale="1" v:drawingUnits="19" v:shadowOffsetX="8.99997"
				v:shadowOffsetY="-8.99997"/>
		<g id="shape96-1" v:mID="96" v:groupContext="shape" transform="translate(0.988021,-1)">
			<title>Azure</title>
			<path d="M4.13 14.69 C4.15 14.67 5.8 14.36 7.81 14.01 C9.82 13.66 11.48 13.36 11.5 13.34 C11.53 13.31 11.3 13.03 8.81
						 10.07 C8.15 9.29 7.6 8.61 7.58 8.58 C7.56 8.53 7.82 7.78 8.56 5.74 C9.11 4.21 9.58 2.94 9.58 2.92 C9.59
						 2.89 9.62 2.87 9.64 2.87 C9.69 2.87 16.5 14.65 16.48 14.69 C16.47 14.71 13.68 14.72 10.28 14.72 C6.63 14.72
						 4.11 14.71 4.13 14.69 ZM0.01 13.28 C0 13.25 0.15 12.94 0.39 12.53 C0.61 12.14 1.55 10.52 2.48 8.92 L4.16
						 6 L6.54 4 C7.85 2.9 8.94 2 8.97 2 C8.99 2 9 2.02 8.99 2.06 C8.86 2.39 3.77 13.26 3.72 13.29 C3.67 13.33
						 3.24 13.34 1.85 13.34 C0.25 13.34 0.03 13.33 0.01 13.28 Z" class="st1"/>
		</g>
	</g>
</svg>
