<?xml version="1.0" encoding="UTF-8" standalone="no"?>
<!DOCTYPE svg PUBLIC "-//W3C//DTD SVG 1.1//EN" "http://www.w3.org/Graphics/SVG/1.1/DTD/svg11.dtd">
<!-- Generated by Microsoft Visio, SVG Export 036_ASCTasks_Subscription.svg Page-1 -->
<svg xmlns="http://www.w3.org/2000/svg" xmlns:xlink="http://www.w3.org/1999/xlink" xmlns:ev="http://www.w3.org/2001/xml-events"
		xmlns:v="http://schemas.microsoft.com/visio/2003/SVGExtensions/" width="0.856873in" height="0.856873in"
		viewBox="0 0 61.6949 61.6949" xml:space="preserve" color-interpolation-filters="sRGB" class="st5">
	<v:documentProperties v:langID="3082"/>

	<style type="text/css">
	<![CDATA[
		.st1 {fill:#ffc000;stroke:none;stroke-linecap:round;stroke-linejoin:round;stroke-width:0.749999}
		.st2 {fill:#ffffff;stroke:none;stroke-linecap:round;stroke-linejoin:round;stroke-width:0.749999}
		.st3 {fill:#bf9000;stroke:none;stroke-linecap:round;stroke-linejoin:round;stroke-width:0.749999}
		.st4 {fill:#ffe699;stroke:none;stroke-linecap:round;stroke-linejoin:round;stroke-width:0.749999}
		.st5 {fill:none;fill-rule:evenodd;font-size:12px;overflow:visible;stroke-linecap:square;stroke-miterlimit:3}
	]]>
	</style>

	<g v:mID="0" v:index="1" v:groupContext="foregroundPage">
		<title>Page-1</title>
		<v:pageProperties v:drawingScale="1" v:pageScale="1" v:drawingUnits="19" v:shadowOffsetX="8.99997"
				v:shadowOffsetY="-8.99997"/>
		<g id="group12-1" transform="translate(25.1719,-20.95)" v:mID="12" v:groupContext="group">
			<title>Sheet.12</title>
			<g id="group13-2" transform="translate(0,-7.50477)" v:mID="13" v:groupContext="group">
				<title>Sheet.13</title>
				<g id="shape13-3" v:mID="13" v:groupContext="groupContent">
					<path d="M5.19 49.69 C5.83 49.05 6.85 49.06 7.49 49.69 L12.03 54.26 C12.66 54.88 12.66 55.91 12.02 56.54 L7.45
								 61.07 C6.82 61.69 5.8 61.69 5.17 61.07 L0.63 56.5 C0 55.87 0 54.85 0.63 54.22 L5.19 49.69 Z"
							class="st1"/>
				</g>
			</g>
			<g id="group14-5" transform="translate(4.19862,-9.23706E-14)" v:mID="14" v:groupContext="group">
				<title>Sheet.14</title>
				<g id="shape14-6" v:mID="14" v:groupContext="groupContent">
					<path d="M3.78 47.48 L3.78 59.82 L1.89 61.69 L0 59.82 L0 47.48 L3.78 47.48 Z" class="st1"/>
				</g>
			</g>
			<g id="group15-8" transform="translate(4.89117,-15.9113)" v:mID="15" v:groupContext="group">
				<title>Sheet.15</title>
				<g id="shape15-9" v:mID="15" v:groupContext="groupContent">
					<path d="M0 60.31 C0 59.56 0.63 58.93 1.38 58.93 C2.15 58.93 2.77 59.56 2.77 60.31 C2.77 61.08 2.15 61.69 1.38
								 61.69 C0.63 61.69 0 61.08 0 60.31 Z" class="st2"/>
				</g>
			</g>
			<g id="group16-11" transform="translate(4.95412,-2.1922)" v:mID="16" v:groupContext="group">
				<title>Sheet.16</title>
				<g id="shape16-12" v:mID="16" v:groupContext="groupContent">
					<path d="M0 55.84 L0 61.69 L1.13 61.69 L1.13 55.84 L0 55.84 Z" class="st3"/>
				</g>
			</g>
			<g id="group17-14" transform="translate(4.95412,-7.23241)" v:mID="17" v:groupContext="group">
				<title>Sheet.17</title>
				<g id="shape17-15" v:mID="17" v:groupContext="groupContent">
					<path d="M0 60.12 L1.13 60.92 L0 61.69 L0 60.12 Z" class="st3"/>
				</g>
			</g>
			<g id="group18-17" transform="translate(4.95228,-0.914869)" v:mID="18" v:groupContext="group">
				<title>Sheet.18</title>
				<g id="shape18-18" v:mID="18" v:groupContext="groupContent">
					<path d="M1.13 60.41 L1.13 61.69 L0 60.41 L1.13 60.41 Z" class="st3"/>
				</g>
			</g>
			<g id="group19-20" transform="translate(7.66136,-1.57227)" v:mID="19" v:groupContext="group">
				<title>Sheet.19</title>
				<g id="shape19-21" v:mID="19" v:groupContext="groupContent">
					<path d="M0 59.56 L1.38 60.35 L0 61.69 L0 59.56 Z" class="st1"/>
				</g>
			</g>
			<g id="group20-23" transform="translate(7.66136,-3.20741)" v:mID="20" v:groupContext="group">
				<title>Sheet.20</title>
				<g id="shape20-24" v:mID="20" v:groupContext="groupContent">
					<path d="M0 59.56 L1.38 60.63 L0 61.69 L0 59.56 Z" class="st1"/>
				</g>
			</g>
			<g id="group21-26" transform="translate(7.66136,-4.77967)" v:mID="21" v:groupContext="group">
				<title>Sheet.21</title>
				<g id="shape21-27" v:mID="21" v:groupContext="groupContent">
					<path d="M0 59.56 L1.38 60.63 L0 61.69 L0 59.56 Z" class="st1"/>
				</g>
			</g>
			<g id="group22-29" transform="translate(2.49871,-13.6473)" v:mID="22" v:groupContext="group">
				<title>Sheet.22</title>
				<g id="shape22-30" v:mID="22" v:groupContext="groupContent">
					<path d="M0 60.75 L0 61.69 L7.99 61.69 L7.99 60.75 L0 60.75 Z" class="st4"/>
				</g>
			</g>
			<g id="group23-32" transform="translate(2.49871,-12.2008)" v:mID="23" v:groupContext="group">
				<title>Sheet.23</title>
				<g id="shape23-33" v:mID="23" v:groupContext="groupContent">
					<path d="M0 60.75 L0 61.69 L7.99 61.69 L7.99 60.75 L0 60.75 Z" class="st4"/>
				</g>
			</g>
		</g>
	</g>
</svg>
