<svg xmlns="http://www.w3.org/2000/svg" class="" id="FxSymbol0-058" role="presentation" viewBox="0 0 50 50" focusable="false" xmlns:xlink="http://www.w3.org/1999/xlink" xmlns:svg="http://www.w3.org/2000/svg">
<g>
<title/>
<title>ManagementGroups</title>
<path class="msportalfx-svg-c14" fill="#7fba00" d="M 35 21.4 l -0.288 0.692 l -8.944 -10.732 L 25 12 l -0.768 -0.64 l -8.944 10.732 L 15 21.4 L 9.077 35.615 l 1.846 0.77 L 15 26.6 l 4.077 9.785 l 1.846 -0.77 l -4.767 -11.44 L 25 13.562 l 8.844 10.613 l -4.767 11.44 l 1.846 0.77 L 35 26.6 l 4.077 9.785 l 1.846 -0.77 L 35 21.4 Z"/>
<circle class="msportalfx-svg-c16" fill="#3999c6" cx="40" cy="36" r="3"/>
<circle class="msportalfx-svg-c16" fill="#3999c6" cx="30" cy="36" r="3"/>
<circle class="msportalfx-svg-c17" fill="#804998" cx="25" cy="12" r="5"/>
<circle class="msportalfx-svg-c19" fill="#0072c6" cx="15" cy="24" r="4"/>
<circle class="msportalfx-svg-c19" fill="#0072c6" cx="35" cy="24" r="4"/>
<circle class="msportalfx-svg-c16" fill="#3999c6" cx="20" cy="36" r="3"/>
<circle class="msportalfx-svg-c16" fill="#3999c6" cx="10" cy="36" r="3"/>
<path class="msportalfx-svg-c04" fill="#7a7a7a" d="M 9.5 45.4 a 1.854 1.854 0 0 1 -0.7 -0.2 l -6.8 -4 a 4.125 4.125 0 0 1 -2 -3.4 V 12.6 a 3.994 3.994 0 0 1 2 -3.4 l 6.8 -4 a 1.458 1.458 0 0 1 1.5 2.5 l -6.8 4 a 1.346 1.346 0 0 0 -0.5 0.9 v 25.2 a 1.346 1.346 0 0 0 0.5 0.9 l 6.8 4 a 1.456 1.456 0 0 1 0.5 2 a 1.709 1.709 0 0 1 -1.3 0.7 Z M 40.5 5 a 1.854 1.854 0 0 1 0.7 0.2 l 6.8 4 a 4.125 4.125 0 0 1 2 3.4 v 25.2 a 3.994 3.994 0 0 1 -2 3.4 l -6.8 4 a 1.458 1.458 0 0 1 -1.5 -2.5 l 6.8 -4 a 1.346 1.346 0 0 0 0.5 -0.9 V 12.6 a 1.346 1.346 0 0 0 -0.5 -0.9 l -6.8 -4 a 1.456 1.456 0 0 1 -0.5 -2 a 1.889 1.889 0 0 1 1.3 -0.7 Z"/>
</g>
</svg>