<svg viewBox="0 0 18 18" data-islogo="true" class="" role="presentation" focusable="false" xmlns:svg="http://www.w3.org/2000/svg" xmlns:xlink="http://www.w3.org/1999/xlink" id="FxSymbol0-0e0" data-type="64"><g><path d="M14.949 4.77h-1.031v12.8l1.031-1.923z" fill="#50e6ff"></path><path d="M14.956 15.628l-.007.014-1.031 1.924 1.031-.795 1.236-.952z" fill="#9cebff"></path><path d="M8.389 2.864a1.574 1.574 0 0 1 1.625-1.511 1.572 1.572 0 0 1 1.624 1.511v1.9h.782v-1.9a2.408 2.408 0 0 0-4.811 0v1.9h.78z" fill="#a3a3a3"></path><path d="M6 2.864a1.572 1.572 0 0 1 1.622-1.511 1.572 1.572 0 0 1 1.624 1.511v1.9h.78v-1.9a2.356 2.356 0 0 0-2.4-2.3 2.356 2.356 0 0 0-2.405 2.3v1.9H6z" fill="#767676"></path><path fill="#32bedd" d="M13.918 4.77v12.796L1.451 16.58l.378-11.81h12.089zm1.031 0v10.872l1.236.177-.378-11.049h-.858z"></path><path d="M12.2 12.314a2.3 2.3 0 0 0-1.8-2.182 2.849 2.849 0 0 0-2.663-2.753A2.477 2.477 0 0 0 5.2 9.026a2.3 2.3 0 0 0-2.128 2.314A2.735 2.735 0 0 0 5.626 14c.076 0 .151.007.226 0l4.162.281a.4.4 0 0 0 .11-.009 1.966 1.966 0 0 0 2.076-1.958z" fill="url(#148257f7-ca42-4525-9140-d4a605b156b0)"></path></g><defs>
<linearGradient id="148257f7-ca42-4525-9140-d4a605b156b0" x1="7.633" y1="15.343" x2="7.633" y2="5.837" gradientUnits="userSpaceOnUse"><stop offset="0" stop-color="#ccc"></stop><stop offset=".15" stop-color="#dadada"></stop><stop offset=".439" stop-color="#eee"></stop><stop offset=".724" stop-color="#fbfbfb"></stop><stop offset="1" stop-color="#fff"></stop></linearGradient>
</defs>
</svg>