<?xml version="1.0" encoding="utf-8"?>
<!-- Generator: Adobe Illustrator 22.1.0, SVG Export Plug-In . SVG Version: 6.00 Build 0)  -->
<svg version="1.1" id="Layer_1" xmlns="http://www.w3.org/2000/svg" xmlns:xlink="http://www.w3.org/1999/xlink" x="0px" y="0px"
	 width="50px" height="50px" viewBox="0 0 50 50" enable-background="new 0 0 50 50" xml:space="preserve">
<path fill="#3E3E3E" d="M49.5,41.419L46,34l0-24.49c0-1.331-1.079-2.41-2.41-2.41L6.41,7.126C5.079,7.126,4,8.205,4,9.536L4,34
	l-3.5,7.419C0.028,42.081,0.501,43,1.314,43h47.372C49.5,43,49.973,42.081,49.5,41.419z"/>
<path opacity="0.6" fill="#FFFFFF" d="M29.596,40h-9.191c-0.3,0-0.495-0.261-0.361-0.482l0.808-1.333
	C20.919,38.071,21.059,38,21.212,38h7.576c0.153,0,0.293,0.071,0.361,0.184l0.808,1.333C30.091,39.739,29.896,40,29.596,40z"/>
<rect x="7" y="10" fill="#59B4D9" width="36" height="24"/>
<rect x="7" y="10" opacity="0.8" fill="#FFFFFF" width="36" height="24"/>
<path fill="#7FBA00" d="M15.339,21.928l-0.632-0.729c-0.164-0.193-0.164-0.498,0.026-0.682l1.824-1.798
	c0.087-0.084,0.19-0.128,0.303-0.128c0.128,0,0.243,0.056,0.328,0.156l5.017,5.734l8.632-11.784
	c0.087-0.119,0.216-0.184,0.354-0.184c0.105,0,0.199,0.037,0.277,0.103l1.973,1.623c0.096,0.075,0.155,0.184,0.172,0.314
	c0.008,0.128-0.018,0.259-0.096,0.35L22.431,30.032L15.339,21.928z"/>
<path opacity="0.15" d="M15.339,21.928l-0.632-0.729c-0.164-0.193-0.164-0.498,0.026-0.682l1.824-1.798
	c0.087-0.084,0.19-0.128,0.303-0.128c0.128,0,0.243,0.056,0.328,0.156l5.017,5.734l8.632-11.784
	c0.087-0.119,0.216-0.184,0.354-0.184c0.105,0,0.199,0.037,0.277,0.103l1.973,1.623c0.096,0.075,0.155,0.184,0.172,0.314
	c0.008,0.128-0.018,0.259-0.096,0.35L22.431,30.032L15.339,21.928z"/>
</svg>
