<svg viewBox="0 0 18 18" class="" role="presentation" focusable="false" xmlns:svg="http://www.w3.org/2000/svg" xmlns:xlink="http://www.w3.org/1999/xlink" id="FxSymbol0-0ce" data-type="1"><g><path d="M17.2 13.92a.79.79 0 0 0 .8-.79.28.28 0 0 0 0-.13c-.31-2.5-1.73-4.54-4.46-4.54S9.34 10.22 9.06 13a.79.79 0 0 0 .71.88h7.43z" fill="#0078d4"></path><path d="M13.53 9.09a2.41 2.41 0 0 1-1.35-.4l1.34 3.52 1.34-3.49a2.6 2.6 0 0 1-1.33.37z" opacity=".8" class="msportalfx-svg-c01" fill="#ffffff"></path><circle cx="13.53" cy="6.58" r="2.51" fill="#0078d4"></circle><path d="M12.17 16.36a1.19 1.19 0 0 0 1.19-1.19.66.66 0 0 0 0-.14c-.46-3.74-2.59-6.78-6.66-6.78S.42 10.83 0 15a1.2 1.2 0 0 0 1.06 1.31h11.1z" fill="url(#b2bd4bf1-e824-4d65-b66f-23e3f1122ce4)"></path><path d="M6.76 9.14a3.7 3.7 0 0 1-2-.6l2 5.25 2-5.21a3.77 3.77 0 0 1-2 .56z" opacity=".8" class="msportalfx-svg-c01" fill="#ffffff"></path><circle cx="6.73" cy="5.39" r="3.75" fill="url(#b058fb8f-88d9-4c89-ad36-b748673e93fe)"></circle></g><defs>
<linearGradient id="b2bd4bf1-e824-4d65-b66f-23e3f1122ce4" x1="6.68" y1="7.26" x2="6.68" y2="18.36" gradientUnits="userSpaceOnUse"><stop offset=".22" stop-color="#32d4f5"></stop><stop offset=".47" stop-color="#31d1f3"></stop><stop offset=".63" stop-color="#2ec9eb"></stop><stop offset=".77" stop-color="#29bade"></stop><stop offset=".89" stop-color="#22a5cb"></stop><stop offset="1" stop-color="#198ab3"></stop><stop offset="1" stop-color="#198ab3"></stop></linearGradient>
<linearGradient id="b058fb8f-88d9-4c89-ad36-b748673e93fe" x1="6.4" y1="1.32" x2="7.21" y2="11.39"><stop offset=".22" stop-color="#32d4f5"></stop><stop offset=".47" stop-color="#31d1f3"></stop><stop offset=".63" stop-color="#2ec9eb"></stop><stop offset=".77" stop-color="#29bade"></stop><stop offset=".89" stop-color="#22a5cb"></stop><stop offset="1" stop-color="#198ab3"></stop><stop offset="1" stop-color="#198ab3"></stop></linearGradient>
</defs>
</svg>