<svg viewBox="-163 237 32 32" class="" role="presentation" focusable="false" xmlns:svg="http://www.w3.org/2000/svg" xmlns:xlink="http://www.w3.org/1999/xlink" id="FxSymbol0-0a1" data-type="1"><g><title></title><path d="M-144 251.5c0 .3-.2.5-.5.5h-3.9c-.3 0-.5-.2-.5-.5v-2.9c0-.3.2-.5.5-.5h3.9c.3 0 .5.2.5.5v2.9zm7 3c0 .3-.2.5-.5.5h-3.9c-.3 0-.5-.2-.5-.5v-2.9c0-.3.2-.5.5-.5h3.9c.3 0 .5.2.5.5v2.9zm-7 3c0 .3-.2.5-.5.5h-3.9c-.3 0-.5-.2-.5-.5v-2.9c0-.3.2-.5.5-.5h3.9c.3 0 .5.2.5.5v2.9zm-7-9c0 .3-.2.5-.5.5h-4c-.3 0-.5-.2-.5-.5v-3c0-.3.2-.5.5-.5h3.9c.4 0 .6.2.6.5v3z" class="msportalfx-svg-c13" fill="#b8d432"></path><path d="M-133.5 238h-28c-.3 0-.5.2-.5.5v6c0 .3.2.5.5.5h3c.3 0 .5-.2.5-.5V242h21v2.5c0 .3.2.5.6.5h2.9c.3 0 .5-.2.5-.5v-6c0-.3-.2-.5-.5-.5zm0 23.1h-2.9c-.3 0-.5.2-.5.5v2.4H-158v-2.5c0-.3-.2-.5-.6-.5h-2.9c-.3 0-.5.2-.5.6v5.9c0 .3.2.5.5.5h28c.3 0 .5-.2.5-.5v-5.9c0-.3-.2-.5-.5-.5z" class="msportalfx-svg-c19" fill="#0072c6"></path><path d="M-151 254.5c0 .3-.2.5-.5.5h-4c-.3 0-.5-.2-.5-.5v-3c0-.3.2-.5.5-.5h3.9c.4 0 .6.2.6.5v3zm0 6c0 .3-.2.5-.5.5h-4c-.3 0-.5-.2-.5-.5v-3c0-.3.2-.5.5-.5h3.9c.4 0 .6.2.6.5v3z" class="msportalfx-svg-c13" fill="#b8d432"></path></g><defs>
</defs>
</svg>