<svg viewBox="0 0 50 50" class="" role="presentation" focusable="false" xmlns:svg="http://www.w3.org/2000/svg" xmlns:xlink="http://www.w3.org/1999/xlink" id="FxSymbol0-0a2" data-type="1"><g><title></title><path d="M9.5 18h-4a.5.5 0 0 1-.5-.5v-3a.5.5 0 0 1 .5-.5h4a.5.5 0 0 1 .5.5v3a.5.5 0 0 1-.5.5zm0 7h-4a.5.5 0 0 1-.5-.5v-3a.5.5 0 0 1 .5-.5h4a.5.5 0 0 1 .5.5v3a.5.5 0 0 1-.5.5zm0-14h-4a.5.5 0 0 1-.5-.5v-3a.5.5 0 0 1 .5-.5h4a.5.5 0 0 1 .5.5v3a.5.5 0 0 1-.5.5z" class="msportalfx-svg-c14" fill="#57a300"></path><path d="M0 1.5v6a.5.5 0 0 0 .5.5h2a.5.5 0 0 0 .5-.5v-3a.5.5 0 0 1 .5-.5h21a.5.5 0 0 1 .5.5v3a.5.5 0 0 0 .5.5h2a.5.5 0 0 0 .5-.5v-6a.5.5 0 0 0-.5-.5H.5a.5.5 0 0 0-.5.5z" class="msportalfx-svg-c04" fill="#7a7a7a"></path><path d="M20.5 27h-4a.5.5 0 0 1-.5-.5v-3a.5.5 0 0 1 .5-.5h4a.5.5 0 0 1 .5.5v3a.5.5 0 0 1-.5.5zm0 7h-4a.5.5 0 0 1-.5-.5v-3a.5.5 0 0 1 .5-.5h4a.5.5 0 0 1 .5.5v3a.5.5 0 0 1-.5.5zm0-14h-4a.5.5 0 0 1-.5-.5v-3a.5.5 0 0 1 .5-.5h4a.5.5 0 0 1 .5.5v3a.5.5 0 0 1-.5.5z" class="msportalfx-svg-c14" fill="#57a300"></path><path d="M11 10.5v6a.5.5 0 0 0 .5.5h2a.5.5 0 0 0 .5-.5v-3a.5.5 0 0 1 .5-.5h21a.5.5 0 0 1 .5.5v3a.5.5 0 0 0 .5.5h2a.5.5 0 0 0 .5-.5v-6a.5.5 0 0 0-.5-.5h-27a.5.5 0 0 0-.5.5z" class="msportalfx-svg-c04" fill="#7a7a7a"></path><path d="M31.5 36h-4a.5.5 0 0 1-.5-.5v-3a.5.5 0 0 1 .5-.5h4a.5.5 0 0 1 .5.5v3a.5.5 0 0 1-.5.5zm7-4h-4a.5.5 0 0 1-.5-.5v-3a.5.5 0 0 1 .5-.5h4a.5.5 0 0 1 .5.5v3a.5.5 0 0 1-.5.5zm0 7h-4a.5.5 0 0 1-.5-.5v-3a.5.5 0 0 1 .5-.5h4a.5.5 0 0 1 .5.5v3a.5.5 0 0 1-.5.5zm7-3h-4a.5.5 0 0 1-.5-.5v-3a.5.5 0 0 1 .5-.5h4a.5.5 0 0 1 .5.5v3a.5.5 0 0 1-.5.5zm-14 7h-4a.5.5 0 0 1-.5-.5v-3a.5.5 0 0 1 .5-.5h4a.5.5 0 0 1 .5.5v3a.5.5 0 0 1-.5.5zm0-14h-4a.5.5 0 0 1-.5-.5v-3a.5.5 0 0 1 .5-.5h4a.5.5 0 0 1 .5.5v3a.5.5 0 0 1-.5.5z" class="msportalfx-svg-c14" fill="#57a300"></path><path d="M22 19.5v6a.5.5 0 0 0 .5.5h2a.5.5 0 0 0 .5-.5v-3a.5.5 0 0 1 .5-.5h21a.5.5 0 0 1 .5.5v3a.5.5 0 0 0 .5.5h2a.5.5 0 0 0 .5-.5v-6a.5.5 0 0 0-.5-.5h-27a.5.5 0 0 0-.5.5zm28 29v-6a.5.5 0 0 0-.5-.5h-2a.5.5 0 0 0-.5.5v3a.5.5 0 0 1-.5.5h-21a.5.5 0 0 1-.5-.5v-3a.5.5 0 0 0-.5-.5h-2a.5.5 0 0 0-.5.5v6a.5.5 0 0 0 .5.5h27a.5.5 0 0 0 .5-.5z" class="msportalfx-svg-c16" fill="#3999c6"></path><path d="M11 28H3.5a.5.5 0 0 1-.5-.5v-3a.5.5 0 0 0-.5-.5h-2a.5.5 0 0 0-.5.5v6a.5.5 0 0 0 .5.5H11v-3zm11 9h-7.5a.5.5 0 0 1-.5-.5v-3a.5.5 0 0 0-.5-.5h-2a.5.5 0 0 0-.5.5v6a.5.5 0 0 0 .5.5H22v-3z" class="msportalfx-svg-c04" fill="#7a7a7a"></path></g><defs>
</defs>
</svg>