<svg viewBox="0 0 64 64" class="" role="presentation" focusable="false" xmlns:svg="http://www.w3.org/2000/svg" xmlns:xlink="http://www.w3.org/1999/xlink" id="FxSymbol0-019"><g><title></title><path d="M63.6 32.4c.6-.6.5-1.7 0-2.3L60.5 27 46.7 13.6c-.6-.6-1.5-.6-2.2 0-.6.6-.8 1.7 0 2.3L59 30.1c.6.6.6 1.7 0 2.3L44.2 47.1c-.6.6-.6 1.7 0 2.3.6.6 1.7.5 2.2 0l13.7-13.6.1-.1 3.4-3.3zm-63.2 0c-.6-.6-.5-1.7 0-2.3L3.5 27l13.8-13.4c.6-.6 1.5-.6 2.2 0 .6.6.8 1.7 0 2.3L5.3 30.1c-.6.6-.6 1.7 0 2.3l14.5 14.7c.6.6.6 1.7 0 2.3-.6.6-1.7.5-2.2 0L3.6 36l-.1-.1-3.1-3.5z" class="msportalfx-svg-c16" fill="#3999c6"></path><path d="M47.6 2.5H28.1L17.6 32.1l12.8.1-10 29.3L48 22.4H34.6z" class="msportalfx-svg-c11" fill="#fcd116"></path><path opacity=".3" d="M34.6 22.4l13-19.9H37.4L26.6 27.1l12.8.1-19 34.3L48 22.4z" class="msportalfx-svg-c10" fill="#ff8c00"></path></g></svg>